g ball_low1
v 3.6629764E-08 0.44193232 1.08643015E-08
v -0.22502314 0.3166386 -0.19456491
v 3.6629764E-08 0.39127427 -0.19466461
v -0.25408357 0.35753065 1.08643015E-08
v 3.6629764E-08 0.38743186 0.19550505
v -0.36426914 0.121002965 -0.19440036
v -0.22282408 0.3135442 0.19538817
v -0.41111588 0.13656452 1.08643015E-08
v -0.36426914 -0.12100309 -0.19440036
v -0.36073822 0.11983006 0.19519585
v -0.41111588 -0.13656464 1.08643015E-08
v -0.22502308 -0.31663865 -0.1945649
v -0.36073822 -0.11983019 0.19519585
v -0.2540835 -0.35753077 1.08643015E-08
v 2.5223763E-08 -0.39127433 -0.19466461
v -0.22282402 -0.31354433 0.19538817
v 2.3747035E-08 -0.44193232 1.08643015E-08
v 0.22502314 -0.31663865 -0.1945649
v 2.5335773E-08 -0.38743186 0.19550507
v 0.25408357 -0.3575307 1.08643015E-08
v 0.36426914 -0.12100307 -0.19440037
v 0.22282408 -0.31354427 0.19538817
v 0.41111583 -0.13656461 1.08643015E-08
v 0.36426938 0.12100299 -0.19440037
v 0.36073822 -0.11983017 0.19519585
v 0.41111612 0.13656457 1.08643015E-08
v 0.22502327 0.3166387 -0.19456491
v 0.36073846 0.11983009 0.19519585
v 0.25408375 0.35753077 1.08643015E-08
v 3.6629764E-08 0.39127427 -0.19466461
v 0.2228242 0.31354427 0.19538817
v 3.6629764E-08 0.44193232 1.08643015E-08
v 3.6629764E-08 0.38743186 0.19550505
v 0.22282408 -0.31354427 0.19538817
v 0.24164784 -0.08027069 0.35360175
v 0.36073822 -0.11983017 0.19519585
v 0.14934659 -0.21015128 0.35360175
v 2.5335773E-08 -0.38743186 0.19550507
v 0.24164799 0.08027058 0.35360175
v 0.36073846 0.11983009 0.19519585
v 2.9057482E-08 -0.25976133 0.35360175
v -0.22282402 -0.31354433 0.19538817
v 0.14934668 0.21015127 0.35360175
v 0.2228242 0.31354427 0.19538817
v -0.14934655 -0.21015134 0.35360175
v -0.36073822 -0.11983019 0.19519585
v 3.6629764E-08 0.25976127 0.35360175
v 3.6629764E-08 0.38743186 0.19550505
v -0.24164782 -0.080270715 0.35360175
v -0.36073822 0.11983006 0.19519585
v -0.14934659 0.21015123 0.35360175
v -0.22282408 0.3135442 0.19538817
v -0.24164782 0.08027056 0.35360175
v 0.12704189 0.042200718 0.4156838
v 0.078516215 0.11048303 0.4156838
v 3.6629764E-08 -6.798655E-08 0.43707573
v 3.6629764E-08 0.13656454 0.4156838
v 0.12704182 -0.04220083 0.4156838
v -0.078516126 0.11048301 0.4156838
v 0.07851617 -0.11048312 0.4156838
v -0.12704177 0.042200692 0.4156838
v 3.2648778E-08 -0.13656461 0.4156838
v -0.12704177 -0.04220083 0.4156838
v -0.07851611 -0.11048312 0.4156838
v 0.14934659 -0.21015131 -0.3536017
v 0.22502314 -0.31663865 -0.1945649
v 0.36426914 -0.12100307 -0.19440037
v 2.9057482E-08 -0.25976133 -0.3536017
v 2.5223763E-08 -0.39127433 -0.19466461
v 0.24164784 -0.08027069 -0.3536017
v 0.36426938 0.12100299 -0.19440037
v -0.14934655 -0.21015133 -0.3536017
v -0.22502308 -0.31663865 -0.1945649
v 0.24164799 0.08027058 -0.3536017
v 0.22502327 0.3166387 -0.19456491
v -0.24164782 -0.080270715 -0.3536017
v -0.36426914 -0.12100309 -0.19440036
v 0.14934668 0.2101513 -0.3536017
v 3.6629764E-08 0.39127427 -0.19466461
v -0.24164782 0.08027058 -0.3536017
v -0.36426914 0.121002965 -0.19440036
v 3.6629764E-08 0.2597612 -0.3536017
v -0.22502314 0.3166386 -0.19456491
v -0.14934659 0.21015124 -0.3536017
v 0.12704189 0.042200718 -0.41568375
v 0.078516215 0.11048301 -0.41568375
v 3.6629764E-08 -9.2200935E-08 -0.43707573
v 3.6629764E-08 0.13656457 -0.41568375
v 0.12704182 -0.04220083 -0.41568375
v -0.078516126 0.11048301 -0.41568375
v 0.07851617 -0.11048312 -0.4156838
v -0.12704177 0.042200718 -0.41568375
v 3.2648778E-08 -0.13656464 -0.41568375
v -0.12704177 -0.042200856 -0.41568375
v -0.07851611 -0.11048315 -0.41568375
vt 0.8832272 0.12746808
vt 0.94423157 0.20415807
vt 0.9443038 0.13269998
vt 0.8855615 0.20345579
vt 0.8221014 0.13680947
vt 0.9452209 0.2780572
vt 0.82661957 0.20733975
vt 0.8869869 0.27850708
vt 0.94569904 0.35268646
vt 0.82958037 0.28040814
vt 0.88872653 0.3538493
vt 0.94791484 0.42702582
vt 0.8299495 0.3543259
vt 0.8892552 0.42818236
vt 0.9500346 0.50085723
vt 0.8299312 0.42807317
vt 0.8897439 0.50106764
vt 0.9485875 0.57475924
vt 0.8289097 0.5012809
vt 0.8897975 0.57395387
vt 0.9472671 0.64918846
vt 0.83060193 0.57442474
vt 0.88899726 0.6482806
vt 0.9454668 0.7237737
vt 0.8315209 0.64810705
vt 0.88851845 0.7236417
vt 0.94540364 0.7975964
vt 0.829806 0.7220288
vt 0.8868592 0.79869163
vt 0.94619435 0.86895996
vt 0.8277704 0.7952033
vt 0.8851945 0.87469757
vt 0.82396173 0.8658628
vt 0.09021882 0.60058755
vt 0.23816042 0.6077988
vt 0.20336941 0.51401955
vt 0.17322898 0.655569
vt 0.051161863 0.7338436
vt 0.31844154 0.60844094
vt 0.34875977 0.509108
vt 0.14823619 0.73195285
vt 0.095079094 0.86611056
vt 0.38500363 0.65202886
vt 0.46568674 0.59314495
vt 0.17576115 0.8072252
vt 0.21200414 0.95014536
vt 0.41252798 0.72730196
vt 0.5096022 0.7254145
vt 0.24232255 0.8508126
vt 0.35739216 0.94523513
vt 0.38753423 0.8036856
vt 0.47054273 0.8586696
vt 0.3226028 0.8514551
vt 0.2992368 0.66918635
vt 0.33263284 0.69139934
vt 0.2803821 0.72962666
vt 0.3464349 0.7285636
vt 0.25920147 0.6699021
vt 0.33402684 0.76624095
vt 0.22673708 0.6930127
vt 0.30156246 0.78935146
vt 0.21432932 0.73069
vt 0.26152736 0.790067
vt 0.22813147 0.76785415
vt 0.48301896 0.40123066
vt 0.4288786 0.48591965
vt 0.5679974 0.5216363
vt 0.43053427 0.34160367
vt 0.34010008 0.37886468
vt 0.56018627 0.41756728
vt 0.7013803 0.46450517
vt 0.426143 0.26207113
vt 0.32822835 0.24079156
vt 0.634576 0.38927343
vt 0.7752948 0.34308484
vt 0.46894684 0.19460404
vt 0.4021419 0.11937253
vt 0.6773801 0.3218055
vt 0.76342225 0.20501032
vt 0.543336 0.16630931
vt 0.53552294 0.062240496
vt 0.6729888 0.24227253
vt 0.6746422 0.09795541
vt 0.6205035 0.18264534
vt 0.5928049 0.3394844
vt 0.6144829 0.30646408
vt 0.55176175 0.29193842
vt 0.6123943 0.26720345
vt 0.5560792 0.35454473
vt 0.5862808 0.23784067
vt 0.5172422 0.34603572
vt 0.5474439 0.22933191
vt 0.49112895 0.31667277
vt 0.51071835 0.24439241
vt 0.48904043 0.27741253
vn -0 1 0
vn -0.5691033 0.76657563 -0.2974614
vn -0 0.9541083 -0.2994617
vn -0.5960199 0.8029696 0
vn -0 0.9541083 0.29946178
vn -0.91077566 0.28960818 -0.29430413
vn -0.5691033 0.76657563 0.29746133
vn -0.95296675 0.30307475 0
vn -0.91077566 -0.2896083 -0.29430407
vn -0.91077566 0.28960803 0.29430404
vn -0.95296675 -0.30307496 0
vn -0.56910306 -0.76657575 -0.29746136
vn -0.91077566 -0.28960833 0.29430404
vn -0.59601974 -0.8029698 0
vn -0 -0.9541084 -0.2994615
vn -0.569103 -0.76657575 0.2974614
vn -0 -1 0
vn 0.56910306 -0.76657575 -0.2974614
vn -0 -0.9541084 0.29946148
vn 0.5960198 -0.80296975 0
vn 0.91077566 -0.28960833 -0.294304
vn 0.569103 -0.76657575 0.29746142
vn 0.95296663 -0.30307502 0
vn 0.9107757 0.2896075 -0.29430416
vn 0.91077566 -0.28960842 0.294304
vn 0.952967 0.3030742 0
vn 0.5691029 0.76657593 -0.29746148
vn 0.91077584 0.2896075 0.29430407
vn 0.5960195 0.8029699 0
vn -0 0.9541083 -0.2994617
vn 0.5691029 0.76657593 0.2974615
vn -0 1 0
vn -0 0.9541083 0.29946178
vn 0.569103 -0.76657575 0.29746142
vn 0.59849507 -0.19002113 0.7782646
vn 0.91077566 -0.28960842 0.294304
vn 0.37203678 -0.5003652 0.7818078
vn -0 -0.9541084 0.29946148
vn 0.5984948 0.19002055 0.7782649
vn 0.91077584 0.2896075 0.29430407
vn -0 -0.6207277 0.78402627
vn -0.569103 -0.76657575 0.2974614
vn 0.37203664 0.50036496 0.78180796
vn 0.5691029 0.76657593 0.2974615
vn -0.37203673 -0.50036526 0.78180766
vn -0.91077566 -0.28960833 0.29430404
vn -0 0.6207278 0.78402627
vn -0 0.9541083 0.29946178
vn -0.59849495 -0.19002101 0.77826464
vn -0.91077566 0.28960803 0.29430404
vn -0.37203684 0.5003649 0.78180784
vn -0.5691033 0.76657563 0.29746133
vn -0.5984948 0.19002098 0.7782648
vn 0.37568143 0.119063295 0.91906875
vn 0.23313089 0.31298485 0.9207011
vn -0 0 1
vn -0 0.38785565 0.92172015
vn 0.37568164 -0.11906354 0.91906863
vn -0.2331312 0.31298462 0.9207011
vn 0.23313065 -0.31298497 0.9207011
vn -0.37568137 0.11906364 0.91906875
vn -0 -0.38785568 0.92172015
vn -0.37568137 -0.119063504 0.91906875
vn -0.23313059 -0.3129849 0.9207011
vn 0.37203678 -0.50036514 -0.7818078
vn 0.56910306 -0.76657575 -0.2974614
vn 0.91077566 -0.28960833 -0.294304
vn -0 -0.6207276 -0.7840263
vn -0 -0.9541084 -0.2994615
vn 0.5984948 -0.19002108 -0.7782647
vn 0.9107757 0.2896075 -0.29430416
vn -0.37203655 -0.5003652 -0.78180784
vn -0.56910306 -0.76657575 -0.29746136
vn 0.5984948 0.19002049 -0.7782648
vn 0.5691029 0.76657593 -0.29746148
vn -0.5984948 -0.19002095 -0.7782648
vn -0.91077566 -0.2896083 -0.29430407
vn 0.3720365 0.50036496 -0.78180796
vn -0 0.9541083 -0.2994617
vn -0.5984947 0.190021 -0.7782647
vn -0.91077566 0.28960818 -0.29430413
vn -0 0.6207274 -0.78402644
vn -0.5691033 0.76657563 -0.2974614
vn -0.37203664 0.5003649 -0.7818079
vn 0.3756814 0.11906324 -0.91906875
vn 0.23313072 0.312985 -0.9207011
vn -0 0 -1
vn -0 0.3878557 -0.92172015
vn 0.37568167 -0.11906357 -0.91906863
vn -0.23313072 0.31298506 -0.9207011
vn 0.23313068 -0.31298512 -0.9207011
vn -0.37568152 0.119063586 -0.91906863
vn -0 -0.38785583 -0.92172
vn -0.37568146 -0.11906349 -0.91906863
vn -0.23313089 -0.3129852 -0.92070097
g ball_low1_0
f 3/3/3 2/2/2 1/1/1
f 2/2/2 4/4/4 1/1/1
f 1/1/1 4/4/4 5/5/5
f 2/2/2 6/6/6 4/4/4
f 4/4/4 7/7/7 5/5/5
f 6/6/6 8/8/8 4/4/4
f 4/4/4 8/8/8 7/7/7
f 6/6/6 9/9/9 8/8/8
f 8/8/8 10/10/10 7/7/7
f 9/9/9 11/11/11 8/8/8
f 8/8/8 11/11/11 10/10/10
f 9/9/9 12/12/12 11/11/11
f 11/11/11 13/13/13 10/10/10
f 12/12/12 14/14/14 11/11/11
f 11/11/11 14/14/14 13/13/13
f 12/12/12 15/15/15 14/14/14
f 14/14/14 16/16/16 13/13/13
f 15/15/15 17/17/17 14/14/14
f 14/14/14 17/17/17 16/16/16
f 15/15/15 18/18/18 17/17/17
f 17/17/17 19/19/19 16/16/16
f 18/18/18 20/20/20 17/17/17
f 17/17/17 20/20/20 19/19/19
f 18/18/18 21/21/21 20/20/20
f 20/20/20 22/22/22 19/19/19
f 21/21/21 23/23/23 20/20/20
f 20/20/20 23/23/23 22/22/22
f 21/21/21 24/24/24 23/23/23
f 23/23/23 25/25/25 22/22/22
f 24/24/24 26/26/26 23/23/23
f 23/23/23 26/26/26 25/25/25
f 24/24/24 27/27/27 26/26/26
f 26/26/26 28/28/28 25/25/25
f 27/27/27 29/29/29 26/26/26
f 26/26/26 29/29/29 28/28/28
f 27/27/27 30/30/30 29/29/29
f 29/29/29 31/31/31 28/28/28
f 30/30/30 32/32/32 29/29/29
f 29/29/29 32/32/32 31/31/31
f 32/32/32 33/33/33 31/31/31
f 36/36/36 35/35/35 34/34/34
f 35/35/35 37/37/37 34/34/34
f 34/34/34 37/37/37 38/38/38
f 39/39/39 35/35/35 36/36/36
f 40/40/40 39/39/39 36/36/36
f 37/37/37 41/41/41 38/38/38
f 38/38/38 41/41/41 42/42/42
f 43/43/43 39/39/39 40/40/40
f 44/44/44 43/43/43 40/40/40
f 41/41/41 45/45/45 42/42/42
f 42/42/42 45/45/45 46/46/46
f 47/47/47 43/43/43 44/44/44
f 48/48/48 47/47/47 44/44/44
f 45/45/45 49/49/49 46/46/46
f 46/46/46 49/49/49 50/50/50
f 51/51/51 47/47/47 48/48/48
f 52/52/52 51/51/51 48/48/48
f 50/50/50 53/53/53 52/52/52
f 49/49/49 53/53/53 50/50/50
f 53/53/53 51/51/51 52/52/52
f 39/39/39 43/43/43 54/54/54
f 43/43/43 47/47/47 55/55/55
f 43/43/43 55/55/55 54/54/54
f 54/54/54 55/55/55 56/56/56
f 55/55/55 57/57/57 56/56/56
f 47/47/47 57/57/57 55/55/55
f 47/47/47 51/51/51 57/57/57
f 58/58/58 54/54/54 56/56/56
f 39/39/39 54/54/54 58/58/58
f 35/35/35 39/39/39 58/58/58
f 51/51/51 59/59/59 57/57/57
f 51/51/51 53/53/53 59/59/59
f 57/57/57 59/59/59 56/56/56
f 35/35/35 58/58/58 60/60/60
f 60/60/60 58/58/58 56/56/56
f 37/37/37 35/35/35 60/60/60
f 53/53/53 61/61/61 59/59/59
f 59/59/59 61/61/61 56/56/56
f 53/53/53 49/49/49 61/61/61
f 37/37/37 60/60/60 62/62/62
f 62/62/62 60/60/60 56/56/56
f 41/41/41 37/37/37 62/62/62
f 49/49/49 63/63/63 61/61/61
f 61/61/61 63/63/63 56/56/56
f 49/49/49 45/45/45 63/63/63
f 41/41/41 62/62/62 64/64/64
f 64/64/64 62/62/62 56/56/56
f 63/63/63 64/64/64 56/56/56
f 45/45/45 64/64/64 63/63/63
f 45/45/45 41/41/41 64/64/64
f 67/67/67 66/66/66 65/65/65
f 65/65/65 66/66/66 68/68/68
f 66/66/66 69/69/69 68/68/68
f 70/70/70 67/67/67 65/65/65
f 71/71/71 67/67/67 70/70/70
f 68/68/68 69/69/69 72/72/72
f 69/69/69 73/73/73 72/72/72
f 74/74/74 71/71/71 70/70/70
f 75/75/75 71/71/71 74/74/74
f 72/72/72 73/73/73 76/76/76
f 73/73/73 77/77/77 76/76/76
f 78/78/78 75/75/75 74/74/74
f 79/79/79 75/75/75 78/78/78
f 76/76/76 77/77/77 80/80/80
f 77/77/77 81/81/81 80/80/80
f 82/82/82 79/79/79 78/78/78
f 83/83/83 79/79/79 82/82/82
f 81/81/81 83/83/83 84/84/84
f 80/80/80 81/81/81 84/84/84
f 84/84/84 83/83/83 82/82/82
f 85/85/85 74/74/74 70/70/70
f 86/86/86 78/78/78 74/74/74
f 85/85/85 86/86/86 74/74/74
f 85/85/85 87/87/87 86/86/86
f 86/86/86 87/87/87 88/88/88
f 86/86/86 88/88/88 78/78/78
f 88/88/88 82/82/82 78/78/78
f 89/89/89 87/87/87 85/85/85
f 89/89/89 85/85/85 70/70/70
f 89/89/89 70/70/70 65/65/65
f 88/88/88 90/90/90 82/82/82
f 90/90/90 84/84/84 82/82/82
f 88/88/88 87/87/87 90/90/90
f 91/91/91 89/89/89 65/65/65
f 91/91/91 87/87/87 89/89/89
f 91/91/91 65/65/65 68/68/68
f 90/90/90 92/92/92 84/84/84
f 90/90/90 87/87/87 92/92/92
f 92/92/92 80/80/80 84/84/84
f 93/93/93 91/91/91 68/68/68
f 93/93/93 87/87/87 91/91/91
f 93/93/93 68/68/68 72/72/72
f 92/92/92 94/94/94 80/80/80
f 92/92/92 87/87/87 94/94/94
f 94/94/94 76/76/76 80/80/80
f 95/95/95 72/72/72 76/76/76
f 95/95/95 93/93/93 72/72/72
f 95/95/95 87/87/87 93/93/93
f 94/94/94 95/95/95 76/76/76
f 94/94/94 87/87/87 95/95/95
