g book_col
v -0.16796178 0.34195837 0.12211089
v 0.22535387 0.34195837 0.12211089
v 0.22535387 0.097937524 0.12211089
v -0.16796178 0.097937524 0.12211089
v -0.27790943 -0.46076834 -0.11461878
v 0.3111837 -0.46076834 -0.11461878
v 0.3111837 0.46146017 -0.11461878
v -0.27790943 0.46146017 -0.11461878
v 0.3111837 -0.46076834 0.098774225
v 0.3111837 0.46146017 0.098774225
v 0.3111837 0.46146017 -0.11461878
v 0.3111837 -0.46076834 -0.11461878
v -0.33125234 0.46146017 -0.061275862
v -0.33125234 0.46146017 0.04543131
v -0.33125234 -0.46076834 0.04543131
v -0.33125234 -0.46076834 -0.061275862
v -0.33125234 0.46146017 0.04543131
v -0.33125234 0.46146017 -0.061275862
v -0.27790943 0.46146017 -0.11461878
v -0.27790943 0.46146017 0.098774225
v 0.3111837 0.46146017 0.098774225
v 0.3111837 0.46146017 -0.11461878
v -0.33125234 -0.46076834 -0.061275862
v -0.33125234 -0.46076834 0.04543131
v -0.27790943 -0.46076834 0.098774225
v -0.27790943 -0.46076834 -0.11461878
v 0.3111837 -0.46076834 -0.11461878
v 0.3111837 -0.46076834 0.098774225
v -0.33125234 -0.46076834 0.04543131
v -0.33125234 0.46146017 0.04543131
v -0.27790943 0.46146017 0.098774225
v -0.27790943 -0.46076834 0.098774225
v -0.33125234 0.46146017 -0.061275862
v -0.33125234 -0.46076834 -0.061275862
v -0.27790943 -0.46076834 -0.11461878
v -0.27790943 0.46146017 -0.11461878
v -0.27790943 0.46146017 0.098774225
v -0.16796178 0.34195837 0.12211089
v -0.16796178 0.097937524 0.12211089
v -0.27790943 -0.46076834 0.098774225
v -0.27790943 -0.46076834 0.098774225
v -0.16796178 0.097937524 0.12211089
v 0.22535387 0.097937524 0.12211089
v 0.3111837 -0.46076834 0.098774225
v 0.3111837 -0.46076834 0.098774225
v 0.22535387 0.097937524 0.12211089
v 0.22535387 0.34195837 0.12211089
v 0.3111837 0.46146017 0.098774225
v 0.3111837 0.46146017 0.098774225
v 0.22535387 0.34195837 0.12211089
v -0.16796178 0.34195837 0.12211089
v -0.27790943 0.46146017 0.098774225
vt 0.39575806 0.25
vt 0.625 0.25
vt 0.625 0
vt 0.39575806 1.8626451E-09
vt 0.39575806 0.75
vt 0.625 0.75
vt 0.625 0.5
vt 0.39575806 0.5
vt 0.625 0
vt 0.625 0.25
vt 0.875 0.25
vt 0.875 0
vt 0.18749374 0.25
vt 0.31250623 0.25
vt 0.31250635 0
vt 0.18749365 0
vt 0.375 0.31249377
vt 0.375 0.43750626
vt 0.39575806 0.5
vt 0.39575806 0.25
vt 0.625 0.25
vt 0.625 0.5
vt 0.375 0.8124938
vt 0.375 0.93750626
vt 0.3957581 1
vt 0.39575806 0.75
vt 0.625 0.75
vt 0.625 1
vt 0.31250635 0
vt 0.31250623 0.25
vt 0.39575806 0.25
vt 0.39575806 1.8626451E-09
vt 0.375 0.43750626
vt 0.375 0.8124938
vt 0.39575806 0.75
vt 0.39575806 0.5
vt 0.39575806 0.25
vt 0.39575806 0.25
vt 0.39575806 1.8626451E-09
vt 0.39575806 1.8626451E-09
vt 0.39575806 1.8626451E-09
vt 0.39575806 1.8626451E-09
vt 0.625 0
vt 0.625 0
vt 0.625 0
vt 0.625 0
vt 0.625 0.25
vt 0.625 0.25
vt 0.625 0.25
vt 0.625 0.25
vt 0.39575806 0.25
vt 0.39575806 0.25
vn -0 0 1
vn -0 0 1
vn -0 0 1
vn -0 0 1
vn -0 0 -1
vn -0 0 -1
vn -0 0 -1
vn -0 0 -1
vn 1 0 0
vn 1 0 0
vn 1 0 0
vn 1 0 0
vn -1 0 0
vn -1 0 0
vn -1 0 0
vn -1 0 0
vn -0 1 0
vn -0 1 0
vn -0 1 0
vn -0 1 0
vn -0 1 0
vn -0 1 0
vn -0 -1 0
vn -0 -1 0
vn -0 -1 0
vn -0 -1 0
vn -0 -1 0
vn -0 -1 0
vn -0.7071068 0 0.7071067
vn -0.7071068 0 0.7071067
vn -0.7071068 0 0.7071067
vn -0.7071068 0 0.7071067
vn -0.70710677 0 -0.7071067
vn -0.70710677 0 -0.7071067
vn -0.70710677 0 -0.7071067
vn -0.70710677 0 -0.7071067
vn -0.2076271 0 0.9782081
vn -0.20762712 0 0.9782081
vn -0.2076271 0 0.9782081
vn -0.2076271 0 0.9782081
vn -0 -0.04173276 0.9991289
vn -0 -0.04173275 0.9991289
vn -0 -0.041732755 0.9991289
vn -0 -0.041732755 0.9991289
vn 0.26236945 0 0.9649675
vn 0.26236945 0 0.9649675
vn 0.26236942 0 0.9649675
vn 0.2623694 0 0.9649675
vn -0 0.19166261 0.98146087
vn -0 0.19166262 0.98146087
vn -0 0.19166261 0.98146087
vn -0 0.19166262 0.98146087
g book_col_0
f 3/3/3 2/2/2 1/1/1
f 4/4/4 3/3/3 1/1/1
f 7/7/7 6/6/6 5/5/5
f 8/8/8 7/7/7 5/5/5
f 11/11/11 10/10/10 9/9/9
f 12/12/12 11/11/11 9/9/9
f 15/15/15 14/14/14 13/13/13
f 16/16/16 15/15/15 13/13/13
f 19/19/19 18/18/18 17/17/17
f 20/20/20 19/19/19 17/17/17
f 20/20/20 21/21/21 19/19/19
f 21/21/21 22/22/22 19/19/19
f 25/25/25 24/24/24 23/23/23
f 26/26/26 25/25/25 23/23/23
f 26/26/26 27/27/27 25/25/25
f 27/27/27 28/28/28 25/25/25
f 31/31/31 30/30/30 29/29/29
f 32/32/32 31/31/31 29/29/29
f 35/35/35 34/34/34 33/33/33
f 36/36/36 35/35/35 33/33/33
f 39/39/39 38/38/38 37/37/37
f 40/40/40 39/39/39 37/37/37
f 43/43/43 42/42/42 41/41/41
f 44/44/44 43/43/43 41/41/41
f 47/47/47 46/46/46 45/45/45
f 48/48/48 47/47/47 45/45/45
f 51/51/51 50/50/50 49/49/49
f 52/52/52 51/51/51 49/49/49
