g brown:pCube2
v 0.76941 3.0868447 0.6007603
v 0.8127787 3.2174757 0.5738814
v 0.79388976 3.210709 0.5105177
v 0.75052106 3.080078 0.5373966
v 0.8127787 3.2174757 0.5738814
v 0.65322894 3.2648458 0.54666793
v 0.79388976 3.210709 0.5105177
v 0.67211795 3.2716126 0.61003155
v 0.50321335 3.3225832 0.5852224
v 0.5221023 3.32935 0.64858603
v 0.5221023 3.32935 0.64858603
v 0.47873366 3.1987188 0.675465
v 0.45984462 3.191952 0.61210126
v 0.50321335 3.3225832 0.5852224
v 0.62874925 3.1409814 0.6369105
v 0.76941 3.0868447 0.6007603
v 0.75052106 3.080078 0.5373966
v 0.60986024 3.1342146 0.5735468
v 0.47873366 3.1987188 0.675465
v 0.45984462 3.191952 0.61210126
v 0.75052106 3.080078 0.5373966
v 0.79388976 3.210709 0.5105177
v 0.65322894 3.2648458 0.54666793
v 0.60986024 3.1342146 0.5735468
v 0.45984462 3.191952 0.61210126
v 0.50321335 3.3225832 0.5852224
v 0.62874925 3.1409814 0.6369105
v 0.8127787 3.2174757 0.5738814
v 0.76941 3.0868447 0.6007603
v 0.67211795 3.2716126 0.61003155
v 0.47873366 3.1987188 0.675465
v 0.5221023 3.32935 0.64858603
vt 0.20199585 0.5921435
vt 0.20199585 0.63524115
vt 0.23396349 0.63524115
vt 0.23396349 0.5921435
vt 0.20199585 0.63524115
vt 0.23396349 0.63991773
vt 0.23396349 0.63524115
vt 0.20199585 0.63991773
vt 0.23396349 0.65641594
vt 0.20199585 0.65641594
vt 0.20199585 0.65641594
vt 0.20199585 0.66477424
vt 0.23396349 0.66477424
vt 0.23396349 0.65641594
vt 0.20199585 0.66980493
vt 0.20199585 0.69775355
vt 0.23396349 0.69775355
vt 0.23396349 0.66980493
vt 0.20199585 0.66477424
vt 0.23396349 0.66477424
vt 0.23396349 0.5921435
vt 0.23396349 0.63524115
vt 0.24943286 0.63524115
vt 0.24943286 0.5921435
vt 0.26593107 0.5921435
vt 0.26593107 0.63524115
vt 0.18652648 0.5921435
vt 0.20199585 0.63524115
vt 0.20199585 0.5921435
vt 0.18652648 0.63524115
vt 0.17002824 0.5921435
vt 0.17002824 0.63524115
vn 0.90752494 -0.34928352 -0.23323694
vn 0.90752494 -0.34928358 -0.23323697
vn 0.90752494 -0.34928355 -0.23323694
vn 0.90752494 -0.3492836 -0.23323694
vn 0.3092425 0.9314697 -0.19165958
vn 0.30924216 0.93146944 -0.19166104
vn 0.3092425 0.9314697 -0.19165958
vn 0.30924222 0.93146944 -0.19166107
vn 0.3092419 0.93146926 -0.1916624
vn 0.3092419 0.93146926 -0.1916624
vn -0.90752536 0.34928325 0.23323613
vn -0.90752524 0.34928325 0.23323609
vn -0.90752524 0.34928325 0.23323609
vn -0.90752524 0.34928325 0.23323612
vn -0.3092418 -0.93146944 0.1916615
vn -0.30924156 -0.9314697 0.19166073
vn -0.30924156 -0.93146974 0.19166073
vn -0.3092418 -0.93146944 0.1916615
vn -0.309242 -0.93146926 0.19166225
vn -0.30924198 -0.93146926 0.19166227
vn -0.28419662 -0.10181053 -0.9533452
vn -0.28419662 -0.101810515 -0.9533452
vn -0.28419667 -0.10181042 -0.9533452
vn -0.28419667 -0.10181042 -0.9533452
vn -0.28419667 -0.101810336 -0.9533452
vn -0.28419667 -0.10181032 -0.9533452
vn 0.28419685 0.101810545 0.95334506
vn 0.28419667 0.101810575 0.9533452
vn 0.28419667 0.10181057 0.9533452
vn 0.28419688 0.101810545 0.95334506
vn 0.28419697 0.10181053 0.95334506
vn 0.284197 0.101810545 0.95334506
g brown:pCube2_0
f 3/3/3 2/2/2 1/1/1
f 4/4/4 3/3/3 1/1/1
f 7/7/7 6/6/6 5/5/5
f 6/6/6 8/8/8 5/5/5
f 6/6/6 9/9/9 8/8/8
f 9/9/9 10/10/10 8/8/8
f 13/13/13 12/12/12 11/11/11
f 14/14/14 13/13/13 11/11/11
f 17/17/17 16/16/16 15/15/15
f 18/18/18 17/17/17 15/15/15
f 18/18/18 15/15/15 19/19/19
f 20/20/20 18/18/18 19/19/19
f 23/23/23 22/22/22 21/21/21
f 24/24/24 23/23/23 21/21/21
f 24/24/24 25/25/25 23/23/23
f 25/25/25 26/26/26 23/23/23
f 29/29/29 28/28/28 27/27/27
f 28/28/28 30/30/30 27/27/27
f 27/27/27 30/30/30 31/31/31
f 30/30/30 32/32/32 31/31/31
