g calculator_col
v -0.32134047 -0.41041183 0.11206975
v -0.32134047 0.10133235 0.11661008
v 0.32134047 0.10133235 0.11661008
v 0.32134047 -0.41041183 0.11206975
v -0.41111112 0.48189306 0.13888319
v -0.41111112 0.48189306 -0.07595423
v 0.41111112 0.48189306 -0.07595423
v 0.41111112 0.48189306 0.13888319
v -0.41111112 0.17281361 -0.07595423
v -0.41111112 -0.48189306 -0.07595423
v 0.41111112 -0.48189306 -0.07595423
v 0.41111112 0.17281361 -0.07595423
v -0.41111112 0.48189306 -0.07595423
v 0.41111112 0.48189306 -0.07595423
v -0.41111112 -0.48189306 -0.07595423
v -0.41111112 -0.48189306 0.07885836
v 0.41111112 -0.48189306 0.07885836
v 0.41111112 -0.48189306 -0.07595423
v 0.41111112 -0.48189306 0.07885836
v 0.41111112 0.17281361 -0.07595423
v 0.41111112 -0.48189306 -0.07595423
v 0.41111112 0.1728136 0.08466721
v 0.41111112 0.48189306 -0.07595423
v 0.41111112 0.48189306 0.13888319
v -0.41111112 -0.48189306 -0.07595423
v -0.41111112 0.1728136 0.08466721
v -0.41111112 -0.48189306 0.07885836
v -0.41111112 0.17281361 -0.07595423
v -0.41111112 0.48189306 0.13888319
v -0.41111112 0.48189306 -0.07595423
v -0.41111112 0.1728136 0.08466721
v -0.41111112 0.48189306 0.13888319
v 0.41111112 0.48189306 0.13888319
v 0.41111112 0.1728136 0.08466721
v -0.41111112 -0.48189306 0.07885836
v -0.32134047 -0.41041183 0.11206975
v 0.32134047 -0.41041183 0.11206975
v 0.41111112 -0.48189306 0.07885836
v 0.41111112 -0.48189306 0.07885836
v 0.32134047 -0.41041183 0.11206975
v 0.32134047 0.10133235 0.11661008
v 0.41111112 0.1728136 0.08466721
v 0.41111112 0.1728136 0.08466721
v 0.32134047 0.10133235 0.11661008
v -0.32134047 0.10133235 0.11661008
v -0.41111112 0.1728136 0.08466721
v -0.41111112 0.1728136 0.08466721
v -0.32134047 0.10133235 0.11661008
v -0.32134047 -0.41041183 0.11206975
v -0.41111112 -0.48189306 0.07885836
vt 0.375 0
vt 0.375 0.16982675
vt 0.625 0.16982675
vt 0.625 0
vt 0.375 0.25
vt 0.375 0.5
vt 0.625 0.5
vt 0.625 0.25
vt 0.375 0.58017325
vt 0.375 0.75
vt 0.625 0.75
vt 0.625 0.58017325
vt 0.375 0.5
vt 0.625 0.5
vt 0.375 0.75
vt 0.375 1
vt 0.625 1
vt 0.625 0.75
vt 0.625 0
vt 0.875 0.16982675
vt 0.875 0
vt 0.625 0.16982675
vt 0.875 0.25
vt 0.625 0.25
vt 0.125 0
vt 0.375 0.16982675
vt 0.375 0
vt 0.125 0.16982675
vt 0.375 0.25
vt 0.125 0.25
vt 0.375 0.16982675
vt 0.375 0.25
vt 0.625 0.25
vt 0.625 0.16982675
vt 0.375 0
vt 0.375 0
vt 0.625 0
vt 0.625 0
vt 0.625 0
vt 0.625 0
vt 0.625 0.16982675
vt 0.625 0.16982675
vt 0.625 0.16982675
vt 0.625 0.16982675
vt 0.375 0.16982675
vt 0.375 0.16982675
vt 0.375 0.16982675
vt 0.375 0.16982675
vt 0.375 0
vt 0.375 0
vn -0 -0.008871919 0.99996066
vn -0 -0.008871919 0.99996066
vn -0 -0.008871919 0.99996066
vn -0 -0.008871919 0.99996066
vn -0 1 0
vn -0 1 0
vn -0 1 0
vn -0 1 0
vn -0 0 -1
vn -0 0 -1
vn -0 0 -1
vn -0 0 -1
vn -0 0 -1
vn -0 0 -1
vn -0 -1 0
vn -0 -1 0
vn -0 -1 0
vn -0 -1 0
vn 1 0 0
vn 1 0 0
vn 1 0 0
vn 1 0 0
vn 1 0 0
vn 1 0 0
vn -1 0 0
vn -1 0 0
vn -1 0 0
vn -1 0 0
vn -1 0 0
vn -1 0 0
vn -0 -0.17277324 0.9849616
vn -0 -0.17277324 0.9849616
vn -0 -0.17277324 0.9849616
vn -0 -0.17277324 0.9849616
vn -0 -0.42135847 0.9068941
vn -0 -0.42135847 0.9068941
vn -0 -0.42135847 0.9068941
vn -0 -0.42135847 0.9068941
vn 0.34111384 -0.0083398875 0.93998504
vn 0.3411138 -0.0083398875 0.93998504
vn 0.34111384 -0.0083398875 0.93998504
vn 0.34111378 -0.0083398875 0.93998504
vn -0 0.40798724 0.91298765
vn -0 0.40798724 0.91298765
vn -0 0.40798724 0.91298765
vn -0 0.40798724 0.91298765
vn -0.34111378 -0.008339904 0.93998504
vn -0.34111384 -0.008339904 0.93998504
vn -0.3411138 -0.008339905 0.93998504
vn -0.34111384 -0.008339905 0.93998504
g calculator_col_0
f 3/3/3 2/2/2 1/1/1
f 4/4/4 3/3/3 1/1/1
f 7/7/7 6/6/6 5/5/5
f 8/8/8 7/7/7 5/5/5
f 11/11/11 10/10/10 9/9/9
f 12/12/12 11/11/11 9/9/9
f 12/12/12 9/9/9 13/13/13
f 14/14/14 12/12/12 13/13/13
f 17/17/17 16/16/16 15/15/15
f 18/18/18 17/17/17 15/15/15
f 21/21/21 20/20/20 19/19/19
f 20/20/20 22/22/22 19/19/19
f 20/20/20 23/23/23 22/22/22
f 23/23/23 24/24/24 22/22/22
f 27/27/27 26/26/26 25/25/25
f 26/26/26 28/28/28 25/25/25
f 26/26/26 29/29/29 28/28/28
f 29/29/29 30/30/30 28/28/28
f 33/33/33 32/32/32 31/31/31
f 34/34/34 33/33/33 31/31/31
f 37/37/37 36/36/36 35/35/35
f 38/38/38 37/37/37 35/35/35
f 41/41/41 40/40/40 39/39/39
f 42/42/42 41/41/41 39/39/39
f 45/45/45 44/44/44 43/43/43
f 46/46/46 45/45/45 43/43/43
f 49/49/49 48/48/48 47/47/47
f 50/50/50 49/49/49 47/47/47
