g candy_col
v 0.0010417397 -0.46509758 -0.030704446
v -0.012280509 -0.46509758 -0.027663663
v 0.014364019 -0.46509758 -0.027663663
v 0.0010417397 -0.46509758 0.030704767
v 0.014363989 -0.46509758 0.027663982
v -0.012280546 -0.46509758 0.027663978
v -0.07896299 -0.034589358 0.027121067
v -0.078848556 -0.034237206 -0.02713632
v -0.1499789 0.0020055156 -0.02713633
v -0.15019655 0.0017058495 0.027121091
v -0.2064283 0.058454894 -0.027136343
v -0.20672786 0.058237217 0.027121078
v -0.242671 0.12958513 -0.02713636
v -0.24302316 0.12947075 0.027121061
v -0.25515938 0.20843372 -0.027136378
v -0.25552964 0.20843375 0.027121043
v -0.24267095 0.28728256 -0.027136398
v -0.24302313 0.287397 0.02712102
v -0.20642821 0.3584128 -0.027136415
v -0.20672779 0.3586305 0.027121004
v -0.14997885 0.41486195 -0.027136428
v -0.1501965 0.41516164 0.027120993
v -0.078848526 0.4511049 -0.027136436
v -0.07896295 0.45145705 0.027120952
v 4.5169145E-08 0.4635932 -0.027136425
v 4.5169145E-08 0.46396354 0.027120965
v 0.07884863 0.4511049 -0.027136436
v 0.07896305 0.45145705 0.027120952
v 0.24302317 0.28739673 0.027121022
v 0.242671 0.28728235 -0.027136398
v 0.25515938 0.20843373 -0.02713632
v 0.2555297 0.20843375 0.027121043
v 0.24267098 0.12958537 -0.02713636
v 0.24302316 0.12947099 0.027121061
v 0.20642824 0.058454894 -0.027136343
v 0.20672782 0.058237463 0.027121078
v -0.012280509 -0.46509758 -0.027663663
v -0.012280509 -0.024417073 -0.02766381
v -0.022964068 -0.024417058 -0.019143945
v -0.022964068 -0.46509758 -0.019143797
v -0.028893156 -0.024417058 -0.006832411
v -0.028893156 -0.46509758 -0.006832265
v -0.028893156 -0.024417058 0.0068324152
v -0.028893156 -0.46509758 0.0068325615
v -0.022964068 -0.024417058 0.01914397
v -0.022964068 -0.46509758 0.019144118
v -0.012280546 -0.024417043 0.027663833
v -0.012280546 -0.46509758 0.027663978
v 0.0010417397 -0.024417058 0.030704618
v 0.0010417397 -0.46509758 0.030704767
v 0.014363989 -0.024417043 0.027663834
v 0.014363989 -0.46509758 0.027663982
v 0.025047546 -0.024417058 0.01914397
v 0.025047546 -0.46509758 0.019144118
v 0.030976638 -0.024417058 0.0068324376
v 0.030976638 -0.46509758 0.006832584
v 0.030976638 -0.024417058 -0.0068324036
v 0.030976638 -0.46509758 -0.0068322574
v 0.025047546 -0.024417058 -0.019143952
v 0.025047546 -0.46509758 -0.019143797
v 0.014364019 -0.024417073 -0.02766381
v 0.014364019 -0.46509758 -0.027663663
v 0.0010417397 -0.024417058 -0.030704593
v 0.0010417397 -0.46509758 -0.030704446
v -0.012280509 -0.024417073 -0.02766381
v -0.012280509 -0.46509758 -0.027663663
v 4.284084E-08 0.44111198 0.064475045
v 0.07190153 0.42972398 0.06447506
v -0.07190143 0.42972398 0.06447506
v 0.13676478 0.3966744 0.06447504
v -0.1367647 0.3966744 0.06447504
v 0.18824054 0.3451986 0.064475045
v -0.1882405 0.3451986 0.064475045
v 0.22129002 0.2803354 0.06447506
v -0.22128999 0.2803354 0.06447506
v 0.23267806 0.20843375 0.06447508
v -0.23267807 0.20843375 0.06447508
v 0.22128999 0.13653235 0.064475104
v -0.22128999 0.13653235 0.064475104
v 0.18824051 0.07166912 0.06447512
v -0.18824054 0.07166912 0.06447512
v 0.13676476 0.020193346 0.064475134
v -0.13676473 0.020193346 0.064475134
v 0.07190149 -0.012856013 0.064475164
v -0.07190146 -0.012856243 0.064475164
v 2.7939677E-08 -0.02424404 0.064475164
v 2.8405339E-08 -0.026682716 -0.061888464
v 0.07265508 -0.015175332 -0.061888464
v -0.07265506 -0.015175565 -0.061888464
v 0.13819817 0.01822041 -0.06188847
v -0.13819814 0.01822041 -0.06188847
v 0.19021343 0.07023568 -0.061888486
v -0.19021343 0.07023568 -0.061888486
v 0.2236093 0.13577875 -0.0618885
v -0.2236093 0.13577875 -0.0618885
v 0.2351167 0.20843372 -0.061888456
v -0.23511672 0.20843372 -0.06188852
v 0.22360933 0.28108895 -0.06188854
v -0.2236093 0.28108895 -0.06188854
v 0.19021343 0.346632 -0.061888553
v -0.19021341 0.346632 -0.061888553
v 0.1381982 0.3986473 -0.061888568
v -0.13819811 0.3986473 -0.061888568
v 0.07265511 0.43204325 -0.061888576
v -0.07265503 0.43204325 -0.061888576
v 4.33065E-08 0.44355065 -0.061888576
v -0.012280546 -0.46509758 0.027663978
v 0.014363989 -0.46509758 0.027663982
v 0.025047546 -0.46509758 0.019144118
v -0.022964068 -0.46509758 0.019144118
v -0.022964068 -0.46509758 0.019144118
v 0.025047546 -0.46509758 0.019144118
v 0.030976638 -0.46509758 0.006832584
v -0.028893156 -0.46509758 0.0068325615
v -0.028893156 -0.46509758 0.0068325615
v 0.030976638 -0.46509758 0.006832584
v 0.030976638 -0.46509758 -0.0068322574
v -0.028893156 -0.46509758 -0.006832265
v -0.028893156 -0.46509758 -0.006832265
v 0.030976638 -0.46509758 -0.0068322574
v 0.025047546 -0.46509758 -0.019143797
v -0.022964068 -0.46509758 -0.019143797
v 0.014364019 -0.46509758 -0.027663663
v -0.012280509 -0.46509758 -0.027663663
v 0.2351167 0.20843372 -0.061888456
v 0.2236093 0.13577875 -0.0618885
v 0.24267098 0.12958537 -0.02713636
v 0.25515938 0.20843373 -0.02713632
v 0.22360933 0.28108895 -0.06188854
v 0.20642824 0.058454894 -0.027136343
v 0.242671 0.28728235 -0.027136398
v 0.19021343 0.07023568 -0.061888486
v 0.19021343 0.346632 -0.061888553
v 0.14997895 0.0020057596 -0.02713633
v 0.13819817 0.01822041 -0.06188847
v 0.20672782 0.058237463 0.027121078
v 0.2064283 0.3584128 -0.027136415
v 0.1381982 0.3986473 -0.061888568
v 0.07884862 -0.034236964 -0.027136292
v 0.07265508 -0.015175332 -0.061888464
v 0.15019657 0.0017060917 0.02712109
v 4.5169145E-08 -0.046725385 -0.027136305
v 2.8405339E-08 -0.026682716 -0.061888464
v 0.20672785 0.3586305 0.027121004
v 0.24302317 0.28739673 0.027121022
v 0.14997895 0.41486195 -0.027136428
v 0.07265511 0.43204325 -0.061888576
v 0.078963034 -0.034589116 0.027121067
v -0.078848556 -0.034237206 -0.02713632
v -0.07265506 -0.015175565 -0.061888464
v -0.1499789 0.0020055156 -0.02713633
v -0.13819814 0.01822041 -0.06188847
v -0.2064283 0.058454894 -0.027136343
v -0.19021343 0.07023568 -0.061888486
v -0.242671 0.12958513 -0.02713636
v -0.2236093 0.13577875 -0.0618885
v -0.25515938 0.20843372 -0.027136378
v -0.23511672 0.20843372 -0.06188852
v -0.24267095 0.28728256 -0.027136398
v -0.2236093 0.28108895 -0.06188854
v -0.20642821 0.3584128 -0.027136415
v -0.19021341 0.346632 -0.061888553
v -0.14997885 0.41486195 -0.027136428
v -0.13819811 0.3986473 -0.061888568
v -0.078848526 0.4511049 -0.027136436
v -0.07265503 0.43204325 -0.061888576
v 4.5169145E-08 0.4635932 -0.027136425
v 4.33065E-08 0.44355065 -0.061888576
v 0.07884863 0.4511049 -0.027136436
v 0.07896305 0.45145705 0.027120952
v 0.1501966 0.41516164 0.027120993
v 0.13676478 0.3966744 0.06447504
v 0.07190153 0.42972398 0.06447506
v 0.18824054 0.3451986 0.064475045
v 4.5169145E-08 0.46396354 0.027120965
v 0.22129002 0.2803354 0.06447506
v 4.284084E-08 0.44111198 0.064475045
v -0.07896295 0.45145705 0.027120952
v 0.23267806 0.20843375 0.06447508
v -0.07190143 0.42972398 0.06447506
v 0.2555297 0.20843375 0.027121043
v -0.1501965 0.41516164 0.027120993
v 0.22128999 0.13653235 0.064475104
v -0.1367647 0.3966744 0.06447504
v 0.24302316 0.12947099 0.027121061
v -0.20672779 0.3586305 0.027121004
v 0.18824051 0.07166912 0.06447512
v -0.1882405 0.3451986 0.064475045
v -0.24302313 0.287397 0.02712102
v 0.13676476 0.020193346 0.064475134
v -0.22128999 0.2803354 0.06447506
v -0.25552964 0.20843375 0.027121043
v 0.07190149 -0.012856013 0.064475164
v -0.23267807 0.20843375 0.06447508
v -0.24302316 0.12947075 0.027121061
v -0.22128999 0.13653235 0.064475104
v -0.20672786 0.058237217 0.027121078
v -0.18824054 0.07166912 0.06447512
v -0.15019655 0.0017058495 0.027121091
v -0.13676473 0.020193346 0.064475134
v -0.07896299 -0.034589358 0.027121067
v 2.7939677E-08 -0.02424404 0.064475164
v -0.07190146 -0.012856243 0.064475164
v 4.5169145E-08 -0.047095675 0.027121088
vt 0.9278998 0.758193
vt 0.93789464 0.758193
vt 0.9179048 0.7581309
vt 0.85793537 0.758193
vt 0.86793035 0.75821126
vt 0.8479406 0.758193
vt 0.22643128 0.47866097
vt 0.71482193 0.060471285
vt 0.7906227 0.07581843
vt 0.15561298 0.5107518
vt 0.85797095 0.1138381
vt 0.098177314 0.56315607
vt 0.9102742 0.17080879
vt 0.059746593 0.6307442
vt 0.94241273 0.24115378
vt 0.04408273 0.7069001
vt 0.95124054 0.31798717
vt 0.05271907 0.7841691
vt 0.93589324 0.39378792
vt 0.08481011 0.8549874
vt 0.8978734 0.46113613
vt 0.13721456 0.91242284
vt 0.8409029 0.5134396
vt 0.20480263 0.9508536
vt 0.77055794 0.54557794
vt 0.28095838 0.9665172
vt 0.69372463 0.55440575
vt 0.3582272 0.95788085
vt 0.52491164 0.8057977
vt 0.49827212 0.44406843
vt 0.46613377 0.37372333
vt 0.54057544 0.7296419
vt 0.45730606 0.29689002
vt 0.53193897 0.6523731
vt 0.47265315 0.22108912
vt 0.49984828 0.58155483
vt 0.79796606 0.75821126
vt 0.79796606 0.94808686
vt 0.80796105 0.9482088
vt 0.80796105 0.75821126
vt 0.8179559 0.94841146
vt 0.8179559 0.758193
vt 0.8279508 0.94865906
vt 0.8279508 0.75821126
vt 0.83794564 0.9488965
vt 0.83794564 0.75819314
vt 0.8479406 0.9490813
vt 0.8479406 0.758193
vt 0.85793537 0.9491751
vt 0.85793537 0.758193
vt 0.86793035 0.94916105
vt 0.86793035 0.75821126
vt 0.87792534 0.9490391
vt 0.87792534 0.75821126
vt 0.8879202 0.94883335
vt 0.8879202 0.758193
vt 0.89791507 0.94858885
vt 0.89791507 0.75821126
vt 0.9079099 0.94834816
vt 0.9079099 0.758193
vt 0.9179048 0.94815814
vt 0.9179048 0.7581309
vt 0.9278998 0.9480697
vt 0.9278998 0.758193
vt 0.93789464 0.9480853
vt 0.93789464 0.758193
vt 0.2820534 0.94430536
vt 0.35240486 0.9364178
vt 0.21270788 0.93006706
vt 0.41687545 0.90717643
vt 0.15115626 0.89509666
vt 0.46915478 0.85944396
vt 0.103423566 0.8428175
vt 0.5041251 0.79789233
vt 0.07418226 0.77834654
vt 0.5183634 0.72854686
vt 0.06629467 0.7079952
vt 0.510476 0.6581955
vt 0.08053298 0.63864964
vt 0.48123485 0.5937249
vt 0.115503445 0.5770979
vt 0.43350217 0.5414454
vt 0.16778292 0.5293653
vt 0.37195066 0.50647515
vt 0.23225369 0.5001241
vt 0.30260503 0.49223673
vt 0.6438068 0.09048726
vt 0.57972455 0.11979082
vt 0.7138078 0.082420275
vt 0.527834 0.16746253
vt 0.7828758 0.09637979
vt 0.4932146 0.22883621
vt 0.84424925 0.13099925
vt 0.47925514 0.29790395
vt 0.89192116 0.18288976
vt 0.48732185 0.36790502
vt 0.92122465 0.24697202
vt 0.51662534 0.4319873
vt 0.9292915 0.3169732
vt 0.56429714 0.4838778
vt 0.9153319 0.38604102
vt 0.6256708 0.5184973
vt 0.88071245 0.4474146
vt 0.69473857 0.5324568
vt 0.82882196 0.49508658
vt 0.76473963 0.52439004
vt 0.8479406 0.758193
vt 0.86793035 0.75821126
vt 0.87792534 0.75821126
vt 0.83794564 0.75819314
vt 0.83794564 0.75819314
vt 0.87792534 0.75821126
vt 0.8879202 0.758193
vt 0.8279508 0.75821126
vt 0.8279508 0.75821126
vt 0.8879202 0.758193
vt 0.89791507 0.75821126
vt 0.8179559 0.758193
vt 0.8179559 0.758193
vt 0.89791507 0.75821126
vt 0.9079099 0.758193
vt 0.80796105 0.75821126
vt 0.9179048 0.7581309
vt 0.79796606 0.75821126
vt 0.48732185 0.36790502
vt 0.47925514 0.29790395
vt 0.45730606 0.29689002
vt 0.46613377 0.37372333
vt 0.51662534 0.4319873
vt 0.47265315 0.22108912
vt 0.49827212 0.44406843
vt 0.4932146 0.22883621
vt 0.56429714 0.4838778
vt 0.5106728 0.15374103
vt 0.527834 0.16746253
vt 0.49984828 0.58155483
vt 0.55057544 0.5010389
vt 0.6256708 0.5184973
vt 0.5676434 0.10143762
vt 0.57972455 0.11979082
vt 0.4474439 0.5241193
vt 0.6379884 0.069299094
vt 0.6438068 0.09048726
vt 0.48648086 0.87338585
vt 0.52491164 0.8057977
vt 0.6179238 0.5390586
vt 0.69473857 0.5324568
vt 0.3798558 0.4856887
vt 0.71482193 0.060471285
vt 0.7138078 0.082420275
vt 0.7906227 0.07581843
vt 0.7828758 0.09637979
vt 0.85797095 0.1138381
vt 0.84424925 0.13099925
vt 0.9102742 0.17080879
vt 0.89192116 0.18288976
vt 0.94241273 0.24115378
vt 0.92122465 0.24697202
vt 0.95124054 0.31798717
vt 0.9292915 0.3169732
vt 0.93589324 0.39378792
vt 0.9153319 0.38604102
vt 0.8978734 0.46113613
vt 0.88071245 0.4474146
vt 0.8409029 0.5134396
vt 0.82882196 0.49508658
vt 0.77055794 0.54557794
vt 0.76473963 0.52439004
vt 0.69372463 0.55440575
vt 0.3582272 0.95788085
vt 0.42904538 0.92578995
vt 0.41687545 0.90717643
vt 0.35240486 0.9364178
vt 0.46915478 0.85944396
vt 0.28095838 0.9665172
vt 0.5041251 0.79789233
vt 0.2820534 0.94430536
vt 0.20480263 0.9508536
vt 0.5183634 0.72854686
vt 0.21270788 0.93006706
vt 0.54057544 0.7296419
vt 0.13721456 0.91242284
vt 0.510476 0.6581955
vt 0.15115626 0.89509666
vt 0.53193897 0.6523731
vt 0.08481011 0.8549874
vt 0.48123485 0.5937249
vt 0.103423566 0.8428175
vt 0.05271907 0.7841691
vt 0.43350217 0.5414454
vt 0.07418226 0.77834654
vt 0.04408273 0.7069001
vt 0.37195066 0.50647515
vt 0.06629467 0.7079952
vt 0.059746593 0.6307442
vt 0.08053298 0.63864964
vt 0.098177314 0.56315607
vt 0.115503445 0.5770979
vt 0.15561298 0.5107518
vt 0.16778292 0.5293653
vt 0.22643128 0.47866097
vt 0.30260503 0.49223673
vt 0.23225369 0.5001241
vt 0.3037001 0.4700249
vn -0 -1 -1.1494937E-05
vn -0 -1 -1.1494938E-05
vn -0 -1 -1.1494938E-05
vn -0 -1 0
vn -0 -1 0
vn -0 -1 0
vn -0.30109107 -0.92666775 0.22501312
vn -0.30199257 -0.9294423 -0.21198496
vn -0.5744266 -0.7906304 -0.21198542
vn -0.5727117 -0.7882705 0.22501332
vn -0.7906303 -0.5744266 -0.21198532
vn -0.7882702 -0.57271194 0.22501357
vn -0.92944175 -0.30199397 -0.2119849
vn -0.92666733 -0.3010922 0.22501338
vn -0.9772729 0 -0.21198472
vn -0.9743558 0 0.22501306
vn -0.92944187 0.30199382 -0.21198487
vn -0.92666745 0.3010925 0.22501285
vn -0.7906299 0.57442737 -0.21198481
vn -0.7882699 0.57271284 0.22501254
vn -0.5744269 0.7906303 -0.21198452
vn -0.572712 0.78827053 0.22501194
vn -0.30199465 0.9294417 -0.21198437
vn -0.30109313 0.92666745 0.22501191
vn -0 0.97727305 -0.21198429
vn -0 0.9743558 0.22501259
vn 0.30199462 0.9294417 -0.21198429
vn 0.3010931 0.92666745 0.22501206
vn 0.9266676 0.30109188 0.22501303
vn 0.929442 0.3019935 -0.21198483
vn 0.9772729 0 -0.21198493
vn 0.9743557 0 0.22501332
vn 0.92944175 -0.30199435 -0.21198452
vn 0.9266673 -0.30109286 0.22501308
vn 0.7906305 -0.57442695 -0.21198367
vn 0.7882707 -0.5727116 0.22501285
vn -0.43388563 0 -0.90096796
vn -0.43388557 0 -0.90096796
vn -0.7818286 0 -0.6234934
vn -0.7818286 0 -0.6234934
vn -0.97492665 0 -0.22252645
vn -0.97492665 0 -0.22252633
vn -0.97492677 0 0.2225262
vn -0.97492677 0 0.22252627
vn -0.78182954 0 0.6234923
vn -0.78182954 0 0.6234923
vn -0.43388572 0 0.90096796
vn -0.4338856 0 0.90096796
vn -0 0 1
vn -0 0 1
vn 0.4338857 0 0.90096796
vn 0.4338857 0 0.90096796
vn 0.7818285 0 0.62349355
vn 0.7818285 0 0.6234935
vn 0.97492665 0 0.22252637
vn 0.97492665 0 0.22252648
vn 0.97492665 0 -0.22252637
vn 0.97492677 0 -0.22252631
vn 0.7818292 0 -0.62349266
vn 0.7818292 0 -0.6234927
vn 0.4338855 0 -0.900968
vn 0.43388548 0 -0.900968
vn -0 0 -1
vn -0 0 -1
vn -0.43388557 0 -0.90096796
vn -0.43388563 0 -0.90096796
vn -0 0 1
vn -0 0 1
vn -0 0 1
vn -0 0 1
vn -0 0 1
vn -0 0 1
vn -0 0 1
vn -0 0 1
vn -0 0 1
vn -0 0 1
vn -0 0 1
vn -0 0 1
vn -0 0 1
vn -0 0 1
vn -0 0 1
vn -0 0 1
vn -0 0 1
vn -0 0 1
vn -0 0 1
vn -0 0 1
vn -0 0 -1
vn -0 0 -1
vn -0 0 -1
vn -0 0 -1
vn -0 0 -1
vn -0 0 -1
vn -0 0 -1
vn -0 0 -1
vn -0 0 -1
vn -0 0 -1
vn -0 0 -1
vn -0 0 -1
vn -0 0 -1
vn -0 0 -1
vn -0 0 -1
vn -0 0 -1
vn -0 0 -1
vn -0 0 -1
vn -0 0 -1
vn -0 0 -1
vn -0 -1 0
vn -0 -1 0
vn -0 -1 0
vn -0 -1 0
vn -0 -1 0
vn -0 -1 0
vn -0 -1 0
vn -0 -1 0
vn -0 -1 0
vn -0 -1 0
vn -0 -1 0
vn -0 -1 0
vn -0 -1 0
vn -0 -1 0
vn -0 -1 0
vn -0 -1 0
vn -0 -1 0
vn -0 -1 0
vn 0.8662574 0 -0.4995979
vn 0.8238599 -0.26768863 -0.4995975
vn 0.92944175 -0.30199435 -0.21198452
vn 0.9772729 0 -0.21198493
vn 0.8238599 0.26768798 -0.49959782
vn 0.7906305 -0.57442695 -0.21198367
vn 0.929442 0.3019935 -0.21198483
vn 0.7008174 -0.50917375 -0.49959671
vn 0.70081717 0.5091733 -0.49959764
vn 0.5744265 -0.7906308 -0.21198387
vn 0.5091731 -0.70081854 -0.49959606
vn 0.7882707 -0.5727116 0.22501285
vn 0.7906305 0.57442653 -0.2119846
vn 0.50917405 0.70081747 -0.4995964
vn 0.3019939 -0.929442 -0.21198437
vn 0.26768804 -0.82386076 -0.49959645
vn 0.5727117 -0.7882707 0.22501257
vn -0 -0.9772729 -0.21198462
vn -0 -0.86625785 -0.49959725
vn 0.7882704 0.572712 0.22501278
vn 0.9266676 0.30109188 0.22501303
vn 0.57442695 0.79063016 -0.21198478
vn 0.2676891 0.8238607 -0.4995959
vn 0.30109236 -0.9266676 0.22501266
vn -0.30199257 -0.9294423 -0.21198496
vn -0.2676872 -0.8238603 -0.49959773
vn -0.5744266 -0.7906304 -0.21198542
vn -0.50917345 -0.70081687 -0.49959806
vn -0.7906303 -0.5744266 -0.21198532
vn -0.7008165 -0.5091734 -0.49959862
vn -0.92944175 -0.30199397 -0.2119849
vn -0.82385963 -0.26768807 -0.49959832
vn -0.9772729 0 -0.21198472
vn -0.8662575 0 -0.49959782
vn -0.92944187 0.30199382 -0.21198487
vn -0.8238601 0.2676879 -0.4995976
vn -0.7906299 0.57442737 -0.21198481
vn -0.70081705 0.50917405 -0.49959695
vn -0.5744269 0.7906303 -0.21198452
vn -0.5091742 0.70081794 -0.49959564
vn -0.30199465 0.9294417 -0.21198437
vn -0.2676892 0.8238608 -0.4995957
vn -0 0.97727305 -0.21198429
vn -0 0.8662584 -0.49959618
vn 0.30199462 0.9294417 -0.21198429
vn 0.3010931 0.92666745 0.22501206
vn 0.57271206 0.7882705 0.22501214
vn 0.5014028 0.6901216 0.52184993
vn 0.26360327 0.8112868 0.5218498
vn 0.6901216 0.50140226 0.5218504
vn -0 0.9743558 0.22501259
vn 0.81128633 0.26360282 0.52185065
vn -0 0.85303736 0.5218499
vn -0.30109313 0.92666745 0.22501191
vn 0.8530366 0 0.5218512
vn -0.2636032 0.8112867 0.52184975
vn 0.9743557 0 0.22501332
vn -0.572712 0.78827053 0.22501194
vn 0.81128615 -0.26360348 0.5218504
vn -0.50140285 0.69012177 0.5218497
vn 0.9266673 -0.30109286 0.22501308
vn -0.7882699 0.57271284 0.22501254
vn 0.6901219 -0.501403 0.52184945
vn -0.69012105 0.50140274 0.52185065
vn -0.92666745 0.3010925 0.22501285
vn 0.5014026 -0.690122 0.52184963
vn -0.8112861 0.2636027 0.521851
vn -0.9743558 0 0.22501306
vn 0.26360238 -0.8112868 0.52185005
vn -0.85303664 0 0.52185094
vn -0.92666733 -0.3010922 0.22501338
vn -0.811286 -0.26360238 0.52185136
vn -0.7882702 -0.57271194 0.22501357
vn -0.69012076 -0.5014019 0.521852
vn -0.5727117 -0.7882705 0.22501332
vn -0.5014022 -0.6901205 0.5218521
vn -0.30109107 -0.92666775 0.22501312
vn -0 -0.853037 0.5218504
vn -0.26360148 -0.8112864 0.5218512
vn -0 -0.9743557 0.22501317
g candy_col_0
f 3/3/3 2/2/2 1/1/1
f 6/6/6 5/5/5 4/4/4
f 9/9/9 8/8/8 7/7/7
f 10/10/10 9/9/9 7/7/7
f 11/11/11 9/9/9 10/10/10
f 12/12/12 11/11/11 10/10/10
f 13/13/13 11/11/11 12/12/12
f 14/14/14 13/13/13 12/12/12
f 15/15/15 13/13/13 14/14/14
f 16/16/16 15/15/15 14/14/14
f 17/17/17 15/15/15 16/16/16
f 18/18/18 17/17/17 16/16/16
f 19/19/19 17/17/17 18/18/18
f 20/20/20 19/19/19 18/18/18
f 21/21/21 19/19/19 20/20/20
f 22/22/22 21/21/21 20/20/20
f 23/23/23 21/21/21 22/22/22
f 24/24/24 23/23/23 22/22/22
f 25/25/25 23/23/23 24/24/24
f 26/26/26 25/25/25 24/24/24
f 27/27/27 25/25/25 26/26/26
f 28/28/28 27/27/27 26/26/26
f 31/31/31 30/30/30 29/29/29
f 32/32/32 31/31/31 29/29/29
f 33/33/33 31/31/31 32/32/32
f 34/34/34 33/33/33 32/32/32
f 35/35/35 33/33/33 34/34/34
f 36/36/36 35/35/35 34/34/34
f 39/39/39 38/38/38 37/37/37
f 40/40/40 39/39/39 37/37/37
f 41/41/41 39/39/39 40/40/40
f 42/42/42 41/41/41 40/40/40
f 43/43/43 41/41/41 42/42/42
f 44/44/44 43/43/43 42/42/42
f 45/45/45 43/43/43 44/44/44
f 46/46/46 45/45/45 44/44/44
f 47/47/47 45/45/45 46/46/46
f 48/48/48 47/47/47 46/46/46
f 49/49/49 47/47/47 48/48/48
f 50/50/50 49/49/49 48/48/48
f 51/51/51 49/49/49 50/50/50
f 52/52/52 51/51/51 50/50/50
f 53/53/53 51/51/51 52/52/52
f 54/54/54 53/53/53 52/52/52
f 55/55/55 53/53/53 54/54/54
f 56/56/56 55/55/55 54/54/54
f 57/57/57 55/55/55 56/56/56
f 58/58/58 57/57/57 56/56/56
f 59/59/59 57/57/57 58/58/58
f 60/60/60 59/59/59 58/58/58
f 61/61/61 59/59/59 60/60/60
f 62/62/62 61/61/61 60/60/60
f 63/63/63 61/61/61 62/62/62
f 64/64/64 63/63/63 62/62/62
f 65/65/65 63/63/63 64/64/64
f 66/66/66 65/65/65 64/64/64
f 69/69/69 68/68/68 67/67/67
f 70/70/70 68/68/68 69/69/69
f 71/71/71 70/70/70 69/69/69
f 72/72/72 70/70/70 71/71/71
f 73/73/73 72/72/72 71/71/71
f 74/74/74 72/72/72 73/73/73
f 75/75/75 74/74/74 73/73/73
f 76/76/76 74/74/74 75/75/75
f 77/77/77 76/76/76 75/75/75
f 78/78/78 76/76/76 77/77/77
f 79/79/79 78/78/78 77/77/77
f 80/80/80 78/78/78 79/79/79
f 81/81/81 80/80/80 79/79/79
f 82/82/82 80/80/80 81/81/81
f 83/83/83 82/82/82 81/81/81
f 84/84/84 82/82/82 83/83/83
f 85/85/85 84/84/84 83/83/83
f 84/84/84 85/85/85 86/86/86
f 89/89/89 88/88/88 87/87/87
f 90/90/90 88/88/88 89/89/89
f 91/91/91 90/90/90 89/89/89
f 92/92/92 90/90/90 91/91/91
f 93/93/93 92/92/92 91/91/91
f 94/94/94 92/92/92 93/93/93
f 95/95/95 94/94/94 93/93/93
f 96/96/96 94/94/94 95/95/95
f 97/97/97 96/96/96 95/95/95
f 98/98/98 96/96/96 97/97/97
f 99/99/99 98/98/98 97/97/97
f 100/100/100 98/98/98 99/99/99
f 101/101/101 100/100/100 99/99/99
f 102/102/102 100/100/100 101/101/101
f 103/103/103 102/102/102 101/101/101
f 104/104/104 102/102/102 103/103/103
f 105/105/105 104/104/104 103/103/103
f 104/104/104 105/105/105 106/106/106
f 109/109/109 108/108/108 107/107/107
f 110/110/110 109/109/109 107/107/107
f 113/113/113 112/112/112 111/111/111
f 114/114/114 113/113/113 111/111/111
f 117/117/117 116/116/116 115/115/115
f 118/118/118 117/117/117 115/115/115
f 121/121/121 120/120/120 119/119/119
f 122/122/122 121/121/121 119/119/119
f 123/123/123 121/121/121 122/122/122
f 124/124/124 123/123/123 122/122/122
f 127/127/127 126/126/126 125/125/125
f 128/128/128 127/127/127 125/125/125
f 128/128/128 125/125/125 129/129/129
f 127/127/127 130/130/130 126/126/126
f 131/131/131 128/128/128 129/129/129
f 130/130/130 132/132/132 126/126/126
f 131/131/131 129/129/129 133/133/133
f 130/130/130 134/134/134 132/132/132
f 134/134/134 135/135/135 132/132/132
f 134/134/134 130/130/130 136/136/136
f 137/137/137 131/131/131 133/133/133
f 137/137/137 133/133/133 138/138/138
f 134/134/134 139/139/139 135/135/135
f 139/139/139 140/140/140 135/135/135
f 141/141/141 134/134/134 136/136/136
f 139/139/139 134/134/134 141/141/141
f 139/139/139 142/142/142 140/140/140
f 142/142/142 143/143/143 140/140/140
f 131/131/131 137/137/137 144/144/144
f 145/145/145 131/131/131 144/144/144
f 146/146/146 137/137/137 138/138/138
f 146/146/146 138/138/138 147/147/147
f 148/148/148 139/139/139 141/141/141
f 142/142/142 139/139/139 148/148/148
f 143/143/143 142/142/142 149/149/149
f 150/150/150 143/143/143 149/149/149
f 149/149/149 151/151/151 150/150/150
f 151/151/151 152/152/152 150/150/150
f 151/151/151 153/153/153 152/152/152
f 153/153/153 154/154/154 152/152/152
f 153/153/153 155/155/155 154/154/154
f 155/155/155 156/156/156 154/154/154
f 155/155/155 157/157/157 156/156/156
f 157/157/157 158/158/158 156/156/156
f 157/157/157 159/159/159 158/158/158
f 159/159/159 160/160/160 158/158/158
f 159/159/159 161/161/161 160/160/160
f 161/161/161 162/162/162 160/160/160
f 161/161/161 163/163/163 162/162/162
f 163/163/163 164/164/164 162/162/162
f 163/163/163 165/165/165 164/164/164
f 165/165/165 166/166/166 164/164/164
f 165/165/165 167/167/167 166/166/166
f 167/167/167 168/168/168 166/166/166
f 167/167/167 169/169/169 168/168/168
f 169/169/169 147/147/147 168/168/168
f 169/169/169 146/146/146 147/147/147
f 146/146/146 169/169/169 170/170/170
f 171/171/171 146/146/146 170/170/170
f 137/137/137 146/146/146 171/171/171
f 144/144/144 137/137/137 171/171/171
f 172/172/172 171/171/171 170/170/170
f 173/173/173 172/172/172 170/170/170
f 172/172/172 174/174/174 171/171/171
f 174/174/174 144/144/144 171/171/171
f 173/173/173 170/170/170 175/175/175
f 174/174/174 176/176/176 144/144/144
f 177/177/177 173/173/173 175/175/175
f 176/176/176 145/145/145 144/144/144
f 177/177/177 175/175/175 178/178/178
f 176/176/176 179/179/179 145/145/145
f 180/180/180 177/177/177 178/178/178
f 179/179/179 181/181/181 145/145/145
f 180/180/180 178/178/178 182/182/182
f 179/179/179 183/183/183 181/181/181
f 184/184/184 180/180/180 182/182/182
f 183/183/183 185/185/185 181/181/181
f 184/184/184 182/182/182 186/186/186
f 183/183/183 187/187/187 185/185/185
f 188/188/188 184/184/184 186/186/186
f 187/187/187 136/136/136 185/185/185
f 188/188/188 186/186/186 189/189/189
f 187/187/187 190/190/190 136/136/136
f 191/191/191 188/188/188 189/189/189
f 190/190/190 141/141/141 136/136/136
f 191/191/191 189/189/189 192/192/192
f 190/190/190 193/193/193 141/141/141
f 194/194/194 191/191/191 192/192/192
f 194/194/194 192/192/192 195/195/195
f 196/196/196 194/194/194 195/195/195
f 196/196/196 195/195/195 197/197/197
f 198/198/198 196/196/196 197/197/197
f 198/198/198 197/197/197 199/199/199
f 200/200/200 198/198/198 199/199/199
f 193/193/193 148/148/148 141/141/141
f 200/200/200 199/199/199 201/201/201
f 193/193/193 202/202/202 148/148/148
f 203/203/203 200/200/200 201/201/201
f 202/202/202 204/204/204 148/148/148
f 204/204/204 202/202/202 203/203/203
f 201/201/201 204/204/204 203/203/203
f 204/204/204 142/142/142 148/148/148
f 201/201/201 149/149/149 204/204/204
f 149/149/149 142/142/142 204/204/204
