g card_geo
v 0.8168336 0.9524463 0.09150591
v 0.6630223 1.0406736 -0.091505915
v 0.8272519 0.9546629 -0.091505915
v 0.6550013 1.0227295 0.09150591
v 0.5215797 1.0406187 -0.091505915
v 0.5215793 1.0227293 0.09150591
v 0.3374155 1.0406032 -0.091505915
v 0.3374153 1.0227293 0.09150591
v 3.8054045E-06 1.0406188 -0.091505915
v 3.8054045E-06 1.0227293 0.09150591
v 0.8536218 0.7971312 0.09150591
v 0.8168336 0.9524463 0.09150591
v 0.8272519 0.9546629 -0.091505915
v 0.8668129 0.801527 -0.091505915
v 0.8536218 0.51964617 0.09150591
v 0.8668129 0.5234005 -0.091505915
v 0.8536218 0.2515829 0.09150591
v 0.8668129 0.25346002 -0.091505915
v 0.8536218 -0.0162192 0.09150591
v 0.8668129 -0.0162192 -0.09150592
v 3.8054045E-06 -1.0406238 -0.091505915
v 3.8054045E-06 -1.0288585 0.09150591
v 0.33741525 -1.0288587 0.09150591
v 0.33741543 -1.0406095 -0.091505915
v 0.5215796 -1.0406237 -0.091505915
v 0.52157927 -1.0288585 0.09150591
v 0.6630222 -1.0406737 -0.091505915
v 0.6333344 -1.0288584 0.09150591
v 0.80710745 -0.98058987 -0.091505915
v 0.7813391 -0.9692113 0.09150591
v 0.8536218 -0.2840213 0.09150591
v 0.8536218 -0.0162192 0.09150591
v 0.8668129 -0.0162192 -0.09150592
v 0.8668129 -0.28589845 -0.091505915
v 0.8536218 -0.55208457 0.09150591
v 0.8668129 -0.55583894 -0.091505915
v 0.8536218 -0.8523598 0.09150591
v 0.8668129 -0.87446934 -0.091505915
v 0.7813391 -0.9692113 0.09150591
v 0.80710745 -0.98058987 -0.091505915
v -0.8617465 0.9524463 0.09150591
v -0.87216485 0.9546629 -0.091505915
v -0.7079339 1.0406736 -0.091505915
v -0.69991285 1.0227295 0.09150591
v -0.5664901 1.0406187 -0.091505915
v -0.56648976 1.0227293 0.09150591
v -0.33741066 1.0406032 -0.091505915
v -0.33741048 1.0227293 0.09150591
v 3.8054045E-06 1.0406188 -0.091505915
v 3.8054045E-06 1.0227293 0.09150591
v -0.89853495 0.7971312 0.09150591
v -0.87216485 0.9546629 -0.091505915
v -0.8617465 0.9524463 0.09150591
v -0.91172624 0.801527 -0.091505915
v -0.89853495 0.51964617 0.09150591
v -0.91172624 0.5234005 -0.091505915
v -0.89853495 0.2515829 0.09150591
v -0.91172624 0.25346002 -0.091505915
v -0.89853495 -0.0162192 0.09150591
v -0.91172624 -0.0162192 -0.09150592
v 3.8054045E-06 -1.0406238 -0.091505915
v -0.33741042 -1.0288587 0.09150591
v 3.8054045E-06 -1.0288585 0.09150591
v -0.3374106 -1.0406095 -0.091505915
v -0.56649005 -1.0406237 -0.091505915
v -0.5664897 -1.0288585 0.09150591
v -0.70793384 -1.0406737 -0.091505915
v -0.6782457 -1.0288584 0.09150591
v -0.85202026 -0.98058987 -0.091505915
v -0.82625175 -0.9692113 0.09150591
v -0.89853495 -0.2840213 0.09150591
v -0.91172624 -0.0162192 -0.09150592
v -0.89853495 -0.0162192 0.09150591
v -0.91172624 -0.28589845 -0.091505915
v -0.89853495 -0.55208457 0.09150591
v -0.91172624 -0.55583894 -0.091505915
v -0.89853495 -0.8523598 0.09150591
v -0.91172624 -0.87446934 -0.091505915
v -0.82625175 -0.9692113 0.09150591
v -0.85202026 -0.98058987 -0.091505915
vt 0.375 0.2669375
vt 0.40625 0.47527948
vt 0.375 0.4753958
vt 0.40625 0.2667501
vt 0.4375 0.47517216
vt 0.4375 0.26662284
vt 0.46875 0.4750828
vt 0.46875 0.26661593
vt 0.5 0.47504264
vt 0.5 0.26664254
vt 0.3579121 0.21875
vt 0.3580625 0.25
vt 0.14960422 0.25
vt 0.14943081 0.21875
vt 0.3577786 0.1875
vt 0.14933006 0.1875
vt 0.35772878 0.171875
vt 0.14935234 0.171875
vt 0.35767898 0.15625
vt 0.1493746 0.15625
vt 0.5 0.47504264
vt 0.5 0.26664254
vt 0.46875 0.26661593
vt 0.46875 0.4750828
vt 0.4375 0.47517216
vt 0.4375 0.26662284
vt 0.40625 0.47527948
vt 0.40625 0.2667501
vt 0.375 0.4753958
vt 0.375 0.2669375
vt 0.35772878 0.171875
vt 0.35767898 0.15625
vt 0.1493746 0.15625
vt 0.14935234 0.171875
vt 0.3577786 0.1875
vt 0.14933006 0.1875
vt 0.3579121 0.21875
vt 0.14943081 0.21875
vt 0.3580625 0.25
vt 0.14960422 0.25
vt 0.375 0.2669375
vt 0.375 0.4753958
vt 0.40625 0.47527948
vt 0.40625 0.2667501
vt 0.4375 0.47517216
vt 0.4375 0.26662284
vt 0.46875 0.4750828
vt 0.46875 0.26661593
vt 0.5 0.47504264
vt 0.5 0.26664254
vt 0.3579121 0.21875
vt 0.14960422 0.25
vt 0.3580625 0.25
vt 0.14943081 0.21875
vt 0.3577786 0.1875
vt 0.14933006 0.1875
vt 0.35772878 0.171875
vt 0.14935234 0.171875
vt 0.35767898 0.15625
vt 0.1493746 0.15625
vt 0.5 0.47504264
vt 0.46875 0.26661593
vt 0.5 0.26664254
vt 0.46875 0.4750828
vt 0.4375 0.47517216
vt 0.4375 0.26662284
vt 0.40625 0.47527948
vt 0.40625 0.2667501
vt 0.375 0.4753958
vt 0.375 0.2669375
vt 0.35772878 0.171875
vt 0.1493746 0.15625
vt 0.35767898 0.15625
vt 0.14935234 0.171875
vt 0.3577786 0.1875
vt 0.14933006 0.1875
vt 0.3579121 0.21875
vt 0.14943081 0.21875
vt 0.3580625 0.25
vt 0.14960422 0.25
vn 0.7490868 0.6580488 0.07642494
vn 0.25329968 0.9636926 0.08447359
vn 0.7584311 0.64726186 0.076383255
vn 0.24769613 0.9651167 0.08483112
vn -0.00010938684 0.9952527 0.097323865
vn -0.00010938553 0.9952527 0.09732387
vn -0 0.99526054 0.09724472
vn -0 0.99526054 0.09724472
vn 2.303375E-05 0.99526054 0.097244605
vn 2.303375E-05 0.99526054 0.097244605
vn 0.993733 0.08671267 0.07053886
vn 0.7490868 0.6580488 0.07642494
vn 0.7584311 0.64726186 0.076383255
vn 0.99354714 0.0888477 0.07049869
vn 0.9974125 0 0.07189138
vn 0.9974125 0 0.07189138
vn 0.9974125 0 0.07189137
vn 0.9974125 0 0.07189137
vn 0.9974125 0 0.071891375
vn 0.9974125 0 0.07189137
vn 2.0979272E-05 -0.9979425 0.06411552
vn 2.0979269E-05 -0.9979425 0.06411551
vn -0 -0.9979425 0.06411555
vn -0 -0.9979425 0.06411556
vn -0.00010278404 -0.99793833 0.06418011
vn -0.00010278318 -0.99793833 0.064180106
vn 0.23046061 -0.96826416 0.09670763
vn 0.1962659 -0.9762131 0.09212817
vn 0.63303894 -0.7627445 0.13222164
vn 0.6130011 -0.77910805 0.13122633
vn 0.9974125 0 0.071891375
vn 0.9974125 0 0.071891375
vn 0.9974125 0 0.07189137
vn 0.9974125 0 0.071891375
vn 0.9974125 0 0.07189138
vn 0.9974125 0 0.07189138
vn 0.9855913 -0.1417789 0.09224105
vn 0.9811038 -0.168072 0.09584947
vn 0.6130011 -0.77910805 0.13122633
vn 0.63303894 -0.7627445 0.13222164
vn -0.74908394 0.658052 0.07642505
vn -0.7584284 0.647265 0.07638338
vn -0.25329787 0.9636931 0.08447322
vn -0.24769425 0.9651172 0.08483075
vn 9.5982105E-05 0.9952538 0.0973138
vn 9.598081E-05 0.9952538 0.0973138
vn -0 0.99526054 0.09724454
vn -0 0.99526054 0.09724454
vn -2.3033559E-05 0.99526054 0.09724462
vn -2.3033559E-05 0.99526054 0.09724463
vn -0.99373275 0.086713575 0.07053972
vn -0.7584284 0.647265 0.07638338
vn -0.74908394 0.658052 0.07642505
vn -0.993547 0.08884863 0.07049958
vn -0.9974124 0 0.07189234
vn -0.9974124 0 0.071892336
vn -0.9974124 0 0.071892336
vn -0.9974124 0 0.071892336
vn -0.9974124 0 0.071892336
vn -0.9974124 0 0.071892336
vn -2.0978989E-05 -0.9979425 0.064115465
vn -0 -0.9979425 0.0641155
vn -2.0978987E-05 -0.9979425 0.064115465
vn -0 -0.9979425 0.0641155
vn 8.9803776E-05 -0.9979388 0.06417172
vn 8.980295E-05 -0.9979388 0.064171724
vn -0.23045899 -0.96826464 0.09670703
vn -0.19626413 -0.9762136 0.09212752
vn -0.63303584 -0.76274705 0.13222177
vn -0.61299765 -0.7791107 0.13122635
vn -0.9974124 0 0.07189234
vn -0.9974124 0 0.071892336
vn -0.9974124 0 0.071892336
vn -0.9974124 0 0.07189234
vn -0.9974124 0 0.07189236
vn -0.9974124 0 0.07189235
vn -0.98559105 -0.14178015 0.09224212
vn -0.9811034 -0.16807331 0.09585054
vn -0.61299765 -0.7791107 0.13122635
vn -0.63303584 -0.76274705 0.13222177
g card_geo_0
f 3/3/3 2/2/2 1/1/1
f 2/2/2 4/4/4 1/1/1
f 2/2/2 5/5/5 4/4/4
f 5/5/5 6/6/6 4/4/4
f 5/5/5 7/7/7 6/6/6
f 7/7/7 8/8/8 6/6/6
f 7/7/7 9/9/9 8/8/8
f 9/9/9 10/10/10 8/8/8
f 13/13/13 12/12/12 11/11/11
f 14/14/14 13/13/13 11/11/11
f 14/14/14 11/11/11 15/15/15
f 16/16/16 14/14/14 15/15/15
f 16/16/16 15/15/15 17/17/17
f 18/18/18 16/16/16 17/17/17
f 18/18/18 17/17/17 19/19/19
f 20/20/20 18/18/18 19/19/19
f 23/23/23 22/22/22 21/21/21
f 24/24/24 23/23/23 21/21/21
f 24/24/24 25/25/25 23/23/23
f 25/25/25 26/26/26 23/23/23
f 25/25/25 27/27/27 26/26/26
f 27/27/27 28/28/28 26/26/26
f 27/27/27 29/29/29 28/28/28
f 29/29/29 30/30/30 28/28/28
f 33/33/33 32/32/32 31/31/31
f 34/34/34 33/33/33 31/31/31
f 34/34/34 31/31/31 35/35/35
f 36/36/36 34/34/34 35/35/35
f 36/36/36 35/35/35 37/37/37
f 38/38/38 36/36/36 37/37/37
f 38/38/38 37/37/37 39/39/39
f 40/40/40 38/38/38 39/39/39
f 43/43/43 42/42/42 41/41/41
f 44/44/44 43/43/43 41/41/41
f 45/45/45 43/43/43 44/44/44
f 46/46/46 45/45/45 44/44/44
f 47/47/47 45/45/45 46/46/46
f 48/48/48 47/47/47 46/46/46
f 49/49/49 47/47/47 48/48/48
f 50/50/50 49/49/49 48/48/48
f 53/53/53 52/52/52 51/51/51
f 52/52/52 54/54/54 51/51/51
f 51/51/51 54/54/54 55/55/55
f 54/54/54 56/56/56 55/55/55
f 55/55/55 56/56/56 57/57/57
f 56/56/56 58/58/58 57/57/57
f 57/57/57 58/58/58 59/59/59
f 58/58/58 60/60/60 59/59/59
f 63/63/63 62/62/62 61/61/61
f 62/62/62 64/64/64 61/61/61
f 65/65/65 64/64/64 62/62/62
f 66/66/66 65/65/65 62/62/62
f 67/67/67 65/65/65 66/66/66
f 68/68/68 67/67/67 66/66/66
f 69/69/69 67/67/67 68/68/68
f 70/70/70 69/69/69 68/68/68
f 73/73/73 72/72/72 71/71/71
f 72/72/72 74/74/74 71/71/71
f 71/71/71 74/74/74 75/75/75
f 74/74/74 76/76/76 75/75/75
f 75/75/75 76/76/76 77/77/77
f 76/76/76 78/78/78 77/77/77
f 77/77/77 78/78/78 79/79/79
f 78/78/78 80/80/80 79/79/79
