g cereal_col
v -0.30872056 -0.48884246 0.09501338
v -0.30449224 -0.48461396 0.11851146
v -0.2857138 -0.48884243 0.123802595
v -0.2857138 -0.49837217 0.09501337
v -0.30872056 -0.4888425 -0.09501314
v 0.2857138 -0.49837217 0.09501337
v 0.2857138 -0.48884243 0.123802595
v -0.2857138 -0.4983722 -0.09501315
v 0.30872056 -0.48884246 0.09501338
v 0.30449224 -0.48461396 0.11851146
v 0.2857138 -0.4983722 -0.09501315
v 0.30872056 -0.4888425 -0.09501314
v 0.2857138 -0.4888425 -0.123802364
v 0.30449224 -0.48461398 -0.11851123
v -0.2857138 -0.4888425 -0.123802364
v -0.30449224 -0.48461398 -0.11851123
v -0.2857138 0.4888425 0.123802364
v -0.30449224 0.48461398 0.11851123
v -0.30872056 0.4888425 0.09501314
v -0.2857138 0.4983722 0.09501315
v 0.2857138 0.4888425 0.123802364
v -0.2857138 0.49837217 -0.09501337
v -0.30872056 0.48884246 -0.09501338
v -0.2857138 0.48884243 -0.123802595
v -0.30449224 0.48461396 -0.11851146
v 0.2857138 0.49837217 -0.09501337
v 0.2857138 0.48884243 -0.123802595
v 0.2857138 0.4983722 0.09501315
v 0.30872056 0.48884246 -0.09501338
v 0.30449224 0.48461396 -0.11851146
v 0.30872056 0.4888425 0.09501314
v 0.30449224 0.48461398 0.11851123
v -0.2857138 0.48884243 -0.123802595
v -0.30449224 0.48461396 -0.11851146
v -0.30872056 0.46583566 -0.12380259
v -0.2857138 0.46583566 -0.1357275
v 0.2857138 0.48884243 -0.123802595
v -0.2857138 -0.4658357 -0.13572727
v -0.30872056 -0.4658357 -0.12380237
v -0.2857138 -0.4888425 -0.123802364
v -0.30449224 -0.48461398 -0.11851123
v 0.2857138 -0.4658357 -0.13572727
v 0.2857138 -0.4888425 -0.123802364
v 0.2857138 0.46583566 -0.1357275
v 0.30872056 -0.4658357 -0.12380237
v 0.30449224 -0.48461398 -0.11851123
v 0.30872056 -0.4888425 -0.09501314
v 0.30872056 0.46583566 -0.12380259
v 0.30449224 0.48461396 -0.11851146
v 0.30872056 0.48884246 -0.09501338
v 0.31825042 -0.4658357 -0.09501315
v 0.31825042 0.46583566 -0.09501337
v 0.30872056 0.4888425 0.09501314
v 0.31825042 -0.46583566 0.09501337
v 0.30872056 -0.48884246 0.09501338
v 0.31825042 0.4658357 0.09501315
v 0.30872056 -0.46583566 0.12380259
v 0.30449224 -0.48461396 0.11851146
v 0.2857138 -0.48884243 0.123802595
v 0.30872056 0.4658357 0.12380237
v 0.30449224 0.48461398 0.11851123
v 0.2857138 0.4888425 0.123802364
v 0.2857138 -0.46583566 0.1357275
v 0.2857138 0.4658357 0.13572727
v -0.2857138 0.4888425 0.123802364
v -0.2857138 -0.46583566 0.1357275
v -0.2857138 -0.48884243 0.123802595
v -0.2857138 0.4658357 0.13572727
v -0.30872056 -0.46583566 0.12380259
v -0.30449224 -0.48461396 0.11851146
v -0.30872056 -0.48884246 0.09501338
v -0.30872056 0.4658357 0.12380237
v -0.30449224 0.48461398 0.11851123
v -0.30872056 0.4888425 0.09501314
v -0.31825042 -0.46583566 0.09501337
v -0.31825042 0.4658357 0.09501315
v -0.30872056 0.48884246 -0.09501338
v -0.31825042 -0.4658357 -0.09501315
v -0.30872056 -0.4888425 -0.09501314
v -0.31825042 0.46583566 -0.09501337
v -0.30872056 -0.4658357 -0.12380237
v -0.30449224 -0.48461398 -0.11851123
v -0.30872056 0.46583566 -0.12380259
v -0.30449224 0.48461396 -0.11851146
vt 0.427179 0.6187933
vt 0.41311473 0.621186
vt 0.41024783 0.6326002
vt 0.42754278 0.6330122
vt 0.53649026 0.6188486
vt 0.42752877 0.9595182
vt 0.41019574 0.9599177
vt 0.53612924 0.6330048
vt 0.42716768 0.9736744
vt 0.41308305 0.97131765
vt 0.5361152 0.95951074
vt 0.536479 0.9737296
vt 0.5534101 0.95992285
vt 0.55054325 0.971337
vt 0.5534622 0.6326053
vt 0.55057496 0.6212054
vt 0.17336439 0.9590689
vt 0.17625411 0.97046816
vt 0.19033928 0.97282183
vt 0.1906973 0.9586656
vt 0.17334563 0.6317513
vt 0.2992838 0.95863473
vt 0.29965067 0.97285354
vt 0.3165788 0.959043
vt 0.31371439 0.9704578
vt 0.29922718 0.6321287
vt 0.3165601 0.63172543
vt 0.19064066 0.6321596
vt 0.29958516 0.6179725
vt 0.31367034 0.62032616
vt 0.1902738 0.6179409
vt 0.17621009 0.62033653
vt 0.98235965 0.56807137
vt 0.99434644 0.5659079
vt 0.9969271 0.55396533
vt 0.98216754 0.5532334
vt 0.65633446 0.5635373
vt 0.9852053 0.014763649
vt 1 0.014086343
vt 0.9854244 0
vt 0.99742824 0.0021622693
vt 0.6562238 0.018926919
vt 0.654487 0.0042062798
vt 0.6580653 0.5488877
vt 0.6415033 0.019057278
vt 0.64115757 0.007559791
vt 0.62532085 0.004432469
vt 0.64331925 0.548788
vt 0.6430002 0.56029254
vt 0.6271818 0.5636281
vt 0.6242823 0.018547263
vt 0.6260354 0.5493526
vt 0.51628083 0.56401956
vt 0.5157826 0.018623326
vt 0.51456696 0.0043485006
vt 0.5173842 0.54990375
vt 0.49853358 0.0191307
vt 0.49870124 0.0075940895
vt 0.48515147 0.004333163
vt 0.50013727 0.54946125
vt 0.5003577 0.5609931
vt 0.48680803 0.5644
vt 0.4838187 0.019017963
vt 0.48539567 0.54962355
vt 0.1573608 0.56522983
vt 0.1574329 0.019386236
vt 0.15607727 0.0046054376
vt 0.15864164 0.5505419
vt 0.14269741 0.019495659
vt 0.14261346 0.007992666
vt 0.12697257 0.00483977
vt 0.14391395 0.55047387
vt 0.14387041 0.5619731
vt 0.12824653 0.56528634
vt 0.1254615 0.018925963
vt 0.12664858 0.551095
vt 0.017777406 0.5677048
vt 0.01730132 0.016903542
vt 0.017369758 0.0026220223
vt 0.017667871 0.55353755
vt 0 0.016392387
vt 0.0031191371 0.0048938403
vt 0.00033645518 0.5540878
vt 0.003505282 0.56554365
vn -0.70677483 -0.7067776 0.030573815
vn -0.61727893 -0.61727864 0.48778456
vn -0.011885329 -0.7808061 0.62466025
vn -0.0153313 -0.9989575 0.042998474
vn -0.70677483 -0.7067777 -0.030573482
vn 0.015331299 -0.9989575 0.042998474
vn 0.011885318 -0.7808061 0.62466025
vn -0.015331295 -0.9989575 -0.042998
vn 0.70677483 -0.7067776 0.030573819
vn 0.6172788 -0.6172786 0.48778468
vn 0.015331296 -0.9989575 -0.042998
vn 0.7067748 -0.7067776 -0.03057345
vn 0.011885338 -0.7808061 -0.6246603
vn 0.61727893 -0.6172789 -0.48778436
vn -0.011885334 -0.7808061 -0.6246603
vn -0.61727875 -0.6172788 -0.48778453
vn -0.011885334 0.7808061 0.6246603
vn -0.61727875 0.6172788 0.48778453
vn -0.7067747 0.7067777 0.030573476
vn -0.015331302 0.9989575 0.042998
vn 0.011885338 0.7808061 0.6246603
vn -0.015331307 0.9989575 -0.042998474
vn -0.7067748 0.7067777 -0.030573811
vn -0.011885329 0.7808061 -0.62466025
vn -0.61727893 0.6172787 -0.48778462
vn 0.015331306 0.9989575 -0.042998474
vn 0.011885318 0.7808061 -0.62466025
vn 0.015331303 0.9989575 0.042998
vn 0.7067748 0.7067777 -0.030573815
vn 0.6172788 0.61727864 -0.4877847
vn 0.7067748 0.7067777 0.030573446
vn 0.61727893 0.6172789 0.48778436
vn -0.011885329 0.7808061 -0.62466025
vn -0.61727893 0.6172787 -0.48778462
vn -0.7809655 0.007370391 -0.62453073
vn -0.01987906 0.0123089235 -0.9997266
vn 0.011885318 0.7808061 -0.62466025
vn -0.019879062 -0.012309399 -0.9997266
vn -0.78096557 -0.007370702 -0.6245306
vn -0.011885334 -0.7808061 -0.6246603
vn -0.61727875 -0.6172788 -0.48778453
vn 0.019879062 -0.012309399 -0.9997266
vn 0.011885338 -0.7808061 -0.6246603
vn 0.01987906 0.012308923 -0.9997266
vn 0.78096557 -0.007370692 -0.6245306
vn 0.61727893 -0.6172789 -0.48778436
vn 0.7067748 -0.7067776 -0.03057345
vn 0.7809655 0.0073703923 -0.62453073
vn 0.6172788 0.61727864 -0.4877847
vn 0.7067748 0.7067777 -0.030573815
vn 0.9990212 -0.009542335 -0.04319335
vn 0.9990212 0.00954231 -0.04319337
vn 0.7067748 0.7067777 0.030573446
vn 0.9990212 -0.009542314 0.04319337
vn 0.70677483 -0.7067776 0.030573819
vn 0.9990212 0.009542331 0.04319335
vn 0.7809655 -0.0073703923 0.62453073
vn 0.6172788 -0.6172786 0.48778468
vn 0.011885318 -0.7808061 0.62466025
vn 0.78096557 0.007370692 0.6245306
vn 0.61727893 0.6172789 0.48778436
vn 0.011885338 0.7808061 0.6246603
vn 0.01987906 -0.012308923 0.9997266
vn 0.019879062 0.012309399 0.9997266
vn -0.011885334 0.7808061 0.6246603
vn -0.01987906 -0.0123089235 0.9997266
vn -0.011885329 -0.7808061 0.62466025
vn -0.019879062 0.012309399 0.9997266
vn -0.7809655 -0.007370391 0.62453073
vn -0.61727893 -0.61727864 0.48778456
vn -0.70677483 -0.7067776 0.030573815
vn -0.78096557 0.007370702 0.6245306
vn -0.61727875 0.6172788 0.48778453
vn -0.7067747 0.7067777 0.030573476
vn -0.9990212 -0.009542311 0.04319337
vn -0.9990212 0.009542334 0.04319335
vn -0.7067748 0.7067777 -0.030573811
vn -0.9990212 -0.009542333 -0.04319335
vn -0.70677483 -0.7067777 -0.030573482
vn -0.9990212 0.009542312 -0.04319337
vn -0.78096557 -0.007370702 -0.6245306
vn -0.61727875 -0.6172788 -0.48778453
vn -0.7809655 0.007370391 -0.62453073
vn -0.61727893 0.6172787 -0.48778462
g cereal_col_0
f 3/3/3 2/2/2 1/1/1
f 4/4/4 3/3/3 1/1/1
f 1/1/1 5/5/5 4/4/4
f 4/4/4 6/6/6 3/3/3
f 6/6/6 7/7/7 3/3/3
f 5/5/5 8/8/8 4/4/4
f 6/6/6 4/4/4 8/8/8
f 6/6/6 9/9/9 7/7/7
f 9/9/9 10/10/10 7/7/7
f 6/6/6 11/11/11 9/9/9
f 11/11/11 6/6/6 8/8/8
f 11/11/11 12/12/12 9/9/9
f 11/11/11 13/13/13 12/12/12
f 13/13/13 11/11/11 8/8/8
f 13/13/13 14/14/14 12/12/12
f 15/15/15 13/13/13 8/8/8
f 8/8/8 5/5/5 15/15/15
f 5/5/5 16/16/16 15/15/15
f 19/19/19 18/18/18 17/17/17
f 20/20/20 19/19/19 17/17/17
f 17/17/17 21/21/21 20/20/20
f 20/20/20 22/22/22 19/19/19
f 22/22/22 23/23/23 19/19/19
f 22/22/22 24/24/24 23/23/23
f 24/24/24 25/25/25 23/23/23
f 22/22/22 26/26/26 24/24/24
f 26/26/26 22/22/22 20/20/20
f 26/26/26 27/27/27 24/24/24
f 21/21/21 28/28/28 20/20/20
f 28/28/28 26/26/26 20/20/20
f 26/26/26 29/29/29 27/27/27
f 29/29/29 26/26/26 28/28/28
f 29/29/29 30/30/30 27/27/27
f 31/31/31 29/29/29 28/28/28
f 28/28/28 21/21/21 31/31/31
f 21/21/21 32/32/32 31/31/31
f 35/35/35 34/34/34 33/33/33
f 36/36/36 35/35/35 33/33/33
f 33/33/33 37/37/37 36/36/36
f 36/36/36 38/38/38 35/35/35
f 38/38/38 39/39/39 35/35/35
f 38/38/38 40/40/40 39/39/39
f 40/40/40 41/41/41 39/39/39
f 38/38/38 42/42/42 40/40/40
f 42/42/42 38/38/38 36/36/36
f 42/42/42 43/43/43 40/40/40
f 37/37/37 44/44/44 36/36/36
f 44/44/44 42/42/42 36/36/36
f 42/42/42 45/45/45 43/43/43
f 45/45/45 42/42/42 44/44/44
f 45/45/45 46/46/46 43/43/43
f 47/47/47 46/46/46 45/45/45
f 44/44/44 37/37/37 48/48/48
f 48/48/48 45/45/45 44/44/44
f 37/37/37 49/49/49 48/48/48
f 48/48/48 49/49/49 50/50/50
f 51/51/51 47/47/47 45/45/45
f 51/51/51 45/45/45 48/48/48
f 52/52/52 48/48/48 50/50/50
f 52/52/52 51/51/51 48/48/48
f 52/52/52 50/50/50 53/53/53
f 47/47/47 51/51/51 54/54/54
f 51/51/51 52/52/52 54/54/54
f 55/55/55 47/47/47 54/54/54
f 56/56/56 52/52/52 53/53/53
f 52/52/52 56/56/56 54/54/54
f 54/54/54 57/57/57 55/55/55
f 54/54/54 56/56/56 57/57/57
f 57/57/57 58/58/58 55/55/55
f 59/59/59 58/58/58 57/57/57
f 56/56/56 53/53/53 60/60/60
f 56/56/56 60/60/60 57/57/57
f 53/53/53 61/61/61 60/60/60
f 60/60/60 61/61/61 62/62/62
f 63/63/63 59/59/59 57/57/57
f 57/57/57 60/60/60 63/63/63
f 64/64/64 60/60/60 62/62/62
f 60/60/60 64/64/64 63/63/63
f 64/64/64 62/62/62 65/65/65
f 59/59/59 63/63/63 66/66/66
f 63/63/63 64/64/64 66/66/66
f 67/67/67 59/59/59 66/66/66
f 68/68/68 64/64/64 65/65/65
f 64/64/64 68/68/68 66/66/66
f 66/66/66 69/69/69 67/67/67
f 66/66/66 68/68/68 69/69/69
f 69/69/69 70/70/70 67/67/67
f 71/71/71 70/70/70 69/69/69
f 68/68/68 65/65/65 72/72/72
f 68/68/68 72/72/72 69/69/69
f 65/65/65 73/73/73 72/72/72
f 72/72/72 73/73/73 74/74/74
f 75/75/75 71/71/71 69/69/69
f 69/69/69 72/72/72 75/75/75
f 76/76/76 72/72/72 74/74/74
f 72/72/72 76/76/76 75/75/75
f 74/74/74 77/77/77 76/76/76
f 75/75/75 78/78/78 71/71/71
f 75/75/75 76/76/76 78/78/78
f 78/78/78 79/79/79 71/71/71
f 77/77/77 80/80/80 76/76/76
f 76/76/76 80/80/80 78/78/78
f 78/78/78 81/81/81 79/79/79
f 81/81/81 78/78/78 80/80/80
f 81/81/81 82/82/82 79/79/79
f 83/83/83 81/81/81 80/80/80
f 80/80/80 77/77/77 83/83/83
f 77/77/77 84/84/84 83/83/83
