g domino
v -0.26063436 -0.46448418 0.079726756
v -0.25667584 -0.46052566 0.09943271
v -0.23912251 -0.46448418 0.10388243
v -0.23912251 -0.4733981 0.079726756
v -0.26063436 -0.46448418 -0.079726815
v 0.23912258 -0.4733981 0.079726756
v 0.23912258 -0.46448418 0.10388243
v -0.23912251 -0.4733981 -0.079726815
v 0.26063442 -0.46448418 0.079726756
v 0.2566759 -0.46052566 0.09943271
v 0.23912258 -0.4733981 -0.079726815
v 0.26063442 -0.46448418 -0.079726815
v 0.23912258 -0.46448418 -0.10388249
v 0.2566759 -0.46052566 -0.09943277
v 0.26063442 -0.44297233 -0.10388249
v -0.23912251 -0.46448418 -0.10388249
v -0.25667584 -0.46052566 -0.09943277
v -0.26063436 -0.44297233 -0.10388249
v 0.23912258 -0.44297233 -0.11387995
v -0.23912251 -0.44297233 -0.11387995
v -0.26063436 0.44297224 -0.10388249
v 0.23912258 0.44297224 -0.11387995
v 0.26063442 0.44297224 -0.10388249
v -0.23912251 0.44297224 -0.11387995
v 0.23912258 0.4644841 -0.10388249
v 0.2566759 0.46052557 -0.09943277
v 0.26063442 0.4644841 -0.079726815
v -0.23912251 0.4644841 -0.10388249
v -0.25667584 0.46052557 -0.09943277
v -0.26063436 0.4644841 -0.079726815
v 0.23912258 0.47339803 -0.079726815
v -0.23912251 0.47339803 -0.079726815
v -0.26063436 0.4644841 0.079726756
v 0.23912258 0.47339803 0.079726756
v 0.26063442 0.4644841 0.079726756
v -0.23912251 0.47339803 0.079726756
v 0.23912258 0.4644841 0.10388243
v 0.2566759 0.46052557 0.09943271
v -0.23912251 0.4644841 0.10388243
v -0.25667584 0.46052557 0.09943271
v 0.26063442 0.44297224 0.10388243
v 0.26063442 0.4644841 0.079726756
v 0.23912258 0.44297224 0.11387986
v -0.26063436 0.44297224 0.10388243
v -0.26063436 0.4644841 0.079726756
v -0.23912251 0.44297224 0.11387986
v -0.2695483 0.44297224 0.079726756
v -0.26063436 0.4644841 -0.079726815
v -0.23912251 -0.44297233 0.11387986
v -0.26063436 -0.44297233 0.10388243
v 0.23912258 -0.44297233 0.11387986
v -0.2695483 -0.44297233 0.079726756
v 0.26954836 0.44297224 0.079726756
v 0.26063442 -0.44297233 0.10388243
v 0.23912258 -0.46448418 0.10388243
v -0.23912251 -0.46448418 0.10388243
v -0.25667584 -0.46052566 0.09943271
v 0.2566759 -0.46052566 0.09943271
v -0.26063436 -0.46448418 0.079726756
v 0.26063442 -0.46448418 0.079726756
v -0.2695483 -0.44297233 -0.079726815
v -0.26063436 -0.46448418 -0.079726815
v 0.26954836 -0.44297233 0.079726756
v 0.26063442 -0.46448418 -0.079726815
v -0.26063436 -0.44297233 -0.10388249
v -0.25667584 -0.46052566 -0.09943277
v -0.2695483 0.44297224 -0.079726815
v -0.26063436 0.44297224 -0.10388249
v -0.25667584 0.46052557 -0.09943277
v 0.26954836 0.44297224 -0.079726815
v 0.26063442 0.4644841 -0.079726815
v 0.26954836 -0.44297233 -0.079726815
v 0.26063442 0.44297224 -0.10388249
v 0.2566759 0.46052557 -0.09943277
v 0.26063442 -0.44297233 -0.10388249
v 0.2566759 -0.46052566 -0.09943277
vt 0.4328194 0.9828302
vt 0.43475264 0.9915299
vt 0.44248566 0.99346316
vt 0.44248566 0.9828302
vt 0.43475264 0.91226643
vt 0.65224373 0.9828302
vt 0.65224373 0.99442977
vt 0.4444189 0.9132331
vt 0.66191 0.9837969
vt 0.6609434 0.9924965
vt 0.6512771 0.9141997
vt 0.66191 0.9132331
vt 0.6512771 0.90356684
vt 0.6590102 0.90356684
vt 0.66191 0.8939006
vt 0.44538555 0.90260017
vt 0.4366859 0.90260017
vt 0.43475264 0.8929339
vt 0.6512771 0.8929339
vt 0.4444189 0.8919673
vt 0.4366859 0.5082163
vt 0.654177 0.51014954
vt 0.6638433 0.50918293
vt 0.44635215 0.5082163
vt 0.6532104 0.5004833
vt 0.66191 0.49951667
vt 0.6638433 0.4898504
vt 0.4473188 0.49855003
vt 0.43861914 0.49855003
vt 0.4366859 0.48791713
vt 0.654177 0.48888376
vt 0.44635215 0.48695052
vt 0.43765253 0.41735336
vt 0.654177 0.42025322
vt 0.6648099 0.4192866
vt 0.4473188 0.41831997
vt 0.654177 0.40962034
vt 0.66287667 0.4086537
vt 0.44828543 0.40768707
vt 0.43958578 0.40672046
vt 0.6638433 0.39995405
vt 0.6725429 0.41058695
vt 0.6532104 0.39898744
vt 0.43861914 0.3980208
vt 0.42895287 0.4086537
vt 0.44828543 0.39705417
vt 0.42798623 0.3980208
vt 0.35838908 0.4115536
vt 0.44828543 0.016203072
vt 0.43765253 0.016203072
vt 0.6570769 0.016203072
vt 0.42701963 0.016203072
vt 0.6744762 0.4009207
vt 0.66770977 0.016203072
vt 0.6580435 0.0055701733
vt 0.4473188 0.0055701733
vt 0.43765253 0.008470055
vt 0.66770977 0.008470055
vt 0.42798623 0.0065368004
vt 0.67737603 0.0055701733
vt 0.35742247 0.016203072
vt 0.35742247 0.0055701733
vt 0.6783427 0.016203072
vt 0.7489065 0.0065368004
vt 0.34678957 0.015236445
vt 0.34872282 0.0075034276
vt 0.35838908 0.4009207
vt 0.3477562 0.40188733
vt 0.34968945 0.40962034
vt 0.7431067 0.40382057
vt 0.74214005 0.41445348
vt 0.7479398 0.016203072
vt 0.7537396 0.40478718
vt 0.7518064 0.4125202
vt 0.75953937 0.016203072
vt 0.7576061 0.0075034276
vn -0.70710695 -0.7071068 -0
vn -0.59927833 -0.5992782 0.5307835
vn -0.011750579 -0.7481186 0.66346097
vn -0.019584298 -0.99879706 0.04495437
vn -0.70710695 -0.7071068 -0
vn 0.019584239 -0.99879706 0.04495437
vn 0.011750519 -0.7481186 0.66346097
vn -0.019584298 -0.99879706 -0.04495437
vn 0.7071068 -0.7071068 -0
vn 0.5992782 -0.5992782 0.5307836
vn 0.019584239 -0.99879706 -0.04495437
vn 0.7071068 -0.7071068 -0
vn 0.011750519 -0.7481186 -0.66346097
vn 0.5992782 -0.5992782 -0.5307836
vn 0.7481186 -0.0039168 -0.6635535
vn -0.011750579 -0.7481186 -0.66346097
vn -0.59927833 -0.5992782 -0.5307835
vn -0.74811864 -0.0039168 -0.6635535
vn 0.019584239 -0.011750519 -0.9997391
vn -0.019584298 -0.011750519 -0.9997391
vn -0.74811864 0.0039168596 -0.6635535
vn 0.019584239 0.011750579 -0.9997391
vn 0.7481186 0.0039168596 -0.6635535
vn -0.019584298 0.011750579 -0.9997391
vn 0.011750519 0.74811864 -0.66346097
vn 0.5992782 0.59927833 -0.5307835
vn 0.7071068 0.70710695 -0
vn -0.011750579 0.74811864 -0.66346097
vn -0.59927833 0.59927833 -0.5307833
vn -0.7071068 0.7071068 -0
vn 0.019584239 0.99879706 -0.04495437
vn -0.019584298 0.99879706 -0.04495437
vn -0.7071068 0.7071068 -0
vn 0.019584239 0.99879706 0.04495437
vn 0.7071068 0.70710695 -0
vn -0.019584298 0.99879706 0.04495437
vn 0.011750519 0.74811864 0.66346097
vn 0.5992782 0.59927833 0.5307835
vn -0.011750579 0.74811864 0.66346097
vn -0.59927833 0.59927833 0.5307833
vn 0.7481186 0.0039168596 0.6635535
vn 0.7071068 0.70710695 -0
vn 0.019584239 0.011750579 0.9997391
vn -0.74811864 0.0039168596 0.6635535
vn -0.7071068 0.7071068 -0
vn -0.019584298 0.011750579 0.9997391
vn -0.99879706 0.011750579 0.047606464
vn -0.7071068 0.7071068 -0
vn -0.019584298 -0.011750519 0.9997391
vn -0.74811864 -0.0039168 0.6635535
vn 0.019584239 -0.011750519 0.9997391
vn -0.99879706 -0.011750519 0.04760648
vn 0.99879706 0.011750579 0.047606464
vn 0.7481186 -0.0039168 0.6635535
vn 0.011750519 -0.7481186 0.66346097
vn -0.011750579 -0.7481186 0.66346097
vn -0.59927833 -0.5992782 0.5307835
vn 0.5992782 -0.5992782 0.5307836
vn -0.70710695 -0.7071068 -0
vn 0.7071068 -0.7071068 -0
vn -0.99879706 -0.011750519 -0.04760648
vn -0.70710695 -0.7071068 -0
vn 0.99879706 -0.011750519 0.04760648
vn 0.7071068 -0.7071068 -0
vn -0.74811864 -0.0039168 -0.6635535
vn -0.59927833 -0.5992782 -0.5307835
vn -0.99879706 0.011750579 -0.047606464
vn -0.74811864 0.0039168596 -0.6635535
vn -0.59927833 0.59927833 -0.5307833
vn 0.99879706 0.011750579 -0.047606464
vn 0.7071068 0.70710695 -0
vn 0.99879706 -0.011750519 -0.04760648
vn 0.7481186 0.0039168596 -0.6635535
vn 0.5992782 0.59927833 -0.5307835
vn 0.7481186 -0.0039168 -0.6635535
vn 0.5992782 -0.5992782 -0.5307836
g domino_0
f 3/3/3 2/2/2 1/1/1
f 4/4/4 3/3/3 1/1/1
f 1/1/1 5/5/5 4/4/4
f 4/4/4 6/6/6 3/3/3
f 6/6/6 7/7/7 3/3/3
f 5/5/5 8/8/8 4/4/4
f 6/6/6 4/4/4 8/8/8
f 6/6/6 9/9/9 7/7/7
f 9/9/9 10/10/10 7/7/7
f 6/6/6 11/11/11 9/9/9
f 11/11/11 6/6/6 8/8/8
f 11/11/11 12/12/12 9/9/9
f 11/11/11 13/13/13 12/12/12
f 13/13/13 11/11/11 8/8/8
f 13/13/13 14/14/14 12/12/12
f 15/15/15 14/14/14 13/13/13
f 8/8/8 5/5/5 16/16/16
f 16/16/16 13/13/13 8/8/8
f 5/5/5 17/17/17 16/16/16
f 16/16/16 17/17/17 18/18/18
f 19/19/19 15/15/15 13/13/13
f 19/19/19 13/13/13 16/16/16
f 20/20/20 16/16/16 18/18/18
f 20/20/20 19/19/19 16/16/16
f 20/20/20 18/18/18 21/21/21
f 15/15/15 19/19/19 22/22/22
f 23/23/23 15/15/15 22/22/22
f 19/19/19 20/20/20 24/24/24
f 24/24/24 20/20/20 21/21/21
f 22/22/22 19/19/19 24/24/24
f 22/22/22 25/25/25 23/23/23
f 25/25/25 22/22/22 24/24/24
f 25/25/25 26/26/26 23/23/23
f 27/27/27 26/26/26 25/25/25
f 24/24/24 21/21/21 28/28/28
f 28/28/28 25/25/25 24/24/24
f 21/21/21 29/29/29 28/28/28
f 28/28/28 29/29/29 30/30/30
f 31/31/31 27/27/27 25/25/25
f 31/31/31 25/25/25 28/28/28
f 32/32/32 28/28/28 30/30/30
f 32/32/32 31/31/31 28/28/28
f 32/32/32 30/30/30 33/33/33
f 27/27/27 31/31/31 34/34/34
f 35/35/35 27/27/27 34/34/34
f 31/31/31 32/32/32 36/36/36
f 36/36/36 32/32/32 33/33/33
f 34/34/34 31/31/31 36/36/36
f 34/34/34 37/37/37 35/35/35
f 37/37/37 34/34/34 36/36/36
f 37/37/37 38/38/38 35/35/35
f 36/36/36 33/33/33 39/39/39
f 39/39/39 37/37/37 36/36/36
f 33/33/33 40/40/40 39/39/39
f 41/41/41 38/38/38 37/37/37
f 42/42/42 38/38/38 41/41/41
f 43/43/43 37/37/37 39/39/39
f 43/43/43 41/41/41 37/37/37
f 39/39/39 40/40/40 44/44/44
f 44/44/44 40/40/40 45/45/45
f 46/46/46 43/43/43 39/39/39
f 46/46/46 39/39/39 44/44/44
f 47/47/47 44/44/44 45/45/45
f 45/45/45 48/48/48 47/47/47
f 43/43/43 46/46/46 49/49/49
f 46/46/46 44/44/44 50/50/50
f 49/49/49 46/46/46 50/50/50
f 41/41/41 43/43/43 51/51/51
f 51/51/51 43/43/43 49/49/49
f 44/44/44 47/47/47 52/52/52
f 50/50/50 44/44/44 52/52/52
f 53/53/53 42/42/42 41/41/41
f 54/54/54 41/41/41 51/51/51
f 53/53/53 41/41/41 54/54/54
f 55/55/55 51/51/51 49/49/49
f 51/51/51 55/55/55 54/54/54
f 56/56/56 55/55/55 49/49/49
f 49/49/49 50/50/50 56/56/56
f 50/50/50 57/57/57 56/56/56
f 55/55/55 58/58/58 54/54/54
f 59/59/59 57/57/57 50/50/50
f 52/52/52 59/59/59 50/50/50
f 54/54/54 58/58/58 60/60/60
f 52/52/52 61/61/61 59/59/59
f 61/61/61 62/62/62 59/59/59
f 52/52/52 47/47/47 61/61/61
f 63/63/63 54/54/54 60/60/60
f 63/63/63 53/53/53 54/54/54
f 60/60/60 64/64/64 63/63/63
f 61/61/61 65/65/65 62/62/62
f 65/65/65 66/66/66 62/62/62
f 47/47/47 67/67/67 61/61/61
f 65/65/65 61/61/61 67/67/67
f 48/48/48 67/67/67 47/47/47
f 68/68/68 65/65/65 67/67/67
f 67/67/67 48/48/48 68/68/68
f 48/48/48 69/69/69 68/68/68
f 70/70/70 53/53/53 63/63/63
f 53/53/53 70/70/70 42/42/42
f 70/70/70 71/71/71 42/42/42
f 64/64/64 72/72/72 63/63/63
f 72/72/72 70/70/70 63/63/63
f 70/70/70 73/73/73 71/71/71
f 70/70/70 72/72/72 73/73/73
f 73/73/73 74/74/74 71/71/71
f 72/72/72 75/75/75 73/73/73
f 72/72/72 64/64/64 75/75/75
f 64/64/64 76/76/76 75/75/75
