g donut_col
v 0.092087194 0.12674707 0.11101496
v 0.22618075 0.073490545 0.16670004
v 0.1490002 0.048413046 0.11101498
v 0.13978739 0.19240078 0.16670004
v -4.5056261E-10 0.15429327 0.11021732
v 0.3351321 0.10889097 0.16669999
v -1.1451506E-09 0.23782048 0.16670002
v -0.09208718 0.12674706 0.11101496
v 0.20712303 0.28508037 0.1667
v 0.4229762 0.13743323 0.10280178
v -0.13978736 0.19240077 0.16669998
v -0.14900017 0.048413016 0.11101501
v -1.9790605E-09 0.35237867 0.16669993
v 0.2614137 0.35980493 0.10280179
v 0.45634463 0.14827526 -5.840169E-08
v -0.22618066 0.07349049 0.16670004
v -0.14900018 -0.048413165 0.11101501
v -0.207123 0.2850803 0.1667
v -3.8417056E-09 0.44474328 0.10280176
v 0.28203648 0.38818988 -8.1050935E-08
v 0.4229763 0.13743317 -0.10280193
v -0.22618067 -0.07349058 0.16670007
v -0.092087165 -0.12674715 0.11101505
v -0.33513197 0.10889091 0.16670002
v -0.2614136 0.35980487 0.102801785
v -5.005859E-09 0.479829 -1.0337034E-07
v 0.2614137 0.359805 -0.10280194
v 0.3351321 0.1088909 -0.1667002
v -0.13978733 -0.19240077 0.16670004
v -5.4720695E-09 -0.15429336 0.11021733
v -0.33513197 -0.10889102 0.16670007
v -0.42297608 0.13743317 0.10280177
v -0.28203642 0.38818973 -8.940697E-08
v -4.8894435E-09 0.44474334 -0.10280196
v 0.20712303 0.28508022 -0.16670027
v 0.22618075 0.07349047 -0.16670018
v -9.027142E-09 -0.23782042 0.16670007
v 0.09208715 -0.12674715 0.111015014
v -0.20712294 -0.28508028 0.1667001
v -0.42297608 -0.1374333 0.10280184
v -0.45634452 0.14827524 -6.543834E-08
v -0.2614136 0.35980487 -0.10280195
v -1.7652325E-09 0.3523786 -0.16670021
v 0.13978736 0.19240065 -0.16670024
v 0.14900015 0.048412994 -0.11101512
v 0.092087165 0.12674695 -0.11101513
v 6.9849193E-10 0.23782028 -0.16670027
v 1.1016427E-09 0.15429313 -0.11021745
v -0.20712301 0.28508025 -0.16670027
v -0.13978736 0.19240065 -0.16670024
v -0.092087135 0.12674694 -0.11101514
v -0.42297608 0.13743313 -0.10280193
v -0.33513197 0.10889084 -0.16670018
v -0.22618063 0.0734904 -0.16670018
v -0.1490001 0.048412926 -0.11101512
v -0.45634452 -0.1482754 8.601795E-10
v -0.42297608 -0.13743336 -0.10280187
v -0.33513197 -0.1088911 -0.16670012
v -0.22618063 -0.073490664 -0.16670015
v -0.1490001 -0.048413165 -0.11101512
v -0.26141357 -0.359805 0.102801934
v -0.28203642 -0.38818988 8.4090665E-08
v -0.26141357 -0.35980502 -0.102801785
v -0.20712294 -0.28508043 -0.16670005
v -0.13978733 -0.19240086 -0.1667001
v -0.09208712 -0.12674715 -0.11101505
v -9.125229E-09 -0.35237864 0.1667001
v -1.0030359E-08 -0.4447433 0.10280185
v -1.2583968E-08 -0.479829 1.0794934E-07
v -1.2358665E-08 -0.4447434 -0.10280177
v -9.493477E-09 -0.35237873 -0.16670005
v -8.231237E-09 -0.23782046 -0.16670008
v -7.860773E-09 -0.15429333 -0.110217385
v 0.1397873 -0.19240077 0.1667001
v 0.14900011 -0.04841313 0.11101501
v 0.2071229 -0.28508028 0.1667001
v 0.22618063 -0.07349058 0.16670007
v 0.1490002 0.048413046 0.11101498
v 0.22618075 0.073490545 0.16670004
v 0.33513194 -0.108891025 0.16670007
v 0.3351321 0.10889097 0.16669999
v 0.2614135 -0.35980493 0.10280194
v 0.42297596 -0.13743328 0.10280187
v 0.4229762 0.13743323 0.10280178
v 0.28203636 -0.38818988 8.8818425E-08
v 0.45634443 -0.14827539 6.9073094E-09
v 0.45634463 0.14827526 -5.840169E-08
v 0.26141357 -0.35980502 -0.10280178
v 0.422976 -0.13743338 -0.10280188
v 0.4229763 0.13743317 -0.10280193
v 0.2071229 -0.28508037 -0.16670005
v 0.33513194 -0.10889111 -0.16670014
v 0.3351321 0.1088909 -0.1667002
v 0.13978727 -0.19240086 -0.1667001
v 0.092087105 -0.12674715 -0.11101508
v 0.22618063 -0.073490664 -0.16670015
v 0.22618075 0.07349047 -0.16670018
v 0.14900005 -0.04841316 -0.11101512
v 0.14900015 0.048412994 -0.11101512
v 0.14900011 -0.04841313 0.11101501
v -0.14900017 0.048413016 0.11101501
v 0.1490002 0.048413046 0.11101498
v -0.14900018 -0.048413165 0.11101501
v 0.09208715 -0.12674715 0.111015014
v -0.092087165 -0.12674715 0.11101505
v -5.4720695E-09 -0.15429336 0.11021733
v 0.1490002 0.048413046 0.11101498
v -0.09208718 0.12674706 0.11101496
v 0.092087194 0.12674707 0.11101496
v -4.5056261E-10 0.15429327 0.11021732
v 0.092087165 0.12674695 -0.11101513
v -0.1490001 0.048412926 -0.11101512
v 0.14900015 0.048412994 -0.11101512
v -0.092087135 0.12674694 -0.11101514
v 1.1016427E-09 0.15429313 -0.11021745
v 0.14900015 0.048412994 -0.11101512
v -0.1490001 -0.048413165 -0.11101512
v 0.14900005 -0.04841316 -0.11101512
v -0.09208712 -0.12674715 -0.11101505
v 0.092087105 -0.12674715 -0.11101508
v -7.860773E-09 -0.15429333 -0.110217385
vt 0.12736842 0.87263155
vt 0.034210533 0.77947366
vt 0.034210533 0.87263155
vt 0.12736842 0.77947366
vt 0.22052631 0.87263155
vt 0.034210533 0.6863157
vt 0.22052631 0.77947366
vt 0.31368423 0.87263155
vt 0.12736842 0.6863157
vt 0.034210533 0.59315777
vt 0.31368423 0.77947366
vt 0.40684214 0.87263155
vt 0.22052631 0.6863157
vt 0.12736842 0.59315777
vt 0.034210533 0.49999988
vt 0.40684214 0.77947366
vt 0.50000006 0.87263155
vt 0.31368423 0.6863157
vt 0.22052631 0.59315777
vt 0.12736842 0.49999988
vt 0.034210533 0.40684196
vt 0.50000006 0.77947366
vt 0.593158 0.87263155
vt 0.40684214 0.6863157
vt 0.31368423 0.59315777
vt 0.22052631 0.49999988
vt 0.12736842 0.40684196
vt 0.034210533 0.31368405
vt 0.593158 0.77947366
vt 0.6863159 0.87263155
vt 0.50000006 0.6863157
vt 0.40684214 0.59315777
vt 0.31368423 0.49999988
vt 0.22052631 0.40684196
vt 0.12736842 0.31368405
vt 0.034210533 0.22052616
vt 0.6863159 0.77947366
vt 0.7794738 0.87263155
vt 0.593158 0.6863157
vt 0.50000006 0.59315777
vt 0.40684214 0.49999988
vt 0.31368423 0.40684196
vt 0.22052631 0.31368405
vt 0.12736842 0.22052616
vt 0.034210533 0.12736827
vt 0.12736842 0.12736827
vt 0.22052631 0.22052616
vt 0.22052631 0.12736827
vt 0.31368423 0.31368405
vt 0.31368423 0.22052616
vt 0.31368423 0.12736827
vt 0.40684214 0.40684196
vt 0.40684214 0.31368405
vt 0.40684214 0.22052616
vt 0.40684214 0.12736827
vt 0.50000006 0.49999988
vt 0.50000006 0.40684196
vt 0.50000006 0.31368405
vt 0.50000006 0.22052616
vt 0.50000006 0.12736827
vt 0.593158 0.59315777
vt 0.593158 0.49999988
vt 0.593158 0.40684196
vt 0.593158 0.31368405
vt 0.593158 0.22052616
vt 0.593158 0.12736827
vt 0.6863159 0.6863157
vt 0.6863159 0.59315777
vt 0.6863159 0.49999988
vt 0.6863159 0.40684196
vt 0.6863159 0.31368405
vt 0.6863159 0.22052616
vt 0.6863159 0.12736827
vt 0.7794738 0.77947366
vt 0.8726317 0.87263155
vt 0.7794738 0.6863157
vt 0.8726317 0.77947366
vt 0.96578956 0.87263155
vt 0.96578956 0.77947366
vt 0.8726317 0.6863157
vt 0.96578956 0.6863157
vt 0.7794738 0.59315777
vt 0.8726317 0.59315777
vt 0.96578956 0.59315777
vt 0.7794738 0.49999988
vt 0.8726317 0.49999988
vt 0.96578956 0.49999988
vt 0.7794738 0.40684196
vt 0.8726317 0.40684196
vt 0.96578956 0.40684196
vt 0.7794738 0.31368405
vt 0.8726317 0.31368405
vt 0.96578956 0.31368405
vt 0.7794738 0.22052616
vt 0.7794738 0.12736827
vt 0.8726317 0.22052616
vt 0.96578956 0.22052616
vt 0.8726317 0.12736827
vt 0.96578956 0.12736827
vt 0.8726317 0.87263155
vt 0.40684214 0.87263155
vt 0.96578956 0.87263155
vt 0.50000006 0.87263155
vt 0.7794738 0.87263155
vt 0.593158 0.87263155
vt 0.6863159 0.87263155
vt 0.034210533 0.87263155
vt 0.31368423 0.87263155
vt 0.12736842 0.87263155
vt 0.22052631 0.87263155
vt 0.12736842 0.12736827
vt 0.40684214 0.12736827
vt 0.034210533 0.12736827
vt 0.31368423 0.12736827
vt 0.22052631 0.12736827
vt 0.96578956 0.12736827
vt 0.50000006 0.12736827
vt 0.8726317 0.12736827
vt 0.593158 0.12736827
vt 0.7794738 0.12736827
vt 0.6863159 0.12736827
vn -0.32918426 -0.458037 0.825736
vn -0.1595743 -0.051848643 0.9858234
vn -0.5380971 -0.17483799 0.82455033
vn -0.09819771 -0.13602363 0.9858269
vn -0 -0.5635262 0.82609826
vn 0.3713006 0.120642856 0.9206418
vn -0 -0.16812815 0.98576516
vn 0.3291843 -0.45803666 0.82573617
vn 0.22947629 0.31584725 0.9206418
vn 0.79059976 0.2568812 0.5558454
vn 0.09819774 -0.13602366 0.9858269
vn 0.5380972 -0.17483808 0.8245502
vn -0 0.39040875 0.92064166
vn 0.48861745 0.6725242 0.5558454
vn 0.95105666 0.30901662 0
vn 0.15957451 -0.051848717 0.9858233
vn 0.5380971 0.17483845 0.8245502
vn -0.22947645 0.31584728 0.92064166
vn -0 0.8312858 0.5558453
vn 0.5877851 0.80901706 0
vn 0.79059994 0.25688097 -0.5558452
vn 0.15957452 0.05184903 0.9858233
vn 0.32918426 0.4580372 0.8257358
vn -0.37130064 0.12064296 0.92064166
vn -0.48861754 0.6725244 0.5558452
vn -0 1 0
vn 0.48861748 0.6725242 -0.5558454
vn 0.37130082 0.1206426 -0.92064166
vn 0.0981979 0.13602413 0.9858269
vn -0 0.56352675 0.8260977
vn -0.37130058 -0.12064266 0.9206418
vn -0.79059964 0.2568815 0.55584526
vn -0.5877853 0.809017 0
vn -0 0.8312857 -0.55584544
vn 0.22947642 0.31584713 -0.92064166
vn -0.15957445 -0.051849138 -0.9858233
vn -0 0.16812877 0.98576504
vn -0.3291845 0.45803735 0.8257356
vn -0.22947621 -0.31584683 0.9206419
vn -0.7905996 -0.25688133 0.55584556
vn -0.9510565 0.3090171 0
vn -0.48861766 0.6725243 -0.5558452
vn -0 0.3904088 -0.9206416
vn -0.0981978 -0.13602418 -0.9858269
vn -0.53809685 -0.1748383 -0.82455033
vn -0.32918414 -0.45803759 -0.8257356
vn -0 -0.1681286 -0.98576516
vn -0 -0.563527 -0.82609767
vn -0.22947668 0.31584722 -0.9206416
vn 0.098197766 -0.13602404 -0.9858269
vn 0.32918426 -0.45803732 -0.82573575
vn -0.7905998 0.25688133 -0.55584526
vn -0.3713009 0.12064269 -0.9206416
vn 0.15957442 -0.051849212 -0.9858233
vn 0.538097 -0.17483848 -0.82455033
vn -0.95105654 -0.30901706 0
vn -0.79059976 -0.25688156 -0.55584526
vn -0.37130067 -0.12064319 -0.92064166
vn 0.15957442 0.05184855 -0.9858234
vn 0.53809696 0.17483808 -0.82455033
vn -0.48861736 -0.67252415 0.55584574
vn -0.5877852 -0.80901706 0
vn -0.48861754 -0.6725245 -0.5558451
vn -0.22947648 -0.31584758 -0.9206416
vn 0.09819775 0.13602348 -0.985827
vn 0.3291843 0.45803684 -0.82573605
vn -0 -0.3904084 0.9206418
vn -0 -0.83128554 0.55584556
vn -0 -1 0
vn -0 -0.83128595 -0.55584496
vn -0 -0.390409 -0.9206415
vn -0 0.16812824 -0.98576516
vn -0 0.5635264 -0.826098
vn -0.09819789 0.13602409 0.9858269
vn -0.53809714 0.17483883 0.82455015
vn 0.22947627 -0.31584695 0.9206418
vn -0.15957454 0.051849198 0.9858233
vn -0.5380971 -0.17483799 0.82455033
vn -0.1595743 -0.051848643 0.9858234
vn 0.3713005 -0.12064276 0.9206418
vn 0.3713006 0.120642856 0.9206418
vn 0.4886174 -0.67252415 0.5558457
vn 0.7905995 -0.25688154 0.5558455
vn 0.79059976 0.2568812 0.5558454
vn 0.58778524 -0.809017 0
vn 0.9510565 -0.3090174 0
vn 0.95105666 0.30901662 0
vn 0.48861757 -0.6725245 -0.55584496
vn 0.79059964 -0.25688192 -0.55584514
vn 0.79059994 0.25688097 -0.5558452
vn 0.22947651 -0.3158476 -0.9206416
vn 0.37130064 -0.12064333 -0.92064166
vn 0.37130082 0.1206426 -0.92064166
vn -0.09819777 0.13602349 -0.985827
vn -0.32918435 0.4580367 -0.82573617
vn -0.1595746 0.051848628 -0.9858233
vn -0.15957445 -0.051849138 -0.9858233
vn -0.5380969 0.17483835 -0.82455033
vn -0.53809685 -0.1748383 -0.82455033
vn -0 0 1
vn -0 0 1
vn -0 0 1
vn -0 0 1
vn -0 0 1
vn -0 0 1
vn -0 -0.028946497 0.9995809
vn -0 0 1
vn -0 0 1
vn -0 0 1
vn -0 0.028944489 0.99958104
vn -0 0 -1
vn -0 0 -1
vn -0 0 -1
vn -0 0 -1
vn -0 0.028945986 -0.99958104
vn -0 0 -1
vn -0 0 -1
vn -0 0 -1
vn -0 0 -1
vn -0 0 -1
vn -0 -0.028945832 -0.99958104
g donut_col_0
f 3/3/3 2/2/2 1/1/1
f 2/2/2 4/4/4 1/1/1
f 1/1/1 4/4/4 5/5/5
f 2/2/2 6/6/6 4/4/4
f 4/4/4 7/7/7 5/5/5
f 5/5/5 7/7/7 8/8/8
f 6/6/6 9/9/9 4/4/4
f 4/4/4 9/9/9 7/7/7
f 6/6/6 10/10/10 9/9/9
f 7/7/7 11/11/11 8/8/8
f 8/8/8 11/11/11 12/12/12
f 9/9/9 13/13/13 7/7/7
f 7/7/7 13/13/13 11/11/11
f 10/10/10 14/14/14 9/9/9
f 9/9/9 14/14/14 13/13/13
f 10/10/10 15/15/15 14/14/14
f 11/11/11 16/16/16 12/12/12
f 12/12/12 16/16/16 17/17/17
f 13/13/13 18/18/18 11/11/11
f 11/11/11 18/18/18 16/16/16
f 14/14/14 19/19/19 13/13/13
f 13/13/13 19/19/19 18/18/18
f 15/15/15 20/20/20 14/14/14
f 14/14/14 20/20/20 19/19/19
f 15/15/15 21/21/21 20/20/20
f 16/16/16 22/22/22 17/17/17
f 17/17/17 22/22/22 23/23/23
f 18/18/18 24/24/24 16/16/16
f 16/16/16 24/24/24 22/22/22
f 19/19/19 25/25/25 18/18/18
f 18/18/18 25/25/25 24/24/24
f 20/20/20 26/26/26 19/19/19
f 19/19/19 26/26/26 25/25/25
f 21/21/21 27/27/27 20/20/20
f 20/20/20 27/27/27 26/26/26
f 21/21/21 28/28/28 27/27/27
f 22/22/22 29/29/29 23/23/23
f 23/23/23 29/29/29 30/30/30
f 24/24/24 31/31/31 22/22/22
f 22/22/22 31/31/31 29/29/29
f 25/25/25 32/32/32 24/24/24
f 24/24/24 32/32/32 31/31/31
f 26/26/26 33/33/33 25/25/25
f 25/25/25 33/33/33 32/32/32
f 27/27/27 34/34/34 26/26/26
f 26/26/26 34/34/34 33/33/33
f 28/28/28 35/35/35 27/27/27
f 27/27/27 35/35/35 34/34/34
f 28/28/28 36/36/36 35/35/35
f 29/29/29 37/37/37 30/30/30
f 30/30/30 37/37/37 38/38/38
f 31/31/31 39/39/39 29/29/29
f 29/29/29 39/39/39 37/37/37
f 32/32/32 40/40/40 31/31/31
f 31/31/31 40/40/40 39/39/39
f 33/33/33 41/41/41 32/32/32
f 32/32/32 41/41/41 40/40/40
f 34/34/34 42/42/42 33/33/33
f 33/33/33 42/42/42 41/41/41
f 35/35/35 43/43/43 34/34/34
f 34/34/34 43/43/43 42/42/42
f 36/36/36 44/44/44 35/35/35
f 35/35/35 44/44/44 43/43/43
f 36/36/36 45/45/45 44/44/44
f 45/45/45 46/46/46 44/44/44
f 44/44/44 46/46/46 47/47/47
f 44/44/44 47/47/47 43/43/43
f 46/46/46 48/48/48 47/47/47
f 43/43/43 49/49/49 42/42/42
f 43/43/43 47/47/47 49/49/49
f 47/47/47 48/48/48 50/50/50
f 47/47/47 50/50/50 49/49/49
f 48/48/48 51/51/51 50/50/50
f 42/42/42 52/52/52 41/41/41
f 42/42/42 49/49/49 52/52/52
f 49/49/49 50/50/50 53/53/53
f 49/49/49 53/53/53 52/52/52
f 50/50/50 51/51/51 54/54/54
f 50/50/50 54/54/54 53/53/53
f 51/51/51 55/55/55 54/54/54
f 41/41/41 52/52/52 56/56/56
f 41/41/41 56/56/56 40/40/40
f 52/52/52 53/53/53 57/57/57
f 52/52/52 57/57/57 56/56/56
f 53/53/53 54/54/54 58/58/58
f 53/53/53 58/58/58 57/57/57
f 54/54/54 55/55/55 59/59/59
f 54/54/54 59/59/59 58/58/58
f 55/55/55 60/60/60 59/59/59
f 40/40/40 56/56/56 61/61/61
f 40/40/40 61/61/61 39/39/39
f 56/56/56 57/57/57 62/62/62
f 56/56/56 62/62/62 61/61/61
f 57/57/57 58/58/58 63/63/63
f 57/57/57 63/63/63 62/62/62
f 58/58/58 59/59/59 64/64/64
f 58/58/58 64/64/64 63/63/63
f 59/59/59 60/60/60 65/65/65
f 59/59/59 65/65/65 64/64/64
f 60/60/60 66/66/66 65/65/65
f 39/39/39 61/61/61 67/67/67
f 39/39/39 67/67/67 37/37/37
f 61/61/61 62/62/62 68/68/68
f 61/61/61 68/68/68 67/67/67
f 62/62/62 63/63/63 69/69/69
f 62/62/62 69/69/69 68/68/68
f 63/63/63 64/64/64 70/70/70
f 63/63/63 70/70/70 69/69/69
f 64/64/64 65/65/65 71/71/71
f 64/64/64 71/71/71 70/70/70
f 65/65/65 66/66/66 72/72/72
f 65/65/65 72/72/72 71/71/71
f 66/66/66 73/73/73 72/72/72
f 37/37/37 67/67/67 74/74/74
f 37/37/37 74/74/74 38/38/38
f 38/38/38 74/74/74 75/75/75
f 67/67/67 68/68/68 76/76/76
f 67/67/67 76/76/76 74/74/74
f 74/74/74 77/77/77 75/75/75
f 74/74/74 76/76/76 77/77/77
f 75/75/75 77/77/77 78/78/78
f 77/77/77 79/79/79 78/78/78
f 77/77/77 80/80/80 79/79/79
f 76/76/76 80/80/80 77/77/77
f 80/80/80 81/81/81 79/79/79
f 68/68/68 82/82/82 76/76/76
f 76/76/76 82/82/82 80/80/80
f 68/68/68 69/69/69 82/82/82
f 80/80/80 83/83/83 81/81/81
f 82/82/82 83/83/83 80/80/80
f 83/83/83 84/84/84 81/81/81
f 69/69/69 85/85/85 82/82/82
f 82/82/82 85/85/85 83/83/83
f 69/69/69 70/70/70 85/85/85
f 83/83/83 86/86/86 84/84/84
f 85/85/85 86/86/86 83/83/83
f 86/86/86 87/87/87 84/84/84
f 70/70/70 88/88/88 85/85/85
f 85/85/85 88/88/88 86/86/86
f 70/70/70 71/71/71 88/88/88
f 86/86/86 89/89/89 87/87/87
f 88/88/88 89/89/89 86/86/86
f 89/89/89 90/90/90 87/87/87
f 71/71/71 91/91/91 88/88/88
f 88/88/88 91/91/91 89/89/89
f 71/71/71 72/72/72 91/91/91
f 89/89/89 92/92/92 90/90/90
f 91/91/91 92/92/92 89/89/89
f 92/92/92 93/93/93 90/90/90
f 72/72/72 94/94/94 91/91/91
f 91/91/91 94/94/94 92/92/92
f 72/72/72 73/73/73 94/94/94
f 73/73/73 95/95/95 94/94/94
f 92/92/92 96/96/96 93/93/93
f 94/94/94 96/96/96 92/92/92
f 94/94/94 95/95/95 96/96/96
f 96/96/96 97/97/97 93/93/93
f 95/95/95 98/98/98 96/96/96
f 96/96/96 98/98/98 97/97/97
f 98/98/98 99/99/99 97/97/97
f 102/102/102 101/101/101 100/100/100
f 101/101/101 103/103/103 100/100/100
f 100/100/100 103/103/103 104/104/104
f 103/103/103 105/105/105 104/104/104
f 104/104/104 105/105/105 106/106/106
f 108/108/108 101/101/101 107/107/107
f 109/109/109 108/108/108 107/107/107
f 108/108/108 109/109/109 110/110/110
f 113/113/113 112/112/112 111/111/111
f 112/112/112 114/114/114 111/111/111
f 111/111/111 114/114/114 115/115/115
f 117/117/117 112/112/112 116/116/116
f 118/118/118 117/117/117 116/116/116
f 119/119/119 117/117/117 118/118/118
f 120/120/120 119/119/119 118/118/118
f 119/119/119 120/120/120 121/121/121
