g forklift_col
v -0.29563332 -0.4948249 0.2146276
v -0.19000755 -0.40376198 0.2903844
v -0.19000757 -0.4948249 0.2146276
v 0.18220739 -0.40376198 0.2903844
v 0.2891373 -0.4948249 0.2146276
v 0.18220732 -0.4948249 0.2146276
v -0.19000755 -0.40376198 0.2903844
v -0.20826504 -0.40162623 0.49523246
v 0.20819512 -0.40162623 0.49523246
v 0.18220739 -0.40376198 0.2903844
v -0.225394 0.36222038 -0.043698046
v -0.25024855 0.36219865 0.13062634
v -0.25024855 0.36222175 -0.39908987
v -0.225394 0.36220002 0.0681522
v 0.22532408 0.36220002 0.0681522
v 0.25017864 0.36219865 0.13062634
v 0.25017864 0.36222175 -0.39908987
v 0.22532408 0.3622204 -0.043698046
v -0.25024855 0.36222175 -0.39908987
v 0.25017864 0.36219865 0.13062634
v 0.22532408 0.3622204 -0.043698046
v 0.25017864 0.36222175 -0.39908987
v 0.28913754 -0.42344746 -0.010863518
v 0.2891373 -0.4973052 0.03553304
v 0.2891373 -0.4948249 0.2146276
v 0.2891373 -0.23566395 0.34896693
v 0.2891373 -0.28660628 -0.49597684
v 0.28913754 -0.42184448 -0.20168652
v 0.2891373 -0.50072503 -0.2690146
v 0.2891373 -0.5025441 -0.4310128
v 0.26641303 -0.053032666 -0.49555472
v 0.26641303 -0.27091733 -0.49509075
v 0.26641303 -0.22339678 0.33120814
v 0.26641303 -0.0634803 0.33466634
v 0.2891373 -0.23566395 0.34896693
v 0.20819512 -0.31736395 0.33561453
v -0.20826504 -0.31736395 0.33561453
v -0.2956332 -0.23566395 0.34896693
v 0.20819512 -0.31736395 0.33561453
v 0.20819512 -0.32886264 0.4978697
v -0.20826504 -0.32886264 0.4978697
v -0.20826504 -0.31736395 0.33561453
v 0.18220739 -0.40376198 0.2903844
v 0.20819512 -0.31736395 0.33561453
v 0.2891373 -0.23566395 0.34896693
v 0.2891373 -0.4948249 0.2146276
v 0.20819512 -0.32886264 0.4978697
v 0.20819512 -0.40162623 0.49523246
v -0.20826504 -0.40162623 0.49523246
v -0.20826504 -0.32886264 0.4978697
v 0.24201287 -0.0061393864 -0.43686885
v 0.26641303 -0.053032666 -0.49555472
v 0.26641303 -0.0634803 0.33466634
v 0.24201287 -0.0061391667 0.25083774
v 0.26641303 -0.0634803 0.33466634
v -0.27247727 -0.22339678 0.33120814
v -0.26694912 -0.0634803 0.33466634
v 0.26641303 -0.22339678 0.33120814
v -0.2956332 -0.23566395 0.34896693
v 0.2891373 -0.23566395 0.34896693
v -0.225394 0.36222038 -0.043698046
v -0.225394 0.46887583 0.0681522
v -0.225394 0.36220002 0.0681522
v -0.225394 0.4688962 -0.043698046
v -0.17687084 0.5028559 0.0681522
v -0.17687084 0.5028763 -0.043698046
v 0.18220739 -0.40376198 0.2903844
v 0.20819512 -0.40162623 0.49523246
v 0.20819512 -0.32886264 0.4978697
v 0.20819512 -0.31736395 0.33561453
v 0.24201287 -0.0061391667 0.25083774
v 0.26641303 -0.0634803 0.33466634
v -0.26694912 -0.0634803 0.33466634
v -0.2420828 -0.0061391667 0.25083774
v 0.2503994 0.2569898 -0.4041551
v 0.24201287 -0.0061393864 -0.43686885
v 0.24201287 -0.0061391667 0.25083774
v 0.2503994 0.2569734 0.14435004
v 0.25017864 0.36219865 0.13062634
v 0.2503994 0.2569898 -0.4041551
v 0.25017864 0.36222175 -0.39908987
v 0.2503994 0.2569734 0.14435004
v 0.24201287 -0.0061391667 0.25083774
v -0.2420828 -0.0061391667 0.25083774
v -0.2504693 0.2569734 0.14435004
v 0.25017864 0.36219865 0.13062634
v -0.25024855 0.36219865 0.13062634
v 0.22532408 0.3622204 -0.043698046
v -0.225394 0.4688962 -0.043698046
v -0.225394 0.36222038 -0.043698046
v 0.22532408 0.4688962 -0.043698046
v -0.17687084 0.5028763 -0.043698046
v 0.17680092 0.5028763 -0.043698046
v -0.225394 0.36220002 0.0681522
v 0.22532408 0.46887583 0.0681522
v 0.22532408 0.36220002 0.0681522
v -0.225394 0.46887583 0.0681522
v 0.17680092 0.5028559 0.0681522
v -0.17687084 0.5028559 0.0681522
v 0.17680092 0.5028559 0.0681522
v -0.17687084 0.5028559 0.0681522
v -0.17687084 0.5028763 -0.043698046
v 0.17680092 0.5028763 -0.043698046
v 0.22532408 0.36220002 0.0681522
v 0.22532408 0.4688962 -0.043698046
v 0.22532408 0.3622204 -0.043698046
v 0.22532408 0.46887583 0.0681522
v 0.17680092 0.5028763 -0.043698046
v 0.17680092 0.5028559 0.0681522
v -0.25024855 0.36222175 -0.39908987
v -0.25024855 0.36219865 0.13062634
v -0.2504693 0.2569734 0.14435004
v -0.2504693 0.2569898 -0.4041551
v -0.2420828 -0.0061393864 -0.43686885
v -0.2420828 -0.0061391667 0.25083774
v 0.2503994 0.2569898 -0.4041551
v 0.25017864 0.36222175 -0.39908987
v -0.25024855 0.36222175 -0.39908987
v -0.2504693 0.2569898 -0.4041551
v 0.24201287 -0.0061393864 -0.43686885
v -0.2420828 -0.0061393864 -0.43686885
v 0.2891373 -0.4948249 0.2146276
v 0.2891373 -0.4973052 0.03553304
v 0.18220732 -0.4973052 0.03553304
v 0.18220732 -0.4948249 0.2146276
v -0.19000755 -0.40376198 0.2903844
v -0.29563332 -0.4948249 0.2146276
v -0.2956332 -0.23566395 0.34896693
v -0.20826504 -0.31736395 0.33561453
v 0.18220724 -0.43239376 -0.009469069
v 0.18220739 -0.40376198 0.2903844
v 0.18220732 -0.4948249 0.2146276
v 0.18220732 -0.4973052 0.03553304
v -0.20826504 -0.31736395 0.33561453
v -0.20826504 -0.32886264 0.4978697
v -0.20826504 -0.40162623 0.49523246
v -0.19000755 -0.40376198 0.2903844
v -0.29563332 -0.4948249 0.2146276
v -0.29563332 -0.4973052 0.03553304
v -0.29563326 -0.42344746 -0.010863518
v -0.2956332 -0.23566395 0.34896693
v 0.18220739 -0.40376198 0.2903844
v 0.18220724 -0.43239376 -0.009469069
v -0.19000748 -0.43239376 -0.009469069
v -0.19000755 -0.40376198 0.2903844
v -0.2420828 -0.0061391667 0.25083774
v -0.26694912 -0.0634803 0.33466634
v -0.26694912 -0.053032666 -0.49555472
v -0.2420828 -0.0061393864 -0.43686885
v -0.29563326 -0.42344746 -0.010863518
v -0.2956332 -0.28660628 -0.49597684
v -0.2956332 -0.23566395 0.34896693
v -0.29563326 -0.42184448 -0.20168652
v -0.29563332 -0.5025441 -0.4310128
v -0.29563332 -0.50072503 -0.2690146
v 0.26641303 -0.053032666 -0.49555472
v 0.24201287 -0.0061393864 -0.43686885
v -0.2420828 -0.0061393864 -0.43686885
v -0.26694912 -0.053032666 -0.49555472
v -0.19000755 -0.40376198 0.2903844
v -0.19000748 -0.43239376 -0.009469069
v -0.19000757 -0.4973052 0.03553304
v -0.19000757 -0.4948249 0.2146276
v -0.26694912 -0.0634803 0.33466634
v -0.27247727 -0.2709174 -0.49509075
v -0.26694912 -0.053032666 -0.49555472
v -0.27247727 -0.22339678 0.33120814
v -0.2956332 -0.28660628 -0.49597684
v -0.2956332 -0.23566395 0.34896693
v 0.28913754 -0.42184448 -0.20168652
v 0.18220724 -0.43239376 -0.009469069
v 0.28913754 -0.42344746 -0.010863518
v 0.18220726 -0.42486578 -0.20426533
v -0.19000748 -0.43239376 -0.009469069
v -0.19000752 -0.42486578 -0.20426533
v -0.19000757 -0.4948249 0.2146276
v -0.19000757 -0.4973052 0.03553304
v -0.29563332 -0.4973052 0.03553304
v -0.29563332 -0.4948249 0.2146276
v 0.18220732 -0.5025441 -0.4310128
v 0.18220732 -0.50072503 -0.2690146
v 0.2891373 -0.50072503 -0.2690146
v 0.2891373 -0.5025441 -0.4310128
v 0.18220724 -0.39538226 -0.49225736
v 0.18220726 -0.42486578 -0.20426533
v 0.18220732 -0.50072503 -0.2690146
v 0.18220732 -0.5025441 -0.4310128
v 0.26641303 -0.27091733 -0.49509075
v 0.26641303 -0.053032666 -0.49555472
v -0.26694912 -0.053032666 -0.49555472
v -0.27247727 -0.2709174 -0.49509075
v 0.2891373 -0.28660628 -0.49597684
v -0.2956332 -0.28660628 -0.49597684
v 0.18220726 -0.42486578 -0.20426533
v 0.18220724 -0.39538226 -0.49225736
v -0.19000754 -0.39538226 -0.49225736
v -0.19000752 -0.42486578 -0.20426533
v -0.19000752 -0.42486578 -0.20426533
v -0.19000754 -0.39538226 -0.49225736
v -0.19000757 -0.5025441 -0.4310128
v -0.19000757 -0.50072503 -0.2690146
v -0.29563332 -0.5025441 -0.4310128
v -0.29563332 -0.50072503 -0.2690146
v -0.19000757 -0.50072503 -0.2690146
v -0.19000757 -0.5025441 -0.4310128
v 0.28913754 -0.42344746 -0.010863518
v 0.18220724 -0.43239376 -0.009469069
v 0.18220732 -0.4973052 0.03553304
v 0.2891373 -0.4973052 0.03553304
v 0.2891373 -0.50072503 -0.2690146
v 0.18220732 -0.50072503 -0.2690146
v 0.18220726 -0.42486578 -0.20426533
v 0.28913754 -0.42184448 -0.20168652
v 0.2891373 -0.5025441 -0.4310128
v 0.2891373 -0.28660628 -0.49597684
v 0.18220724 -0.39538226 -0.49225736
v 0.18220732 -0.5025441 -0.4310128
v -0.19000752 -0.42486578 -0.20426533
v -0.29563326 -0.42184448 -0.20168652
v -0.29563326 -0.42344746 -0.010863518
v -0.19000748 -0.43239376 -0.009469069
v -0.19000752 -0.42486578 -0.20426533
v -0.19000757 -0.50072503 -0.2690146
v -0.29563332 -0.50072503 -0.2690146
v -0.29563326 -0.42184448 -0.20168652
v -0.19000748 -0.43239376 -0.009469069
v -0.29563326 -0.42344746 -0.010863518
v -0.29563332 -0.4973052 0.03553304
v -0.19000757 -0.4973052 0.03553304
v -0.2956332 -0.28660628 -0.49597684
v -0.29563332 -0.5025441 -0.4310128
v -0.19000757 -0.5025441 -0.4310128
v -0.19000754 -0.39538226 -0.49225736
v 0.2891373 -0.28660628 -0.49597684
v 0.18220724 -0.39538226 -0.49225736
v 0.26641303 -0.27091733 -0.49509075
v 0.2891373 -0.28660628 -0.49597684
v 0.2891373 -0.23566395 0.34896693
v 0.26641303 -0.22339678 0.33120814
vt 1 1
vt 0.96579576 0.99048805
vt 0.8182864 0.9091432
vt 0.05007851 0.9533014
vt 0 0.5
vt 0.18862997 0.594315
vt 0.96579576 0.99048805
vt 1 1
vt 0 1
vt 0.05007851 0.9533014
vt 0.073235035 0.62530345
vt 0.2033607 0.6250014
vt 0.073235035 0.62530345
vt 0.2033607 0.6250014
vt 0.20363678 0.7471807
vt 0.20363678 0.7471807
vt 0.07352173 0.74750155
vt 0.07352173 0.7475015
vt 0.073235035 0.62530345
vt 0.20363678 0.7471807
vt 0.07352173 0.7475015
vt 0.07352173 0.74750155
vt 0 0
vt 0 0
vt 0 0.5
vt 0 0
vt 0.018358817 0.1866556
vt 0.00016312505 0.0016585059
vt 0 0
vt 0 0
vt 0.037708092 0.3833813
vt 0.019658493 0.1998695
vt 0 0
vt 0 0
vt 0 0.750294
vt 0 0.750294
vt 1 0.750294
vt 1 0.750294
vt 0 0.750294
vt 0 0.750294
vt 1 0.750294
vt 1 0.750294
vt 0.05007851 0.9533014
vt 0 0.750294
vt 0 0.750294
vt 0 0.5
vt 0 0.750294
vt 0 1
vt 1 1
vt 1 0.750294
vt 0.04870417 0.4951793
vt 0.037708092 0.3833813
vt 0 0
vt 0 0
vt 0 0.4871164
vt 1 0.73261666
vt 1 0.4871164
vt 0 0.73261666
vt 1 0.750294
vt 0 0.750294
vt 0.073235035 0.62530345
vt 0.2033607 0.6250014
vt 0.2033607 0.6250014
vt 0.073235035 0.62530345
vt 0.20336072 0.6250014
vt 0.073235035 0.62530345
vt 0.05007851 0.9533014
vt 0 1
vt 0 0.750294
vt 0 0.750294
vt 0 0.33755413
vt 0 0.4871164
vt 1 0.4871164
vt 1 0.33755413
vt 0.066431955 0.6754191
vt 0.04870417 0.4951793
vt 0 0
vt 0 0
vt 0 0
vt 0.066431955 0.6754191
vt 0.07352173 0.74750155
vt 0 0.096431114
vt 0 0.33755413
vt 1 0.33755413
vt 1 0.096431114
vt 0 0
vt 1 0
vt 0.07352173 0.7475015
vt 0.073235035 0.62530345
vt 0.073235035 0.62530345
vt 0.07352173 0.7475015
vt 0.073235035 0.62530345
vt 0.07352173 0.74750155
vt 0.2033607 0.6250014
vt 0.20363678 0.7471807
vt 0.20363678 0.7471807
vt 0.2033607 0.6250014
vt 0.20363678 0.7471807
vt 0.20336072 0.6250014
vt 0.20363678 0.7471807
vt 0.20336072 0.6250014
vt 0.073235035 0.62530345
vt 0.07352173 0.74750155
vt 0.20363678 0.7471807
vt 0.07352173 0.7475015
vt 0.07352173 0.7475015
vt 0.20363678 0.7471807
vt 0.07352173 0.74750155
vt 0.20363678 0.7471807
vt 1 1
vt 0.2033607 0.6250014
vt 0.28018153 0.6611629
vt 1 1
vt 1 1
vt 0.4722696 0.7515837
vt 0 0.90356886
vt 0 1
vt 1 1
vt 1 0.90356886
vt 0 0.6624459
vt 1 0.6624459
vt 0 0.5
vt 0 0
vt 0.18862997 0.18862997
vt 0.18862997 0.594315
vt 0.96579576 0.99048805
vt 1 1
vt 1 0.750294
vt 1 0.750294
vt 0.7510259 0.25
vt 0.684786 0.25
vt 0.6914463 0.2050452
vt 0.74120283 0.20337944
vt 1 0.750294
vt 1 0.750294
vt 1 1
vt 0.96579576 0.99048805
vt 1 1
vt 1 1
vt 0.9993033 0.999672
vt 0.8010743 0.9063606
vt 0.625 0.309786
vt 0.625 0.37602586
vt 0.375 0.37602586
vt 0.375 0.309786
vt 0.4722696 0.7515837
vt 0.5914168 0.80766934
vt 1 1
vt 1 1
vt 0.9993033 0.999672
vt 1 1
vt 0.8010743 0.9063606
vt 1 1
vt 1 0.5
vt 1 1
vt 0 0.51288366
vt 0 0.6624459
vt 1 0.6624459
vt 1 0.51288366
vt 0.31521398 0.25
vt 0.24897416 0.25
vt 0.25879717 0.20337944
vt 0.3085537 0.2050452
vt 0.5914168 0.80766934
vt 1 1
vt 1 1
vt 0.78699183 0.89973164
vt 1 1
vt 0.8010743 0.9063606
vt 0.00016312505 0.0016585059
vt 0.18842304 0.18849035
vt 0 0
vt 0.18821287 0.18938123
vt 0.81744003 0.81774163
vt 0.82207674 0.82233167
vt 0.8182864 0.9091432
vt 0.8182864 0.8182864
vt 1 1
vt 1 1
vt 0.18862997 0.094314985
vt 0.18862997 0.18862997
vt 0 0
vt 0 0
vt 0.8543391 0.25
vt 0.7958004 0.25
vt 0.80980486 0.20108272
vt 0.84629637 0.19986105
vt 0 0.26738343
vt 0 0.51288366
vt 1 0.51288366
vt 1 0.26738337
vt 0 0.249706
vt 1 0.249706
vt 0.625 0.4208004
vt 0.62499994 0.47933915
vt 0.375 0.47933915
vt 0.375 0.4208004
vt 0.20419963 0.25
vt 0.14566083 0.25
vt 0.15370372 0.19986105
vt 0.1901952 0.20108272
vt 1 0.5
vt 1 1
vt 0.8182864 0.8182864
vt 0.8182864 0.4091432
vt 0 0
vt 0.18842304 0.18849035
vt 0.18862997 0.18862997
vt 0 0
vt 0 0
vt 0.18862997 0.18862997
vt 0.18821287 0.18938123
vt 0.00016312505 0.0016585059
vt 0 0
vt 0 0.249706
vt 0.1901882 0.14558703
vt 0.18862997 0.094314985
vt 0.82207674 0.82233167
vt 1 1
vt 0.9993033 0.999672
vt 0.81744003 0.81774163
vt 0.82207674 0.82233167
vt 0.8182864 0.8182864
vt 1 1
vt 1 1
vt 0.8235117 0.82379776
vt 0.9993033 0.999672
vt 1 1
vt 0.8182864 0.8182864
vt 1 0.249706
vt 1 0.5
vt 0.8182864 0.4091432
vt 0.82442343 0.35739246
vt 0 0.249706
vt 0.1901882 0.14558703
vt 0.019658493 0.1998695
vt 0.018358817 0.1866556
vt 0 0
vt 0 0
vn -0 -0.63954157 0.76875645
vn -0 -0.6395416 0.76875645
vn -0 -0.6395416 0.76875645
vn -0 -0.63954145 0.76875657
vn -0 -0.63954145 0.76875657
vn -0 -0.63954145 0.76875657
vn -0 -0.99994564 0.010425375
vn -0 -0.99994564 0.010425375
vn -0 -0.99994564 0.010425375
vn -0 -0.99994564 0.010425376
vn -0.00039909448 1 6.7633395E-05
vn -0.00039909448 1 6.76334E-05
vn -0.0003990945 1 6.7633395E-05
vn -0.00039909445 1 6.7633395E-05
vn 0.0003999681 1 6.763345E-05
vn -0 1 2.2443783E-05
vn -0 1 0
vn -0 1 0
vn -0 1 0
vn 0.00039996812 1 6.763345E-05
vn 0.00039996812 1 6.763346E-05
vn 0.0003999681 1 6.7633446E-05
vn 1 0 0
vn 1 0 0
vn 1 0 0
vn 1 0 0
vn 1 0 0
vn 1 0 0
vn 1 0 0
vn 1 0 0
vn 1 0 0
vn 0.9927448 0.12003241 -0.0070718285
vn 0.9898387 0.14194888 -0.008363058
vn 1 0 0
vn -0 -0.16129214 0.98690665
vn -0 -0.16129212 0.98690665
vn -0 -0.16129214 0.98690665
vn -0 -0.16129214 0.98690665
vn -0 0.9974982 0.070690796
vn -0 0.9974982 0.070690796
vn -0 0.9974982 0.070690796
vn -0 0.9974982 0.070690796
vn 0.25903428 -0.46063665 0.84894943
vn 0.25903428 -0.46063665 0.84894943
vn 0.25903425 -0.46063662 0.84894943
vn 0.25903425 -0.46063665 0.84894943
vn -0 -0.036220137 0.9993438
vn -0 -0.036220137 0.9993438
vn -0 -0.036220137 0.9993438
vn -0 -0.036220137 0.9993438
vn 0.9053831 0.42458552 0.002922289
vn 0.90538317 0.4245855 0.0029222888
vn 0.90538317 0.42458552 0.0029222888
vn 0.9053831 0.42458552 0.002922289
vn -0 -0.021619992 0.9997663
vn -0 0.14037797 0.99009794
vn -0 -0.021619992 0.9997663
vn -0 0.13672303 0.9906093
vn -0 0.8227856 0.56835186
vn -0 0.8227856 0.56835186
vn -1 0 0
vn -0.94534314 0.3260773 5.9423634E-05
vn -1 0 0
vn -0.9453153 0.326158 5.9438327E-05
vn -0.57361937 0.819122 0.00014927505
vn -0.5736193 0.819122 0.00014927505
vn 0.9875425 -0.13915251 -0.07345853
vn 0.9875425 -0.13915253 -0.07345853
vn 0.9875425 -0.13915251 -0.07345853
vn 0.9875425 -0.13915251 -0.07345853
vn -0 0.82537735 0.56458145
vn -0 0.82537735 0.56458145
vn -0 0.82537735 0.56458145
vn -0 0.82537735 0.5645815
vn 0.99971765 -0.023758963 0
vn 0.9994924 -0.03185707 0
vn 0.9994924 -0.03185707 0
vn 0.99968946 -0.024917997 0
vn 0.99999785 0.0020979336 0
vn 0.99971765 -0.023758963 0
vn 0.99999785 0.0020979338 0
vn -0 0.30860347 0.9511908
vn -0 0.3751618 0.9269594
vn -0 0.3751618 0.9269594
vn -0 0.30860347 0.9511908
vn -0 0.12932685 0.991602
vn -0 0.12932687 0.991602
vn -0 0 -1
vn -0 0 -1
vn -0 0 -1
vn -0 0 -1
vn -0 0 -1
vn -0 0 -1
vn -0 0 1
vn -0 0 1
vn -0 0 1
vn -0 0 1
vn -0 0 1
vn -0 0 1
vn -0 1 0.0001823174
vn -0 1 0.0001823174
vn -0 1 0.0001823174
vn -0 1 0.0001823174
vn 1 0 0
vn 0.9453153 0.326158 5.9438335E-05
vn 1 0 0
vn 0.94534314 0.3260773 5.9423634E-05
vn 0.5736193 0.819122 0.00014927505
vn 0.57361937 0.819122 0.00014927505
vn -0.99999785 0.0020979338 0
vn -0.99999785 0.0020979336 0
vn -0.99968946 -0.024917936 0
vn -0.99971765 -0.023758907 0
vn -0.9994924 -0.03185699 0
vn -0.9994924 -0.031856995 0
vn -0 0.10147778 -0.9948377
vn -0 0.048078332 -0.99884355
vn -0 0.04807833 -0.99884355
vn -0 0.10147778 -0.9948377
vn -0 0.12337593 -0.99236006
vn -0 0.12337593 -0.99236006
vn -0 -0.99990416 0.013847777
vn -0 -0.99990416 0.013847777
vn -0 -0.99990416 0.013847777
vn -0 -0.99990416 0.013847777
vn -0.25359952 -0.45655015 0.85278916
vn -0.25359952 -0.45655015 0.85278916
vn -0.2535995 -0.45655015 0.85278916
vn -0.25359952 -0.4565502 0.85278916
vn -1 0 0
vn -1 0 0
vn -1 0 0
vn -1 0 0
vn -0.9937929 -0.09837931 -0.051934354
vn -0.9937929 -0.0983793 -0.05193435
vn -0.9937929 -0.0983793 -0.05193435
vn -0.9937929 -0.09837931 -0.05193435
vn -1 0 0
vn -1 0 0
vn -1 0 0
vn -1 0 0
vn -0 -0.9954722 0.09505362
vn -0 -0.9954722 0.09505362
vn -0 -0.9954722 0.09505363
vn -0 -0.9954722 0.09505362
vn -0.90225106 0.43120095 0.0029678193
vn -0.90225106 0.43120095 0.0029678193
vn -0.90225095 0.43120092 0.002967819
vn -0.90225095 0.43120095 0.0029678193
vn -1 0 0
vn -1 0 0
vn -1 0 0
vn -1 0 0
vn -1 0 0
vn -1 0 0
vn -0 0.78122854 -0.62424517
vn -0 0.78122854 -0.62424517
vn -0 0.78122854 -0.62424517
vn -0 0.7812285 -0.62424517
vn 1 0 0
vn 1 0 0
vn 1 0 0
vn 1 0 0
vn -0.99957174 0.029257486 -0.0006547843
vn -0.9888826 0.14849491 -0.0077726147
vn -0.99957174 0.029257486 -0.00065478444
vn -0.98543197 0.16982952 -0.00904785
vn -0.52940786 0.8468989 -0.049895883
vn -0.5294079 0.8468989 -0.049895886
vn 0.055987276 -0.9981516 -0.023634925
vn 0.012309759 -0.99929976 -0.035333626
vn 0.05598728 -0.9981516 -0.023634924
vn 0.01226777 -0.9992999 -0.03534483
vn -0.012341572 -0.9992982 -0.03536523
vn -0.012298829 -0.99929833 -0.035376508
vn -0 -0.99990416 0.013847841
vn -0 -0.99990416 0.013847841
vn -0 -0.99990416 0.013847841
vn -0 -0.99990416 0.013847841
vn -0 -0.99993694 0.011228413
vn -0 -0.99993694 0.011228413
vn -0 -0.99993694 0.011228413
vn -0 -0.99993694 0.011228413
vn -1 0 0
vn -1 0 0
vn -1 0 0
vn -1 0 0
vn -0 0.004236369 -0.99999106
vn -0 -0.0021293904 -0.99999774
vn -0 -0.0021293904 -0.99999774
vn -0 0.004349211 -0.9999906
vn -0 0.056388438 -0.998409
vn -0 0.056388434 -0.998409
vn -0 -0.99480045 -0.101843774
vn -0 -0.99480045 -0.101843774
vn -0 -0.99480045 -0.101843774
vn -0 -0.99480045 -0.101843774
vn 1 0 0
vn 1 0 0
vn 1 0 0
vn 1 0 0
vn -0 -0.99993694 0.011228164
vn -0 -0.99993694 0.011228164
vn -0 -0.99993694 0.011228164
vn -0 -0.99993694 0.011228164
vn 0.017561838 -0.54996485 -0.8350031
vn 0.01756184 -0.5499649 -0.8350031
vn 0.017561838 -0.5499649 -0.8350032
vn 0.01756184 -0.54996485 -0.8350031
vn -0 -0.64921236 0.7606072
vn -0 -0.6492123 0.76060724
vn -0 -0.64921236 0.76060724
vn -0 -0.64921236 0.76060724
vn 0.16650599 -0.35876578 -0.91845673
vn 0.04543479 -0.1232251 -0.99133813
vn 0.04345388 -0.11934975 -0.99190086
vn 0.166506 -0.3587658 -0.91845673
vn -0.012298829 -0.99929833 -0.035376508
vn -0.056676533 -0.9981128 -0.023633959
vn -0.056676533 -0.9981128 -0.023633959
vn -0.012341572 -0.9992982 -0.03536523
vn -0 -0.6492122 0.7606073
vn -0 -0.6492121 0.76060736
vn -0 -0.6492122 0.7606073
vn -0 -0.6492122 0.76060736
vn -0.017778631 -0.54996264 -0.83500004
vn -0.017778633 -0.5499627 -0.8349999
vn -0.017778631 -0.54996264 -0.83500004
vn -0.017778633 -0.5499627 -0.83500004
vn -0.04508205 -0.12145848 -0.99157214
vn -0.16850406 -0.3586423 -0.9181406
vn -0.16850406 -0.35864234 -0.9181406
vn -0.04374323 -0.118871145 -0.9919457
vn 0.04543479 -0.1232251 -0.99133813
vn 0.04345388 -0.11934975 -0.99190086
vn 0.9927448 0.12003241 -0.0070718285
vn 0.5365885 0.8423833 -0.049629845
vn 0.53658843 0.8423834 -0.049629845
vn 0.9898387 0.14194888 -0.008363058
g forklift_col_0
f 3/3/3 2/2/2 1/1/1
f 6/6/6 5/5/5 4/4/4
f 9/9/9 8/8/8 7/7/7
f 10/10/10 9/9/9 7/7/7
f 13/13/13 12/12/12 11/11/11
f 12/12/12 14/14/14 11/11/11
f 15/15/15 14/14/14 12/12/12
f 16/16/16 15/15/15 12/12/12
f 11/11/11 18/18/18 17/17/17
f 19/19/19 11/11/11 17/17/17
f 21/21/21 15/15/15 20/20/20
f 22/22/22 21/21/21 20/20/20
f 25/25/25 24/24/24 23/23/23
f 26/26/26 25/25/25 23/23/23
f 26/26/26 23/23/23 27/27/27
f 23/23/23 28/28/28 27/27/27
f 28/28/28 29/29/29 27/27/27
f 29/29/29 30/30/30 27/27/27
f 33/33/33 32/32/32 31/31/31
f 34/34/34 33/33/33 31/31/31
f 37/37/37 36/36/36 35/35/35
f 38/38/38 37/37/37 35/35/35
f 41/41/41 40/40/40 39/39/39
f 42/42/42 41/41/41 39/39/39
f 45/45/45 44/44/44 43/43/43
f 46/46/46 45/45/45 43/43/43
f 49/49/49 48/48/48 47/47/47
f 50/50/50 49/49/49 47/47/47
f 53/53/53 52/52/52 51/51/51
f 54/54/54 53/53/53 51/51/51
f 57/57/57 56/56/56 55/55/55
f 56/56/56 58/58/58 55/55/55
f 56/56/56 59/59/59 58/58/58
f 59/59/59 60/60/60 58/58/58
f 63/63/63 62/62/62 61/61/61
f 62/62/62 64/64/64 61/61/61
f 62/62/62 65/65/65 64/64/64
f 65/65/65 66/66/66 64/64/64
f 69/69/69 68/68/68 67/67/67
f 70/70/70 69/69/69 67/67/67
f 73/73/73 72/72/72 71/71/71
f 74/74/74 73/73/73 71/71/71
f 77/77/77 76/76/76 75/75/75
f 78/78/78 77/77/77 75/75/75
f 78/78/78 80/80/80 79/79/79
f 80/80/80 81/81/81 79/79/79
f 84/84/84 83/83/83 82/82/82
f 85/85/85 84/84/84 82/82/82
f 85/85/85 82/82/82 86/86/86
f 87/87/87 85/85/85 86/86/86
f 90/90/90 89/89/89 88/88/88
f 89/89/89 91/91/91 88/88/88
f 89/89/89 92/92/92 91/91/91
f 92/92/92 93/93/93 91/91/91
f 96/96/96 95/95/95 94/94/94
f 95/95/95 97/97/97 94/94/94
f 95/95/95 98/98/98 97/97/97
f 98/98/98 99/99/99 97/97/97
f 102/102/102 101/101/101 100/100/100
f 103/103/103 102/102/102 100/100/100
f 106/106/106 105/105/105 104/104/104
f 105/105/105 107/107/107 104/104/104
f 105/105/105 108/108/108 107/107/107
f 108/108/108 109/109/109 107/107/107
f 112/112/112 111/111/111 110/110/110
f 113/113/113 112/112/112 110/110/110
f 113/113/113 114/114/114 112/112/112
f 114/114/114 115/115/115 112/112/112
f 118/118/118 117/117/117 116/116/116
f 119/119/119 118/118/118 116/116/116
f 119/119/119 116/116/116 120/120/120
f 121/121/121 119/119/119 120/120/120
f 124/124/124 123/123/123 122/122/122
f 125/125/125 124/124/124 122/122/122
f 128/128/128 127/127/127 126/126/126
f 129/129/129 128/128/128 126/126/126
f 132/132/132 131/131/131 130/130/130
f 133/133/133 132/132/132 130/130/130
f 136/136/136 135/135/135 134/134/134
f 137/137/137 136/136/136 134/134/134
f 140/140/140 139/139/139 138/138/138
f 141/141/141 140/140/140 138/138/138
f 144/144/144 143/143/143 142/142/142
f 145/145/145 144/144/144 142/142/142
f 148/148/148 147/147/147 146/146/146
f 149/149/149 148/148/148 146/146/146
f 152/152/152 151/151/151 150/150/150
f 151/151/151 153/153/153 150/150/150
f 151/151/151 154/154/154 153/153/153
f 154/154/154 155/155/155 153/153/153
f 158/158/158 157/157/157 156/156/156
f 159/159/159 158/158/158 156/156/156
f 162/162/162 161/161/161 160/160/160
f 163/163/163 162/162/162 160/160/160
f 166/166/166 165/165/165 164/164/164
f 165/165/165 167/167/167 164/164/164
f 165/165/165 168/168/168 167/167/167
f 168/168/168 169/169/169 167/167/167
f 172/172/172 171/171/171 170/170/170
f 171/171/171 173/173/173 170/170/170
f 171/171/171 174/174/174 173/173/173
f 174/174/174 175/175/175 173/173/173
f 178/178/178 177/177/177 176/176/176
f 179/179/179 178/178/178 176/176/176
f 182/182/182 181/181/181 180/180/180
f 183/183/183 182/182/182 180/180/180
f 186/186/186 185/185/185 184/184/184
f 187/187/187 186/186/186 184/184/184
f 190/190/190 189/189/189 188/188/188
f 191/191/191 190/190/190 188/188/188
f 191/191/191 188/188/188 192/192/192
f 193/193/193 191/191/191 192/192/192
f 196/196/196 195/195/195 194/194/194
f 197/197/197 196/196/196 194/194/194
f 200/200/200 199/199/199 198/198/198
f 201/201/201 200/200/200 198/198/198
f 204/204/204 203/203/203 202/202/202
f 205/205/205 204/204/204 202/202/202
f 208/208/208 207/207/207 206/206/206
f 209/209/209 208/208/208 206/206/206
f 212/212/212 211/211/211 210/210/210
f 213/213/213 212/212/212 210/210/210
f 216/216/216 215/215/215 214/214/214
f 217/217/217 216/216/216 214/214/214
f 220/220/220 219/219/219 218/218/218
f 221/221/221 220/220/220 218/218/218
f 224/224/224 223/223/223 222/222/222
f 225/225/225 224/224/224 222/222/222
f 228/228/228 227/227/227 226/226/226
f 229/229/229 228/228/228 226/226/226
f 232/232/232 231/231/231 230/230/230
f 233/233/233 232/232/232 230/230/230
f 233/233/233 230/230/230 234/234/234
f 235/235/235 233/233/233 234/234/234
f 238/238/238 237/237/237 236/236/236
f 239/239/239 238/238/238 236/236/236
