g fork_col
v 0.0779852 -0.5199404 -0.050700244
v 0.081817195 -0.5199403 0.0465716
v 0.11774997 -0.42245135 0.0465716
v 0.112223916 -0.4224514 -0.050700244
v 0.0779852 -0.5199404 -0.050700244
v -0.0011409223 -0.5482846 -0.050700244
v -0.0012823213 -0.5475167 0.0465716
v 0.081817195 -0.5199403 0.0465716
v 0.095866695 -0.112375244 0.0465716
v 0.09137233 -0.112375185 -0.050700244
v 0.112223916 -0.4224514 -0.050700244
v 0.11774997 -0.42245135 0.0465716
v 0.09552466 0.092775986 0.0465716
v 0.09104643 0.08833123 -0.050700244
v 0.09137233 -0.112375185 -0.050700244
v 0.095866695 -0.112375244 0.0465716
v 0.17426825 0.24390878 0.0465716
v 0.16607761 0.24390866 -0.050700244
v 0.09104643 0.08833123 -0.050700244
v 0.09552466 0.092775986 0.0465716
v 0.10673635 0.5388272 -0.050700244
v 0.11199082 0.5388272 0.0465716
v 0.085266985 0.51240027 0.0465716
v 0.08127243 0.51240027 -0.050700244
v 0.043020368 0.5124003 -0.050700244
v 0.045122355 0.5124003 0.0465716
v 0.032676518 0.5459789 0.0465716
v 0.0311613 0.5459789 -0.050700244
v -0.0011409223 -0.5482846 -0.050700244
v -0.07928866 -0.5199404 -0.050700244
v -0.083238326 -0.5199403 0.0465716
v -0.0012823213 -0.5475167 0.0465716
v -0.03212935 0.5459789 0.0465716
v -0.030589223 0.5459789 -0.050700244
v 0.0311613 0.5459789 -0.050700244
v 0.032676518 0.5459789 0.0465716
v 0.16607761 0.24390866 -0.050700244
v 0.17426825 0.24390878 0.0465716
v 0.17746228 0.33141375 0.0465716
v 0.16912106 0.3314136 -0.050700244
v 0.17517072 0.5042723 0.0465716
v 0.16693753 0.5042723 -0.050700244
v 0.16912106 0.3314136 -0.050700244
v 0.17746228 0.33141375 0.0465716
v 0.14544433 0.5388272 -0.050700244
v 0.15261403 0.5388272 0.0465716
v 0.11199082 0.5388272 0.0465716
v 0.10673635 0.5388272 -0.050700244
v 0.16693753 0.5042723 -0.050700244
v 0.17517072 0.5042723 0.0465716
v 0.15261403 0.5388272 0.0465716
v 0.14544433 0.5388272 -0.050700244
v -0.095285095 -0.112375185 -0.050700244
v -0.10002627 -0.112375244 0.0465716
v -0.12113352 -0.42245135 0.0465716
v -0.115397245 -0.4224514 -0.050700244
v -0.115397245 -0.4224514 -0.050700244
v -0.12113352 -0.42245135 0.0465716
v -0.083238326 -0.5199403 0.0465716
v -0.07928866 -0.5199404 -0.050700244
v -0.09485008 0.08878244 -0.050700244
v -0.09956972 0.09324952 0.0465716
v -0.10002627 -0.112375244 0.0465716
v -0.095285095 -0.112375185 -0.050700244
v -0.16781047 0.24390863 -0.050700244
v -0.17614004 0.24390875 0.046571605
v -0.09956972 0.09324952 0.0465716
v -0.09485008 0.08878244 -0.050700244
v -0.16804552 0.3314136 -0.050700244
v -0.17614004 0.24390875 0.046571605
v -0.16781047 0.24390863 -0.050700244
v -0.17638671 0.33141375 0.0465716
v -0.16591424 0.5042722 -0.050700244
v -0.17415002 0.5042722 0.0465716
v -0.16804552 0.3314136 -0.050700244
v -0.030589223 0.5459789 -0.050700244
v -0.03212935 0.5459789 0.0465716
v -0.048363525 0.51240027 0.0465716
v -0.04605802 0.5124003 -0.050700244
v -0.1466771 0.5388272 -0.050700244
v -0.15396103 0.5388272 0.0465716
v -0.17415002 0.5042722 0.0465716
v -0.16591424 0.5042722 -0.050700244
v -0.08566372 0.51240027 -0.050700244
v -0.08992876 0.51240027 0.0465716
v -0.11002306 0.5388272 0.0465716
v -0.10481066 0.5388272 -0.050700244
v -0.10481066 0.5388272 -0.050700244
v -0.11002306 0.5388272 0.0465716
v -0.15396103 0.5388272 0.0465716
v -0.1466771 0.5388272 -0.050700244
v 0.085266985 0.51240027 0.0465716
v 0.045122355 0.5124003 0.0465716
v 0.043020368 0.5124003 -0.050700244
v 0.08127243 0.51240027 -0.050700244
v -0.08566372 0.51240027 -0.050700244
v -0.04605802 0.5124003 -0.050700244
v -0.048363525 0.51240027 0.0465716
v -0.08992876 0.51240027 0.0465716
v 0.11199082 0.5388272 0.0465716
v 0.15261403 0.5388272 0.0465716
v 0.17517072 0.5042723 0.0465716
v 0.085266985 0.51240027 0.0465716
v -0.15396103 0.5388272 0.0465716
v -0.11002306 0.5388272 0.0465716
v -0.08992876 0.51240027 0.0465716
v -0.17415002 0.5042722 0.0465716
v -0.0012823213 -0.5475167 0.0465716
v -0.083238326 -0.5199403 0.0465716
v -0.12113352 -0.42245135 0.0465716
v -0.0010738815 -0.42245135 0.0465716
v -0.10002627 -0.112375244 0.0465716
v -0.0005355617 -0.112375244 0.0465716
v -0.0010738815 -0.42245135 0.0465716
v -0.09956972 0.09324952 0.0465716
v 0.11774997 -0.42245135 0.0465716
v -0.00019801012 0.093008325 0.0465717
v -0.17614004 0.24390875 0.046571605
v 0.095866695 -0.112375244 0.0465716
v 0.09552466 0.092775986 0.0465716
v 5.645468E-05 0.24390876 0.04657164
v -0.17638671 0.33141375 0.0465716
v 0.17426825 0.24390878 0.0465716
v 0.00020164205 0.33141375 0.04657164
v 0.17746228 0.33141375 0.0465716
v -0.17415002 0.5042722 0.0465716
v 0.000510345 0.5042722 0.046571657
v 0.17517072 0.5042723 0.0465716
v 0.085266985 0.51240027 0.0465716
v 0.045122355 0.5124003 0.0465716
v -0.048363525 0.51240027 0.0465716
v -0.08992876 0.51240027 0.0465716
v -0.048363525 0.51240027 0.0465716
v 0.045122355 0.5124003 0.0465716
v -0.03212935 0.5459789 0.0465716
v 0.032676518 0.5459789 0.0465716
v 0.081817195 -0.5199403 0.0465716
v -0.0012823213 -0.5475167 0.0465716
v -0.0010738815 -0.42245135 0.0465716
v -0.0011409223 -0.5482846 -0.050700244
v 0.0779852 -0.5199404 -0.050700244
v 0.112223916 -0.4224514 -0.050700244
v -0.0015866645 -0.4224514 -0.050700244
v -0.07928866 -0.5199404 -0.050700244
v 0.09137233 -0.112375185 -0.050700244
v -0.115397245 -0.4224514 -0.050700244
v -0.001956381 -0.112375185 -0.050700244
v 0.09104643 0.08833123 -0.050700244
v -0.095285095 -0.112375185 -0.050700244
v -0.001901824 0.08855683 -0.050700244
v 0.16607761 0.24390866 -0.050700244
v -0.09485008 0.08878244 -0.050700244
v -0.000866428 0.24390864 -0.050700244
v 0.16912106 0.3314136 -0.050700244
v -0.16781047 0.24390863 -0.050700244
v 0.00053776056 0.33141357 -0.050700244
v -0.16804552 0.3314136 -0.050700244
v 0.16693753 0.5042723 -0.050700244
v 0.00051164627 0.5042722 -0.050700244
v -0.16591424 0.5042722 -0.050700244
v 0.043020368 0.5124003 -0.050700244
v 0.08127243 0.51240027 -0.050700244
v -0.04605802 0.5124003 -0.050700244
v -0.08566372 0.51240027 -0.050700244
v 0.00051164627 0.5042722 -0.050700244
v 0.043020368 0.5124003 -0.050700244
v -0.04605802 0.5124003 -0.050700244
v 0.0311613 0.5459789 -0.050700244
v -0.030589223 0.5459789 -0.050700244
v 0.08127243 0.51240027 -0.050700244
v 0.16693753 0.5042723 -0.050700244
v 0.14544433 0.5388272 -0.050700244
v 0.10673635 0.5388272 -0.050700244
v -0.16591424 0.5042722 -0.050700244
v -0.08566372 0.51240027 -0.050700244
v -0.10481066 0.5388272 -0.050700244
v -0.1466771 0.5388272 -0.050700244
vt 0.61391145 0.09761608
vt 0.5957415 0.07608616
vt 0.5616392 0.12882729
vt 0.5881036 0.14016935
vt 0.61391145 0.09761608
vt 0.65589774 0.084775835
vt 0.6558794 0.054754518
vt 0.5957415 0.07608616
vt 0.5654715 0.29924443
vt 0.59525776 0.2989359
vt 0.5881036 0.14016935
vt 0.5616392 0.12882729
vt 0.5685484 0.38014102
vt 0.59983385 0.3915517
vt 0.59525776 0.2989359
vt 0.5654715 0.29924443
vt 0.5460021 0.42653582
vt 0.5722341 0.44200853
vt 0.59983385 0.3915517
vt 0.5685484 0.38014102
vt 0.47417483 0.5975031
vt 0.46502694 0.6200399
vt 0.48924217 0.6244925
vt 0.4895371 0.59806406
vt 0.63015735 0.6563355
vt 0.6101057 0.67579967
vt 0.6310076 0.6897153
vt 0.6401609 0.66644794
vt 0.65589774 0.084775835
vt 0.69743735 0.09767313
vt 0.71412313 0.07534598
vt 0.6558794 0.054754518
vt 0.67386377 0.6889969
vt 0.664856 0.6673131
vt 0.6401609 0.66644794
vt 0.6310076 0.6897153
vt 0.5722341 0.44200853
vt 0.5460021 0.42653582
vt 0.5111014 0.48218513
vt 0.53481895 0.50184464
vt 0.43273082 0.57973415
vt 0.45808223 0.57685846
vt 0.53481895 0.50184464
vt 0.5111014 0.48218513
vt 0.4631727 0.58808005
vt 0.44172174 0.60318565
vt 0.46502694 0.6200399
vt 0.47417483 0.5975031
vt 0.45808223 0.57685846
vt 0.43273082 0.57973415
vt 0.44172174 0.60318565
vt 0.4631727 0.58808005
vt 0.7173941 0.2991502
vt 0.74788934 0.29926956
vt 0.7493985 0.12798825
vt 0.7241793 0.1398353
vt 0.7241793 0.1398353
vt 0.7493985 0.12798825
vt 0.71412313 0.07534598
vt 0.69743735 0.09767313
vt 0.71214896 0.39150527
vt 0.74370486 0.38086644
vt 0.74788934 0.29926956
vt 0.7173941 0.2991502
vt 0.73870367 0.44231302
vt 0.76552963 0.42809713
vt 0.74370486 0.38086644
vt 0.71214896 0.39150527
vt 0.7717707 0.5043568
vt 0.76552963 0.42809713
vt 0.73870367 0.44231302
vt 0.7965659 0.48590958
vt 0.84510404 0.58094865
vt 0.87040865 0.5829998
vt 0.7717707 0.5043568
vt 0.664856 0.6673131
vt 0.67386377 0.6889969
vt 0.69512826 0.6764002
vt 0.6752316 0.6569521
vt 0.84067535 0.59227496
vt 0.8610143 0.6057151
vt 0.87040865 0.5829998
vt 0.84510404 0.58094865
vt 0.8126569 0.5992297
vt 0.8117969 0.6262195
vt 0.8401709 0.62320817
vt 0.82926375 0.5988348
vt 0.82926375 0.5988348
vt 0.8401709 0.62320817
vt 0.8610143 0.6057151
vt 0.84067535 0.59227496
vt 0.48924217 0.6244925
vt 0.6101057 0.67579967
vt 0.63015735 0.6563355
vt 0.4895371 0.59806406
vt 0.8126569 0.5992297
vt 0.6752316 0.6569521
vt 0.69512826 0.6764002
vt 0.8117969 0.6262195
vt 0.46502694 0.6200399
vt 0.44172174 0.60318565
vt 0.43273082 0.57973415
vt 0.48924217 0.6244925
vt 0.8610143 0.6057151
vt 0.8401709 0.62320817
vt 0.8117969 0.6262195
vt 0.87040865 0.5829998
vt 0.6558794 0.054754518
vt 0.71412313 0.07534598
vt 0.7493985 0.12798825
vt 0.6557016 0.123001456
vt 0.74788934 0.29926956
vt 0.65524244 0.2992568
vt 0.6557016 0.123001456
vt 0.74370486 0.38086644
vt 0.5616392 0.12882729
vt 0.65448856 0.38049692
vt 0.76552963 0.42809713
vt 0.5654715 0.29924443
vt 0.5685484 0.38014102
vt 0.65514416 0.42731205
vt 0.7965659 0.48590958
vt 0.5460021 0.42653582
vt 0.6541048 0.4840509
vt 0.5111014 0.48218513
vt 0.87040865 0.5829998
vt 0.6515697 0.581367
vt 0.43273082 0.57973415
vt 0.48924217 0.6244925
vt 0.6101057 0.67579967
vt 0.69512826 0.6764002
vt 0.8117969 0.6262195
vt 0.69512826 0.6764002
vt 0.6101057 0.67579967
vt 0.67386377 0.6889969
vt 0.6310076 0.6897153
vt 0.5957415 0.07608616
vt 0.6558794 0.054754518
vt 0.6557016 0.123001456
vt 0.65589774 0.084775835
vt 0.61391145 0.09761608
vt 0.5881036 0.14016935
vt 0.65614146 0.14000233
vt 0.69743735 0.09767313
vt 0.59525776 0.2989359
vt 0.7241793 0.1398353
vt 0.65632594 0.29904306
vt 0.59983385 0.3915517
vt 0.7173941 0.2991502
vt 0.65599144 0.3915285
vt 0.5722341 0.44200853
vt 0.71214896 0.39150527
vt 0.6554689 0.4421608
vt 0.53481895 0.50184464
vt 0.73870367 0.44231302
vt 0.6532948 0.50310075
vt 0.7717707 0.5043568
vt 0.45808223 0.57685846
vt 0.65159315 0.57890356
vt 0.84510404 0.58094865
vt 0.63015735 0.6563355
vt 0.4895371 0.59806406
vt 0.6752316 0.6569521
vt 0.8126569 0.5992297
vt 0.65159315 0.57890356
vt 0.63015735 0.6563355
vt 0.6752316 0.6569521
vt 0.6401609 0.66644794
vt 0.664856 0.6673131
vt 0.4895371 0.59806406
vt 0.45808223 0.57685846
vt 0.4631727 0.58808005
vt 0.47417483 0.5975031
vt 0.84510404 0.58094865
vt 0.8126569 0.5992297
vt 0.82926375 0.5988348
vt 0.84067535 0.59227496
vn 0.9399567 -0.3382854 -0.04521413
vn 0.9399567 -0.33828536 -0.04521413
vn 0.9399567 -0.33828536 -0.04521413
vn 0.9399567 -0.33828533 -0.045214135
vn 0.32588932 -0.9454047 -0.0024501602
vn 0.32588935 -0.9454048 -0.0024501607
vn 0.32588932 -0.9454047 -0.00245016
vn 0.32588932 -0.9454047 -0.0024501602
vn 0.99631965 0.06865665 -0.051317703
vn 0.99631965 0.06865665 -0.0513177
vn 0.99631965 0.06865665 -0.051317696
vn 0.99631965 0.06865665 -0.0513177
vn 0.99893504 0.0016439758 -0.046109665
vn 0.99893504 0.0016439757 -0.04610967
vn 0.99893504 0.0016439756 -0.046109665
vn 0.99893504 0.0016439758 -0.04610966
vn 0.89291054 -0.4476768 -0.04791878
vn 0.89291054 -0.44767693 -0.04791879
vn 0.89291054 -0.44767693 -0.047918793
vn 0.89291054 -0.44767693 -0.047918785
vn -0.7111696 0.702207 0.03381055
vn -0.71116954 0.702207 0.033810545
vn -0.71116954 0.702207 0.033810545
vn -0.7111696 0.702207 0.033810545
vn 0.94016975 0.3402577 -0.017480932
vn 0.94016975 0.34025767 -0.01748093
vn 0.94016975 0.34025767 -0.017480928
vn 0.94016975 0.34025767 -0.01748093
vn -0.3297408 -0.944066 -0.0032076319
vn -0.32974082 -0.944066 -0.0032076319
vn -0.3297408 -0.944066 -0.0032076316
vn -0.32974082 -0.944066 -0.0032076319
vn -0 1 0
vn -0 1 0
vn -0 1 0
vn -0 1 0
vn 0.99578106 -0.035490546 -0.08461914
vn 0.99578106 -0.035490543 -0.084619135
vn 0.99578106 -0.035490543 -0.084619135
vn 0.99578106 -0.035490543 -0.08461914
vn 0.9963076 0.012896568 -0.08488177
vn 0.9963076 0.012896568 -0.08488178
vn 0.9963076 0.0128965685 -0.08488178
vn 0.9963076 0.0128965685 -0.084881775
vn -0 1 0
vn -0 1 0
vn -0 1 0
vn -0 1 0
vn 0.8413961 0.5362974 -0.066617146
vn 0.8413961 0.5362974 -0.066617146
vn 0.84139603 0.5362974 -0.06661715
vn 0.8413961 0.5362974 -0.06661715
vn -0.9963607 0.06622468 -0.05366056
vn -0.9963607 0.06622469 -0.053660564
vn -0.9963607 0.06622468 -0.05366056
vn -0.9963607 0.06622468 -0.05366056
vn -0.93391216 -0.35446593 -0.046497285
vn -0.93391216 -0.35446593 -0.046497285
vn -0.93391216 -0.3544659 -0.04649728
vn -0.93391216 -0.35446593 -0.046497285
vn -0.9988148 0.0021891664 -0.04862346
vn -0.9988148 0.0021891668 -0.04862346
vn -0.9988148 0.0021891666 -0.04862346
vn -0.9988148 0.0021891666 -0.048623458
vn -0.89721465 -0.43874267 -0.050106984
vn -0.89721465 -0.43874267 -0.05010698
vn -0.89721465 -0.4387426 -0.050106976
vn -0.89721465 -0.43874267 -0.050106984
vn -0.99634486 -0.0027428404 -0.08537833
vn -0.99634486 -0.00274284 -0.08537832
vn -0.99634486 -0.0027428407 -0.08537833
vn -0.99634486 -0.0027428402 -0.08537833
vn -0.9963104 0.012588018 -0.084895074
vn -0.9963104 0.012588019 -0.084895074
vn -0.9963104 0.012588018 -0.08489506
vn -0.9041566 0.42682695 -0.017872838
vn -0.9041566 0.4268269 -0.017872838
vn -0.9041566 0.42682692 -0.017872836
vn -0.9041566 0.4268269 -0.017872836
vn -0.8665187 0.49433476 -0.06912633
vn -0.8665187 0.49433473 -0.06912634
vn -0.8665187 0.49433482 -0.069126345
vn -0.8665187 0.49433473 -0.06912633
vn 0.80228734 0.5956571 0.039084606
vn 0.80228734 0.5956571 0.039084606
vn 0.80228734 0.5956571 0.039084606
vn 0.80228734 0.5956571 0.0390846
vn -0 1 0
vn -0 1 0
vn -0 1 0
vn -0 1 0
vn -0 1 0
vn -0 1 0
vn -0 1 0
vn -0 1 0
vn -0 1 0
vn -0 1 0
vn -0 1 0
vn -0 1 0
vn -0 0 1
vn -0 0 1
vn -0 0 1
vn -0 0 1
vn -0 0 1
vn -0 0 1
vn -0 0 1
vn -0 0 1
vn -0 0 1
vn -0 0 1
vn -0 0 1
vn -0 0 1
vn -0 0 1
vn -0 0 1
vn -0 0 1
vn -0 0 1
vn -0 0 1
vn -0 0 1
vn -0 0 1
vn -0 0 1
vn -0 0 1
vn -0 0 1
vn -0 0 1
vn -0 0 1
vn -0 0 1
vn -0 0 1
vn -0 0 1
vn -0 0 1
vn -0 0 1
vn -0 0 1
vn -0 0 1
vn -0 0 1
vn -0 0 1
vn -0 0 1
vn -0 0 1
vn -0 0 1
vn -0 0 1
vn -0 0 1
vn -0 0 1
vn -0 0 1
vn -0 0 -1
vn -0 0 -1
vn -0 0 -1
vn -0 0 -1
vn -0 0 -1
vn -0 0 -1
vn -0 0 -1
vn -0 0 -1
vn -0 0 -1
vn -0 0 -1
vn -0 0 -1
vn -0 0 -1
vn -0 0 -1
vn -0 0 -1
vn -0 0 -1
vn -0 0 -1
vn -0 0 -1
vn -0 0 -1
vn -0 0 -1
vn -0 0 -1
vn -0 0 -1
vn -0 0 -1
vn -0 0 -1
vn -0 0 -1
vn -0 0 -1
vn -0 0 -1
vn -0 0 -1
vn -0 0 -1
vn -0 0 -1
vn -0 0 -1
vn -0 0 -1
vn -0 0 -1
vn -0 0 -1
vn -0 0 -1
vn -0 0 -1
vn -0 0 -1
vn -0 0 -1
vn -0 0 -1
g fork_col_0
f 3/3/3 2/2/2 1/1/1
f 4/4/4 3/3/3 1/1/1
f 7/7/7 6/6/6 5/5/5
f 8/8/8 7/7/7 5/5/5
f 11/11/11 10/10/10 9/9/9
f 12/12/12 11/11/11 9/9/9
f 15/15/15 14/14/14 13/13/13
f 16/16/16 15/15/15 13/13/13
f 19/19/19 18/18/18 17/17/17
f 20/20/20 19/19/19 17/17/17
f 23/23/23 22/22/22 21/21/21
f 24/24/24 23/23/23 21/21/21
f 27/27/27 26/26/26 25/25/25
f 28/28/28 27/27/27 25/25/25
f 31/31/31 30/30/30 29/29/29
f 32/32/32 31/31/31 29/29/29
f 35/35/35 34/34/34 33/33/33
f 36/36/36 35/35/35 33/33/33
f 39/39/39 38/38/38 37/37/37
f 40/40/40 39/39/39 37/37/37
f 43/43/43 42/42/42 41/41/41
f 44/44/44 43/43/43 41/41/41
f 47/47/47 46/46/46 45/45/45
f 48/48/48 47/47/47 45/45/45
f 51/51/51 50/50/50 49/49/49
f 52/52/52 51/51/51 49/49/49
f 55/55/55 54/54/54 53/53/53
f 56/56/56 55/55/55 53/53/53
f 59/59/59 58/58/58 57/57/57
f 60/60/60 59/59/59 57/57/57
f 63/63/63 62/62/62 61/61/61
f 64/64/64 63/63/63 61/61/61
f 67/67/67 66/66/66 65/65/65
f 68/68/68 67/67/67 65/65/65
f 71/71/71 70/70/70 69/69/69
f 70/70/70 72/72/72 69/69/69
f 72/72/72 74/74/74 73/73/73
f 75/75/75 72/72/72 73/73/73
f 78/78/78 77/77/77 76/76/76
f 79/79/79 78/78/78 76/76/76
f 82/82/82 81/81/81 80/80/80
f 83/83/83 82/82/82 80/80/80
f 86/86/86 85/85/85 84/84/84
f 87/87/87 86/86/86 84/84/84
f 90/90/90 89/89/89 88/88/88
f 91/91/91 90/90/90 88/88/88
f 94/94/94 93/93/93 92/92/92
f 95/95/95 94/94/94 92/92/92
f 98/98/98 97/97/97 96/96/96
f 99/99/99 98/98/98 96/96/96
f 102/102/102 101/101/101 100/100/100
f 103/103/103 102/102/102 100/100/100
f 106/106/106 105/105/105 104/104/104
f 107/107/107 106/106/106 104/104/104
f 110/110/110 109/109/109 108/108/108
f 111/111/111 110/110/110 108/108/108
f 113/113/113 112/112/112 110/110/110
f 114/114/114 113/113/113 110/110/110
f 115/115/115 112/112/112 113/113/113
f 113/113/113 114/114/114 116/116/116
f 117/117/117 115/115/115 113/113/113
f 118/118/118 115/115/115 117/117/117
f 119/119/119 113/113/113 116/116/116
f 117/117/117 113/113/113 119/119/119
f 120/120/120 117/117/117 119/119/119
f 121/121/121 118/118/118 117/117/117
f 121/121/121 117/117/117 120/120/120
f 122/122/122 118/118/118 121/121/121
f 123/123/123 121/121/121 120/120/120
f 124/124/124 122/122/122 121/121/121
f 124/124/124 121/121/121 123/123/123
f 125/125/125 124/124/124 123/123/123
f 126/126/126 122/122/122 124/124/124
f 127/127/127 124/124/124 125/125/125
f 127/127/127 126/126/126 124/124/124
f 128/128/128 127/127/127 125/125/125
f 127/127/127 128/128/128 129/129/129
f 130/130/130 127/127/127 129/129/129
f 126/126/126 127/127/127 131/131/131
f 132/132/132 126/126/126 131/131/131
f 127/127/127 134/134/134 133/133/133
f 135/135/135 133/133/133 134/134/134
f 136/136/136 135/135/135 134/134/134
f 138/138/138 137/137/137 116/116/116
f 139/139/139 138/138/138 116/116/116
f 142/142/142 141/141/141 140/140/140
f 143/143/143 142/142/142 140/140/140
f 143/143/143 140/140/140 144/144/144
f 145/145/145 142/142/142 143/143/143
f 146/146/146 143/143/143 144/144/144
f 147/147/147 145/145/145 143/143/143
f 147/147/147 143/143/143 146/146/146
f 148/148/148 145/145/145 147/147/147
f 149/149/149 147/147/147 146/146/146
f 150/150/150 148/148/148 147/147/147
f 150/150/150 147/147/147 149/149/149
f 151/151/151 148/148/148 150/150/150
f 152/152/152 150/150/150 149/149/149
f 153/153/153 151/151/151 150/150/150
f 153/153/153 150/150/150 152/152/152
f 154/154/154 151/151/151 153/153/153
f 155/155/155 153/153/153 152/152/152
f 156/156/156 154/154/154 153/153/153
f 156/156/156 153/153/153 155/155/155
f 157/157/157 156/156/156 155/155/155
f 154/154/154 156/156/156 158/158/158
f 156/156/156 157/157/157 159/159/159
f 156/156/156 159/159/159 158/158/158
f 157/157/157 160/160/160 159/159/159
f 158/158/158 159/159/159 161/161/161
f 162/162/162 158/158/158 161/161/161
f 160/160/160 164/164/164 163/163/163
f 165/165/165 160/160/160 163/163/163
f 159/159/159 167/167/167 166/166/166
f 166/166/166 167/167/167 168/168/168
f 167/167/167 169/169/169 168/168/168
f 172/172/172 171/171/171 170/170/170
f 173/173/173 172/172/172 170/170/170
f 176/176/176 175/175/175 174/174/174
f 177/177/177 176/176/176 174/174/174
