g fridge_col
v -0.13347013 -0.49559867 0.0986985
v -0.13347013 -0.49559867 -0.15828876
v -0.23555869 -0.46848354 -0.15828876
v -0.23555869 -0.46848354 0.0986985
v -0.23555869 -0.46848354 0.0986985
v -0.23555869 -0.46848354 -0.15828876
v -0.26691356 -0.37568304 -0.15828876
v -0.26691356 -0.37568304 0.0986985
v -0.09154415 -0.37568304 0.2424115
v 0.1510672 -0.37568304 0.2264635
v 0.13347013 -0.46398214 0.19581445
v -0.13347013 -0.46398214 0.19581445
v -0.13347013 -0.46398214 0.19581445
v 0.13347013 -0.46398214 0.19581445
v 0.13347013 -0.49559867 0.0986985
v -0.13347013 -0.49559867 0.0986985
v -0.26691356 -0.37568304 0.0986985
v -0.26691356 0.36878696 0.0986985
v -0.2278289 0.40120798 0.19146982
v -0.2278289 -0.37568304 0.20498998
v -0.18669924 -0.24170035 0.26519662
v -0.18669924 0.35556838 0.26519662
v -0.11587305 0.35556838 0.30261812
v -0.11587305 -0.24170035 0.30261812
v 0.26691356 -0.37568304 0.0986985
v 0.26691356 -0.37568304 -0.15828876
v 0.23555869 -0.46848354 -0.15828876
v 0.23555869 -0.46848354 0.0986985
v 0.23555869 -0.46848354 0.0986985
v 0.23555869 -0.46848354 -0.15828876
v 0.13347013 -0.49559867 -0.15828876
v 0.13347013 -0.49559867 0.0986985
v 0.1510672 -0.37568304 0.2264635
v 0.1510672 0.36878696 0.23234764
v 0.2278289 0.36878696 0.18904199
v 0.2278289 -0.37568304 0.18904199
v 0.2278289 -0.37568304 0.18904199
v 0.2278289 0.36878696 0.18904199
v 0.26691356 0.36878696 0.0986985
v 0.26691356 -0.37568304 0.0986985
v -0.26691356 0.36878696 0.0986985
v -0.26691356 0.36878696 -0.15828876
v -0.23684697 0.46557194 -0.15828876
v -0.23684697 0.46557194 0.0986985
v -0.23684697 0.46557194 0.0986985
v -0.23684697 0.46557194 -0.15828876
v -0.13347013 0.4924807 -0.15828876
v -0.13347013 0.4924807 0.0986985
v -0.13347013 0.4924807 0.0986985
v 0.13347013 0.4924807 0.0986985
v 0.13347013 0.46398127 0.19586785
v -0.13347013 0.46398127 0.19586785
v -0.13347013 0.46398127 0.19586785
v 0.13347013 0.46398127 0.19586785
v 0.1510672 0.36878696 0.23234764
v -0.09154415 0.40120798 0.23477545
v 0.13347013 0.4924807 0.0986985
v 0.13347013 0.4924807 -0.15828876
v 0.23684697 0.46557194 -0.15828876
v 0.23684697 0.46557194 0.0986985
v 0.23684697 0.46557194 0.0986985
v 0.23684697 0.46557194 -0.15828876
v 0.26691356 0.36878696 -0.15828876
v 0.26691356 0.36878696 0.0986985
v -0.26691356 0.36878696 -0.15828876
v -0.26691356 -0.37568304 -0.15828876
v -0.2278289 -0.37568304 -0.24863227
v -0.2278289 0.36878696 -0.24863227
v -0.2278289 0.36878696 -0.24863227
v -0.2278289 -0.37568304 -0.24863227
v -0.13347013 -0.37568304 -0.28605375
v -0.13347013 0.36878696 -0.28605375
v -0.13347013 0.36878696 -0.28605375
v 0.13347013 0.36878696 -0.28605375
v 0.13347013 0.46086416 -0.26217717
v -0.13347013 0.46086416 -0.26217717
v -0.13347013 0.46086416 -0.26217717
v 0.13347013 0.46086416 -0.26217717
v 0.13347013 0.4924807 -0.15828876
v -0.13347013 0.4924807 -0.15828876
v 0.13347013 0.36878696 -0.28605375
v 0.13347013 -0.37568304 -0.28605375
v 0.2278289 -0.37568304 -0.24863227
v 0.2278289 0.36878696 -0.24863227
v 0.2278289 0.36878696 -0.24863227
v 0.2278289 -0.37568304 -0.24863227
v 0.26691356 -0.37568304 -0.15828876
v 0.26691356 0.36878696 -0.15828876
v -0.13347013 -0.49559867 -0.15828876
v 0.13347013 -0.49559867 -0.15828876
v 0.13347013 -0.4597599 -0.26523063
v -0.13347013 -0.4597599 -0.26523063
v -0.13347013 -0.4597599 -0.26523063
v 0.13347013 -0.4597599 -0.26523063
v 0.13347013 -0.37568304 -0.28605375
v -0.13347013 -0.37568304 -0.28605375
v -0.09154415 -0.37568304 0.2424115
v -0.09154415 0.40120798 0.23477545
v 0.1510672 0.36878696 0.23234764
v 0.1510672 -0.37568304 0.2264635
v -0.13347013 0.4924807 0.0986985
v -0.13347013 0.4924807 -0.15828876
v 0.13347013 0.4924807 -0.15828876
v 0.13347013 0.4924807 0.0986985
v -0.13347013 0.36878696 -0.28605375
v -0.13347013 -0.37568304 -0.28605375
v 0.13347013 -0.37568304 -0.28605375
v 0.13347013 0.36878696 -0.28605375
v -0.13347013 -0.49559867 -0.15828876
v -0.13347013 -0.49559867 0.0986985
v 0.13347013 -0.49559867 0.0986985
v 0.13347013 -0.49559867 -0.15828876
v 0.26691356 -0.37568304 0.0986985
v 0.26691356 0.36878696 0.0986985
v 0.26691356 0.36878696 -0.15828876
v 0.26691356 -0.37568304 -0.15828876
v -0.26691356 -0.37568304 -0.15828876
v -0.26691356 0.36878696 -0.15828876
v -0.26691356 0.36878696 0.0986985
v -0.26691356 -0.37568304 0.0986985
v -0.2278289 -0.37568304 0.20498998
v -0.2182166 -0.45768437 0.17921034
v -0.23555869 -0.46848354 0.0986985
v -0.26691356 -0.37568304 0.0986985
v -0.23555869 -0.46848354 0.0986985
v -0.2182166 -0.45768437 0.17921034
v -0.13347013 -0.46398214 0.19581445
v -0.13347013 -0.49559867 0.0986985
v -0.13347013 -0.46398214 0.19581445
v -0.2182166 -0.45768437 0.17921034
v -0.2278289 -0.37568304 0.20498998
v -0.09154415 -0.37568304 0.2424115
v 0.13347013 -0.46398214 0.19581445
v 0.2182166 -0.45768437 0.17921034
v 0.23555869 -0.46848354 0.0986985
v 0.13347013 -0.49559867 0.0986985
v 0.23555869 -0.46848354 0.0986985
v 0.2182166 -0.45768437 0.17921034
v 0.2278289 -0.37568304 0.18904199
v 0.26691356 -0.37568304 0.0986985
v 0.2278289 -0.37568304 0.18904199
v 0.2182166 -0.45768437 0.17921034
v 0.13347013 -0.46398214 0.19581445
v 0.1510672 -0.37568304 0.2264635
v -0.13347013 0.46398127 0.19586785
v -0.2195049 0.45381862 0.17926374
v -0.23684697 0.46557194 0.0986985
v -0.13347013 0.4924807 0.0986985
v -0.23684697 0.46557194 0.0986985
v -0.2195049 0.45381862 0.17926374
v -0.2278289 0.40120798 0.19146982
v -0.26691356 0.36878696 0.0986985
v -0.2278289 0.40120798 0.19146982
v -0.2195049 0.45381862 0.17926374
v -0.13347013 0.46398127 0.19586785
v -0.09154415 0.40120798 0.23477545
v 0.2278289 0.36878696 0.18904199
v 0.2195049 0.45381862 0.17926374
v 0.23684697 0.46557194 0.0986985
v 0.26691356 0.36878696 0.0986985
v 0.23684697 0.46557194 0.0986985
v 0.2195049 0.45381862 0.17926374
v 0.13347013 0.46398127 0.19586785
v 0.13347013 0.4924807 0.0986985
v 0.13347013 0.46398127 0.19586785
v 0.2195049 0.45381862 0.17926374
v 0.2278289 0.36878696 0.18904199
v 0.1510672 0.36878696 0.23234764
v -0.13347013 0.46086416 -0.26217717
v -0.2195049 0.4507015 -0.24557306
v -0.2278289 0.36878696 -0.24863227
v -0.13347013 0.36878696 -0.28605375
v -0.2278289 0.36878696 -0.24863227
v -0.2195049 0.4507015 -0.24557306
v -0.23684697 0.46557194 -0.15828876
v -0.26691356 0.36878696 -0.15828876
v -0.23684697 0.46557194 -0.15828876
v -0.2195049 0.4507015 -0.24557306
v -0.13347013 0.46086416 -0.26217717
v -0.13347013 0.4924807 -0.15828876
v 0.23684697 0.46557194 -0.15828876
v 0.2195049 0.4507015 -0.24557306
v 0.2278289 0.36878696 -0.24863227
v 0.26691356 0.36878696 -0.15828876
v 0.2278289 0.36878696 -0.24863227
v 0.2195049 0.4507015 -0.24557306
v 0.13347013 0.46086416 -0.26217717
v 0.13347013 0.36878696 -0.28605375
v 0.13347013 0.46086416 -0.26217717
v 0.2195049 0.4507015 -0.24557306
v 0.23684697 0.46557194 -0.15828876
v 0.13347013 0.4924807 -0.15828876
v -0.13347013 -0.4597599 -0.26523063
v -0.2182166 -0.45346212 -0.2486265
v -0.23555869 -0.46848354 -0.15828876
v -0.13347013 -0.49559867 -0.15828876
v -0.23555869 -0.46848354 -0.15828876
v -0.2182166 -0.45346212 -0.2486265
v -0.2278289 -0.37568304 -0.24863227
v -0.26691356 -0.37568304 -0.15828876
v -0.2278289 -0.37568304 -0.24863227
v -0.2182166 -0.45346212 -0.2486265
v -0.13347013 -0.4597599 -0.26523063
v -0.13347013 -0.37568304 -0.28605375
v 0.2278289 -0.37568304 -0.24863227
v 0.2182166 -0.45346212 -0.2486265
v 0.23555869 -0.46848354 -0.15828876
v 0.26691356 -0.37568304 -0.15828876
v 0.23555869 -0.46848354 -0.15828876
v 0.2182166 -0.45346212 -0.2486265
v 0.13347013 -0.4597599 -0.26523063
v 0.13347013 -0.49559867 -0.15828876
v 0.13347013 -0.4597599 -0.26523063
v 0.2182166 -0.45346212 -0.2486265
v 0.2278289 -0.37568304 -0.24863227
v 0.13347013 -0.37568304 -0.28605375
v -0.2278289 -0.37568304 0.20498998
v -0.18669924 -0.24170035 0.26519662
v -0.11587305 -0.24170035 0.30261812
v -0.09154415 -0.37568304 0.2424115
v -0.09154415 -0.37568304 0.2424115
v -0.11587305 -0.24170035 0.30261812
v -0.11587305 0.35556838 0.30261812
v -0.09154415 0.40120798 0.23477545
v -0.09154415 0.40120798 0.23477545
v -0.11587305 0.35556838 0.30261812
v -0.18669924 0.35556838 0.26519662
v -0.2278289 0.40120798 0.19146982
v -0.2278289 0.40120798 0.19146982
v -0.18669924 0.35556838 0.26519662
v -0.18669924 -0.24170035 0.26519662
v -0.2278289 -0.37568304 0.20498998
vt 0.43749374 0.93767774
vt 0.43749374 0.81232226
vt 0.375 0.79659724
vt 0.375 0.95340276
vt 0.32840276 0
vt 0.17159726 0
vt 0.18732227 0.03194123
vt 0.31267774 0.031941235
vt 0.43749374 0.03194125
vt 0.56250626 0.03194125
vt 0.5784431 0
vt 0.4215569 0
vt 0.4215569 1
vt 0.5784431 1
vt 0.56250626 0.93767774
vt 0.43749374 0.93767774
vt 0.31267774 0.031941235
vt 0.31267774 0.21805876
vt 0.37381676 0.22062075
vt 0.37381676 0.029379254
vt 0.37381676 0.029379254
vt 0.37381676 0.22062075
vt 0.43749374 0.21805875
vt 0.43749374 0.03194125
vt 0.68732226 0.03194123
vt 0.81267774 0.031941235
vt 0.82840276 0
vt 0.67159724 0
vt 0.625 0.95340276
vt 0.625 0.79659724
vt 0.56250626 0.81232226
vt 0.56250626 0.93767774
vt 0.56250626 0.03194125
vt 0.56250626 0.21805874
vt 0.6261832 0.22062074
vt 0.6261832 0.029379252
vt 0.6261832 0.029379252
vt 0.6261832 0.22062074
vt 0.68732226 0.21805875
vt 0.68732226 0.03194123
vt 0.31267774 0.21805876
vt 0.18732227 0.21805875
vt 0.17159726 0.25
vt 0.32840276 0.25
vt 0.375 0.29659724
vt 0.375 0.45340276
vt 0.43749374 0.4376777
vt 0.43749374 0.31232226
vt 0.43749374 0.31232226
vt 0.5625062 0.31232226
vt 0.5658148 0.2539068
vt 0.43418518 0.2539068
vt 0.43418518 0.2539068
vt 0.5658148 0.2539068
vt 0.56250626 0.21805874
vt 0.43749374 0.21805875
vt 0.5625062 0.31232226
vt 0.56250626 0.43767774
vt 0.625 0.45340276
vt 0.625 0.29659724
vt 0.67159724 0.25
vt 0.82840276 0.25
vt 0.81267774 0.21805875
vt 0.68732226 0.21805875
vt 0.18732227 0.21805875
vt 0.18732227 0.03194123
vt 0.125 0.023494247
vt 0.125 0.22650576
vt 0.375 0.52349424
vt 0.375 0.72650576
vt 0.43749374 0.71805876
vt 0.43749374 0.53194124
vt 0.43749374 0.53194124
vt 0.56250626 0.53194124
vt 0.56581485 0.49609324
vt 0.43418518 0.4960932
vt 0.43418518 0.4960932
vt 0.56581485 0.49609324
vt 0.56250626 0.43767774
vt 0.43749374 0.4376777
vt 0.56250626 0.53194124
vt 0.56250626 0.7180587
vt 0.625 0.72650576
vt 0.625 0.52349424
vt 0.875 0.22650576
vt 0.875 0.023494247
vt 0.81267774 0.031941235
vt 0.81267774 0.21805875
vt 0.43749374 0.81232226
vt 0.56250626 0.81232226
vt 0.56581485 0.7539067
vt 0.43418518 0.7539068
vt 0.43418518 0.7539068
vt 0.56581485 0.7539067
vt 0.56250626 0.7180587
vt 0.43749374 0.71805876
vt 0.43749374 0.03194125
vt 0.43749374 0.21805875
vt 0.56250626 0.21805874
vt 0.56250626 0.03194125
vt 0.43749374 0.31232226
vt 0.43749374 0.4376777
vt 0.56250626 0.43767774
vt 0.5625062 0.31232226
vt 0.43749374 0.53194124
vt 0.43749374 0.71805876
vt 0.56250626 0.7180587
vt 0.56250626 0.53194124
vt 0.43749374 0.81232226
vt 0.43749374 0.93767774
vt 0.56250626 0.93767774
vt 0.56250626 0.81232226
vt 0.68732226 0.03194123
vt 0.68732226 0.21805875
vt 0.81267774 0.21805875
vt 0.81267774 0.031941235
vt 0.18732227 0.03194123
vt 0.18732227 0.21805875
vt 0.31267774 0.21805876
vt 0.31267774 0.031941235
vt 0.37381676 0.029379254
vt 0.375 0
vt 0.32840276 0
vt 0.31267774 0.031941235
vt 0.375 0.95340276
vt 0.375 1
vt 0.4215569 1
vt 0.43749374 0.93767774
vt 0.4215569 0
vt 0.375 0
vt 0.37381676 0.029379254
vt 0.43749374 0.03194125
vt 0.5784431 1
vt 0.625 1
vt 0.625 0.95340276
vt 0.56250626 0.93767774
vt 0.67159724 0
vt 0.625 0
vt 0.6261832 0.029379252
vt 0.68732226 0.03194123
vt 0.6261832 0.029379252
vt 0.625 0
vt 0.5784431 0
vt 0.56250626 0.03194125
vt 0.43418518 0.2539068
vt 0.375 0.25
vt 0.375 0.29659724
vt 0.43749374 0.31232226
vt 0.32840276 0.25
vt 0.375 0.25
vt 0.37381676 0.22062075
vt 0.31267774 0.21805876
vt 0.37381676 0.22062075
vt 0.375 0.25
vt 0.43418518 0.2539068
vt 0.43749374 0.21805875
vt 0.6261832 0.22062074
vt 0.625 0.25
vt 0.67159724 0.25
vt 0.68732226 0.21805875
vt 0.625 0.29659724
vt 0.625 0.25
vt 0.5658148 0.2539068
vt 0.5625062 0.31232226
vt 0.5658148 0.2539068
vt 0.625 0.25
vt 0.6261832 0.22062074
vt 0.56250626 0.21805874
vt 0.43418518 0.4960932
vt 0.375 0.5
vt 0.375 0.52349424
vt 0.43749374 0.53194124
vt 0.125 0.22650576
vt 0.125 0.25
vt 0.17159726 0.25
vt 0.18732227 0.21805875
vt 0.375 0.45340276
vt 0.375 0.5
vt 0.43418518 0.4960932
vt 0.43749374 0.4376777
vt 0.82840276 0.25
vt 0.875 0.25
vt 0.875 0.22650576
vt 0.81267774 0.21805875
vt 0.625 0.52349424
vt 0.625 0.5
vt 0.56581485 0.49609324
vt 0.56250626 0.53194124
vt 0.56581485 0.49609324
vt 0.625 0.5
vt 0.625 0.45340276
vt 0.56250626 0.43767774
vt 0.43418518 0.7539068
vt 0.375 0.75
vt 0.375 0.79659724
vt 0.43749374 0.81232226
vt 0.17159726 0
vt 0.125 0
vt 0.125 0.023494247
vt 0.18732227 0.03194123
vt 0.375 0.72650576
vt 0.375 0.75
vt 0.43418518 0.7539068
vt 0.43749374 0.71805876
vt 0.875 0.023494247
vt 0.875 0
vt 0.82840276 0
vt 0.81267774 0.031941235
vt 0.625 0.79659724
vt 0.625 0.75
vt 0.56581485 0.7539067
vt 0.56250626 0.81232226
vt 0.56581485 0.7539067
vt 0.625 0.75
vt 0.625 0.72650576
vt 0.56250626 0.7180587
vt 0.37381676 0.029379254
vt 0.37381676 0.029379254
vt 0.43749374 0.03194125
vt 0.43749374 0.03194125
vt 0.43749374 0.03194125
vt 0.43749374 0.03194125
vt 0.43749374 0.21805875
vt 0.43749374 0.21805875
vt 0.43749374 0.21805875
vt 0.43749374 0.21805875
vt 0.37381676 0.22062075
vt 0.37381676 0.22062075
vt 0.37381676 0.22062075
vt 0.37381676 0.22062075
vt 0.37381676 0.029379254
vt 0.37381676 0.029379254
vn -0.25670373 -0.96649015 0
vn -0.25670373 -0.96649015 0
vn -0.25670373 -0.96649015 0
vn -0.25670373 -0.96649015 0
vn -0.9473848 -0.32009682 0
vn -0.9473848 -0.32009682 0
vn -0.9473848 -0.32009682 0
vn -0.9473848 -0.32009682 0
vn 0.02855151 -0.40864965 0.91224456
vn 0.02855151 -0.4086497 0.91224456
vn 0.02855151 -0.4086497 0.91224456
vn 0.02855151 -0.40864968 0.91224456
vn -0 -0.9508789 0.3095629
vn -0 -0.9508789 0.3095629
vn -0 -0.9508789 0.3095629
vn -0 -0.9508789 0.3095629
vn -0.93098015 0.0032442126 0.36505517
vn -0.93098015 0.0032442128 0.36505514
vn -0.93098015 0.0032442128 0.36505517
vn -0.93098015 0.0032442128 0.36505517
vn -0.46715882 0 0.88417333
vn -0.46715882 0 0.88417333
vn -0.46715882 0 0.88417333
vn -0.46715882 0 0.88417333
vn 0.9473848 -0.32009682 0
vn 0.9473848 -0.32009682 0
vn 0.9473848 -0.32009682 0
vn 0.9473848 -0.32009682 0
vn 0.25670373 -0.96649015 0
vn 0.25670373 -0.96649015 0
vn 0.25670373 -0.96649015 0
vn 0.25670373 -0.96649015 0
vn 0.46540672 -0.003497788 0.88509005
vn 0.46540672 -0.003497788 0.88509005
vn 0.46540678 -0.0034977884 0.88509005
vn 0.46540678 -0.0034977884 0.88509005
vn 0.91779333 0 0.39705837
vn 0.91779333 0 0.39705837
vn 0.91779333 0 0.39705837
vn 0.91779333 0 0.39705837
vn -0.9549806 0.29666814 0
vn -0.9549806 0.29666814 0
vn -0.9549806 0.29666814 0
vn -0.9549806 0.29666814 0
vn -0.2519037 0.96775234 0
vn -0.2519037 0.96775234 0
vn -0.2519037 0.96775234 0
vn -0.2519037 0.96775234 0
vn -0 0.9595786 0.2814408
vn -0 0.9595786 0.2814408
vn -0 0.9595786 0.2814408
vn -0 0.9595786 0.2814408
vn 0.032293648 0.44036087 0.89723986
vn 0.03229364 0.44036087 0.89723986
vn 0.032293644 0.44036087 0.89723986
vn 0.032293644 0.4403609 0.89723986
vn 0.2519037 0.96775234 0
vn 0.2519037 0.96775234 0
vn 0.2519037 0.96775234 0
vn 0.2519037 0.96775234 0
vn 0.9549806 0.29666814 0
vn 0.9549806 0.29666814 0
vn 0.9549806 0.29666814 0
vn 0.9549806 0.29666814 0
vn -0.9177934 0 -0.3970583
vn -0.9177934 0 -0.3970583
vn -0.9177934 0 -0.3970583
vn -0.9177934 0 -0.3970583
vn -0.36865413 0 -0.9295666
vn -0.36865413 0 -0.9295666
vn -0.36865413 0 -0.9295666
vn -0.36865413 0 -0.9295666
vn -0 0.25100863 -0.96798486
vn -0 0.25100863 -0.96798486
vn -0 0.25100863 -0.96798486
vn -0 0.25100863 -0.96798486
vn -0 0.9566782 -0.29114753
vn -0 0.9566782 -0.29114753
vn -0 0.9566782 -0.29114753
vn -0 0.9566782 -0.29114753
vn 0.36865413 0 -0.9295666
vn 0.36865413 0 -0.9295666
vn 0.36865413 0 -0.9295666
vn 0.36865413 0 -0.9295666
vn 0.9177934 0 -0.3970583
vn 0.9177934 0 -0.3970583
vn 0.9177934 0 -0.3970583
vn 0.9177934 0 -0.3970583
vn -0 -0.9481727 -0.31775537
vn -0 -0.9481727 -0.31775537
vn -0 -0.9481727 -0.31775537
vn -0 -0.9481727 -0.31775537
vn -0 -0.24040434 -0.97067285
vn -0 -0.24040434 -0.97067285
vn -0 -0.24040434 -0.97067285
vn -0 -0.24040434 -0.97067285
vn 0.037920274 0.0011507056 0.99928015
vn 0.037920278 0.0011507055 0.99928015
vn 0.03792028 0.0011507056 0.99928015
vn 0.037920278 0.0011507055 0.99928015
vn -0 1 0
vn -0 1 0
vn -0 1 0
vn -0 1 0
vn -0 0 -1
vn -0 0 -1
vn -0 0 -1
vn -0 0 -1
vn -0 -1 0
vn -0 -1 0
vn -0 -1 0
vn -0 -1 0
vn 1 0 0
vn 1 0 0
vn 1 0 0
vn 1 0 0
vn -1 0 0
vn -1 0 0
vn -1 0 0
vn -1 0 0
vn -0.92039216 -0.25891572 0.2929862
vn -0.92039216 -0.25891572 0.29298624
vn -0.92039216 -0.2589157 0.29298618
vn -0.92039216 -0.25891572 0.29298624
vn -0.19176054 -0.95020926 0.24562211
vn -0.19176054 -0.95020926 0.24562208
vn -0.19176054 -0.95020926 0.24562211
vn -0.19176051 -0.95020926 0.24562208
vn -0.23225512 -0.34278235 0.91025144
vn -0.23225515 -0.34278238 0.91025156
vn -0.23225515 -0.34278235 0.91025144
vn -0.23225512 -0.34278235 0.91025144
vn 0.19176054 -0.95020926 0.245622
vn 0.19176053 -0.95020926 0.245622
vn 0.19176054 -0.95020926 0.24562202
vn 0.19176051 -0.95020926 0.24562196
vn 0.91887766 -0.23324898 0.31821167
vn 0.91887766 -0.23324898 0.31821167
vn 0.91887766 -0.23324895 0.31821167
vn 0.91887766 -0.23324898 0.31821167
vn 0.31506884 -0.26683494 0.91078573
vn 0.31506884 -0.2668349 0.91078573
vn 0.31506887 -0.2668349 0.91078573
vn 0.31506884 -0.2668349 0.91078573
vn -0.20650482 0.9497452 0.2352442
vn -0.20650482 0.9497453 0.2352442
vn -0.20650482 0.9497452 0.23524421
vn -0.20650484 0.9497452 0.2352442
vn -0.9268165 0.26028135 0.27067456
vn -0.9268165 0.26028135 0.2706745
vn -0.9268165 0.26028135 0.27067453
vn -0.9268165 0.26028138 0.27067456
vn -0.25980324 0.3268652 0.90865916
vn -0.25980324 0.3268652 0.90865916
vn -0.25980327 0.32686517 0.90865916
vn -0.25980324 0.32686517 0.90865916
vn 0.92352444 0.21218504 0.31949988
vn 0.92352444 0.21218504 0.31949985
vn 0.92352444 0.21218503 0.3194999
vn 0.9235243 0.21218503 0.31949988
vn 0.20650482 0.9497452 0.2352443
vn 0.2065048 0.9497452 0.23524427
vn 0.20650482 0.9497452 0.2352443
vn 0.20650484 0.9497452 0.23524432
vn 0.3469075 0.2796705 0.89523166
vn 0.34690747 0.2796705 0.89523154
vn 0.3469075 0.2796705 0.89523166
vn 0.34690744 0.2796705 0.89523154
vn -0.291462 0.15994835 -0.9431153
vn -0.291462 0.15994835 -0.9431153
vn -0.291462 0.15994833 -0.9431153
vn -0.291462 0.15994835 -0.9431153
vn -0.9278188 0.20466515 -0.31187242
vn -0.9278189 0.20466514 -0.31187242
vn -0.9278188 0.20466515 -0.31187242
vn -0.9278189 0.20466517 -0.31187242
vn -0.20699678 0.94616294 -0.24885345
vn -0.20699677 0.94616294 -0.24885345
vn -0.20699674 0.94616294 -0.24885342
vn -0.20699677 0.94616294 -0.24885345
vn 0.9278189 0.20466506 -0.31187245
vn 0.9278189 0.20466506 -0.31187242
vn 0.9278189 0.20466505 -0.31187245
vn 0.9278189 0.20466505 -0.31187242
vn 0.29146203 0.15994835 -0.94311523
vn 0.291462 0.15994836 -0.9431153
vn 0.29146203 0.15994835 -0.94311523
vn 0.291462 0.15994836 -0.9431153
vn 0.20699677 0.94616294 -0.24885352
vn 0.20699677 0.94616294 -0.24885352
vn 0.20699677 0.94616294 -0.24885352
vn 0.20699677 0.94616294 -0.24885352
vn -0.19236287 -0.9460326 -0.26080438
vn -0.19236286 -0.9460326 -0.26080436
vn -0.19236286 -0.9460326 -0.26080438
vn -0.19236284 -0.9460326 -0.26080436
vn -0.9252573 -0.22222435 -0.307433
vn -0.9252573 -0.22222434 -0.30743304
vn -0.9252573 -0.22222434 -0.30743304
vn -0.9252573 -0.22222432 -0.30743307
vn -0.29046205 -0.13908203 -0.94672483
vn -0.29046202 -0.13908203 -0.94672483
vn -0.29046205 -0.13908201 -0.94672483
vn -0.29046205 -0.13908201 -0.94672483
vn 0.92525744 -0.22222427 -0.30743307
vn 0.92525744 -0.22222427 -0.30743307
vn 0.92525744 -0.22222425 -0.30743307
vn 0.92525744 -0.22222427 -0.3074331
vn 0.19236286 -0.9460326 -0.26080438
vn 0.19236289 -0.9460326 -0.26080436
vn 0.19236287 -0.9460326 -0.26080438
vn 0.19236287 -0.9460326 -0.26080436
vn 0.290462 -0.13908201 -0.94672483
vn 0.290462 -0.13908203 -0.94672483
vn 0.290462 -0.13908203 -0.94672483
vn 0.290462 -0.13908201 -0.94672483
vn -0.3154073 -0.37243506 0.8728175
vn -0.31540734 -0.37243506 0.8728175
vn -0.3154073 -0.37243506 0.8728175
vn -0.31540728 -0.37243506 0.8728175
vn 0.93523395 0.0019672734 0.35402477
vn 0.93523395 0.001967274 0.3540248
vn 0.93523395 0.0019672737 0.35402483
vn 0.93523395 0.0019672737 0.35402483
vn -0.21327718 0.80938876 0.547177
vn -0.21327719 0.80938876 0.5471771
vn -0.21327719 0.80938876 0.54717696
vn -0.21327719 0.80938876 0.547177
vn -0.8536088 0.0051249396 0.52088946
vn -0.8536088 0.0051249396 0.5208894
vn -0.8536088 0.0051249396 0.5208894
vn -0.8536088 0.0051249396 0.5208894
g fridge_col_0
f 3/3/3 2/2/2 1/1/1
f 4/4/4 3/3/3 1/1/1
f 7/7/7 6/6/6 5/5/5
f 8/8/8 7/7/7 5/5/5
f 11/11/11 10/10/10 9/9/9
f 12/12/12 11/11/11 9/9/9
f 15/15/15 14/14/14 13/13/13
f 16/16/16 15/15/15 13/13/13
f 19/19/19 18/18/18 17/17/17
f 20/20/20 19/19/19 17/17/17
f 23/23/23 22/22/22 21/21/21
f 24/24/24 23/23/23 21/21/21
f 27/27/27 26/26/26 25/25/25
f 28/28/28 27/27/27 25/25/25
f 31/31/31 30/30/30 29/29/29
f 32/32/32 31/31/31 29/29/29
f 35/35/35 34/34/34 33/33/33
f 36/36/36 35/35/35 33/33/33
f 39/39/39 38/38/38 37/37/37
f 40/40/40 39/39/39 37/37/37
f 43/43/43 42/42/42 41/41/41
f 44/44/44 43/43/43 41/41/41
f 47/47/47 46/46/46 45/45/45
f 48/48/48 47/47/47 45/45/45
f 51/51/51 50/50/50 49/49/49
f 52/52/52 51/51/51 49/49/49
f 55/55/55 54/54/54 53/53/53
f 56/56/56 55/55/55 53/53/53
f 59/59/59 58/58/58 57/57/57
f 60/60/60 59/59/59 57/57/57
f 63/63/63 62/62/62 61/61/61
f 64/64/64 63/63/63 61/61/61
f 67/67/67 66/66/66 65/65/65
f 68/68/68 67/67/67 65/65/65
f 71/71/71 70/70/70 69/69/69
f 72/72/72 71/71/71 69/69/69
f 75/75/75 74/74/74 73/73/73
f 76/76/76 75/75/75 73/73/73
f 79/79/79 78/78/78 77/77/77
f 80/80/80 79/79/79 77/77/77
f 83/83/83 82/82/82 81/81/81
f 84/84/84 83/83/83 81/81/81
f 87/87/87 86/86/86 85/85/85
f 88/88/88 87/87/87 85/85/85
f 91/91/91 90/90/90 89/89/89
f 92/92/92 91/91/91 89/89/89
f 95/95/95 94/94/94 93/93/93
f 96/96/96 95/95/95 93/93/93
f 99/99/99 98/98/98 97/97/97
f 100/100/100 99/99/99 97/97/97
f 103/103/103 102/102/102 101/101/101
f 104/104/104 103/103/103 101/101/101
f 107/107/107 106/106/106 105/105/105
f 108/108/108 107/107/107 105/105/105
f 111/111/111 110/110/110 109/109/109
f 112/112/112 111/111/111 109/109/109
f 115/115/115 114/114/114 113/113/113
f 116/116/116 115/115/115 113/113/113
f 119/119/119 118/118/118 117/117/117
f 120/120/120 119/119/119 117/117/117
f 123/123/123 122/122/122 121/121/121
f 124/124/124 123/123/123 121/121/121
f 127/127/127 126/126/126 125/125/125
f 128/128/128 127/127/127 125/125/125
f 131/131/131 130/130/130 129/129/129
f 132/132/132 131/131/131 129/129/129
f 135/135/135 134/134/134 133/133/133
f 136/136/136 135/135/135 133/133/133
f 139/139/139 138/138/138 137/137/137
f 140/140/140 139/139/139 137/137/137
f 143/143/143 142/142/142 141/141/141
f 144/144/144 143/143/143 141/141/141
f 147/147/147 146/146/146 145/145/145
f 148/148/148 147/147/147 145/145/145
f 151/151/151 150/150/150 149/149/149
f 152/152/152 151/151/151 149/149/149
f 155/155/155 154/154/154 153/153/153
f 156/156/156 155/155/155 153/153/153
f 159/159/159 158/158/158 157/157/157
f 160/160/160 159/159/159 157/157/157
f 163/163/163 162/162/162 161/161/161
f 164/164/164 163/163/163 161/161/161
f 167/167/167 166/166/166 165/165/165
f 168/168/168 167/167/167 165/165/165
f 171/171/171 170/170/170 169/169/169
f 172/172/172 171/171/171 169/169/169
f 175/175/175 174/174/174 173/173/173
f 176/176/176 175/175/175 173/173/173
f 179/179/179 178/178/178 177/177/177
f 180/180/180 179/179/179 177/177/177
f 183/183/183 182/182/182 181/181/181
f 184/184/184 183/183/183 181/181/181
f 187/187/187 186/186/186 185/185/185
f 188/188/188 187/187/187 185/185/185
f 191/191/191 190/190/190 189/189/189
f 192/192/192 191/191/191 189/189/189
f 195/195/195 194/194/194 193/193/193
f 196/196/196 195/195/195 193/193/193
f 199/199/199 198/198/198 197/197/197
f 200/200/200 199/199/199 197/197/197
f 203/203/203 202/202/202 201/201/201
f 204/204/204 203/203/203 201/201/201
f 207/207/207 206/206/206 205/205/205
f 208/208/208 207/207/207 205/205/205
f 211/211/211 210/210/210 209/209/209
f 212/212/212 211/211/211 209/209/209
f 215/215/215 214/214/214 213/213/213
f 216/216/216 215/215/215 213/213/213
f 219/219/219 218/218/218 217/217/217
f 220/220/220 219/219/219 217/217/217
f 223/223/223 222/222/222 221/221/221
f 224/224/224 223/223/223 221/221/221
f 227/227/227 226/226/226 225/225/225
f 228/228/228 227/227/227 225/225/225
f 231/231/231 230/230/230 229/229/229
f 232/232/232 231/231/231 229/229/229
