g grape_col
v -0.04776708 -0.42822573 -0.038640235
v 0.0022370778 -0.47291002 0.072238564
v 0.052241277 -0.42822573 -0.03864019
v -0.09777129 -0.41997805 0.04757595
v 0.0022370778 -0.47291002 0.072238564
v -0.04776708 -0.42822573 -0.038640235
v -0.047767118 -0.4117305 0.13379212
v 0.0022370778 -0.47291002 0.072238564
v -0.09777129 -0.41997805 0.04757595
v 0.05224125 -0.4117305 0.13379216
v 0.0022370778 -0.47291002 0.072238564
v -0.047767118 -0.4117305 0.13379212
v 0.10224543 -0.41997805 0.047575966
v 0.0022370778 -0.47291002 0.072238564
v 0.05224125 -0.4117305 0.13379216
v 0.052241277 -0.42822573 -0.03864019
v 0.0022370778 -0.47291002 0.072238564
v 0.10224543 -0.41997805 0.047575966
v 0.052241277 -0.42822573 -0.03864019
v -0.07771376 -0.3419058 -0.12949395
v -0.04776708 -0.42822573 -0.038640235
v 0.10363577 -0.3419058 -0.1294939
v -0.13650894 -0.16129345 -0.24526067
v 0.12519644 -0.16129345 -0.24526064
v -0.04776708 -0.42822573 -0.038640235
v -0.15030047 -0.30196488 0.008635238
v -0.09777129 -0.41997805 0.04757595
v -0.07771376 -0.3419058 -0.12949395
v -0.25946823 -0.16129345 -0.032289002
v -0.13650894 -0.16129345 -0.24526067
v -0.09777129 -0.41997805 0.04757595
v -0.0777138 -0.3272492 0.14676444
v -0.047767118 -0.4117305 0.13379212
v -0.15030047 -0.30196488 0.008635238
v -0.12072228 -0.16129345 0.18068267
v -0.25946823 -0.16129345 -0.032289002
v -0.047767118 -0.4117305 0.13379212
v 0.08218793 -0.3272492 0.14676444
v 0.05224125 -0.4117305 0.13379216
v -0.0777138 -0.3272492 0.14676444
v 0.12519634 -0.16129345 0.18068267
v -0.12072228 -0.16129345 0.18068267
v 0.05224125 -0.4117305 0.13379216
v 0.1835866 -0.33457747 0.008635264
v 0.10224543 -0.41997805 0.047575966
v 0.08218793 -0.3272492 0.14676444
v 0.24815562 -0.16129345 -0.03228897
v 0.12519634 -0.16129345 0.18068267
v 0.10224543 -0.41997805 0.047575966
v 0.10363577 -0.3419058 -0.1294939
v 0.052241277 -0.42822573 -0.03864019
v 0.1835866 -0.33457747 0.008635264
v 0.12519644 -0.16129345 -0.24526064
v 0.24815562 -0.16129345 -0.03228897
v 0.12519644 -0.16129345 -0.24526064
v 0.13256218 -0.018684596 -0.24696319
v -0.16197196 -0.018684596 -0.27355188
v -0.13650894 -0.16129345 -0.24526067
v -0.13650894 -0.16129345 -0.24526067
v -0.16197196 -0.018684596 -0.27355188
v -0.29533067 -0.023364905 -0.02953917
v -0.25946823 -0.16129345 -0.032289002
v -0.25946823 -0.16129345 -0.032289002
v -0.29533067 -0.023364905 -0.02953917
v -0.1584053 0.055900924 0.1911274
v -0.12072228 -0.16129345 0.18068267
v -0.12072228 -0.16129345 0.18068267
v -0.1584053 0.055900924 0.1911274
v 0.1837306 0.048776075 0.19629274
v 0.12519634 -0.16129345 0.18068267
v 0.12519634 -0.16129345 0.18068267
v 0.1837306 0.048776075 0.19629274
v 0.2628872 -0.018684596 -0.021233588
v 0.24815562 -0.16129345 -0.03228897
v 0.24815562 -0.16129345 -0.03228897
v 0.13256218 -0.018684596 -0.24696319
v 0.12519644 -0.16129345 -0.24526064
v 0.2628872 -0.018684596 -0.021233588
v 0.13400966 0.17367348 -0.24947034
v 0.2657821 0.17367348 -0.021233588
v 0.13256218 -0.018684596 -0.24696319
v 0.13400966 0.17367348 -0.24947034
v -0.12953542 0.17880249 -0.24947037
v -0.16197196 -0.018684596 -0.27355188
v -0.16197196 -0.018684596 -0.27355188
v -0.12953542 0.17880249 -0.24947037
v -0.23264053 0.16944191 -0.021233626
v -0.29533067 -0.023364905 -0.02953917
v -0.29533067 -0.023364905 -0.02953917
v -0.23264053 0.16944191 -0.021233626
v -0.13924658 0.17367348 0.2070031
v -0.1584053 0.055900924 0.1911274
v -0.09422723 0.11900474 0.25322032
v -0.11373922 0.20835963 0.24303456
v -0.11047366 0.31585738 0.10142933
v -0.23264053 0.16944191 -0.021233626
v -0.14019841 0.2657266 -0.027869409
v -0.08757317 0.3185462 0.13926409
v -0.019574523 0.29017335 0.016545199
v -0.017068155 0.34836236 0.021543026
v 0.13400966 0.17367348 -0.24947034
v 0.098416165 0.290173 -0.18782054
v -0.09394193 0.290173 -0.1878206
v -0.12953542 0.17880249 -0.24947037
v -0.12953542 0.17880249 -0.24947037
v -0.09394193 0.290173 -0.1878206
v -0.14019841 0.2657266 -0.027869409
v -0.23264053 0.16944191 -0.021233626
v 0.2657821 0.17367348 -0.021233588
v 0.19459516 0.290173 -0.021233585
v 0.098416165 0.290173 -0.18782054
v 0.13400966 0.17367348 -0.24947034
v 0.1837306 0.048776075 0.19629274
v 0.1797065 0.16118425 0.12547292
v 0.2657821 0.17367348 -0.021233588
v 0.2628872 -0.018684596 -0.021233588
v 0.1797065 0.16118425 0.12547292
v 0.1582598 0.28532615 0.10372752
v 0.19459516 0.290173 -0.021233585
v 0.2657821 0.17367348 -0.021233588
v -0.11373922 0.20835963 0.24303456
v -0.08757317 0.3185462 0.13926409
v 0.13459101 0.3043764 0.13220212
v 0.17422868 0.2031321 0.2340485
v -0.09422723 0.11900474 0.25322032
v -0.11373922 0.20835963 0.24303456
v 0.17422868 0.2031321 0.2340485
v 0.09132943 0.10421912 0.2575485
v 0.19459516 0.290173 -0.021233585
v 0.045860272 0.29017335 -0.021233585
v 0.024048684 0.29017335 -0.059012376
v 0.098416165 0.290173 -0.18782054
v 0.098416165 0.290173 -0.18782054
v 0.024048684 0.29017335 -0.059012376
v -0.019574508 0.29017335 -0.059012383
v -0.09394193 0.290173 -0.1878206
v -0.09394193 0.290173 -0.1878206
v -0.019574508 0.29017335 -0.059012383
v -0.041386113 0.29017335 -0.021233592
v -0.14019841 0.2657266 -0.027869409
v -0.14019841 0.2657266 -0.027869409
v -0.041386113 0.29017335 -0.021233592
v -0.019574523 0.29017335 0.016545199
v -0.11047366 0.31585738 0.10142933
v -0.08757317 0.3185462 0.13926409
v -0.017068155 0.34836236 0.021543026
v 0.035964355 0.34770116 0.023381263
v 0.13459101 0.3043764 0.13220212
v 0.1582598 0.28532615 0.10372752
v 0.035248928 0.29017335 0.01654521
v 0.045860272 0.29017335 -0.021233585
v 0.19459516 0.290173 -0.021233585
v 0.045860272 0.29017335 -0.021233585
v 0.041155048 0.45861515 0.018330727
v 0.021696072 0.47141138 -0.012849584
v 0.024048684 0.29017335 -0.059012376
v 0.024048684 0.29017335 -0.059012376
v 0.021696072 0.47141138 -0.012849584
v -0.017221898 0.47141138 -0.012849592
v -0.019574508 0.29017335 -0.059012383
v -0.019574508 0.29017335 -0.059012383
v -0.017221898 0.47141138 -0.012849592
v -0.036680892 0.45861515 0.01833072
v -0.041386113 0.29017335 -0.021233592
v -0.041386113 0.29017335 -0.021233592
v -0.036680892 0.45861515 0.01833072
v -0.017221905 0.44581887 0.04951103
v -0.019574523 0.29017335 0.016545199
v -0.019574523 0.29017335 0.016545199
v -0.017221905 0.44581887 0.04951103
v 0.02169606 0.44581887 0.04951103
v 0.035248928 0.29017335 0.01654521
v 0.035248928 0.29017335 0.01654521
v 0.02169606 0.44581887 0.04951103
v 0.041155048 0.45861515 0.018330727
v 0.045860272 0.29017335 -0.021233585
v 0.1797065 0.16118425 0.12547292
v 0.13459101 0.3043764 0.13220212
v 0.1582598 0.28532615 0.10372752
v 0.17422868 0.2031321 0.2340485
v 0.1837306 0.048776075 0.19629274
v 0.09132943 0.10421912 0.2575485
v -0.1584053 0.055900924 0.1911274
v -0.09422723 0.11900474 0.25322032
v 0.09132943 0.10421912 0.2575485
v 0.1837306 0.048776075 0.19629274
v 0.1582598 0.28532615 0.10372752
v 0.13459101 0.3043764 0.13220212
v 0.035964355 0.34770116 0.023381263
v 0.035248928 0.29017335 0.01654521
v -0.017221905 0.44581887 0.04951103
v 0.0022370778 0.45861515 0.01833072
v 0.02169606 0.44581887 0.04951103
v -0.036680892 0.45861515 0.01833072
v 0.041155048 0.45861515 0.018330727
v -0.017221898 0.47141138 -0.012849592
v 0.021696072 0.47141138 -0.012849584
vt 0.16666667 0.16666667
vt 0.083333336 0
vt 0 0.16666667
vt 0.33333334 0.16666667
vt 0.25 0
vt 0.16666667 0.16666667
vt 0.5 0.16666667
vt 0.4166667 0
vt 0.33333334 0.16666667
vt 0.6666667 0.16666667
vt 0.5833333 0
vt 0.5 0.16666667
vt 0.8333334 0.16666667
vt 0.75 0
vt 0.6666667 0.16666667
vt 1 0.16666667
vt 0.9166667 0
vt 0.8333334 0.16666667
vt 0 0.16666667
vt 0.16666667 0.23268884
vt 0.16666667 0.16666667
vt 0 0.23268884
vt 0.16666667 0.33333334
vt 0 0.33333334
vt 0.16666667 0.16666667
vt 0.33333334 0.23268884
vt 0.33333334 0.16666667
vt 0.16666667 0.23268884
vt 0.33333334 0.33333334
vt 0.16666667 0.33333334
vt 0.33333334 0.16666667
vt 0.5 0.23268884
vt 0.5 0.16666667
vt 0.33333334 0.23268884
vt 0.5 0.33333334
vt 0.33333334 0.33333334
vt 0.5 0.16666667
vt 0.6666667 0.23268884
vt 0.6666667 0.16666667
vt 0.5 0.23268884
vt 0.6666667 0.33333334
vt 0.5 0.33333334
vt 0.6666667 0.16666667
vt 0.8333334 0.23268884
vt 0.8333334 0.16666667
vt 0.6666667 0.23268884
vt 0.8333334 0.33333334
vt 0.6666667 0.33333334
vt 0.8333334 0.16666667
vt 1 0.23268884
vt 1 0.16666667
vt 0.8333334 0.23268884
vt 1 0.33333334
vt 0.8333334 0.33333334
vt 0 0.33333334
vt 0 0.5
vt 0.16666667 0.5
vt 0.16666667 0.33333334
vt 0.16666667 0.33333334
vt 0.16666667 0.5
vt 0.33333334 0.5
vt 0.33333334 0.33333334
vt 0.33333334 0.33333334
vt 0.33333334 0.5
vt 0.5 0.5
vt 0.5 0.33333334
vt 0.5 0.33333334
vt 0.5 0.5
vt 0.6666667 0.5
vt 0.6666667 0.33333334
vt 0.6666667 0.33333334
vt 0.6666667 0.5
vt 0.8333334 0.5
vt 0.8333334 0.33333334
vt 0.8333334 0.33333334
vt 1 0.5
vt 1 0.33333334
vt 0.8333334 0.5
vt 1 0.6666667
vt 0.8333334 0.6666667
vt 0 0.5
vt 0 0.6666667
vt 0.16666667 0.6666667
vt 0.16666667 0.5
vt 0.16666667 0.5
vt 0.16666667 0.6666667
vt 0.33333334 0.6666667
vt 0.33333334 0.5
vt 0.33333334 0.5
vt 0.33333334 0.6666667
vt 0.5 0.6666667
vt 0.5 0.5
vt 0.5 0.5
vt 0.5 0.6666667
vt 0.5 0.8333334
vt 0.33333334 0.6666667
vt 0.33333334 0.8333334
vt 0.5 0.8333334
vt 0.5416666 0.9166667
vt 0.5416666 0.9166667
vt 0 0.6666667
vt 0 0.8333334
vt 0.16666667 0.8333334
vt 0.16666667 0.6666667
vt 0.16666667 0.6666667
vt 0.16666667 0.8333334
vt 0.33333334 0.8333334
vt 0.33333334 0.6666667
vt 0.8333334 0.6666667
vt 0.8333334 0.8333334
vt 1 0.8333334
vt 1 0.6666667
vt 0.6666667 0.5
vt 0.6666667 0.6666667
vt 0.8333334 0.6666667
vt 0.8333334 0.5
vt 0.6666667 0.6666667
vt 0.6666667 0.8333334
vt 0.8333334 0.8333334
vt 0.8333334 0.6666667
vt 0.5 0.6666667
vt 0.5 0.8333334
vt 0.6666667 0.8333334
vt 0.6666667 0.6666667
vt 0.5 0.5
vt 0.5 0.6666667
vt 0.6666667 0.6666667
vt 0.6666667 0.5
vt 0.8333334 0.8333334
vt 0.875 0.9166667
vt 0.9583334 0.9166667
vt 1 0.8333334
vt 0 0.8333334
vt 0.041666668 0.9166667
vt 0.125 0.9166667
vt 0.16666667 0.8333334
vt 0.16666667 0.8333334
vt 0.20833334 0.9166667
vt 0.2916667 0.9166667
vt 0.33333334 0.8333334
vt 0.33333334 0.8333334
vt 0.375 0.9166667
vt 0.45833334 0.9166667
vt 0.5 0.8333334
vt 0.5 0.8333334
vt 0.5416666 0.9166667
vt 0.625 0.9166667
vt 0.6666667 0.8333334
vt 0.6666667 0.8333334
vt 0.7083334 0.9166667
vt 0.7916667 0.9166667
vt 0.8333334 0.8333334
vt 0.875 0.9166667
vt 0.875 0.9166667
vt 0.041666668 0.9166667
vt 0.041666668 0.9166667
vt 0.041666668 0.9166667
vt 0.041666668 0.9166667
vt 0.20833334 0.9166667
vt 0.20833334 0.9166667
vt 0.20833334 0.9166667
vt 0.20833334 0.9166667
vt 0.375 0.9166667
vt 0.375 0.9166667
vt 0.375 0.9166667
vt 0.375 0.9166667
vt 0.5416666 0.9166667
vt 0.5416666 0.9166667
vt 0.5416666 0.9166667
vt 0.5416666 0.9166667
vt 0.7083334 0.9166667
vt 0.7083334 0.9166667
vt 0.7083334 0.9166667
vt 0.7083334 0.9166667
vt 0.875 0.9166667
vt 0.875 0.9166667
vt 0.6666667 0.6666667
vt 0.6666667 0.8333334
vt 0.6666667 0.8333334
vt 0.6666667 0.6666667
vt 0.6666667 0.5
vt 0.6666667 0.5
vt 0.5 0.5
vt 0.5 0.5
vt 0.6666667 0.5
vt 0.6666667 0.5
vt 0.6666667 0.8333334
vt 0.6666667 0.8333334
vt 0.625 0.9166667
vt 0.625 0.9166667
vt 0.5416666 0.9166667
vt 0.45833334 0.9166667
vt 0.7083334 0.9166667
vt 0.375 0.9166667
vt 0.875 0.9166667
vt 0.20833334 0.9166667
vt 0.041666668 0.9166667
vn -0 -0.9275135 -0.37378973
vn -0 -0.9275135 -0.37378976
vn -0 -0.9275135 -0.37378973
vn -0.4295183 -0.88801104 -0.16416548
vn -0.4295183 -0.88801104 -0.16416551
vn -0.4295183 -0.88801104 -0.16416547
vn -0.5042381 -0.7815965 0.36722028
vn -0.5042381 -0.7815965 0.3672203
vn -0.5042382 -0.7815965 0.36722034
vn -0 -0.7092589 0.7049481
vn -0 -0.7092589 0.70494807
vn -0 -0.7092589 0.7049481
vn 0.5042382 -0.7815965 0.36722028
vn 0.5042382 -0.7815965 0.36722028
vn 0.50423825 -0.7815964 0.36722028
vn 0.42951846 -0.88801104 -0.16416524
vn 0.42951846 -0.88801104 -0.16416524
vn 0.42951846 -0.88801104 -0.16416523
vn -0 -0.7249641 -0.6887866
vn -0 -0.58181274 -0.8133228
vn -0 -0.7249641 -0.6887866
vn -0 -0.58091664 -0.813963
vn -0 -0.53963184 -0.8419012
vn -0 -0.5396318 -0.8419012
vn -0.7905563 -0.5222448 -0.31981415
vn -0.7584255 -0.553175 -0.3446568
vn -0.7905563 -0.5222449 -0.31981415
vn -0.7579117 -0.5536432 -0.34503496
vn -0.74771875 -0.56277466 -0.35242203
vn -0.74771875 -0.56277466 -0.352422
vn -0.8491155 -0.2891572 0.44203046
vn -0.81801015 -0.35665482 0.45128357
vn -0.84911555 -0.2891572 0.44203043
vn -0.80943775 -0.37336808 0.4532183
vn -0.8018698 -0.38757017 0.45474616
vn -0.8018698 -0.3875702 0.4547462
vn -0 -0.15177348 0.98841536
vn -0 -0.1915636 0.9814802
vn -0 -0.1517735 0.98841536
vn -0 -0.1915636 0.9814802
vn -0 -0.2002417 0.97974646
vn -0 -0.20024171 0.97974646
vn 0.74405104 -0.40635058 0.5303463
vn 0.80550003 -0.27081043 0.52709717
vn 0.744051 -0.40635055 0.53034633
vn 0.7982307 -0.2895009 0.5282206
vn 0.81412107 -0.24731806 0.5253958
vn 0.81412107 -0.24731806 0.5253958
vn 0.6234317 -0.717219 -0.31133536
vn 0.77301234 -0.46640274 -0.43002367
vn 0.6234316 -0.71721905 -0.31133538
vn 0.7620531 -0.49236375 -0.4205389
vn 0.7988802 -0.39519453 -0.45344433
vn 0.7988802 -0.3951945 -0.45344427
vn 0.047499824 -0.10148472 -0.99370253
vn 0.04749982 -0.10148472 -0.99370253
vn 0.04749982 -0.10148472 -0.99370253
vn 0.047499817 -0.10148471 -0.99370253
vn -0.84801763 -0.22889484 -0.4779889
vn -0.84801763 -0.22889484 -0.4779889
vn -0.84801763 -0.22889484 -0.47798884
vn -0.84801763 -0.22889484 -0.4779889
vn -0.81274253 -0.18879725 0.55118525
vn -0.81274253 -0.18879724 0.55118525
vn -0.81274253 -0.18879724 0.55118525
vn -0.81274253 -0.18879725 0.55118525
vn -0.009499202 -0.060402896 0.99812883
vn -0.0094992025 -0.060402896 0.99812883
vn -0.0094992025 -0.0604029 0.99812883
vn -0.009499203 -0.0604029 0.99812883
vn 0.8708092 -0.21435435 0.44242913
vn 0.8708092 -0.21435435 0.44242916
vn 0.8708092 -0.21435437 0.44242916
vn 0.8708092 -0.21435437 0.44242916
vn 0.86491454 -0.050634664 -0.49935853
vn 0.86491454 -0.050634664 -0.49935848
vn 0.86491454 -0.05063466 -0.49935848
vn 0.86491454 -0.050634664 -0.49935853
vn 0.865952 -0.013032233 -0.49995732
vn 0.86595196 -0.013032232 -0.49995732
vn 0.04799518 0.05103325 -0.997543
vn 0.04799518 0.051033247 -0.997543
vn 0.047995172 0.05103324 -0.997543
vn 0.04799518 0.051033247 -0.997543
vn -0.8693017 0.24738495 -0.42791986
vn -0.86930156 0.24738495 -0.42791983
vn -0.8693017 0.24738495 -0.42791986
vn -0.8693017 0.24738495 -0.42791983
vn -0.88624334 0.20106627 0.41730693
vn -0.88624334 0.20106627 0.41730693
vn -0.88141084 0.29098022 0.37208262
vn -0.88578725 0.19140622 0.42278194
vn -0.8754613 0.09516296 0.47382644
vn -0.8714253 0.27767864 0.4043668
vn -0.8316559 0.5383856 0.13597529
vn -0.82946247 0.5188968 0.20673159
vn -0.82946247 0.51889694 0.20673157
vn -0.84194577 0.52546275 0.122540854
vn -0.6283192 0.6057083 -0.488193
vn -0.62831926 0.6057083 -0.48819304
vn 0.0053540412 0.47588822 -0.8794894
vn 0.005354041 0.47588822 -0.8794894
vn 0.0053540412 0.47588822 -0.8794894
vn 0.0053540412 0.47588822 -0.8794894
vn -0.79107445 0.5555793 -0.2559937
vn -0.79107445 0.5555793 -0.2559937
vn -0.79107445 0.5555793 -0.25599372
vn -0.7910745 0.5555793 -0.25599372
vn 0.7654548 0.46773076 -0.4419353
vn 0.7654548 0.46773082 -0.4419353
vn 0.7654548 0.46773082 -0.4419353
vn 0.7654548 0.46773082 -0.4419353
vn 0.93106043 0.022583744 0.36416528
vn 0.93106043 0.022583744 0.36416522
vn 0.93106043 0.022583745 0.36416528
vn 0.93106043 0.022583744 0.36416528
vn 0.83791035 0.42839736 0.33820382
vn 0.8379104 0.42839736 0.3382038
vn 0.8379104 0.42839736 0.33820385
vn 0.8379104 0.42839736 0.33820382
vn 0.049015056 0.69794667 0.7144704
vn 0.049015053 0.69794667 0.7144704
vn 0.049015056 0.6979467 0.7144704
vn 0.049015064 0.6979468 0.7144704
vn 0.06425889 0.4291125 0.9009624
vn 0.064258896 0.42911246 0.9009624
vn 0.06425889 0.4291125 0.9009624
vn 0.06425889 0.4291125 0.9009624
vn -0 1 0
vn -0 1 0
vn -0 1 0
vn -0 1 0
vn -0 1 0
vn -0 1 0
vn -0 1 0
vn -0 1 0
vn -0.18388824 0.9812338 0.058012098
vn -0.18388823 0.9812338 0.058012094
vn -0.18388821 0.9812338 0.058012094
vn -0.18388821 0.9812338 0.05801209
vn -0.099955425 0.9610846 -0.25753686
vn -0.09995542 0.9610846 -0.25753686
vn -0.09995542 0.9610846 -0.25753683
vn -0.09995542 0.9610846 -0.25753683
vn 0.057013366 0.95213115 0.3003261
vn 0.05701336 0.95213115 0.30032605
vn 0.057013363 0.95213115 0.3003261
vn 0.057013366 0.95213115 0.30032608
vn 0.0075777853 0.99946064 0.031952977
vn 0.0075777853 0.99946064 0.031952977
vn 0.007577786 0.99946064 0.031952977
vn 0.0075777858 0.99946064 0.03195298
vn 0.8609558 0.137446 -0.48975894
vn 0.8609558 0.13744602 -0.48975894
vn 0.8609558 0.13744602 -0.489759
vn 0.8609558 0.13744602 -0.48975894
vn -0 0.24682727 -0.96905947
vn -0 0.2468273 -0.96905947
vn -0 0.2468273 -0.96905947
vn -0 0.24682727 -0.96905947
vn -0.8609555 0.13744608 -0.48975927
vn -0.8609555 0.13744606 -0.48975927
vn -0.8609556 0.13744608 -0.4897593
vn -0.8609556 0.13744608 -0.4897593
vn -0.86185944 -0.092812575 0.49858212
vn -0.86185944 -0.09281256 0.49858207
vn -0.86185944 -0.09281257 0.49858212
vn -0.86185944 -0.09281256 0.49858218
vn -0 -0.20720412 0.97829777
vn -0 -0.2072041 0.97829777
vn -0 -0.20720412 0.97829777
vn -0 -0.20720409 0.97829777
vn 0.91849035 -0.036379267 0.39376655
vn 0.91849035 -0.036379263 0.39376652
vn 0.91849035 -0.036379267 0.39376652
vn 0.91849035 -0.036379263 0.39376655
vn 0.9221404 0.123746485 0.36652955
vn 0.90911216 0.3934613 0.13675988
vn 0.90911216 0.3934613 0.13675986
vn 0.9186459 0.10389531 0.3811762
vn 0.86539 -0.06815846 0.4964418
vn 0.86539 -0.06815846 0.49644175
vn -0.021536231 -0.83916444 0.5434513
vn -0.021536231 -0.83916444 0.54345125
vn -0.02153623 -0.83916444 0.5434513
vn -0.021536233 -0.83916444 0.5434513
vn 0.6394539 0.47163877 -0.60717016
vn 0.63945395 0.47163877 -0.60717016
vn 0.63945395 0.4716388 -0.60717016
vn 0.6394539 0.4716388 -0.60717016
vn -0 0.92512244 0.37966886
vn -0 0.92512447 0.37966397
vn -0 0.92512345 0.37966636
vn -0 0.92512447 0.37966394
vn -0 0.92512447 0.37966394
vn -0 0.92512345 0.37966636
vn -0 0.92512447 0.37966394
g grape_col_0
f 3/3/3 2/2/2 1/1/1
f 6/6/6 5/5/5 4/4/4
f 9/9/9 8/8/8 7/7/7
f 12/12/12 11/11/11 10/10/10
f 15/15/15 14/14/14 13/13/13
f 18/18/18 17/17/17 16/16/16
f 21/21/21 20/20/20 19/19/19
f 20/20/20 22/22/22 19/19/19
f 20/20/20 23/23/23 22/22/22
f 23/23/23 24/24/24 22/22/22
f 27/27/27 26/26/26 25/25/25
f 26/26/26 28/28/28 25/25/25
f 26/26/26 29/29/29 28/28/28
f 29/29/29 30/30/30 28/28/28
f 33/33/33 32/32/32 31/31/31
f 32/32/32 34/34/34 31/31/31
f 32/32/32 35/35/35 34/34/34
f 35/35/35 36/36/36 34/34/34
f 39/39/39 38/38/38 37/37/37
f 38/38/38 40/40/40 37/37/37
f 38/38/38 41/41/41 40/40/40
f 41/41/41 42/42/42 40/40/40
f 45/45/45 44/44/44 43/43/43
f 44/44/44 46/46/46 43/43/43
f 44/44/44 47/47/47 46/46/46
f 47/47/47 48/48/48 46/46/46
f 51/51/51 50/50/50 49/49/49
f 50/50/50 52/52/52 49/49/49
f 50/50/50 53/53/53 52/52/52
f 53/53/53 54/54/54 52/52/52
f 57/57/57 56/56/56 55/55/55
f 58/58/58 57/57/57 55/55/55
f 61/61/61 60/60/60 59/59/59
f 62/62/62 61/61/61 59/59/59
f 65/65/65 64/64/64 63/63/63
f 66/66/66 65/65/65 63/63/63
f 69/69/69 68/68/68 67/67/67
f 70/70/70 69/69/69 67/67/67
f 73/73/73 72/72/72 71/71/71
f 74/74/74 73/73/73 71/71/71
f 77/77/77 76/76/76 75/75/75
f 76/76/76 78/78/78 75/75/75
f 76/76/76 79/79/79 78/78/78
f 79/79/79 80/80/80 78/78/78
f 83/83/83 82/82/82 81/81/81
f 84/84/84 83/83/83 81/81/81
f 87/87/87 86/86/86 85/85/85
f 88/88/88 87/87/87 85/85/85
f 91/91/91 90/90/90 89/89/89
f 92/92/92 91/91/91 89/89/89
f 92/92/92 93/93/93 91/91/91
f 93/93/93 94/94/94 91/91/91
f 91/91/91 94/94/94 95/95/95
f 91/91/91 95/95/95 96/96/96
f 95/95/95 97/97/97 96/96/96
f 94/94/94 98/98/98 95/95/95
f 95/95/95 98/98/98 99/99/99
f 98/98/98 100/100/100 99/99/99
f 103/103/103 102/102/102 101/101/101
f 104/104/104 103/103/103 101/101/101
f 107/107/107 106/106/106 105/105/105
f 108/108/108 107/107/107 105/105/105
f 111/111/111 110/110/110 109/109/109
f 112/112/112 111/111/111 109/109/109
f 115/115/115 114/114/114 113/113/113
f 116/116/116 115/115/115 113/113/113
f 119/119/119 118/118/118 117/117/117
f 120/120/120 119/119/119 117/117/117
f 123/123/123 122/122/122 121/121/121
f 124/124/124 123/123/123 121/121/121
f 127/127/127 126/126/126 125/125/125
f 128/128/128 127/127/127 125/125/125
f 131/131/131 130/130/130 129/129/129
f 132/132/132 131/131/131 129/129/129
f 135/135/135 134/134/134 133/133/133
f 136/136/136 135/135/135 133/133/133
f 139/139/139 138/138/138 137/137/137
f 140/140/140 139/139/139 137/137/137
f 143/143/143 142/142/142 141/141/141
f 144/144/144 143/143/143 141/141/141
f 147/147/147 146/146/146 145/145/145
f 148/148/148 147/147/147 145/145/145
f 151/151/151 150/150/150 149/149/149
f 152/152/152 151/151/151 149/149/149
f 155/155/155 154/154/154 153/153/153
f 156/156/156 155/155/155 153/153/153
f 159/159/159 158/158/158 157/157/157
f 160/160/160 159/159/159 157/157/157
f 163/163/163 162/162/162 161/161/161
f 164/164/164 163/163/163 161/161/161
f 167/167/167 166/166/166 165/165/165
f 168/168/168 167/167/167 165/165/165
f 171/171/171 170/170/170 169/169/169
f 172/172/172 171/171/171 169/169/169
f 175/175/175 174/174/174 173/173/173
f 176/176/176 175/175/175 173/173/173
f 179/179/179 178/178/178 177/177/177
f 178/178/178 180/180/180 177/177/177
f 177/177/177 180/180/180 181/181/181
f 180/180/180 182/182/182 181/181/181
f 185/185/185 184/184/184 183/183/183
f 186/186/186 185/185/185 183/183/183
f 189/189/189 188/188/188 187/187/187
f 190/190/190 189/189/189 187/187/187
f 193/193/193 192/192/192 191/191/191
f 191/191/191 192/192/192 194/194/194
f 195/195/195 192/192/192 193/193/193
f 194/194/194 192/192/192 196/196/196
f 197/197/197 192/192/192 195/195/195
f 196/196/196 192/192/192 197/197/197
