g hotdog_col
v 0.41242823 0.13096866 -0.060627863
v 0.48147637 0.1261502 -0.0019193655
v 0.4119917 0.15324327 -0.03896024
v 0.3413589 0.0868709 -0.12686905
v 0.3372511 0.1634041 -0.05317376
v 0.26835707 0.0514969 -0.15827388
v 0.25930613 0.15230832 -0.06414726
v 0.17705207 0.028663497 -0.18549612
v 0.16930309 0.14005369 -0.069705404
v 0.08344672 0.01869502 -0.18521026
v 0.07954834 0.13128397 -0.074703656
v -0.012155778 0.013785269 -0.20759791
v -0.011576084 0.12860177 -0.08037592
v -0.10685822 0.021493927 -0.19005728
v -0.10166615 0.13504955 -0.074756585
v -0.20096892 0.038842544 -0.17897478
v -0.1916981 0.1486029 -0.07045266
v -0.2931428 0.07522411 -0.15311629
v -0.28166357 0.16534895 -0.061950665
v -0.3686033 0.115235314 -0.089963146
v -0.37567165 0.17952073 -0.045401018
v -0.4412735 0.15112346 -0.06435545
v -0.43704203 0.16344848 -0.0403663
v -0.46939197 0.13833594 -0.0016324472
v -0.45050022 0.11737273 -0.072659954
v -0.46939197 0.13833594 -0.0016324472
v -0.38401356 0.0721916 -0.11451525
v -0.31303796 0.0016450947 -0.17495057
v -0.21702103 -0.036521528 -0.20055243
v -0.46196386 0.08434706 -0.06342421
v -0.46939197 0.13833594 -0.0016324472
v -0.4127499 0.016991558 -0.10580587
v -0.11591392 -0.053475138 -0.21483937
v -0.33218122 -0.06713481 -0.15008318
v -0.47218603 0.060603134 -0.03752426
v -0.46939197 0.13833594 -0.0016324472
v -0.43486747 -0.020552631 -0.064979844
v -0.23237321 -0.111595415 -0.17066243
v -0.01332357 -0.05965265 -0.21910807
v -0.47545856 0.052238334 0.0012946714
v -0.46939197 0.13833594 -0.0016324472
v -0.34607643 -0.11301843 -0.085836105
v -0.12464081 -0.13120869 -0.18328944
v 0.09035581 -0.055870257 -0.2140072
v -0.4400981 -0.032716177 0.0012946827
v -0.24319308 -0.16224653 -0.096918106
v -0.014341751 -0.13734782 -0.1879704
v 0.1914822 -0.04410006 -0.19780871
v -0.47182262 0.060571615 0.039779674
v -0.46939197 0.13833594 -0.0016324472
v -0.35128427 -0.12661573 0.0012946964
v -0.1306864 -0.18293294 -0.1038125
v 0.09709735 -0.13393757 -0.18289477
v 0.28581604 -0.01659239 -0.18059725
v -0.43486747 -0.020552607 0.06756922
v -0.24714595 -0.17650673 0.0013022937
v -0.015027015 -0.18969816 -0.10634386
v 0.20554903 -0.11766609 -0.16800252
v 0.34913418 0.029400712 -0.13963261
v -0.45911273 0.08358905 0.06285272
v -0.46939197 0.13833594 -0.0016324472
v -0.13281563 -0.19530615 0.001415991
v 0.10179601 -0.18545988 -0.10324275
v 0.30494317 -0.08334437 -0.15431923
v 0.42772952 0.099348076 -0.085879646
v 0.48147637 0.1261502 -0.0019193655
v 0.37980908 -0.024224576 -0.12623513
v 0.21532455 -0.16695794 -0.09457793
v -0.015268005 -0.20131275 0.0015329283
v 0.44065672 0.065530926 -0.07102329
v 0.48147637 0.1261502 -0.0019193655
v 0.3186605 -0.12932548 -0.08775944
v 0.103449546 -0.19766837 0.0014148029
v 0.40382418 -0.06168928 -0.0758679
v 0.21870619 -0.18061078 0.0013023018
v 0.456053 0.041655634 -0.036835883
v 0.48147637 0.1261502 -0.0019193655
v 0.32405022 -0.14276424 0.0012946951
v 0.4114419 -0.07354397 0.0012946933
v 0.47180015 0.034900926 0.007965436
v 0.48147637 0.1261502 -0.0019193655
v -0.015047555 -0.18212104 0.109906755
v 0.101782925 -0.18007234 0.10643103
v 0.21529762 -0.16395685 0.097163394
v 0.319984 -0.123737805 0.09034891
v 0.40419918 -0.053829525 0.07576463
v -0.13069955 -0.17749721 0.10700369
v 0.4786361 0.047152355 0.051490135
v 0.48147637 0.1261502 -0.0019193655
v -0.24317734 -0.16142207 0.09949978
v -0.3460764 -0.11301838 0.08842554
v -0.41668767 0.014930903 0.109468274
v -0.3321875 -0.06743073 0.15263337
v -0.23238106 -0.111077935 0.17337212
v -0.44215798 0.11603207 0.066930495
v -0.46939197 0.13833594 -0.0016324472
v -0.39293236 0.067524366 0.11953502
v -0.12466976 -0.12500623 0.18714425
v -0.3130255 0.00013884297 0.1773454
v -0.42888448 0.15004751 0.055559993
v -0.46939197 0.13833594 -0.0016324472
v -0.37524915 0.121029966 0.086946525
v -0.2170536 -0.03797653 0.2026487
v -0.014381256 -0.12895137 0.19232762
v -0.42621964 0.16567603 0.028431334
v -0.46939197 0.13833594 -0.0016324472
v -0.29308498 0.07318841 0.15537834
v -0.11595693 -0.050025508 0.2184113
v 0.09706855 -0.12777701 0.18674359
v -0.37275445 0.1719665 0.0407125
v -0.20098054 0.04092163 0.17716685
v -0.013375532 -0.05420114 0.22420546
v 0.20551974 -0.11520455 0.17072538
v -0.42657053 0.18723658 -0.0009588364
v -0.46939197 0.13833594 -0.0016324472
v -0.2821764 0.14970633 0.053410932
v -0.10690957 0.026501015 0.18976003
v 0.090312846 -0.05249095 0.21841863
v 0.30792436 -0.078686036 0.15683162
v -0.36800492 0.19416696 0.00167405
v -0.19214547 0.13158445 0.062829144
v -0.01229202 0.021121234 0.19421142
v 0.19145349 -0.043922447 0.20075166
v 0.3800121 -0.012141107 0.12128829
v -0.43704203 0.16344848 -0.0403663
v -0.46939197 0.13833594 -0.0016324472
v -0.37567165 0.17952073 -0.045401018
v -0.2733736 0.19130975 0.0017133463
v -0.28166357 0.16534895 -0.061950665
v -0.18471807 0.18014544 0.0016603192
v -0.1916981 0.1486029 -0.07045266
v -0.10196141 0.118619785 0.06813238
v -0.097685516 0.16807443 0.0017023971
v -0.10166615 0.13504955 -0.074756585
v -0.011673609 0.11277754 0.06997005
v -0.011112398 0.1621376 0.001736331
v -0.011576084 0.12860177 -0.08037592
v 0.08339542 0.023713721 0.1897442
v 0.07969768 0.11500486 0.06807372
v 0.07656779 0.16393197 0.0017020106
v 0.07954834 0.13128397 -0.074703656
v 0.17703003 0.027254611 0.18283328
v 0.16964492 0.12341486 0.062039737
v 0.16415733 0.1721606 0.0016623898
v 0.16930309 0.14005369 -0.069705404
v 0.2900121 -0.014100675 0.1831891
v 0.27244553 0.052465577 0.16075808
v 0.2627955 0.13709396 0.055757064
v 0.2532904 0.18150315 0.0017093818
v 0.25930613 0.15230832 -0.06414726
v 0.3608119 0.039491497 0.13949895
v 0.35189906 0.09172377 0.1295219
v 0.3434308 0.14996639 0.044130404
v 0.32941076 0.18546674 0.0017192509
v 0.3372511 0.1634041 -0.05317376
v 0.46717763 0.07218425 0.085360214
v 0.48147637 0.1261502 -0.0019193655
v 0.44482002 0.100583784 0.0900015
v 0.48147637 0.1261502 -0.0019193655
v 0.4197907 0.12618239 0.06934149
v 0.48147637 0.1261502 -0.0019193655
v 0.41469893 0.15017998 0.04068422
v 0.48147637 0.1261502 -0.0019193655
v 0.4065489 0.18507129 0.0011622859
v 0.48147637 0.1261502 -0.0019193655
v 0.4119917 0.15324327 -0.03896024
v 0.48147637 0.1261502 -0.0019193655
vt 0.59282523 0.066929646
vt 0.5771062 0.035491504
vt 0.5613871 0.066929646
vt 0.59282523 0.09836779
vt 0.5613871 0.09836779
vt 0.59282523 0.12980591
vt 0.5613871 0.12980591
vt 0.59282523 0.16124403
vt 0.5613871 0.16124403
vt 0.59282523 0.1926822
vt 0.5613871 0.1926822
vt 0.59282523 0.22412033
vt 0.5613871 0.22412032
vt 0.59282523 0.25555843
vt 0.5613871 0.25555843
vt 0.59282523 0.2869966
vt 0.5613871 0.2869966
vt 0.59282523 0.31843475
vt 0.5613871 0.31843475
vt 0.59282523 0.3498728
vt 0.5613871 0.3498728
vt 0.59282523 0.38131097
vt 0.5613871 0.38131097
vt 0.5771062 0.41274917
vt 0.6242634 0.38131097
vt 0.6085443 0.41274917
vt 0.6242634 0.3498728
vt 0.6242634 0.31843475
vt 0.6242634 0.2869966
vt 0.6557015 0.38131097
vt 0.63998246 0.41274917
vt 0.6557015 0.3498728
vt 0.6242634 0.25555843
vt 0.6557015 0.31843475
vt 0.68713963 0.38131097
vt 0.6714206 0.41274917
vt 0.68713963 0.3498728
vt 0.6557015 0.2869966
vt 0.6242634 0.22412032
vt 0.71857786 0.38131097
vt 0.70285875 0.41274917
vt 0.68713963 0.31843475
vt 0.6557015 0.25555843
vt 0.6242634 0.1926822
vt 0.71857786 0.3498728
vt 0.68713963 0.2869966
vt 0.6557015 0.22412032
vt 0.6242634 0.16124403
vt 0.750016 0.38131097
vt 0.73429686 0.41274917
vt 0.71857786 0.31843475
vt 0.68713963 0.25555843
vt 0.6557015 0.1926822
vt 0.6242634 0.12980591
vt 0.750016 0.3498728
vt 0.71857786 0.2869966
vt 0.68713963 0.22412032
vt 0.6557015 0.16124403
vt 0.6242634 0.09836779
vt 0.7814541 0.38131097
vt 0.76573503 0.41274917
vt 0.71857786 0.25555843
vt 0.68713963 0.1926822
vt 0.6557015 0.12980591
vt 0.6242634 0.066929646
vt 0.6085443 0.035491504
vt 0.6557015 0.09836779
vt 0.68713963 0.16124403
vt 0.71857786 0.22412032
vt 0.6557015 0.066929646
vt 0.63998246 0.035491504
vt 0.68713963 0.12980591
vt 0.71857786 0.1926822
vt 0.68713963 0.09836779
vt 0.71857786 0.16124403
vt 0.68713963 0.066929646
vt 0.6714206 0.035491504
vt 0.71857786 0.12980591
vt 0.71857786 0.09836779
vt 0.71857786 0.066929646
vt 0.70285875 0.035491504
vt 0.750016 0.22412032
vt 0.750016 0.1926822
vt 0.750016 0.16124403
vt 0.750016 0.12980591
vt 0.750016 0.09836779
vt 0.750016 0.25555843
vt 0.750016 0.066929646
vt 0.73429686 0.035491504
vt 0.750016 0.2869966
vt 0.750016 0.31843475
vt 0.7814541 0.3498728
vt 0.7814541 0.31843475
vt 0.7814541 0.2869966
vt 0.8128922 0.38131097
vt 0.7971732 0.41274917
vt 0.8128922 0.3498728
vt 0.7814541 0.25555843
vt 0.8128922 0.31843475
vt 0.8443303 0.38131097
vt 0.8286113 0.41274917
vt 0.8443303 0.3498728
vt 0.8128922 0.2869966
vt 0.7814541 0.22412032
vt 0.8757685 0.38131097
vt 0.8600494 0.41274917
vt 0.8443303 0.31843475
vt 0.8128922 0.25555843
vt 0.7814541 0.1926822
vt 0.8757685 0.3498728
vt 0.8443303 0.2869966
vt 0.8128922 0.22412032
vt 0.7814541 0.16124403
vt 0.9072066 0.38131097
vt 0.8914876 0.41274917
vt 0.8757685 0.31843475
vt 0.8443303 0.25555843
vt 0.8128922 0.1926822
vt 0.7814541 0.12980591
vt 0.9072066 0.3498728
vt 0.8757685 0.2869966
vt 0.8443303 0.22412032
vt 0.8128922 0.16124403
vt 0.7814541 0.09836779
vt 0.9386447 0.38131097
vt 0.9229257 0.41274917
vt 0.9386447 0.3498728
vt 0.9072066 0.31843475
vt 0.9386447 0.31843475
vt 0.9072066 0.2869966
vt 0.9386447 0.2869966
vt 0.8757685 0.25555843
vt 0.9072066 0.25555843
vt 0.9386447 0.25555843
vt 0.8757685 0.22412032
vt 0.9072066 0.22412032
vt 0.9386447 0.22412032
vt 0.8443303 0.1926822
vt 0.8757685 0.1926822
vt 0.9072066 0.1926822
vt 0.9386447 0.1926822
vt 0.8443303 0.16124403
vt 0.8757685 0.16124403
vt 0.9072066 0.16124403
vt 0.9386447 0.16124403
vt 0.8128922 0.12980591
vt 0.8443303 0.12980591
vt 0.8757685 0.12980591
vt 0.9072066 0.12980591
vt 0.9386447 0.12980591
vt 0.8128922 0.09836779
vt 0.8443303 0.09836779
vt 0.8757685 0.09836779
vt 0.9072066 0.09836779
vt 0.9386447 0.09836779
vt 0.7814541 0.066929646
vt 0.76573503 0.035491504
vt 0.8128922 0.066929646
vt 0.7971732 0.035491504
vt 0.8443303 0.066929646
vt 0.8286113 0.035491504
vt 0.8757685 0.066929646
vt 0.8600494 0.035491504
vt 0.9072066 0.066929646
vt 0.8914876 0.035491504
vt 0.9386447 0.066929646
vt 0.9229257 0.035491504
vn 0.46570975 0.5898753 -0.65966785
vn 0.94501317 0.3270321 0
vn 0.3632059 0.8522063 -0.37659806
vn 0.15724753 0.5681656 -0.8077507
vn 0.051787328 0.88819146 -0.45654577
vn -0.042823084 0.5250318 -0.8500046
vn -0.13100512 0.86892736 -0.4772871
vn -0.068170704 0.51665443 -0.8534758
vn -0.12867466 0.86983114 -0.47627372
vn -0.028253714 0.5234558 -0.8515843
vn -0.05600762 0.87931305 -0.47293937
vn 0.020427102 0.56955254 -0.82170105
vn 0.011553261 0.8811036 -0.47278222
vn 0.05125801 0.5204113 -0.852376
vn 0.089682154 0.87558335 -0.47466925
vn 0.062300317 0.51882005 -0.85261035
vn 0.13195746 0.8686101 -0.47760212
vn -0.016103081 0.53892916 -0.84219706
vn 0.07807609 0.87704843 -0.4740149
vn -0.22031623 0.5804327 -0.7839379
vn -0.113741115 0.8897216 -0.44210705
vn -0.64210045 0.57859206 -0.5029297
vn -0.5575675 0.7793157 -0.28598157
vn -0.93495864 0.35475683 0
vn -0.75461954 0.28939503 -0.5888972
vn -0.93495864 0.35475683 0
vn -0.36536533 0.12764029 -0.9220717
vn -0.14659984 0.04377247 -0.98822695
vn -0.035677753 0.0025629026 -0.99936
vn -0.8594392 -0.0077584647 -0.51117903
vn -0.93495864 0.35475683 0
vn -0.50148815 -0.33585054 -0.7973168
vn -0.0035819446 -0.009784383 -0.99994576
vn -0.27020162 -0.45597893 -0.84798247
vn -0.9292375 -0.22373825 -0.294039
vn -0.93495864 0.35475683 0
vn -0.5911896 -0.665829 -0.45515543
vn -0.12825501 -0.51172966 -0.8495195
vn -0.0006718373 -0.012423091 -0.99992263
vn -0.9533219 -0.3019562 0
vn -0.93495864 0.35475683 0
vn -0.351515 -0.8037453 -0.480032
vn -0.055257488 -0.5338225 -0.8437892
vn 0.012263334 -0.0109168375 -0.9998652
vn -0.62174994 -0.7832158 0
vn -0.18789844 -0.859451 -0.47543466
vn -0.0070154704 -0.54108995 -0.84093547
vn 0.018224683 -0.008769281 -0.9997955
vn -0.9292375 -0.22373739 0.29403937
vn -0.93495864 0.35475683 0
vn -0.37904695 -0.9253775 0
vn -0.0878528 -0.8796038 -0.4675244
vn 0.051123515 -0.53805315 -0.84135914
vn 0.07906506 0.018534815 -0.9966972
vn -0.5911898 -0.6658286 0.4551559
vn -0.20766184 -0.9782007 0
vn -0.010770372 -0.885934 -0.4636862
vn 0.100074984 -0.52785015 -0.84342116
vn 0.29831973 0.10175261 -0.94902676
vn -0.859439 -0.007757514 0.5111794
vn -0.93495864 0.35475683 0
vn -0.098419495 -0.995145 0
vn 0.075895235 -0.88247335 -0.46419895
vn 0.19296168 -0.48958907 -0.85033417
vn 0.59937257 0.21526724 -0.7709815
vn 0.94501317 0.3270321 0
vn 0.42855105 -0.37567648 -0.8217124
vn 0.15213734 -0.8708375 -0.46743587
vn -0.011927039 -0.99992895 0
vn 0.7217729 -0.1688239 -0.6712245
vn 0.94501317 0.3270321 0
vn 0.26594815 -0.8372297 -0.47782642
vn 0.08397291 -0.99646807 0
vn 0.5135633 -0.7175437 -0.47051436
vn 0.16913393 -0.985593 0
vn 0.80324847 -0.4511129 -0.38895896
vn 0.94501317 0.3270321 0
vn 0.29010388 -0.9569951 0
vn 0.5425433 -0.84002775 0
vn 0.83178645 -0.55509573 0
vn 0.94501317 0.3270321 0
vn -0.010770439 -0.8859338 0.4636866
vn 0.075895086 -0.8824732 0.46419936
vn 0.15213735 -0.87083733 0.46743616
vn 0.26594827 -0.83722943 0.47782674
vn 0.5135632 -0.7175435 0.47051466
vn -0.08785273 -0.8796035 0.46752486
vn 0.8032487 -0.4511126 0.38895884
vn 0.94501317 0.3270321 0
vn -0.18789843 -0.85945076 0.4754351
vn -0.35151497 -0.8037451 0.48003244
vn -0.50148827 -0.33584964 0.7973171
vn -0.27020165 -0.45597818 0.8479829
vn -0.12825476 -0.5117289 0.84951997
vn -0.7546195 0.28939533 0.58889705
vn -0.93495864 0.35475683 0
vn -0.36536556 0.12764059 0.92207146
vn -0.05525744 -0.5338218 0.84378964
vn -0.14660004 0.04377249 0.98822683
vn -0.64210063 0.5785919 0.5029297
vn -0.93495864 0.35475683 0
vn -0.22031671 0.58043325 0.78393734
vn -0.03567769 0.002562758 0.99936
vn -0.007015591 -0.5410895 0.8409358
vn -0.55756754 0.7793158 0.2859812
vn -0.93495864 0.35475683 0
vn -0.016103132 0.53892946 0.842197
vn -0.003582053 -0.009784545 0.99994576
vn 0.051123258 -0.5380527 0.8413594
vn -0.11374119 0.88972175 0.44210643
vn 0.06230044 0.5188205 0.85261
vn -0.00067189673 -0.012422946 0.99992263
vn 0.10007495 -0.5278497 0.84342146
vn -0.52644265 0.85021067 0
vn -0.93495864 0.35475683 0
vn 0.07807618 0.8770486 0.47401443
vn 0.05125794 0.5204117 0.85237575
vn 0.01226315 -0.0109162135 0.9998652
vn 0.1929618 -0.4895886 0.85033447
vn -0.07517709 0.99717027 0
vn 0.13195756 0.86861026 0.47760168
vn 0.006421482 0.5240334 0.8516735
vn 0.018224599 -0.008768419 0.9997955
vn 0.4285508 -0.37567577 0.82171273
vn -0.5575675 0.7793157 -0.28598157
vn -0.93495864 0.35475683 0
vn -0.113741115 0.8897216 -0.44210705
vn 0.111646086 0.99374807 0
vn 0.07807609 0.87704843 -0.4740149
vn 0.15639524 0.9876946 0
vn 0.13195746 0.8686101 -0.47760212
vn 0.08968207 0.87558377 0.4746686
vn 0.10295541 0.994686 0
vn 0.089682154 0.87558335 -0.47466925
vn 0.011553323 0.88110375 0.47278184
vn 0.013346608 0.99991095 0
vn 0.011553261 0.8811036 -0.47278222
vn -0.028253725 0.5234565 0.8515838
vn -0.056007553 0.87931335 0.47293887
vn -0.06544067 0.99785644 0
vn -0.05600762 0.87931305 -0.47293937
vn -0.06817087 0.51665527 0.8534753
vn -0.12867479 0.8698312 0.4762734
vn -0.1496301 0.98874205 0
vn -0.12867466 0.86983114 -0.47627372
vn 0.079065226 0.018535724 0.9966972
vn -0.042822964 0.5250324 0.8500042
vn -0.1310051 0.8689274 0.47728693
vn -0.1624231 0.98672116 0
vn -0.13100512 0.86892736 -0.4772871
vn 0.29831964 0.10175337 0.94902664
vn 0.15724763 0.5681661 0.8077502
vn 0.05178756 0.88819176 0.45654517
vn 0.013182408 0.9999131 0
vn 0.051787328 0.88819146 -0.45654577
vn 0.72177285 -0.16882306 0.67122483
vn 0.94501317 0.3270321 0
vn 0.5993721 0.21526821 0.77098167
vn 0.94501317 0.3270321 0
vn 0.4657094 0.58987564 0.6596676
vn 0.94501317 0.3270321 0
vn 0.3632057 0.85220635 0.37659794
vn 0.94501317 0.3270321 0
vn 0.32491407 0.94574356 0
vn 0.94501317 0.3270321 0
vn 0.3632059 0.8522063 -0.37659806
vn 0.94501317 0.3270321 0
g hotdog_col_0
f 3/3/3 2/2/2 1/1/1
f 1/1/1 4/4/4 3/3/3
f 4/4/4 5/5/5 3/3/3
f 4/4/4 6/6/6 5/5/5
f 6/6/6 7/7/7 5/5/5
f 6/6/6 8/8/8 7/7/7
f 8/8/8 9/9/9 7/7/7
f 8/8/8 10/10/10 9/9/9
f 10/10/10 11/11/11 9/9/9
f 10/10/10 12/12/12 11/11/11
f 12/12/12 13/13/13 11/11/11
f 12/12/12 14/14/14 13/13/13
f 14/14/14 15/15/15 13/13/13
f 14/14/14 16/16/16 15/15/15
f 16/16/16 17/17/17 15/15/15
f 16/16/16 18/18/18 17/17/17
f 18/18/18 19/19/19 17/17/17
f 18/18/18 20/20/20 19/19/19
f 20/20/20 21/21/21 19/19/19
f 20/20/20 22/22/22 21/21/21
f 22/22/22 23/23/23 21/21/21
f 22/22/22 24/24/24 23/23/23
f 25/25/25 22/22/22 20/20/20
f 25/25/25 26/26/26 22/22/22
f 27/27/27 20/20/20 18/18/18
f 27/27/27 25/25/25 20/20/20
f 28/28/28 18/18/18 16/16/16
f 28/28/28 27/27/27 18/18/18
f 29/29/29 16/16/16 14/14/14
f 29/29/29 28/28/28 16/16/16
f 30/30/30 25/25/25 27/27/27
f 30/30/30 31/31/31 25/25/25
f 32/32/32 27/27/27 28/28/28
f 32/32/32 30/30/30 27/27/27
f 33/33/33 29/29/29 14/14/14
f 33/33/33 14/14/14 12/12/12
f 34/34/34 28/28/28 29/29/29
f 34/34/34 32/32/32 28/28/28
f 35/35/35 30/30/30 32/32/32
f 35/35/35 36/36/36 30/30/30
f 37/37/37 35/35/35 32/32/32
f 37/37/37 32/32/32 34/34/34
f 38/38/38 34/34/34 29/29/29
f 38/38/38 29/29/29 33/33/33
f 39/39/39 33/33/33 12/12/12
f 39/39/39 12/12/12 10/10/10
f 40/40/40 35/35/35 37/37/37
f 40/40/40 41/41/41 35/35/35
f 42/42/42 37/37/37 34/34/34
f 42/42/42 34/34/34 38/38/38
f 43/43/43 38/38/38 33/33/33
f 43/43/43 33/33/33 39/39/39
f 44/44/44 39/39/39 10/10/10
f 44/44/44 10/10/10 8/8/8
f 45/45/45 40/40/40 37/37/37
f 45/45/45 37/37/37 42/42/42
f 46/46/46 42/42/42 38/38/38
f 46/46/46 38/38/38 43/43/43
f 47/47/47 43/43/43 39/39/39
f 47/47/47 39/39/39 44/44/44
f 48/48/48 44/44/44 8/8/8
f 48/48/48 8/8/8 6/6/6
f 49/49/49 40/40/40 45/45/45
f 49/49/49 50/50/50 40/40/40
f 51/51/51 45/45/45 42/42/42
f 51/51/51 42/42/42 46/46/46
f 52/52/52 46/46/46 43/43/43
f 52/52/52 43/43/43 47/47/47
f 53/53/53 47/47/47 44/44/44
f 53/53/53 44/44/44 48/48/48
f 54/54/54 48/48/48 6/6/6
f 54/54/54 6/6/6 4/4/4
f 55/55/55 49/49/49 45/45/45
f 55/55/55 45/45/45 51/51/51
f 56/56/56 51/51/51 46/46/46
f 56/56/56 46/46/46 52/52/52
f 57/57/57 52/52/52 47/47/47
f 57/57/57 47/47/47 53/53/53
f 58/58/58 53/53/53 48/48/48
f 58/58/58 48/48/48 54/54/54
f 59/59/59 54/54/54 4/4/4
f 59/59/59 4/4/4 1/1/1
f 60/60/60 49/49/49 55/55/55
f 60/60/60 61/61/61 49/49/49
f 62/62/62 56/56/56 52/52/52
f 62/62/62 52/52/52 57/57/57
f 63/63/63 57/57/57 53/53/53
f 63/63/63 53/53/53 58/58/58
f 64/64/64 58/58/58 54/54/54
f 64/64/64 54/54/54 59/59/59
f 65/65/65 59/59/59 1/1/1
f 1/1/1 66/66/66 65/65/65
f 67/67/67 59/59/59 65/65/65
f 67/67/67 64/64/64 59/59/59
f 68/68/68 58/58/58 64/64/64
f 68/68/68 63/63/63 58/58/58
f 69/69/69 57/57/57 63/63/63
f 69/69/69 62/62/62 57/57/57
f 70/70/70 67/67/67 65/65/65
f 65/65/65 71/71/71 70/70/70
f 72/72/72 64/64/64 67/67/67
f 72/72/72 68/68/68 64/64/64
f 73/73/73 63/63/63 68/68/68
f 73/73/73 69/69/69 63/63/63
f 74/74/74 67/67/67 70/70/70
f 74/74/74 72/72/72 67/67/67
f 75/75/75 68/68/68 72/72/72
f 75/75/75 73/73/73 68/68/68
f 76/76/76 74/74/74 70/70/70
f 70/70/70 77/77/77 76/76/76
f 78/78/78 72/72/72 74/74/74
f 78/78/78 75/75/75 72/72/72
f 79/79/79 74/74/74 76/76/76
f 79/79/79 78/78/78 74/74/74
f 80/80/80 79/79/79 76/76/76
f 76/76/76 81/81/81 80/80/80
f 82/82/82 69/69/69 73/73/73
f 83/83/83 73/73/73 75/75/75
f 83/83/83 82/82/82 73/73/73
f 84/84/84 75/75/75 78/78/78
f 84/84/84 83/83/83 75/75/75
f 85/85/85 78/78/78 79/79/79
f 85/85/85 84/84/84 78/78/78
f 86/86/86 79/79/79 80/80/80
f 86/86/86 85/85/85 79/79/79
f 82/82/82 87/87/87 69/69/69
f 87/87/87 62/62/62 69/69/69
f 88/88/88 86/86/86 80/80/80
f 80/80/80 89/89/89 88/88/88
f 87/87/87 90/90/90 62/62/62
f 90/90/90 56/56/56 62/62/62
f 90/90/90 91/91/91 56/56/56
f 91/91/91 51/51/51 56/56/56
f 91/91/91 55/55/55 51/51/51
f 92/92/92 55/55/55 91/91/91
f 92/92/92 60/60/60 55/55/55
f 93/93/93 91/91/91 90/90/90
f 93/93/93 92/92/92 91/91/91
f 94/94/94 90/90/90 87/87/87
f 94/94/94 93/93/93 90/90/90
f 95/95/95 60/60/60 92/92/92
f 95/95/95 96/96/96 60/60/60
f 97/97/97 92/92/92 93/93/93
f 97/97/97 95/95/95 92/92/92
f 98/98/98 94/94/94 87/87/87
f 98/98/98 87/87/87 82/82/82
f 99/99/99 93/93/93 94/94/94
f 99/99/99 97/97/97 93/93/93
f 100/100/100 95/95/95 97/97/97
f 100/100/100 101/101/101 95/95/95
f 102/102/102 100/100/100 97/97/97
f 102/102/102 97/97/97 99/99/99
f 103/103/103 99/99/99 94/94/94
f 103/103/103 94/94/94 98/98/98
f 104/104/104 98/98/98 82/82/82
f 104/104/104 82/82/82 83/83/83
f 105/105/105 100/100/100 102/102/102
f 105/105/105 106/106/106 100/100/100
f 107/107/107 102/102/102 99/99/99
f 107/107/107 99/99/99 103/103/103
f 108/108/108 103/103/103 98/98/98
f 108/108/108 98/98/98 104/104/104
f 109/109/109 104/104/104 83/83/83
f 109/109/109 83/83/83 84/84/84
f 110/110/110 105/105/105 102/102/102
f 110/110/110 102/102/102 107/107/107
f 111/111/111 107/107/107 103/103/103
f 111/111/111 103/103/103 108/108/108
f 112/112/112 108/108/108 104/104/104
f 112/112/112 104/104/104 109/109/109
f 113/113/113 109/109/109 84/84/84
f 113/113/113 84/84/84 85/85/85
f 114/114/114 105/105/105 110/110/110
f 114/114/114 115/115/115 105/105/105
f 116/116/116 110/110/110 107/107/107
f 116/116/116 107/107/107 111/111/111
f 117/117/117 111/111/111 108/108/108
f 117/117/117 108/108/108 112/112/112
f 118/118/118 112/112/112 109/109/109
f 118/118/118 109/109/109 113/113/113
f 119/119/119 113/113/113 85/85/85
f 119/119/119 85/85/85 86/86/86
f 120/120/120 114/114/114 110/110/110
f 120/120/120 110/110/110 116/116/116
f 121/121/121 116/116/116 111/111/111
f 121/121/121 111/111/111 117/117/117
f 122/122/122 117/117/117 112/112/112
f 122/122/122 112/112/112 118/118/118
f 123/123/123 118/118/118 113/113/113
f 123/123/123 113/113/113 119/119/119
f 124/124/124 119/119/119 86/86/86
f 124/124/124 86/86/86 88/88/88
f 125/125/125 114/114/114 120/120/120
f 125/125/125 126/126/126 114/114/114
f 127/127/127 125/125/125 120/120/120
f 127/127/127 120/120/120 128/128/128
f 128/128/128 120/120/120 116/116/116
f 129/129/129 127/127/127 128/128/128
f 128/128/128 116/116/116 121/121/121
f 129/129/129 128/128/128 130/130/130
f 130/130/130 128/128/128 121/121/121
f 131/131/131 129/129/129 130/130/130
f 130/130/130 121/121/121 132/132/132
f 132/132/132 121/121/121 117/117/117
f 132/132/132 117/117/117 122/122/122
f 131/131/131 130/130/130 133/133/133
f 133/133/133 130/130/130 132/132/132
f 134/134/134 131/131/131 133/133/133
f 135/135/135 132/132/132 122/122/122
f 133/133/133 132/132/132 135/135/135
f 134/134/134 133/133/133 136/136/136
f 136/136/136 133/133/133 135/135/135
f 137/137/137 134/134/134 136/136/136
f 135/135/135 122/122/122 138/138/138
f 138/138/138 122/122/122 118/118/118
f 138/138/138 118/118/118 123/123/123
f 136/136/136 135/135/135 139/139/139
f 139/139/139 135/135/135 138/138/138
f 137/137/137 136/136/136 140/140/140
f 140/140/140 136/136/136 139/139/139
f 141/141/141 137/137/137 140/140/140
f 142/142/142 138/138/138 123/123/123
f 139/139/139 138/138/138 142/142/142
f 140/140/140 139/139/139 143/143/143
f 143/143/143 139/139/139 142/142/142
f 141/141/141 140/140/140 144/144/144
f 144/144/144 140/140/140 143/143/143
f 145/145/145 141/141/141 144/144/144
f 142/142/142 123/123/123 146/146/146
f 146/146/146 123/123/123 119/119/119
f 146/146/146 119/119/119 124/124/124
f 143/143/143 142/142/142 147/147/147
f 147/147/147 142/142/142 146/146/146
f 144/144/144 143/143/143 148/148/148
f 148/148/148 143/143/143 147/147/147
f 145/145/145 144/144/144 149/149/149
f 149/149/149 144/144/144 148/148/148
f 150/150/150 145/145/145 149/149/149
f 151/151/151 146/146/146 124/124/124
f 147/147/147 146/146/146 151/151/151
f 148/148/148 147/147/147 152/152/152
f 152/152/152 147/147/147 151/151/151
f 149/149/149 148/148/148 153/153/153
f 153/153/153 148/148/148 152/152/152
f 150/150/150 149/149/149 154/154/154
f 154/154/154 149/149/149 153/153/153
f 155/155/155 150/150/150 154/154/154
f 151/151/151 124/124/124 156/156/156
f 156/156/156 124/124/124 88/88/88
f 88/88/88 157/157/157 156/156/156
f 158/158/158 151/151/151 156/156/156
f 152/152/152 151/151/151 158/158/158
f 156/156/156 159/159/159 158/158/158
f 160/160/160 152/152/152 158/158/158
f 153/153/153 152/152/152 160/160/160
f 158/158/158 161/161/161 160/160/160
f 162/162/162 153/153/153 160/160/160
f 154/154/154 153/153/153 162/162/162
f 160/160/160 163/163/163 162/162/162
f 155/155/155 154/154/154 164/164/164
f 164/164/164 154/154/154 162/162/162
f 162/162/162 165/165/165 164/164/164
f 166/166/166 155/155/155 164/164/164
f 164/164/164 167/167/167 166/166/166
