g knife_col
v -0.04920298 -0.5360548 0.03902506
v -0.05689022 -0.47432852 0.039198056
v 0.102381684 -0.5313182 0.03875485
v -0.05689022 -0.47432852 -0.039197773
v -0.04920298 -0.5360548 -0.039024733
v 0.102381684 -0.5313182 -0.038754523
v -0.11340845 0.1685216 -0.038923144
v -0.11340845 0.16852161 0.038922988
v -0.051744908 0.03861069 0.039051525
v -0.051744908 0.03861068 -0.03905157
v -0.10256219 0.3516242 0.038855456
v -0.11340845 0.16852161 0.038922988
v -0.11340845 0.1685216 -0.038923144
v -0.10256219 0.3516242 -0.038855724
v -0.07736246 0.45059764 0.038855486
v -0.10256219 0.3516242 0.038855456
v -0.10256219 0.3516242 -0.038855724
v -0.07736246 0.45059764 -0.03885582
v -0.03430845 0.5364456 -0.039140366
v -0.03430845 0.5364456 0.039139986
v -0.07736246 0.45059764 0.038855486
v -0.07736246 0.45059764 -0.03885582
v 0.030229252 0.5779986 0.038205884
v -0.03430845 0.5364456 0.039139986
v -0.03430845 0.5364456 -0.039140366
v 0.030229252 0.5779986 -0.038206264
v 0.082196586 0.5564564 0.037534133
v 0.030229252 0.5779986 0.038205884
v 0.030229252 0.5779986 -0.038206264
v 0.082196586 0.5564564 -0.037534498
v 0.069933 0.12440235 -0.039198115
v 0.069933 0.12440237 0.03919802
v 0.082196586 0.5564564 0.037534133
v 0.082196586 0.5564564 -0.037534498
v 0.102381684 -0.5313182 -0.038754523
v 0.102381684 -0.5313182 0.03875485
v 0.069933 0.12440237 0.03919802
v 0.069933 0.12440235 -0.039198115
v 0.07397706 -0.56783736 0.0385947
v 0.102381684 -0.5313182 0.03875485
v 0.102381684 -0.5313182 -0.038754523
v 0.07397706 -0.56783736 -0.038594358
v -0.002325764 -0.5736109 -0.038717896
v -0.002325764 -0.5736109 0.038718246
v 0.07397706 -0.56783736 0.0385947
v 0.07397706 -0.56783736 -0.038594358
v -0.04920298 -0.5360548 0.03902506
v -0.002325764 -0.5736109 0.038718246
v -0.002325764 -0.5736109 -0.038717896
v -0.04920298 -0.5360548 -0.039024733
v -0.05689022 -0.47432852 0.039198056
v -0.04920298 -0.5360548 0.03902506
v -0.04920298 -0.5360548 -0.039024733
v -0.05689022 -0.47432852 -0.039197773
v -0.051744908 0.03861068 -0.03905157
v -0.051744908 0.03861069 0.039051525
v -0.05689022 -0.47432852 0.039198056
v -0.05689022 -0.47432852 -0.039197773
v -0.07736246 0.45059764 0.038855486
v -0.03430845 0.5364456 0.039139986
v 0.030229252 0.5779986 0.038205884
v 0.082196586 0.5564564 0.037534133
v 0.069933 0.12440237 0.03919802
v -0.051744908 0.03861069 0.039051525
v -0.11340845 0.16852161 0.038922988
v -0.10256219 0.3516242 0.038855456
v -0.10256219 0.3516242 0.038855456
v -0.07736246 0.45059764 0.038855486
v 0.082196586 0.5564564 0.037534133
v 0.069933 0.12440237 0.03919802
v -0.05689022 -0.47432852 0.039198056
v -0.051744908 0.03861069 0.039051525
v 0.069933 0.12440237 0.03919802
v 0.102381684 -0.5313182 0.03875485
v 0.07397706 -0.56783736 0.0385947
v -0.002325764 -0.5736109 0.038718246
v -0.04920298 -0.5360548 0.03902506
v 0.102381684 -0.5313182 0.03875485
v -0.051744908 0.03861068 -0.03905157
v -0.05689022 -0.47432852 -0.039197773
v 0.102381684 -0.5313182 -0.038754523
v 0.069933 0.12440235 -0.039198115
v -0.04920298 -0.5360548 -0.039024733
v -0.002325764 -0.5736109 -0.038717896
v 0.07397706 -0.56783736 -0.038594358
v 0.102381684 -0.5313182 -0.038754523
v 0.069933 0.12440235 -0.039198115
v 0.082196586 0.5564564 -0.037534498
v -0.07736246 0.45059764 -0.03885582
v -0.10256219 0.3516242 -0.038855724
v -0.11340845 0.1685216 -0.038923144
v -0.051744908 0.03861068 -0.03905157
v 0.069933 0.12440235 -0.039198115
v -0.10256219 0.3516242 -0.038855724
v 0.082196586 0.5564564 -0.037534498
v 0.030229252 0.5779986 -0.038206264
v -0.03430845 0.5364456 -0.039140366
v -0.07736246 0.45059764 -0.03885582
vt 0.4698504 0.9083724
vt 0.46974316 0.883085
vt 0.46822032 0.113833666
vt 0.49364603 0.8830335
vt 0.49364778 0.90832114
vt 0.4918529 0.113782644
vt 0.49299082 0.62530303
vt 0.46928737 0.6253542
vt 0.46946433 0.73302126
vt 0.49327797 0.73297
vt 0.46919668 0.5781924
vt 0.46928737 0.6253542
vt 0.49299082 0.62530303
vt 0.49287823 0.5781414
vt 0.46913767 0.5537468
vt 0.46919668 0.5781924
vt 0.49287823 0.5781414
vt 0.49283186 0.5536958
vt 0.49281675 0.5064453
vt 0.46894908 0.5064967
vt 0.46913767 0.5537468
vt 0.49283186 0.5536958
vt 0.4692056 0.4933567
vt 0.46894908 0.5064967
vt 0.49281675 0.5064453
vt 0.49250364 0.49330652
vt 0.46938178 0.48007837
vt 0.4692056 0.4933567
vt 0.49250364 0.49330652
vt 0.4922702 0.48002902
vt 0.49241158 0.3102708
vt 0.46850863 0.31032228
vt 0.46938178 0.48007837
vt 0.4922702 0.48002902
vt 0.4918529 0.113782644
vt 0.46822032 0.113833666
vt 0.46850863 0.31032228
vt 0.49241158 0.3102708
vt 0.4682378 0.09928393
vt 0.46822032 0.113833666
vt 0.4918529 0.113782644
vt 0.4917727 0.09923339
vt 0.49359584 0.9276247
vt 0.46998557 0.9276757
vt 0.4682378 0.09928393
vt 0.4917727 0.09923339
vt 0.4698504 0.9083724
vt 0.46998557 0.9276757
vt 0.49359584 0.9276247
vt 0.49364778 0.90832114
vt 0.46974316 0.883085
vt 0.4698504 0.9083724
vt 0.49364778 0.90832114
vt 0.49364603 0.8830335
vt 0.49327797 0.73297
vt 0.46946433 0.73302126
vt 0.46974316 0.883085
vt 0.49364603 0.8830335
vt 0.46913767 0.5537468
vt 0.46894908 0.5064967
vt 0.4692056 0.4933567
vt 0.46938178 0.48007837
vt 0.46850863 0.31032228
vt 0.46946433 0.73302126
vt 0.46928737 0.6253542
vt 0.46919668 0.5781924
vt 0.46919668 0.5781924
vt 0.46913767 0.5537468
vt 0.46938178 0.48007837
vt 0.46850863 0.31032228
vt 0.46974316 0.883085
vt 0.46946433 0.73302126
vt 0.46850863 0.31032228
vt 0.46822032 0.113833666
vt 0.4682378 0.09928393
vt 0.46998557 0.9276757
vt 0.4698504 0.9083724
vt 0.46822032 0.113833666
vt 0.49327797 0.73297
vt 0.49364603 0.8830335
vt 0.4918529 0.113782644
vt 0.49241158 0.3102708
vt 0.49364778 0.90832114
vt 0.49359584 0.9276247
vt 0.4917727 0.09923339
vt 0.4918529 0.113782644
vt 0.49241158 0.3102708
vt 0.4922702 0.48002902
vt 0.49283186 0.5536958
vt 0.49287823 0.5781414
vt 0.49299082 0.62530303
vt 0.49327797 0.73297
vt 0.49241158 0.3102708
vt 0.49287823 0.5781414
vt 0.4922702 0.48002902
vt 0.49250364 0.49330652
vt 0.49281675 0.5064453
vt 0.49283186 0.5536958
vn 0.0018628482 -0.0025706023 0.999995
vn 0.0018628481 -0.0025706023 0.999995
vn 0.0018628482 -0.002570602 0.999995
vn 0.0018628974 -0.0025713206 -0.999995
vn 0.0018628977 -0.002571321 -0.999995
vn 0.0018628974 -0.002571321 -0.999995
vn -0.9033965 -0.42880625 0
vn -0.9033965 -0.42880625 0
vn -0.9033965 -0.42880622 0
vn -0.9033965 -0.42880625 0
vn -0.99825007 0.059132297 0
vn -0.99825007 0.059132297 0
vn -0.99825007 0.059132293 0
vn -0.99825007 0.059132297 0
vn -0.96908194 0.24673876 0
vn -0.96908194 0.24673876 0
vn -0.96908194 0.24673876 0
vn -0.96908194 0.24673876 0
vn -0.8938851 0.44829637 0
vn -0.8938851 0.44829637 0
vn -0.8938851 0.44829637 0
vn -0.8938851 0.44829637 0
vn -0.54135144 0.8407964 0
vn -0.5413515 0.8407964 0
vn -0.54135144 0.8407964 0
vn -0.5413515 0.8407964 0
vn 0.3829356 0.923775 0
vn 0.3829356 0.923775 0
vn 0.38293555 0.923775 0
vn 0.3829356 0.923775 0
vn 0.9995975 -0.028372977 0
vn 0.9995975 -0.028372975 0
vn 0.9995975 -0.028372975 0
vn 0.9995975 -0.028372977 0
vn 0.9987778 0.04942506 0
vn 0.9987778 0.04942506 0
vn 0.9987778 0.04942506 0
vn 0.9987778 0.049425066 0
vn 0.7893436 -0.6139517 0
vn 0.7893437 -0.6139517 0
vn 0.7893436 -0.6139517 0
vn 0.7893436 -0.6139517 0
vn 0.07545052 -0.9971495 0
vn 0.07545052 -0.9971495 0
vn 0.07545051 -0.9971495 0
vn 0.07545051 -0.9971495 0
vn -0.6252465 -0.78042734 0
vn -0.6252465 -0.78042734 0
vn -0.6252465 -0.78042734 0
vn -0.62524647 -0.78042734 0
vn -0.99233425 -0.12358297 0
vn -0.99233425 -0.12358297 0
vn -0.99233425 -0.12358297 0
vn -0.99233425 -0.12358297 0
vn -0.9999497 0.010030539 0
vn -0.9999497 0.010030539 0
vn -0.9999497 0.010030539 0
vn -0.9999497 0.010030538 0
vn 0.015095579 -0.0076502585 0.9998568
vn 0.015095578 -0.007650258 0.9998568
vn 0.015095579 -0.007650259 0.9998568
vn 0.015095579 -0.007650258 0.9998568
vn -0.0014042443 0.00039841858 0.9999989
vn -0.0014042443 0.0003984186 0.9999989
vn -0.0014042442 0.00039841858 0.9999989
vn -0.0014042443 0.00039841863 0.9999989
vn 0.003989948 0.002851747 0.99998796
vn 0.003989948 0.002851747 0.99998796
vn 0.003989948 0.0028517472 0.99998796
vn 0.003989948 0.002851747 0.99998796
vn 0.0010795285 -0.00022860276 0.9999994
vn 0.0010795285 -0.00022860277 0.9999994
vn 0.0010795286 -0.00022860277 0.9999994
vn 0.0010795286 -0.00022860277 0.9999994
vn 0.0019955765 -0.0058062207 0.99998116
vn 0.0019955765 -0.005806221 0.99998116
vn 0.0019955765 -0.0058062207 0.99998116
vn 0.0019955765 -0.0058062207 0.99998116
vn 0.0010795739 -0.00022924517 -0.9999994
vn 0.001079574 -0.00022924515 -0.9999994
vn 0.001079574 -0.00022924518 -0.9999994
vn 0.0010795739 -0.00022924517 -0.9999994
vn 0.0019955896 -0.005806668 -0.99998116
vn 0.0019955896 -0.005806669 -0.99998116
vn 0.0019955894 -0.005806668 -0.99998116
vn 0.0019955894 -0.0058066687 -0.99998116
vn 0.0039901743 0.0028511018 -0.99998796
vn 0.0039901743 0.0028511016 -0.99998796
vn 0.0039901743 0.0028511013 -0.99998796
vn 0.0039901743 0.0028511013 -0.99998796
vn -0.0014040675 0.0003977305 -0.9999989
vn -0.0014040672 0.00039773044 -0.9999989
vn -0.0014040673 0.0003977305 -0.9999989
vn -0.0014040672 0.00039773044 -0.9999989
vn 0.015095776 -0.0076507586 -0.9998568
vn 0.015095777 -0.0076507586 -0.9998568
vn 0.015095776 -0.007650758 -0.9998568
vn 0.015095774 -0.007650758 -0.9998568
g knife_col_0
f 3/3/3 2/2/2 1/1/1
f 6/6/6 5/5/5 4/4/4
f 9/9/9 8/8/8 7/7/7
f 10/10/10 9/9/9 7/7/7
f 13/13/13 12/12/12 11/11/11
f 14/14/14 13/13/13 11/11/11
f 17/17/17 16/16/16 15/15/15
f 18/18/18 17/17/17 15/15/15
f 21/21/21 20/20/20 19/19/19
f 22/22/22 21/21/21 19/19/19
f 25/25/25 24/24/24 23/23/23
f 26/26/26 25/25/25 23/23/23
f 29/29/29 28/28/28 27/27/27
f 30/30/30 29/29/29 27/27/27
f 33/33/33 32/32/32 31/31/31
f 34/34/34 33/33/33 31/31/31
f 37/37/37 36/36/36 35/35/35
f 38/38/38 37/37/37 35/35/35
f 41/41/41 40/40/40 39/39/39
f 42/42/42 41/41/41 39/39/39
f 45/45/45 44/44/44 43/43/43
f 46/46/46 45/45/45 43/43/43
f 49/49/49 48/48/48 47/47/47
f 50/50/50 49/49/49 47/47/47
f 53/53/53 52/52/52 51/51/51
f 54/54/54 53/53/53 51/51/51
f 57/57/57 56/56/56 55/55/55
f 58/58/58 57/57/57 55/55/55
f 61/61/61 60/60/60 59/59/59
f 62/62/62 61/61/61 59/59/59
f 65/65/65 64/64/64 63/63/63
f 66/66/66 65/65/65 63/63/63
f 69/69/69 68/68/68 67/67/67
f 70/70/70 69/69/69 67/67/67
f 73/73/73 72/72/72 71/71/71
f 74/74/74 73/73/73 71/71/71
f 77/77/77 76/76/76 75/75/75
f 78/78/78 77/77/77 75/75/75
f 81/81/81 80/80/80 79/79/79
f 82/82/82 81/81/81 79/79/79
f 85/85/85 84/84/84 83/83/83
f 86/86/86 85/85/85 83/83/83
f 89/89/89 88/88/88 87/87/87
f 90/90/90 89/89/89 87/87/87
f 93/93/93 92/92/92 91/91/91
f 94/94/94 93/93/93 91/91/91
f 97/97/97 96/96/96 95/95/95
f 98/98/98 97/97/97 95/95/95
