g maki_col
v 0.35043713 -0.3258482 -0.31751046
v 0.22670141 -0.4221556 -0.31751046
v 0.22670141 -0.42215565 0.3175103
v 0.35043713 -0.32584822 0.3175103
v 0.43619755 -0.19458205 -0.31751037
v 0.43619755 -0.1945821 0.3175104
v 0.4746892 -0.042581953 -0.31751037
v 0.4746892 -0.04258201 0.31751037
v 0.46174094 0.113680586 -0.31751034
v 0.46174094 0.11368054 0.31751043
v 0.39875585 0.25727206 -0.31751034
v 0.39875585 0.25727206 0.3175104
v 0.2925594 0.37263215 -0.3175103
v 0.2925594 0.3726321 0.31751043
v 0.15465957 0.44725984 -0.3175103
v 0.15465957 0.44725975 0.31751043
v -0 0.47306794 -0.31751034
v -0 0.47306785 0.31751043
v -0.15465958 0.44725984 -0.3175103
v -0.15465958 0.44725975 0.31751043
v -0.29255933 0.37263224 -0.3175103
v -0.29255933 0.3726322 0.31751043
v -0.29255933 0.3726322 0.31751043
v -0.39875585 0.25727203 -0.31751034
v -0.39875585 0.25727203 0.3175104
v -0.4617409 0.11368066 -0.31751034
v -0.4617409 0.11368061 0.31751043
v -0.3986034 0.09769206 0.3336455
v -0.34423083 0.22164908 0.33364552
v -0.25255543 0.32123515 0.33364555
v 1.31453906E-08 -0.0032481556 0.33364546
v -0.13351186 0.38565826 0.33364552
v -1.7744156E-09 0.4079375 0.33364555
v 0.13351181 0.38565826 0.33364552
v 0.25255546 0.3212351 0.33364552
v 0.34423083 0.22164913 0.33364552
v 0.39860353 0.09769191 0.33364552
v 0.40978128 -0.03720365 0.33364546
v 0.37655288 -0.1684195 0.33364552
v 0.3025191 -0.28173664 0.3336455
v 0.19570279 -0.3648752 0.33364543
v 0.06767892 -0.40882573 0.33364543
v -0.06767889 -0.40882573 0.33364543
v -0.19570279 -0.3648751 0.33364543
v -0.3025191 -0.28173664 0.3336455
v -0.3765529 -0.16841947 0.33364552
v -0.40978128 -0.037203684 0.33364546
v -0.4617409 0.11368061 0.31751043
v -0.4746892 -0.04258204 0.31751037
v -0.4746892 -0.042581983 -0.31751037
v 0.078399055 -0.47306785 -0.31751043
v -0.07839903 -0.47306794 0.31751037
v 0.078399055 -0.47306794 0.31751037
v -0.07839903 -0.47306785 -0.31751043
v -0.22670138 -0.42215565 0.3175103
v 0.06767892 -0.40882576 -0.33364555
v -0.22670138 -0.4221556 -0.31751046
v -0.35043713 -0.32584825 0.3175103
v -0.06767889 -0.40882576 -0.33364555
v -0.35043713 -0.32584825 -0.31751046
v -0.43619755 -0.19458203 0.3175104
v -0.19570279 -0.36487505 -0.33364552
v 2.7605315E-08 -0.0032480985 -0.33364546
v 0.19570278 -0.36487508 -0.33364552
v 0.3025191 -0.28173658 -0.3336455
v 0.078399055 -0.47306785 -0.31751043
v 0.22670141 -0.4221556 -0.31751046
v 0.078399055 -0.47306794 0.31751037
v 0.37655288 -0.16841944 -0.3336455
v 0.40978128 -0.037203595 -0.3336455
v 0.39860353 0.09769196 -0.33364546
v 0.34423083 0.2216492 -0.3336455
v 0.25255546 0.32123518 -0.33364543
v 0.13351181 0.38565838 -0.33364546
v -1.7744156E-09 0.4079375 -0.33364543
v -0.13351186 0.38565838 -0.33364546
v -0.25255543 0.32123524 -0.33364543
v -0.34423083 0.22164916 -0.3336455
v -0.3986034 0.09769211 -0.33364546
v -0.40978128 -0.037203632 -0.3336455
v -0.3765529 -0.16841939 -0.3336455
v -0.4746892 -0.042581983 -0.31751037
v -0.3025191 -0.28173658 -0.3336455
v -0.43619755 -0.19458199 -0.31751037
v -0.4746892 -0.04258204 0.31751037
v -0 0.47306794 -0.31751034
v -1.7744156E-09 0.4079375 -0.33364543
v 0.13351181 0.38565838 -0.33364546
v 0.15465957 0.44725984 -0.3175103
v 0.2925594 0.37263215 -0.3175103
v 0.25255546 0.32123518 -0.33364543
v -0.13351186 0.38565838 -0.33364546
v -1.7744156E-09 0.4079375 -0.33364543
v -0.15465958 0.44725984 -0.3175103
v -0.25255543 0.32123524 -0.33364543
v -0.29255933 0.37263224 -0.3175103
v -0.34423083 0.22164916 -0.3336455
v -0.39875585 0.25727203 -0.31751034
v 0.15465957 0.44725975 0.31751043
v 0.13351181 0.38565826 0.33364552
v -1.7744156E-09 0.4079375 0.33364555
v -0 0.47306785 0.31751043
v 0.2925594 0.3726321 0.31751043
v 0.13351181 0.38565826 0.33364552
v 0.25255546 0.3212351 0.33364552
v 0.39875585 0.25727206 0.3175104
v 0.25255546 0.3212351 0.33364552
v 0.34423083 0.22164913 0.33364552
v 0.46174094 0.11368054 0.31751043
v 0.34423083 0.22164913 0.33364552
v 0.39860353 0.09769191 0.33364552
v 0.4746892 -0.04258201 0.31751037
v 0.39860353 0.09769191 0.33364552
v 0.40978128 -0.03720365 0.33364546
v 0.43619755 -0.1945821 0.3175104
v 0.40978128 -0.03720365 0.33364546
v 0.37655288 -0.1684195 0.33364552
v 0.35043713 -0.32584822 0.3175103
v 0.37655288 -0.1684195 0.33364552
v 0.3025191 -0.28173664 0.3336455
v 0.22670141 -0.42215565 0.3175103
v 0.3025191 -0.28173664 0.3336455
v 0.19570279 -0.3648752 0.33364543
v 0.078399055 -0.47306794 0.31751037
v 0.19570279 -0.3648752 0.33364543
v 0.06767892 -0.40882573 0.33364543
v 0.25255546 0.32123518 -0.33364543
v 0.34423083 0.2216492 -0.3336455
v 0.39875585 0.25727206 -0.31751034
v 0.2925594 0.37263215 -0.3175103
v 0.34423083 0.2216492 -0.3336455
v 0.39860353 0.09769196 -0.33364546
v 0.46174094 0.113680586 -0.31751034
v 0.39875585 0.25727206 -0.31751034
v 0.39860353 0.09769196 -0.33364546
v 0.40978128 -0.037203595 -0.3336455
v 0.4746892 -0.042581953 -0.31751037
v 0.46174094 0.113680586 -0.31751034
v 0.40978128 -0.037203595 -0.3336455
v 0.37655288 -0.16841944 -0.3336455
v 0.43619755 -0.19458205 -0.31751037
v 0.4746892 -0.042581953 -0.31751037
v 0.37655288 -0.16841944 -0.3336455
v 0.35043713 -0.3258482 -0.31751046
v 0.43619755 -0.19458205 -0.31751037
v 0.3025191 -0.28173658 -0.3336455
v 0.22670141 -0.4221556 -0.31751046
v 0.19570278 -0.36487508 -0.33364552
v -0.07839903 -0.47306794 0.31751037
v -0.06767889 -0.40882573 0.33364543
v 0.06767892 -0.40882573 0.33364543
v 0.078399055 -0.47306794 0.31751037
v -0.22670138 -0.42215565 0.3175103
v -0.06767889 -0.40882573 0.33364543
v -0.19570279 -0.3648751 0.33364543
v -0.35043713 -0.32584825 0.3175103
v -0.19570279 -0.3648751 0.33364543
v -0.3025191 -0.28173664 0.3336455
v -0.43619755 -0.19458203 0.3175104
v -0.3025191 -0.28173664 0.3336455
v -0.3765529 -0.16841947 0.33364552
v -0.4746892 -0.04258204 0.31751037
v -0.40978128 -0.037203684 0.33364546
v -0.3765529 -0.16841947 0.33364552
v -0.43619755 -0.19458203 0.3175104
v -0.40978128 -0.037203632 -0.3336455
v -0.3986034 0.09769211 -0.33364546
v -0.4617409 0.11368066 -0.31751034
v -0.4746892 -0.042581983 -0.31751037
v -0.3986034 0.09769211 -0.33364546
v -0.34423083 0.22164916 -0.3336455
v -0.39875585 0.25727203 -0.31751034
v -0.4617409 0.11368066 -0.31751034
v -0.15465958 0.44725975 0.31751043
v -0.13351186 0.38565826 0.33364552
v -0.25255543 0.32123515 0.33364555
v -0.29255933 0.3726322 0.31751043
v -1.7744156E-09 0.4079375 0.33364555
v -0.13351186 0.38565826 0.33364552
v -0.15465958 0.44725975 0.31751043
v -0 0.47306785 0.31751043
vt 0.35094467 0.13618582
vt 0.35094467 0.08791504
vt 0.09722811 0.08791479
vt 0.09722808 0.1361856
vt 0.3509446 0.18445651
vt 0.09722805 0.18445638
vt 0.35094458 0.23272733
vt 0.09722804 0.23272708
vt 0.35094458 0.28099808
vt 0.09722804 0.28099796
vt 0.35094458 0.32926887
vt 0.097228035 0.32926875
vt 0.35094455 0.3775396
vt 0.09722804 0.37753958
vt 0.35094455 0.42581037
vt 0.09722801 0.42581037
vt 0.35094455 0.47408116
vt 0.097228006 0.47408116
vt 0.35094455 0.52235186
vt 0.09722801 0.5223519
vt 0.35094455 0.5706227
vt 0.09722804 0.57062274
vt 0.097228035 0.57062274
vt 0.35094458 0.61889344
vt 0.09722804 0.6188936
vt 0.35094458 0.6671642
vt 0.09722805 0.6671643
vt 0.4885605 0.6358535
vt 0.4767867 0.70640993
vt 0.48856062 0.7769663
vt 0.6940842 0.70640975
vt 0.5226061 0.83987653
vt 0.57523394 0.8883239
vt 0.640741 0.9170579
vt 0.7120286 0.9229648
vt 0.7813716 0.9054047
vt 0.8412558 0.86628044
vt 0.88519144 0.8098316
vt 0.9084179 0.74217576
vt 0.9084179 0.6706435
vt 0.8851915 0.60298735
vt 0.8412557 0.54653865
vt 0.7813715 0.50741446
vt 0.71202815 0.48985443
vt 0.6407407 0.49576154
vt 0.57523346 0.5244957
vt 0.5226059 0.57294303
vt 0.097228035 0.6671643
vt 0.097228065 0.71543515
vt 0.3509446 0.7154349
vt 0.3509448 0.95678884
vt 0.0972282 0.90851825
vt 0.097228274 0.95678914
vt 0.35094476 0.9085181
vt 0.09722814 0.86024755
vt 0.47677583 0.7063751
vt 0.3509447 0.8602473
vt 0.09722811 0.8119768
vt 0.4885496 0.6358187
vt 0.35094467 0.8119765
vt 0.09722808 0.7637059
vt 0.52259517 0.5729082
vt 0.69407344 0.7063753
vt 0.48854968 0.77693164
vt 0.52259505 0.8398421
vt 0.35094476 0.039644226
vt 0.35094467 0.08791504
vt 0.09722818 0.039643988
vt 0.5752228 0.8882891
vt 0.64072996 0.9170235
vt 0.71201754 0.9229304
vt 0.78136086 0.90537035
vt 0.84124494 0.8662462
vt 0.88518065 0.80979735
vt 0.9084071 0.74214137
vt 0.90840715 0.67060924
vt 0.8851806 0.60295314
vt 0.84124464 0.54650426
vt 0.7813606 0.50738
vt 0.71201754 0.48981994
vt 0.64073 0.49572697
vt 0.3509446 0.7154349
vt 0.5752229 0.524461
vt 0.3509446 0.76370573
vt 0.09722805 0.71543515
vt 0.35094458 0.47408116
vt 0.9084071 0.74214137
vt 0.88518065 0.80979735
vt 0.35094455 0.42581037
vt 0.35094455 0.37753963
vt 0.84124494 0.8662462
vt 0.90840715 0.67060924
vt 0.9084071 0.74214137
vt 0.35094455 0.52235186
vt 0.8851806 0.60295314
vt 0.35094455 0.5706227
vt 0.84124464 0.54650426
vt 0.3509446 0.61889344
vt 0.097228006 0.4258104
vt 0.640741 0.9170579
vt 0.57523394 0.8883239
vt 0.09722801 0.47408116
vt 0.097228035 0.37753955
vt 0.640741 0.9170579
vt 0.7120286 0.9229648
vt 0.097228035 0.32926875
vt 0.7120286 0.9229648
vt 0.7813716 0.9054047
vt 0.09722804 0.28099796
vt 0.7813716 0.9054047
vt 0.8412558 0.86628044
vt 0.09722804 0.23272708
vt 0.8412558 0.86628044
vt 0.88519144 0.8098316
vt 0.09722805 0.18445638
vt 0.88519144 0.8098316
vt 0.9084179 0.74217576
vt 0.09722808 0.1361856
vt 0.9084179 0.74217576
vt 0.9084179 0.6706435
vt 0.09722811 0.08791479
vt 0.9084179 0.6706435
vt 0.8851915 0.60298735
vt 0.09722818 0.039643988
vt 0.8851915 0.60298735
vt 0.8412557 0.54653865
vt 0.84124494 0.8662462
vt 0.78136086 0.90537035
vt 0.35094458 0.32926887
vt 0.35094455 0.3775396
vt 0.78136086 0.90537035
vt 0.71201754 0.9229304
vt 0.35094458 0.28099808
vt 0.3509446 0.32926887
vt 0.71201754 0.9229304
vt 0.64072996 0.9170235
vt 0.35094458 0.23272733
vt 0.3509446 0.28099805
vt 0.64072996 0.9170235
vt 0.5752228 0.8882891
vt 0.3509446 0.18445651
vt 0.35094458 0.23272732
vt 0.5752228 0.8882891
vt 0.35094467 0.13618582
vt 0.35094464 0.18445651
vt 0.52259505 0.8398421
vt 0.35094467 0.08791504
vt 0.48854968 0.77693164
vt 0.0972282 0.90851825
vt 0.7813715 0.50741446
vt 0.8412557 0.54653865
vt 0.097228274 0.95678914
vt 0.09722814 0.86024755
vt 0.7813715 0.50741446
vt 0.71202815 0.48985443
vt 0.09722811 0.8119768
vt 0.71202815 0.48985443
vt 0.6407407 0.49576154
vt 0.09722808 0.7637059
vt 0.6407407 0.49576154
vt 0.57523346 0.5244957
vt 0.09722805 0.71543515
vt 0.5226059 0.57294303
vt 0.57523346 0.5244957
vt 0.09722809 0.76370597
vt 0.71201754 0.48981994
vt 0.7813606 0.50738
vt 0.35094458 0.6671642
vt 0.3509446 0.7154349
vt 0.7813606 0.50738
vt 0.84124464 0.54650426
vt 0.35094458 0.61889344
vt 0.3509446 0.66716427
vt 0.097228006 0.5223519
vt 0.5226061 0.83987653
vt 0.48856062 0.7769663
vt 0.09722804 0.57062274
vt 0.57523394 0.8883239
vt 0.5226061 0.83987653
vt 0.09722801 0.5223519
vt 0.097228006 0.47408116
vn 0.73565304 -0.6772161 -0.01389146
vn 0.47590166 -0.87938887 -0.013891382
vn 0.47590154 -0.87938887 0.01389135
vn 0.7356531 -0.67721605 0.013891407
vn 0.91568506 -0.40165654 -0.013891429
vn 0.91568506 -0.4016565 0.013891389
vn 0.99648833 -0.08257143 -0.013891405
vn 0.99648833 -0.082571425 0.013891388
vn 0.9693067 0.24546188 -0.013891396
vn 0.9693067 0.24546191 0.013891442
vn 0.8370856 0.54689556 -0.013891351
vn 0.8370856 0.5468955 0.013891414
vn 0.61415344 0.78906435 -0.013891277
vn 0.6141534 0.78906435 0.013891348
vn 0.32466814 0.9457259 -0.013891273
vn 0.32466823 0.9457259 0.013891391
vn -0 0.99990356 -0.013891332
vn -0 0.99990356 0.013891465
vn -0.32466787 0.94572604 -0.013891339
vn -0.32466796 0.94572604 0.01389147
vn -0.6141535 0.7890643 -0.013891319
vn -0.61415344 0.7890643 0.013891456
vn -0.61415344 0.7890643 0.013891456
vn -0.8370856 0.5468955 -0.013891372
vn -0.8370856 0.54689544 0.013891448
vn -0.9693067 0.24546188 -0.013891401
vn -0.9693067 0.24546185 0.013891442
vn -0.030279998 0.007667742 0.99951196
vn -0.02614982 0.017084248 0.99951196
vn -0.01918535 0.024649426 0.99951196
vn -0 0 1
vn -0.010142232 0.029543303 0.99951196
vn -0 0.031235658 0.9995121
vn 0.010142282 0.02954327 0.99951196
vn 0.019185215 0.024649465 0.9995121
vn 0.026149647 0.017084382 0.99951196
vn 0.030280042 0.007667719 0.99951196
vn 0.031129206 -0.0025794634 0.99951196
vn 0.028605124 -0.012547231 0.99951196
vn 0.022981012 -0.02115573 0.99951196
vn 0.014866571 -0.02747127 0.99951196
vn 0.0051411944 -0.030809801 0.99951196
vn -0.0051412303 -0.030809801 0.99951196
vn -0.014866632 -0.027471246 0.99951196
vn -0.022981059 -0.021155732 0.99951196
vn -0.028605076 -0.012547233 0.99951196
vn -0.031129105 -0.0025793484 0.99951196
vn -0.9693067 0.24546185 0.013891442
vn -0.99648833 -0.082571246 0.01389139
vn -0.99648833 -0.082571246 -0.01389141
vn 0.16457878 -0.9862662 -0.013891346
vn -0.16457878 -0.9862662 0.013891299
vn 0.16457878 -0.9862662 0.013891299
vn -0.16457878 -0.9862662 -0.013891344
vn -0.4759013 -0.8793889 0.013891351
vn 0.005141414 -0.0308097 -0.99951196
vn -0.47590137 -0.8793889 -0.013891377
vn -0.7356531 -0.677216 0.013891419
vn -0.0051415106 -0.030809702 -0.99951196
vn -0.7356531 -0.677216 -0.013891458
vn -0.91568506 -0.40165642 0.013891402
vn -0.014867019 -0.027470922 -0.99951196
vn -0 0 -1
vn 0.01486696 -0.027470933 -0.99951196
vn 0.02298111 -0.021155316 -0.99951196
vn 0.16457878 -0.9862662 -0.013891346
vn 0.47590166 -0.87938887 -0.013891382
vn 0.16457878 -0.9862662 0.013891299
vn 0.02860471 -0.012547243 -0.9995121
vn 0.031128941 -0.0025793284 -0.9995121
vn 0.03027996 0.0076679434 -0.99951196
vn 0.026149552 0.017084435 -0.99951196
vn 0.019185483 0.024649596 -0.99951196
vn 0.010142267 0.029543396 -0.99951196
vn -0 0.031235885 -0.99951196
vn -0.010142248 0.029543402 -0.99951196
vn -0.019185489 0.024649577 -0.99951196
vn -0.026149575 0.017084442 -0.99951196
vn -0.030279985 0.0076679448 -0.99951196
vn -0.031129034 -0.002579312 -0.99951196
vn -0.028604787 -0.012547243 -0.9995121
vn -0.99648833 -0.082571246 -0.01389141
vn -0.022981066 -0.021155316 -0.99951196
vn -0.91568506 -0.40165654 -0.013891442
vn -0.99648833 -0.082571246 0.01389139
vn -0 0.99990356 -0.013891332
vn -0 0.031235885 -0.99951196
vn 0.010142267 0.029543396 -0.99951196
vn 0.32466814 0.9457259 -0.013891273
vn 0.61415344 0.78906435 -0.013891277
vn 0.019185483 0.024649596 -0.99951196
vn -0.010142248 0.029543402 -0.99951196
vn -0 0.031235885 -0.99951196
vn -0.32466787 0.94572604 -0.013891339
vn -0.019185489 0.024649577 -0.99951196
vn -0.6141535 0.7890643 -0.013891319
vn -0.026149575 0.017084442 -0.99951196
vn -0.8370856 0.5468955 -0.013891372
vn 0.32466823 0.9457259 0.013891391
vn 0.010142282 0.02954327 0.99951196
vn -0 0.031235658 0.9995121
vn -0 0.99990356 0.013891465
vn 0.6141534 0.78906435 0.013891348
vn 0.010142282 0.02954327 0.99951196
vn 0.019185215 0.024649465 0.9995121
vn 0.8370856 0.5468955 0.013891414
vn 0.019185215 0.024649465 0.9995121
vn 0.026149647 0.017084382 0.99951196
vn 0.9693067 0.24546191 0.013891442
vn 0.026149647 0.017084382 0.99951196
vn 0.030280042 0.007667719 0.99951196
vn 0.99648833 -0.082571425 0.013891388
vn 0.030280042 0.007667719 0.99951196
vn 0.031129206 -0.0025794634 0.99951196
vn 0.91568506 -0.4016565 0.013891389
vn 0.031129206 -0.0025794634 0.99951196
vn 0.028605124 -0.012547231 0.99951196
vn 0.7356531 -0.67721605 0.013891407
vn 0.028605124 -0.012547231 0.99951196
vn 0.022981012 -0.02115573 0.99951196
vn 0.47590154 -0.87938887 0.01389135
vn 0.022981012 -0.02115573 0.99951196
vn 0.014866571 -0.02747127 0.99951196
vn 0.16457878 -0.9862662 0.013891299
vn 0.014866571 -0.02747127 0.99951196
vn 0.0051411944 -0.030809801 0.99951196
vn 0.019185483 0.024649596 -0.99951196
vn 0.026149552 0.017084435 -0.99951196
vn 0.8370856 0.54689556 -0.013891351
vn 0.61415344 0.78906435 -0.013891277
vn 0.026149552 0.017084435 -0.99951196
vn 0.03027996 0.0076679434 -0.99951196
vn 0.9693067 0.24546188 -0.013891396
vn 0.8370856 0.54689556 -0.013891351
vn 0.03027996 0.0076679434 -0.99951196
vn 0.031128941 -0.0025793284 -0.9995121
vn 0.99648833 -0.08257143 -0.013891405
vn 0.9693067 0.24546188 -0.013891396
vn 0.031128941 -0.0025793284 -0.9995121
vn 0.02860471 -0.012547243 -0.9995121
vn 0.91568506 -0.40165654 -0.013891429
vn 0.99648833 -0.08257143 -0.013891405
vn 0.02860471 -0.012547243 -0.9995121
vn 0.73565304 -0.6772161 -0.01389146
vn 0.91568506 -0.40165654 -0.013891429
vn 0.02298111 -0.021155316 -0.99951196
vn 0.47590166 -0.87938887 -0.013891382
vn 0.01486696 -0.027470933 -0.99951196
vn -0.16457878 -0.9862662 0.013891299
vn -0.0051412303 -0.030809801 0.99951196
vn 0.0051411944 -0.030809801 0.99951196
vn 0.16457878 -0.9862662 0.013891299
vn -0.4759013 -0.8793889 0.013891351
vn -0.0051412303 -0.030809801 0.99951196
vn -0.014866632 -0.027471246 0.99951196
vn -0.7356531 -0.677216 0.013891419
vn -0.014866632 -0.027471246 0.99951196
vn -0.022981059 -0.021155732 0.99951196
vn -0.91568506 -0.40165642 0.013891402
vn -0.022981059 -0.021155732 0.99951196
vn -0.028605076 -0.012547233 0.99951196
vn -0.99648833 -0.082571246 0.01389139
vn -0.031129105 -0.0025793484 0.99951196
vn -0.028605076 -0.012547233 0.99951196
vn -0.91568506 -0.40165642 0.013891402
vn -0.031129034 -0.002579312 -0.99951196
vn -0.030279985 0.0076679448 -0.99951196
vn -0.9693067 0.24546188 -0.013891401
vn -0.99648833 -0.082571246 -0.01389141
vn -0.030279985 0.0076679448 -0.99951196
vn -0.026149575 0.017084442 -0.99951196
vn -0.8370856 0.5468955 -0.013891372
vn -0.9693067 0.24546188 -0.013891401
vn -0.32466796 0.94572604 0.01389147
vn -0.010142232 0.029543303 0.99951196
vn -0.01918535 0.024649426 0.99951196
vn -0.61415344 0.7890643 0.013891456
vn -0 0.031235658 0.9995121
vn -0.010142232 0.029543303 0.99951196
vn -0.32466796 0.94572604 0.01389147
vn -0 0.99990356 0.013891465
g maki_col_0
f 3/3/3 2/2/2 1/1/1
f 4/4/4 3/3/3 1/1/1
f 4/4/4 1/1/1 5/5/5
f 6/6/6 4/4/4 5/5/5
f 6/6/6 5/5/5 7/7/7
f 8/8/8 6/6/6 7/7/7
f 7/7/7 9/9/9 8/8/8
f 9/9/9 10/10/10 8/8/8
f 9/9/9 11/11/11 10/10/10
f 11/11/11 12/12/12 10/10/10
f 11/11/11 13/13/13 12/12/12
f 13/13/13 14/14/14 12/12/12
f 13/13/13 15/15/15 14/14/14
f 15/15/15 16/16/16 14/14/14
f 15/15/15 17/17/17 16/16/16
f 17/17/17 18/18/18 16/16/16
f 17/17/17 19/19/19 18/18/18
f 19/19/19 20/20/20 18/18/18
f 19/19/19 21/21/21 20/20/20
f 21/21/21 22/22/22 20/20/20
f 21/21/21 24/24/24 23/23/23
f 24/24/24 25/25/25 23/23/23
f 24/24/24 26/26/26 25/25/25
f 26/26/26 27/27/27 25/25/25
f 27/27/27 28/28/28 25/25/25
f 25/25/25 29/29/29 23/23/23
f 28/28/28 29/29/29 25/25/25
f 29/29/29 30/30/30 23/23/23
f 29/29/29 31/31/31 30/30/30
f 28/28/28 31/31/31 29/29/29
f 30/30/30 31/31/31 32/32/32
f 32/32/32 31/31/31 33/33/33
f 33/33/33 31/31/31 34/34/34
f 34/34/34 31/31/31 35/35/35
f 35/35/35 31/31/31 36/36/36
f 36/36/36 31/31/31 37/37/37
f 37/37/37 31/31/31 38/38/38
f 38/38/38 31/31/31 39/39/39
f 39/39/39 31/31/31 40/40/40
f 40/40/40 31/31/31 41/41/41
f 41/41/41 31/31/31 42/42/42
f 42/42/42 31/31/31 43/43/43
f 43/43/43 31/31/31 44/44/44
f 44/44/44 31/31/31 45/45/45
f 45/45/45 31/31/31 46/46/46
f 46/46/46 31/31/31 47/47/47
f 47/47/47 31/31/31 28/28/28
f 47/47/47 28/28/28 48/48/48
f 49/49/49 47/47/47 48/48/48
f 50/50/50 49/49/49 48/48/48
f 26/26/26 50/50/50 48/48/48
f 53/53/53 52/52/52 51/51/51
f 52/52/52 54/54/54 51/51/51
f 52/52/52 55/55/55 54/54/54
f 51/51/51 54/54/54 56/56/56
f 55/55/55 57/57/57 54/54/54
f 55/55/55 58/58/58 57/57/57
f 54/54/54 59/59/59 56/56/56
f 54/54/54 57/57/57 59/59/59
f 58/58/58 60/60/60 57/57/57
f 58/58/58 61/61/61 60/60/60
f 57/57/57 62/62/62 59/59/59
f 57/57/57 60/60/60 62/62/62
f 59/59/59 63/63/63 56/56/56
f 62/62/62 63/63/63 59/59/59
f 56/56/56 63/63/63 64/64/64
f 64/64/64 63/63/63 65/65/65
f 66/66/66 56/56/56 64/64/64
f 67/67/67 66/66/66 64/64/64
f 68/68/68 66/66/66 67/67/67
f 3/3/3 68/68/68 67/67/67
f 65/65/65 63/63/63 69/69/69
f 69/69/69 63/63/63 70/70/70
f 70/70/70 63/63/63 71/71/71
f 71/71/71 63/63/63 72/72/72
f 72/72/72 63/63/63 73/73/73
f 73/73/73 63/63/63 74/74/74
f 74/74/74 63/63/63 75/75/75
f 75/75/75 63/63/63 76/76/76
f 76/76/76 63/63/63 77/77/77
f 77/77/77 63/63/63 78/78/78
f 78/78/78 63/63/63 79/79/79
f 79/79/79 63/63/63 80/80/80
f 80/80/80 63/63/63 81/81/81
f 82/82/82 80/80/80 81/81/81
f 81/81/81 63/63/63 83/83/83
f 83/83/83 63/63/63 62/62/62
f 60/60/60 83/83/83 62/62/62
f 84/84/84 82/82/82 81/81/81
f 84/84/84 81/81/81 83/83/83
f 60/60/60 84/84/84 83/83/83
f 85/85/85 82/82/82 84/84/84
f 61/61/61 84/84/84 60/60/60
f 61/61/61 85/85/85 84/84/84
f 88/88/88 87/87/87 86/86/86
f 89/89/89 88/88/88 86/86/86
f 89/89/89 90/90/90 88/88/88
f 90/90/90 91/91/91 88/88/88
f 86/86/86 93/93/93 92/92/92
f 94/94/94 86/86/86 92/92/92
f 94/94/94 92/92/92 95/95/95
f 96/96/96 94/94/94 95/95/95
f 96/96/96 95/95/95 97/97/97
f 98/98/98 96/96/96 97/97/97
f 101/101/101 100/100/100 99/99/99
f 102/102/102 101/101/101 99/99/99
f 99/99/99 104/104/104 103/103/103
f 104/104/104 105/105/105 103/103/103
f 103/103/103 107/107/107 106/106/106
f 107/107/107 108/108/108 106/106/106
f 106/106/106 110/110/110 109/109/109
f 110/110/110 111/111/111 109/109/109
f 109/109/109 113/113/113 112/112/112
f 113/113/113 114/114/114 112/112/112
f 112/112/112 116/116/116 115/115/115
f 116/116/116 117/117/117 115/115/115
f 115/115/115 119/119/119 118/118/118
f 119/119/119 120/120/120 118/118/118
f 118/118/118 122/122/122 121/121/121
f 122/122/122 123/123/123 121/121/121
f 121/121/121 125/125/125 124/124/124
f 125/125/125 126/126/126 124/124/124
f 129/129/129 128/128/128 127/127/127
f 130/130/130 129/129/129 127/127/127
f 133/133/133 132/132/132 131/131/131
f 134/134/134 133/133/133 131/131/131
f 137/137/137 136/136/136 135/135/135
f 138/138/138 137/137/137 135/135/135
f 141/141/141 140/140/140 139/139/139
f 142/142/142 141/141/141 139/139/139
f 145/145/145 144/144/144 143/143/143
f 144/144/144 146/146/146 143/143/143
f 144/144/144 147/147/147 146/146/146
f 147/147/147 148/148/148 146/146/146
f 151/151/151 150/150/150 149/149/149
f 152/152/152 151/151/151 149/149/149
f 149/149/149 154/154/154 153/153/153
f 154/154/154 155/155/155 153/153/153
f 153/153/153 157/157/157 156/156/156
f 157/157/157 158/158/158 156/156/156
f 156/156/156 160/160/160 159/159/159
f 160/160/160 161/161/161 159/159/159
f 164/164/164 163/163/163 162/162/162
f 165/165/165 164/164/164 162/162/162
f 168/168/168 167/167/167 166/166/166
f 169/169/169 168/168/168 166/166/166
f 172/172/172 171/171/171 170/170/170
f 173/173/173 172/172/172 170/170/170
f 176/176/176 175/175/175 174/174/174
f 177/177/177 176/176/176 174/174/174
f 180/180/180 179/179/179 178/178/178
f 181/181/181 180/180/180 178/178/178
