g milk_col
v 0.11421916 0.25461048 0.006304115
v 0.16664696 0.24647236 -0.14488688
v 0.16664696 0.24647236 0.018678593
v 0.16664696 0.24647236 0.14465061
v 0.11421916 0.25461048 0.102489285
v 0.16664697 0.24647236 0.08804845
v -0.23490039 -0.45095685 0.14465061
v -0.23490039 0.21572839 0.14465061
v 0.16664696 0.24647236 0.14465061
v 0.16664696 -0.45095685 0.14465061
v 0.03198749 0.4352137 0.08804844
v 0.03198749 0.4352137 0.01867859
v 0.10258569 0.45848358 0.01867859
v 0.10258569 0.45848358 0.08804844
v -0.23490039 0.21572839 -0.14488688
v -0.23490039 -0.45095685 -0.14488688
v 0.16664696 -0.45095685 -0.14488688
v 0.16664696 0.24647236 -0.14488688
v -0.23490039 -0.45095685 -0.14488688
v -0.23490039 -0.45095685 0.14465061
v 0.16664696 -0.45095685 0.14465061
v 0.16664696 -0.45095685 -0.14488688
v 0.16664696 -0.45095685 0.14465061
v 0.16664696 0.24647236 -0.14488688
v 0.16664696 -0.45095685 -0.14488688
v 0.16664696 0.24647236 0.018678593
v 0.16664697 0.24647236 0.08804845
v 0.16664696 0.24647236 0.14465061
v -0.23490039 -0.45095685 -0.14488688
v -0.23490039 0.21572839 -0.14488688
v -0.23490039 0.21572839 0.14465061
v -0.23490039 -0.45095685 0.14465061
v -0.23490039 0.21572839 0.14465061
v 0.010531567 0.23652577 0.102489285
v 0.11421916 0.25461048 0.102489285
v 0.16664696 0.24647236 0.14465061
v 0.16664696 0.24647236 -0.14488688
v 0.11421916 0.25461048 0.006304115
v 0.010531567 0.23652577 0.006304115
v -0.23490039 0.21572839 -0.14488688
v 0.010531567 0.23652577 0.102489285
v -0.23490039 0.21572839 0.14465061
v 0.10258569 0.45848358 0.08804844
v 0.10258569 0.45848358 0.01867859
v 0.15228678 0.43996403 0.018678593
v 0.15228681 0.43996403 0.08804844
v 0.010531567 0.23652577 0.102489285
v 0.020921059 0.32200864 0.08804845
v 0.11943677 0.3396347 0.0880485
v 0.11421916 0.25461048 0.102489285
v 0.11421916 0.25461048 0.006304115
v 0.11943677 0.3396347 0.018678576
v 0.020921059 0.32200864 0.01867859
v 0.010531567 0.23652577 0.006304115
v 0.010531567 0.23652577 0.006304115
v 0.020921059 0.32200864 0.08804845
v 0.010531567 0.23652577 0.102489285
v 0.020921059 0.32200864 0.01867859
v 0.03198749 0.4352137 0.08804844
v 0.03198749 0.4352137 0.01867859
v 0.11421916 0.25461048 0.102489285
v 0.11943677 0.3396347 0.0880485
v 0.22550581 0.3287619 0.0880484
v 0.16664697 0.24647236 0.08804845
v 0.16664697 0.24647236 0.08804845
v 0.22550581 0.3287619 0.0880484
v 0.22550581 0.3287619 0.018678645
v 0.16664696 0.24647236 0.018678593
v 0.16664696 0.24647236 0.018678593
v 0.22550581 0.3287619 0.018678645
v 0.11943677 0.3396347 0.018678576
v 0.11421916 0.25461048 0.006304115
v 0.11943677 0.3396347 0.018678576
v 0.03198749 0.4352137 0.01867859
v 0.020921059 0.32200864 0.01867859
v 0.10258569 0.45848358 0.01867859
v 0.22550581 0.3287619 0.018678645
v 0.15228678 0.43996403 0.018678593
v 0.22550581 0.3287619 0.0880484
v 0.15228681 0.43996403 0.08804844
v 0.15228678 0.43996403 0.018678593
v 0.22550581 0.3287619 0.018678645
v 0.11943677 0.3396347 0.0880485
v 0.15228681 0.43996403 0.08804844
v 0.22550581 0.3287619 0.0880484
v 0.10258569 0.45848358 0.08804844
v 0.020921059 0.32200864 0.08804845
v 0.03198749 0.4352137 0.08804844
vt 0.625 0.5
vt 0.625 0.5
vt 0.625 0.37079525
vt 0.625 0.25
vt 0.625 0.25
vt 0.625 0.2814597
vt 0.375 0
vt 0.375 0.25
vt 0.625 0.25
vt 0.625 0
vt 0.375 0.25
vt 0.375 0.5
vt 0.625 0.5
vt 0.625 0.25
vt 0.375 0.5
vt 0.375 0.75
vt 0.625 0.75
vt 0.625 0.5
vt 0.375 0.75
vt 0.375 1
vt 0.625 1
vt 0.625 0.75
vt 0.625 0
vt 0.875 0.25
vt 0.875 0
vt 0.74579525 0.25
vt 0.6564597 0.25
vt 0.625 0.25
vt 0.125 0
vt 0.125 0.25
vt 0.375 0.25
vt 0.375 0
vt 0.375 0.25
vt 0.375 0.25
vt 0.625 0.25
vt 0.625 0.25
vt 0.625 0.5
vt 0.625 0.5
vt 0.375 0.5
vt 0.375 0.5
vt 0.375 0.25
vt 0.375 0.25
vt 0.625 0.25
vt 0.625 0.5
vt 0.625 0.37079525
vt 0.625 0.2814597
vt 0.375 0.25
vt 0.375 0.25
vt 0.625 0.25
vt 0.625 0.25
vt 0.625 0.5
vt 0.625 0.5
vt 0.375 0.5
vt 0.375 0.5
vt 0.375 0.5
vt 0.375 0.25
vt 0.375 0.25
vt 0.375 0.5
vt 0.375 0.25
vt 0.375 0.5
vt 0.625 0.25
vt 0.625 0.25
vt 0.625 0.2814597
vt 0.625 0.2814597
vt 0.625 0.2814597
vt 0.625 0.2814597
vt 0.625 0.37079525
vt 0.625 0.37079525
vt 0.625 0.37079525
vt 0.625 0.37079525
vt 0.625 0.5
vt 0.625 0.5
vt 0.625 0.5
vt 0.375 0.5
vt 0.375 0.5
vt 0.625 0.5
vt 0.625 0.37079525
vt 0.625 0.37079525
vt 0.625 0.2814597
vt 0.625 0.2814597
vt 0.625 0.37079525
vt 0.625 0.37079525
vt 0.625 0.25
vt 0.625 0.2814597
vt 0.625 0.2814597
vt 0.625 0.25
vt 0.375 0.25
vt 0.375 0.25
vn 0.15338832 0.9881661 0
vn 0.15338832 0.988166 0
vn 0.15338832 0.9881661 0
vn 0.15338828 0.9881661 0
vn 0.15338828 0.9881661 0
vn 0.15338829 0.9881661 0
vn -0 0 1
vn -0 0 1
vn -0 0 1
vn -0 0 1
vn -0.31304327 0.9497388 0
vn -0.31304327 0.9497388 0
vn -0.31304327 0.9497388 0
vn -0.31304327 0.9497388 0
vn -0 0 -1
vn -0 0 -1
vn -0 0 -1
vn -0 0 -1
vn -0 -1 0
vn -0 -1 0
vn -0 -1 0
vn -0 -1 0
vn 1 0 0
vn 1 0 0
vn 1 0 0
vn 1 0 0
vn 1 0 0
vn 1 0 0
vn -1 0 0
vn -1 0 0
vn -1 0 0
vn -1 0 0
vn -0.09549636 0.9881103 0.12049289
vn -0.09549634 0.9881103 0.120492876
vn -0.09549636 0.9881103 0.1204929
vn -0.09549636 0.9881103 0.1204929
vn -0.096142195 0.9947925 -0.033828035
vn -0.0961422 0.9947925 -0.03382804
vn -0.09614221 0.9947925 -0.03382804
vn -0.0961422 0.9947925 -0.033828042
vn -0.0844353 0.996429 0
vn -0.08443529 0.996429 0
vn 0.34916613 0.93706083 0
vn 0.3491661 0.93706083 0
vn 0.3491661 0.93706083 0
vn 0.34916613 0.93706083 0
vn -0.02995236 0.16959731 0.9850582
vn -0.029952364 0.16959731 0.9850582
vn -0.029952362 0.16959731 0.9850582
vn -0.02995236 0.16959731 0.9850582
vn -0.025768192 0.14590563 -0.9889628
vn -0.025768189 0.14590563 -0.9889628
vn -0.025768192 0.14590564 -0.9889628
vn -0.02576819 0.14590563 -0.9889628
vn -0.992695 0.12065106 0
vn -0.992695 0.12065106 0
vn -0.992695 0.12065107 0
vn -0.992695 0.12065106 0
vn -0.9952559 0.09729184 0
vn -0.9952559 0.09729184 0
vn 0.09643942 0.048870333 0.99413836
vn 0.096439436 0.048870336 0.99413836
vn 0.09643943 0.048870333 0.99413836
vn 0.09643943 0.04887033 0.99413836
vn 0.8133565 -0.58176553 0
vn 0.81335646 -0.58176553 0
vn 0.81335646 -0.58176553 0
vn 0.8133565 -0.58176553 0
vn 0.082768425 0.041942883 -0.9956858
vn 0.08276842 0.041942887 -0.9956858
vn 0.082768425 0.041942887 -0.9956858
vn 0.082768425 0.041942887 -0.9956858
vn -0 0 -1
vn -0 0 -1
vn -0 0 -1
vn -0 0 -1
vn -0 0 -1
vn -0 0 -1
vn 0.83521116 0.54992944 0
vn 0.83521116 0.5499294 0
vn 0.8352111 0.54992944 0
vn 0.8352111 0.5499295 0
vn -0 0 1
vn -0 0 1
vn -0 0 1
vn -0 0 1
vn -0 0 1
vn -0 0 1
g milk_col_0
f 3/3/3 2/2/2 1/1/1
f 6/6/6 5/5/5 4/4/4
f 9/9/9 8/8/8 7/7/7
f 10/10/10 9/9/9 7/7/7
f 13/13/13 12/12/12 11/11/11
f 14/14/14 13/13/13 11/11/11
f 17/17/17 16/16/16 15/15/15
f 18/18/18 17/17/17 15/15/15
f 21/21/21 20/20/20 19/19/19
f 22/22/22 21/21/21 19/19/19
f 25/25/25 24/24/24 23/23/23
f 24/24/24 26/26/26 23/23/23
f 26/26/26 27/27/27 23/23/23
f 27/27/27 28/28/28 23/23/23
f 31/31/31 30/30/30 29/29/29
f 32/32/32 31/31/31 29/29/29
f 35/35/35 34/34/34 33/33/33
f 36/36/36 35/35/35 33/33/33
f 39/39/39 38/38/38 37/37/37
f 40/40/40 39/39/39 37/37/37
f 41/41/41 39/39/39 40/40/40
f 42/42/42 41/41/41 40/40/40
f 45/45/45 44/44/44 43/43/43
f 46/46/46 45/45/45 43/43/43
f 49/49/49 48/48/48 47/47/47
f 50/50/50 49/49/49 47/47/47
f 53/53/53 52/52/52 51/51/51
f 54/54/54 53/53/53 51/51/51
f 57/57/57 56/56/56 55/55/55
f 56/56/56 58/58/58 55/55/55
f 56/56/56 59/59/59 58/58/58
f 59/59/59 60/60/60 58/58/58
f 63/63/63 62/62/62 61/61/61
f 64/64/64 63/63/63 61/61/61
f 67/67/67 66/66/66 65/65/65
f 68/68/68 67/67/67 65/65/65
f 71/71/71 70/70/70 69/69/69
f 72/72/72 71/71/71 69/69/69
f 75/75/75 74/74/74 73/73/73
f 74/74/74 76/76/76 73/73/73
f 73/73/73 76/76/76 77/77/77
f 76/76/76 78/78/78 77/77/77
f 81/81/81 80/80/80 79/79/79
f 82/82/82 81/81/81 79/79/79
f 85/85/85 84/84/84 83/83/83
f 84/84/84 86/86/86 83/83/83
f 83/83/83 86/86/86 87/87/87
f 86/86/86 88/88/88 87/87/87
