g mug_col
v 0.14985704 -0.25926232 -0.06885199
v 0.14985704 0.2612278 -0.06885199
v 0.079482675 0.26122773 -0.19074392
v 0.079482734 -0.25926232 -0.19074391
v 0.079482734 -0.25926232 -0.19074391
v 0.079482675 0.26122773 -0.19074392
v -0.04240924 0.2612278 -0.2611183
v -0.04240924 -0.25926232 -0.2611183
v -0.04240924 -0.25926232 -0.2611183
v -0.04240924 0.2612278 -0.2611183
v -0.18315792 0.2612278 -0.2611183
v -0.18315792 -0.25926232 -0.2611183
v -0.18315792 -0.25926232 -0.2611183
v -0.18315792 0.2612278 -0.2611183
v -0.30504984 0.2612278 -0.19074391
v -0.30504984 -0.25926232 -0.19074391
v -0.30504984 -0.25926232 -0.19074391
v -0.30504984 0.2612278 -0.19074391
v -0.3754242 0.2612278 -0.06885199
v -0.3754242 -0.25926232 -0.06885199
v -0.3754242 -0.25926232 -0.06885199
v -0.3754242 0.2612278 -0.06885199
v -0.3754242 0.2612278 0.07189669
v -0.3754242 -0.25926232 0.07189669
v -0.3754242 -0.25926232 0.07189669
v -0.3754242 0.2612278 0.07189669
v -0.30504984 0.2612278 0.19378866
v -0.30504984 -0.25926232 0.19378866
v -0.30504984 -0.25926232 0.19378866
v -0.30504984 0.2612278 0.19378866
v -0.18315792 0.2612278 0.26416296
v -0.18315792 -0.25926232 0.26416296
v -0.18315792 -0.25926232 0.26416296
v -0.18315792 0.2612278 0.26416296
v -0.04240924 0.2612278 0.26416296
v -0.04240924 -0.25926232 0.26416296
v -0.04240924 -0.25926232 0.26416296
v -0.04240924 0.2612278 0.26416296
v 0.079482734 0.2612278 0.19378866
v 0.079482734 -0.25926232 0.19378866
v 0.079482734 -0.25926232 0.19378866
v 0.079482734 0.2612278 0.19378866
v 0.14985704 0.2612278 0.07189669
v 0.14985704 -0.25926232 0.07189669
v 0.38375336 -0.05097968 0.061553746
v 0.38375336 0.05294519 0.061553746
v 0.38375336 0.05294519 -0.05850905
v 0.38375336 -0.05097968 -0.05850905
v 0.14985704 -0.25926232 0.07189669
v 0.21995735 -0.19853842 0.061553746
v 0.21995729 -0.19853842 -0.05850905
v 0.14985704 -0.25926232 -0.06885199
v 0.14985704 -0.25926232 -0.06885199
v 0.21995729 -0.19853842 -0.05850905
v 0.21995729 0.20050395 -0.05850905
v 0.14985704 0.2612278 -0.06885199
v 0.14985704 0.2612278 -0.06885199
v 0.21995729 0.20050395 -0.05850905
v 0.21995735 0.20050395 0.061553746
v 0.14985704 0.2612278 0.07189669
v 0.14985704 0.2612278 0.07189669
v 0.21995735 0.20050395 0.061553746
v 0.21995735 -0.19853842 0.061553746
v 0.14985704 -0.25926232 0.07189669
v 0.31135982 0.15847921 0.061553746
v 0.38375336 0.05294519 0.061553746
v 0.38375336 -0.05097968 0.061553746
v 0.31135982 -0.15651369 0.061553746
v 0.21995735 0.20050395 0.061553746
v 0.21995735 -0.19853842 0.061553746
v 0.3113597 0.15847921 -0.05850905
v 0.38375336 0.05294519 -0.05850905
v 0.38375336 0.05294519 0.061553746
v 0.31135982 0.15847921 0.061553746
v 0.31135982 -0.15651369 -0.05850905
v 0.38375336 -0.05097968 -0.05850905
v 0.38375336 0.05294519 -0.05850905
v 0.3113597 0.15847921 -0.05850905
v 0.21995729 -0.19853842 -0.05850905
v 0.21995729 0.20050395 -0.05850905
v 0.31135982 -0.15651369 0.061553746
v 0.38375336 -0.05097968 0.061553746
v 0.38375336 -0.05097968 -0.05850905
v 0.31135982 -0.15651369 -0.05850905
v 0.21995729 0.20050395 -0.05850905
v 0.3113597 0.15847921 -0.05850905
v 0.31135982 0.15847921 0.061553746
v 0.21995735 0.20050395 0.061553746
v 0.21995735 -0.19853842 0.061553746
v 0.31135982 -0.15651369 0.061553746
v 0.31135982 -0.15651369 -0.05850905
v 0.21995729 -0.19853842 -0.05850905
v 0.079482734 0.2612278 0.19378866
v -0.11278358 0.2612278 0.0015223525
v 0.14985704 0.2612278 0.07189669
v -0.04240924 0.2612278 0.26416296
v 0.14985704 0.2612278 -0.06885199
v -0.18315792 0.2612278 0.26416296
v 0.079482675 0.26122773 -0.19074392
v -0.30504984 0.2612278 0.19378866
v -0.04240924 0.2612278 -0.2611183
v -0.3754242 0.2612278 0.07189669
v -0.18315792 0.2612278 -0.2611183
v -0.3754242 0.2612278 -0.06885199
v -0.30504984 0.2612278 -0.19074391
v 0.14985704 -0.25926232 0.07189669
v -0.11278358 -0.25926232 0.0015223525
v 0.079482734 -0.25926232 0.19378866
v 0.14985704 -0.25926232 -0.06885199
v -0.04240924 -0.25926232 0.26416296
v 0.079482734 -0.25926232 -0.19074391
v -0.18315792 -0.25926232 0.26416296
v -0.04240924 -0.25926232 -0.2611183
v -0.30504984 -0.25926232 0.19378866
v -0.18315792 -0.25926232 -0.2611183
v -0.3754242 -0.25926232 0.07189669
v -0.30504984 -0.25926232 -0.19074391
v -0.3754242 -0.25926232 -0.06885199
vt 0.375 0.3125
vt 0.375 0.6875
vt 0.39583334 0.6875
vt 0.39583334 0.3125
vt 0.39583334 0.3125
vt 0.39583334 0.6875
vt 0.4166667 0.6875
vt 0.4166667 0.3125
vt 0.4166667 0.3125
vt 0.4166667 0.6875
vt 0.43750003 0.6875
vt 0.43750003 0.3125
vt 0.43750003 0.3125
vt 0.43750003 0.6875
vt 0.45833337 0.6875
vt 0.45833337 0.3125
vt 0.45833337 0.3125
vt 0.45833337 0.6875
vt 0.47916672 0.6875
vt 0.47916672 0.3125
vt 0.47916672 0.3125
vt 0.47916672 0.6875
vt 0.50000006 0.6875
vt 0.50000006 0.3125
vt 0.50000006 0.3125
vt 0.50000006 0.6875
vt 0.5208334 0.6875
vt 0.5208334 0.3125
vt 0.5208334 0.3125
vt 0.5208334 0.6875
vt 0.5416667 0.6875
vt 0.5416667 0.3125
vt 0.5416667 0.3125
vt 0.5416667 0.6875
vt 0.5625 0.6875
vt 0.5625 0.3125
vt 0.5625 0.3125
vt 0.5625 0.6875
vt 0.5833333 0.6875
vt 0.5833333 0.3125
vt 0.5833333 0.3125
vt 0.5833333 0.6875
vt 0.6041666 0.6875
vt 0.6041666 0.3125
vt 0.6041666 0.3125
vt 0.6041666 0.6875
vt 0.62499994 0.6875
vt 0.62499994 0.3125
vt 0.6041666 0.3125
vt 0.6041666 0.3125
vt 0.62499994 0.3125
vt 0.62499994 0.3125
vt 0.62499994 0.3125
vt 0.62499994 0.3125
vt 0.62499994 0.6875
vt 0.62499994 0.6875
vt 0.62499994 0.6875
vt 0.62499994 0.6875
vt 0.6041666 0.6875
vt 0.6041666 0.6875
vt 0.6041666 0.6875
vt 0.6041666 0.6875
vt 0.6041666 0.3125
vt 0.6041666 0.3125
vt 0.6041666 0.6875
vt 0.6041666 0.6875
vt 0.6041666 0.3125
vt 0.6041666 0.3125
vt 0.6041666 0.6875
vt 0.6041666 0.3125
vt 0.62499994 0.6875
vt 0.62499994 0.6875
vt 0.6041666 0.6875
vt 0.6041666 0.6875
vt 0.62499994 0.3125
vt 0.62499994 0.3125
vt 0.62499994 0.6875
vt 0.62499994 0.6875
vt 0.62499994 0.3125
vt 0.62499994 0.6875
vt 0.6041666 0.3125
vt 0.6041666 0.3125
vt 0.62499994 0.3125
vt 0.62499994 0.3125
vt 0.62499994 0.6875
vt 0.62499994 0.6875
vt 0.6041666 0.6875
vt 0.6041666 0.6875
vt 0.6041666 0.3125
vt 0.6041666 0.3125
vt 0.62499994 0.3125
vt 0.62499994 0.3125
vt 0.6353165 0.765625
vt 0.5 0.84375
vt 0.65625 0.84375
vt 0.578125 0.7084335
vt 0.6353165 0.921875
vt 0.5 0.6875
vt 0.578125 0.9790665
vt 0.421875 0.7084335
vt 0.5 1
vt 0.36468354 0.765625
vt 0.421875 0.9790665
vt 0.34375 0.84375
vt 0.36468354 0.921875
vt 0.65625 0.15625
vt 0.5 0.15625
vt 0.6353165 0.234375
vt 0.6353165 0.078125
vt 0.578125 0.29156646
vt 0.578125 0.020933539
vt 0.5 0.3125
vt 0.5 0
vt 0.421875 0.29156646
vt 0.421875 0.020933539
vt 0.36468354 0.234375
vt 0.36468354 0.078125
vt 0.34375 0.15625
vn 0.8660253 0 -0.5000001
vn 0.8660253 0 -0.5000001
vn 0.8660253 0 -0.5000001
vn 0.8660253 0 -0.5000001
vn 0.5000001 0 -0.8660253
vn 0.50000006 0 -0.8660253
vn 0.50000006 0 -0.8660253
vn 0.5000001 0 -0.8660253
vn -0 0 -1
vn -0 0 -1
vn -0 0 -1
vn -0 0 -1
vn -0.50000006 0 -0.8660253
vn -0.50000006 0 -0.8660253
vn -0.50000006 0 -0.8660253
vn -0.50000006 0 -0.8660253
vn -0.86602527 0 -0.5000002
vn -0.86602527 0 -0.5000002
vn -0.86602527 0 -0.5000002
vn -0.86602527 0 -0.5000002
vn -1 0 0
vn -1 0 0
vn -1 0 0
vn -1 0 0
vn -0.86602545 0 0.5
vn -0.86602545 0 0.5
vn -0.86602545 0 0.5
vn -0.86602545 0 0.5
vn -0.4999999 0 0.8660255
vn -0.4999999 0 0.8660255
vn -0.4999999 0 0.8660255
vn -0.4999999 0 0.8660255
vn -0 0 1
vn -0 0 1
vn -0 0 1
vn -0 0 1
vn 0.49999964 0 0.8660256
vn 0.49999964 0 0.8660256
vn 0.49999964 0 0.8660256
vn 0.49999964 0 0.8660256
vn 0.8660256 0 0.49999964
vn 0.8660256 0 0.49999964
vn 0.8660256 0 0.49999964
vn 0.8660256 0 0.49999964
vn 1 0 0
vn 1 0 0
vn 1 0 0
vn 1 0 0
vn 0.65474784 -0.75584745 0
vn 0.65474784 -0.75584745 0
vn 0.65474784 -0.75584745 0
vn 0.65474784 -0.75584745 0
vn 0.14596477 0 -0.9892898
vn 0.14596476 0 -0.9892898
vn 0.14596476 0 -0.9892898
vn 0.14596477 0 -0.9892898
vn 0.6547474 0.7558477 0
vn 0.6547474 0.7558477 0
vn 0.6547474 0.7558477 0
vn 0.6547474 0.7558477 0
vn 0.1459646 0 0.9892898
vn 0.14596458 0 0.9892898
vn 0.1459646 0 0.9892898
vn 0.14596456 0 0.9892898
vn -0 0 1
vn -0 0 1
vn -0 0 1
vn -0 0 1
vn -0 0 1
vn -0 0 1
vn 0.824629 0.56567395 0
vn 0.82462895 0.56567395 0
vn 0.82462895 0.56567395 0
vn 0.82462895 0.56567395 0
vn -0 0 -1
vn -0 0 -1
vn -0 0 -1
vn -0 0 -1
vn -0 0 -1
vn -0 0 -1
vn 0.8246291 -0.5656738 0
vn 0.8246291 -0.5656738 0
vn 0.8246291 -0.5656738 0
vn 0.8246291 -0.5656738 0
vn 0.4177382 0.9085674 0
vn 0.41773823 0.90856737 0
vn 0.41773823 0.90856737 0
vn 0.41773823 0.90856737 0
vn 0.41773814 -0.9085674 0
vn 0.4177381 -0.9085674 0
vn 0.4177381 -0.9085674 0
vn 0.4177381 -0.9085674 0
vn -0 1 0
vn -0 1 0
vn -0 1 0
vn -0 1 0
vn -0 1 0
vn -0 1 0
vn -0 1 0
vn -0 1 0
vn -0 1 0
vn -0 1 0
vn -0 1 0
vn -0 1 0
vn -0 1 0
vn -0 -1 0
vn -0 -1 0
vn -0 -1 0
vn -0 -1 0
vn -0 -1 0
vn -0 -1 0
vn -0 -1 0
vn -0 -1 0
vn -0 -1 0
vn -0 -1 0
vn -0 -1 0
vn -0 -1 0
vn -0 -1 0
g mug_col_0
f 3/3/3 2/2/2 1/1/1
f 4/4/4 3/3/3 1/1/1
f 7/7/7 6/6/6 5/5/5
f 8/8/8 7/7/7 5/5/5
f 11/11/11 10/10/10 9/9/9
f 12/12/12 11/11/11 9/9/9
f 15/15/15 14/14/14 13/13/13
f 16/16/16 15/15/15 13/13/13
f 19/19/19 18/18/18 17/17/17
f 20/20/20 19/19/19 17/17/17
f 23/23/23 22/22/22 21/21/21
f 24/24/24 23/23/23 21/21/21
f 27/27/27 26/26/26 25/25/25
f 28/28/28 27/27/27 25/25/25
f 31/31/31 30/30/30 29/29/29
f 32/32/32 31/31/31 29/29/29
f 35/35/35 34/34/34 33/33/33
f 36/36/36 35/35/35 33/33/33
f 39/39/39 38/38/38 37/37/37
f 40/40/40 39/39/39 37/37/37
f 43/43/43 42/42/42 41/41/41
f 44/44/44 43/43/43 41/41/41
f 47/47/47 46/46/46 45/45/45
f 48/48/48 47/47/47 45/45/45
f 51/51/51 50/50/50 49/49/49
f 52/52/52 51/51/51 49/49/49
f 55/55/55 54/54/54 53/53/53
f 56/56/56 55/55/55 53/53/53
f 59/59/59 58/58/58 57/57/57
f 60/60/60 59/59/59 57/57/57
f 63/63/63 62/62/62 61/61/61
f 64/64/64 63/63/63 61/61/61
f 67/67/67 66/66/66 65/65/65
f 68/68/68 67/67/67 65/65/65
f 68/68/68 65/65/65 69/69/69
f 70/70/70 68/68/68 69/69/69
f 73/73/73 72/72/72 71/71/71
f 74/74/74 73/73/73 71/71/71
f 77/77/77 76/76/76 75/75/75
f 78/78/78 77/77/77 75/75/75
f 78/78/78 75/75/75 79/79/79
f 80/80/80 78/78/78 79/79/79
f 83/83/83 82/82/82 81/81/81
f 84/84/84 83/83/83 81/81/81
f 87/87/87 86/86/86 85/85/85
f 88/88/88 87/87/87 85/85/85
f 91/91/91 90/90/90 89/89/89
f 92/92/92 91/91/91 89/89/89
f 95/95/95 94/94/94 93/93/93
f 93/93/93 94/94/94 96/96/96
f 97/97/97 94/94/94 95/95/95
f 96/96/96 94/94/94 98/98/98
f 99/99/99 94/94/94 97/97/97
f 98/98/98 94/94/94 100/100/100
f 101/101/101 94/94/94 99/99/99
f 100/100/100 94/94/94 102/102/102
f 103/103/103 94/94/94 101/101/101
f 102/102/102 94/94/94 104/104/104
f 105/105/105 94/94/94 103/103/103
f 104/104/104 94/94/94 105/105/105
f 108/108/108 107/107/107 106/106/106
f 106/106/106 107/107/107 109/109/109
f 110/110/110 107/107/107 108/108/108
f 109/109/109 107/107/107 111/111/111
f 112/112/112 107/107/107 110/110/110
f 111/111/111 107/107/107 113/113/113
f 114/114/114 107/107/107 112/112/112
f 113/113/113 107/107/107 115/115/115
f 116/116/116 107/107/107 114/114/114
f 115/115/115 107/107/107 117/117/117
f 118/118/118 107/107/107 116/116/116
f 117/117/117 107/107/107 118/118/118
