g number7_collision
v -0.31226546 0.4293447 0.08912307
v -0.29167968 0.3035932 0.08912308
v -0.31659818 0.34896874 0.08912307
v -0.31226546 0.4293447 0.08912307
v -0.29167968 0.3035932 0.08912308
v -0.23933406 0.48327386 0.08912307
v -0.2201306 0.27456918 0.08912307
v -0.23933406 0.48327386 0.08912307
v -0.2201306 0.27456918 0.08912307
v 0.057278384 0.27328515 0.08912307
v 0.24871638 0.4801734 0.08912307
v 0.24871638 0.4801734 0.08912307
v 0.31025577 0.42829016 0.08912307
v 0.31025577 0.42829016 0.08912307
v 0.31347916 0.3444008 0.08912305
v 0.31347916 0.3444008 0.08912305
v -0.18928719 -0.36196408 0.08912307
v 0.0027427203 -0.44796625 0.08912302
v -0.18928719 -0.36196408 0.08912307
v 0.0027427203 -0.44796625 0.08912302
v -0.189317 -0.42599463 0.08912307
v -0.087423764 -0.48781633 0.08912307
v -0.15494372 -0.46450782 0.08912307
v -0.31335726 0.4306539 -0.08912137
v -0.23933406 0.48327386 0.08912307
v -0.31226546 0.4293447 0.08912307
v -0.23363005 0.48404038 -0.0891226
v -0.23933406 0.48327386 0.08912307
v -0.23363005 0.48404038 -0.0891226
v 0.24871638 0.4801734 0.08912307
v 0.25620353 0.47726345 -0.08912258
v 0.24871638 0.4801734 0.08912307
v 0.25620353 0.47726345 -0.08912258
v 0.31025577 0.42829016 0.08912307
v 0.3018062 0.43997216 -0.08912152
v -0.31335726 0.4306539 -0.08912137
v -0.31226546 0.4293447 0.08912307
v -0.31659818 0.34896874 0.08912307
v -0.31659818 0.34893823 -0.089122474
v -0.29167968 0.3035932 0.08912308
v -0.28930017 0.3015466 -0.089123346
v 0.3018062 0.43997216 -0.08912152
v 0.31025577 0.42829016 0.08912307
v 0.31956184 0.36691716 -0.089122295
v 0.31347916 0.3444008 0.08912305
v 0.31347916 0.3444008 0.08912305
v 0.31956184 0.36691716 -0.089122295
v 0.0027427203 -0.44796625 0.08912302
v 0.00090322207 -0.44837964 -0.08912169
v -0.28930017 0.3015466 -0.089123346
v -0.31335726 0.4306539 -0.08912137
v -0.31659818 0.34893823 -0.089122474
v -0.31335726 0.4306539 -0.08912137
v -0.28930017 0.3015466 -0.089123346
v -0.23363005 0.48404038 -0.0891226
v -0.2212875 0.27514443 -0.08912343
v -0.2212875 0.27514443 -0.08912343
v -0.23363005 0.48404038 -0.0891226
v 0.057278384 0.27328515 -0.08912343
v 0.057278384 0.27328515 -0.08912343
v 0.25620353 0.47726345 -0.08912258
v 0.25620353 0.47726345 -0.08912258
v 0.3018062 0.43997216 -0.08912152
v 0.31956184 0.36691716 -0.089122295
v 0.31956184 0.36691716 -0.089122295
v -0.19006033 -0.36643147 -0.08912285
v 0.00090322207 -0.44837964 -0.08912169
v -0.19006033 -0.36643147 -0.08912285
v 0.00090322207 -0.44837964 -0.08912169
v -0.189317 -0.42596412 -0.089122474
v -0.052869093 -0.47860694 -0.08912152
v -0.12741052 -0.4809322 -0.0891214
v -0.29167968 0.3035932 0.08912308
v -0.28930017 0.3015466 -0.089123346
v -0.2201306 0.27456918 0.08912307
v -0.2212875 0.27514443 -0.08912343
v -0.2212875 0.27514443 -0.08912343
v -0.2201306 0.27456918 0.08912307
v 0.057278384 0.27328515 -0.08912343
v 0.057278384 0.27328515 0.08912307
v -0.18928719 -0.36196408 0.08912307
v 0.057278384 0.27328515 -0.08912343
v 0.057278384 0.27328515 0.08912307
v -0.19006033 -0.36643147 -0.08912285
v -0.18928719 -0.36196408 0.08912307
v -0.19006033 -0.36643147 -0.08912285
v -0.189317 -0.42599463 0.08912307
v -0.189317 -0.42596412 -0.089122474
v -0.15494372 -0.46450782 0.08912307
v -0.12741052 -0.4809322 -0.0891214
v -0.052869093 -0.47860694 -0.08912152
v 0.0027427203 -0.44796625 0.08912302
v 0.00090322207 -0.44837964 -0.08912169
v -0.087423764 -0.48781633 0.08912307
v -0.087423764 -0.48781633 0.08912307
v -0.12741052 -0.4809322 -0.0891214
v -0.12741052 -0.4809322 -0.0891214
v -0.15494372 -0.46450782 0.08912307
vt 0.6309582 0.60886383
vt 0.63297474 0.5951078
vt 0.6304594 0.5998353
vt 0.63297474 0.61123526
vt 0.63326275 0.5947323
vt 0.63770235 0.6141995
vt 0.64052045 0.5917101
vt 0.65736294 0.6152235
vt 0.65736294 0.5913217
vt 0.6725211 0.5913217
vt 0.6940584 0.6145964
vt 0.6965668 0.6131972
vt 0.7009815 0.60876256
vt 0.7016951 0.60521877
vt 0.70134425 0.5993234
vt 0.70004284 0.5952287
vt 0.6460024 0.52355653
vt 0.6663858 0.51018035
vt 0.644782 0.51985437
vt 0.6654583 0.50950766
vt 0.6447786 0.5126537
vt 0.6562419 0.50569475
vt 0.64864576 0.5083195
vt 0.742579 0.5628706
vt 0.73098505 0.5614163
vt 0.73098505 0.5628706
vt 0.742579 0.5614163
vt 0.73098505 0.54877007
vt 0.742579 0.54877007
vt 0.73098505 0.52870107
vt 0.742579 0.52870107
vt 0.73098505 0.52610344
vt 0.742579 0.52610344
vt 0.73098505 0.52410066
vt 0.742579 0.52410066
vt 0.73106635 0.5580472
vt 0.7426604 0.5580472
vt 0.7426604 0.5536238
vt 0.73106635 0.5536238
vt 0.7426604 0.55089056
vt 0.73106635 0.55089056
vt 0.74194705 0.5644196
vt 0.730353 0.56161094
vt 0.7419458 0.5600947
vt 0.730353 0.558663
vt 0.730353 0.5558349
vt 0.74194705 0.5558349
vt 0.730353 0.50983894
vt 0.74194705 0.5067242
vt 0.6335305 0.59450215
vt 0.6304594 0.6074859
vt 0.6304594 0.5998353
vt 0.6308241 0.60902596
vt 0.63548994 0.59353375
vt 0.63548994 0.6130115
vt 0.6411875 0.5915282
vt 0.6505815 0.5913217
vt 0.65144217 0.6152452
vt 0.65736294 0.5913217
vt 0.6725211 0.5913217
vt 0.69207394 0.6149347
vt 0.69490075 0.6142694
vt 0.7000308 0.61007667
vt 0.7016951 0.60521877
vt 0.70122546 0.5987636
vt 0.644695 0.519352
vt 0.66911006 0.5156745
vt 0.64465225 0.5186665
vt 0.6654583 0.50950766
vt 0.6447786 0.5126537
vt 0.6601293 0.5067297
vt 0.65174335 0.5064707
vt 0.7419151 0.5584697
vt 0.73032105 0.5584697
vt 0.7419151 0.5555612
vt 0.73032105 0.5555612
vt 0.73032105 0.54974425
vt 0.7419151 0.5458234
vt 0.73032105 0.5458234
vt 0.7419151 0.5370593
vt 0.7445406 0.5740788
vt 0.7312268 0.6190704
vt 0.7445406 0.6190704
vt 0.7312268 0.5740788
vt 0.7415539 0.55781376
vt 0.72995985 0.55781376
vt 0.7415539 0.5543373
vt 0.72995985 0.5543373
vt 0.7415539 0.55183136
vt 0.72995985 0.55183136
vt 0.73032105 0.5442239
vt 0.7419151 0.5411429
vt 0.73032105 0.5411429
vt 0.7419151 0.5442239
vt 0.7419151 0.5472828
vt 0.73032105 0.5472828
vt 0.73032105 0.5508634
vt 0.7419151 0.5508634
vn -0 0 1
vn -0 0 1
vn -0 0 1
vn -0 0 1
vn -0 0 1
vn -0 0 1
vn -0 0 1
vn -0 0 1
vn -0 0 1
vn -0 0 1
vn -0 0 1
vn -0 0 1
vn -0 0 1
vn -0 0 1
vn -0 0 1
vn -0 0 1
vn -0 0 1
vn -0 0 1
vn -0 0 1
vn -0 0 1
vn -0 0 1
vn -0 0 1
vn -0 0 1
vn -0.71552783 0.69858426 0
vn -0.4629521 0.88638324 0
vn -0.71552783 0.69858426 0
vn -0.46295217 0.88638324 0
vn 0.0041609765 0.9999914 0
vn 0.004160976 0.9999914 0
vn 0.18753777 0.9822574 0
vn 0.18753777 0.9822574 0
vn 0.5236581 0.85192853 0
vn 0.52365804 0.85192853 0
vn 0.83438414 0.5511834 0
vn 0.83438414 0.5511834 0
vn -0.9566744 0.2911598 0
vn -0.9566744 0.29115984 0
vn -0.9702631 -0.24205254 0
vn -0.9702631 -0.24205257 0
vn -0.7314836 -0.68185914 0
vn -0.7314836 -0.6818591 0
vn 0.83438414 0.5511834 0
vn 0.9902113 0.13957582 0
vn 0.99986506 -0.016427489 0
vn 0.9865643 -0.16337328 0
vn 0.9478004 -0.31886432 0
vn 0.9478004 -0.3188643 0
vn 0.8992519 -0.4374312 0
vn 0.71956253 -0.69442767 0
vn -0 0 -1
vn -0 0 -1
vn -0 0 -1
vn -0 0 -1
vn -0 0 -1
vn -0 0 -1
vn -0 0 -1
vn -0 0 -1
vn -0 0 -1
vn -0 0 -1
vn -0 0 -1
vn -0 0 -1
vn -0 0 -1
vn -0 0 -1
vn -0 0 -1
vn -0 0 -1
vn -0 0 -1
vn -0 0 -1
vn -0 0 -1
vn -0 0 -1
vn -0 0 -1
vn -0 0 -1
vn -0 0 -1
vn -0.4380968 -0.8989278 0
vn -0.4380968 -0.8989278 0
vn -0.19199002 -0.9813969 0
vn -0.19199003 -0.9813969 0
vn -0.01928571 -0.9998141 0
vn -0 -1 0
vn -0 -1 0
vn -0.8259607 -0.5637278 0
vn -0.94885695 0.3157065 0
vn -0.82596064 -0.56372786 0
vn -0.8259607 -0.5637278 0
vn -0.94885695 0.31570652 0
vn -0.9922978 0.12387461 0
vn -0.9922978 0.12387462 0
vn -0.93059546 -0.36604935 0
vn -0.93059546 -0.36604935 0
vn -0.5690016 -0.8223364 0
vn -0.5690017 -0.8223364 0
vn 0.31011772 -0.9506982 0
vn 0.6877221 -0.725974 0
vn 0.6877221 -0.7259741 0
vn 0.3101177 -0.9506982 0
vn -0.10888928 -0.9940539 0
vn -0.10888931 -0.9940539 0
vn -0.5690017 -0.8223364 0
vn -0.5690016 -0.8223364 0
g number7_collision_0
f 3/3/3 2/2/2 1/1/1
f 6/6/6 4/4/4 5/5/5
f 5/5/5 7/7/7 6/6/6
f 9/9/9 10/10/10 8/8/8
f 11/11/11 8/8/8 10/10/10
f 13/13/13 12/12/12 10/10/10
f 15/15/15 14/14/14 10/10/10
f 10/10/10 17/17/17 16/16/16
f 18/18/18 16/16/16 17/17/17
f 19/19/19 21/21/21 20/20/20
f 22/22/22 20/20/20 21/21/21
f 21/21/21 23/23/23 22/22/22
f 26/26/26 25/25/25 24/24/24
f 27/27/27 24/24/24 25/25/25
f 28/28/28 30/30/30 29/29/29
f 31/31/31 29/29/29 30/30/30
f 32/32/32 34/34/34 33/33/33
f 35/35/35 33/33/33 34/34/34
f 37/37/37 36/36/36 38/38/38
f 39/39/39 38/38/38 36/36/36
f 38/38/38 39/39/39 40/40/40
f 41/41/41 40/40/40 39/39/39
f 44/44/44 42/42/42 43/43/43
f 43/43/43 45/45/45 44/44/44
f 46/46/46 48/48/48 47/47/47
f 49/49/49 47/47/47 48/48/48
f 52/52/52 51/51/51 50/50/50
f 55/55/55 54/54/54 53/53/53
f 54/54/54 55/55/55 56/56/56
f 59/59/59 57/57/57 58/58/58
f 61/61/61 60/60/60 58/58/58
f 62/62/62 63/63/63 60/60/60
f 63/63/63 64/64/64 60/60/60
f 60/60/60 65/65/65 66/66/66
f 67/67/67 66/66/66 65/65/65
f 68/68/68 69/69/69 70/70/70
f 71/71/71 70/70/70 69/69/69
f 70/70/70 71/71/71 72/72/72
f 73/73/73 74/74/74 75/75/75
f 76/76/76 75/75/75 74/74/74
f 79/79/79 78/78/78 77/77/77
f 78/78/78 79/79/79 80/80/80
f 83/83/83 82/82/82 81/81/81
f 84/84/84 81/81/81 82/82/82
f 85/85/85 86/86/86 87/87/87
f 88/88/88 87/87/87 86/86/86
f 87/87/87 88/88/88 89/89/89
f 90/90/90 89/89/89 88/88/88
f 93/93/93 92/92/92 91/91/91
f 94/94/94 91/91/91 92/92/92
f 96/96/96 91/91/91 95/95/95
f 98/98/98 97/97/97 95/95/95
