g number_7
v -0.31659818 0.4169619 0.08912307
v -0.29424024 0.30693078 0.08912307
v -0.31659818 0.34896874 0.08912307
v -0.29424024 0.45030236 0.08912307
v -0.2718823 0.29293847 0.08912307
v -0.2718823 0.4660647 0.08912307
v -0.22716643 0.27676415 0.08912307
v -0.22716643 0.48226953 0.08912307
v -0.13773848 0.485718 0.08912307
v -0.13773848 0.27328515 0.08912307
v -0.07745958 0.485718 0.08912307
v -0.07745958 0.27328515 0.08912307
v 0.057278384 0.27328515 0.08912307
v 0.23107599 0.48318505 0.08912307
v 0.27101398 0.4677279 0.08912307
v 0.3018062 0.43997216 0.08912307
v 0.3165977 0.3967898 0.08912307
v 0.31432986 0.35148644 0.08912307
v 0.30191302 0.30798364 0.08912307
v -0.1784413 -0.3290403 0.08912307
v 0.026958218 -0.39910865 0.08912307
v -0.19044043 -0.37252784 0.08912307
v -0.0055017564 -0.45394874 0.08912307
v -0.189317 -0.42599463 0.08912307
v -0.052869093 -0.47860694 0.08912307
v -0.15494372 -0.46450782 0.08912307
v -0.09989668 -0.4857328 0.08912307
v -0.29424024 0.45030236 -0.08912152
v -0.2718823 0.4660647 0.08912307
v -0.29424024 0.45030236 0.08912307
v -0.2718823 0.4660647 -0.089122474
v -0.22716643 0.48226953 0.08912307
v -0.22716643 0.48226953 -0.089122474
v -0.13773848 0.485718 0.08912307
v -0.13773848 0.485718 -0.089122474
v -0.07745958 0.485718 0.08912307
v -0.07745958 0.485718 -0.089122474
v 0.23107599 0.48318505 0.08912307
v 0.23107599 0.48318505 -0.089122474
v 0.27101398 0.4677279 0.08912307
v 0.27101398 0.4677279 -0.089122474
v 0.3018062 0.43997216 0.08912307
v 0.3018062 0.43997216 -0.08912152
v -0.29424024 0.45030236 0.08912307
v -0.31659818 0.4169619 -0.08912152
v -0.29424024 0.45030236 -0.08912152
v -0.31659818 0.4169619 0.08912307
v -0.31659818 0.34896874 0.08912307
v -0.31659818 0.34893823 -0.089122474
v -0.29424024 0.30693078 0.08912307
v -0.29424024 0.30693078 -0.08912343
v 0.3018062 0.43997216 -0.08912152
v 0.3165977 0.3967898 0.08912307
v 0.3018062 0.43997216 0.08912307
v 0.3165977 0.3967898 -0.08912152
v 0.31432986 0.35148644 0.08912307
v 0.31432986 0.35148644 -0.089122474
v 0.30191302 0.30798364 0.08912307
v 0.30191302 0.30801415 -0.089122474
v 0.026958218 -0.39910865 0.08912307
v 0.026958218 -0.39910865 -0.089122474
v -0.0055017564 -0.45394874 0.08912307
v -0.0055017564 -0.45394874 -0.08912152
v -0.29424024 0.30693078 -0.08912343
v -0.31659818 0.4169619 -0.08912152
v -0.31659818 0.34893823 -0.089122474
v -0.29424024 0.45030236 -0.08912152
v -0.2718823 0.29293847 -0.08912343
v -0.2718823 0.4660647 -0.089122474
v -0.22716643 0.27676415 -0.08912343
v -0.22716643 0.48226953 -0.089122474
v -0.13773848 0.485718 -0.089122474
v -0.13773848 0.27328515 -0.08912343
v -0.07745958 0.485718 -0.089122474
v -0.07745958 0.27328515 -0.08912343
v 0.057278384 0.27328515 -0.08912343
v 0.23107599 0.48318505 -0.089122474
v 0.27101398 0.4677279 -0.089122474
v 0.3018062 0.43997216 -0.08912152
v 0.3165977 0.3967898 -0.08912152
v 0.31432986 0.35148644 -0.089122474
v 0.30191302 0.30801415 -0.089122474
v -0.1784413 -0.3290403 -0.08912343
v 0.026958218 -0.39910865 -0.089122474
v -0.19044043 -0.37252784 -0.089122474
v -0.0055017564 -0.45394874 -0.08912152
v -0.189317 -0.42596412 -0.089122474
v -0.052869093 -0.47860694 -0.08912152
v -0.15494372 -0.46450782 -0.08912152
v -0.09989668 -0.4857328 -0.08912152
v -0.2718823 0.29293847 0.08912307
v -0.29424024 0.30693078 -0.08912343
v -0.29424024 0.30693078 0.08912307
v -0.2718823 0.29293847 -0.08912343
v -0.22716643 0.27676415 0.08912307
v -0.22716643 0.27676415 -0.08912343
v -0.13773848 0.27328515 0.08912307
v -0.13773848 0.27328515 -0.08912343
v -0.07745958 0.27328515 0.08912307
v -0.07745958 0.27328515 -0.08912343
v 0.057278384 0.27328515 0.08912307
v 0.057278384 0.27328515 -0.08912343
v -0.1784413 -0.3290403 0.08912307
v 0.057278384 0.27328515 -0.08912343
v 0.057278384 0.27328515 0.08912307
v -0.1784413 -0.3290403 -0.08912343
v -0.19044043 -0.37252784 0.08912307
v -0.1784413 -0.3290403 -0.08912343
v -0.1784413 -0.3290403 0.08912307
v -0.19044043 -0.37252784 -0.089122474
v -0.189317 -0.42599463 0.08912307
v -0.189317 -0.42596412 -0.089122474
v -0.15494372 -0.46450782 0.08912307
v -0.15494372 -0.46450782 -0.08912152
v -0.052869093 -0.47860694 -0.08912152
v -0.0055017564 -0.45394874 0.08912307
v -0.0055017564 -0.45394874 -0.08912152
v -0.052869093 -0.47860694 0.08912307
v -0.09989668 -0.4857328 0.08912307
v -0.09989668 -0.4857328 -0.08912152
v -0.15494372 -0.46450782 -0.08912152
v -0.15494372 -0.46450782 0.08912307
vt 0.6304594 0.6074859
vt 0.63297474 0.5951078
vt 0.6304594 0.5998353
vt 0.63297474 0.61123526
vt 0.63548994 0.59353375
vt 0.63548994 0.6130115
vt 0.64052045 0.5917101
vt 0.64052045 0.61483526
vt 0.6505815 0.6152235
vt 0.6505815 0.5913217
vt 0.65736294 0.6152235
vt 0.65736294 0.5913217
vt 0.6725211 0.5913217
vt 0.69207394 0.6149347
vt 0.6965668 0.6131972
vt 0.7000308 0.61007667
vt 0.7016951 0.60521877
vt 0.70144 0.60012007
vt 0.70004284 0.5952287
vt 0.6460024 0.52355653
vt 0.66911006 0.5156745
vt 0.64465225 0.5186665
vt 0.6654583 0.50950766
vt 0.6447786 0.5126537
vt 0.6601293 0.5067297
vt 0.64864576 0.5083195
vt 0.6548387 0.5059296
vt 0.742579 0.5628706
vt 0.73098505 0.5614163
vt 0.73098505 0.5628706
vt 0.742579 0.5614163
vt 0.73098505 0.5585078
vt 0.742579 0.5585078
vt 0.73098505 0.55269086
vt 0.742579 0.55269086
vt 0.73098505 0.54877007
vt 0.742579 0.54877007
vt 0.73098505 0.52870107
vt 0.742579 0.52870107
vt 0.73098505 0.52610344
vt 0.742579 0.52610344
vt 0.73098505 0.52410066
vt 0.742579 0.52410066
vt 0.7426604 0.560215
vt 0.73106635 0.5580472
vt 0.73106635 0.560215
vt 0.7426604 0.5580472
vt 0.7426604 0.5536238
vt 0.73106635 0.5536238
vt 0.7426604 0.55089056
vt 0.73106635 0.55089056
vt 0.74194705 0.5644196
vt 0.730353 0.56161094
vt 0.730353 0.5644196
vt 0.74194705 0.56161094
vt 0.730353 0.558663
vt 0.74194705 0.558663
vt 0.730353 0.5558349
vt 0.74194705 0.5558349
vt 0.730353 0.50983894
vt 0.74194705 0.50983894
vt 0.730353 0.5062735
vt 0.74194705 0.5062735
vt 0.63297474 0.5951078
vt 0.6304594 0.6074859
vt 0.6304594 0.5998353
vt 0.63297474 0.61123526
vt 0.63548994 0.59353375
vt 0.63548994 0.6130115
vt 0.64052045 0.5917101
vt 0.64052045 0.61483526
vt 0.6505815 0.6152235
vt 0.6505815 0.5913217
vt 0.65736294 0.6152235
vt 0.65736294 0.5913217
vt 0.6725211 0.5913217
vt 0.69207394 0.6149347
vt 0.6965668 0.6131972
vt 0.7000308 0.61007667
vt 0.7016951 0.60521877
vt 0.70144 0.60012007
vt 0.70004284 0.5952287
vt 0.6460024 0.52355653
vt 0.66911006 0.5156745
vt 0.64465225 0.5186665
vt 0.6654583 0.50950766
vt 0.6447786 0.5126537
vt 0.6601293 0.5067297
vt 0.64864576 0.5083195
vt 0.6548387 0.5059296
vt 0.7419151 0.5584697
vt 0.73032105 0.55992395
vt 0.7419151 0.55992395
vt 0.73032105 0.5584697
vt 0.7419151 0.5555612
vt 0.73032105 0.5555612
vt 0.7419151 0.54974425
vt 0.73032105 0.54974425
vt 0.7419151 0.5458234
vt 0.73032105 0.5458234
vt 0.7419151 0.5370593
vt 0.73032105 0.5370593
vt 0.7445406 0.5740788
vt 0.7312268 0.6190704
vt 0.7445406 0.6190704
vt 0.7312268 0.5740788
vt 0.7415539 0.55781376
vt 0.72995985 0.56064105
vt 0.7415539 0.56064105
vt 0.72995985 0.55781376
vt 0.7415539 0.5543373
vt 0.72995985 0.5543373
vt 0.7415539 0.55183136
vt 0.72995985 0.55183136
vt 0.73032105 0.5442239
vt 0.7419151 0.5411429
vt 0.73032105 0.5411429
vt 0.7419151 0.5442239
vt 0.7419151 0.5472828
vt 0.73032105 0.5472828
vt 0.73032105 0.5508634
vt 0.7419151 0.5508634
vn -0 0 1
vn -0 0 1
vn -0 0 1
vn -0 0 1
vn -0 0 1
vn -0 0 1
vn -0 0 1
vn -0 0 1
vn -0 0 1
vn -0 0 1
vn -0 0 1
vn -0 0 1
vn -0 0 1
vn -0 0 1
vn -0 0 1
vn -0 0 1
vn -0 0 1
vn -0 0 1
vn -0 0 1
vn -0 0 1
vn -0 0 1
vn -0 0 1
vn -0 0 1
vn -0 0 1
vn -0 0 1
vn -0 0 1
vn -0 0 1
vn -0.71552783 0.69858426 0
vn -0.4629521 0.88638324 0
vn -0.71552783 0.69858426 0
vn -0.46295217 0.88638324 0
vn -0.19199003 0.9813969 0
vn -0.19199003 0.9813969 0
vn -0.019285705 0.9998141 0
vn -0.01928571 0.9998141 0
vn 0.0041609765 0.9999914 0
vn 0.004160976 0.9999914 0
vn 0.18753777 0.9822574 0
vn 0.18753777 0.9822574 0
vn 0.5236581 0.85192853 0
vn 0.52365804 0.85192853 0
vn 0.83438414 0.5511834 0
vn 0.83438414 0.5511834 0
vn -0.71552783 0.69858426 0
vn -0.9566744 0.2911598 0
vn -0.71552783 0.69858426 0
vn -0.9566744 0.29115984 0
vn -0.9702631 -0.24205254 0
vn -0.9702631 -0.24205257 0
vn -0.7314836 -0.68185914 0
vn -0.7314836 -0.6818591 0
vn 0.83438414 0.5511834 0
vn 0.9902113 0.13957582 0
vn 0.83438414 0.5511834 0
vn 0.9902113 0.1395758 0
vn 0.9865643 -0.16337328 0
vn 0.9865643 -0.16337326 0
vn 0.9478004 -0.31886432 0
vn 0.9478004 -0.3188643 0
vn 0.8992519 -0.4374312 0
vn 0.8992519 -0.4374312 0
vn 0.6877221 -0.725974 0
vn 0.6877221 -0.7259741 0
vn -0 0 -1
vn -0 0 -1
vn -0 0 -1
vn -0 0 -1
vn -0 0 -1
vn -0 0 -1
vn -0 0 -1
vn -0 0 -1
vn -0 0 -1
vn -0 0 -1
vn -0 0 -1
vn -0 0 -1
vn -0 0 -1
vn -0 0 -1
vn -0 0 -1
vn -0 0 -1
vn -0 0 -1
vn -0 0 -1
vn -0 0 -1
vn -0 0 -1
vn -0 0 -1
vn -0 0 -1
vn -0 0 -1
vn -0 0 -1
vn -0 0 -1
vn -0 0 -1
vn -0 0 -1
vn -0.4380968 -0.8989278 0
vn -0.7314836 -0.6818591 0
vn -0.7314836 -0.68185914 0
vn -0.4380968 -0.8989278 0
vn -0.19199002 -0.9813969 0
vn -0.19199003 -0.9813969 0
vn -0.019285705 -0.9998141 0
vn -0.01928571 -0.9998141 0
vn -0 -1 0
vn -0 -1 0
vn -0.8259607 -0.5637278 0
vn -0.82596064 -0.56372786 0
vn -0.94885695 0.3157065 0
vn -0.82596064 -0.56372786 0
vn -0.8259607 -0.5637278 0
vn -0.94885695 0.31570652 0
vn -0.9922978 0.12387461 0
vn -0.94885695 0.31570652 0
vn -0.94885695 0.3157065 0
vn -0.9922978 0.12387462 0
vn -0.93059546 -0.36604935 0
vn -0.93059546 -0.36604935 0
vn -0.5690016 -0.8223364 0
vn -0.5690017 -0.8223364 0
vn 0.31011772 -0.9506982 0
vn 0.6877221 -0.725974 0
vn 0.6877221 -0.7259741 0
vn 0.3101177 -0.9506982 0
vn -0.10888928 -0.9940539 0
vn -0.10888931 -0.9940539 0
vn -0.5690017 -0.8223364 0
vn -0.5690016 -0.8223364 0
g number_7_0
f 3/3/3 2/2/2 1/1/1
f 4/4/4 1/1/1 2/2/2
f 2/2/2 5/5/5 4/4/4
f 6/6/6 4/4/4 5/5/5
f 5/5/5 7/7/7 6/6/6
f 8/8/8 6/6/6 7/7/7
f 8/8/8 7/7/7 9/9/9
f 10/10/10 9/9/9 7/7/7
f 9/9/9 10/10/10 11/11/11
f 12/12/12 11/11/11 10/10/10
f 12/12/12 13/13/13 11/11/11
f 14/14/14 11/11/11 13/13/13
f 13/13/13 15/15/15 14/14/14
f 16/16/16 15/15/15 13/13/13
f 17/17/17 16/16/16 13/13/13
f 18/18/18 17/17/17 13/13/13
f 19/19/19 18/18/18 13/13/13
f 13/13/13 20/20/20 19/19/19
f 21/21/21 19/19/19 20/20/20
f 20/20/20 22/22/22 21/21/21
f 23/23/23 21/21/21 22/22/22
f 22/22/22 24/24/24 23/23/23
f 25/25/25 23/23/23 24/24/24
f 24/24/24 26/26/26 25/25/25
f 27/27/27 25/25/25 26/26/26
f 30/30/30 29/29/29 28/28/28
f 31/31/31 28/28/28 29/29/29
f 29/29/29 32/32/32 31/31/31
f 33/33/33 31/31/31 32/32/32
f 32/32/32 34/34/34 33/33/33
f 35/35/35 33/33/33 34/34/34
f 34/34/34 36/36/36 35/35/35
f 37/37/37 35/35/35 36/36/36
f 36/36/36 38/38/38 37/37/37
f 39/39/39 37/37/37 38/38/38
f 38/38/38 40/40/40 39/39/39
f 41/41/41 39/39/39 40/40/40
f 40/40/40 42/42/42 41/41/41
f 43/43/43 41/41/41 42/42/42
f 46/46/46 45/45/45 44/44/44
f 47/47/47 44/44/44 45/45/45
f 47/47/47 45/45/45 48/48/48
f 49/49/49 48/48/48 45/45/45
f 48/48/48 49/49/49 50/50/50
f 51/51/51 50/50/50 49/49/49
f 54/54/54 53/53/53 52/52/52
f 55/55/55 52/52/52 53/53/53
f 53/53/53 56/56/56 55/55/55
f 57/57/57 55/55/55 56/56/56
f 56/56/56 58/58/58 57/57/57
f 59/59/59 57/57/57 58/58/58
f 58/58/58 60/60/60 59/59/59
f 61/61/61 59/59/59 60/60/60
f 60/60/60 62/62/62 61/61/61
f 63/63/63 61/61/61 62/62/62
f 66/66/66 65/65/65 64/64/64
f 67/67/67 64/64/64 65/65/65
f 64/64/64 67/67/67 68/68/68
f 69/69/69 68/68/68 67/67/67
f 68/68/68 69/69/69 70/70/70
f 71/71/71 70/70/70 69/69/69
f 71/71/71 72/72/72 70/70/70
f 73/73/73 70/70/70 72/72/72
f 72/72/72 74/74/74 73/73/73
f 75/75/75 73/73/73 74/74/74
f 75/75/75 74/74/74 76/76/76
f 77/77/77 76/76/76 74/74/74
f 78/78/78 76/76/76 77/77/77
f 78/78/78 79/79/79 76/76/76
f 79/79/79 80/80/80 76/76/76
f 80/80/80 81/81/81 76/76/76
f 81/81/81 82/82/82 76/76/76
f 76/76/76 82/82/82 83/83/83
f 84/84/84 83/83/83 82/82/82
f 83/83/83 84/84/84 85/85/85
f 86/86/86 85/85/85 84/84/84
f 85/85/85 86/86/86 87/87/87
f 88/88/88 87/87/87 86/86/86
f 87/87/87 88/88/88 89/89/89
f 90/90/90 89/89/89 88/88/88
f 93/93/93 92/92/92 91/91/91
f 94/94/94 91/91/91 92/92/92
f 91/91/91 94/94/94 95/95/95
f 96/96/96 95/95/95 94/94/94
f 95/95/95 96/96/96 97/97/97
f 98/98/98 97/97/97 96/96/96
f 97/97/97 98/98/98 99/99/99
f 100/100/100 99/99/99 98/98/98
f 99/99/99 100/100/100 101/101/101
f 102/102/102 101/101/101 100/100/100
f 105/105/105 104/104/104 103/103/103
f 106/106/106 103/103/103 104/104/104
f 109/109/109 108/108/108 107/107/107
f 110/110/110 107/107/107 108/108/108
f 107/107/107 110/110/110 111/111/111
f 112/112/112 111/111/111 110/110/110
f 111/111/111 112/112/112 113/113/113
f 114/114/114 113/113/113 112/112/112
f 117/117/117 116/116/116 115/115/115
f 118/118/118 115/115/115 116/116/116
f 118/118/118 119/119/119 115/115/115
f 120/120/120 115/115/115 119/119/119
f 120/120/120 119/119/119 121/121/121
f 122/122/122 121/121/121 119/119/119
