g number6_collision
v 0.16002357 0.3652357 0.08622857
v 0.13628761 0.43357813 0.08622855
v 0.0442148 0.4670169 0.086227335
v 0.16002357 0.3652357 0.08622857
v 0.0442148 0.4670169 0.086227335
v 0.07778092 0.26588702 0.08622838
v -0.084163666 0.41810995 0.08622847
v 0.07778092 0.26588702 0.08622838
v -0.084163666 0.41810995 0.08622847
v -0.24473058 0.24779858 0.08622842
v -0.023965072 0.15279566 0.08622834
v -0.24473058 0.24779858 0.08622842
v -0.32504618 0.058375653 0.08622853
v -0.0894266 -0.07841906 0.08622848
v -0.32504618 0.058375653 0.08622853
v -0.34413016 -0.133006 0.08622814
v -0.0894266 -0.07841906 0.08622848
v -0.11103051 -0.16682239 0.08622789
v -0.023965072 0.15279566 0.08622834
v -0.34413016 -0.133006 0.08622814
v 0.0005201644 -0.037321456 0.086228296
v -0.11103051 -0.16682239 0.08622789
v -0.023965072 0.15279566 0.08622834
v -0.31039146 -0.2659573 0.08622848
v 0.0005201644 -0.037321456 0.086228296
v 0.15095395 0.14969204 0.08622855
v -0.07001973 -0.24500254 0.086228915
v 0.09264501 -0.060810223 0.08622859
v 0.15095395 0.14969204 0.08622855
v 0.09264501 -0.060810223 0.08622859
v -0.31039146 -0.2659573 0.08622848
v 0.2739226 0.062154308 0.08622865
v 0.09264501 -0.060810223 0.08622859
v -0.25394684 -0.35592636 0.08622844
v -0.18401445 -0.41786593 0.08622758
v -0.18401445 -0.41786593 0.08622758
v -0.07001973 -0.24500254 0.086228915
v 0.13402858 -0.11796482 0.0862275
v 0.2739226 0.062154308 0.08622865
v 0.33292845 -0.051535714 0.08622837
v -0.040918507 -0.46361881 0.08622844
v -0.07001973 -0.24500254 0.086228915
v 0.13402858 -0.11796482 0.0862275
v 0.33292845 -0.051535714 0.08622837
v 0.34183696 -0.21510062 0.08622925
v 0.13402858 -0.11796482 0.0862275
v 0.34183696 -0.21510062 0.08622925
v 0.12232468 -0.21027553 0.08622832
v 0.2961859 -0.32849106 0.08622844
v 0.06261968 -0.25666857 0.08622948
v -0.040918507 -0.46361881 0.08622844
v 0.10271018 -0.45626816 0.08622844
v 0.06261968 -0.25666857 0.08622948
v 0.12232468 -0.21027553 0.08622832
v 0.24346296 -0.38800034 0.08622844
v 0.17308752 -0.43124375 0.08622844
v 0.06261968 -0.25666857 0.08622948
v -0.084163666 0.41810995 0.08622847
v -0.23255293 0.26474345 -0.0862283
v -0.074389234 0.42460763 -0.0862283
v -0.24473058 0.24779858 0.08622842
v -0.23255293 0.26474345 -0.0862283
v -0.24473058 0.24779858 0.08622842
v -0.30781877 0.11099963 -0.08622832
v -0.32504618 0.058375653 0.08622853
v -0.30781877 0.11099963 -0.08622832
v -0.34356904 -0.04857597 -0.086227424
v -0.32504618 0.058375653 0.08622853
v -0.34356904 -0.04857597 -0.086227424
v -0.34413016 -0.133006 0.08622814
v -0.34413016 -0.133006 0.08622814
v -0.33227888 -0.20566152 -0.086228795
v -0.31039146 -0.2659573 0.08622848
v -0.33227888 -0.20566152 -0.086228795
v -0.31039146 -0.2659573 0.08622848
v -0.26702344 -0.34159726 -0.08622813
v -0.25394684 -0.35592636 0.08622844
v -0.023965072 0.15279566 0.08622834
v 0.060361885 0.25020492 -0.0862282
v -0.017019374 0.15510648 -0.08622833
v 0.07778092 0.26588702 0.08622838
v -0.084163666 0.41810995 0.08622847
v -0.074389234 0.42460763 -0.0862283
v 0.0442148 0.4670169 0.086227335
v 0.055770136 0.4668488 -0.08622845
v 0.0442148 0.4670169 0.086227335
v 0.055770136 0.4668488 -0.08622845
v 0.13628761 0.43357813 0.08622855
v 0.11908095 0.4450685 -0.0862283
v 0.07778092 0.26588702 0.08622838
v 0.15323164 0.35147274 -0.08622938
v 0.060361885 0.25020492 -0.0862282
v 0.16002357 0.3652357 0.08622857
v 0.15323164 0.35147274 -0.08622938
v 0.16002357 0.3652357 0.08622857
v 0.15756284 0.39771745 -0.08622816
v 0.16002357 0.3652357 0.08622857
v 0.15756284 0.39771745 -0.08622816
v 0.13628761 0.43357813 0.08622855
v 0.11908095 0.4450685 -0.0862283
v -0.0894266 -0.07841906 0.08622848
v -0.06146104 -0.0582274 -0.0862283
v -0.1032053 -0.10326144 -0.08622758
v -0.0894266 -0.07841906 0.08622848
v 0.0005201644 -0.037321456 0.086228296
v 0.025498148 -0.036340367 -0.0862283
v 0.0005201644 -0.037321456 0.086228296
v 0.025498148 -0.036340367 -0.0862283
v 0.09264501 -0.060810223 0.08622859
v 0.09264501 -0.060810223 0.08622859
v 0.11027714 -0.076643825 -0.08622759
v -0.023965072 0.15279566 0.08622834
v -0.017019374 0.15510648 -0.08622833
v 0.15095395 0.14969204 0.08622855
v 0.097032 0.15780653 -0.0862283
v 0.17819247 0.13653137 -0.0862282
v 0.15095395 0.14969204 0.08622855
v 0.17819247 0.13653137 -0.0862282
v 0.2739226 0.062154308 0.08622865
v 0.27971482 0.05494725 -0.08622884
v 0.11908095 0.4450685 -0.0862283
v 0.15756284 0.39771745 -0.08622816
v 0.055770136 0.4668488 -0.08622845
v 0.15323164 0.35147274 -0.08622938
v 0.15323164 0.35147274 -0.08622938
v 0.055770136 0.4668488 -0.08622845
v 0.060361885 0.25020492 -0.0862282
v -0.074389234 0.42460763 -0.0862283
v 0.060361885 0.25020492 -0.0862282
v -0.074389234 0.42460763 -0.0862283
v -0.23255293 0.26474345 -0.0862283
v -0.017019374 0.15510648 -0.08622833
v -0.23255293 0.26474345 -0.0862283
v -0.30781877 0.11099963 -0.08622832
v -0.30781877 0.11099963 -0.08622832
v -0.1032053 -0.10326144 -0.08622758
v -0.34356904 -0.04857597 -0.086227424
v -0.34356904 -0.04857597 -0.086227424
v -0.06146104 -0.0582274 -0.0862283
v -0.1032053 -0.10326144 -0.08622758
v -0.017019374 0.15510648 -0.08622833
v -0.33227888 -0.20566152 -0.086228795
v 0.025498148 -0.036340367 -0.0862283
v -0.10160433 -0.20534173 -0.08622903
v -0.017019374 0.15510648 -0.08622833
v -0.33227888 -0.20566152 -0.086228795
v 0.025498148 -0.036340367 -0.0862283
v 0.097032 0.15780653 -0.0862283
v -0.10160433 -0.20534173 -0.08622903
v 0.025498148 -0.036340367 -0.0862283
v 0.17819247 0.13653137 -0.0862282
v 0.17819247 0.13653137 -0.0862282
v 0.11027714 -0.076643825 -0.08622759
v -0.26702344 -0.34159726 -0.08622813
v 0.27971482 0.05494725 -0.08622884
v -0.26702344 -0.34159726 -0.08622813
v -0.17565899 -0.42258012 -0.086228296
v -0.17565899 -0.42258012 -0.086228296
v -0.055630278 -0.25075036 -0.086228974
v 0.11027714 -0.076643825 -0.08622759
v 0.27971482 0.05494725 -0.08622884
v 0.3357805 -0.062467705 -0.08622806
v -0.068690844 -0.4579161 -0.0862283
v -0.055630278 -0.25075036 -0.086228974
v 0.13475618 -0.12716581 -0.086228274
v 0.3357805 -0.062467705 -0.08622806
v 0.343862 -0.16720568 -0.0862283
v 0.13475618 -0.12716581 -0.086228274
v 0.33144516 -0.24786364 -0.08622926
v 0.12942068 -0.1851195 -0.0862283
v 0.2961859 -0.32849106 -0.0862283
v 0.0350735 -0.2591181 -0.08622866
v 0.08199057 -0.4615456 -0.08622813
v 0.08199057 -0.4615456 -0.08622813
v 0.0350735 -0.2591181 -0.08622866
v 0.100548744 -0.23760013 -0.086229295
v 0.24346296 -0.38800034 -0.08622735
v 0.17308752 -0.43127427 -0.0862283
v 0.100548744 -0.23760013 -0.086229295
v -0.1032053 -0.10326144 -0.08622758
v -0.0894266 -0.07841906 0.08622848
v -0.11103051 -0.16682239 0.08622789
v -0.10160433 -0.20534173 -0.08622903
v -0.11103051 -0.16682239 0.08622789
v -0.10160433 -0.20534173 -0.08622903
v -0.07001973 -0.24500254 0.086228915
v -0.18401445 -0.41786593 0.08622758
v -0.26702344 -0.34159726 -0.08622813
v -0.25394684 -0.35592636 0.08622844
v -0.17565899 -0.42258012 -0.086228296
v -0.18401445 -0.41786593 0.08622758
v -0.17565899 -0.42258012 -0.086228296
v -0.040918507 -0.46361881 0.08622844
v -0.068690844 -0.4579161 -0.0862283
v -0.040918507 -0.46361881 0.08622844
v 0.08199057 -0.4615456 -0.08622813
v 0.10271018 -0.45626816 0.08622844
v 0.08199057 -0.4615456 -0.08622813
v 0.17308752 -0.43124375 0.08622844
v 0.17308752 -0.43127427 -0.0862283
v 0.24346296 -0.38800034 0.08622844
v 0.24346296 -0.38800034 -0.08622735
v -0.055630278 -0.25075036 -0.086228974
v -0.07001973 -0.24500254 0.086228915
v -0.10160433 -0.20534173 -0.08622903
v -0.055630278 -0.25075036 -0.086228974
v -0.07001973 -0.24500254 0.086228915
v 0.06261968 -0.25666857 0.08622948
v 0.0350735 -0.2591181 -0.08622866
v 0.0350735 -0.2591181 -0.08622866
v 0.06261968 -0.25666857 0.08622948
v 0.100548744 -0.23760013 -0.086229295
v 0.06261968 -0.25666857 0.08622948
v 0.100548744 -0.23760013 -0.086229295
v 0.12232468 -0.21027553 0.08622832
v 0.2961859 -0.32849106 0.08622844
v 0.24346296 -0.38800034 -0.08622735
v 0.24346296 -0.38800034 0.08622844
v 0.2961859 -0.32849106 -0.0862283
v 0.34183696 -0.21510062 0.08622925
v 0.33144516 -0.24786364 -0.08622926
v 0.343862 -0.16720568 -0.0862283
v 0.34183696 -0.21510062 0.08622925
v 0.3357805 -0.062467705 -0.08622806
v 0.33292845 -0.051535714 0.08622837
v 0.33292845 -0.051535714 0.08622837
v 0.3357805 -0.062467705 -0.08622806
v 0.27971482 0.05494725 -0.08622884
v 0.2739226 0.062154308 0.08622865
v 0.12942068 -0.1851195 -0.0862283
v 0.12232468 -0.21027553 0.08622832
v 0.100548744 -0.23760013 -0.086229295
v 0.12232468 -0.21027553 0.08622832
v 0.13475618 -0.12716581 -0.086228274
v 0.13402858 -0.11796482 0.0862275
v 0.13475618 -0.12716581 -0.086228274
v 0.13402858 -0.11796482 0.0862275
v 0.11027714 -0.076643825 -0.08622759
v 0.11027714 -0.076643825 -0.08622759
v 0.09264501 -0.060810223 0.08622859
vt 0.94911325 0.60336995
vt 0.94764423 0.61171055
vt 0.9416082 0.6161754
vt 0.94586563 0.59959704
vt 0.93360126 0.6174971
vt 0.93720686 0.5930144
vt 0.9248712 0.61576724
vt 0.9325694 0.5901196
vt 0.91734934 0.61218494
vt 0.9059633 0.60395354
vt 0.9219125 0.5813093
vt 0.89570564 0.59385145
vt 0.8871002 0.5805503
vt 0.908983 0.5540986
vt 0.8850506 0.57675475
vt 0.87982666 0.5600854
vt 0.9101853 0.55560476
vt 0.90578026 0.545556
vt 0.9263799 0.5818707
vt 0.87880194 0.5544244
vt 0.9196501 0.5585036
vt 0.90596986 0.5435878
vt 0.9303564 0.58127177
vt 0.87949073 0.5412756
vt 0.9217224 0.5586144
vt 0.94088686 0.57864803
vt 0.90902406 0.53541946
vt 0.92908967 0.5559038
vt 0.9495932 0.572584
vt 0.9316772 0.5543782
vt 0.8800421 0.5379318
vt 0.95626074 0.5647384
vt 0.93294346 0.55290806
vt 0.88487387 0.5260767
vt 0.890622 0.51860225
vt 0.89188987 0.5172648
vt 0.91057885 0.53455615
vt 0.9350474 0.5489286
vt 0.9580078 0.56068826
vt 0.96090263 0.5500046
vt 0.9047519 0.51010954
vt 0.913411 0.5334022
vt 0.93588316 0.5465688
vt 0.96088076 0.54499435
vt 0.95856065 0.5304253
vt 0.9357595 0.54524225
vt 0.9566417 0.5267271
vt 0.9339546 0.538378
vt 0.95077634 0.51788545
vt 0.9245332 0.5312743
vt 0.90793127 0.5088533
vt 0.9251406 0.5067345
vt 0.92701346 0.531944
vt 0.9325883 0.5355377
vt 0.94327724 0.5119159
vt 0.9340186 0.50823945
vt 0.9275178 0.53214073
vt 0.9954171 0.5783626
vt 0.97810507 0.5699757
vt 0.97810507 0.5783626
vt 0.9954171 0.5699757
vt 0.97810626 0.56405216
vt 0.9954171 0.55560285
vt 0.97810507 0.55560285
vt 0.9954171 0.5480716
vt 0.97810507 0.5480716
vt 0.97810507 0.5398133
vt 0.9954171 0.5398133
vt 0.97810507 0.5302428
vt 0.9954171 0.5302428
vt 0.9954171 0.52199876
vt 0.97810507 0.52199876
vt 0.9954171 0.51476824
vt 0.97810507 0.51476824
vt 0.9954171 0.50838065
vt 0.97810507 0.50838065
vt 0.9954171 0.5030768
vt 0.9782392 0.5592574
vt 0.9955512 0.56819135
vt 0.9955512 0.5592574
vt 0.9782392 0.56819135
vt 0.9781714 0.57475317
vt 0.9954835 0.57208794
vt 0.97817147 0.5651769
vt 0.9954835 0.5651769
vt 0.97817147 0.55842024
vt 0.9954835 0.55842024
vt 0.97817147 0.55455565
vt 0.9954835 0.55455565
vt 0.9779289 0.5567879
vt 0.9952409 0.56174004
vt 0.9952409 0.5567879
vt 0.9779289 0.5640785
vt 0.99523956 0.5637865
vt 0.9779289 0.5644565
vt 0.9952409 0.56670535
vt 0.9779289 0.56670535
vt 0.9952409 0.57005894
vt 0.9779289 0.57005894
vt 0.9952409 0.5730878
vt 0.9964143 0.5387087
vt 0.97910225 0.53513175
vt 0.97910225 0.5387087
vt 0.9964143 0.53513175
vt 0.9964143 0.5305935
vt 0.97910225 0.5305935
vt 0.9964143 0.52653587
vt 0.979106 0.5250046
vt 0.9964143 0.5224782
vt 0.9964143 0.51953405
vt 0.97910225 0.51953405
vt 0.9733937 0.6126708
vt 0.9958619 0.6126708
vt 0.9733937 0.605061
vt 0.9958619 0.605061
vt 0.9958619 0.5947085
vt 0.9733937 0.5905752
vt 0.9958619 0.5905752
vt 0.9733937 0.5836174
vt 0.9958619 0.5836174
vt 0.9455912 0.6134441
vt 0.9491905 0.6070226
vt 0.9406989 0.61649764
vt 0.9481902 0.60247535
vt 0.9456501 0.5996031
vt 0.9333416 0.61747295
vt 0.9395633 0.59461844
vt 0.924616 0.61572164
vt 0.9346162 0.5914936
vt 0.91710293 0.6121209
vt 0.90384024 0.602369
vt 0.9214705 0.58108765
vt 0.89689934 0.5954084
vt 0.8880178 0.5825103
vt 0.88693166 0.580412
vt 0.9088794 0.5540142
vt 0.88049614 0.56428427
vt 0.8797084 0.55992925
vt 0.9138155 0.5573523
vt 0.90674996 0.54959005
vt 0.92276716 0.58176666
vt 0.87861526 0.5453908
vt 0.9215721 0.55844146
vt 0.905892 0.5434959
vt 0.9301859 0.58123976
vt 0.87941873 0.54111874
vt 0.92436695 0.5577848
vt 0.9370775 0.57976454
vt 0.90604585 0.54059404
vt 0.92898154 0.55586874
vt 0.9437398 0.57696056
vt 0.94944394 0.5725993
vt 0.9331637 0.55248284
vt 0.8816222 0.532953
vt 0.9549155 0.566446
vt 0.8848392 0.525933
vt 0.89277273 0.51640695
vt 0.89666617 0.5140475
vt 0.9097575 0.53505206
vt 0.93495643 0.54890823
vt 0.9566562 0.5638303
vt 0.9602728 0.5527204
vt 0.9047564 0.5100149
vt 0.9105583 0.5343589
vt 0.9357129 0.545134
vt 0.9609231 0.5486946
vt 0.95973456 0.53608465
vt 0.93496275 0.54196596
vt 0.9566053 0.52675986
vt 0.9338895 0.538355
vt 0.9507617 0.5179038
vt 0.9197036 0.53168005
vt 0.92260635 0.50648534
vt 0.9251534 0.5066899
vt 0.9211627 0.53150266
vt 0.92938274 0.5327129
vt 0.94327724 0.5119159
vt 0.9340278 0.5082167
vt 0.9274682 0.53210187
vt 0.9949306 0.55366904
vt 0.9776186 0.5576006
vt 0.9776186 0.55366904
vt 0.9949306 0.54854745
vt 0.9776186 0.54854745
vt 0.9949306 0.5439675
vt 0.9776186 0.5439675
vt 0.9964143 0.5486661
vt 0.97910225 0.5544544
vt 0.9964143 0.5544544
vt 0.97910225 0.5486661
vt 0.9964143 0.54306674
vt 0.97910225 0.54306674
vt 0.9964143 0.53585756
vt 0.97910225 0.53585756
vt 0.9964143 0.5262685
vt 0.97910225 0.5262685
vt 0.9964143 0.5186514
vt 0.97910225 0.5186514
vt 0.9964143 0.51158655
vt 0.97910225 0.51158655
vt 0.9964143 0.5045217
vt 0.97910225 0.5045217
vt 0.9954835 0.57284945
vt 0.97817147 0.57509077
vt 0.9954835 0.57509077
vt 0.9954835 0.56965095
vt 0.97817147 0.56965095
vt 0.97817147 0.56421113
vt 0.9954835 0.56421113
vt 0.9954835 0.5603248
vt 0.97817147 0.5603248
vt 0.9954835 0.55790037
vt 0.97817147 0.5579004
vt 0.9954835 0.55547595
vt 0.97817147 0.55547595
vt 0.9782392 0.511567
vt 0.9955512 0.50559366
vt 0.9782392 0.50559366
vt 0.9955512 0.511567
vt 0.9782392 0.51966107
vt 0.9955512 0.51966107
vt 0.9955512 0.52775514
vt 0.9782392 0.52775514
vt 0.9955512 0.5352515
vt 0.9782392 0.5352515
vt 0.9782392 0.54148054
vt 0.9955512 0.54148054
vt 0.9955512 0.5477096
vt 0.9782392 0.5477096
vt 0.97810507 0.52021825
vt 0.9954171 0.51603246
vt 0.97810507 0.51603246
vt 0.9954171 0.52021825
vt 0.97810507 0.52333295
vt 0.9954171 0.52333295
vt 0.97810507 0.52644765
vt 0.9954171 0.529028
vt 0.97810507 0.529028
vt 0.97810507 0.53072155
vt 0.9954171 0.53072155
vn -0 0 1
vn -0 0 1
vn -0 0 1
vn -0 0 1
vn -0 0 1
vn -0 0 1
vn -0 0 1
vn -0 0 1
vn -0 0 1
vn -0 0 1
vn -0 0 1
vn -0 0 1
vn -0 0 1
vn -0 0 1
vn -0 0 1
vn -0 0 1
vn -0 0 1
vn -0 0 1
vn -0 0 1
vn -0 0 1
vn -0 0 1
vn -0 0 1
vn -0 0 1
vn -0 0 1
vn -0 0 1
vn -0 0 1
vn -0 0 1
vn -0 0 1
vn -0 0 1
vn -0 0 1
vn -0 0 1
vn -0 0 1
vn -0 0 1
vn -0 0 1
vn -0 0 1
vn -0 0 1
vn -0 0 1
vn -0 0 1
vn -0 0 1
vn -0 0 1
vn -0 0 1
vn -0 0 1
vn -0 0 1
vn -0 0 1
vn -0 0 1
vn -0 0 1
vn -0 0 1
vn -0 0 1
vn -0 0 1
vn -0 0 1
vn -0 0 1
vn -0 0 1
vn -0 0 1
vn -0 0 1
vn -0 0 1
vn -0 0 1
vn -0 0 1
vn -0.6508209 0.75923127 0
vn -0.74685395 0.66498816 0
vn -0.6508209 0.75923127 0
vn -0.7468538 0.66498816 0
vn -0.8348768 0.55043685 0
vn -0.9136519 0.4064975 0
vn -0.9136519 0.40649745 0
vn -0.95322263 0.30226907 0
vn -0.95322263 0.3022691 0
vn -0.9852716 0.17099671 0
vn -0.9852716 0.17099671 0
vn -0.9996338 0.027061865 0
vn -0.9996338 0.027061867 0
vn -0.9871247 -0.15995297 0
vn -0.9871247 -0.15995297 0
vn -0.9396625 -0.34210265 0
vn -0.9396625 -0.34210265 0
vn -0.8689924 -0.49482542 0
vn -0.8689924 -0.4948253 0
vn -0.75517917 -0.6555184 0
vn 0.84780514 0.5303079 0
vn 0.7153318 -0.69878495 0
vn 0.8478053 0.5303076 0
vn 0.7153318 -0.69878495 0
vn -0.56042534 0.828205 0
vn -0.47370744 0.8806823 0
vn -0.22207844 0.9750289 0
vn -0.22207852 0.9750289 0
vn 0.24360974 0.9698733 0
vn 0.24360971 0.9698733 0
vn 0.56350684 0.8261113 0
vn 0.5635069 0.8261113 0
vn 0.7139228 -0.7002244 0
vn 0.8060407 -0.5918601 0
vn 0.7139228 -0.7002244 0
vn 0.92828465 -0.3718705 0
vn 0.9161407 -0.40085694 0
vn 0.942536 -0.3341047 0
vn 0.996573 0.08271899 0
vn 0.996573 0.08271898 0
vn 0.86078143 0.50897473 0
vn 0.86078143 0.5089746 0
vn 0.5635069 0.8261113 0
vn 0.8569939 -0.51532656 0
vn 0.5334843 -0.84581 0
vn 0.8569939 -0.51532644 0
vn 0.5334842 -0.84581006 0
vn 0.19618069 -0.98056775 0
vn 0.19618069 -0.98056775 0
vn -0.09358176 -0.9956116 0
vn -0.18684089 -0.98239017 0
vn -0.3370702 -0.9414795 0
vn -0.57354033 -0.8191774 0
vn -0.5735403 -0.8191774 0
vn -0.04287615 0.9990804 0
vn -0.042876154 0.9990804 0
vn 0.13323076 0.991085 0
vn 0.13323078 0.991085 0
vn 0.42896828 0.9033195 0
vn 0.54582036 0.8379021 0
vn 0.54582036 0.8379021 0
vn 0.7151489 0.6989721 0
vn 0.7151489 0.6989721 0
vn -0 0 -1
vn -0 0 -1
vn -0 0 -1
vn -0 0 -1
vn -0 0 -1
vn -0 0 -1
vn -0 0 -1
vn -0 0 -1
vn -0 0 -1
vn -0 0 -1
vn -0 0 -1
vn -0 0 -1
vn -0 0 -1
vn -0 0 -1
vn -0 0 -1
vn -0 0 -1
vn -0 0 -1
vn -0 0 -1
vn -0 0 -1
vn -0 0 -1
vn -0 0 -1
vn -0 0 -1
vn -0 0 -1
vn -0 0 -1
vn -0 0 -1
vn -0 0 -1
vn -0 0 -1
vn -0 0 -1
vn -0 0 -1
vn -0 0 -1
vn -0 0 -1
vn -0 0 -1
vn -0 0 -1
vn -0 0 -1
vn -0 0 -1
vn -0 0 -1
vn -0 0 -1
vn -0 0 -1
vn -0 0 -1
vn -0 0 -1
vn -0 0 -1
vn -0 0 -1
vn -0 0 -1
vn -0 0 -1
vn -0 0 -1
vn -0 0 -1
vn -0 0 -1
vn -0 0 -1
vn -0 0 -1
vn -0 0 -1
vn -0 0 -1
vn -0 0 -1
vn -0 0 -1
vn -0 0 -1
vn -0 0 -1
vn -0 0 -1
vn -0 0 -1
vn -0 0 -1
vn -0 0 -1
vn 0.99241674 -0.12291872 0
vn 0.8569939 -0.51532656 0
vn 0.99241674 -0.122918695 0
vn 0.97299755 0.2308155 0
vn 0.97299755 0.23081554 0
vn 0.78729445 0.61657727 0
vn 0.7872943 0.6165772 0
vn -0.56524545 -0.82492274 0
vn -0.75517917 -0.6555184 0
vn -0.75517917 -0.6555184 0
vn -0.56524545 -0.82492274 0
vn -0.36679143 -0.93030316 0
vn -0.36679143 -0.93030316 0
vn -0.17620893 -0.98435277 0
vn -0.17620894 -0.98435277 0
vn 0.018640887 -0.99982625 0
vn 0.018640883 -0.99982625 0
vn 0.21896948 -0.9757318 0
vn 0.21896946 -0.9757318 0
vn 0.4317345 -0.9020008 0
vn 0.43173447 -0.9020008 0
vn 0.64315355 -0.76573735 0
vn 0.64315355 -0.76573735 0
vn 0.45827088 0.8888125 0
vn 0.7872943 0.6165772 0
vn 0.78729445 0.61657727 0
vn 0.17833745 0.98396945 0
vn 0.17833745 0.98396945 0
vn -0.041264582 0.99914825 0
vn -0.04126459 0.99914825 0
vn -0.23916574 0.9709788 0
vn -0.23916574 0.9709788 0
vn -0.46631885 0.88461673 0
vn -0.46631885 0.88461673 0
vn -0.77902406 0.626994 0
vn -0.77902406 0.6269941 0
vn 0.8426304 -0.5384924 0
vn 0.64315355 -0.76573735 0
vn 0.64315355 -0.76573735 0
vn 0.8426303 -0.53849244 0
vn 0.9603547 -0.27878094 0
vn 0.9603547 -0.27878097 0
vn 0.9987463 -0.050059035 0
vn 0.9987463 -0.05005904 0
vn 0.98935753 0.1455051 0
vn 0.98935753 0.1455051 0
vn 0.9393684 0.3429095 0
vn 0.9393684 0.34290946 0
vn 0.8497167 0.52723956 0
vn 0.8497167 0.5272396 0
vn -0.9616784 0.27418008 0
vn -0.77902406 0.6269941 0
vn -0.77902406 0.626994 0
vn -0.9616784 0.2741801 0
vn -0.99779606 0.066356055 0
vn -0.99779606 0.06635606 0
vn -0.98324424 -0.18229319 0
vn -0.8827716 -0.46980226 0
vn -0.8827716 -0.46980226 0
vn -0.76135445 -0.64833575 0
vn -0.76135445 -0.64833575 0
g number6_collision_0
f 3/3/3 1/1/1 2/2/2
f 4/4/4 5/5/5 6/6/6
f 7/7/7 6/6/6 5/5/5
f 9/9/9 10/10/10 8/8/8
f 11/11/11 8/8/8 10/10/10
f 13/13/13 11/11/11 12/12/12
f 11/11/11 13/13/13 14/14/14
f 16/16/16 14/14/14 15/15/15
f 14/14/14 16/16/16 18/18/18
f 17/17/17 21/21/21 19/19/19
f 24/24/24 22/22/22 20/20/20
f 26/26/26 23/23/23 25/25/25
f 22/22/22 24/24/24 27/27/27
f 25/25/25 28/28/28 26/26/26
f 29/29/29 30/30/30 32/32/32
f 34/34/34 27/27/27 31/31/31
f 35/35/35 27/27/27 34/34/34
f 33/33/33 38/38/38 32/32/32
f 39/39/39 38/38/38 40/40/40
f 36/36/36 41/41/41 37/37/37
f 45/45/45 44/44/44 43/43/43
f 46/46/46 48/48/48 47/47/47
f 49/49/49 47/47/47 48/48/48
f 42/42/42 41/41/41 50/50/50
f 51/51/51 52/52/52 50/50/50
f 55/55/55 49/49/49 54/54/54
f 52/52/52 56/56/56 53/53/53
f 55/55/55 54/54/54 56/56/56
f 57/57/57 56/56/56 54/54/54
f 60/60/60 59/59/59 58/58/58
f 61/61/61 58/58/58 59/59/59
f 64/64/64 63/63/63 62/62/62
f 63/63/63 64/64/64 65/65/65
f 66/66/66 67/67/67 65/65/65
f 70/70/70 68/68/68 69/69/69
f 72/72/72 71/71/71 69/69/69
f 71/71/71 72/72/72 73/73/73
f 76/76/76 75/75/75 74/74/74
f 75/75/75 76/76/76 77/77/77
f 80/80/80 79/79/79 78/78/78
f 81/81/81 78/78/78 79/79/79
f 82/82/82 84/84/84 83/83/83
f 85/85/85 83/83/83 84/84/84
f 86/86/86 88/88/88 87/87/87
f 89/89/89 87/87/87 88/88/88
f 92/92/92 91/91/91 90/90/90
f 93/93/93 90/90/90 91/91/91
f 94/94/94 96/96/96 95/95/95
f 99/99/99 97/97/97 98/98/98
f 98/98/98 100/100/100 99/99/99
f 103/103/103 102/102/102 101/101/101
f 104/104/104 102/102/102 105/105/105
f 106/106/106 105/105/105 102/102/102
f 109/109/109 107/107/107 108/108/108
f 111/111/111 110/110/110 108/108/108
f 112/112/112 114/114/114 113/113/113
f 115/115/115 113/113/113 114/114/114
f 115/115/115 114/114/114 116/116/116
f 117/117/117 119/119/119 118/118/118
f 120/120/120 118/118/118 119/119/119
f 123/123/123 121/121/121 122/122/122
f 122/122/122 124/124/124 123/123/123
f 125/125/125 127/127/127 126/126/126
f 128/128/128 126/126/126 127/127/127
f 130/130/130 129/129/129 131/131/131
f 132/132/132 131/131/131 129/129/129
f 132/132/132 134/134/134 133/133/133
f 132/132/132 136/136/136 135/135/135
f 137/137/137 135/135/135 136/136/136
f 136/136/136 132/132/132 139/139/139
f 142/142/142 138/138/138 140/140/140
f 139/139/139 141/141/141 143/143/143
f 140/140/140 144/144/144 142/142/142
f 148/148/148 147/147/147 145/145/145
f 151/151/151 150/150/150 148/148/148
f 153/153/153 150/150/150 152/152/152
f 154/154/154 146/146/146 149/149/149
f 152/152/152 155/155/155 153/153/153
f 149/149/149 157/157/157 156/156/156
f 159/159/159 158/158/158 149/149/149
f 160/160/160 161/161/161 162/162/162
f 158/158/158 159/159/159 163/163/163
f 160/160/160 162/162/162 165/165/165
f 166/166/166 167/167/167 165/165/165
f 169/169/169 168/168/168 167/167/167
f 168/168/168 169/169/169 170/170/170
f 171/171/171 170/170/170 169/169/169
f 164/164/164 172/172/172 163/163/163
f 173/173/173 163/163/163 172/172/172
f 170/170/170 171/171/171 176/176/176
f 177/177/177 176/176/176 171/171/171
f 174/174/174 175/175/175 178/178/178
f 177/177/177 178/178/178 176/176/176
f 179/179/179 178/178/178 175/175/175
f 182/182/182 180/180/180 181/181/181
f 180/180/180 182/182/182 183/183/183
f 186/186/186 185/185/185 184/184/184
f 189/189/189 188/188/188 187/187/187
f 190/190/190 187/187/187 188/188/188
f 191/191/191 192/192/192 193/193/193
f 194/194/194 193/193/193 192/192/192
f 196/196/196 195/195/195 194/194/194
f 195/195/195 196/196/196 197/197/197
f 197/197/197 198/198/198 199/199/199
f 200/200/200 199/199/199 198/198/198
f 199/199/199 200/200/200 201/201/201
f 202/202/202 201/201/201 200/200/200
f 205/205/205 204/204/204 203/203/203
f 207/207/207 208/208/208 206/206/206
f 209/209/209 206/206/206 208/208/208
f 210/210/210 211/211/211 212/212/212
f 215/215/215 214/214/214 213/213/213
f 218/218/218 217/217/217 216/216/216
f 219/219/219 216/216/216 217/217/217
f 216/216/216 219/219/219 220/220/220
f 221/221/221 220/220/220 219/219/219
f 221/221/221 222/222/222 220/220/220
f 222/222/222 224/224/224 223/223/223
f 225/225/225 223/223/223 224/224/224
f 227/227/227 228/228/228 226/226/226
f 229/229/229 226/226/226 228/228/228
f 232/232/232 231/231/231 230/230/230
f 230/230/230 233/233/233 234/234/234
f 235/235/235 234/234/234 233/233/233
f 238/238/238 236/236/236 237/237/237
f 240/240/240 239/239/239 237/237/237
