g number1_collision
v 0.09801598 -0.45635188 0.08593416
v 0.16917473 -0.43385723 0.08593416
v 0.02162075 -0.4220755 0.08593416
v 0.16917473 -0.43385723 0.08593416
v 0.02162075 -0.4220755 0.08593416
v 0.20001873 -0.36995962 0.08593416
v 0.02162075 -0.4220755 0.08593416
v 0.20001873 -0.36995962 0.08593416
v 0.0017395962 -0.34252998 0.08593416
v 0.20001873 -0.36995962 0.08593416
v 0.0017395962 -0.34252998 0.08593416
v 0.209239 0.1820221 0.08593416
v -0.0047177426 0.178764 0.08593416
v 0.1936418 0.4007216 0.08593379
v 0.010437809 0.42718217 0.0859338
v 0.1936418 0.4007216 0.08593379
v 0.010437809 0.42718217 0.0859338
v 0.10591088 0.45478308 0.08593402
v -0.18589255 0.31266183 0.08593414
v 0.1936418 0.4007216 0.08593379
v -0.0047177426 0.178764 0.08593416
v 0.10591088 0.45478308 0.08593402
v 0.16223115 0.4393757 0.08593369
v -0.18589255 0.31266183 0.08593414
v -0.10308769 0.14231713 0.08593408
v -0.18589255 0.31266183 0.08593414
v -0.10308769 0.14231713 0.08593408
v -0.209239 0.2587738 0.085935116
v -0.16108799 0.15612793 0.08593416
v -0.20141947 0.19946656 0.085934065
v 0.0017395962 -0.34252998 0.08593416
v -0.0035181046 0.1820221 -0.08593321
v -0.0047177426 0.178764 0.08593416
v 0.004011469 -0.3712141 -0.08593447
v 0.0017395962 -0.34252998 0.08593416
v 0.004011469 -0.3712141 -0.08593447
v 0.02162075 -0.4220755 0.08593416
v 0.004011469 -0.3712141 -0.08593447
v 0.02162075 -0.4220755 0.08593416
v 0.03445074 -0.43385774 -0.08593354
v 0.20001873 -0.36995962 0.08593416
v 0.20726487 0.3019796 -0.08593355
v 0.20136373 -0.34648448 -0.0859344
v 0.209239 0.1820221 0.08593416
v 0.20726487 0.3019796 -0.08593355
v 0.1936418 0.4007216 0.08593379
v 0.18305829 0.4252603 -0.08593401
v 0.1936418 0.4007216 0.08593379
v 0.18305829 0.4252603 -0.08593401
v 0.16223115 0.4393757 0.08593369
v 0.18305829 0.4252603 -0.08593401
v 0.16223115 0.4393757 0.08593369
v 0.09980826 0.4561143 -0.085933246
v 0.10591088 0.45478308 0.08593402
v 0.10591088 0.45478308 0.08593402
v 0.09980826 0.4561143 -0.085933246
v 0.010437809 0.42718217 0.0859338
v -0.045910835 0.3986969 -0.08593416
v 0.010437809 0.42718217 0.0859338
v -0.16313286 0.33173153 -0.08593479
v -0.18589255 0.31266183 0.08593414
v -0.0035181046 0.1820221 -0.08593321
v -0.0047177426 0.178764 0.08593416
v -0.07585297 0.14723718 -0.085934386
v -0.10308769 0.14231713 0.08593408
v -0.07585297 0.14723718 -0.085934386
v -0.10308769 0.14231713 0.08593408
v -0.12041187 0.1439209 -0.08593416
v -0.16108799 0.15612793 0.08593416
v -0.16108799 0.15612793 -0.08593416
v -0.20141947 0.19946656 0.085934065
v -0.20392255 0.20505884 -0.085933656
v -0.18589255 0.31266183 0.08593414
v -0.20561996 0.2780845 -0.08593408
v -0.16313286 0.33173153 -0.08593479
v -0.18589255 0.31266183 0.08593414
v -0.20561996 0.2780845 -0.08593408
v -0.209239 0.2587738 0.085935116
v -0.20392255 0.20505884 -0.085933656
v -0.20141947 0.19946656 0.085934065
v 0.15965176 -0.43952942 -0.08593416
v 0.10561041 -0.45635185 -0.08593416
v 0.03445074 -0.43385774 -0.08593354
v 0.18164921 -0.4172821 -0.08593321
v 0.03445074 -0.43385774 -0.08593354
v 0.19362736 -0.38941956 -0.08593416
v 0.004011469 -0.3712141 -0.08593447
v 0.20136373 -0.34648448 -0.0859344
v 0.20136373 -0.34648448 -0.0859344
v 0.004011469 -0.3712141 -0.08593447
v 0.20726487 0.3019796 -0.08593355
v -0.0035181046 0.1820221 -0.08593321
v 0.20726487 0.3019796 -0.08593355
v 0.09980826 0.4561143 -0.085933246
v 0.18305829 0.4252603 -0.08593401
v -0.045910835 0.3986969 -0.08593416
v -0.16313286 0.33173153 -0.08593479
v -0.07585297 0.14723718 -0.085934386
v -0.16313286 0.33173153 -0.08593479
v -0.07585297 0.14723718 -0.085934386
v -0.20561996 0.2780845 -0.08593408
v -0.12041187 0.1439209 -0.08593416
v -0.20561996 0.2780845 -0.08593408
v -0.16108799 0.15612793 -0.08593416
v -0.20392255 0.20505884 -0.085933656
v 0.20136373 -0.34648448 -0.0859344
v 0.20001873 -0.36995962 0.08593416
v 0.19362736 -0.38941956 -0.08593416
v 0.20001873 -0.36995962 0.08593416
v 0.18164921 -0.4172821 -0.08593321
v 0.16917473 -0.43385723 0.08593416
v 0.15965176 -0.43952942 -0.08593416
v 0.09801598 -0.45635188 0.08593416
v 0.03445074 -0.43385774 -0.08593354
v 0.02162075 -0.4220755 0.08593416
v 0.10561041 -0.45635185 -0.08593416
v 0.16917473 -0.43385723 0.08593416
v 0.10561041 -0.45635185 -0.08593416
v 0.09801598 -0.45635188 0.08593416
v 0.15965176 -0.43952942 -0.08593416
vt 0.29474884 0.3802582
vt 0.3048569 0.3816252
vt 0.28721324 0.38453975
vt 0.3061074 0.38230854
vt 0.28647634 0.3865114
vt 0.3094619 0.3879018
vt 0.28587395 0.3887836
vt 0.3099524 0.38921022
vt 0.28503826 0.39484504
vt 0.31037635 0.39037043
vt 0.28518575 0.40459272
vt 0.31421125 0.46122968
vt 0.28668264 0.46181974
vt 0.31405556 0.48318648
vt 0.29444242 0.49518132
vt 0.3138154 0.4859455
vt 0.28985155 0.493674
vt 0.29930186 0.49637008
vt 0.26911557 0.48347175
vt 0.31325793 0.4893952
vt 0.28046042 0.4591912
vt 0.30429208 0.4964726
vt 0.31023854 0.4937781
vt 0.26652086 0.48180068
vt 0.2739009 0.45762888
vt 0.2640824 0.47990736
vt 0.27168334 0.45791924
vt 0.26082432 0.47309577
vt 0.26651657 0.45967937
vt 0.26092792 0.46793342
vt 0.36417568 0.40847975
vt 0.334742 0.48532832
vt 0.36417568 0.48532832
vt 0.334742 0.40847975
vt 0.36417568 0.3941073
vt 0.33474755 0.39513054
vt 0.36417568 0.38746643
vt 0.334742 0.38927966
vt 0.36417568 0.38269332
vt 0.334742 0.38269332
vt 0.34803295 0.43766487
vt 0.33352584 0.39978796
vt 0.33352584 0.43766487
vt 0.34803295 0.399788
vt 0.33352584 0.38967553
vt 0.34803295 0.38538387
vt 0.33352584 0.38268486
vt 0.34803295 0.38032964
vt 0.3335243 0.379435
vt 0.34803295 0.37852734
vt 0.34885103 0.4229611
vt 0.3633582 0.4229611
vt 0.34885103 0.4204162
vt 0.3633593 0.4190803
vt 0.3633582 0.41714415
vt 0.34885103 0.41626576
vt 0.3633582 0.4139846
vt 0.34885103 0.40625277
vt 0.3633582 0.40625277
vt 0.34885103 0.39765248
vt 0.3633582 0.39765248
vt 0.3633582 0.39458272
vt 0.34885103 0.3904441
vt 0.36335823 0.3884386
vt 0.34885103 0.38771808
vt 0.3633582 0.38771808
vt 0.34885103 0.38471586
vt 0.3633582 0.38471586
vt 0.34885103 0.38128227
vt 0.3633582 0.38128227
vt 0.34885103 0.37852734
vt 0.3633582 0.37852734
vt 0.34183246 0.3973879
vt 0.34408456 0.38288078
vt 0.34183246 0.38288078
vt 0.34408456 0.3973879
vt 0.34553966 0.38288078
vt 0.34707534 0.3973879
vt 0.3504603 0.38288078
vt 0.3504603 0.3973879
vt 0.30470783 0.38159212
vt 0.29768172 0.37970617
vt 0.2898494 0.38217506
vt 0.30764538 0.38434067
vt 0.2871362 0.38514534
vt 0.30932438 0.3878602
vt 0.2857381 0.38878557
vt 0.31053445 0.39333466
vt 0.31122 0.40357035
vt 0.28507918 0.40459594
vt 0.31420934 0.4611792
vt 0.28688174 0.46225137
vt 0.31409425 0.48313618
vt 0.29450333 0.49516732
vt 0.31294435 0.48991603
vt 0.2825284 0.49029315
vt 0.2691548 0.48350453
vt 0.28045475 0.45920312
vt 0.26562274 0.48094678
vt 0.27625352 0.45801437
vt 0.26269507 0.47762942
vt 0.27167535 0.45794737
vt 0.2608444 0.47314394
vt 0.26651186 0.45971704
vt 0.26125658 0.46621823
vt 0.35383487 0.40366188
vt 0.35383487 0.3873201
vt 0.35752195 0.40366188
vt 0.35752195 0.3873201
vt 0.36017203 0.40366188
vt 0.36017203 0.3873201
vt 0.3622887 0.40366188
vt 0.36390042 0.39123005
vt 0.33446681 0.39765155
vt 0.36390042 0.39765155
vt 0.33446681 0.39123005
vt 0.34585518 0.40795025
vt 0.36219698 0.404385
vt 0.34585518 0.404385
vt 0.36219698 0.40795025
vn -0 0 1
vn -0 0 1
vn -0 0 1
vn -0 0 1
vn -0 0 1
vn -0 0 1
vn -0 0 1
vn -0 0 1
vn -0 0 1
vn -0 0 1
vn -0 0 1
vn -0 0 1
vn -0 0 1
vn -0 0 1
vn -0 0 1
vn -0 0 1
vn -0 0 1
vn -0 0 1
vn -0 0 1
vn -0 0 1
vn -0 0 1
vn -0 0 1
vn -0 0 1
vn -0 0 1
vn -0 0 1
vn -0 0 1
vn -0 0 1
vn -0 0 1
vn -0 0 1
vn -0 0 1
vn -0.9997867 -0.020657754 0
vn -0.5144616 -0.8575134 0
vn -0.5144617 -0.85751337 0
vn -0.9997867 -0.020657752 0
vn -0.9941988 -0.10755821 0
vn -0.99484605 -0.101396725 0
vn -0.9570808 -0.28982154 0
vn -0.9705539 -0.24088438 0
vn -0.8294571 -0.55857044 0
vn -0.8294571 -0.55857044 0
vn 0.99973565 -0.022992596 0
vn 0.9998734 0.015912227 0
vn 0.99973565 -0.022992596 0
vn 0.9998734 0.015912225 0
vn 0.9967466 0.08059894 0
vn 0.99415636 0.10794957 0
vn 0.968812 0.24779676 0
vn 0.87263167 0.48837888 0
vn 0.7734596 0.63384557 0
vn 0.64834666 0.76134527 0
vn 0.4035964 0.9149372 0
vn 0.4035964 0.9149372 0
vn 0.12042069 0.9927229 0
vn 0.0031815618 0.99999493 0
vn -0.16681306 0.98598856 0
vn -0.21689962 0.9761939 0
vn -0.34432536 0.93885046 0
vn -0.450523 0.89276487 0
vn -0.45052305 0.89276487 0
vn -0.5542402 0.83235675 0
vn -0.5542402 0.83235675 0
vn -0.5144616 -0.8575134 0
vn 0.38805884 -0.92163455 0
vn 0.23852675 -0.971136 0
vn 0.1833608 -0.9830457 0
vn 0.18336082 -0.9830457 0
vn -0.11828445 -0.9929798 0
vn -0.11828447 -0.9929798 0
vn -0.51237625 -0.85876113 0
vn -0.51237625 -0.858761 0
vn -0.8249502 -0.56520534 0
vn -0.8249502 -0.5652053 0
vn -0.7007519 0.71340495 0
vn -0.8688215 0.49512556 0
vn -0.7007519 0.71340495 0
vn -0.8688215 0.49512556 0
vn -0.943518 0.33132133 0
vn -0.9891662 0.14680026 0
vn -0.9721709 -0.23427248 0
vn -0.972171 -0.23427248 0
vn -0 0 -1
vn -0 0 -1
vn -0 0 -1
vn -0 0 -1
vn -0 0 -1
vn -0 0 -1
vn -0 0 -1
vn -0 0 -1
vn -0 0 -1
vn -0 0 -1
vn -0 0 -1
vn -0 0 -1
vn -0 0 -1
vn -0 0 -1
vn -0 0 -1
vn -0 0 -1
vn -0 0 -1
vn -0 0 -1
vn -0 0 -1
vn -0 0 -1
vn -0 0 -1
vn -0 0 -1
vn -0 0 -1
vn -0 0 -1
vn -0 0 -1
vn 0.99419916 -0.107554615 0
vn 0.99419916 -0.10755463 0
vn 0.95708054 -0.28982222 0
vn 0.95708054 -0.28982222 0
vn 0.82945645 -0.55857146 0
vn 0.82945645 -0.55857146 0
vn 0.5390013 -0.842305 0
vn -0.17268746 -0.98497665 0
vn -0.53899837 -0.84230673 0
vn -0.5389984 -0.84230673 0
vn -0.17268746 -0.98497665 0
vn 0.53900117 -0.842305 0
vn 0.17268746 -0.98497665 0
vn 0.17268746 -0.98497665 0
vn 0.5390013 -0.842305 0
g number1_collision_0
f 3/3/3 1/1/1 2/2/2
f 4/4/4 6/6/6 5/5/5
f 9/9/9 7/7/7 8/8/8
f 10/10/10 12/12/12 11/11/11
f 13/13/13 11/11/11 12/12/12
f 14/14/14 13/13/13 12/12/12
f 14/14/14 15/15/15 13/13/13
f 18/18/18 15/15/15 16/16/16
f 17/17/17 19/19/19 13/13/13
f 20/20/20 23/23/23 22/22/22
f 25/25/25 21/21/21 24/24/24
f 26/26/26 28/28/28 27/27/27
f 29/29/29 27/27/27 28/28/28
f 28/28/28 30/30/30 29/29/29
f 33/33/33 32/32/32 31/31/31
f 34/34/34 31/31/31 32/32/32
f 35/35/35 36/36/36 37/37/37
f 40/40/40 39/39/39 38/38/38
f 43/43/43 42/42/42 41/41/41
f 44/44/44 41/41/41 42/42/42
f 46/46/46 44/44/44 45/45/45
f 45/45/45 47/47/47 46/46/46
f 50/50/50 48/48/48 49/49/49
f 51/51/51 53/53/53 52/52/52
f 54/54/54 52/52/52 53/53/53
f 57/57/57 55/55/55 56/56/56
f 56/56/56 58/58/58 57/57/57
f 58/58/58 60/60/60 59/59/59
f 61/61/61 59/59/59 60/60/60
f 64/64/64 62/62/62 63/63/63
f 63/63/63 65/65/65 64/64/64
f 68/68/68 66/66/66 67/67/67
f 67/67/67 69/69/69 68/68/68
f 70/70/70 68/68/68 69/69/69
f 69/69/69 71/71/71 70/70/70
f 72/72/72 70/70/70 71/71/71
f 75/75/75 74/74/74 73/73/73
f 78/78/78 76/76/76 77/77/77
f 77/77/77 79/79/79 78/78/78
f 80/80/80 78/78/78 79/79/79
f 83/83/83 81/81/81 82/82/82
f 81/81/81 83/83/83 84/84/84
f 84/84/84 85/85/85 86/86/86
f 87/87/87 86/86/86 85/85/85
f 86/86/86 87/87/87 88/88/88
f 89/89/89 90/90/90 91/91/91
f 92/92/92 91/91/91 90/90/90
f 93/93/93 92/92/92 94/94/94
f 93/93/93 94/94/94 95/95/95
f 96/96/96 94/94/94 92/92/92
f 96/96/96 92/92/92 97/97/97
f 98/98/98 97/97/97 92/92/92
f 99/99/99 100/100/100 101/101/101
f 102/102/102 101/101/101 100/100/100
f 104/104/104 103/103/103 102/102/102
f 103/103/103 104/104/104 105/105/105
f 106/106/106 107/107/107 108/108/108
f 108/108/108 109/109/109 110/110/110
f 111/111/111 110/110/110 109/109/109
f 110/110/110 111/111/111 112/112/112
f 115/115/115 114/114/114 113/113/113
f 116/116/116 113/113/113 114/114/114
f 119/119/119 118/118/118 117/117/117
f 120/120/120 117/117/117 118/118/118
