g number_1
v 0.081469536 -0.45310974 0.08593416
v 0.15965176 -0.43952942 0.08593416
v 0.12215614 -0.45310974 0.08593416
v 0.04397297 -0.43952942 0.08593416
v 0.18164921 -0.4172821 0.08593416
v 0.021975994 -0.4172821 0.08593416
v 0.19362736 -0.38941956 0.08593416
v 0.009997845 -0.38941956 0.08593416
v 0.20077038 -0.3506317 0.08593416
v 0.0028543472 -0.3506317 0.08593416
v 0.20357037 -0.26670837 0.08593416
v 5.340576E-05 -0.26670837 0.08593416
v 0.209239 0.1820221 0.08593416
v -0.0035181046 0.1820221 0.08593416
v 0.20164776 0.3526764 0.08593416
v 0.045689106 0.44023132 0.08593416
v 0.19609737 0.3846588 0.08593416
v -0.045910835 0.3986969 0.08593321
v 0.083120346 0.45088196 0.08593416
v -0.14779949 0.34184265 0.08593416
v 0.18657207 0.41256714 0.08593321
v -0.05254841 0.15635681 0.08593416
v 0.1218853 0.45310974 0.08593416
v 0.16889668 0.43392944 0.08593321
v 0.15203476 0.44381714 0.08593416
v -0.17447758 0.32087708 0.08593416
v -0.08484268 0.14585876 0.08593416
v -0.19622326 0.29418945 0.08593416
v -0.12041187 0.1439209 0.08593416
v -0.209239 0.2587738 0.085935116
v -0.16108799 0.15612793 0.08593416
v -0.20693111 0.21862793 0.08593416
v -0.19372654 0.18875122 0.08593416
v 5.340576E-05 -0.26670837 0.08593416
v -0.0035181046 0.1820221 -0.08593321
v -0.0035181046 0.1820221 0.08593416
v 5.340576E-05 -0.26670837 -0.085935116
v 0.0028543472 -0.3506317 0.08593416
v 0.0028543472 -0.3506317 -0.08593416
v 0.009997845 -0.38941956 0.08593416
v 0.009997845 -0.38941956 -0.08593416
v 0.021975994 -0.4172821 0.08593416
v 0.021975994 -0.4172821 -0.08593321
v 0.04397297 -0.43952942 0.08593416
v 0.04397297 -0.43952942 -0.08593416
v 0.20357037 -0.26670837 0.08593416
v 0.209239 0.1820221 -0.08593321
v 0.20357037 -0.26670837 -0.085935116
v 0.209239 0.1820221 0.08593416
v 0.20164776 0.3526764 -0.08593416
v 0.20164776 0.3526764 0.08593416
v 0.19609737 0.3846588 -0.08593416
v 0.19609737 0.3846588 0.08593416
v 0.18657207 0.41256714 -0.08593416
v 0.18657207 0.41256714 0.08593321
v 0.16889668 0.43392944 -0.08593416
v 0.16889668 0.43392944 0.08593321
v 0.16889668 0.43392944 0.08593321
v 0.15203476 0.44381714 -0.08593416
v 0.16889668 0.43392944 -0.08593416
v 0.15203476 0.44381714 0.08593416
v 0.1218853 0.45310974 -0.08593321
v 0.1218853 0.45310974 0.08593416
v 0.083120346 0.45088196 -0.08593321
v 0.083120346 0.45088196 0.08593416
v 0.045689106 0.44023132 -0.08593416
v 0.045689106 0.44023132 0.08593416
v -0.045910835 0.3986969 -0.08593416
v -0.045910835 0.3986969 0.08593321
v -0.14779949 0.34184265 -0.08593416
v -0.14779949 0.34184265 0.08593416
v -0.17447758 0.32087708 -0.085935116
v -0.17447758 0.32087708 0.08593416
v -0.0035181046 0.1820221 -0.08593321
v -0.05254841 0.15635681 0.08593416
v -0.0035181046 0.1820221 0.08593416
v -0.05254841 0.15635681 -0.08593416
v -0.08484268 0.14585876 0.08593416
v -0.08484268 0.14585876 -0.08593416
v -0.12041187 0.1439209 0.08593416
v -0.12041187 0.1439209 -0.08593416
v -0.16108799 0.15612793 0.08593416
v -0.16108799 0.15612793 -0.08593416
v -0.19372654 0.18875122 0.08593416
v -0.19372654 0.18875122 -0.08593321
v -0.17447758 0.32087708 0.08593416
v -0.19622326 0.29418945 -0.08593416
v -0.17447758 0.32087708 -0.085935116
v -0.19622326 0.29418945 0.08593416
v -0.209239 0.2587738 -0.08593416
v -0.209239 0.2587738 0.085935116
v -0.20693111 0.21862793 -0.08593416
v -0.20693111 0.21862793 0.08593416
v -0.19372654 0.18875122 -0.08593321
v -0.19372654 0.18875122 0.08593416
v 0.15965176 -0.43952942 -0.08593416
v 0.081469536 -0.45310974 -0.08593416
v 0.12215614 -0.45310974 -0.08593416
v 0.04397297 -0.43952942 -0.08593416
v 0.18164921 -0.4172821 -0.08593321
v 0.021975994 -0.4172821 -0.08593321
v 0.19362736 -0.38941956 -0.08593416
v 0.009997845 -0.38941956 -0.08593416
v 0.20077038 -0.3506317 -0.08593416
v 0.0028543472 -0.3506317 -0.08593416
v 0.20357037 -0.26670837 -0.085935116
v 5.340576E-05 -0.26670837 -0.085935116
v 0.209239 0.1820221 -0.08593321
v -0.0035181046 0.1820221 -0.08593321
v 0.20164776 0.3526764 -0.08593416
v 0.045689106 0.44023132 -0.08593416
v 0.19609737 0.3846588 -0.08593416
v -0.045910835 0.3986969 -0.08593416
v 0.083120346 0.45088196 -0.08593321
v -0.14779949 0.34184265 -0.08593416
v 0.18657207 0.41256714 -0.08593416
v -0.05254841 0.15635681 -0.08593416
v 0.1218853 0.45310974 -0.08593321
v 0.16889668 0.43392944 -0.08593416
v 0.15203476 0.44381714 -0.08593416
v -0.17447758 0.32087708 -0.085935116
v -0.08484268 0.14585876 -0.08593416
v -0.19622326 0.29418945 -0.08593416
v -0.12041187 0.1439209 -0.08593416
v -0.209239 0.2587738 -0.08593416
v -0.16108799 0.15612793 -0.08593416
v -0.20693111 0.21862793 -0.08593416
v -0.19372654 0.18875122 -0.08593321
v 0.20077038 -0.3506317 -0.08593416
v 0.20357037 -0.26670837 0.08593416
v 0.20357037 -0.26670837 -0.085935116
v 0.20077038 -0.3506317 0.08593416
v 0.19362736 -0.38941956 -0.08593416
v 0.19362736 -0.38941956 0.08593416
v 0.18164921 -0.4172821 -0.08593321
v 0.18164921 -0.4172821 0.08593416
v 0.15965176 -0.43952942 -0.08593416
v 0.15965176 -0.43952942 0.08593416
v 0.081469536 -0.45310974 0.08593416
v 0.04397297 -0.43952942 -0.08593416
v 0.04397297 -0.43952942 0.08593416
v 0.081469536 -0.45310974 -0.08593416
v 0.12215614 -0.45310974 0.08593416
v 0.12215614 -0.45310974 -0.08593416
v 0.15965176 -0.43952942 0.08593416
v 0.12215614 -0.45310974 -0.08593416
v 0.12215614 -0.45310974 0.08593416
v 0.15965176 -0.43952942 -0.08593416
vt 0.29474884 0.3802582
vt 0.3048569 0.3816252
vt 0.29997522 0.38006282
vt 0.28999746 0.3821807
vt 0.3077894 0.3843792
vt 0.2872787 0.38514596
vt 0.3094619 0.3879018
vt 0.28587395 0.3887836
vt 0.31056565 0.3928486
vt 0.28514254 0.393799
vt 0.3113284 0.40361544
vt 0.28518575 0.40459272
vt 0.31421125 0.46122968
vt 0.2868818 0.46225137
vt 0.31405556 0.48318648
vt 0.29444242 0.49518132
vt 0.31349617 0.48732054
vt 0.28247654 0.49028504
vt 0.29930186 0.49637008
vt 0.26911557 0.48347175
vt 0.31240666 0.49095047
vt 0.28046042 0.4591912
vt 0.30429208 0.4964726
vt 0.31023854 0.4937781
vt 0.30812025 0.49513268
vt 0.26558822 0.48090744
vt 0.2762614 0.4579947
vt 0.2626667 0.4775846
vt 0.27168334 0.45791924
vt 0.26082432 0.47309577
vt 0.26651657 0.45967937
vt 0.26092792 0.46793342
vt 0.26248068 0.46402472
vt 0.36417568 0.40847975
vt 0.334742 0.48532832
vt 0.36417568 0.48532832
vt 0.334742 0.40847975
vt 0.36417568 0.3941073
vt 0.334742 0.3941073
vt 0.36417568 0.38746643
vt 0.334742 0.38746643
vt 0.36417568 0.38269332
vt 0.334742 0.38269332
vt 0.36417568 0.37888083
vt 0.334742 0.37888083
vt 0.34803295 0.43766487
vt 0.33352584 0.39978796
vt 0.33352584 0.43766487
vt 0.34803295 0.399788
vt 0.33352584 0.38538387
vt 0.34803295 0.38538387
vt 0.33352584 0.38268486
vt 0.34803295 0.38268486
vt 0.33352584 0.38032964
vt 0.34803295 0.38032964
vt 0.33352584 0.37852734
vt 0.34803295 0.37852734
vt 0.3633582 0.42438433
vt 0.34885103 0.4229611
vt 0.34885103 0.42438433
vt 0.3633582 0.4229611
vt 0.34885103 0.4204162
vt 0.3633582 0.4204162
vt 0.34885103 0.41714415
vt 0.3633582 0.41714415
vt 0.34885103 0.4139846
vt 0.3633582 0.4139846
vt 0.34885103 0.40625277
vt 0.3633582 0.40625277
vt 0.34885103 0.39765248
vt 0.3633582 0.39765248
vt 0.34885103 0.3954008
vt 0.3633582 0.3954008
vt 0.3633582 0.39458272
vt 0.34885103 0.3904441
vt 0.34885103 0.39458272
vt 0.3633582 0.3904441
vt 0.34885103 0.38771808
vt 0.3633582 0.38771808
vt 0.34885103 0.38471586
vt 0.3633582 0.38471586
vt 0.34885103 0.38128227
vt 0.3633582 0.38128227
vt 0.34885103 0.37852734
vt 0.3633582 0.37852734
vt 0.34183246 0.3973879
vt 0.34408456 0.38288078
vt 0.34183246 0.38288078
vt 0.34408456 0.3973879
vt 0.34707534 0.38288078
vt 0.34707534 0.3973879
vt 0.3504603 0.38288078
vt 0.3504603 0.3973879
vt 0.35298705 0.38288078
vt 0.35298705 0.3973879
vt 0.30470783 0.38159212
vt 0.29459727 0.3802438
vt 0.29982328 0.38003874
vt 0.2898494 0.38217506
vt 0.30764538 0.38434067
vt 0.2871362 0.38514534
vt 0.30932438 0.3878602
vt 0.2857381 0.38878557
vt 0.31043732 0.39280495
vt 0.285016 0.39380234
vt 0.31122 0.40357035
vt 0.28507918 0.40459594
vt 0.31420934 0.4611792
vt 0.28688174 0.46225137
vt 0.31409425 0.48313618
vt 0.29450333 0.49516732
vt 0.3135425 0.4872713
vt 0.2825284 0.49029315
vt 0.29936486 0.49634707
vt 0.2691548 0.48350453
vt 0.3124597 0.49090326
vt 0.28045475 0.45920312
vt 0.30435532 0.4964404
vt 0.31029677 0.4937349
vt 0.308181 0.49509335
vt 0.26562274 0.48094678
vt 0.27625352 0.45801437
vt 0.26269507 0.47762942
vt 0.27167535 0.45794737
vt 0.2608444 0.47314394
vt 0.26651186 0.45971704
vt 0.26093847 0.46798134
vt 0.262484 0.46406984
vt 0.35383487 0.40366188
vt 0.34585518 0.3873201
vt 0.34585518 0.40366188
vt 0.35383487 0.3873201
vt 0.35752195 0.40366188
vt 0.35752195 0.3873201
vt 0.36017203 0.40366188
vt 0.36017203 0.3873201
vt 0.3622887 0.40366188
vt 0.3622887 0.3873201
vt 0.36390042 0.39123005
vt 0.33446681 0.39765155
vt 0.36390042 0.39765155
vt 0.33446681 0.39123005
vt 0.36390042 0.38426217
vt 0.33446681 0.38426217
vt 0.34585518 0.40795025
vt 0.36219698 0.404385
vt 0.34585518 0.404385
vt 0.36219698 0.40795025
vn -0 0 1
vn -0 0 1
vn -0 0 1
vn -0 0 1
vn -0 0 1
vn -0 0 1
vn -0 0 1
vn -0 0 1
vn -0 0 1
vn -0 0 1
vn -0 0 1
vn -0 0 1
vn -0 0 1
vn -0 0 1
vn -0 0 1
vn -0 0 1
vn -0 0 1
vn -0 0 1
vn -0 0 1
vn -0 0 1
vn -0 0 1
vn -0 0 1
vn -0 0 1
vn -0 0 1
vn -0 0 1
vn -0 0 1
vn -0 0 1
vn -0 0 1
vn -0 0 1
vn -0 0 1
vn -0 0 1
vn -0 0 1
vn -0 0 1
vn -0.9997867 -0.020657754 0
vn -0.5144616 -0.8575134 0
vn -0.5144617 -0.85751337 0
vn -0.9997867 -0.020657752 0
vn -0.9941988 -0.10755821 0
vn -0.9941988 -0.107558206 0
vn -0.9570808 -0.28982154 0
vn -0.9570808 -0.28982142 0
vn -0.8294571 -0.55857044 0
vn -0.8294571 -0.55857044 0
vn -0.5389984 -0.84230673 0
vn -0.53899837 -0.84230673 0
vn 0.99973565 -0.022992596 0
vn 0.9998734 0.015912227 0
vn 0.99973565 -0.022992596 0
vn 0.9998734 0.015912225 0
vn 0.99415636 0.10794955 0
vn 0.99415636 0.10794957 0
vn 0.968812 0.24779676 0
vn 0.968812 0.24779679 0
vn 0.87263167 0.48837888 0
vn 0.87263167 0.48837888 0
vn 0.64834666 0.76134527 0
vn 0.64834666 0.76134527 0
vn 0.64834666 0.76134527 0
vn 0.4035964 0.9149372 0
vn 0.64834666 0.76134527 0
vn 0.4035964 0.9149372 0
vn 0.12042069 0.9927229 0
vn 0.12042069 0.9927229 0
vn -0.16681305 0.98598856 0
vn -0.16681306 0.98598856 0
vn -0.3443254 0.93885034 0
vn -0.34432536 0.93885046 0
vn -0.450523 0.89276487 0
vn -0.45052305 0.89276487 0
vn -0.5542402 0.83235675 0
vn -0.5542402 0.83235675 0
vn -0.7007519 0.71340495 0
vn -0.7007519 0.71340495 0
vn -0.5144616 -0.8575134 0
vn 0.38805884 -0.92163455 0
vn -0.5144617 -0.85751337 0
vn 0.38805893 -0.92163455 0
vn 0.1833608 -0.9830457 0
vn 0.18336082 -0.9830457 0
vn -0.11828445 -0.9929798 0
vn -0.11828447 -0.9929798 0
vn -0.51237625 -0.85876113 0
vn -0.51237625 -0.858761 0
vn -0.8249502 -0.56520534 0
vn -0.8249502 -0.5652053 0
vn -0.7007519 0.71340495 0
vn -0.8688215 0.49512556 0
vn -0.7007519 0.71340495 0
vn -0.8688215 0.49512556 0
vn -0.9891662 0.14680022 0
vn -0.9891662 0.14680026 0
vn -0.9721709 -0.23427248 0
vn -0.972171 -0.23427248 0
vn -0.8249502 -0.5652053 0
vn -0.8249502 -0.56520534 0
vn -0 0 -1
vn -0 0 -1
vn -0 0 -1
vn -0 0 -1
vn -0 0 -1
vn -0 0 -1
vn -0 0 -1
vn -0 0 -1
vn -0 0 -1
vn -0 0 -1
vn -0 0 -1
vn -0 0 -1
vn -0 0 -1
vn -0 0 -1
vn -0 0 -1
vn -0 0 -1
vn -0 0 -1
vn -0 0 -1
vn -0 0 -1
vn -0 0 -1
vn -0 0 -1
vn -0 0 -1
vn -0 0 -1
vn -0 0 -1
vn -0 0 -1
vn -0 0 -1
vn -0 0 -1
vn -0 0 -1
vn -0 0 -1
vn -0 0 -1
vn -0 0 -1
vn -0 0 -1
vn -0 0 -1
vn 0.99419916 -0.107554615 0
vn 0.99973565 -0.022992596 0
vn 0.99973565 -0.022992596 0
vn 0.99419916 -0.10755463 0
vn 0.95708054 -0.28982222 0
vn 0.95708054 -0.28982222 0
vn 0.82945645 -0.55857146 0
vn 0.82945645 -0.55857146 0
vn 0.5390013 -0.842305 0
vn 0.53900117 -0.842305 0
vn -0.17268746 -0.98497665 0
vn -0.53899837 -0.84230673 0
vn -0.5389984 -0.84230673 0
vn -0.17268746 -0.98497665 0
vn 0.17268746 -0.98497665 0
vn 0.17268746 -0.98497665 0
vn 0.53900117 -0.842305 0
vn 0.17268746 -0.98497665 0
vn 0.17268746 -0.98497665 0
vn 0.5390013 -0.842305 0
g number_1_0
f 3/3/3 2/2/2 1/1/1
f 4/4/4 1/1/1 2/2/2
f 2/2/2 5/5/5 4/4/4
f 6/6/6 4/4/4 5/5/5
f 5/5/5 7/7/7 6/6/6
f 8/8/8 6/6/6 7/7/7
f 7/7/7 9/9/9 8/8/8
f 10/10/10 8/8/8 9/9/9
f 9/9/9 11/11/11 10/10/10
f 12/12/12 10/10/10 11/11/11
f 11/11/11 13/13/13 12/12/12
f 14/14/14 12/12/12 13/13/13
f 15/15/15 14/14/14 13/13/13
f 15/15/15 16/16/16 14/14/14
f 15/15/15 17/17/17 16/16/16
f 18/18/18 14/14/14 16/16/16
f 19/19/19 16/16/16 17/17/17
f 18/18/18 20/20/20 14/14/14
f 17/17/17 21/21/21 19/19/19
f 22/22/22 14/14/14 20/20/20
f 23/23/23 19/19/19 21/21/21
f 21/21/21 24/24/24 23/23/23
f 25/25/25 23/23/23 24/24/24
f 20/20/20 26/26/26 22/22/22
f 27/27/27 22/22/22 26/26/26
f 26/26/26 28/28/28 27/27/27
f 29/29/29 27/27/27 28/28/28
f 28/28/28 30/30/30 29/29/29
f 31/31/31 29/29/29 30/30/30
f 30/30/30 32/32/32 31/31/31
f 33/33/33 31/31/31 32/32/32
f 36/36/36 35/35/35 34/34/34
f 37/37/37 34/34/34 35/35/35
f 34/34/34 37/37/37 38/38/38
f 39/39/39 38/38/38 37/37/37
f 38/38/38 39/39/39 40/40/40
f 41/41/41 40/40/40 39/39/39
f 40/40/40 41/41/41 42/42/42
f 43/43/43 42/42/42 41/41/41
f 42/42/42 43/43/43 44/44/44
f 45/45/45 44/44/44 43/43/43
f 48/48/48 47/47/47 46/46/46
f 49/49/49 46/46/46 47/47/47
f 47/47/47 50/50/50 49/49/49
f 51/51/51 49/49/49 50/50/50
f 50/50/50 52/52/52 51/51/51
f 53/53/53 51/51/51 52/52/52
f 52/52/52 54/54/54 53/53/53
f 55/55/55 53/53/53 54/54/54
f 54/54/54 56/56/56 55/55/55
f 57/57/57 55/55/55 56/56/56
f 60/60/60 59/59/59 58/58/58
f 61/61/61 58/58/58 59/59/59
f 59/59/59 62/62/62 61/61/61
f 63/63/63 61/61/61 62/62/62
f 62/62/62 64/64/64 63/63/63
f 65/65/65 63/63/63 64/64/64
f 64/64/64 66/66/66 65/65/65
f 67/67/67 65/65/65 66/66/66
f 66/66/66 68/68/68 67/67/67
f 69/69/69 67/67/67 68/68/68
f 68/68/68 70/70/70 69/69/69
f 71/71/71 69/69/69 70/70/70
f 70/70/70 72/72/72 71/71/71
f 73/73/73 71/71/71 72/72/72
f 76/76/76 75/75/75 74/74/74
f 77/77/77 74/74/74 75/75/75
f 75/75/75 78/78/78 77/77/77
f 79/79/79 77/77/77 78/78/78
f 78/78/78 80/80/80 79/79/79
f 81/81/81 79/79/79 80/80/80
f 80/80/80 82/82/82 81/81/81
f 83/83/83 81/81/81 82/82/82
f 82/82/82 84/84/84 83/83/83
f 85/85/85 83/83/83 84/84/84
f 88/88/88 87/87/87 86/86/86
f 89/89/89 86/86/86 87/87/87
f 87/87/87 90/90/90 89/89/89
f 91/91/91 89/89/89 90/90/90
f 90/90/90 92/92/92 91/91/91
f 93/93/93 91/91/91 92/92/92
f 92/92/92 94/94/94 93/93/93
f 95/95/95 93/93/93 94/94/94
f 98/98/98 97/97/97 96/96/96
f 99/99/99 96/96/96 97/97/97
f 96/96/96 99/99/99 100/100/100
f 101/101/101 100/100/100 99/99/99
f 100/100/100 101/101/101 102/102/102
f 103/103/103 102/102/102 101/101/101
f 102/102/102 103/103/103 104/104/104
f 105/105/105 104/104/104 103/103/103
f 104/104/104 105/105/105 106/106/106
f 107/107/107 106/106/106 105/105/105
f 106/106/106 107/107/107 108/108/108
f 109/109/109 108/108/108 107/107/107
f 109/109/109 110/110/110 108/108/108
f 110/110/110 109/109/109 111/111/111
f 110/110/110 111/111/111 112/112/112
f 113/113/113 111/111/111 109/109/109
f 114/114/114 112/112/112 111/111/111
f 113/113/113 109/109/109 115/115/115
f 112/112/112 114/114/114 116/116/116
f 117/117/117 115/115/115 109/109/109
f 118/118/118 116/116/116 114/114/114
f 116/116/116 118/118/118 119/119/119
f 120/120/120 119/119/119 118/118/118
f 115/115/115 117/117/117 121/121/121
f 122/122/122 121/121/121 117/117/117
f 121/121/121 122/122/122 123/123/123
f 124/124/124 123/123/123 122/122/122
f 123/123/123 124/124/124 125/125/125
f 126/126/126 125/125/125 124/124/124
f 125/125/125 126/126/126 127/127/127
f 128/128/128 127/127/127 126/126/126
f 131/131/131 130/130/130 129/129/129
f 132/132/132 129/129/129 130/130/130
f 129/129/129 132/132/132 133/133/133
f 134/134/134 133/133/133 132/132/132
f 133/133/133 134/134/134 135/135/135
f 136/136/136 135/135/135 134/134/134
f 135/135/135 136/136/136 137/137/137
f 138/138/138 137/137/137 136/136/136
f 141/141/141 140/140/140 139/139/139
f 142/142/142 139/139/139 140/140/140
f 139/139/139 142/142/142 143/143/143
f 144/144/144 143/143/143 142/142/142
f 147/147/147 146/146/146 145/145/145
f 148/148/148 145/145/145 146/146/146
