g number_4
v 0.17873554 0.45439756 0.08604305
v 0.09293155 0.45525205 0.08604305
v 0.1412218 0.46391904 0.08604305
v 0.21203975 0.42577207 0.086044006
v 0.06250219 0.43663633 0.08604305
v 0.23137264 0.39446104 0.086044006
v 0.03228359 0.41083372 0.086044006
v 0.23594455 0.35910642 0.086044006
v 0.03228359 0.09769283 0.086044006
v 0.23899631 0.09769283 0.086044006
v -0.0651228 0.3064636 0.08604496
v 0.03228359 -0.020227088 0.086044006
v -0.0651228 -0.016015662 0.086044006
v 0.23899631 -0.020227088 0.086044006
v -0.20195408 0.1419128 0.08604305
v 0.23786716 -0.21325077 0.086044006
v 0.26766184 -0.022500647 0.086044006
v -0.20195408 -0.22103275 0.086044006
v -0.29948637 0.008978235 0.08604496
v -0.2507212 -0.21558537 0.086044006
v -0.29948637 -0.19710697 0.086044006
v -0.33094236 -0.03968204 0.086044006
v -0.33094236 -0.17417301 0.086044006
v -0.35169813 -0.09644474 0.086044006
v -0.35169813 -0.12755741 0.08604305
v 0.028812213 -0.2239014 0.086044006
v 0.035274312 -0.38071597 0.086044006
v 0.2665346 -0.2109467 0.086044006
v 0.2352808 -0.3802582 0.086044006
v 0.29520205 -0.2030579 0.086044006
v 0.041390225 -0.4146515 0.08604305
v 0.2963312 -0.030419959 0.086044006
v 0.22916584 -0.41416323 0.08604305
v 0.33106402 -0.17518009 0.086044006
v 0.052592084 -0.43464053 0.08604305
v 0.33219317 -0.058282506 0.086044006
v 0.35056856 -0.14104618 0.08604305
v 0.3516939 -0.09241642 0.086044006
v 0.21796398 -0.43415225 0.08604305
v 0.07021789 -0.45313418 0.086044006
v 0.20033817 -0.45261538 0.086044006
v 0.10068016 -0.46390688 0.086044006
v 0.1698759 -0.46344912 0.086044006
v 0.03228359 0.09769283 0.086044006
v 0.03228359 -0.020227088 0.084307365
v 0.03228359 0.09769283 0.084307365
v 0.03228359 -0.020227088 0.086044006
v 0.03228359 0.41083372 -0.08604462
v 0.06250219 0.43663633 0.08604305
v 0.03228359 0.41083372 0.086044006
v 0.06250219 0.43663633 -0.08604462
v 0.09293155 0.45525205 0.08604305
v 0.09293155 0.45525205 -0.08604462
v 0.1412218 0.46391904 0.08604305
v 0.1412218 0.46391904 -0.08604462
v 0.17873554 0.45439756 0.08604305
v 0.17873554 0.45439756 -0.08604462
v 0.21203975 0.42577207 0.086044006
v 0.21203975 0.42577207 -0.08604462
v 0.21203975 0.42577207 -0.08604462
v 0.23137264 0.39446104 0.086044006
v 0.21203975 0.42577207 0.086044006
v 0.23137264 0.39446104 -0.08604462
v 0.23594455 0.35910642 0.086044006
v 0.23594455 0.35910642 -0.08604462
v 0.23899631 0.09769283 0.086044006
v 0.23899631 0.09769283 -0.08604462
v 0.23899631 -0.020227088 -0.08604462
v 0.23899631 -0.020227088 0.086044006
v -0.0651228 -0.016015662 0.086044006
v 0.03228359 0.09769283 0.084307365
v -0.0651228 -0.016015662 0.084307365
v 0.03228359 0.09769283 0.086044006
v 0.03228359 0.41083372 0.086044006
v -0.0651228 0.3064636 -0.08604462
v 0.03228359 0.41083372 -0.08604462
v -0.0651228 0.3064636 0.08604496
v -0.20195408 0.1419128 0.08604305
v -0.20195408 0.1419128 -0.08604462
v -0.29948637 0.008978235 0.08604496
v -0.29948637 0.008978235 -0.08604462
v -0.33094236 -0.03968204 0.086044006
v -0.33094236 -0.03968204 -0.08604462
v -0.35169813 -0.09644474 -0.08604462
v -0.35169813 -0.09644474 0.086044006
v -0.35169813 -0.12755741 -0.08604462
v -0.35169813 -0.12755741 0.08604305
v -0.33094236 -0.17417301 0.086044006
v -0.33094236 -0.17417301 -0.08604462
v 0.03228359 -0.020227088 0.086044006
v -0.0651228 -0.016015662 0.084307365
v 0.03228359 -0.020227088 0.084307365
v -0.0651228 -0.016015662 0.086044006
v 0.028812213 -0.2239014 -0.08604462
v -0.20195408 -0.22103275 0.086044006
v 0.028812213 -0.2239014 0.086044006
v -0.20195408 -0.22103275 -0.08604462
v -0.2507212 -0.21558537 0.086044006
v -0.2507212 -0.21558537 -0.08604462
v -0.29948637 -0.19710697 -0.08604462
v -0.29948637 -0.19710697 0.086044006
v -0.33094236 -0.17417301 -0.08604462
v -0.33094236 -0.17417301 0.086044006
v 0.23786716 -0.21325077 0.086044006
v 0.2665346 -0.2109467 -0.08604462
v 0.23786716 -0.21325077 -0.08604462
v 0.2665346 -0.2109467 0.086044006
v 0.29520205 -0.2030579 0.086044006
v 0.29520205 -0.2030579 -0.08604462
v 0.33106402 -0.17518009 0.086044006
v 0.33106402 -0.17518009 -0.08604462
v 0.26766184 -0.022500647 -0.08604462
v 0.23899631 -0.020227088 0.086044006
v 0.23899631 -0.020227088 -0.08604462
v 0.26766184 -0.022500647 0.086044006
v 0.2963312 -0.030419959 0.086044006
v 0.2963312 -0.030419959 -0.08604462
v 0.33219317 -0.058282506 -0.08604462
v 0.33219317 -0.058282506 0.086044006
v 0.3516939 -0.09241642 0.086044006
v 0.3516939 -0.09241642 -0.08604462
v 0.35056856 -0.14104618 -0.08604462
v 0.35056856 -0.14104618 0.08604305
v 0.035274312 -0.38071597 0.086044006
v 0.028812213 -0.2239014 -0.08604462
v 0.028812213 -0.2239014 0.086044006
v 0.035274312 -0.38071597 -0.08604462
v 0.041390225 -0.4146515 0.08604305
v 0.041390225 -0.4146515 -0.08604462
v 0.052592084 -0.43464053 0.08604305
v 0.052592084 -0.43464053 -0.08604462
v 0.07021789 -0.45313418 0.086044006
v 0.07021789 -0.45313418 -0.08604462
v 0.23786716 -0.21325077 -0.08604462
v 0.2352808 -0.3802582 0.086044006
v 0.23786716 -0.21325077 0.086044006
v 0.2352808 -0.3802582 -0.08604462
v 0.22916584 -0.41416323 -0.08604462
v 0.22916584 -0.41416323 0.08604305
v 0.21796398 -0.43415225 -0.08604462
v 0.21796398 -0.43415225 0.08604305
v 0.20033817 -0.45261538 -0.08604462
v 0.20033817 -0.45261538 0.086044006
v 0.09293155 0.45525205 -0.08604462
v 0.17873554 0.45439756 -0.08604462
v 0.1412218 0.46391904 -0.08604462
v 0.21203975 0.42577207 -0.08604462
v 0.06250219 0.43663633 -0.08604462
v 0.23137264 0.39446104 -0.08604462
v 0.03228359 0.41083372 -0.08604462
v 0.23594455 0.35910642 -0.08604462
v 0.03228359 0.09769283 -0.08604462
v 0.23899631 0.09769283 -0.08604462
v -0.0651228 0.3064636 -0.08604462
v 0.03228359 -0.020227088 -0.08604462
v -0.0651228 -0.016015662 -0.08604462
v 0.23899631 -0.020227088 -0.08604462
v -0.20195408 0.1419128 -0.08604462
v 0.23786716 -0.21325077 -0.08604462
v 0.26766184 -0.022500647 -0.08604462
v -0.20195408 -0.22103275 -0.08604462
v -0.29948637 0.008978235 -0.08604462
v -0.2507212 -0.21558537 -0.08604462
v -0.29948637 -0.19710697 -0.08604462
v -0.33094236 -0.03968204 -0.08604462
v -0.33094236 -0.17417301 -0.08604462
v -0.35169813 -0.09644474 -0.08604462
v -0.35169813 -0.12755741 -0.08604462
v 0.028812213 -0.2239014 -0.08604462
v 0.035274312 -0.38071597 -0.08604462
v 0.2665346 -0.2109467 -0.08604462
v 0.2352808 -0.3802582 -0.08604462
v 0.29520205 -0.2030579 -0.08604462
v 0.041390225 -0.4146515 -0.08604462
v 0.2963312 -0.030419959 -0.08604462
v 0.22916584 -0.41416323 -0.08604462
v 0.33106402 -0.17518009 -0.08604462
v 0.052592084 -0.43464053 -0.08604462
v 0.33219317 -0.058282506 -0.08604462
v 0.35056856 -0.14104618 -0.08604462
v 0.3516939 -0.09241642 -0.08604462
v 0.21796398 -0.43415225 -0.08604462
v 0.07021789 -0.45313418 -0.08604462
v 0.20033817 -0.45261538 -0.08604462
v 0.10068016 -0.46390688 -0.08604462
v 0.1698759 -0.46344912 -0.08604462
v 0.03228359 0.09769283 -0.08604462
v 0.03228359 -0.020227088 0.084307365
v 0.03228359 -0.020227088 -0.08604462
v 0.03228359 0.09769283 0.084307365
v -0.0651228 -0.016015662 -0.08604462
v 0.03228359 0.09769283 0.084307365
v 0.03228359 0.09769283 -0.08604462
v -0.0651228 -0.016015662 0.084307365
v 0.03228359 -0.020227088 -0.08604462
v -0.0651228 -0.016015662 0.084307365
v -0.0651228 -0.016015662 -0.08604462
v 0.03228359 -0.020227088 0.084307365
v 0.35056856 -0.14104618 0.08604305
v 0.33106402 -0.17518009 -0.08604462
v 0.33106402 -0.17518009 0.086044006
v 0.35056856 -0.14104618 -0.08604462
v 0.10068016 -0.46390688 0.086044006
v 0.07021789 -0.45313418 -0.08604462
v 0.07021789 -0.45313418 0.086044006
v 0.10068016 -0.46390688 -0.08604462
v 0.1698759 -0.46344912 0.086044006
v 0.1698759 -0.46344912 -0.08604462
v 0.20033817 -0.45261538 0.086044006
v 0.20033817 -0.45261538 -0.08604462
vt 0.18821311 0.48394012
vt 0.17878714 0.48414338
vt 0.1841034 0.4850341
vt 0.19183624 0.48075008
vt 0.17542079 0.48213387
vt 0.19392097 0.47728944
vt 0.1720685 0.47933757
vt 0.19437933 0.4733981
vt 0.17167708 0.44493437
vt 0.1943878 0.44467592
vt 0.16123638 0.46799254
vt 0.17152962 0.43197796
vt 0.16083321 0.432561
vt 0.19424033 0.43171957
vt 0.14599738 0.45008564
vt 0.19387496 0.4105156
vt 0.19738698 0.43143055
vt 0.1455436 0.41020966
vt 0.13511577 0.4355996
vt 0.14019272 0.41086793
vt 0.13485816 0.4129601
vt 0.13159928 0.43029407
vt 0.13143119 0.415518
vt 0.12924781 0.42408666
vt 0.1292089 0.42066538
vt 0.17089364 0.40960574
vt 0.17140755 0.39236784
vt 0.19702733 0.41073292
vt 0.19338202 0.3921698
vt 0.20018673 0.41156313
vt 0.17203704 0.38863158
vt 0.20052671 0.43052867
vt 0.19266772 0.38844883
vt 0.20416164 0.41457933
vt 0.17324284 0.3864258
vt 0.20443189 0.4274228
vt 0.20634723 0.41830435
vt 0.20653224 0.42364898
vt 0.19141197 0.38627106
vt 0.17515615 0.38437155
vt 0.18945241 0.38426086
vt 0.17848936 0.3831441
vt 0.18609217 0.3831096
vt 0.17167708 0.44493437
vt 0.17152962 0.43197796
vt 0.17167708 0.44493437
vt 0.17152962 0.43197796
vt 0.22318038 0.38766402
vt 0.24648616 0.3917565
vt 0.24648616 0.38766402
vt 0.22318038 0.3917565
vt 0.24648616 0.39587745
vt 0.22318038 0.39587745
vt 0.24648616 0.40241736
vt 0.22318038 0.40241736
vt 0.24648616 0.40749797
vt 0.22318038 0.40749797
vt 0.24648616 0.41200826
vt 0.22318038 0.41200826
vt 0.22292218 0.3940195
vt 0.24622795 0.39825562
vt 0.24622795 0.3940195
vt 0.22292218 0.39825562
vt 0.24622795 0.40304524
vt 0.22292218 0.40304524
vt 0.24622795 0.4384458
vt 0.22292218 0.4384458
vt 0.22292218 0.45441675
vt 0.24622795 0.45441675
vt 0.16083321 0.432561
vt 0.17167708 0.44493437
vt 0.16083321 0.432561
vt 0.17167708 0.44493437
vt 0.22209963 0.3787727
vt 0.24540552 0.3929076
vt 0.24540552 0.3787727
vt 0.22209963 0.3929076
vt 0.22209963 0.4151919
vt 0.24540552 0.4151919
vt 0.22209963 0.43319878
vt 0.24540552 0.43319878
vt 0.22209963 0.43978727
vt 0.24540552 0.43978727
vt 0.24540552 0.4474709
vt 0.22209963 0.4474709
vt 0.24540552 0.4516883
vt 0.22209963 0.4516883
vt 0.22209963 0.45800138
vt 0.24540552 0.45800138
vt 0.17152962 0.43197796
vt 0.16083321 0.432561
vt 0.17152962 0.43197796
vt 0.16083321 0.432561
vt 0.24687716 0.45581663
vt 0.22357127 0.4245638
vt 0.22357127 0.45581663
vt 0.24687716 0.4245638
vt 0.22357127 0.41795954
vt 0.24687716 0.41795954
vt 0.24687716 0.41135526
vt 0.22357127 0.41135526
vt 0.24687716 0.40709555
vt 0.22357127 0.40709555
vt 0.22357127 0.4430796
vt 0.24687716 0.44696188
vt 0.24687716 0.4430796
vt 0.22357127 0.44696188
vt 0.22357127 0.4508443
vt 0.24687716 0.4508443
vt 0.22357127 0.4557011
vt 0.24687716 0.4557011
vt 0.24384439 0.49313903
vt 0.22388089 0.49612975
vt 0.24384439 0.49612975
vt 0.22388089 0.49313903
vt 0.22388089 0.48981333
vt 0.24384439 0.48981333
vt 0.24384439 0.48531818
vt 0.22388089 0.48531818
vt 0.22388089 0.48135924
vt 0.24384439 0.48135924
vt 0.24384439 0.47571433
vt 0.22388089 0.47571433
vt 0.24409604 0.47803438
vt 0.22413242 0.49622726
vt 0.24409604 0.49622726
vt 0.22413242 0.47803438
vt 0.24409604 0.47409725
vt 0.22413242 0.47409725
vt 0.24409604 0.47178304
vt 0.22413242 0.47178304
vt 0.24409604 0.46963716
vt 0.22413242 0.46963716
vt 0.24450922 0.49601066
vt 0.2245456 0.47663593
vt 0.2245456 0.49601066
vt 0.24450922 0.47663593
vt 0.24450922 0.4726988
vt 0.2245456 0.4726988
vt 0.24450922 0.47038448
vt 0.2245456 0.47038448
vt 0.24450922 0.4682387
vt 0.2245456 0.4682387
vt 0.17901829 0.48423648
vt 0.1884433 0.4839927
vt 0.18433836 0.48510444
vt 0.1920526 0.48078704
vt 0.1756433 0.4822415
vt 0.19412255 0.47731745
vt 0.17227903 0.47945976
vt 0.19456398 0.4734242
vt 0.17173937 0.44505847
vt 0.19444871 0.44470215
vt 0.16139814 0.46816146
vt 0.17153612 0.4321029
vt 0.16084233 0.43273196
vt 0.19424546 0.43174663
vt 0.14608213 0.45032036
vt 0.19378877 0.41054446
vt 0.19739091 0.43144408
vt 0.14545658 0.41044667
vt 0.13513824 0.4358813
vt 0.14010862 0.41112798
vt 0.13478312 0.41324314
vt 0.13159892 0.43059096
vt 0.13136718 0.41581574
vt 0.12922075 0.42439374
vt 0.12916705 0.42097268
vt 0.17080382 0.40973356
vt 0.17124346 0.39249364
vt 0.19694209 0.41074818
vt 0.19321692 0.39220095
vt 0.20010507 0.41156477
vt 0.17185685 0.3887547
vt 0.20052671 0.43052867
vt 0.19248652 0.38848305
vt 0.20409286 0.41456383
vt 0.17305312 0.38654372
vt 0.20441854 0.42740598
vt 0.20629454 0.4182794
vt 0.20650256 0.42362323
vt 0.19122148 0.38631073
vt 0.17495754 0.38448125
vt 0.18925321 0.384309
vt 0.17828551 0.3832395
vt 0.18588802 0.3831722
vt 0.24540552 0.4211808
vt 0.22233495 0.43715182
vt 0.24540552 0.43715182
vt 0.22233495 0.4211808
vt 0.22292218 0.45384812
vt 0.24599275 0.4384458
vt 0.22292218 0.4384458
vt 0.24599275 0.45384812
vt 0.24442613 0.48974943
vt 0.22466409 0.49602616
vt 0.24442613 0.49602616
vt 0.22466409 0.48974943
vt 0.24818262 0.45201612
vt 0.22487685 0.45663786
vt 0.24818262 0.45663786
vt 0.22487685 0.45201612
vt 0.22122571 0.4409201
vt 0.24453148 0.43679467
vt 0.22122571 0.43679467
vt 0.24453148 0.4409201
vt 0.22122571 0.45029116
vt 0.24453148 0.45029116
vt 0.22122571 0.45441663
vt 0.24453148 0.45441663
vn -0 0 1
vn -0 0 1
vn -0 0 1
vn -0 0 1
vn -0 0 1
vn -0 0 1
vn -0 0 1
vn -0 0 1
vn -0 0 1
vn -0 0 1
vn -0 0 1
vn -0 0 1
vn -0 0 1
vn -0 0 1
vn -0 0 1
vn -0 0 1
vn -0 0 1
vn -0 0 1
vn -0 0 1
vn -0 0 1
vn -0 0 1
vn -0 0 1
vn -0 0 1
vn -0 0 1
vn -0 0 1
vn -0 0 1
vn -0 0 1
vn -0 0 1
vn -0 0 1
vn -0 0 1
vn -0 0 1
vn -0 0 1
vn -0 0 1
vn -0 0 1
vn -0 0 1
vn -0 0 1
vn -0 0 1
vn -0 0 1
vn -0 0 1
vn -0 0 1
vn -0 0 1
vn -0 0 1
vn -0 0 1
vn -1 0 0
vn -1 0 0
vn -1 0 0
vn -1 0 0
vn -0.691273 0.72259367 0
vn -0.58758146 0.809165 0
vn -0.6912731 0.7225936 0
vn -0.5875816 0.80916494 0
vn -0.35551608 0.9346702 0
vn -0.35551608 0.9346702 0
vn 0.035693537 0.99936277 0
vn 0.035693496 0.99936277 0
vn 0.46148607 0.8871474 0
vn 0.46148598 0.88714755 0
vn 0.76036793 0.64949244 0
vn 0.760368 0.64949244 0
vn 0.760368 0.64949244 0
vn 0.94239074 0.33451414 0
vn 0.76036793 0.64949244 0
vn 0.94239074 0.33451414 0
vn 0.9975413 0.070080414 0
vn 0.9975413 0.07008042 0
vn 0.99998295 0.0058362302 0
vn 0.99998295 0.00583623 0
vn 0.7348873 0.6781892 0
vn 0.73488724 0.6781893 0
vn 0.7595086 -0.65049714 0
vn 0.7595086 -0.65049714 0
vn 0.7595086 -0.65049714 0
vn 0.7595086 -0.65049714 0
vn -0.6912731 0.7225936 0
vn -0.75028694 0.6611123 0
vn -0.691273 0.72259367 0
vn -0.75028694 0.6611123 0
vn -0.7879709 0.6157125 0
vn -0.7879709 0.6157125 0
vn -0.82340664 0.5674518 0
vn -0.82340664 0.5674518 0
vn -0.8950119 0.4460424 0
vn -0.8950119 0.4460424 0
vn -0.9846623 0.17447127 0
vn -0.9846623 0.17447127 0
vn -0.9781416 -0.20794022 0
vn -0.9781416 -0.20794019 0
vn -0.77759695 -0.62876296 0
vn -0.77759695 -0.62876296 0
vn 0.043061737 0.99907243 0
vn 0.043061733 0.99907243 0
vn 0.043061733 0.99907243 0
vn 0.043061733 0.99907243 0
vn -0.6968725 -0.7171951 0
vn -0.06169603 -0.998095 0
vn -0.69687235 -0.7171951 0
vn -0.061696026 -0.998095 0
vn -0.23450074 -0.97211593 0
vn -0.23450074 -0.97211593 0
vn -0.47599515 -0.8794478 0
vn -0.4759951 -0.8794478 0
vn -0.77759695 -0.62876296 0
vn -0.77759695 -0.62876296 0
vn 0.72961605 -0.683857 0
vn 0.17339367 -0.9848526 0
vn 0.729616 -0.6838571 0
vn 0.17339367 -0.9848526 0
vn 0.44790512 -0.89408106 0
vn 0.4479051 -0.8940811 0
vn 0.7552435 -0.65544426 0
vn 0.7552435 -0.65544426 0
vn 0.17339367 0.9848526 0
vn 0.73488724 0.6781893 0
vn 0.7348873 0.6781892 0
vn 0.17339367 0.9848526 0
vn 0.44790632 0.8940806 0
vn 0.4479063 0.8940806 0
vn 0.7552443 0.6554434 0
vn 0.7552443 0.6554434 0
vn 0.9694018 0.24547939 0
vn 0.9694018 0.24547939 0
vn 0.9634425 -0.26791516 0
vn 0.9634425 -0.26791516 0
vn -0.993985 -0.10951712 0
vn -0.6968725 -0.7171951 0
vn -0.69687235 -0.7171951 0
vn -0.993985 -0.109517105 0
vn -0.9410868 -0.33816493 0
vn -0.9410868 -0.33816493 0
vn -0.80420643 -0.5943501 0
vn -0.8042065 -0.59435004 0
vn -0.5442437 -0.83892715 0
vn -0.5442438 -0.83892715 0
vn 0.729616 -0.6838571 0
vn 0.99531025 -0.09673491 0
vn 0.72961605 -0.683857 0
vn 0.99531025 -0.096734926 0
vn 0.9410868 -0.33816493 0
vn 0.9410868 -0.33816493 0
vn 0.80420643 -0.5943501 0
vn 0.8042065 -0.59435004 0
vn 0.5442437 -0.83892715 0
vn 0.54424375 -0.83892715 0
vn -0 0 -1
vn -0 0 -1
vn -0 0 -1
vn -0 0 -1
vn -0 0 -1
vn -0 0 -1
vn -0 0 -1
vn -0 0 -1
vn -0 0 -1
vn -0 0 -1
vn -0 0 -1
vn -0 0 -1
vn -0 0 -1
vn -0 0 -1
vn -0 0 -1
vn -0 0 -1
vn -0 0 -1
vn -0 0 -1
vn -0 0 -1
vn -0 0 -1
vn -0 0 -1
vn -0 0 -1
vn -0 0 -1
vn -0 0 -1
vn -0 0 -1
vn -0 0 -1
vn -0 0 -1
vn -0 0 -1
vn -0 0 -1
vn -0 0 -1
vn -0 0 -1
vn -0 0 -1
vn -0 0 -1
vn -0 0 -1
vn -0 0 -1
vn -0 0 -1
vn -0 0 -1
vn -0 0 -1
vn -0 0 -1
vn -0 0 -1
vn -0 0 -1
vn -0 0 -1
vn -0 0 -1
vn -0.34676456 -0.93795216 0
vn -0.6917146 0.72217095 0
vn -0.69171464 0.7221709 0
vn -0.34676445 -0.9379523 0
vn 0.917224 0.39837196 0
vn -0.34676445 -0.9379523 0
vn -0.34676456 -0.93795216 0
vn 0.917224 0.39837196 0
vn -0.69171464 0.7221709 0
vn 0.917224 0.39837196 0
vn 0.917224 0.39837196 0
vn -0.6917146 0.72217095 0
vn 0.9634425 -0.26791516 0
vn 0.7552435 -0.65544426 0
vn 0.7552435 -0.65544426 0
vn 0.9634425 -0.26791516 0
vn -0.16652803 -0.9860367 0
vn -0.5442438 -0.83892715 0
vn -0.5442437 -0.83892715 0
vn -0.16652806 -0.9860367 0
vn 0.17326654 -0.984875 0
vn 0.17326654 -0.984875 0
vn 0.54424375 -0.83892715 0
vn 0.5442437 -0.83892715 0
g number_4_0
f 3/3/3 2/2/2 1/1/1
f 4/4/4 1/1/1 2/2/2
f 2/2/2 5/5/5 4/4/4
f 6/6/6 4/4/4 5/5/5
f 5/5/5 7/7/7 6/6/6
f 8/8/8 6/6/6 7/7/7
f 7/7/7 9/9/9 8/8/8
f 10/10/10 8/8/8 9/9/9
f 7/7/7 11/11/11 9/9/9
f 9/9/9 12/12/12 10/10/10
f 13/13/13 9/9/9 11/11/11
f 14/14/14 10/10/10 12/12/12
f 11/11/11 15/15/15 13/13/13
f 14/14/14 12/12/12 16/16/16
f 14/14/14 16/16/16 17/17/17
f 18/18/18 13/13/13 15/15/15
f 15/15/15 19/19/19 18/18/18
f 20/20/20 18/18/18 19/19/19
f 21/21/21 20/20/20 19/19/19
f 19/19/19 22/22/22 21/21/21
f 23/23/23 21/21/21 22/22/22
f 22/22/22 24/24/24 23/23/23
f 25/25/25 23/23/23 24/24/24
f 18/18/18 26/26/26 13/13/13
f 12/12/12 13/13/13 26/26/26
f 26/26/26 16/16/16 12/12/12
f 26/26/26 27/27/27 16/16/16
f 28/28/28 17/17/17 16/16/16
f 29/29/29 16/16/16 27/27/27
f 28/28/28 30/30/30 17/17/17
f 27/27/27 31/31/31 29/29/29
f 32/32/32 17/17/17 30/30/30
f 33/33/33 29/29/29 31/31/31
f 30/30/30 34/34/34 32/32/32
f 31/31/31 35/35/35 33/33/33
f 36/36/36 32/32/32 34/34/34
f 34/34/34 37/37/37 36/36/36
f 38/38/38 36/36/36 37/37/37
f 39/39/39 33/33/33 35/35/35
f 35/35/35 40/40/40 39/39/39
f 41/41/41 39/39/39 40/40/40
f 40/40/40 42/42/42 41/41/41
f 43/43/43 41/41/41 42/42/42
f 46/46/46 45/45/45 44/44/44
f 47/47/47 44/44/44 45/45/45
f 50/50/50 49/49/49 48/48/48
f 51/51/51 48/48/48 49/49/49
f 49/49/49 52/52/52 51/51/51
f 53/53/53 51/51/51 52/52/52
f 52/52/52 54/54/54 53/53/53
f 55/55/55 53/53/53 54/54/54
f 54/54/54 56/56/56 55/55/55
f 57/57/57 55/55/55 56/56/56
f 56/56/56 58/58/58 57/57/57
f 59/59/59 57/57/57 58/58/58
f 62/62/62 61/61/61 60/60/60
f 63/63/63 60/60/60 61/61/61
f 61/61/61 64/64/64 63/63/63
f 65/65/65 63/63/63 64/64/64
f 64/64/64 66/66/66 65/65/65
f 67/67/67 65/65/65 66/66/66
f 67/67/67 66/66/66 68/68/68
f 69/69/69 68/68/68 66/66/66
f 72/72/72 71/71/71 70/70/70
f 73/73/73 70/70/70 71/71/71
f 76/76/76 75/75/75 74/74/74
f 77/77/77 74/74/74 75/75/75
f 77/77/77 75/75/75 78/78/78
f 79/79/79 78/78/78 75/75/75
f 78/78/78 79/79/79 80/80/80
f 81/81/81 80/80/80 79/79/79
f 80/80/80 81/81/81 82/82/82
f 83/83/83 82/82/82 81/81/81
f 83/83/83 84/84/84 82/82/82
f 85/85/85 82/82/82 84/84/84
f 84/84/84 86/86/86 85/85/85
f 87/87/87 85/85/85 86/86/86
f 87/87/87 86/86/86 88/88/88
f 89/89/89 88/88/88 86/86/86
f 92/92/92 91/91/91 90/90/90
f 93/93/93 90/90/90 91/91/91
f 96/96/96 95/95/95 94/94/94
f 97/97/97 94/94/94 95/95/95
f 95/95/95 98/98/98 97/97/97
f 99/99/99 97/97/97 98/98/98
f 99/99/99 98/98/98 100/100/100
f 101/101/101 100/100/100 98/98/98
f 100/100/100 101/101/101 102/102/102
f 103/103/103 102/102/102 101/101/101
f 106/106/106 105/105/105 104/104/104
f 107/107/107 104/104/104 105/105/105
f 107/107/107 105/105/105 108/108/108
f 109/109/109 108/108/108 105/105/105
f 108/108/108 109/109/109 110/110/110
f 111/111/111 110/110/110 109/109/109
f 114/114/114 113/113/113 112/112/112
f 115/115/115 112/112/112 113/113/113
f 115/115/115 116/116/116 112/112/112
f 117/117/117 112/112/112 116/116/116
f 117/117/117 116/116/116 118/118/118
f 119/119/119 118/118/118 116/116/116
f 119/119/119 120/120/120 118/118/118
f 121/121/121 118/118/118 120/120/120
f 121/121/121 120/120/120 122/122/122
f 123/123/123 122/122/122 120/120/120
f 126/126/126 125/125/125 124/124/124
f 127/127/127 124/124/124 125/125/125
f 124/124/124 127/127/127 128/128/128
f 129/129/129 128/128/128 127/127/127
f 128/128/128 129/129/129 130/130/130
f 131/131/131 130/130/130 129/129/129
f 130/130/130 131/131/131 132/132/132
f 133/133/133 132/132/132 131/131/131
f 136/136/136 135/135/135 134/134/134
f 137/137/137 134/134/134 135/135/135
f 137/137/137 135/135/135 138/138/138
f 139/139/139 138/138/138 135/135/135
f 138/138/138 139/139/139 140/140/140
f 141/141/141 140/140/140 139/139/139
f 140/140/140 141/141/141 142/142/142
f 143/143/143 142/142/142 141/141/141
f 146/146/146 145/145/145 144/144/144
f 147/147/147 144/144/144 145/145/145
f 144/144/144 147/147/147 148/148/148
f 149/149/149 148/148/148 147/147/147
f 148/148/148 149/149/149 150/150/150
f 151/151/151 150/150/150 149/149/149
f 150/150/150 151/151/151 152/152/152
f 153/153/153 152/152/152 151/151/151
f 150/150/150 152/152/152 154/154/154
f 152/152/152 153/153/153 155/155/155
f 156/156/156 154/154/154 152/152/152
f 157/157/157 155/155/155 153/153/153
f 154/154/154 156/156/156 158/158/158
f 157/157/157 159/159/159 155/155/155
f 157/157/157 160/160/160 159/159/159
f 161/161/161 158/158/158 156/156/156
f 158/158/158 161/161/161 162/162/162
f 163/163/163 162/162/162 161/161/161
f 163/163/163 164/164/164 162/162/162
f 162/162/162 164/164/164 165/165/165
f 166/166/166 165/165/165 164/164/164
f 165/165/165 166/166/166 167/167/167
f 168/168/168 167/167/167 166/166/166
f 161/161/161 156/156/156 169/169/169
f 155/155/155 169/169/169 156/156/156
f 169/169/169 155/155/155 159/159/159
f 169/169/169 159/159/159 170/170/170
f 171/171/171 159/159/159 160/160/160
f 172/172/172 170/170/170 159/159/159
f 171/171/171 160/160/160 173/173/173
f 170/170/170 172/172/172 174/174/174
f 175/175/175 173/173/173 160/160/160
f 176/176/176 174/174/174 172/172/172
f 173/173/173 175/175/175 177/177/177
f 174/174/174 176/176/176 178/178/178
f 179/179/179 177/177/177 175/175/175
f 177/177/177 179/179/179 180/180/180
f 181/181/181 180/180/180 179/179/179
f 182/182/182 178/178/178 176/176/176
f 178/178/178 182/182/182 183/183/183
f 184/184/184 183/183/183 182/182/182
f 183/183/183 184/184/184 185/185/185
f 186/186/186 185/185/185 184/184/184
f 189/189/189 188/188/188 187/187/187
f 190/190/190 187/187/187 188/188/188
f 193/193/193 192/192/192 191/191/191
f 194/194/194 191/191/191 192/192/192
f 197/197/197 196/196/196 195/195/195
f 198/198/198 195/195/195 196/196/196
f 201/201/201 200/200/200 199/199/199
f 202/202/202 199/199/199 200/200/200
f 205/205/205 204/204/204 203/203/203
f 206/206/206 203/203/203 204/204/204
f 203/203/203 206/206/206 207/207/207
f 208/208/208 207/207/207 206/206/206
f 207/207/207 208/208/208 209/209/209
f 210/210/210 209/209/209 208/208/208
