g oven_col
v -0.3309924 -0.45121607 0.3650324
v -0.3309924 0.099468015 0.42738235
v 0.33345208 0.099468015 0.42738235
v 0.33345208 -0.45121607 0.3650324
v -0.38054183 0.47786343 -0.42892644
v -0.38054183 -0.47466433 -0.42892644
v 0.38300148 -0.47466433 -0.42892644
v 0.38300148 0.47786343 -0.42892644
v -0.38054183 -0.47466433 -0.42892644
v -0.38054183 -0.47466433 0.30108264
v 0.38300148 -0.47466433 0.30108264
v 0.38300148 -0.47466433 -0.42892644
v 0.38300148 0.47786343 -0.42892644
v 0.38300148 -0.47466433 -0.42892644
v 0.38300148 -0.47466433 0.30108264
v 0.38300145 0.34019205 0.29674268
v 0.38300148 0.47786343 0.10583204
v -0.38054177 0.34019205 0.29674268
v -0.38054183 -0.47466433 0.30108264
v -0.38054183 -0.47466433 -0.42892644
v -0.38054183 0.47786343 -0.42892644
v -0.38054183 0.47786343 0.10583204
v -0.38054183 0.47786343 0.10583204
v -0.38054183 0.47786343 -0.42892644
v 0.38300148 0.47786343 -0.42892644
v 0.38300148 0.47786343 0.10583204
v -0.23132575 0.4295258 0.27352646
v -0.24940923 0.4778634 0.20268807
v 0.25186887 0.4778634 0.20268807
v 0.23378539 0.4295258 0.27352646
v -0.38054183 -0.47466433 0.30108264
v -0.3309924 -0.45121607 0.3650324
v 0.33345208 -0.45121607 0.3650324
v 0.38300148 -0.47466433 0.30108264
v 0.38300148 -0.47466433 0.30108264
v 0.33345208 -0.45121607 0.3650324
v 0.33345208 0.099468015 0.42738235
v 0.38300145 0.34019205 0.29674268
v 0.38300145 0.34019205 0.29674268
v 0.33345208 0.099468015 0.42738235
v -0.3309924 0.099468015 0.42738235
v -0.38054177 0.34019205 0.29674268
v -0.38054177 0.34019205 0.29674268
v -0.3309924 0.099468015 0.42738235
v -0.3309924 -0.45121607 0.3650324
v -0.38054183 -0.47466433 0.30108264
v -0.38054177 0.34019205 0.29674268
v -0.23132575 0.4295258 0.27352646
v 0.23378539 0.4295258 0.27352646
v 0.38300145 0.34019205 0.29674268
v 0.38300145 0.34019205 0.29674268
v 0.23378539 0.4295258 0.27352646
v 0.25186887 0.4778634 0.20268807
v 0.38300148 0.47786343 0.10583204
v 0.38300148 0.47786343 0.10583204
v 0.25186887 0.4778634 0.20268807
v -0.24940923 0.4778634 0.20268807
v -0.38054183 0.47786343 0.10583204
v -0.38054183 0.47786343 0.10583204
v -0.24940923 0.4778634 0.20268807
v -0.23132575 0.4295258 0.27352646
v -0.38054177 0.34019205 0.29674268
vt 0.375 0
vt 0.375 0.21354817
vt 0.625 0.21354817
vt 0.625 0
vt 0.375 0.5
vt 0.375 0.75
vt 0.625 0.75
vt 0.625 0.5
vt 0.375 0.75
vt 0.375 1
vt 0.625 1
vt 0.625 0.75
vt 0.875 0.25
vt 0.875 0
vt 0.625 0
vt 0.625 0.21354817
vt 0.6918658 0.25
vt 0.375 0.21354817
vt 0.375 0
vt 0.125 0
vt 0.125 0.25
vt 0.3081342 0.25
vt 0.375 0.3168658
vt 0.375 0.5
vt 0.625 0.5
vt 0.625 0.3168658
vt 0.375 0.21354817
vt 0.3081342 0.25
vt 0.625 0.3168658
vt 0.625 0.21354817
vt 0.375 0
vt 0.375 0
vt 0.625 0
vt 0.625 0
vt 0.625 0
vt 0.625 0
vt 0.625 0.21354817
vt 0.625 0.21354817
vt 0.625 0.21354817
vt 0.625 0.21354817
vt 0.375 0.21354817
vt 0.375 0.21354817
vt 0.375 0.21354817
vt 0.375 0.21354817
vt 0.375 0
vt 0.375 0
vt 0.375 0.21354817
vt 0.375 0.21354817
vt 0.625 0.21354817
vt 0.625 0.21354817
vt 0.625 0.21354817
vt 0.625 0.21354817
vt 0.625 0.3168658
vt 0.625 0.3168658
vt 0.625 0.3168658
vt 0.625 0.3168658
vt 0.3081342 0.25
vt 0.3081342 0.25
vt 0.3081342 0.25
vt 0.3081342 0.25
vt 0.375 0.21354817
vt 0.375 0.21354817
vn -0 -0.1125039 0.99365133
vn -0 -0.1125039 0.99365133
vn -0 -0.1125039 0.99365133
vn -0 -0.1125039 0.99365133
vn -0 0 -1
vn -0 0 -1
vn -0 0 -1
vn -0 0 -1
vn -0 -1 0
vn -0 -1 0
vn -0 -1 0
vn -0 -1 0
vn 1 0 0
vn 1 0 0
vn 1 0 0
vn 1 0 0
vn 1 0 0
vn -1 0 0
vn -1 0 0
vn -1 0 0
vn -1 0 0
vn -1 0 0
vn -0 1 0
vn -0 1 0
vn -0 1 0
vn -0 1 0
vn -0 0.8260172 0.56364495
vn -0 0.8260172 0.56364495
vn -0 0.8260172 0.56364495
vn -0 0.8260172 0.56364495
vn -0 -0.93887615 0.3442551
vn -0 -0.93887615 0.3442551
vn -0 -0.93887615 0.34425512
vn -0 -0.93887615 0.34425512
vn 0.8991783 -0.018572265 0.4371881
vn 0.8991783 -0.018572263 0.43718803
vn 0.8991783 -0.018572265 0.43718806
vn 0.8991783 -0.018572265 0.4371881
vn -0 0.4769816 0.87891334
vn -0 0.47698164 0.87891334
vn -0 0.47698164 0.87891334
vn -0 0.4769816 0.87891334
vn -0.8991782 -0.01857229 0.4371883
vn -0.8991782 -0.01857229 0.4371883
vn -0.8991782 -0.018572288 0.4371883
vn -0.8991782 -0.01857229 0.4371883
vn -0 0.25152677 0.9678504
vn -0 0.2515268 0.9678504
vn -0 0.2515268 0.9678504
vn -0 0.25152677 0.9678504
vn 0.3813134 0.74090785 0.55286145
vn 0.38131338 0.74090785 0.5528614
vn 0.38131332 0.74090785 0.55286145
vn 0.38131338 0.74090785 0.55286145
vn -0 1 0
vn -0 1 0
vn -0 1 0
vn -0 1 0
vn -0.38131335 0.7409079 0.5528614
vn -0.3813134 0.74090785 0.5528614
vn -0.38131338 0.74090785 0.5528614
vn -0.38131335 0.7409079 0.55286133
g oven_col_0
f 3/3/3 2/2/2 1/1/1
f 4/4/4 3/3/3 1/1/1
f 7/7/7 6/6/6 5/5/5
f 8/8/8 7/7/7 5/5/5
f 11/11/11 10/10/10 9/9/9
f 12/12/12 11/11/11 9/9/9
f 15/15/15 14/14/14 13/13/13
f 13/13/13 16/16/16 15/15/15
f 13/13/13 17/17/17 16/16/16
f 20/20/20 19/19/19 18/18/18
f 18/18/18 21/21/21 20/20/20
f 18/18/18 22/22/22 21/21/21
f 25/25/25 24/24/24 23/23/23
f 26/26/26 25/25/25 23/23/23
f 29/29/29 28/28/28 27/27/27
f 30/30/30 29/29/29 27/27/27
f 33/33/33 32/32/32 31/31/31
f 34/34/34 33/33/33 31/31/31
f 37/37/37 36/36/36 35/35/35
f 38/38/38 37/37/37 35/35/35
f 41/41/41 40/40/40 39/39/39
f 42/42/42 41/41/41 39/39/39
f 45/45/45 44/44/44 43/43/43
f 46/46/46 45/45/45 43/43/43
f 49/49/49 48/48/48 47/47/47
f 50/50/50 49/49/49 47/47/47
f 53/53/53 52/52/52 51/51/51
f 54/54/54 53/53/53 51/51/51
f 57/57/57 56/56/56 55/55/55
f 58/58/58 57/57/57 55/55/55
f 61/61/61 60/60/60 59/59/59
f 62/62/62 61/61/61 59/59/59
