g popsicle_col
v -0.23247448 0.22419831 -0.07485598
v -0.23136163 -0.17490046 0.07452714
v -0.23136163 -0.17490047 -0.07452695
v -0.23247448 0.22419833 0.07485597
v -0.21320873 -0.17553784 0.108195394
v -0.21400928 0.22259684 0.1097465
v -0.21854281 0.33421165 -0.074856035
v -0.20090869 0.32336202 0.109746486
v -0.21854281 0.33421168 0.07485593
v -0.15180272 0.40500152 -0.074868254
v -0.13959303 0.38987684 0.10975866
v -0.15180272 0.40500155 0.07486812
v -0.07182669 0.448765 -0.07486824
v -0.066049606 0.43098497 0.10975866
v -0.07182669 0.44876504 0.07486811
v -1.3853423E-08 0.46372405 -0.07486825
v -1.3853423E-08 0.44557887 0.10939866
v -1.3853423E-08 0.46372408 0.07486811
v 0.066049464 0.43098497 0.10975866
v 0.07182666 0.44876504 0.07486811
v 0.13959298 0.38987684 0.10975866
v 0.15180272 0.40500155 0.07486812
v 0.20090863 0.32336202 0.109746486
v 0.2185427 0.33421168 0.07485593
v 0.21400926 0.22259684 0.1097465
v 0.23247445 0.22419833 0.07485597
v 0.23136157 -0.17490034 0.07452714
v 0.2132087 -0.17553772 0.108195394
v -0.21400928 0.2225968 -0.10974652
v -0.23136163 -0.17490047 -0.07452695
v -0.21320873 -0.1755379 -0.10819518
v -0.23247448 0.22419831 -0.07485598
v -0.21854281 0.33421165 -0.074856035
v -0.20090869 0.323362 -0.109746546
v -0.15180272 0.40500152 -0.074868254
v -0.13959303 0.3898768 -0.10975876
v -0.07182669 0.448765 -0.07486824
v -0.066049606 0.43098494 -0.10975877
v -1.3853423E-08 0.46372405 -0.07486825
v -1.3795216E-08 0.44557884 -0.10939877
v 0.07182666 0.448765 -0.07486824
v -1.3853423E-08 0.46372408 0.07486811
v 0.066049464 0.43098494 -0.10975877
v 0.07182666 0.44876504 0.07486811
v 0.15180272 0.40500152 -0.074868254
v 0.13959298 0.3898768 -0.10975876
v 0.15180272 0.40500155 0.07486812
v 0.2185427 0.33421165 -0.074856035
v 0.20090863 0.323362 -0.109746546
v 0.2185427 0.33421168 0.07485593
v 0.23247445 0.22419831 -0.07485598
v 0.21400926 0.2225968 -0.10974652
v 0.2132087 -0.17553778 -0.10819518
v 0.23247445 0.22419833 0.07485597
v 0.23136157 -0.17490035 -0.07452695
v 0.23136157 -0.17490034 0.07452714
v -0.21320873 -0.1755379 -0.10819518
v 0.2132087 -0.17553778 -0.10819518
v 0.21400926 0.2225968 -0.10974652
v -0.21400928 0.2225968 -0.10974652
v 0.20090863 0.323362 -0.109746546
v -0.20090869 0.323362 -0.109746546
v 0.13959298 0.3898768 -0.10975876
v -0.13959303 0.3898768 -0.10975876
v 0.066049464 0.43098494 -0.10975877
v -0.066049606 0.43098494 -0.10975877
v -1.3795216E-08 0.44557884 -0.10939877
v -0.21400928 0.22259684 0.1097465
v 0.2132087 -0.17553772 0.108195394
v -0.21320873 -0.17553784 0.108195394
v 0.21400926 0.22259684 0.1097465
v -0.20090869 0.32336202 0.109746486
v 0.20090863 0.32336202 0.109746486
v -0.13959303 0.38987684 0.10975866
v 0.13959298 0.38987684 0.10975866
v -0.066049606 0.43098497 0.10975866
v 0.066049464 0.43098497 0.10975866
v -1.3853423E-08 0.44557887 0.10939866
v -0.23136163 -0.17490047 -0.07452695
v -0.2143951 -0.20246486 -0.06906164
v -0.19757342 -0.19501528 -0.100260854
v -0.21320873 -0.1755379 -0.10819518
v 0.2132087 -0.17553778 -0.10819518
v 0.1975734 -0.19501516 -0.100260854
v 0.21439508 -0.20246474 -0.06906164
v 0.23136157 -0.17490035 -0.07452695
v -0.23136163 -0.17490046 0.07452714
v -0.2143951 -0.20246486 0.06906182
v -0.2143951 -0.20246486 -0.06906164
v -0.23136163 -0.17490047 -0.07452695
v -0.21320873 -0.17553784 0.108195394
v -0.19757342 -0.19501522 0.10026107
v -0.2143951 -0.20246486 0.06906182
v -0.23136163 -0.17490046 0.07452714
v 0.23136157 -0.17490035 -0.07452695
v 0.21439508 -0.20246474 -0.06906164
v 0.21439508 -0.20246474 0.06906182
v 0.23136157 -0.17490034 0.07452714
v 0.23136157 -0.17490034 0.07452714
v 0.21439508 -0.20246474 0.06906182
v 0.1975734 -0.1950151 0.10026107
v 0.2132087 -0.17553772 0.108195394
v -0.21320873 -0.1755379 -0.10819518
v -0.19757342 -0.19501528 -0.100260854
v 0.1975734 -0.19501516 -0.100260854
v 0.2132087 -0.17553778 -0.10819518
v 0.2132087 -0.17553772 0.108195394
v 0.1975734 -0.1950151 0.10026107
v -0.19757342 -0.19501522 0.10026107
v -0.21320873 -0.17553784 0.108195394
v -0.2143951 -0.20246486 -0.06906164
v -0.08900275 -0.21006583 -0.035309155
v -0.082019694 -0.21029815 -0.05126045
v -0.19757342 -0.19501528 -0.100260854
v 0.1975734 -0.19501516 -0.100260854
v 0.08201965 -0.2102981 -0.05126045
v 0.089002706 -0.21006578 -0.035309155
v 0.21439508 -0.20246474 -0.06906164
v -0.2143951 -0.20246486 0.06906182
v -0.08900275 -0.21006583 0.03530936
v -0.08900275 -0.21006583 -0.035309155
v -0.2143951 -0.20246486 -0.06906164
v -0.19757342 -0.19501522 0.10026107
v -0.082019694 -0.21029812 0.05126067
v -0.08900275 -0.21006583 0.03530936
v -0.2143951 -0.20246486 0.06906182
v 0.21439508 -0.20246474 -0.06906164
v 0.089002706 -0.21006578 -0.035309155
v 0.089002706 -0.21006578 0.03530936
v 0.21439508 -0.20246474 0.06906182
v 0.21439508 -0.20246474 0.06906182
v 0.089002706 -0.21006578 0.03530936
v 0.08201965 -0.21029808 0.05126067
v 0.1975734 -0.1950151 0.10026107
v -0.19757342 -0.19501528 -0.100260854
v -0.082019694 -0.21029815 -0.05126045
v 0.08201965 -0.2102981 -0.05126045
v 0.1975734 -0.19501516 -0.100260854
v 0.1975734 -0.1950151 0.10026107
v 0.08201965 -0.21029808 0.05126067
v -0.082019694 -0.21029812 0.05126067
v -0.19757342 -0.19501522 0.10026107
v -0.08900275 -0.21006583 -0.035309155
v -0.08900275 -0.41280594 -0.035309155
v -0.082019694 -0.41303825 -0.05126045
v -0.082019694 -0.21029815 -0.05126045
v 0.08201965 -0.2102981 -0.05126045
v 0.08201965 -0.41303822 -0.05126045
v 0.089002706 -0.41280589 -0.035309155
v 0.089002706 -0.21006578 -0.035309155
v -0.08900275 -0.21006583 0.03530936
v -0.08900275 -0.41280594 0.03530936
v -0.08900275 -0.41280594 -0.035309155
v -0.08900275 -0.21006583 -0.035309155
v -0.082019694 -0.21029812 0.05126067
v -0.082019694 -0.41303822 0.05126067
v -0.08900275 -0.41280594 0.03530936
v -0.08900275 -0.21006583 0.03530936
v 0.089002706 -0.21006578 -0.035309155
v 0.089002706 -0.41280589 -0.035309155
v 0.089002706 -0.41280589 0.03530936
v 0.089002706 -0.21006578 0.03530936
v 0.089002706 -0.21006578 0.03530936
v 0.089002706 -0.41280589 0.03530936
v 0.08201965 -0.41303816 0.05126067
v 0.08201965 -0.21029808 0.05126067
v -0.082019694 -0.21029815 -0.05126045
v -0.082019694 -0.41303825 -0.05126045
v 0.08201965 -0.41303822 -0.05126045
v 0.08201965 -0.2102981 -0.05126045
v 0.08201965 -0.21029808 0.05126067
v 0.08201965 -0.41303816 0.05126067
v -0.082019694 -0.41303822 0.05126067
v -0.082019694 -0.21029812 0.05126067
v -0.08900275 -0.41280594 -0.035309155
v -0.04054571 -0.457832 -0.035309155
v -0.037364557 -0.45806432 -0.043652903
v -0.082019694 -0.41303825 -0.05126045
v 0.08201965 -0.41303822 -0.05126045
v 0.037364513 -0.4580643 -0.043652903
v 0.040545665 -0.45783195 -0.035309155
v 0.089002706 -0.41280589 -0.035309155
v -0.08900275 -0.41280594 0.03530936
v -0.04054571 -0.457832 0.03530936
v -0.04054571 -0.457832 -0.035309155
v -0.08900275 -0.41280594 -0.035309155
v -0.082019694 -0.41303822 0.05126067
v -0.037364557 -0.4580643 0.043653123
v -0.04054571 -0.457832 0.03530936
v -0.08900275 -0.41280594 0.03530936
v 0.089002706 -0.41280589 -0.035309155
v 0.040545665 -0.45783195 -0.035309155
v 0.040545665 -0.45783195 0.03530936
v 0.089002706 -0.41280589 0.03530936
v 0.089002706 -0.41280589 0.03530936
v 0.040545665 -0.45783195 0.03530936
v 0.037364513 -0.45806423 0.043653123
v 0.08201965 -0.41303816 0.05126067
v -0.082019694 -0.41303825 -0.05126045
v -0.037364557 -0.45806432 -0.043652903
v 0.037364513 -0.4580643 -0.043652903
v 0.08201965 -0.41303822 -0.05126045
v 0.08201965 -0.41303816 0.05126067
v 0.037364513 -0.45806423 0.043653123
v -0.037364557 -0.4580643 0.043653123
v -0.082019694 -0.41303822 0.05126067
v -0.037364557 -0.4580643 0.043653123
v 0.037364513 -0.45806423 0.043653123
v 0.040545665 -0.45783195 0.03530936
v -0.04054571 -0.457832 0.03530936
v -0.04054571 -0.457832 0.03530936
v 0.040545665 -0.45783195 0.03530936
v 0.040545665 -0.45783195 -0.035309155
v -0.04054571 -0.457832 -0.035309155
v -0.04054571 -0.457832 -0.035309155
v 0.040545665 -0.45783195 -0.035309155
v 0.037364513 -0.4580643 -0.043652903
v -0.037364557 -0.45806432 -0.043652903
vt 0.91728914 0.7568634
vt 0.42408133 0.47681844
vt 0.9055582 0.48278713
vt 0.43581235 0.75089467
vt 0.39904067 0.48158252
vt 0.40824404 0.7470043
vt 0.87512827 0.85293627
vt 0.37387407 0.82991666
vt 0.3936514 0.8469675
vt 0.8364936 0.88776517
vt 0.34113187 0.85974646
vt 0.35501674 0.8817965
vt 0.78964686 0.9095919
vt 0.3013101 0.8784469
vt 0.30816996 0.9036232
vt 0.7387433 0.91662306
vt 0.25803542 0.88454473
vt 0.25726646 0.91065437
vt 0.21501127 0.8776726
vt 0.20676082 0.9024461
vt 0.17589611 0.85849947
vt 0.16098738 0.8798544
vt 0.14397037 0.82864976
vt 0.12369108 0.8449829
vt 0.1105527 0.7468932
vt 0.082978666 0.7508291
vt 0.0891853 0.48107928
vt 0.11440283 0.48480046
vt 0.88972086 0.75297296
vt 0.9055582 0.48278713
vt 0.8805175 0.48755133
vt 0.91728914 0.7568634
vt 0.87512827 0.85293627
vt 0.85535085 0.8358854
vt 0.8364936 0.88776517
vt 0.8226087 0.8657152
vt 0.78964686 0.9095919
vt 0.78278697 0.8844156
vt 0.7387433 0.91662306
vt 0.73951226 0.8905134
vt 0.68823767 0.9084147
vt 0.25726646 0.91065437
vt 0.69648814 0.88364136
vt 0.20676082 0.9024461
vt 0.6424642 0.8858231
vt 0.6573729 0.8644681
vt 0.16098738 0.8798544
vt 0.605168 0.8509516
vt 0.6254473 0.83461845
vt 0.12369108 0.8449829
vt 0.5644555 0.7567978
vt 0.5920295 0.752862
vt 0.59587973 0.49076915
vt 0.082978666 0.7508291
vt 0.5706622 0.487048
vt 0.0891853 0.48107928
vt 0.8805175 0.48755133
vt 0.59587973 0.49076915
vt 0.5920295 0.752862
vt 0.88972086 0.75297296
vt 0.6254473 0.83461845
vt 0.85535085 0.8358854
vt 0.6573729 0.8644681
vt 0.8226087 0.8657152
vt 0.69648814 0.88364136
vt 0.78278697 0.8844156
vt 0.73951226 0.8905134
vt 0.40824404 0.7470043
vt 0.11440283 0.48480046
vt 0.39904067 0.48158252
vt 0.1105527 0.7468932
vt 0.37387407 0.82991666
vt 0.14397037 0.82864976
vt 0.34113187 0.85974646
vt 0.17589611 0.85849947
vt 0.3013101 0.8784469
vt 0.21501127 0.8776726
vt 0.25803542 0.88454473
vt 0 0
vt 0 1
vt 1 1
vt 1 0
vt 0 0
vt 0 1
vt 1 1
vt 1 0
vt 0 0
vt 0 1
vt 1 1
vt 1 0
vt 0 0
vt 0 1
vt 1 1
vt 1 0
vt 0 0
vt 0 1
vt 1 1
vt 1 0
vt 0 0
vt 0 1
vt 1 1
vt 1 0
vt 0 0
vt 0 1
vt 1 1
vt 1 0
vt 0 0
vt 0 1
vt 1 1
vt 1 0
vt 0 0
vt 0 1
vt 1 1
vt 1 0
vt 0 0
vt 0 1
vt 1 1
vt 1 0
vt 0 0
vt 0 1
vt 1 1
vt 1 0
vt 0 0
vt 0 1
vt 1 1
vt 1 0
vt 0 0
vt 0 1
vt 1 1
vt 1 0
vt 0 0
vt 0 1
vt 1 1
vt 1 0
vt 0 0
vt 0 1
vt 1 1
vt 1 0
vt 0 0
vt 0 1
vt 1 1
vt 1 0
vt 0 0
vt 0 1
vt 1 1
vt 1 0
vt 0 0
vt 0 1
vt 1 1
vt 1 0
vt 0 0
vt 0 1
vt 1 1
vt 1 0
vt 0 0
vt 0 1
vt 1 1
vt 1 0
vt 0 0
vt 0 1
vt 1 1
vt 1 0
vt 0 0
vt 0 1
vt 1 1
vt 1 0
vt 0 0
vt 0 1
vt 1 1
vt 1 0
vt 0 0
vt 0 1
vt 1 1
vt 1 0
vt 0 0
vt 0 1
vt 0.5 1
vt 1 0
vt 0 0
vt 0.5 1
vt 1 1
vt 1 0
vt 0 0
vt 0 1
vt 1 1
vt 1 0
vt 0 0
vt 0.5 1
vt 1 1
vt 1 0
vt 0 0
vt 0 1
vt 1 1
vt 1 0
vt 0 0
vt 0 1
vt 0.5 1
vt 1 0
vt 0 0
vt 0.5 1
vt 0.5 1
vt 1 0
vt 0 0
vt 0.5 1
vt 0.5 1
vt 1 0
vt 0.5 1
vt 0.5 1
vt 0 1
vt 1 1
vt 0 1
vt 1 1
vt 0 1
vt 1 1
vt 0 1
vt 1 1
vt 0.5 1
vt 0.5 1
vn -0.9949675 0.025001869 -0.09702812
vn -0.9949915 -0.0029374466 0.09991707
vn -0.9949915 -0.002937504 -0.09991708
vn -0.9949675 0.025001911 0.097028136
vn -0.8821068 -0.0032278767 0.47103837
vn -0.88143426 0.021209247 0.4718303
vn -0.9081509 0.4073754 -0.09647399
vn -0.79471993 0.34416953 0.4999676
vn -0.9081509 0.4073754 0.096473746
vn -0.6133054 0.7837377 -0.09803989
vn -0.5402662 0.68539983 0.48820025
vn -0.6133054 0.7837378 0.0980393
vn -0.35968727 0.9283268 -0.09399171
vn -0.32370517 0.81935936 0.47314373
vn -0.3596873 0.9283268 0.09399118
vn -0 0.9957443 -0.092159025
vn -0 0.8816616 0.4718822
vn -0 0.9957444 0.092158586
vn 0.32370502 0.8193595 0.47314382
vn 0.35968736 0.9283268 0.09399133
vn 0.54026616 0.6854 0.48820004
vn 0.61330557 0.78373766 0.09803937
vn 0.79472023 0.34416962 0.4999671
vn 0.908151 0.4073753 0.09647365
vn 0.8814343 0.021209333 0.47183013
vn 0.9949675 0.025002018 0.097028114
vn 0.9949915 -0.0029374475 0.099917084
vn 0.8821068 -0.0032278772 0.47103843
vn -0.88143426 0.021208983 -0.47183037
vn -0.9949915 -0.002937504 -0.09991708
vn -0.8821068 -0.0032281468 -0.4710385
vn -0.9949675 0.025001869 -0.09702812
vn -0.9081509 0.4073754 -0.09647399
vn -0.79471964 0.3441691 -0.4999683
vn -0.6133054 0.7837377 -0.09803989
vn -0.540266 0.68539965 -0.48820066
vn -0.35968727 0.9283268 -0.09399171
vn -0.32370532 0.8193598 -0.4731431
vn -0 0.9957443 -0.092159025
vn -0 0.8816618 -0.4718819
vn 0.35968736 0.9283267 -0.0939918
vn -0 0.9957444 0.092158586
vn 0.323705 0.81935936 -0.47314402
vn 0.35968736 0.9283268 0.09399133
vn 0.61330557 0.7837375 -0.09803983
vn 0.540266 0.6853996 -0.48820084
vn 0.61330557 0.78373766 0.09803937
vn 0.908151 0.4073753 -0.0964739
vn 0.79472 0.3441692 -0.49996778
vn 0.908151 0.4073753 0.09647365
vn 0.9949675 0.02500197 -0.09702811
vn 0.88143426 0.021209054 -0.4718302
vn 0.8821068 -0.0032281484 -0.4710385
vn 0.9949675 0.025002018 0.097028114
vn 0.9949915 -0.0029375053 -0.0999171
vn 0.9949915 -0.0029374475 0.099917084
vn -0 -0.0038965046 -0.9999925
vn -0 -0.0038965049 -0.9999925
vn -0 -0.0038965044 -0.9999925
vn -0 -0.0038965044 -0.9999925
vn -0 0 -1
vn -0 0 -1
vn -0 -0.00018359079 -1
vn -0 -0.00018359079 -1
vn -0 0 -1
vn -0 0 -1
vn -0 0.0246605 -0.9996959
vn -0 0 1
vn -0 -0.003895906 0.9999925
vn -0 -0.0038959056 0.9999925
vn -0 0 1
vn -0 -0.0001830307 1
vn -0 -0.0001830307 1
vn -0 0 1
vn -0 0 1
vn -0 0 1
vn -0 0 1
vn -0 0.024659991 0.9996959
vn -0.6804792 -0.59387183 -0.42926013
vn -0.6804792 -0.5938718 -0.4292601
vn -0.6804792 -0.5938718 -0.4292601
vn -0.6804792 -0.59387183 -0.4292601
vn 0.6804794 -0.59387153 -0.42926025
vn 0.68047935 -0.59387153 -0.42926025
vn 0.6804794 -0.5938715 -0.42926025
vn 0.6804794 -0.59387153 -0.42926028
vn -0.85160583 -0.5241827 0
vn -0.85160583 -0.5241826 0
vn -0.85160583 -0.5241826 0
vn -0.85160583 -0.5241827 0
vn -0.6804793 -0.5938717 0.42926022
vn -0.6804792 -0.5938717 0.42926013
vn -0.6804792 -0.5938717 0.4292601
vn -0.6804792 -0.5938717 0.42926013
vn 0.8516063 -0.524182 0
vn 0.8516063 -0.524182 0
vn 0.8516063 -0.524182 0
vn 0.8516063 -0.524182 0
vn 0.68047935 -0.5938714 0.4292604
vn 0.6804794 -0.59387136 0.4292604
vn 0.68047935 -0.5938714 0.4292604
vn 0.68047935 -0.5938714 0.4292604
vn -0 -0.37725994 -0.92610747
vn -0 -0.3772599 -0.92610747
vn -0 -0.37725994 -0.92610747
vn -0 -0.37725994 -0.92610747
vn -0 -0.37726006 0.92610735
vn -0 -0.37726006 0.92610735
vn -0 -0.37726003 0.92610735
vn -0 -0.37726006 0.92610735
vn -0.035596017 -0.9850166 -0.16874631
vn -0.035596017 -0.9850166 -0.16874632
vn -0.035596013 -0.9850166 -0.1687463
vn -0.035596013 -0.9850166 -0.16874631
vn 0.035596535 -0.98501635 -0.1687474
vn 0.035596535 -0.98501635 -0.1687474
vn 0.03559653 -0.98501635 -0.16874737
vn 0.03559654 -0.98501635 -0.1687474
vn -0.060506362 -0.99816775 0
vn -0.06050637 -0.99816775 0
vn -0.060506362 -0.99816775 0
vn -0.060506362 -0.99816775 0
vn -0.035595585 -0.98501635 0.16874783
vn -0.03559558 -0.98501635 0.16874784
vn -0.035595585 -0.98501635 0.16874783
vn -0.03559558 -0.98501635 0.16874783
vn 0.06050696 -0.99816775 0
vn 0.060506962 -0.99816775 0
vn 0.060506966 -0.99816775 0
vn 0.06050696 -0.99816775 0
vn 0.035596117 -0.98501635 0.16874778
vn 0.035596117 -0.98501635 0.16874778
vn 0.035596117 -0.98501635 0.16874778
vn 0.035596117 -0.98501635 0.16874778
vn -0 -0.9546447 -0.2977473
vn -0 -0.9546447 -0.29774737
vn -0 -0.9546447 -0.29774737
vn -0 -0.9546447 -0.29774734
vn -0 -0.9546445 0.29774806
vn -0 -0.9546445 0.2977481
vn -0 -0.9546445 0.2977481
vn -0 -0.9546445 0.29774812
vn -0.9160652 0 -0.40102923
vn -0.9160652 0 -0.40102923
vn -0.9160652 0 -0.40102926
vn -0.9160652 0 -0.4010292
vn 0.9160652 0 -0.40102932
vn 0.9160652 0 -0.4010293
vn 0.9160652 0 -0.40102932
vn 0.9160652 0 -0.40102938
vn -1 0 0
vn -1 0 0
vn -1 0 0
vn -1 0 0
vn -0.9160654 0 0.40102887
vn -0.9160654 0 0.4010288
vn -0.9160654 0 0.40102878
vn -0.9160654 0 0.4010288
vn 1 0 0
vn 1 0 0
vn 1 0 0
vn 1 0 0
vn 0.9160654 0 0.40102893
vn 0.9160654 0 0.4010289
vn 0.9160654 0 0.4010289
vn 0.9160654 0 0.4010289
vn -0 0 -1
vn -0 0 -1
vn -0 0 -1
vn -0 0 -1
vn -0 0 1
vn -0 0 1
vn -0 0 1
vn -0 0 1
vn -0.6596484 -0.7042404 -0.26250598
vn -0.6596484 -0.7042404 -0.26250595
vn -0.6596484 -0.7042404 -0.26250598
vn -0.6596485 -0.70424044 -0.26250598
vn 0.6596488 -0.70424086 -0.2625039
vn 0.65964884 -0.70424086 -0.26250386
vn 0.6596488 -0.7042408 -0.2625039
vn 0.6596488 -0.7042408 -0.2625039
vn -0.6806965 -0.73256546 0
vn -0.6806965 -0.73256546 0
vn -0.6806965 -0.73256546 0
vn -0.6806965 -0.73256546 0
vn -0.65964806 -0.7042401 0.26250774
vn -0.65964806 -0.70424 0.26250777
vn -0.659648 -0.7042401 0.2625078
vn -0.65964806 -0.70424 0.26250777
vn 0.68069655 -0.73256546 0
vn 0.68069655 -0.73256546 0
vn 0.68069655 -0.73256546 0
vn 0.68069655 -0.73256546 0
vn 0.6596485 -0.70424044 0.26250568
vn 0.6596485 -0.70424044 0.26250565
vn 0.6596485 -0.70424044 0.26250565
vn 0.6596485 -0.7042405 0.26250565
vn -0 -0.16659737 -0.98602504
vn -0 -0.16659738 -0.98602504
vn -0 -0.16659737 -0.98602504
vn -0 -0.16659735 -0.98602504
vn -0 -0.16659759 0.98602504
vn -0 -0.16659757 0.98602504
vn -0 -0.1665976 0.98602504
vn -0 -0.16659759 0.98602504
vn -0 -0.99961275 -0.027828706
vn -0 -0.99961275 -0.027828706
vn -0 -0.99961275 -0.027828705
vn -0 -0.99961275 -0.027828705
vn -0 -1 0
vn -0 -1 0
vn -0 -1 0
vn -0 -1 0
vn -0 -0.9996124 0.027840199
vn -0 -0.9996124 0.027840199
vn -0 -0.9996124 0.027840199
vn -0 -0.9996124 0.027840199
g popsicle_col_0
f 3/3/3 2/2/2 1/1/1
f 2/2/2 4/4/4 1/1/1
f 4/4/4 2/2/2 5/5/5
f 6/6/6 4/4/4 5/5/5
f 1/1/1 4/4/4 7/7/7
f 6/6/6 8/8/8 4/4/4
f 4/4/4 9/9/9 7/7/7
f 8/8/8 9/9/9 4/4/4
f 7/7/7 9/9/9 10/10/10
f 9/9/9 8/8/8 11/11/11
f 9/9/9 12/12/12 10/10/10
f 12/12/12 9/9/9 11/11/11
f 10/10/10 12/12/12 13/13/13
f 12/12/12 11/11/11 14/14/14
f 12/12/12 15/15/15 13/13/13
f 15/15/15 12/12/12 14/14/14
f 13/13/13 15/15/15 16/16/16
f 15/15/15 14/14/14 17/17/17
f 15/15/15 18/18/18 16/16/16
f 18/18/18 15/15/15 17/17/17
f 18/18/18 17/17/17 19/19/19
f 20/20/20 18/18/18 19/19/19
f 20/20/20 19/19/19 21/21/21
f 22/22/22 20/20/20 21/21/21
f 22/22/22 21/21/21 23/23/23
f 24/24/24 22/22/22 23/23/23
f 24/24/24 23/23/23 25/25/25
f 26/26/26 24/24/24 25/25/25
f 26/26/26 25/25/25 27/27/27
f 25/25/25 28/28/28 27/27/27
f 31/31/31 30/30/30 29/29/29
f 30/30/30 32/32/32 29/29/29
f 32/32/32 33/33/33 29/29/29
f 33/33/33 34/34/34 29/29/29
f 34/34/34 33/33/33 35/35/35
f 36/36/36 34/34/34 35/35/35
f 36/36/36 35/35/35 37/37/37
f 38/38/38 36/36/36 37/37/37
f 38/38/38 37/37/37 39/39/39
f 40/40/40 38/38/38 39/39/39
f 40/40/40 39/39/39 41/41/41
f 39/39/39 42/42/42 41/41/41
f 43/43/43 40/40/40 41/41/41
f 42/42/42 44/44/44 41/41/41
f 43/43/43 41/41/41 45/45/45
f 41/41/41 44/44/44 45/45/45
f 46/46/46 43/43/43 45/45/45
f 44/44/44 47/47/47 45/45/45
f 46/46/46 45/45/45 48/48/48
f 45/45/45 47/47/47 48/48/48
f 49/49/49 46/46/46 48/48/48
f 47/47/47 50/50/50 48/48/48
f 49/49/49 48/48/48 51/51/51
f 48/48/48 50/50/50 51/51/51
f 52/52/52 49/49/49 51/51/51
f 53/53/53 52/52/52 51/51/51
f 50/50/50 54/54/54 51/51/51
f 55/55/55 53/53/53 51/51/51
f 51/51/51 54/54/54 55/55/55
f 54/54/54 56/56/56 55/55/55
f 59/59/59 58/58/58 57/57/57
f 60/60/60 59/59/59 57/57/57
f 61/61/61 59/59/59 60/60/60
f 62/62/62 61/61/61 60/60/60
f 63/63/63 61/61/61 62/62/62
f 64/64/64 63/63/63 62/62/62
f 65/65/65 63/63/63 64/64/64
f 66/66/66 65/65/65 64/64/64
f 65/65/65 66/66/66 67/67/67
f 70/70/70 69/69/69 68/68/68
f 69/69/69 71/71/71 68/68/68
f 68/68/68 71/71/71 72/72/72
f 71/71/71 73/73/73 72/72/72
f 72/72/72 73/73/73 74/74/74
f 73/73/73 75/75/75 74/74/74
f 74/74/74 75/75/75 76/76/76
f 75/75/75 77/77/77 76/76/76
f 77/77/77 78/78/78 76/76/76
f 81/81/81 80/80/80 79/79/79
f 82/82/82 81/81/81 79/79/79
f 85/85/85 84/84/84 83/83/83
f 86/86/86 85/85/85 83/83/83
f 89/89/89 88/88/88 87/87/87
f 90/90/90 89/89/89 87/87/87
f 93/93/93 92/92/92 91/91/91
f 94/94/94 93/93/93 91/91/91
f 97/97/97 96/96/96 95/95/95
f 98/98/98 97/97/97 95/95/95
f 101/101/101 100/100/100 99/99/99
f 102/102/102 101/101/101 99/99/99
f 105/105/105 104/104/104 103/103/103
f 106/106/106 105/105/105 103/103/103
f 109/109/109 108/108/108 107/107/107
f 110/110/110 109/109/109 107/107/107
f 113/113/113 112/112/112 111/111/111
f 114/114/114 113/113/113 111/111/111
f 117/117/117 116/116/116 115/115/115
f 118/118/118 117/117/117 115/115/115
f 121/121/121 120/120/120 119/119/119
f 122/122/122 121/121/121 119/119/119
f 125/125/125 124/124/124 123/123/123
f 126/126/126 125/125/125 123/123/123
f 129/129/129 128/128/128 127/127/127
f 130/130/130 129/129/129 127/127/127
f 133/133/133 132/132/132 131/131/131
f 134/134/134 133/133/133 131/131/131
f 137/137/137 136/136/136 135/135/135
f 138/138/138 137/137/137 135/135/135
f 141/141/141 140/140/140 139/139/139
f 142/142/142 141/141/141 139/139/139
f 145/145/145 144/144/144 143/143/143
f 146/146/146 145/145/145 143/143/143
f 149/149/149 148/148/148 147/147/147
f 150/150/150 149/149/149 147/147/147
f 153/153/153 152/152/152 151/151/151
f 154/154/154 153/153/153 151/151/151
f 157/157/157 156/156/156 155/155/155
f 158/158/158 157/157/157 155/155/155
f 161/161/161 160/160/160 159/159/159
f 162/162/162 161/161/161 159/159/159
f 165/165/165 164/164/164 163/163/163
f 166/166/166 165/165/165 163/163/163
f 169/169/169 168/168/168 167/167/167
f 170/170/170 169/169/169 167/167/167
f 173/173/173 172/172/172 171/171/171
f 174/174/174 173/173/173 171/171/171
f 177/177/177 176/176/176 175/175/175
f 178/178/178 177/177/177 175/175/175
f 181/181/181 180/180/180 179/179/179
f 182/182/182 181/181/181 179/179/179
f 185/185/185 184/184/184 183/183/183
f 186/186/186 185/185/185 183/183/183
f 189/189/189 188/188/188 187/187/187
f 190/190/190 189/189/189 187/187/187
f 193/193/193 192/192/192 191/191/191
f 194/194/194 193/193/193 191/191/191
f 197/197/197 196/196/196 195/195/195
f 198/198/198 197/197/197 195/195/195
f 201/201/201 200/200/200 199/199/199
f 202/202/202 201/201/201 199/199/199
f 205/205/205 204/204/204 203/203/203
f 206/206/206 205/205/205 203/203/203
f 209/209/209 208/208/208 207/207/207
f 210/210/210 209/209/209 207/207/207
f 213/213/213 212/212/212 211/211/211
f 214/214/214 213/213/213 211/211/211
f 217/217/217 216/216/216 215/215/215
f 218/218/218 217/217/217 215/215/215
