g PuzzleCube
v -0.48535132 -0.48535132 0.45001143
v -0.47886628 -0.47886625 0.47886628
v -0.45001143 -0.48535132 0.48535132
v -0.45001143 -0.5 0.45001143
v -0.48535132 -0.48535132 -0.45001143
v 0.45001143 -0.5 0.45001143
v 0.45001143 -0.48535132 0.48535132
v -0.45001143 -0.5 -0.45001143
v 0.48535132 -0.48535132 0.45001143
v 0.47886625 -0.47886625 0.47886628
v 0.45001143 -0.5 -0.45001143
v 0.48535132 -0.48535132 -0.45001143
v 0.45001143 -0.48535132 -0.48535132
v 0.47886625 -0.47886625 -0.47886625
v 0.48535132 -0.45001143 -0.48535132
v -0.45001143 -0.48535132 -0.48535132
v -0.47886628 -0.47886625 -0.47886625
v -0.48535132 -0.45001143 -0.48535132
v 0.45001143 -0.45001143 -0.5
v -0.45001143 -0.45001143 -0.5
v -0.48535132 0.45001143 -0.48535132
v 0.45001143 0.45001143 -0.5
v 0.48535132 0.45001143 -0.48535132
v -0.45001143 0.45001143 -0.5
v 0.45001143 0.48535132 -0.48535132
v 0.47886625 0.47886628 -0.47886625
v 0.48535132 0.48535132 -0.45001143
v -0.45001143 0.48535132 -0.48535132
v -0.47886628 0.47886628 -0.47886625
v -0.48535132 0.48535132 -0.45001143
v 0.45001143 0.5 -0.45001143
v -0.45001143 0.5 -0.45001143
v -0.48535132 0.48535132 0.45001143
v 0.45001143 0.5 0.45001143
v 0.48535132 0.48535132 0.45001143
v -0.45001143 0.5 0.45001143
v 0.45001143 0.48535132 0.48535132
v 0.47886625 0.47886628 0.47886628
v -0.45001143 0.48535132 0.48535132
v -0.47886628 0.47886628 0.47886628
v 0.48535132 0.45001143 0.48535132
v 0.48535132 0.48535132 0.45001143
v 0.45001143 0.45001143 0.5
v -0.48535132 0.45001143 0.48535132
v -0.48535132 0.48535132 0.45001143
v -0.45001143 0.45001143 0.5
v -0.5 0.45001143 0.45001143
v -0.48535132 0.48535132 -0.45001143
v -0.45001143 -0.45001143 0.5
v -0.48535132 -0.45001143 0.48535132
v 0.45001143 -0.45001143 0.5
v -0.5 -0.45001143 0.45001143
v 0.5 0.45001143 0.45001143
v 0.48535132 -0.45001143 0.48535132
v 0.45001143 -0.48535132 0.48535132
v -0.45001143 -0.48535132 0.48535132
v -0.47886628 -0.47886625 0.47886628
v 0.47886625 -0.47886625 0.47886628
v -0.48535132 -0.48535132 0.45001143
v 0.48535132 -0.48535132 0.45001143
v -0.5 -0.45001143 -0.45001143
v -0.48535132 -0.48535132 -0.45001143
v 0.5 -0.45001143 0.45001143
v 0.48535132 -0.48535132 -0.45001143
v -0.48535132 -0.45001143 -0.48535132
v -0.47886628 -0.47886625 -0.47886625
v -0.5 0.45001143 -0.45001143
v -0.48535132 0.45001143 -0.48535132
v -0.47886628 0.47886628 -0.47886625
v 0.5 0.45001143 -0.45001143
v 0.48535132 0.48535132 -0.45001143
v 0.5 -0.45001143 -0.45001143
v 0.48535132 0.45001143 -0.48535132
v 0.47886625 0.47886628 -0.47886625
v 0.48535132 -0.45001143 -0.48535132
v 0.47886625 -0.47886625 -0.47886625
vt 0.37536657 0.9921799
vt 0.37536657 1
vt 0.3831867 1
vt 0.38709676 0.9872923
vt 0.37536657 0.75757575
vt 0.61290324 0.9872923
vt 0.6168133 1
vt 0.38709676 0.76246333
vt 0.62463343 0.9921799
vt 0.62463343 1
vt 0.61290324 0.76246333
vt 0.62463343 0.75757575
vt 0.61290324 0.7497556
vt 0.62463343 0.7497556
vt 0.62463343 0.7419355
vt 0.38709676 0.7497556
vt 0.37536657 0.7497556
vt 0.37536657 0.7419355
vt 0.61290324 0.7370479
vt 0.38709676 0.7370479
vt 0.37536657 0.5083089
vt 0.61290324 0.51221895
vt 0.62463343 0.5083089
vt 0.38709676 0.51221895
vt 0.61290324 0.50048876
vt 0.62463343 0.50048876
vt 0.62463343 0.4916911
vt 0.38709676 0.50048876
vt 0.37536657 0.50048876
vt 0.37536657 0.4916911
vt 0.61290324 0.48778105
vt 0.38709676 0.48778105
vt 0.37536657 0.2580645
vt 0.61290324 0.2629521
vt 0.62463343 0.2580645
vt 0.38709676 0.2629521
vt 0.61290324 0.25024438
vt 0.62463343 0.25024438
vt 0.38709676 0.25024438
vt 0.37536657 0.25024438
vt 0.62463343 0.23753665
vt 0.63245356 0.25024438
vt 0.61290324 0.23753665
vt 0.37536657 0.23753665
vt 0.36754644 0.25024438
vt 0.38709676 0.23753665
vt 0.36265886 0.23753665
vt 0.13294233 0.25024438
vt 0.38709676 0.012707722
vt 0.37536657 0.012707722
vt 0.61290324 0.012707722
vt 0.36265886 0.012707722
vt 0.63734114 0.23753665
vt 0.62463343 0.012707722
vt 0.6168133 0
vt 0.3831867 0
vt 0.37536657 0
vt 0.62463343 0
vt 0.36754644 0
vt 0.63245356 0
vt 0.13782991 0.012707722
vt 0.13294233 0
vt 0.63734114 0.012707722
vt 0.8670577 0
vt 0.12512219 0.007820137
vt 0.12512219 0
vt 0.13782991 0.23753665
vt 0.12512219 0.24242425
vt 0.12512219 0.25024438
vt 0.8621701 0.23753665
vt 0.8670577 0.25024438
vt 0.8621701 0.012707722
vt 0.8748778 0.24242425
vt 0.8748778 0.25024438
vt 0.8748778 0.007820137
vt 0.8748778 0
vn -0.7071069 -0.7071068 -0
vn -0.576333 -0.5763329 0.57937956
vn -0.011761963 -0.7096344 0.7044719
vn -0.011761963 -0.99976116 0.018419273
vn -0.7071069 -0.7071068 -0
vn 0.011761904 -0.99976116 0.018419273
vn 0.011761904 -0.7096344 0.7044719
vn -0.011761963 -0.99976116 -0.018419273
vn 0.7071068 -0.7071068 -0
vn 0.5763329 -0.5763329 0.5793796
vn 0.011761904 -0.99976116 -0.018419273
vn 0.7071068 -0.7071068 -0
vn 0.011761904 -0.7096344 -0.7044719
vn 0.5763329 -0.5763329 -0.5793796
vn 0.7096344 -0.011761904 -0.7044719
vn -0.011761963 -0.7096344 -0.7044719
vn -0.576333 -0.5763329 -0.57937956
vn -0.7096345 -0.011761904 -0.7044718
vn 0.011761904 -0.011761904 -0.99986166
vn -0.011761963 -0.011761904 -0.99986166
vn -0.7096345 0.011761963 -0.7044718
vn 0.011761904 0.011761963 -0.99986166
vn 0.7096344 0.011761963 -0.7044719
vn -0.011761963 0.011761963 -0.99986166
vn 0.011761904 0.7096345 -0.7044718
vn 0.5763329 0.576333 -0.57937956
vn 0.7071068 0.7071069 -0
vn -0.011761963 0.7096345 -0.7044718
vn -0.576333 0.576333 -0.5793795
vn -0.70710677 0.70710677 -0
vn 0.011761904 0.99976116 -0.018419273
vn -0.011761963 0.99976116 -0.018419273
vn -0.70710677 0.70710677 -0
vn 0.011761904 0.99976116 0.018419273
vn 0.7071068 0.7071069 -0
vn -0.011761963 0.99976116 0.018419273
vn 0.011761904 0.7096345 0.7044718
vn 0.5763329 0.576333 0.57937956
vn -0.011761963 0.7096345 0.7044718
vn -0.576333 0.576333 0.5793795
vn 0.7096344 0.011761963 0.7044719
vn 0.7071068 0.7071069 -0
vn 0.011761904 0.011761963 0.99986166
vn -0.7096345 0.011761963 0.7044718
vn -0.70710677 0.70710677 -0
vn -0.011761963 0.011761963 0.99986166
vn -0.99976116 0.011761963 0.018419236
vn -0.70710677 0.70710677 -0
vn -0.011761963 -0.011761904 0.99986166
vn -0.7096345 -0.011761904 0.7044718
vn 0.011761904 -0.011761904 0.99986166
vn -0.99976116 -0.011761904 0.018419273
vn 0.99976116 0.011761963 0.018419236
vn 0.7096344 -0.011761904 0.7044719
vn 0.011761904 -0.7096344 0.7044719
vn -0.011761963 -0.7096344 0.7044719
vn -0.576333 -0.5763329 0.57937956
vn 0.5763329 -0.5763329 0.5793796
vn -0.7071069 -0.7071068 -0
vn 0.7071068 -0.7071068 -0
vn -0.99976116 -0.011761904 -0.018419273
vn -0.7071069 -0.7071068 -0
vn 0.99976116 -0.011761904 0.018419273
vn 0.7071068 -0.7071068 -0
vn -0.7096345 -0.011761904 -0.7044718
vn -0.576333 -0.5763329 -0.57937956
vn -0.99976116 0.011761963 -0.018419236
vn -0.7096345 0.011761963 -0.7044718
vn -0.576333 0.576333 -0.5793795
vn 0.99976116 0.011761963 -0.018419236
vn 0.7071068 0.7071069 -0
vn 0.99976116 -0.011761904 -0.018419273
vn 0.7096344 0.011761963 -0.7044719
vn 0.5763329 0.576333 -0.57937956
vn 0.7096344 -0.011761904 -0.7044719
vn 0.5763329 -0.5763329 -0.5793796
g PuzzleCube_0
f 3/3/3 2/2/2 1/1/1
f 4/4/4 3/3/3 1/1/1
f 1/1/1 5/5/5 4/4/4
f 4/4/4 6/6/6 3/3/3
f 6/6/6 7/7/7 3/3/3
f 5/5/5 8/8/8 4/4/4
f 6/6/6 4/4/4 8/8/8
f 6/6/6 9/9/9 7/7/7
f 9/9/9 10/10/10 7/7/7
f 6/6/6 11/11/11 9/9/9
f 11/11/11 6/6/6 8/8/8
f 11/11/11 12/12/12 9/9/9
f 11/11/11 13/13/13 12/12/12
f 13/13/13 11/11/11 8/8/8
f 13/13/13 14/14/14 12/12/12
f 15/15/15 14/14/14 13/13/13
f 8/8/8 5/5/5 16/16/16
f 16/16/16 13/13/13 8/8/8
f 5/5/5 17/17/17 16/16/16
f 16/16/16 17/17/17 18/18/18
f 19/19/19 15/15/15 13/13/13
f 19/19/19 13/13/13 16/16/16
f 20/20/20 16/16/16 18/18/18
f 20/20/20 19/19/19 16/16/16
f 20/20/20 18/18/18 21/21/21
f 15/15/15 19/19/19 22/22/22
f 23/23/23 15/15/15 22/22/22
f 19/19/19 20/20/20 24/24/24
f 24/24/24 20/20/20 21/21/21
f 22/22/22 19/19/19 24/24/24
f 22/22/22 25/25/25 23/23/23
f 25/25/25 22/22/22 24/24/24
f 25/25/25 26/26/26 23/23/23
f 27/27/27 26/26/26 25/25/25
f 24/24/24 21/21/21 28/28/28
f 28/28/28 25/25/25 24/24/24
f 21/21/21 29/29/29 28/28/28
f 28/28/28 29/29/29 30/30/30
f 31/31/31 27/27/27 25/25/25
f 31/31/31 25/25/25 28/28/28
f 32/32/32 28/28/28 30/30/30
f 32/32/32 31/31/31 28/28/28
f 32/32/32 30/30/30 33/33/33
f 27/27/27 31/31/31 34/34/34
f 35/35/35 27/27/27 34/34/34
f 31/31/31 32/32/32 36/36/36
f 36/36/36 32/32/32 33/33/33
f 34/34/34 31/31/31 36/36/36
f 34/34/34 37/37/37 35/35/35
f 37/37/37 34/34/34 36/36/36
f 37/37/37 38/38/38 35/35/35
f 36/36/36 33/33/33 39/39/39
f 39/39/39 37/37/37 36/36/36
f 33/33/33 40/40/40 39/39/39
f 41/41/41 38/38/38 37/37/37
f 42/42/42 38/38/38 41/41/41
f 43/43/43 37/37/37 39/39/39
f 43/43/43 41/41/41 37/37/37
f 39/39/39 40/40/40 44/44/44
f 44/44/44 40/40/40 45/45/45
f 46/46/46 43/43/43 39/39/39
f 46/46/46 39/39/39 44/44/44
f 47/47/47 44/44/44 45/45/45
f 45/45/45 48/48/48 47/47/47
f 43/43/43 46/46/46 49/49/49
f 46/46/46 44/44/44 50/50/50
f 49/49/49 46/46/46 50/50/50
f 41/41/41 43/43/43 51/51/51
f 51/51/51 43/43/43 49/49/49
f 44/44/44 47/47/47 52/52/52
f 50/50/50 44/44/44 52/52/52
f 53/53/53 42/42/42 41/41/41
f 54/54/54 41/41/41 51/51/51
f 53/53/53 41/41/41 54/54/54
f 55/55/55 51/51/51 49/49/49
f 51/51/51 55/55/55 54/54/54
f 56/56/56 55/55/55 49/49/49
f 49/49/49 50/50/50 56/56/56
f 50/50/50 57/57/57 56/56/56
f 55/55/55 58/58/58 54/54/54
f 59/59/59 57/57/57 50/50/50
f 52/52/52 59/59/59 50/50/50
f 54/54/54 58/58/58 60/60/60
f 52/52/52 61/61/61 59/59/59
f 61/61/61 62/62/62 59/59/59
f 52/52/52 47/47/47 61/61/61
f 63/63/63 54/54/54 60/60/60
f 63/63/63 53/53/53 54/54/54
f 60/60/60 64/64/64 63/63/63
f 61/61/61 65/65/65 62/62/62
f 65/65/65 66/66/66 62/62/62
f 47/47/47 67/67/67 61/61/61
f 65/65/65 61/61/61 67/67/67
f 48/48/48 67/67/67 47/47/47
f 68/68/68 65/65/65 67/67/67
f 67/67/67 48/48/48 68/68/68
f 48/48/48 69/69/69 68/68/68
f 70/70/70 53/53/53 63/63/63
f 53/53/53 70/70/70 42/42/42
f 70/70/70 71/71/71 42/42/42
f 64/64/64 72/72/72 63/63/63
f 72/72/72 70/70/70 63/63/63
f 70/70/70 73/73/73 71/71/71
f 70/70/70 72/72/72 73/73/73
f 73/73/73 74/74/74 71/71/71
f 72/72/72 75/75/75 73/73/73
f 72/72/72 64/64/64 75/75/75
f 64/64/64 76/76/76 75/75/75
