g radio_col
v 0.47304586 0.12935588 0.15474015
v 0.22068547 0.12867883 0.11469798
v 0.32166094 0.12867886 0.060808986
v -0.33457702 -0.38500646 0.22882362
v -0.33457702 0.059082285 0.22882362
v 0.39823815 0.014673342 0.18745422
v 0.39823815 -0.34059748 0.18745422
v -0.44491652 0.12935588 0.15474015
v -0.32880044 0.12935598 0.03581597
v -0.25027102 0.12935598 0.07166745
v -0.3327614 0.12935598 -0.064077936
v -0.44491652 0.12935588 -0.19323279
v -0.25203568 0.12935598 -0.11633042
v 0.2195419 0.12867886 -0.14875175
v 0.47304586 0.12935588 -0.19323279
v 0.33317256 0.12867886 -0.07733144
v 0.2195419 0.12867886 -0.14875175
v -0.16164444 0.12935598 -0.065389134
v 0.097112834 0.12867886 -0.08347562
v 0.09773305 0.12867886 0.056391433
v -0.16404432 0.12935598 0.034297153
v -0.16164444 0.12935598 -0.065389134
v -0.25027102 0.12935598 0.07166745
v 0.09773305 0.12867886 0.056391433
v 0.22068547 0.12867883 0.11469798
v -0.44491652 0.12935588 0.15474015
v 0.47304586 0.12935588 0.15474015
v -0.44491652 0.12935588 -0.19323279
v -0.44491652 -0.45528004 -0.19323279
v 0.47304586 -0.45528004 -0.19323279
v 0.47304586 0.12935588 -0.19323279
v -0.44491652 -0.45528004 -0.19323279
v -0.44491652 -0.45528004 0.15474015
v 0.47304586 -0.45528004 0.15474015
v 0.47304586 -0.45528004 -0.19323279
v 0.47304586 -0.45528004 0.15474015
v 0.47304586 0.12935588 0.15474015
v 0.47304586 0.12935588 -0.19323279
v 0.47304586 -0.45528004 -0.19323279
v -0.44491652 -0.45528004 -0.19323279
v -0.44491652 0.12935588 -0.19323279
v -0.44491652 0.12935588 0.15474015
v -0.44491652 -0.45528004 0.15474015
v -0.33073965 0.45903447 -0.061646685
v -0.25471523 0.45903447 -0.11085607
v -0.1695882 0.45903447 -0.06288153
v -0.17184834 0.45903447 0.030999193
v -0.32700935 0.45903447 0.032429557
v -0.25305334 0.45903447 0.0661931
v 0.097112834 0.21235481 -0.08347562
v 0.2195419 0.21235481 -0.14875175
v 0.33317256 0.21235481 -0.07733144
v 0.09773305 0.21235481 0.056391433
v 0.32166094 0.21235481 0.060808986
v 0.22068547 0.21235478 0.11469798
v 0.47304586 0.12935588 -0.19323279
v 0.47304586 0.12935588 0.15474015
v 0.32166094 0.12867886 0.060808986
v 0.33317256 0.12867886 -0.07733144
v -0.25027102 0.12935598 0.07166745
v -0.25305334 0.45903447 0.0661931
v -0.17184834 0.45903447 0.030999193
v -0.16404432 0.12935598 0.034297153
v -0.16404432 0.12935598 0.034297153
v -0.17184834 0.45903447 0.030999193
v -0.1695882 0.45903447 -0.06288153
v -0.16164444 0.12935598 -0.065389134
v -0.16164444 0.12935598 -0.065389134
v -0.1695882 0.45903447 -0.06288153
v -0.25471523 0.45903447 -0.11085607
v -0.25203568 0.12935598 -0.11633042
v -0.25203568 0.12935598 -0.11633042
v -0.25471523 0.45903447 -0.11085607
v -0.33073965 0.45903447 -0.061646685
v -0.3327614 0.12935598 -0.064077936
v -0.3327614 0.12935598 -0.064077936
v -0.33073965 0.45903447 -0.061646685
v -0.32700935 0.45903447 0.032429557
v -0.32880044 0.12935598 0.03581597
v -0.32880044 0.12935598 0.03581597
v -0.32700935 0.45903447 0.032429557
v -0.25305334 0.45903447 0.0661931
v -0.25027102 0.12935598 0.07166745
v 0.22068547 0.12867883 0.11469798
v 0.22068547 0.21235478 0.11469798
v 0.32166094 0.21235481 0.060808986
v 0.32166094 0.12867886 0.060808986
v 0.32166094 0.12867886 0.060808986
v 0.32166094 0.21235481 0.060808986
v 0.33317256 0.21235481 -0.07733144
v 0.33317256 0.12867886 -0.07733144
v 0.33317256 0.12867886 -0.07733144
v 0.33317256 0.21235481 -0.07733144
v 0.2195419 0.21235481 -0.14875175
v 0.2195419 0.12867886 -0.14875175
v 0.2195419 0.12867886 -0.14875175
v 0.2195419 0.21235481 -0.14875175
v 0.097112834 0.21235481 -0.08347562
v 0.097112834 0.12867886 -0.08347562
v 0.097112834 0.12867886 -0.08347562
v 0.097112834 0.21235481 -0.08347562
v 0.09773305 0.21235481 0.056391433
v 0.09773305 0.12867886 0.056391433
v 0.09773305 0.12867886 0.056391433
v 0.09773305 0.21235481 0.056391433
v 0.22068547 0.21235478 0.11469798
v 0.22068547 0.12867883 0.11469798
v -0.44491652 -0.45528004 0.15474015
v -0.33457702 -0.38500646 0.22882362
v 0.39823815 -0.34059748 0.18745422
v 0.47304586 -0.45528004 0.15474015
v 0.47304586 -0.45528004 0.15474015
v 0.39823815 -0.34059748 0.18745422
v 0.39823815 0.014673342 0.18745422
v 0.47304586 0.12935588 0.15474015
v 0.47304586 0.12935588 0.15474015
v 0.39823815 0.014673342 0.18745422
v -0.33457702 0.059082285 0.22882362
v -0.44491652 0.12935588 0.15474015
v -0.44491652 0.12935588 0.15474015
v -0.33457702 0.059082285 0.22882362
v -0.33457702 -0.38500646 0.22882362
v -0.44491652 -0.45528004 0.15474015
vt 0.625 0.25
vt 0.5497076 0.30795205
vt 0.59456015 0.34444654
vt 0.375 0
vt 0.375 0.25
vt 0.625 0.25
vt 0.625 0
vt 0.375 0.25
vt 0.4066233 0.3354407
vt 0.4280102 0.30968332
vt 0.40554458 0.40720913
vt 0.375 0.5
vt 0.42752963 0.44474974
vt 0.55606985 0.46573156
vt 0.625 0.5
vt 0.59242404 0.42381984
vt 0.55606985 0.46573156
vt 0.45214695 0.40815115
vt 0.51733404 0.41504565
vt 0.5099057 0.33858734
vt 0.4573658 0.33653188
vt 0.45214695 0.40815115
vt 0.4280102 0.30968332
vt 0.5099057 0.33858734
vt 0.5497076 0.30795205
vt 0.375 0.25
vt 0.625 0.25
vt 0.375 0.5
vt 0.375 0.75
vt 0.625 0.75
vt 0.625 0.5
vt 0.375 0.75
vt 0.375 1
vt 0.625 1
vt 0.625 0.75
vt 0.625 0
vt 0.625 0.25
vt 0.875 0.25
vt 0.875 0
vt 0.125 0
vt 0.125 0.25
vt 0.375 0.25
vt 0.375 0
vt 0.40554458 0.40720913
vt 0.42752963 0.44474974
vt 0.45214695 0.40815115
vt 0.4573658 0.33653188
vt 0.4066233 0.3354407
vt 0.4280102 0.30968332
vt 0.51733404 0.41504565
vt 0.55606985 0.46573156
vt 0.59242404 0.42381984
vt 0.5099057 0.33858734
vt 0.59456015 0.34444654
vt 0.5497076 0.30795205
vt 0.625 0.5
vt 0.625 0.25
vt 0.59456015 0.34444654
vt 0.59242404 0.42381984
vt 0.4280102 0.30968332
vt 0.4280102 0.30968332
vt 0.4573658 0.33653188
vt 0.4573658 0.33653188
vt 0.4573658 0.33653188
vt 0.4573658 0.33653188
vt 0.45214695 0.40815115
vt 0.45214695 0.40815115
vt 0.45214695 0.40815115
vt 0.45214695 0.40815115
vt 0.42752963 0.44474974
vt 0.42752963 0.44474974
vt 0.42752963 0.44474974
vt 0.42752963 0.44474974
vt 0.40554458 0.40720913
vt 0.40554458 0.40720913
vt 0.40554458 0.40720913
vt 0.40554458 0.40720913
vt 0.4066233 0.3354407
vt 0.4066233 0.3354407
vt 0.4066233 0.3354407
vt 0.4066233 0.3354407
vt 0.4280102 0.30968332
vt 0.4280102 0.30968332
vt 0.5497076 0.30795205
vt 0.5497076 0.30795205
vt 0.59456015 0.34444654
vt 0.59456015 0.34444654
vt 0.59456015 0.34444654
vt 0.59456015 0.34444654
vt 0.59242404 0.42381984
vt 0.59242404 0.42381984
vt 0.59242404 0.42381984
vt 0.59242404 0.42381984
vt 0.55606985 0.46573156
vt 0.55606985 0.46573156
vt 0.55606985 0.46573156
vt 0.55606985 0.46573156
vt 0.51733404 0.41504565
vt 0.51733404 0.41504565
vt 0.51733404 0.41504565
vt 0.51733404 0.41504565
vt 0.5099057 0.33858734
vt 0.5099057 0.33858734
vt 0.5099057 0.33858734
vt 0.5099057 0.33858734
vt 0.5497076 0.30795205
vt 0.5497076 0.30795205
vt 0.375 0
vt 0.375 0
vt 0.625 0
vt 0.625 0
vt 0.625 0
vt 0.625 0
vt 0.625 0.25
vt 0.625 0.25
vt 0.625 0.25
vt 0.625 0.25
vt 0.375 0.25
vt 0.375 0.25
vt 0.375 0.25
vt 0.375 0.25
vt 0.375 0
vt 0.375 0
vn -0.002068068 0.99999034 -0.0038745957
vn -0.0020680681 0.99999034 -0.0038745962
vn -0.0020680674 0.99999034 -0.003874595
vn 0.056362998 0 0.99841034
vn 0.056362998 0 0.99841034
vn 0.056362998 0 0.99841034
vn 0.056362998 0 0.99841034
vn -0 1 0
vn -0 1 0
vn -0 1 0
vn -0 1 0
vn -0 1 0
vn -0 1 0
vn -0.002087785 0.9999924 0.00332189
vn -0.002087785 0.9999924 0.0033218898
vn -0.002087785 0.9999924 0.0033218898
vn 0.0018903174 0.9999981 0.0005209881
vn 0.0018903175 0.9999981 0.00052098813
vn 0.0026014894 0.99999666 1.9415957E-05
vn 0.0026014894 0.99999666 1.9415955E-05
vn 0.001024716 0.99999 -0.0043560923
vn 0.0026014892 0.99999666 1.9415955E-05
vn 0.0010247162 0.99999 -0.0043560932
vn 0.0010247162 0.99999 -0.004356093
vn 0.0010247161 0.99999 -0.004356093
vn 0.0010247161 0.99999 -0.004356093
vn 0.0010247161 0.99999 -0.004356093
vn -0 0 -1
vn -0 0 -1
vn -0 0 -1
vn -0 0 -1
vn -0 -1 0
vn -0 -1 0
vn -0 -1 0
vn -0 -1 0
vn 1 0 0
vn 1 0 0
vn 1 0 0
vn 1 0 0
vn -1 0 0
vn -1 0 0
vn -1 0 0
vn -1 0 0
vn -0 1 0
vn -0 1 0
vn -0 1 0
vn -0 1 0
vn -0 1 0
vn -0 1 0
vn -0 1 0
vn -0 1 0
vn -0 1 0
vn -0 1 0
vn -0 1 0
vn -0 1 0
vn -0.0046571973 0.99998915 -0.00011028281
vn -0.004657197 0.99998915 -0.00011028279
vn -0.0046571973 0.99998915 -0.000110282796
vn -0.0046571977 0.99998915 -0.0001102828
vn 0.39758694 0.018588573 0.91737616
vn 0.3975869 0.018588573 0.91737616
vn 0.3975869 0.01858857 0.91737616
vn 0.3975869 0.01858857 0.91737616
vn 0.9994248 0.023898622 0.024060626
vn 0.9994248 0.023898622 0.024060627
vn 0.9994248 0.02389862 0.024060624
vn 0.9994248 0.023898622 0.024060626
vn 0.49088174 0.018453272 -0.87103075
vn 0.49088177 0.018453274 -0.87103075
vn 0.49088183 0.018453276 -0.87103075
vn 0.49088183 0.018453274 -0.87103075
vn -0.54336 0.009522776 -0.8394458
vn -0.54335994 0.009522776 -0.8394459
vn -0.54335994 0.009522776 -0.8394458
vn -0.54335994 0.009522776 -0.8394458
vn -0.9991978 0.005835379 0.03961998
vn -0.9991978 0.0058353795 0.03961998
vn -0.9991978 0.0058353795 0.039619982
vn -0.9991978 0.0058353795 0.03961998
vn -0.4152747 0.011599637 0.909622
vn -0.41527474 0.011599637 0.909622
vn -0.4152748 0.011599637 0.909622
vn -0.4152747 0.011599635 0.909622
vn 0.47082907 0 0.88222444
vn 0.47082907 0 0.88222444
vn 0.47082907 0 0.88222444
vn 0.47082907 0 0.88222444
vn 0.99654585 0 0.08304491
vn 0.99654585 0 0.08304491
vn 0.99654585 0 0.08304491
vn 0.99654585 0 0.08304491
vn 0.5321467 0 -0.8466522
vn 0.5321467 0 -0.8466522
vn 0.5321467 0 -0.8466522
vn 0.5321467 0 -0.8466522
vn -0.47047958 0 -0.8824109
vn -0.47047958 0 -0.8824109
vn -0.47047958 0 -0.8824109
vn -0.47047958 0 -0.8824109
vn -0.9999902 0 0.0044342834
vn -0.9999902 0 0.0044342834
vn -0.9999902 0 0.0044342834
vn -0.9999902 0 0.0044342834
vn -0.428482 0 0.9035503
vn -0.42848197 0 0.9035503
vn -0.428482 0 0.9035503
vn -0.42848197 0 0.9035503
vn 0.03519522 -0.5047981 0.86251974
vn 0.035195217 -0.5047982 0.8625196
vn 0.035195213 -0.5047981 0.8625196
vn 0.035195217 -0.5047981 0.86251974
vn 0.40067178 0 0.9162216
vn 0.40067175 0 0.9162217
vn 0.40067178 0 0.9162216
vn 0.40067178 0 0.9162216
vn 0.0351952 0.5047981 0.8625196
vn 0.03519521 0.50479823 0.8625196
vn 0.03519521 0.5047982 0.8625196
vn 0.03519521 0.5047982 0.8625196
vn -0.55742586 0 0.8302267
vn -0.5574259 0 0.8302267
vn -0.5574259 0 0.8302267
vn -0.55742586 0 0.8302267
g radio_col_0
f 3/3/3 2/2/2 1/1/1
f 6/6/6 5/5/5 4/4/4
f 7/7/7 6/6/6 4/4/4
f 10/10/10 9/9/9 8/8/8
f 9/9/9 11/11/11 8/8/8
f 11/11/11 12/12/12 8/8/8
f 11/11/11 13/13/13 12/12/12
f 13/13/13 14/14/14 12/12/12
f 14/14/14 15/15/15 12/12/12
f 14/14/14 16/16/16 15/15/15
f 13/13/13 18/18/18 17/17/17
f 18/18/18 19/19/19 17/17/17
f 21/21/21 20/20/20 19/19/19
f 22/22/22 21/21/21 19/19/19
f 24/24/24 21/21/21 23/23/23
f 23/23/23 25/25/25 24/24/24
f 23/23/23 26/26/26 25/25/25
f 26/26/26 27/27/27 25/25/25
f 30/30/30 29/29/29 28/28/28
f 31/31/31 30/30/30 28/28/28
f 34/34/34 33/33/33 32/32/32
f 35/35/35 34/34/34 32/32/32
f 38/38/38 37/37/37 36/36/36
f 39/39/39 38/38/38 36/36/36
f 42/42/42 41/41/41 40/40/40
f 43/43/43 42/42/42 40/40/40
f 46/46/46 45/45/45 44/44/44
f 44/44/44 47/47/47 46/46/46
f 44/44/44 48/48/48 47/47/47
f 48/48/48 49/49/49 47/47/47
f 52/52/52 51/51/51 50/50/50
f 50/50/50 53/53/53 52/52/52
f 53/53/53 54/54/54 52/52/52
f 53/53/53 55/55/55 54/54/54
f 58/58/58 57/57/57 56/56/56
f 59/59/59 58/58/58 56/56/56
f 62/62/62 61/61/61 60/60/60
f 63/63/63 62/62/62 60/60/60
f 66/66/66 65/65/65 64/64/64
f 67/67/67 66/66/66 64/64/64
f 70/70/70 69/69/69 68/68/68
f 71/71/71 70/70/70 68/68/68
f 74/74/74 73/73/73 72/72/72
f 75/75/75 74/74/74 72/72/72
f 78/78/78 77/77/77 76/76/76
f 79/79/79 78/78/78 76/76/76
f 82/82/82 81/81/81 80/80/80
f 83/83/83 82/82/82 80/80/80
f 86/86/86 85/85/85 84/84/84
f 87/87/87 86/86/86 84/84/84
f 90/90/90 89/89/89 88/88/88
f 91/91/91 90/90/90 88/88/88
f 94/94/94 93/93/93 92/92/92
f 95/95/95 94/94/94 92/92/92
f 98/98/98 97/97/97 96/96/96
f 99/99/99 98/98/98 96/96/96
f 102/102/102 101/101/101 100/100/100
f 103/103/103 102/102/102 100/100/100
f 106/106/106 105/105/105 104/104/104
f 107/107/107 106/106/106 104/104/104
f 110/110/110 109/109/109 108/108/108
f 111/111/111 110/110/110 108/108/108
f 114/114/114 113/113/113 112/112/112
f 115/115/115 114/114/114 112/112/112
f 118/118/118 117/117/117 116/116/116
f 119/119/119 118/118/118 116/116/116
f 122/122/122 121/121/121 120/120/120
f 123/123/123 122/122/122 120/120/120
