g ruler_col
v -0.105555594 -0.49195248 0.012290636
v -0.105555594 0.49195248 0.012290636
v -0 0.49195248 0.045601748
v -0 -0.49195248 0.045601748
v 0.105555594 -0.49195248 0.012290636
v 0.105555594 0.49195248 0.012290636
v -0.105555594 0.49195248 0.012290636
v -0.105555594 0.49195248 -0.034983218
v -0 0.49195248 -0.034983218
v -0 0.49195248 0.045601748
v 0.105555594 0.49195248 0.012290636
v 0.105555594 0.49195248 -0.034983218
v -0.105555594 0.49195248 -0.034983218
v -0.105555594 -0.49195248 -0.034983218
v -0 -0.49195248 -0.034983218
v -0 0.49195248 -0.034983218
v 0.105555594 0.49195248 -0.034983218
v 0.105555594 -0.49195248 -0.034983218
v -0.105555594 -0.49195248 -0.034983218
v -0.105555594 -0.49195248 0.012290636
v -0 -0.49195248 0.045601748
v -0 -0.49195248 -0.034983218
v 0.105555594 -0.49195248 -0.034983218
v 0.105555594 -0.49195248 0.012290636
v 0.105555594 -0.49195248 0.012290636
v 0.105555594 0.49195248 0.012290636
v 0.105555594 0.49195248 -0.034983218
v 0.105555594 -0.49195248 -0.034983218
v -0.105555594 -0.49195248 -0.034983218
v -0.105555594 0.49195248 -0.034983218
v -0.105555594 0.49195248 0.012290636
v -0.105555594 -0.49195248 0.012290636
vt 0.375 0
vt 0.375 0.25
vt 0.5 0.25
vt 0.5 0
vt 0.625 0
vt 0.625 0.25
vt 0.375 0.25
vt 0.375 0.5
vt 0.5 0.5
vt 0.5 0.25
vt 0.625 0.25
vt 0.625 0.5
vt 0.375 0.5
vt 0.375 0.75
vt 0.5 0.75
vt 0.5 0.5
vt 0.625 0.5
vt 0.625 0.75
vt 0.375 0.75
vt 0.375 1
vt 0.5 1
vt 0.5 0.75
vt 0.625 0.75
vt 0.625 1
vt 0.625 0
vt 0.625 0.25
vt 0.875 0.25
vt 0.875 0
vt 0.125 0
vt 0.125 0.25
vt 0.375 0.25
vt 0.375 0
vn -0.3009487 0 0.9536403
vn -0.3009487 0 0.9536403
vn -0 0 1
vn -0 0 1
vn 0.3009487 0 0.9536403
vn 0.3009487 0 0.9536403
vn -0 1 0
vn -0 1 0
vn -0 1 0
vn -0 1 0
vn -0 1 0
vn -0 1 0
vn -0 0 -1
vn -0 0 -1
vn -0 0 -1
vn -0 0 -1
vn -0 0 -1
vn -0 0 -1
vn -0 -1 0
vn -0 -1 0
vn -0 -1 0
vn -0 -1 0
vn -0 -1 0
vn -0 -1 0
vn 1 0 0
vn 1 0 0
vn 1 0 0
vn 1 0 0
vn -1 0 0
vn -1 0 0
vn -1 0 0
vn -1 0 0
g ruler_col_0
f 3/3/3 2/2/2 1/1/1
f 4/4/4 3/3/3 1/1/1
f 4/4/4 5/5/5 3/3/3
f 5/5/5 6/6/6 3/3/3
f 9/9/9 8/8/8 7/7/7
f 10/10/10 9/9/9 7/7/7
f 10/10/10 11/11/11 9/9/9
f 11/11/11 12/12/12 9/9/9
f 15/15/15 14/14/14 13/13/13
f 16/16/16 15/15/15 13/13/13
f 16/16/16 17/17/17 15/15/15
f 17/17/17 18/18/18 15/15/15
f 21/21/21 20/20/20 19/19/19
f 22/22/22 21/21/21 19/19/19
f 22/22/22 23/23/23 21/21/21
f 23/23/23 24/24/24 21/21/21
f 27/27/27 26/26/26 25/25/25
f 28/28/28 27/27/27 25/25/25
f 31/31/31 30/30/30 29/29/29
f 32/32/32 31/31/31 29/29/29
