g singlebarnote_col
v 0.11228516 -0.21884166 -0.058137413
v 0.38542193 -0.31077427 -0.056672785
v 0.39272827 -0.20842756 -0.057858128
v -0.44162625 -0.4239554 -0.05746889
v -0.472814 -0.2776936 -0.05914056
v -0.48655945 -0.35212097 -0.058434494
v 0.11228516 -0.21884166 0.03580692
v 0.39272827 -0.20842756 0.0360862
v 0.38542193 -0.31077427 0.037271548
v -0.44162625 -0.4239554 0.03647544
v -0.48655945 -0.35212097 0.035509843
v -0.472814 -0.2776936 0.034803774
v -0.22313239 -0.18589935 -0.05760554
v -0.25287533 -0.19757202 -0.0574974
v -0.14518818 -0.31077427 -0.056672785
v -0.13788188 -0.20842756 -0.057857487
v 0.328978 0.45991418 -0.057470657
v -0.16131589 0.36195752 -0.057467796
v -0.13788188 -0.20842756 -0.057857487
v 0.11228516 -0.21884166 -0.058137413
v -0.22313239 -0.18589935 -0.05760554
v -0.13788188 -0.20842756 -0.057857487
v -0.16131589 0.36195752 -0.057467796
v -0.21446401 0.29154137 -0.057466894
v 0.38131353 0.4099507 -0.057470556
v 0.328978 0.45991418 -0.057470657
v 0.11228516 -0.21884166 -0.058137413
v 0.39272827 -0.20842756 -0.057858128
v 0.11228516 -0.21884166 -0.058137413
v 0.063616596 -0.26811564 -0.057288855
v 0.33718443 -0.3987331 -0.05709209
v 0.38542193 -0.31077427 -0.056672785
v 0.063616596 -0.26811564 -0.057288855
v 0.0427498 -0.35016963 -0.05843449
v 0.25941986 -0.43715438 -0.057372876
v 0.33718443 -0.3987331 -0.05709209
v 0.0427498 -0.35016963 -0.05843449
v 0.17843296 -0.44662002 -0.05746817
v 0.08508119 -0.4207032 -0.05746889
v -0.25287533 -0.19757202 -0.0574974
v -0.34235784 -0.19244985 -0.057931196
v -0.20123099 -0.40133488 -0.05709209
v -0.14518818 -0.31077427 -0.056672785
v -0.34235784 -0.19244985 -0.057931196
v -0.386256 -0.20220672 -0.058509354
v -0.27119026 -0.43715438 -0.057372876
v -0.20123099 -0.40133488 -0.05709209
v -0.386256 -0.20220672 -0.058509354
v -0.43398175 -0.22854719 -0.05762595
v -0.35217717 -0.44662002 -0.05746817
v -0.27119026 -0.43715438 -0.057372876
v -0.44162625 -0.4239554 -0.05746889
v -0.35217717 -0.44662002 -0.05746817
v -0.43398175 -0.22854719 -0.05762595
v -0.472814 -0.2776936 -0.05914056
v -0.22313239 -0.18589935 0.036338795
v -0.13788188 -0.20842756 0.03608685
v -0.14518818 -0.31077427 0.037271548
v -0.25287533 -0.19757202 0.036446933
v 0.328978 0.45991418 0.03647368
v 0.11228516 -0.21884166 0.03580692
v -0.13788188 -0.20842756 0.03608685
v -0.16131589 0.36195752 0.036476538
v -0.22313239 -0.18589935 0.036338795
v -0.21446401 0.29154137 0.036477435
v -0.16131589 0.36195752 0.036476538
v -0.13788188 -0.20842756 0.03608685
v 0.38131353 0.4099507 0.036473777
v 0.39272827 -0.20842756 0.0360862
v 0.11228516 -0.21884166 0.03580692
v 0.328978 0.45991418 0.03647368
v 0.11228516 -0.21884166 0.03580692
v 0.38542193 -0.31077427 0.037271548
v 0.33718443 -0.3987331 0.03685224
v 0.063616596 -0.26811564 0.036655474
v 0.063616596 -0.26811564 0.036655474
v 0.33718443 -0.3987331 0.03685224
v 0.25941986 -0.43715438 0.036571458
v 0.0427498 -0.35016963 0.035509843
v 0.0427498 -0.35016963 0.035509843
v 0.17843296 -0.44662002 0.03647617
v 0.08508119 -0.4207032 0.03647544
v -0.25287533 -0.19757202 0.036446933
v -0.14518818 -0.31077427 0.037271548
v -0.20123099 -0.40133488 0.03685224
v -0.34235784 -0.19244985 0.036013138
v -0.34235784 -0.19244985 0.036013138
v -0.20123099 -0.40133488 0.03685224
v -0.27119026 -0.43715438 0.036571458
v -0.386256 -0.20220672 0.035434984
v -0.386256 -0.20220672 0.035434984
v -0.27119026 -0.43715438 0.036571458
v -0.35217717 -0.44662002 0.03647617
v -0.43398175 -0.22854719 0.036318388
v -0.44162625 -0.4239554 0.03647544
v -0.472814 -0.2776936 0.034803774
v -0.43398175 -0.22854719 0.036318388
v -0.35217717 -0.44662002 0.03647617
v -0.22313239 -0.18589935 0.036338795
v -0.25287533 -0.19757202 0.036446933
v -0.25287533 -0.19757202 -0.0574974
v -0.22313239 -0.18589935 -0.05760554
v -0.14518818 -0.31077427 0.037271548
v -0.13788188 -0.20842756 0.03608685
v -0.13788188 -0.20842756 -0.057857487
v -0.14518818 -0.31077427 -0.056672785
v 0.38542193 -0.31077427 0.037271548
v 0.39272827 -0.20842756 0.0360862
v 0.39272827 -0.20842756 -0.057858128
v 0.38542193 -0.31077427 -0.056672785
v 0.328978 0.45991418 0.03647368
v -0.16131589 0.36195752 0.036476538
v -0.16131589 0.36195752 -0.057467796
v 0.328978 0.45991418 -0.057470657
v -0.13788188 -0.20842756 0.03608685
v 0.11228516 -0.21884166 0.03580692
v 0.11228516 -0.21884166 -0.058137413
v -0.13788188 -0.20842756 -0.057857487
v -0.16131589 0.36195752 0.036476538
v -0.21446401 0.29154137 0.036477435
v -0.21446401 0.29154137 -0.057466894
v -0.16131589 0.36195752 -0.057467796
v -0.21446401 0.29154137 0.036477435
v -0.22313239 -0.18589935 0.036338795
v -0.22313239 -0.18589935 -0.05760554
v -0.21446401 0.29154137 -0.057466894
v 0.38131353 0.4099507 0.036473777
v 0.328978 0.45991418 0.03647368
v 0.328978 0.45991418 -0.057470657
v 0.38131353 0.4099507 -0.057470556
v 0.39272827 -0.20842756 0.0360862
v 0.38131353 0.4099507 0.036473777
v 0.38131353 0.4099507 -0.057470556
v 0.39272827 -0.20842756 -0.057858128
v 0.11228516 -0.21884166 0.03580692
v 0.063616596 -0.26811564 0.036655474
v 0.063616596 -0.26811564 -0.057288855
v 0.11228516 -0.21884166 -0.058137413
v 0.33718443 -0.3987331 0.03685224
v 0.38542193 -0.31077427 0.037271548
v 0.38542193 -0.31077427 -0.056672785
v 0.33718443 -0.3987331 -0.05709209
v 0.063616596 -0.26811564 0.036655474
v 0.0427498 -0.35016963 0.035509843
v 0.0427498 -0.35016963 -0.05843449
v 0.063616596 -0.26811564 -0.057288855
v 0.25941986 -0.43715438 0.036571458
v 0.33718443 -0.3987331 0.03685224
v 0.33718443 -0.3987331 -0.05709209
v 0.25941986 -0.43715438 -0.057372876
v 0.0427498 -0.35016963 0.035509843
v 0.08508119 -0.4207032 0.03647544
v 0.08508119 -0.4207032 -0.05746889
v 0.0427498 -0.35016963 -0.05843449
v 0.08508119 -0.4207032 0.03647544
v 0.17843296 -0.44662002 0.03647617
v 0.17843296 -0.44662002 -0.05746817
v 0.08508119 -0.4207032 -0.05746889
v 0.17843296 -0.44662002 0.03647617
v 0.25941986 -0.43715438 0.036571458
v 0.25941986 -0.43715438 -0.057372876
v 0.17843296 -0.44662002 -0.05746817
v -0.25287533 -0.19757202 0.036446933
v -0.34235784 -0.19244985 0.036013138
v -0.34235784 -0.19244985 -0.057931196
v -0.25287533 -0.19757202 -0.0574974
v -0.20123099 -0.40133488 0.03685224
v -0.14518818 -0.31077427 0.037271548
v -0.14518818 -0.31077427 -0.056672785
v -0.20123099 -0.40133488 -0.05709209
v -0.34235784 -0.19244985 0.036013138
v -0.386256 -0.20220672 0.035434984
v -0.386256 -0.20220672 -0.058509354
v -0.34235784 -0.19244985 -0.057931196
v -0.27119026 -0.43715438 0.036571458
v -0.20123099 -0.40133488 0.03685224
v -0.20123099 -0.40133488 -0.05709209
v -0.27119026 -0.43715438 -0.057372876
v -0.386256 -0.20220672 0.035434984
v -0.43398175 -0.22854719 0.036318388
v -0.43398175 -0.22854719 -0.05762595
v -0.386256 -0.20220672 -0.058509354
v -0.35217717 -0.44662002 0.03647617
v -0.27119026 -0.43715438 0.036571458
v -0.27119026 -0.43715438 -0.057372876
v -0.35217717 -0.44662002 -0.05746817
v -0.44162625 -0.4239554 0.03647544
v -0.35217717 -0.44662002 0.03647617
v -0.35217717 -0.44662002 -0.05746817
v -0.44162625 -0.4239554 -0.05746889
v -0.43398175 -0.22854719 0.036318388
v -0.472814 -0.2776936 0.034803774
v -0.472814 -0.2776936 -0.05914056
v -0.43398175 -0.22854719 -0.05762595
v -0.472814 -0.2776936 0.034803774
v -0.48655945 -0.35212097 0.035509843
v -0.48655945 -0.35212097 -0.058434494
v -0.472814 -0.2776936 -0.05914056
v -0.48655945 -0.35212097 0.035509843
v -0.44162625 -0.4239554 0.03647544
v -0.44162625 -0.4239554 -0.05746889
v -0.48655945 -0.35212097 -0.058434494
vt 0.76821274 0.5562879
vt 0.8406584 0.64558685
vt 0.80645627 0.63334215
vt 0.051690094 0.6061262
vt 0.05382379 0.65401256
vt 0.04592585 0.63894457
vt 0.7735166 0.55925333
vt 0.80645627 0.63334215
vt 0.8406584 0.64558685
vt 0.051690094 0.6061262
vt 0.04592585 0.63894457
vt 0.05382379 0.65401256
vt 0.18274286 0.63041925
vt 0.16645783 0.63979864
vt 0.15241593 0.5726223
vt 0.1828188 0.5899769
vt 0.5722424 0.6591649
vt 0.38046554 0.65379137
vt 0.1828188 0.5899769
vt 0.76821274 0.5562879
vt 0.18274286 0.63041925
vt 0.1828188 0.5899769
vt 0.38046554 0.65379137
vt 0.3758616 0.6539003
vt 0.5739997 0.6578373
vt 0.5722424 0.6591649
vt 0.76821274 0.5562879
vt 0.80645627 0.63334215
vt 0.76821274 0.5562879
vt 0.8998266 0.53546774
vt 0.87713957 0.64279103
vt 0.8406584 0.64558685
vt 0.8998266 0.53546774
vt 0.92807776 0.55337524
vt 0.8975425 0.62758523
vt 0.87713957 0.64279103
vt 0.92807776 0.55337524
vt 0.9165445 0.6084692
vt 0.9315919 0.58670366
vt 0.16645783 0.63979864
vt 0.13097495 0.66576636
vt 0.11760291 0.56745213
vt 0.15241593 0.5726223
vt 0.13097495 0.66576636
vt 0.11168139 0.6723398
vt 0.09496121 0.57706106
vt 0.11760291 0.56745213
vt 0.11168139 0.6723398
vt 0.08753791 0.6720958
vt 0.07188862 0.5897731
vt 0.09496121 0.57706106
vt 0.051690094 0.6061262
vt 0.07188862 0.5897731
vt 0.08753791 0.6720958
vt 0.05382379 0.65401256
vt 0.18274286 0.63041925
vt 0.1828188 0.5899769
vt 0.15241593 0.5726223
vt 0.16645783 0.63979864
vt 0.5722424 0.6591649
vt 0.7735166 0.55925333
vt 0.1828188 0.5899769
vt 0.38046554 0.65379137
vt 0.18274286 0.63041925
vt 0.3758616 0.6539003
vt 0.38046554 0.65379137
vt 0.1828188 0.5899769
vt 0.5739997 0.6578373
vt 0.80645627 0.63334215
vt 0.7735166 0.55925333
vt 0.5722424 0.6591649
vt 0.7735166 0.55925333
vt 0.8406584 0.64558685
vt 0.87713957 0.64279103
vt 0.8998266 0.53546774
vt 0.8998266 0.53546774
vt 0.87713957 0.64279103
vt 0.8975425 0.62758523
vt 0.92807776 0.55337524
vt 0.92807776 0.55337524
vt 0.9165445 0.6084692
vt 0.9315919 0.58670366
vt 0.16645783 0.63979864
vt 0.15241593 0.5726223
vt 0.11760291 0.56745213
vt 0.13097495 0.66576636
vt 0.13097495 0.66576636
vt 0.11760291 0.56745213
vt 0.09496121 0.57706106
vt 0.11168139 0.6723398
vt 0.11168139 0.6723398
vt 0.09496121 0.57706106
vt 0.07188862 0.5897731
vt 0.08753791 0.6720958
vt 0.051690094 0.6061262
vt 0.05382379 0.65401256
vt 0.08753791 0.6720958
vt 0.07188862 0.5897731
vt 0.18274286 0.63041925
vt 0.16645783 0.63979864
vt 0.16645783 0.63979864
vt 0.18274286 0.63041925
vt 0.15241593 0.5726223
vt 0.1828188 0.5899769
vt 0.1828188 0.5899769
vt 0.15241593 0.5726223
vt 0.8406584 0.64558685
vt 0.80645627 0.63334215
vt 0.80645627 0.63334215
vt 0.8406584 0.64558685
vt 0.5722424 0.6591649
vt 0.38046554 0.65379137
vt 0.38046554 0.65379137
vt 0.5722424 0.6591649
vt 0.1828188 0.5899769
vt 0.84988636 0.53994274
vt 0.76821274 0.5562879
vt 0.1828188 0.5899769
vt 0.38046554 0.65379137
vt 0.3758616 0.6539003
vt 0.3758616 0.6539003
vt 0.38046554 0.65379137
vt 0.3758616 0.6539003
vt 0.18274286 0.63041925
vt 0.18274286 0.63041925
vt 0.3758616 0.6539003
vt 0.5739997 0.6578373
vt 0.5722424 0.6591649
vt 0.5722424 0.6591649
vt 0.5739997 0.6578373
vt 0.80645627 0.63334215
vt 0.5739997 0.6578373
vt 0.5739997 0.6578373
vt 0.80645627 0.63334215
vt 0.84988636 0.53994274
vt 0.8998266 0.53546774
vt 0.8998266 0.53546774
vt 0.76821274 0.5562879
vt 0.87713957 0.64279103
vt 0.8406584 0.64558685
vt 0.8406584 0.64558685
vt 0.87713957 0.64279103
vt 0.8998266 0.53546774
vt 0.92807776 0.55337524
vt 0.92807776 0.55337524
vt 0.8998266 0.53546774
vt 0.8975425 0.62758523
vt 0.87713957 0.64279103
vt 0.87713957 0.64279103
vt 0.8975425 0.62758523
vt 0.92807776 0.55337524
vt 0.9315919 0.58670366
vt 0.9315919 0.58670366
vt 0.92807776 0.55337524
vt 0.9315919 0.58670366
vt 0.9165445 0.6084692
vt 0.9165445 0.6084692
vt 0.9315919 0.58670366
vt 0.9165445 0.6084692
vt 0.8975425 0.62758523
vt 0.8975425 0.62758523
vt 0.9165445 0.6084692
vt 0.16645783 0.63979864
vt 0.13097495 0.66576636
vt 0.13097495 0.66576636
vt 0.16645783 0.63979864
vt 0.11760291 0.56745213
vt 0.15241593 0.5726223
vt 0.15241593 0.5726223
vt 0.11760291 0.56745213
vt 0.13097495 0.66576636
vt 0.11168139 0.6723398
vt 0.11168139 0.6723398
vt 0.13097495 0.66576636
vt 0.09496121 0.57706106
vt 0.11760291 0.56745213
vt 0.11760291 0.56745213
vt 0.09496121 0.57706106
vt 0.11168139 0.6723398
vt 0.08753791 0.6720958
vt 0.08753791 0.6720958
vt 0.11168139 0.6723398
vt 0.07188862 0.5897731
vt 0.09496121 0.57706106
vt 0.09496121 0.57706106
vt 0.07188862 0.5897731
vt 0.051690094 0.6061262
vt 0.07188862 0.5897731
vt 0.07188862 0.5897731
vt 0.051690094 0.6061262
vt 0.08753791 0.6720958
vt 0.05382379 0.65401256
vt 0.05382379 0.65401256
vt 0.08753791 0.6720958
vt 0.05382379 0.65401256
vt 0.04592585 0.63894457
vt 0.04592585 0.63894457
vt 0.05382379 0.65401256
vt 0.04592585 0.63894457
vt 0.051690094 0.6061262
vt 0.051690094 0.6061262
vt 0.04592585 0.63894457
vn 0.0014296299 -0.011682896 -0.99993074
vn 0.0014296297 -0.011682896 -0.99993074
vn 0.0014296299 -0.011682896 -0.99993074
vn 0.004881558 -0.010387608 -0.9999342
vn 0.004881558 -0.010387606 -0.9999342
vn 0.004881558 -0.010387607 -0.9999342
vn -0.0014296176 0.011682931 0.99993074
vn -0.0014296176 0.011682932 0.99993074
vn -0.0014296176 0.011682931 0.99993074
vn -0.0048815557 0.010387604 0.9999342
vn -0.004881556 0.010387602 0.9999342
vn -0.0048815557 0.010387602 0.9999342
vn -0.004076499 -0.0100135105 -0.9999416
vn -0.0040764986 -0.010013509 -0.9999416
vn -0.004076499 -0.01001351 -0.9999416
vn -0.0040764995 -0.01001351 -0.9999416
vn -0.0004908464 0.00092168385 -0.9999995
vn -0.0004908464 0.00092168385 -0.9999995
vn -0.0004908464 0.00092168374 -0.9999995
vn -0.00049084635 0.0009216838 -0.9999995
vn -0.0019918382 0.00047615307 -0.999998
vn -0.0019918382 0.000476153 -0.999998
vn -0.0019918382 0.000476153 -0.999998
vn -0.0019918382 0.00047615307 -0.999998
vn 0.00091885263 0.00066739664 -0.9999994
vn 0.0009188527 0.0006673967 -0.9999994
vn 0.0009188527 0.0006673967 -0.9999994
vn 0.0009188527 0.0006673967 -0.9999994
vn 0.0013714064 -0.004096296 -0.9999907
vn 0.0013714064 -0.0040962957 -0.9999907
vn 0.0013714065 -0.004096296 -0.9999907
vn 0.0013714065 -0.004096296 -0.9999907
vn 0.0057371743 0.0071425424 -0.99995804
vn 0.005737174 0.0071425424 -0.99995804
vn 0.005737175 0.0071425424 -0.99995804
vn 0.005737174 0.007142543 -0.99995804
vn -0.00045507 -0.010658442 -0.99994314
vn -0.00045507003 -0.010658442 -0.99994314
vn -0.00045507 -0.010658442 -0.99994314
vn 0.0061192783 -0.0004381331 -0.99998116
vn 0.006119278 -0.00043813308 -0.99998116
vn 0.006119278 -0.00043813305 -0.99998116
vn 0.0061192783 -0.00043813308 -0.99998116
vn 0.0075752246 -7.844198E-05 -0.9999714
vn 0.007575225 -7.844199E-05 -0.9999714
vn 0.007575225 -7.844199E-05 -0.9999714
vn 0.0075752246 -7.844198E-05 -0.9999714
vn -0.0047535305 -0.004922617 -0.99997663
vn -0.004753531 -0.004922617 -0.99997663
vn -0.0047535305 -0.0049226177 -0.99997663
vn -0.004753531 -0.0049226177 -0.99997663
vn 0.012075168 -0.0012760734 -0.9999263
vn 0.012075168 -0.0012760735 -0.9999263
vn 0.012075166 -0.0012760735 -0.9999263
vn 0.012075169 -0.0012760736 -0.9999263
vn 0.0040764227 0.010013489 0.9999416
vn 0.0040764227 0.01001349 0.9999416
vn 0.0040764227 0.01001349 0.9999416
vn 0.0040764227 0.01001349 0.9999416
vn 0.00049088127 -0.00092168374 0.9999995
vn 0.0004908812 -0.00092168374 0.9999995
vn 0.0004908813 -0.00092168385 0.9999995
vn 0.0004908813 -0.00092168385 0.9999995
vn 0.001991678 -0.0004761466 0.999998
vn 0.0019916776 -0.00047614655 0.999998
vn 0.0019916778 -0.00047614655 0.999998
vn 0.0019916778 -0.00047614658 0.999998
vn -0.0009188675 -0.0006674059 0.9999994
vn -0.0009188675 -0.00066740596 0.9999994
vn -0.0009188675 -0.0006674059 0.9999994
vn -0.0009188675 -0.00066740596 0.9999994
vn -0.0013714158 0.0040962533 0.9999907
vn -0.0013714158 0.004096254 0.9999907
vn -0.0013714159 0.004096254 0.9999907
vn -0.0013714158 0.004096254 0.9999907
vn -0.0057371063 -0.0071424977 0.99995804
vn -0.005737106 -0.0071424977 0.99995804
vn -0.005737106 -0.007142497 0.99995804
vn -0.0057371063 -0.0071424977 0.99995804
vn 0.00045507 0.010658452 0.99994314
vn 0.00045507005 0.010658453 0.99994314
vn 0.00045507 0.010658453 0.99994314
vn -0.0061192885 0.00043811265 0.99998116
vn -0.0061192885 0.00043811262 0.99998116
vn -0.006119289 0.00043811265 0.99998116
vn -0.0061192885 0.00043811262 0.99998116
vn -0.007575191 7.845601E-05 0.9999714
vn -0.0075751916 7.8456025E-05 0.9999714
vn -0.0075751916 7.8456025E-05 0.9999714
vn -0.0075751916 7.845602E-05 0.9999714
vn 0.004753494 0.004922623 0.99997663
vn 0.0047534946 0.004922623 0.99997663
vn 0.004753495 0.004922623 0.99997663
vn 0.004753495 0.0049226223 0.99997663
vn -0.012075169 0.0012760422 0.9999263
vn -0.012075169 0.0012760422 0.9999263
vn -0.012075166 0.0012760422 0.9999263
vn -0.012075169 0.0012760421 0.9999263
vn -0.36532554 0.93087983 0
vn -0.36532557 0.93087983 0
vn -0.36532554 0.93087983 0
vn -0.36532557 0.93087983 0
vn 0.99746156 -0.07120664 0
vn 0.99746156 -0.07120664 0
vn 0.99746156 -0.07120664 0
vn 0.99746156 -0.07120664 0
vn 0.99746156 -0.071207 0
vn 0.99746156 -0.071207 0
vn 0.99746156 -0.071207 0
vn 0.99746156 -0.071207 0
vn -0.19591972 0.9806199 0
vn -0.19591975 0.9806199 0
vn -0.19591972 0.9806199 0
vn -0.19591975 0.9806199 0
vn -0.04159253 -0.9991347 0
vn -0.041592542 -0.9991347 0
vn -0.04159253 -0.9991347 0
vn -0.041592542 -0.9991347 0
vn -0.7981681 0.60243475 0
vn -0.7981681 0.6024348 0
vn -0.7981681 0.60243475 0
vn -0.7981681 0.6024348 0
vn -0.99983525 0.018152952 0
vn -0.99983525 0.018152952 0
vn -0.99983525 0.018152952 0
vn -0.99983525 0.018152952 0
vn 0.69052505 0.72330844 0
vn 0.690525 0.7233085 0
vn 0.69052505 0.72330844 0
vn 0.690525 0.7233085 0
vn 0.99982965 0.018455975 0
vn 0.99982965 0.018455973 0
vn 0.99982965 0.018455975 0
vn 0.99982965 0.018455973 0
vn -0.71146405 0.70272255 0
vn -0.71146405 0.70272255 0
vn -0.71146405 0.70272255 0
vn -0.71146405 0.7027225 0
vn 0.876804 -0.48084798 0
vn 0.876804 -0.48084798 0
vn 0.876804 -0.48084798 0
vn 0.876804 -0.48084798 0
vn -0.96915275 0.246461 0
vn -0.96915275 0.24646103 0
vn -0.96915275 0.246461 0
vn -0.96915275 0.24646103 0
vn 0.4429566 -0.896543 0
vn 0.44295657 -0.896543 0
vn 0.4429566 -0.896543 0
vn 0.44295657 -0.896543 0
vn -0.85743254 -0.51459634 0
vn -0.8574326 -0.5145963 0
vn -0.85743254 -0.51459634 0
vn -0.85743254 -0.5145963 0
vn -0.2675075 -0.9635558 0
vn -0.2675075 -0.9635558 0
vn -0.2675075 -0.9635558 0
vn -0.26750752 -0.9635558 0
vn 0.116088375 -0.9932389 0
vn 0.116088375 -0.9932389 0
vn 0.116088375 -0.9932389 0
vn 0.116088375 -0.9932389 0
vn 0.057148572 0.9983657 0
vn 0.05714858 0.9983657 0
vn 0.057148572 0.9983657 0
vn 0.05714858 0.9983657 0
vn 0.85034305 -0.5262287 0
vn 0.85034305 -0.52622867 0
vn 0.85034305 -0.5262287 0
vn 0.85034305 -0.52622867 0
vn -0.21696682 0.976179 0
vn -0.21696685 0.976179 0
vn -0.21696682 0.976179 0
vn -0.21696685 0.976179 0
vn 0.45574185 -0.89011204 0
vn 0.45574185 -0.89011204 0
vn 0.45574185 -0.89011204 0
vn 0.45574185 -0.89011204 0
vn -0.48320454 0.87550753 0
vn -0.48320448 0.87550753 0
vn -0.48320454 0.87550753 0
vn -0.48320448 0.87550753 0
vn 0.11608833 -0.9932389 0
vn 0.11608833 -0.9932389 0
vn 0.11608833 -0.9932389 0
vn 0.11608833 -0.9932389 0
vn -0.24561822 -0.9693666 0
vn -0.24561825 -0.9693666 0
vn -0.24561822 -0.9693666 0
vn -0.24561825 -0.9693666 0
vn -0.78463066 0.6199635 0
vn -0.7846306 0.6199635 0
vn -0.78463066 0.6199635 0
vn -0.78463066 0.6199635 0
vn -0.9833704 0.18161124 0
vn -0.9833704 0.18161124 0
vn -0.9833704 0.18161124 0
vn -0.9833704 0.18161127 0
vn -0.84780353 -0.53031045 0
vn -0.84780353 -0.53031045 0
vn -0.84780353 -0.53031045 0
vn -0.84780353 -0.53031045 0
g singlebarnote_col_0
f 3/3/3 2/2/2 1/1/1
f 6/6/6 5/5/5 4/4/4
f 9/9/9 8/8/8 7/7/7
f 12/12/12 11/11/11 10/10/10
f 15/15/15 14/14/14 13/13/13
f 16/16/16 15/15/15 13/13/13
f 19/19/19 18/18/18 17/17/17
f 20/20/20 19/19/19 17/17/17
f 23/23/23 22/22/22 21/21/21
f 24/24/24 23/23/23 21/21/21
f 27/27/27 26/26/26 25/25/25
f 28/28/28 27/27/27 25/25/25
f 31/31/31 30/30/30 29/29/29
f 32/32/32 31/31/31 29/29/29
f 35/35/35 34/34/34 33/33/33
f 36/36/36 35/35/35 33/33/33
f 35/35/35 38/38/38 37/37/37
f 38/38/38 39/39/39 37/37/37
f 42/42/42 41/41/41 40/40/40
f 43/43/43 42/42/42 40/40/40
f 46/46/46 45/45/45 44/44/44
f 47/47/47 46/46/46 44/44/44
f 50/50/50 49/49/49 48/48/48
f 51/51/51 50/50/50 48/48/48
f 54/54/54 53/53/53 52/52/52
f 55/55/55 54/54/54 52/52/52
f 58/58/58 57/57/57 56/56/56
f 59/59/59 58/58/58 56/56/56
f 62/62/62 61/61/61 60/60/60
f 63/63/63 62/62/62 60/60/60
f 66/66/66 65/65/65 64/64/64
f 67/67/67 66/66/66 64/64/64
f 70/70/70 69/69/69 68/68/68
f 71/71/71 70/70/70 68/68/68
f 74/74/74 73/73/73 72/72/72
f 75/75/75 74/74/74 72/72/72
f 78/78/78 77/77/77 76/76/76
f 79/79/79 78/78/78 76/76/76
f 81/81/81 78/78/78 80/80/80
f 82/82/82 81/81/81 80/80/80
f 85/85/85 84/84/84 83/83/83
f 86/86/86 85/85/85 83/83/83
f 89/89/89 88/88/88 87/87/87
f 90/90/90 89/89/89 87/87/87
f 93/93/93 92/92/92 91/91/91
f 94/94/94 93/93/93 91/91/91
f 97/97/97 96/96/96 95/95/95
f 98/98/98 97/97/97 95/95/95
f 101/101/101 100/100/100 99/99/99
f 102/102/102 101/101/101 99/99/99
f 105/105/105 104/104/104 103/103/103
f 106/106/106 105/105/105 103/103/103
f 109/109/109 108/108/108 107/107/107
f 110/110/110 109/109/109 107/107/107
f 113/113/113 112/112/112 111/111/111
f 114/114/114 113/113/113 111/111/111
f 117/117/117 116/116/116 115/115/115
f 118/118/118 117/117/117 115/115/115
f 121/121/121 120/120/120 119/119/119
f 122/122/122 121/121/121 119/119/119
f 125/125/125 124/124/124 123/123/123
f 126/126/126 125/125/125 123/123/123
f 129/129/129 128/128/128 127/127/127
f 130/130/130 129/129/129 127/127/127
f 133/133/133 132/132/132 131/131/131
f 134/134/134 133/133/133 131/131/131
f 137/137/137 136/136/136 135/135/135
f 138/138/138 137/137/137 135/135/135
f 141/141/141 140/140/140 139/139/139
f 142/142/142 141/141/141 139/139/139
f 145/145/145 144/144/144 143/143/143
f 146/146/146 145/145/145 143/143/143
f 149/149/149 148/148/148 147/147/147
f 150/150/150 149/149/149 147/147/147
f 153/153/153 152/152/152 151/151/151
f 154/154/154 153/153/153 151/151/151
f 157/157/157 156/156/156 155/155/155
f 158/158/158 157/157/157 155/155/155
f 161/161/161 160/160/160 159/159/159
f 162/162/162 161/161/161 159/159/159
f 165/165/165 164/164/164 163/163/163
f 166/166/166 165/165/165 163/163/163
f 169/169/169 168/168/168 167/167/167
f 170/170/170 169/169/169 167/167/167
f 173/173/173 172/172/172 171/171/171
f 174/174/174 173/173/173 171/171/171
f 177/177/177 176/176/176 175/175/175
f 178/178/178 177/177/177 175/175/175
f 181/181/181 180/180/180 179/179/179
f 182/182/182 181/181/181 179/179/179
f 185/185/185 184/184/184 183/183/183
f 186/186/186 185/185/185 183/183/183
f 189/189/189 188/188/188 187/187/187
f 190/190/190 189/189/189 187/187/187
f 193/193/193 192/192/192 191/191/191
f 194/194/194 193/193/193 191/191/191
f 197/197/197 196/196/196 195/195/195
f 198/198/198 197/197/197 195/195/195
f 201/201/201 200/200/200 199/199/199
f 202/202/202 201/201/201 199/199/199
