g surf_col
v -0.12734187 0.32766265 0.059727468
v -0.12734193 0.3306709 -0.0033353325
v -0.064465344 0.43302292 0.001748288
v -0.06446541 0.42999524 0.06480003
v 0.07190421 0.42997378 0.064798154
v 0.07190416 0.43300152 0.0017476026
v 0.1314556 0.33065307 -0.0033397432
v 0.13145566 0.3276446 0.059729524
v 0.14465865 -0.31116223 0.049416535
v 0.101854555 -0.40578008 -0.013765072
v 0.10185463 -0.40578008 0.049406115
v 0.14465848 -0.31116223 -0.013775358
v 0.025115877 -0.38158458 -0.057920292
v 0.032284424 -0.3442899 -0.065262556
v 0.17299744 -0.123955935 -0.013768917
v 0.10548665 -0.2072129 -0.06835307
v 0.17299768 -0.14054422 0.049410168
v 0.14465865 -0.31116223 0.049416535
v -0.14973304 -0.3136773 -0.013763139
v -0.14973322 -0.3136773 0.04940421
v -0.10455709 -0.41136414 0.049395416
v -0.104557015 -0.41136414 -0.013754344
v -0.03577608 -0.34681392 -0.06525045
v -0.027996331 -0.38717186 -0.057909653
v -0.1064951 -0.20766105 -0.06835564
v -0.17334887 -0.12384498 -0.013775205
v -0.14973322 -0.3136773 0.04940421
v -0.17334905 -0.14043333 0.049416397
v 0.17716157 -0.031169608 0.049414847
v 0.17715937 -0.031169608 -0.013777172
v 0.17299744 -0.123955935 -0.013768917
v 0.17299768 -0.14054422 0.049410168
v 0.17433065 0.11376598 -0.01185541
v 0.17433581 0.11307726 0.051329374
v 0.16229397 0.2311431 0.05457554
v 0.16229135 0.2334284 -0.008540666
v -0.17334905 -0.14043333 0.049416397
v -0.17334887 -0.12384498 -0.013775205
v -0.17416361 -0.031169608 -0.0137896
v -0.17416617 -0.031169608 0.04942641
v -0.17300752 0.113083296 0.05132189
v -0.1730032 0.11377187 -0.011847591
v -0.15707642 0.23344795 -0.008545047
v -0.15707958 0.23116313 0.054580547
v 0.003415579 0.4603178 0.004305687
v 0.003415579 0.45728928 0.067371495
v -0.06446541 0.42999524 0.06480003
v -0.064465344 0.43302292 0.001748288
v 0.003415579 0.45728928 0.067371495
v 0.003415579 0.4603178 0.004305687
v 0.07190416 0.43300152 0.0017476026
v 0.07190421 0.42997378 0.064798154
v 0.10185463 -0.40578008 0.049406115
v 0.101854555 -0.40578008 -0.013765072
v 0.057895362 -0.45750552 -0.013816034
v 0.057895415 -0.45750558 0.049457107
v -0.0626084 -0.45870042 0.04944462
v -0.062608354 -0.45870036 -0.013803517
v -0.104557015 -0.41136414 -0.013754344
v -0.10455709 -0.41136414 0.049395416
v 0.17433581 0.11307726 0.051329374
v 0.17433065 0.11376598 -0.01185541
v 0.17715937 -0.031169608 -0.013777172
v 0.17716157 -0.031169608 0.049414847
v 0.13145566 0.3276446 0.059729524
v 0.1314556 0.33065307 -0.0033397432
v 0.16229135 0.2334284 -0.008540666
v 0.16229397 0.2311431 0.05457554
v -0.17416617 -0.031169608 0.04942641
v -0.17416361 -0.031169608 -0.0137896
v -0.1730032 0.11377187 -0.011847591
v -0.17300752 0.113083296 0.05132189
v -0.15707958 0.23116313 0.054580547
v -0.15707642 0.23344795 -0.008545047
v -0.12734193 0.3306709 -0.0033353325
v -0.12734187 0.32766265 0.059727468
v 0.057895415 -0.45750558 0.049457107
v 0.057895362 -0.45750552 -0.013816034
v -0.0026788614 -0.46031773 -0.01378054
v -0.0026788614 -0.4603178 0.049421642
v -0.0026788614 -0.4603178 0.049421642
v -0.0026788614 -0.46031773 -0.01378054
v -0.062608354 -0.45870036 -0.013803517
v -0.0626084 -0.45870042 0.04944462
v -0.06446541 0.42999524 0.06480003
v 0.003415579 0.45728928 0.067371495
v 0.0020569044 0.3276536 0.059728496
v -0.12734187 0.32766265 0.059727468
v 0.0020569044 0.3276536 0.059728496
v 0.13145566 0.3276446 0.059729524
v 0.16229397 0.2311431 0.05457554
v 0.0026071966 0.23115312 0.054578044
v 0.0026071966 0.23115312 0.054578044
v 0.16229397 0.2311431 0.05457554
v 0.17433581 0.11307726 0.051329374
v 0.00066414475 0.11308028 0.051325634
v 0.00066414475 0.11308028 0.051325634
v 0.17433581 0.11307726 0.051329374
v 0.17716157 -0.031169608 0.049414847
v 0.0014977008 -0.031169608 0.04942063
v 0.17716157 -0.031169608 0.049414847
v 0.17299768 -0.14054422 0.049410168
v -0.00017568469 -0.14048877 0.049413282
v -0.00017568469 -0.14048877 0.049413282
v 0.17299768 -0.14054422 0.049410168
v 0.14465865 -0.31116223 0.049416535
v -0.0025372803 -0.31241977 0.049410373
v -0.0025372803 -0.31241977 0.049410373
v 0.14465865 -0.31116223 0.049416535
v 0.10185463 -0.40578008 0.049406115
v -0.0013512298 -0.40857214 0.049400765
v -0.0013512298 -0.40857214 0.049400765
v 0.10185463 -0.40578008 0.049406115
v 0.057895415 -0.45750558 0.049457107
v -0.0026788614 -0.4603178 0.049421642
v 0.003415579 0.45728928 0.067371495
v 0.07190421 0.42997378 0.064798154
v 0.13145566 0.3276446 0.059729524
v 0.0020569044 0.3276536 0.059728496
v -0.12734187 0.32766265 0.059727468
v 0.0020569044 0.3276536 0.059728496
v 0.0026071966 0.23115312 0.054578044
v -0.15707958 0.23116313 0.054580547
v -0.15707958 0.23116313 0.054580547
v 0.0026071966 0.23115312 0.054578044
v 0.00066414475 0.11308028 0.051325634
v -0.17300752 0.113083296 0.05132189
v -0.17300752 0.113083296 0.05132189
v 0.00066414475 0.11308028 0.051325634
v 0.0014977008 -0.031169608 0.04942063
v -0.17416617 -0.031169608 0.04942641
v -0.17416617 -0.031169608 0.04942641
v -0.00017568469 -0.14048877 0.049413282
v -0.17334905 -0.14043333 0.049416397
v -0.17334905 -0.14043333 0.049416397
v -0.00017568469 -0.14048877 0.049413282
v -0.0025372803 -0.31241977 0.049410373
v -0.14973322 -0.3136773 0.04940421
v -0.0025372803 -0.31241977 0.049410373
v -0.0013512298 -0.40857214 0.049400765
v -0.10455709 -0.41136414 0.049395416
v -0.10455709 -0.41136414 0.049395416
v -0.0013512298 -0.40857214 0.049400765
v -0.0026788614 -0.4603178 0.049421642
v -0.0626084 -0.45870042 0.04944462
v 0.1314556 0.33065307 -0.0033397432
v 0.0020568443 0.33066195 -0.0033375379
v 0.0026074601 0.23343818 -0.008542856
v 0.16229135 0.2334284 -0.008540666
v 0.0020568443 0.33066195 -0.0033375379
v -0.12734193 0.3306709 -0.0033353325
v -0.15707642 0.23344795 -0.008545047
v 0.0026074601 0.23343818 -0.008542856
v -0.064465344 0.43302292 0.001748288
v -0.12734193 0.3306709 -0.0033353325
v 0.0020568443 0.33066195 -0.0033375379
v 0.003415579 0.4603178 0.004305687
v 0.003415579 0.4603178 0.004305687
v 0.0020568443 0.33066195 -0.0033375379
v 0.1314556 0.33065307 -0.0033397432
v 0.07190416 0.43300152 0.0017476026
v -0.104557015 -0.41136414 -0.013754344
v -0.062608354 -0.45870036 -0.013803517
v -0.0026788614 -0.46031773 -0.01378054
v -0.0023558496 -0.4179269 -0.0134605
v 0.101854555 -0.40578008 -0.013765072
v -0.0026788614 -0.46031773 -0.01378054
v 0.057895362 -0.45750552 -0.013816034
v 0.0016744309 0.10810911 -0.009489058
v 0.0026074601 0.23343818 -0.008542856
v -0.15707642 0.23344795 -0.008545047
v -0.1730032 0.11377187 -0.011847591
v 0.0005251334 -0.03843531 -0.010595432
v -0.17416361 -0.031169608 -0.0137896
v -0.00031416892 -0.13281012 -0.011433175
v -0.17334887 -0.12384498 -0.013775205
v -0.0011206747 -0.3513397 -0.06419667
v -0.00026747497 -0.2015778 -0.066888906
v -0.1064951 -0.20766105 -0.06835564
v -0.03577608 -0.34681392 -0.06525045
v -0.0016263202 -0.39373302 -0.057615764
v -0.027996331 -0.38717186 -0.057909653
v 0.032284424 -0.3442899 -0.065262556
v -0.0011206747 -0.3513397 -0.06419667
v -0.0016263202 -0.39373302 -0.057615764
v 0.025115877 -0.38158458 -0.057920292
v 0.10548665 -0.2072129 -0.06835307
v -0.00026747497 -0.2015778 -0.066888906
v -0.0011206747 -0.3513397 -0.06419667
v 0.032284424 -0.3442899 -0.065262556
v 0.17715937 -0.031169608 -0.013777172
v 0.0005251334 -0.03843531 -0.010595432
v -0.00031416892 -0.13281012 -0.011433175
v 0.17299744 -0.123955935 -0.013768917
v 0.17433065 0.11376598 -0.01185541
v 0.0016744309 0.10810911 -0.009489058
v 0.0005251334 -0.03843531 -0.010595432
v 0.17715937 -0.031169608 -0.013777172
v 0.16229135 0.2334284 -0.008540666
v 0.0026074601 0.23343818 -0.008542856
v 0.0016744309 0.10810911 -0.009489058
v 0.17433065 0.11376598 -0.01185541
v -0.17334887 -0.12384498 -0.013775205
v -0.1064951 -0.20766105 -0.06835564
v -0.00026747497 -0.2015778 -0.066888906
v -0.00031416892 -0.13281012 -0.011433175
v 0.10548665 -0.2072129 -0.06835307
v 0.17299744 -0.123955935 -0.013768917
v -0.0023558496 -0.4179269 -0.0134605
v -0.027996331 -0.38717186 -0.057909653
v -0.104557015 -0.41136414 -0.013754344
v -0.0016263202 -0.39373302 -0.057615764
v 0.101854555 -0.40578008 -0.013765072
v 0.025115877 -0.38158458 -0.057920292
vt 0.8549812 0.7743657
vt 0.8128155 0.77436566
vt 0.8128155 0.85775644
vt 0.8549812 0.85775644
vt 0.9057268 0.15728061
vt 0.86356115 0.15728061
vt 0.86356115 0.23925418
vt 0.9057268 0.23925418
vt 0.9057268 0.70589596
vt 0.8635611 0.8532073
vt 0.9057268 0.8532073
vt 0.8635611 0.70589596
vt 0.8635611 0.8532073
vt 0.8635611 0.70589596
vt 0.8635611 0.62874943
vt 0.8635611 0.62874943
vt 0.9057268 0.62874943
vt 0.9057268 0.70589596
vt 0.8119157 0.28192407
vt 0.85498124 0.30895388
vt 0.85498124 0.15609567
vt 0.8128155 0.15609567
vt 0.8119157 0.28192407
vt 0.8128155 0.15609567
vt 0.8114865 0.40658268
vt 0.8114865 0.40658268
vt 0.85498124 0.30895388
vt 0.85498124 0.38537297
vt 0.9057268 0.53898895
vt 0.8635611 0.538989
vt 0.8635611 0.62874943
vt 0.9057268 0.62874943
vt 0.8635611 0.46258414
vt 0.9057268 0.46258414
vt 0.9057268 0.32255444
vt 0.86356115 0.32255444
vt 0.85498124 0.38537297
vt 0.8114865 0.40658268
vt 0.8113166 0.48205566
vt 0.85498124 0.47471145
vt 0.85498124 0.5510178
vt 0.8118501 0.5841722
vt 0.8128155 0.6913476
vt 0.8549812 0.69134754
vt 0.8128155 0.93000954
vt 0.85504746 0.92465925
vt 0.8549812 0.85775644
vt 0.8128155 0.85775644
vt 0.85504746 0.92465925
vt 0.8128155 0.93000954
vt 0.86356115 0.15728061
vt 0.9057268 0.15728061
vt 0.9057268 0.8532073
vt 0.8635611 0.8532073
vt 0.8635611 0.9087736
vt 0.9057268 0.9087736
vt 0.85498124 0.10442408
vt 0.8128155 0.10442408
vt 0.8128155 0.15609567
vt 0.85498124 0.15609567
vt 0.9057268 0.46258414
vt 0.8635611 0.46258414
vt 0.8635611 0.538989
vt 0.9057268 0.53898895
vt 0.9057268 0.23925418
vt 0.86356115 0.23925418
vt 0.86356115 0.32255444
vt 0.9057268 0.32255444
vt 0.85498124 0.47471145
vt 0.8113166 0.48205566
vt 0.8118501 0.5841722
vt 0.85498124 0.5510178
vt 0.8549812 0.69134754
vt 0.8128155 0.6913476
vt 0.8128155 0.77436566
vt 0.8549812 0.7743657
vt 0.9057268 0.9087736
vt 0.8635611 0.9087736
vt 0.8381883 0.50194895
vt 0.9052009 0.9528377
vt 0.85445917 0.051199384
vt 0.8381883 0.50194895
vt 0.8128155 0.10442408
vt 0.85498124 0.10442408
vt 0.8549812 0.85775644
vt 0.880089 0.5109903
vt 0.880354 0.50680995
vt 0.8549812 0.7743657
vt 0.880354 0.50680995
vt 0.9057268 0.23925418
vt 0.9057268 0.32255444
vt 0.880354 0.506951
vt 0.880354 0.506951
vt 0.9057268 0.32255444
vt 0.9057268 0.46258414
vt 0.88035405 0.506801
vt 0.88035405 0.506801
vt 0.9057268 0.46258414
vt 0.9057268 0.53898895
vt 0.88035405 0.5068502
vt 0.9057268 0.53898895
vt 0.9057268 0.62874943
vt 0.88035405 0.5070612
vt 0.88035405 0.5070612
vt 0.9057268 0.62874943
vt 0.9057268 0.70589596
vt 0.88035405 0.50742495
vt 0.88035405 0.50742495
vt 0.9057268 0.70589596
vt 0.9057268 0.8532073
vt 0.88035405 0.5046515
vt 0.88035405 0.5046515
vt 0.9057268 0.8532073
vt 0.9057268 0.9087736
vt 0.8803546 0.5070488
vt 0.880089 0.5109903
vt 0.9057268 0.15728061
vt 0.9057268 0.23925418
vt 0.880354 0.50680995
vt 0.8549812 0.7743657
vt 0.880354 0.50680995
vt 0.880354 0.506951
vt 0.8549812 0.69134754
vt 0.8549812 0.69134754
vt 0.880354 0.506951
vt 0.88035405 0.506801
vt 0.85498124 0.5510178
vt 0.85498124 0.5510178
vt 0.88035405 0.506801
vt 0.88035405 0.5068502
vt 0.85498124 0.47471145
vt 0.85498124 0.47471145
vt 0.88035405 0.5070612
vt 0.85498124 0.38537297
vt 0.85498124 0.38537297
vt 0.88035405 0.5070612
vt 0.88035405 0.50742495
vt 0.85498124 0.30895388
vt 0.88035405 0.50742495
vt 0.88035405 0.5046515
vt 0.85498124 0.15609567
vt 0.85498124 0.15609567
vt 0.88035405 0.5046515
vt 0.8803546 0.5070488
vt 0.85498124 0.10442408
vt 0.86356115 0.23925418
vt 0.8381883 0.50680995
vt 0.8381883 0.50695103
vt 0.86356115 0.32255444
vt 0.8381883 0.50680995
vt 0.8128155 0.77436566
vt 0.8128155 0.6913476
vt 0.8381883 0.50695103
vt 0.8128155 0.85775644
vt 0.8128155 0.77436566
vt 0.8381883 0.50680995
vt 0.8128155 0.93000954
vt 0.8128155 0.93000954
vt 0.8381883 0.50680995
vt 0.86356115 0.23925418
vt 0.86356115 0.15728061
vt 0.8128155 0.15609567
vt 0.8128155 0.10442408
vt 0.8381883 0.50194895
vt 0.81436586 0.07836169
vt 0.8635611 0.8532073
vt 0.8381883 0.50194895
vt 0.8635611 0.9087736
vt 0.83360463 0.42448622
vt 0.8381883 0.50695103
vt 0.8128155 0.6913476
vt 0.8118501 0.5841722
vt 0.82824504 0.328062
vt 0.8113166 0.48205566
vt 0.8241868 0.2550498
vt 0.8114865 0.40658268
vt 0.81801295 0.14397578
vt 0.8241868 0.2550498
vt 0.8114865 0.40658268
vt 0.8119157 0.28192407
vt 0.81436586 0.07836169
vt 0.8128155 0.15609567
vt 0.8635611 0.70589596
vt 0.81801295 0.14397578
vt 0.81436586 0.07836169
vt 0.8635611 0.8532073
vt 0.8635611 0.62874943
vt 0.8241868 0.2550498
vt 0.81801295 0.14397578
vt 0.8635611 0.70589596
vt 0.8635611 0.538989
vt 0.82824504 0.328062
vt 0.8241868 0.2550498
vt 0.8635611 0.62874943
vt 0.8635611 0.46258414
vt 0.83360463 0.42448622
vt 0.82824504 0.328062
vt 0.8635611 0.538989
vt 0.86356115 0.32255444
vt 0.8381883 0.50695103
vt 0.83360463 0.42448622
vt 0.8635611 0.46258414
vt 0.8114865 0.40658268
vt 0.8114865 0.40658268
vt 0.8241868 0.2550498
vt 0.8241868 0.2550498
vt 0.8635611 0.62874943
vt 0.8635611 0.62874943
vt 0.81436586 0.07836169
vt 0.8128155 0.15609567
vt 0.8128155 0.15609567
vt 0.81436586 0.07836169
vt 0.8635611 0.8532073
vt 0.8635611 0.8532073
vn -0.8523287 0.52240855 0.025002923
vn -0.8523287 0.5224085 0.025002925
vn -0.8523287 0.52240855 0.025002925
vn -0.8523287 0.52240855 0.025002923
vn 0.8645841 0.50191367 0.024021247
vn 0.8645841 0.5019137 0.02402125
vn 0.8645841 0.5019137 0.024021247
vn 0.8645841 0.50191367 0.024021247
vn 0.9111056 -0.41217315 0
vn 0.7662713 -0.35609767 -0.534811
vn 0.9111056 -0.4121731 0
vn 0.8261202 -0.24623743 -0.50684565
vn 0.44861782 -0.21825626 -0.8666639
vn 0.5186101 -0.2057514 -0.8298855
vn 0.91159564 -0.1884205 -0.36536422
vn 0.5874877 -0.19143479 -0.7862639
vn 0.98747826 -0.15641274 -0.020535002
vn 0.98747826 -0.15641272 -0.020535002
vn -0.8258892 -0.2319591 -0.5139085
vn -0.90764153 -0.41974616 0
vn -0.90764153 -0.4197462 0
vn -0.7607136 -0.35868624 -0.5409796
vn -0.5130696 -0.19655523 -0.8355391
vn -0.4460594 -0.21733844 -0.8682137
vn -0.5794662 -0.17370397 -0.79627
vn -0.91150796 -0.16379885 -0.3772574
vn -0.9915023 -0.12898205 -0.016935281
vn -0.9915023 -0.12898204 -0.01693528
vn 0.99913836 -0.041148793 -0.0054207635
vn 0.99913836 -0.041148793 -0.005420763
vn 0.99913836 -0.041148793 -0.0054207626
vn 0.99913836 -0.041148793 -0.005420763
vn 0.9949124 0.10071748 0.0023100688
vn 0.9949124 0.10071748 0.002310069
vn 0.9949124 0.10071748 0.0023100693
vn 0.9949124 0.10071747 0.0023100693
vn -0.99996674 -0.008080597 -0.0010818741
vn -0.99996674 -0.008080596 -0.0010818741
vn -0.99996674 -0.008080596 -0.0010818741
vn -0.99996674 -0.008080598 -0.0010818741
vn -0.99115014 0.13271044 0.0030654836
vn -0.99115014 0.13271043 0.0030654834
vn -0.99115014 0.13271044 0.0030654834
vn -0.99115014 0.13271043 0.0030654832
vn -0.37414092 0.9263045 0.04448099
vn -0.3741409 0.9263045 0.04448099
vn -0.37414095 0.9263045 0.044480994
vn -0.3741409 0.9263045 0.044480994
vn 0.37153164 0.92735165 0.044532165
vn 0.37153167 0.92735165 0.044532165
vn 0.37153167 0.92735165 0.044532165
vn 0.3715316 0.92735165 0.044532157
vn 0.7619935 -0.64758456 0
vn 0.76199365 -0.6475846 0
vn 0.7619935 -0.64758456 0
vn 0.7619935 -0.64758456 0
vn -0.7484133 -0.6632327 0
vn -0.7484133 -0.6632327 0
vn -0.7484133 -0.6632327 0
vn -0.7484133 -0.6632327 0
vn 0.99980897 0.019548928 4.818132E-05
vn 0.99980897 0.019548928 4.818132E-05
vn 0.99980897 0.01954893 4.818132E-05
vn 0.99980897 0.01954893 4.818132E-05
vn 0.95299673 0.3027153 0.012679417
vn 0.95299673 0.3027153 0.012679417
vn 0.95299673 0.3027153 0.012679418
vn 0.95299673 0.3027153 0.012679415
vn -0.99996793 0.008018786 -1.07805745E-05
vn -0.99996793 0.008018787 -1.07805745E-05
vn -0.99996793 0.008018787 -1.0780575E-05
vn -0.99996793 0.008018787 -1.07805745E-05
vn -0.9560775 0.2928575 0.012260507
vn -0.9560775 0.29285747 0.012260507
vn -0.9560775 0.2928575 0.012260507
vn -0.9560775 0.29285756 0.012260507
vn 0.046375338 -0.9989241 0
vn 0.046375338 -0.9989241 0
vn 0.046375338 -0.9989241 0
vn 0.046375334 -0.9989241 0
vn -0.026978083 -0.99963605 0
vn -0.026978083 -0.99963605 0
vn -0.02697808 -0.99963605 0
vn -0.026978085 -0.99963605 0
vn -0.005667694 -0.05316811 0.9985695
vn -0.005667694 -0.05316811 0.9985695
vn -0.0056676934 -0.05316811 0.9985695
vn -0.005667694 -0.05316811 0.9985695
vn -0 -0.05331415 0.99857783
vn -0 -0.053314146 0.99857783
vn -0 -0.05331415 0.99857783
vn -0 -0.053314153 0.99857783
vn -0 -0.02750994 0.9996215
vn -0 -0.027509943 0.9996215
vn -0 -0.027509943 0.9996215
vn -0 -0.02750994 0.9996215
vn -0 -0.013238185 0.9999124
vn -0 -0.013238185 0.9999124
vn -0 -0.013238185 0.9999124
vn -0 -0.013238186 0.9999124
vn 2.5496083E-05 -5.566709E-05 1
vn 2.5496083E-05 -5.5667093E-05 1
vn 2.5496083E-05 -5.5667097E-05 1
vn -0 1.0936958E-05 1
vn -0 1.0936958E-05 1
vn -0 1.0936957E-05 1
vn -0 1.0936958E-05 1
vn -4.4427365E-05 -9.5269934E-05 1
vn -4.4427365E-05 -9.526993E-05 1
vn -4.442736E-05 -9.526993E-05 1
vn -4.4427365E-05 -9.526993E-05 1
vn -0.00027710714 0.00081586087 0.99999964
vn -0.00027710712 0.00081586087 0.99999964
vn -0.00027710712 0.00081586087 0.99999964
vn -0.00027710712 0.0008158609 0.99999964
vn 0.0056188656 -0.053311396 0.99856216
vn 0.005618866 -0.0533114 0.99856216
vn 0.0056188656 -0.05331139 0.99856216
vn 0.005618866 -0.053311393 0.99856216
vn -0 -0.053278703 0.9985796
vn -0 -0.053278707 0.9985796
vn -0 -0.0532787 0.9985796
vn -0 -0.0532787 0.9985796
vn -0 -0.027560582 0.9996201
vn -0 -0.027560582 0.9996201
vn -0 -0.027560582 0.9996201
vn -0 -0.027560584 0.9996201
vn -0 -0.013171981 0.9999132
vn -0 -0.013171982 0.9999132
vn -0 -0.013171984 0.9999132
vn -0 -0.013171983 0.9999132
vn 2.5484684E-05 -7.951985E-05 1
vn 2.5484685E-05 -7.951985E-05 1
vn 2.5484685E-05 -7.951985E-05 1
vn -0 -4.430907E-05 1
vn -0 -4.430907E-05 1
vn -0 -4.4309065E-05 1
vn -0 -4.430906E-05 1
vn -4.4257595E-05 -0.000105520536 1
vn -4.425759E-05 -0.00010552052 1
vn -4.4257595E-05 -0.00010552054 1
vn 0.00010265476 0.00074938394 0.99999976
vn 0.000102654776 0.00074938394 0.99999976
vn 0.00010265476 0.0007493839 0.99999976
vn 0.00010265476 0.00074938394 0.99999976
vn -0 0.053440794 -0.99857104
vn -0 0.053440794 -0.99857104
vn -0 0.053440794 -0.99857104
vn -0 0.05344079 -0.99857104
vn -0 0.053485207 -0.99856865
vn -0 0.053485207 -0.99856865
vn -0 0.053485207 -0.99856865
vn -0 0.0534852 -0.99856865
vn 0.0055706888 0.053234294 -0.99856657
vn 0.0055706888 0.053234287 -0.99856657
vn 0.0055706888 0.05323429 -0.99856657
vn 0.0055706888 0.053234294 -0.99856657
vn -0.0055454737 0.053402036 -0.99855775
vn -0.0055454737 0.053402036 -0.99855775
vn -0.0055454727 0.05340203 -0.99855775
vn -0.005545473 0.053402033 -0.99855775
vn 0.0022135202 0.005141662 -0.9999844
vn 0.0022135205 0.0051416615 -0.9999844
vn 0.0022135202 0.0051416615 -0.9999844
vn 0.0022135205 0.0051416615 -0.9999844
vn -0.0025295499 0.005132052 -0.99998367
vn -0.0025295499 0.0051320526 -0.99998367
vn -0.00252955 0.0051320526 -0.99998367
vn 0.012360045 0.013178785 -0.9998368
vn 0.007344744 0.016833108 -0.9998313
vn 0.007344744 0.016833108 -0.9998313
vn 0.012401737 0.013148405 -0.9998367
vn 0.016213568 0.007957527 -0.9998369
vn 0.016216937 0.0080922 -0.9998357
vn 0.01612439 0.00439902 -0.9998603
vn 0.01612439 0.0043990198 -0.9998603
vn 0.01472675 -0.034787398 -0.99928623
vn 0.018059185 -0.015693381 -0.9997137
vn 0.018059181 -0.015693381 -0.9997137
vn 0.016308488 -0.025730029 -0.9995359
vn -0.008497705 -0.16662438 -0.9859839
vn -0.008497706 -0.1666244 -0.9859839
vn 0.033484846 -0.17514549 -0.983973
vn 0.03348485 -0.17514548 -0.983973
vn 0.033484843 -0.17514546 -0.983973
vn 0.033484846 -0.17514549 -0.983973
vn -0.018018216 -0.01550267 -0.9997174
vn -0.018018216 -0.015502672 -0.9997174
vn -0.018018216 -0.015502672 -0.9997174
vn -0.018018216 -0.015502669 -0.9997174
vn -0.015988285 0.004858559 -0.9998604
vn -0.015988285 0.004858559 -0.9998604
vn -0.015988283 0.004858559 -0.9998604
vn -0.015988283 0.0048585595 -0.9998604
vn -0.016261758 0.01029321 -0.9998148
vn -0.01626176 0.010293211 -0.9998148
vn -0.016261758 0.01029321 -0.9998148
vn -0.01626176 0.01029321 -0.9998148
vn -0.0074022273 0.017053647 -0.9998272
vn -0.0074022277 0.017053649 -0.9998272
vn -0.0074022277 0.017053649 -0.9998272
vn -0.007402227 0.017053647 -0.9998272
vn 0.017097907 0.58975565 -0.80740076
vn 0.017097909 0.58975565 -0.80740076
vn -0.00030994264 0.5906783 -0.8069072
vn -0.00031212505 0.59067833 -0.8069071
vn -0.0177993 0.5914241 -0.8061642
vn -0.017799301 0.59142417 -0.80616415
vn 0.033509213 -0.83051044 -0.5559943
vn -0.08343985 -0.84135044 -0.5340106
vn -0.083439834 -0.84135044 -0.5340106
vn 0.03926617 -0.82966876 -0.5568733
vn 0.147341 -0.8084602 -0.5698094
vn 0.14734098 -0.8084602 -0.5698093
g surf_col_0
f 3/3/3 2/2/2 1/1/1
f 4/4/4 3/3/3 1/1/1
f 7/7/7 6/6/6 5/5/5
f 8/8/8 7/7/7 5/5/5
f 11/11/11 10/10/10 9/9/9
f 10/10/10 12/12/12 9/9/9
f 10/10/10 13/13/13 12/12/12
f 13/13/13 14/14/14 12/12/12
f 12/12/12 14/14/14 15/15/15
f 14/14/14 16/16/16 15/15/15
f 12/12/12 15/15/15 17/17/17
f 18/18/18 12/12/12 17/17/17
f 21/21/21 20/20/20 19/19/19
f 22/22/22 21/21/21 19/19/19
f 19/19/19 23/23/23 22/22/22
f 23/23/23 24/24/24 22/22/22
f 25/25/25 23/23/23 19/19/19
f 26/26/26 25/25/25 19/19/19
f 26/26/26 19/19/19 27/27/27
f 28/28/28 26/26/26 27/27/27
f 31/31/31 30/30/30 29/29/29
f 32/32/32 31/31/31 29/29/29
f 35/35/35 34/34/34 33/33/33
f 36/36/36 35/35/35 33/33/33
f 39/39/39 38/38/38 37/37/37
f 40/40/40 39/39/39 37/37/37
f 43/43/43 42/42/42 41/41/41
f 44/44/44 43/43/43 41/41/41
f 47/47/47 46/46/46 45/45/45
f 48/48/48 47/47/47 45/45/45
f 51/51/51 50/50/50 49/49/49
f 52/52/52 51/51/51 49/49/49
f 55/55/55 54/54/54 53/53/53
f 56/56/56 55/55/55 53/53/53
f 59/59/59 58/58/58 57/57/57
f 60/60/60 59/59/59 57/57/57
f 63/63/63 62/62/62 61/61/61
f 64/64/64 63/63/63 61/61/61
f 67/67/67 66/66/66 65/65/65
f 68/68/68 67/67/67 65/65/65
f 71/71/71 70/70/70 69/69/69
f 72/72/72 71/71/71 69/69/69
f 75/75/75 74/74/74 73/73/73
f 76/76/76 75/75/75 73/73/73
f 79/79/79 78/78/78 77/77/77
f 80/80/80 79/79/79 77/77/77
f 83/83/83 82/82/82 81/81/81
f 84/84/84 83/83/83 81/81/81
f 87/87/87 86/86/86 85/85/85
f 88/88/88 87/87/87 85/85/85
f 91/91/91 90/90/90 89/89/89
f 92/92/92 91/91/91 89/89/89
f 95/95/95 94/94/94 93/93/93
f 96/96/96 95/95/95 93/93/93
f 99/99/99 98/98/98 97/97/97
f 100/100/100 99/99/99 97/97/97
f 102/102/102 101/101/101 100/100/100
f 103/103/103 102/102/102 100/100/100
f 106/106/106 105/105/105 104/104/104
f 107/107/107 106/106/106 104/104/104
f 110/110/110 109/109/109 108/108/108
f 111/111/111 110/110/110 108/108/108
f 114/114/114 113/113/113 112/112/112
f 115/115/115 114/114/114 112/112/112
f 118/118/118 117/117/117 116/116/116
f 119/119/119 118/118/118 116/116/116
f 122/122/122 121/121/121 120/120/120
f 123/123/123 122/122/122 120/120/120
f 126/126/126 125/125/125 124/124/124
f 127/127/127 126/126/126 124/124/124
f 130/130/130 129/129/129 128/128/128
f 131/131/131 130/130/130 128/128/128
f 133/133/133 130/130/130 132/132/132
f 134/134/134 133/133/133 132/132/132
f 137/137/137 136/136/136 135/135/135
f 138/138/138 137/137/137 135/135/135
f 140/140/140 139/139/139 138/138/138
f 141/141/141 140/140/140 138/138/138
f 144/144/144 143/143/143 142/142/142
f 145/145/145 144/144/144 142/142/142
f 148/148/148 147/147/147 146/146/146
f 149/149/149 148/148/148 146/146/146
f 152/152/152 151/151/151 150/150/150
f 153/153/153 152/152/152 150/150/150
f 156/156/156 155/155/155 154/154/154
f 157/157/157 156/156/156 154/154/154
f 160/160/160 159/159/159 158/158/158
f 161/161/161 160/160/160 158/158/158
f 164/164/164 163/163/163 162/162/162
f 165/165/165 164/164/164 162/162/162
f 167/167/167 165/165/165 166/166/166
f 168/168/168 167/167/167 166/166/166
f 171/171/171 170/170/170 169/169/169
f 172/172/172 171/171/171 169/169/169
f 172/172/172 169/169/169 173/173/173
f 174/174/174 172/172/172 173/173/173
f 174/174/174 173/173/173 175/175/175
f 176/176/176 174/174/174 175/175/175
f 179/179/179 178/178/178 177/177/177
f 180/180/180 179/179/179 177/177/177
f 177/177/177 181/181/181 180/180/180
f 181/181/181 182/182/182 180/180/180
f 185/185/185 184/184/184 183/183/183
f 186/186/186 185/185/185 183/183/183
f 189/189/189 188/188/188 187/187/187
f 190/190/190 189/189/189 187/187/187
f 193/193/193 192/192/192 191/191/191
f 194/194/194 193/193/193 191/191/191
f 197/197/197 196/196/196 195/195/195
f 198/198/198 197/197/197 195/195/195
f 201/201/201 200/200/200 199/199/199
f 202/202/202 201/201/201 199/199/199
f 205/205/205 204/204/204 203/203/203
f 206/206/206 205/205/205 203/203/203
f 207/207/207 205/205/205 206/206/206
f 208/208/208 207/207/207 206/206/206
f 211/211/211 210/210/210 209/209/209
f 210/210/210 212/212/212 209/209/209
f 209/209/209 212/212/212 213/213/213
f 212/212/212 214/214/214 213/213/213
