g Text_I
v 0.04835228 0.44607717 0.08442003
v 6.7850986E-10 0.4551714 -0.08441942
v 0.04835228 0.44607717 -0.08441942
v 6.7850986E-10 0.4551714 0.08442003
v -0.048352204 0.44607717 -0.08441942
v -0.048352204 0.44607717 0.08442003
v 0.04835228 0.44607717 -0.08441942
v 0.08460907 0.4070719 0.08442003
v 0.04835228 0.44607717 0.08442003
v 0.08460907 0.4070719 -0.08441942
v 0.098359145 0.36376363 0.08442003
v 0.098359145 0.36376363 -0.08441942
v 0.10273556 -3.733481E-09 0.08442003
v 0.10273556 3.7170995E-09 -0.08441942
v 0.098359145 -0.36376017 0.08442003
v 0.098359145 -0.36376017 -0.08441942
v 0.08460907 -0.40707225 -0.08441942
v 0.08460907 -0.40707225 0.08442003
v 0.04835228 -0.44607753 -0.08441942
v 0.04835228 -0.44607753 0.08442003
v -0.048352204 0.44607717 0.08442003
v -0.084608994 0.4070719 -0.08441942
v -0.048352204 0.44607717 -0.08441942
v -0.084608994 0.4070719 0.08442003
v -0.09835907 0.36376363 -0.08441942
v -0.09835907 0.36376363 0.08442003
v -0.10273548 3.7170995E-09 -0.08441942
v -0.10273548 -3.733481E-09 0.08442003
v -0.09835907 -0.36376017 0.08442003
v -0.09835907 -0.36376017 -0.08441942
v -0.084608994 -0.40707225 0.08442003
v -0.084608994 -0.40707225 -0.08441942
v -0.048352204 -0.44607753 0.08442003
v -0.048352204 -0.44607753 -0.08441942
v 6.7850986E-10 -0.45516795 -0.08441942
v 0.04835228 -0.44607753 0.08442003
v 0.04835228 -0.44607753 -0.08441942
v 6.7850986E-10 -0.45516795 0.08442003
v -0.048352204 -0.44607753 -0.08441942
v -0.048352204 -0.44607753 0.08442003
v -0.09835907 -0.36376017 -0.08441942
v -0.051367722 3.7170995E-09 -0.08441942
v -0.10273548 3.7170995E-09 -0.08441942
v -0.084608994 -0.40707225 -0.08441942
v -0.09835907 0.36376363 -0.08441942
v -0.084608994 0.4070719 -0.08441942
v -0.048352204 -0.44607753 -0.08441942
v 6.7850986E-10 3.7170995E-09 -0.08441942
v -0.048352204 0.44607717 -0.08441942
v 6.7850986E-10 -0.45516795 -0.08441942
v 6.7850986E-10 0.4551714 -0.08441942
v 0.04835228 -0.44607753 -0.08441942
v 0.051367797 3.7170995E-09 -0.08441942
v 0.04835228 0.44607717 -0.08441942
v 0.08460907 -0.40707225 -0.08441942
v 0.08460907 0.4070719 -0.08441942
v 0.098359145 -0.36376017 -0.08441942
v 0.098359145 0.36376363 -0.08441942
v 0.10273556 3.7170995E-09 -0.08441942
v -0.09835907 -0.36376017 0.08442003
v -0.051367722 -3.733481E-09 0.08442003
v -0.084608994 -0.40707225 0.08442003
v -0.10273548 -3.733481E-09 0.08442003
v -0.09835907 0.36376363 0.08442003
v -0.084608994 0.4070719 0.08442003
v -0.048352204 -0.44607753 0.08442003
v 6.7850986E-10 -3.733481E-09 0.08442003
v -0.048352204 0.44607717 0.08442003
v 6.7850986E-10 -0.45516795 0.08442003
v 6.7850986E-10 0.4551714 0.08442003
v 0.04835228 -0.44607753 0.08442003
v 0.051367797 -3.733481E-09 0.08442003
v 0.04835228 0.44607717 0.08442003
v 0.08460907 -0.40707225 0.08442003
v 0.08460907 0.4070719 0.08442003
v 0.098359145 -0.36376017 0.08442003
v 0.098359145 0.36376363 0.08442003
v 0.10273556 -3.733481E-09 0.08442003
vt 0.3637768 0.8645814
vt 0.34268928 0.8585423
vt 0.34268928 0.86458135
vt 0.3637768 0.8585423
vt 0.34268928 0.85250324
vt 0.3637768 0.85250324
vt 0.36426014 0.8673674
vt 0.3431726 0.8624958
vt 0.3431726 0.8673674
vt 0.36426014 0.8624958
vt 0.3431726 0.8570863
vt 0.36426014 0.8570863
vt 0.3431726 0.8116536
vt 0.36426014 0.8116536
vt 0.3431726 0.7662209
vt 0.36426014 0.7662209
vt 0.36426014 0.76081145
vt 0.3431726 0.76081145
vt 0.36426014 0.75593984
vt 0.3431726 0.75593984
vt 0.36287975 0.86852014
vt 0.34179223 0.86364853
vt 0.34179223 0.86852014
vt 0.36287975 0.86364853
vt 0.34179223 0.85823905
vt 0.36287975 0.85823905
vt 0.34179223 0.81280637
vt 0.36287975 0.81280637
vt 0.36287975 0.7673737
vt 0.34179223 0.7673737
vt 0.36287975 0.7619642
vt 0.34179223 0.7619642
vt 0.36287975 0.7570926
vt 0.34179223 0.7570926
vt 0.3637768 0.84357727
vt 0.34268928 0.84961635
vt 0.3637768 0.84961635
vt 0.34268928 0.84357727
vt 0.3637768 0.83753824
vt 0.34268928 0.83753824
vt 0.28631687 0.76623356
vt 0.28034002 0.8125
vt 0.2868734 0.8125
vt 0.284568 0.76072484
vt 0.28631687 0.85876644
vt 0.284568 0.86427516
vt 0.27995652 0.7557639
vt 0.27380663 0.8125
vt 0.27995652 0.8692361
vt 0.27380663 0.7546075
vt 0.27380663 0.8703925
vt 0.26765674 0.7557639
vt 0.26727325 0.8125
vt 0.26765674 0.8692361
vt 0.2630453 0.76072484
vt 0.2630453 0.86427516
vt 0.2612964 0.76623356
vt 0.2612964 0.85876644
vt 0.26073986 0.8125
vt 0.2612964 0.76623356
vt 0.26727325 0.8125
vt 0.2630453 0.76072484
vt 0.26073986 0.8125
vt 0.2612964 0.85876644
vt 0.2630453 0.86427516
vt 0.26765674 0.7557639
vt 0.27380663 0.8125
vt 0.26765674 0.8692361
vt 0.27380663 0.7546075
vt 0.27380663 0.8703925
vt 0.27995652 0.7557639
vt 0.28034002 0.8125
vt 0.27995652 0.8692361
vt 0.284568 0.76072484
vt 0.284568 0.86427516
vt 0.28631687 0.76623356
vt 0.28631687 0.85876644
vt 0.2868734 0.8125
vn 0.4828243 0.8757172 0
vn -0 1 0
vn 0.4828243 0.8757172 0
vn -0 1 0
vn -0.4828243 0.8757172 0
vn -0.4828243 0.8757172 0
vn 0.4828243 0.8757172 0
vn 0.8637372 0.50394243 0
vn 0.4828243 0.8757172 0
vn 0.8637372 0.50394243 0
vn 0.9872721 0.15904014 0
vn 0.9872721 0.15904015 0
vn 1 0 0
vn 1 0 0
vn 0.9872721 -0.15904015 0
vn 0.9872721 -0.15904015 0
vn 0.8637372 -0.50394243 0
vn 0.8637372 -0.50394243 0
vn 0.4828243 -0.8757172 0
vn 0.4828243 -0.8757172 0
vn -0.4828243 0.8757172 0
vn -0.8637372 0.50394243 0
vn -0.4828243 0.8757172 0
vn -0.8637372 0.50394243 0
vn -0.9872721 0.15904014 0
vn -0.9872721 0.15904015 0
vn -1 0 0
vn -1 0 0
vn -0.9872721 -0.15904015 0
vn -0.9872721 -0.15904012 0
vn -0.8637372 -0.50394243 0
vn -0.8637372 -0.50394243 0
vn -0.4828243 -0.8757172 0
vn -0.4828243 -0.8757172 0
vn -0 -1 0
vn 0.4828243 -0.8757172 0
vn 0.4828243 -0.8757172 0
vn -0 -1 0
vn -0.4828243 -0.8757172 0
vn -0.4828243 -0.8757172 0
vn -0 0 -1
vn -0 0 -1
vn -0 0 -1
vn -0 0 -1
vn -0 0 -1
vn -0 0 -1
vn -0 0 -1
vn -0 0 -1
vn -0 0 -1
vn -0 0 -1
vn -0 0 -1
vn -0 0 -1
vn -0 0 -1
vn -0 0 -1
vn -0 0 -1
vn -0 0 -1
vn -0 0 -1
vn -0 0 -1
vn -0 0 -1
vn -0 0 1
vn -0 0 1
vn -0 0 1
vn -0 0 1
vn -0 0 1
vn -0 0 1
vn -0 0 1
vn -0 0 1
vn -0 0 1
vn -0 0 1
vn -0 0 1
vn -0 0 1
vn -0 0 1
vn -0 0 1
vn -0 0 1
vn -0 0 1
vn -0 0 1
vn -0 0 1
vn -0 0 1
g Text_I_0
f 3/3/3 2/2/2 1/1/1
f 4/4/4 1/1/1 2/2/2
f 2/2/2 5/5/5 4/4/4
f 6/6/6 4/4/4 5/5/5
f 9/9/9 8/8/8 7/7/7
f 10/10/10 7/7/7 8/8/8
f 8/8/8 11/11/11 10/10/10
f 12/12/12 10/10/10 11/11/11
f 11/11/11 13/13/13 12/12/12
f 14/14/14 12/12/12 13/13/13
f 13/13/13 15/15/15 14/14/14
f 16/16/16 14/14/14 15/15/15
f 16/16/16 15/15/15 17/17/17
f 18/18/18 17/17/17 15/15/15
f 17/17/17 18/18/18 19/19/19
f 20/20/20 19/19/19 18/18/18
f 23/23/23 22/22/22 21/21/21
f 24/24/24 21/21/21 22/22/22
f 22/22/22 25/25/25 24/24/24
f 26/26/26 24/24/24 25/25/25
f 25/25/25 27/27/27 26/26/26
f 28/28/28 26/26/26 27/27/27
f 28/28/28 27/27/27 29/29/29
f 30/30/30 29/29/29 27/27/27
f 29/29/29 30/30/30 31/31/31
f 32/32/32 31/31/31 30/30/30
f 31/31/31 32/32/32 33/33/33
f 34/34/34 33/33/33 32/32/32
f 37/37/37 36/36/36 35/35/35
f 38/38/38 35/35/35 36/36/36
f 35/35/35 38/38/38 39/39/39
f 40/40/40 39/39/39 38/38/38
f 43/43/43 42/42/42 41/41/41
f 44/44/44 41/41/41 42/42/42
f 43/43/43 45/45/45 42/42/42
f 46/46/46 42/42/42 45/45/45
f 42/42/42 47/47/47 44/44/44
f 42/42/42 48/48/48 47/47/47
f 49/49/49 42/42/42 46/46/46
f 42/42/42 49/49/49 48/48/48
f 50/50/50 47/47/47 48/48/48
f 51/51/51 48/48/48 49/49/49
f 50/50/50 48/48/48 52/52/52
f 53/53/53 52/52/52 48/48/48
f 51/51/51 54/54/54 48/48/48
f 53/53/53 48/48/48 54/54/54
f 52/52/52 53/53/53 55/55/55
f 53/53/53 54/54/54 56/56/56
f 55/55/55 53/53/53 57/57/57
f 56/56/56 58/58/58 53/53/53
f 59/59/59 57/57/57 53/53/53
f 59/59/59 53/53/53 58/58/58
f 62/62/62 61/61/61 60/60/60
f 63/63/63 60/60/60 61/61/61
f 63/63/63 61/61/61 64/64/64
f 65/65/65 64/64/64 61/61/61
f 66/66/66 61/61/61 62/62/62
f 61/61/61 66/66/66 67/67/67
f 61/61/61 68/68/68 65/65/65
f 61/61/61 67/67/67 68/68/68
f 69/69/69 67/67/67 66/66/66
f 70/70/70 68/68/68 67/67/67
f 69/69/69 71/71/71 67/67/67
f 72/72/72 67/67/67 71/71/71
f 70/70/70 67/67/67 73/73/73
f 72/72/72 73/73/73 67/67/67
f 72/72/72 71/71/71 74/74/74
f 73/73/73 72/72/72 75/75/75
f 74/74/74 76/76/76 72/72/72
f 75/75/75 72/72/72 77/77/77
f 78/78/78 72/72/72 76/76/76
f 78/78/78 77/77/77 72/72/72
