g textX_collision
v 0.30727372 0.44409576 0.08394472
v 0.3630013 0.38550365 0.08394472
v 0.227895 0.4462735 0.08394472
v 0.3630013 0.38550365 0.08394472
v 0.227895 0.4462735 0.08394472
v 0.34326443 0.2934711 0.08394472
v 0.227895 0.4462735 0.08394472
v 0.34326443 0.2934711 0.08394472
v 0.16798793 0.40980673 0.08394472
v 0.16798793 0.40980673 0.08394472
v 0.34326443 0.2934711 0.08394472
v 1.9748206E-06 0.16790903 0.08394472
v 0.12698391 -3.883323E-09 0.08394472
v 1.9748206E-06 -3.883323E-09 0.08394472
v 1.9748206E-06 -0.16790831 0.08394472
v 0.3226325 -0.26487905 0.08394472
v -0.12697956 -3.883323E-09 0.08394472
v -0.35251963 0.3084517 0.08394472
v -0.17392531 0.4154583 0.08394472
v -0.17392531 0.4154583 0.08394472
v -0.35251963 0.3084517 0.08394472
v -0.23547228 0.44799057 0.08394472
v -0.35251963 0.3084517 0.08394472
v -0.23547228 0.44799057 0.08394472
v -0.35876545 0.39208797 0.08394472
v -0.31106198 0.44240895 0.08394472
v -0.3525211 -0.30845347 0.08394472
v -0.17392495 -0.41545922 0.08394472
v -0.17392495 -0.41545922 0.08394472
v -0.3525211 -0.30845347 0.08394472
v -0.23547228 -0.44799176 0.08394472
v -0.3525211 -0.30845347 0.08394472
v -0.23547228 -0.44799176 0.08394472
v -0.35876545 -0.39208916 0.08394472
v -0.31106198 -0.44241014 0.08394472
v 0.16798742 -0.40980747 0.08394472
v 0.3226325 -0.26487905 0.08394472
v 0.16798742 -0.40980747 0.08394472
v 0.35803175 -0.32556814 0.08394472
v 0.227895 -0.4462747 0.08394472
v 0.35803175 -0.32556814 0.08394472
v 0.227895 -0.4462747 0.08394472
v 0.35699344 -0.39645132 0.08394472
v 0.29374722 -0.44699728 0.08394472
v 0.35699344 -0.39645132 0.08394472
v 0.31667164 -0.43847144 0.08394472
v 0.12698391 -3.883323E-09 0.08394472
v 0.12593664 0.0015608214 -0.08394487
v 0.34326443 0.2934711 0.08394472
v 0.33225262 0.27723128 -0.08394487
v 0.33225262 0.27723128 -0.08394487
v 0.34326443 0.2934711 0.08394472
v 0.3583795 0.32996482 -0.08394487
v 0.34326443 0.2934711 0.08394472
v 0.3583795 0.32996482 -0.08394487
v 0.3630013 0.38550365 0.08394472
v 0.3587698 0.39208797 -0.08394487
v 1.9748206E-06 0.16790903 -0.08394487
v 0.16798793 0.40980673 0.08394472
v 1.9748206E-06 0.16790903 0.08394472
v 0.17392816 0.41545713 -0.08394487
v 0.16798793 0.40980673 0.08394472
v 0.17392816 0.41545713 -0.08394487
v 0.227895 0.4462735 0.08394472
v 0.22057696 0.4429885 -0.08394487
v 0.22057696 0.4429885 -0.08394487
v 0.227895 0.4462735 0.08394472
v 0.28566808 0.44904336 -0.08394487
v 0.30727372 0.44409576 0.08394472
v 0.28566808 0.44904336 -0.08394487
v 0.30727372 0.44409576 0.08394472
v 0.31667164 0.43847024 -0.08394487
v 0.3630013 0.38550365 0.08394472
v 0.3587698 0.39208797 -0.08394487
v 0.12593664 0.0015608214 -0.08394487
v 0.3226325 -0.26487905 0.08394472
v 0.12698391 -3.883323E-09 0.08394472
v 0.3413766 -0.29070675 -0.08394487
v 0.3226325 -0.26487905 0.08394472
v 0.3413766 -0.29070675 -0.08394487
v 0.35803175 -0.32556814 0.08394472
v 0.3413766 -0.29070675 -0.08394487
v 0.35803175 -0.32556814 0.08394472
v 0.36356997 -0.3601444 -0.08394487
v 0.35803175 -0.32556814 0.08394472
v 0.36356997 -0.3601444 -0.08394487
v 0.35699344 -0.39645132 0.08394472
v -0.12697956 3.5672578E-09 -0.08394487
v -0.35251963 0.3084517 0.08394472
v -0.12697956 -3.883323E-09 0.08394472
v -0.322613 0.26443872 -0.08394487
v -0.322613 0.26443872 -0.08394487
v -0.35251963 0.3084517 0.08394472
v -0.35802823 0.3255732 -0.08394487
v -0.35251963 0.3084517 0.08394472
v -0.35802823 0.3255732 -0.08394487
v -0.35876545 0.39208797 0.08394472
v -0.36065838 0.38047922 -0.08394487
v -0.35876545 0.39208797 0.08394472
v -0.3517854 0.40393198 -0.08394487
v 1.9748206E-06 0.16790903 0.08394472
v -0.1679858 0.4098086 -0.08394487
v 1.9748206E-06 0.16790903 -0.08394487
v -0.17392531 0.4154583 0.08394472
v -0.1679858 0.4098086 -0.08394487
v -0.17392531 0.4154583 0.08394472
v -0.2162385 0.4415111 -0.08394487
v -0.23547228 0.44799057 0.08394472
v -0.23547228 0.44799057 0.08394472
v -0.2639291 0.4492048 -0.08394487
v -0.2162385 0.4415111 -0.08394487
v -0.23547228 0.44799057 0.08394472
v -0.30726936 0.44409576 -0.08394487
v -0.31106198 0.44240895 0.08394472
v -0.30726936 0.44409576 -0.08394487
v -0.31106198 0.44240895 0.08394472
v -0.3517854 0.40393198 -0.08394487
v -0.35876545 0.39208797 0.08394472
v -0.3525211 -0.30845347 0.08394472
v -0.12697956 3.5672578E-09 -0.08394487
v -0.12697956 -3.883323E-09 0.08394472
v -0.3338688 -0.27977028 -0.08394487
v -0.3338688 -0.27977028 -0.08394487
v -0.3525211 -0.30845347 0.08394472
v -0.35941163 -0.33410653 -0.08394487
v -0.3525211 -0.30845347 0.08394472
v -0.35941163 -0.33410653 -0.08394487
v -0.35876545 -0.39208916 0.08394472
v -0.3569891 -0.39645132 -0.08394487
v 0.28566808 0.44904336 -0.08394487
v 0.3587698 0.39208797 -0.08394487
v 0.31667164 0.43847024 -0.08394487
v 0.3587698 0.39208797 -0.08394487
v 0.28566808 0.44904336 -0.08394487
v 0.3583795 0.32996482 -0.08394487
v 0.22057696 0.4429885 -0.08394487
v 0.3583795 0.32996482 -0.08394487
v 0.22057696 0.4429885 -0.08394487
v 0.33225262 0.27723128 -0.08394487
v 0.17392816 0.41545713 -0.08394487
v 0.33225262 0.27723128 -0.08394487
v 0.17392816 0.41545713 -0.08394487
v 0.12593664 0.0015608214 -0.08394487
v 1.9748206E-06 0.16790903 -0.08394487
v 0.12593664 0.0015608214 -0.08394487
v 1.9748206E-06 3.5672578E-09 -0.08394487
v 1.9748206E-06 -0.16790831 -0.08394487
v 0.3413766 -0.29070675 -0.08394487
v -0.12697956 3.5672578E-09 -0.08394487
v -0.322613 0.26443872 -0.08394487
v -0.1679858 0.4098086 -0.08394487
v -0.322613 0.26443872 -0.08394487
v -0.1679858 0.4098086 -0.08394487
v -0.35802823 0.3255732 -0.08394487
v -0.2162385 0.4415111 -0.08394487
v -0.2162385 0.4415111 -0.08394487
v -0.35802823 0.3255732 -0.08394487
v -0.2639291 0.4492048 -0.08394487
v -0.36065838 0.38047922 -0.08394487
v -0.30726936 0.44409576 -0.08394487
v -0.3517854 0.40393198 -0.08394487
v -0.3338688 -0.27977028 -0.08394487
v -0.13893864 -0.3726641 -0.08394487
v -0.3338688 -0.27977028 -0.08394487
v -0.18321773 -0.4223963 -0.08394487
v -0.3338688 -0.27977028 -0.08394487
v -0.22789066 -0.4462747 -0.08394487
v -0.35941163 -0.33410653 -0.08394487
v -0.35941163 -0.33410653 -0.08394487
v -0.22789066 -0.4462747 -0.08394487
v -0.3569891 -0.39645132 -0.08394487
v -0.30726936 -0.44409695 -0.08394487
v 0.13894203 -0.3726641 -0.08394487
v 0.3413766 -0.29070675 -0.08394487
v 0.18322209 -0.4223963 -0.08394487
v 0.3413766 -0.29070675 -0.08394487
v 0.20867184 -0.4378687 -0.08394487
v 0.3413766 -0.29070675 -0.08394487
v 0.251767 -0.44911566 -0.08394487
v 0.36356997 -0.3601444 -0.08394487
v 0.251767 -0.44911566 -0.08394487
v 0.36356997 -0.3601444 -0.08394487
v 0.31106633 -0.44241014 -0.08394487
v 0.35178974 -0.40393317 -0.08394487
v 0.16798742 -0.40980747 0.08394472
v 1.9748206E-06 -0.16790831 -0.08394487
v 1.9748206E-06 -0.16790831 0.08394472
v 0.13894203 -0.3726641 -0.08394487
v 0.16798742 -0.40980747 0.08394472
v 0.13894203 -0.3726641 -0.08394487
v 0.18322209 -0.4223963 -0.08394487
v 0.227895 -0.4462747 0.08394472
v 0.18322209 -0.4223963 -0.08394487
v 0.16798742 -0.40980747 0.08394472
v 0.20867184 -0.4378687 -0.08394487
v 0.227895 -0.4462747 0.08394472
v 0.251767 -0.44911566 -0.08394487
v 0.227895 -0.4462747 0.08394472
v 0.251767 -0.44911566 -0.08394487
v 0.29374722 -0.44699728 0.08394472
v 0.31106633 -0.44241014 -0.08394487
v 0.31667164 -0.43847144 0.08394472
v 0.31106633 -0.44241014 -0.08394487
v 0.35699344 -0.39645132 0.08394472
v 0.35178974 -0.40393317 -0.08394487
v 0.35699344 -0.39645132 0.08394472
v 0.35178974 -0.40393317 -0.08394487
v 0.36356997 -0.3601444 -0.08394487
v 1.9748206E-06 -0.16790831 0.08394472
v -0.13893864 -0.3726641 -0.08394487
v -0.17392495 -0.41545922 0.08394472
v 1.9748206E-06 -0.16790831 -0.08394487
v -0.17392495 -0.41545922 0.08394472
v -0.18321773 -0.4223963 -0.08394487
v -0.13893864 -0.3726641 -0.08394487
v -0.22789066 -0.4462747 -0.08394487
v -0.17392495 -0.41545922 0.08394472
v -0.18321773 -0.4223963 -0.08394487
v -0.23547228 -0.44799176 0.08394472
v -0.22789066 -0.4462747 -0.08394487
v -0.23547228 -0.44799176 0.08394472
v -0.30726936 -0.44409695 -0.08394487
v -0.31106198 -0.44241014 0.08394472
v -0.30726936 -0.44409695 -0.08394487
v -0.31106198 -0.44241014 0.08394472
v -0.3569891 -0.39645132 -0.08394487
v -0.35876545 -0.39208916 0.08394472
vt 0.56804615 0.10005796
vt 0.57359594 0.092409536
vt 0.56372833 0.10056692
vt 0.57331693 0.08974171
vt 0.5619833 0.100497216
vt 0.5721261 0.08620303
vt 0.5601377 0.100274846
vt 0.57091606 0.083780475
vt 0.55568695 0.09789586
vt 0.5512754 0.092940986
vt 0.5650108 0.07621223
vt 0.5374328 0.07254118
vt 0.550084 0.05581242
vt 0.5374328 0.05581242
vt 0.5374328 0.0390836
vt 0.5695766 0.029422408
vt 0.52478147 0.05581242
vt 0.5057027 0.081659615
vt 0.5235901 0.092941046
vt 0.5201089 0.09719989
vt 0.5029335 0.085800685
vt 0.5166429 0.0994373
vt 0.5015485 0.08974171
vt 0.5123493 0.10055793
vt 0.50168854 0.094876334
vt 0.5081669 0.10034686
vt 0.5098547 0.03541258
vt 0.52010435 0.014420063
vt 0.5191785 0.013728917
vt 0.50375974 0.027847886
vt 0.51397234 0.011178911
vt 0.5015485 0.0218831
vt 0.5111371 0.011057913
vt 0.5014999 0.017905116
vt 0.5064414 0.011734923
vt 0.5512754 0.018683761
vt 0.5695729 0.029527605
vt 0.55416924 0.014981634
vt 0.57212627 0.02542146
vt 0.55822253 0.0121875405
vt 0.57331693 0.0218831
vt 0.56198335 0.011127603
vt 0.57299995 0.016313823
vt 0.56669855 0.011277914
vt 0.5724815 0.015568376
vt 0.5689825 0.01212734
vt 0.6030593 0.017211974
vt 0.6221591 0.017270833
vt 0.6030593 0.040505707
vt 0.6221591 0.047225535
vt 0.6221591 0.049987614
vt 0.6030593 0.049987614
vt 0.6221591 0.052749753
vt 0.6030593 0.052749753
vt 0.6221591 0.055954516
vt 0.6030593 0.055954516
vt 0.6221591 0.060496807
vt 0.62264276 0.11767036
vt 0.60795057 0.09975207
vt 0.60795057 0.11767036
vt 0.62264276 0.09975207
vt 0.60795057 0.096676566
vt 0.62264276 0.095399976
vt 0.60795057 0.09317285
vt 0.62264276 0.09317285
vt 0.6208831 0.041745305
vt 0.6017833 0.03835371
vt 0.6208831 0.035893336
vt 0.6017833 0.034962118
vt 0.6208831 0.034962118
vt 0.6017833 0.032354206
vt 0.6208831 0.032354206
vt 0.6017833 0.028358757
vt 0.6208831 0.028358757
vt 0.62228096 0.11800873
vt 0.6075889 0.100090444
vt 0.6075889 0.11800873
vt 0.62228096 0.100090444
vt 0.6075889 0.09492141
vt 0.62228096 0.09279668
vt 0.6075889 0.09279668
vt 0.62228096 0.090672016
vt 0.6075889 0.090672016
vt 0.62228096 0.08820683
vt 0.6075889 0.08918607
vt 0.62228096 0.084712744
vt 0.6075889 0.084712744
vt 0.6022235 0.006328404
vt 0.62132335 0.029622167
vt 0.62132335 0.006328404
vt 0.6022235 0.029622167
vt 0.6022235 0.036341965
vt 0.62132263 0.038522523
vt 0.6022235 0.039104074
vt 0.62132335 0.045070946
vt 0.6022235 0.045070946
vt 0.62132335 0.049613237
vt 0.6022235 0.049613237
vt 0.62132335 0.05228144
vt 0.6022235 0.05228144
vt 0.62212646 0.11808252
vt 0.6074343 0.100164235
vt 0.6074343 0.11808252
vt 0.62212646 0.100164235
vt 0.6074343 0.09581214
vt 0.62212646 0.09581214
vt 0.6074343 0.093585014
vt 0.62212646 0.093585014
vt 0.602654 0.025359124
vt 0.6217538 0.028750718
vt 0.6217538 0.025359124
vt 0.602654 0.028750718
vt 0.6217538 0.03214234
vt 0.602654 0.03214234
vt 0.6217538 0.033601936
vt 0.602654 0.034750223
vt 0.6217538 0.03874567
vt 0.602654 0.03874567
vt 0.6216382 0.1001935
vt 0.606946 0.11811179
vt 0.6216382 0.11811179
vt 0.606946 0.1001935
vt 0.60694593 0.09352221
vt 0.62163633 0.089444704
vt 0.606946 0.09077501
vt 0.6216382 0.088309824
vt 0.606946 0.088840224
vt 0.6216382 0.0848158
vt 0.606946 0.0848158
vt 0.5081669 0.10034686
vt 0.50238395 0.0960564
vt 0.505883 0.0994975
vt 0.50172955 0.09488672
vt 0.5111371 0.10056692
vt 0.5015485 0.08974171
vt 0.5154568 0.099947564
vt 0.5017274 0.08868694
vt 0.5166429 0.0994373
vt 0.50369 0.08451611
vt 0.52010447 0.09720463
vt 0.5043306 0.08343306
vt 0.5235901 0.092941046
vt 0.5098547 0.07621223
vt 0.5374328 0.07254118
vt 0.52478147 0.05581242
vt 0.5374328 0.05581242
vt 0.5374328 0.0390836
vt 0.5098547 0.03541258
vt 0.550084 0.05581242
vt 0.5650108 0.07621223
vt 0.55416936 0.096641846
vt 0.5695751 0.082158625
vt 0.55568695 0.09789586
vt 0.57117546 0.08451611
vt 0.55822253 0.0994373
vt 0.5607581 0.10022336
vt 0.57331693 0.08974171
vt 0.56372833 0.10056692
vt 0.57336557 0.09371966
vt 0.56669855 0.10034686
vt 0.5724815 0.0960564
vt 0.56932414 0.029793086
vt 0.5512754 0.018683761
vt 0.5695729 0.029527605
vt 0.55568695 0.013728917
vt 0.57117546 0.02710867
vt 0.55822253 0.0121875405
vt 0.57241297 0.024689704
vt 0.57331693 0.0218831
vt 0.5614034 0.011063205
vt 0.57299995 0.016313823
vt 0.56669855 0.011277914
vt 0.5235901 0.018683761
vt 0.5055413 0.029793113
vt 0.5191785 0.013728917
vt 0.50369 0.02710867
vt 0.5166429 0.0121875405
vt 0.50293326 0.025823748
vt 0.5123493 0.011066898
vt 0.5015485 0.0218831
vt 0.5111371 0.011057913
vt 0.5012451 0.019931415
vt 0.5064415 0.011734927
vt 0.50238395 0.015568376
vt 0.6216968 0.095318615
vt 0.6025971 0.11861235
vt 0.6216968 0.11861235
vt 0.6025971 0.095318615
vt 0.6235001 0.008774728
vt 0.6044003 0.01443246
vt 0.6044003 0.008774728
vt 0.6217538 0.056794047
vt 0.602654 0.059689343
vt 0.6217538 0.059689343
vt 0.602654 0.056794047
vt 0.6217538 0.05389875
vt 0.602654 0.05389875
vt 0.6217538 0.05050713
vt 0.602654 0.05050713
vt 0.6217538 0.047115564
vt 0.602654 0.047115564
vt 0.6217538 0.044507682
vt 0.602654 0.044507682
vt 0.6217538 0.040512204
vt 0.602654 0.040512204
vt 0.60349464 0.042711318
vt 0.62259436 0.040043056
vt 0.62259436 0.042711318
vt 0.6024642 0.118671596
vt 0.62156403 0.09537786
vt 0.6024642 0.09537786
vt 0.62156403 0.118671596
vt 0.60349464 0.04360044
vt 0.62259436 0.037942678
vt 0.62259436 0.04360044
vt 0.60308933 0.050321966
vt 0.62218916 0.04652363
vt 0.60308933 0.04652363
vt 0.62218916 0.049418926
vt 0.60308933 0.055705845
vt 0.62218916 0.055705845
vt 0.60308933 0.060557004
vt 0.62218916 0.05909741
vt 0.60308933 0.06170529
vt 0.62218916 0.06170529
vt 0.60308933 0.06570077
vt 0.62218916 0.06570077
vn -0 0 1
vn -0 0 1
vn -0 0 1
vn -0 0 1
vn -0 0 1
vn -0 0 1
vn -0 0 1
vn -0 0 1
vn -0 0 1
vn -0 0 1
vn -0 0 1
vn -0 0 1
vn -0 0 1
vn -0 0 1
vn -0 0 1
vn -0 0 1
vn -0 0 1
vn -0 0 1
vn -0 0 1
vn -0 0 1
vn -0 0 1
vn -0 0 1
vn -0 0 1
vn -0 0 1
vn -0 0 1
vn -0 0 1
vn -0 0 1
vn -0 0 1
vn -0 0 1
vn -0 0 1
vn -0 0 1
vn -0 0 1
vn -0 0 1
vn -0 0 1
vn -0 0 1
vn -0 0 1
vn -0 0 1
vn -0 0 1
vn -0 0 1
vn -0 0 1
vn -0 0 1
vn -0 0 1
vn -0 0 1
vn -0 0 1
vn -0 0 1
vn -0 0 1
vn 1 0 0
vn 0.99999887 -0.0015210835 0
vn 0.79875547 -0.6016557 0
vn 0.812556 -0.5828831 0
vn 0.863313 -0.5046689 0
vn 0.863313 -0.5046689 0
vn 0.924056 -0.38225704 0
vn 0.924056 -0.3822571 0
vn 0.9869227 -0.16119382 0
vn 0.9869227 -0.16119382 0
vn 0.9847756 0.17383012 0
vn -0 1 0
vn -0.78887117 0.61455864 0
vn -0 1 0
vn -0.78887117 0.61455864 0
vn -0.68708104 0.7265808 0
vn -0.6402132 0.7681973 0
vn -0.4108791 0.9116899 0
vn -0.4108791 0.9116899 0
vn -0.20639238 0.9784693 0
vn -0.020604733 0.99978775 0
vn 0.14993735 0.98869544 0
vn 0.21334489 0.97697693 0
vn 0.21334492 0.97697693 0
vn 0.53672296 0.84375846 0
vn 0.536723 0.84375846 0
vn 0.8377149 0.54610777 0
vn 0.8377149 0.54610777 0
vn 1 0 0
vn 0.79875547 0.6016557 0
vn 1 0 0
vn 0.79875547 0.6016557 0
vn 0.812556 0.5828831 0
vn 0.863313 0.5046689 0
vn 0.863313 0.5046689 0
vn 0.924056 0.38225704 0
vn 0.924056 0.38225704 0
vn 0.9869227 0.16119386 0
vn 0.9680918 0.250596 0
vn 0.98477584 -0.17382911 0
vn 0.98477584 -0.17382911 0
vn -1 0 0
vn -0.79875547 -0.60165584 0
vn -1 0 0
vn -0.79875547 -0.6016557 0
vn -0.812556 -0.5828831 0
vn -0.853243 -0.5215135 0
vn -0.863313 -0.5046689 0
vn -0.9869227 -0.16119382 0
vn -0.9869227 -0.16119386 0
vn -0.9847756 0.17383012 0
vn -0.9847756 0.1738301 0
vn -0.8377149 0.54610777 0
vn -0.8377149 0.54610777 0
vn -0 1 0
vn 0.78887117 0.61455864 0
vn -0 1 0
vn 0.7888712 0.6145586 0
vn 0.64021325 0.76819724 0
vn 0.6402132 0.7681973 0
vn 0.4108791 0.9116899 0
vn 0.4108791 0.9116899 0
vn 0.20639239 0.9784693 0
vn 0.020604732 0.99978775 0
vn 0.20639238 0.9784693 0
vn 0.02060474 0.99978775 0
vn -0.21334489 0.97697693 0
vn -0.21334493 0.97697693 0
vn -0.40041655 0.9163332 0
vn -0.53672296 0.84375846 0
vn -0.8377149 0.54610777 0
vn -0.8377149 0.54610777 0
vn -0.79875547 0.60165584 0
vn -1 0 0
vn -1 0 0
vn -0.79875547 0.6016557 0
vn -0.8492079 0.52805877 0
vn -0.9643293 0.26470548 0
vn -0.924056 0.3822571 0
vn -0.9869227 0.16119386 0
vn -0.97776717 0.20969364 0
vn -0.98477584 -0.17382911 0
vn -0.98477584 -0.17382914 0
vn -0 0 -1
vn -0 0 -1
vn -0 0 -1
vn -0 0 -1
vn -0 0 -1
vn -0 0 -1
vn -0 0 -1
vn -0 0 -1
vn -0 0 -1
vn -0 0 -1
vn -0 0 -1
vn -0 0 -1
vn -0 0 -1
vn -0 0 -1
vn -0 0 -1
vn -0 0 -1
vn -0 0 -1
vn -0 0 -1
vn -0 0 -1
vn -0 0 -1
vn -0 0 -1
vn -0 0 -1
vn -0 0 -1
vn -0 0 -1
vn -0 0 -1
vn -0 0 -1
vn -0 0 -1
vn -0 0 -1
vn -0 0 -1
vn -0 0 -1
vn -0 0 -1
vn -0 0 -1
vn -0 0 -1
vn -0 0 -1
vn -0 0 -1
vn -0 0 -1
vn -0 0 -1
vn -0 0 -1
vn -0 0 -1
vn -0 0 -1
vn -0 0 -1
vn -0 0 -1
vn -0 0 -1
vn -0 0 -1
vn -0 0 -1
vn -0 0 -1
vn -0 0 -1
vn -0 0 -1
vn -0 0 -1
vn -0 0 -1
vn -0 0 -1
vn -0 0 -1
vn -0 0 -1
vn -0 0 -1
vn -0 0 -1
vn -0.7888709 -0.61455905 0
vn -0 -1 0
vn -0 -1 0
vn -0.78887093 -0.61455905 0
vn -0.64021266 -0.76819766 0
vn -0.78887093 -0.61455905 0
vn -0.64021266 -0.76819766 0
vn -0.4108791 -0.9116899 0
vn -0.64021266 -0.76819766 0
vn -0.64021266 -0.76819766 0
vn -0.4108791 -0.9116899 0
vn -0.20639238 -0.9784693 0
vn -0.20639239 -0.9784693 0
vn -0.02060709 -0.9997876 0
vn -0.020607093 -0.9997876 0
vn 0.21334788 -0.97697634 0
vn 0.21334788 -0.97697634 0
vn 0.5367268 -0.8437561 0
vn 0.5367268 -0.8437561 0
vn 0.83771497 -0.54610777 0
vn 0.83771497 -0.5461077 0
vn 0.98477584 -0.17382911 0
vn 0.83771497 -0.5461077 0
vn 0.98477584 -0.17382911 0
vn -0 -1 0
vn 0.7888709 -0.61455905 0
vn 0.78887093 -0.61455905 0
vn -0 -1 0
vn 0.78887093 -0.61455905 0
vn 0.64021266 -0.76819766 0
vn 0.7888709 -0.61455905 0
vn 0.34883654 -0.9371836 0
vn 0.64021266 -0.76819766 0
vn 0.64021266 -0.76819766 0
vn 0.4108791 -0.9116899 0
vn 0.02060709 -0.9997876 0
vn 0.020607091 -0.9997876 0
vn -0.40042007 -0.9163317 0
vn -0.21334788 -0.97697634 0
vn -0.5367268 -0.8437561 0
vn -0.5367267 -0.8437562 0
vn -0.83771497 -0.54610777 0
vn -0.83771497 -0.5461077 0
g textX_collision_0
f 1/1/1 3/3/3 2/2/2
f 6/6/6 4/4/4 5/5/5
f 7/7/7 9/9/9 8/8/8
f 10/10/10 12/12/12 11/11/11
f 13/13/13 11/11/11 12/12/12
f 12/12/12 14/14/14 13/13/13
f 14/14/14 15/15/15 13/13/13
f 13/13/13 15/15/15 16/16/16
f 14/14/14 12/12/12 17/17/17
f 15/15/15 14/14/14 17/17/17
f 17/17/17 12/12/12 18/18/18
f 19/19/19 18/18/18 12/12/12
f 22/22/22 21/21/21 20/20/20
f 23/23/23 24/24/24 25/25/25
f 26/26/26 25/25/25 24/24/24
f 17/17/17 27/27/27 15/15/15
f 28/28/28 15/15/15 27/27/27
f 31/31/31 29/29/29 30/30/30
f 32/32/32 34/34/34 33/33/33
f 35/35/35 33/33/33 34/34/34
f 36/36/36 16/16/16 15/15/15
f 37/37/37 38/38/38 39/39/39
f 40/40/40 39/39/39 38/38/38
f 41/41/41 42/42/42 43/43/43
f 44/44/44 43/43/43 42/42/42
f 46/46/46 45/45/45 44/44/44
f 49/49/49 47/47/47 48/48/48
f 48/48/48 50/50/50 49/49/49
f 51/51/51 53/53/53 52/52/52
f 56/56/56 54/54/54 55/55/55
f 55/55/55 57/57/57 56/56/56
f 60/60/60 59/59/59 58/58/58
f 61/61/61 58/58/58 59/59/59
f 62/62/62 64/64/64 63/63/63
f 65/65/65 63/63/63 64/64/64
f 68/68/68 66/66/66 67/67/67
f 67/67/67 69/69/69 68/68/68
f 72/72/72 70/70/70 71/71/71
f 71/71/71 73/73/73 72/72/72
f 74/74/74 72/72/72 73/73/73
f 77/77/77 76/76/76 75/75/75
f 78/78/78 75/75/75 76/76/76
f 81/81/81 80/80/80 79/79/79
f 82/82/82 83/83/83 84/84/84
f 87/87/87 86/86/86 85/85/85
f 90/90/90 89/89/89 88/88/88
f 91/91/91 88/88/88 89/89/89
f 94/94/94 92/92/92 93/93/93
f 95/95/95 97/97/97 96/96/96
f 98/98/98 96/96/96 97/97/97
f 100/100/100 98/98/98 99/99/99
f 103/103/103 102/102/102 101/101/101
f 104/104/104 101/101/101 102/102/102
f 105/105/105 107/107/107 106/106/106
f 108/108/108 106/106/106 107/107/107
f 111/111/111 110/110/110 109/109/109
f 110/110/110 113/113/113 112/112/112
f 114/114/114 112/112/112 113/113/113
f 115/115/115 117/117/117 116/116/116
f 118/118/118 116/116/116 117/117/117
f 121/121/121 120/120/120 119/119/119
f 122/122/122 119/119/119 120/120/120
f 125/125/125 124/124/124 123/123/123
f 126/126/126 127/127/127 128/128/128
f 129/129/129 128/128/128 127/127/127
f 132/132/132 131/131/131 130/130/130
f 135/135/135 134/134/134 133/133/133
f 134/134/134 135/135/135 136/136/136
f 139/139/139 138/138/138 137/137/137
f 138/138/138 139/139/139 140/140/140
f 143/143/143 142/142/142 141/141/141
f 142/142/142 143/143/143 144/144/144
f 146/146/146 144/144/144 145/145/145
f 147/147/147 146/146/146 145/145/145
f 145/145/145 148/148/148 147/147/147
f 144/144/144 146/146/146 149/149/149
f 146/146/146 147/147/147 149/149/149
f 149/149/149 150/150/150 144/144/144
f 151/151/151 144/144/144 150/150/150
f 152/152/152 154/154/154 153/153/153
f 155/155/155 153/153/153 154/154/154
f 158/158/158 156/156/156 157/157/157
f 157/157/157 159/159/159 158/158/158
f 160/160/160 158/158/158 159/159/159
f 159/159/159 161/161/161 160/160/160
f 149/149/149 147/147/147 162/162/162
f 163/163/163 162/162/162 147/147/147
f 165/165/165 164/164/164 163/163/163
f 167/167/167 166/166/166 165/165/165
f 166/166/166 167/167/167 168/168/168
f 169/169/169 170/170/170 171/171/171
f 172/172/172 171/171/171 170/170/170
f 173/173/173 147/147/147 148/148/148
f 175/175/175 173/173/173 174/174/174
f 177/177/177 175/175/175 176/176/176
f 179/179/179 177/177/177 178/178/178
f 178/178/178 180/180/180 179/179/179
f 183/183/183 181/181/181 182/182/182
f 182/182/182 184/184/184 183/183/183
f 187/187/187 186/186/186 185/185/185
f 188/188/188 185/185/185 186/186/186
f 191/191/191 189/189/189 190/190/190
f 194/194/194 193/193/193 192/192/192
f 195/195/195 192/192/192 193/193/193
f 197/197/197 196/196/196 195/195/195
f 198/198/198 199/199/199 200/200/200
f 201/201/201 200/200/200 199/199/199
f 200/200/200 201/201/201 202/202/202
f 202/202/202 203/203/203 204/204/204
f 205/205/205 204/204/204 203/203/203
f 208/208/208 206/206/206 207/207/207
f 211/211/211 210/210/210 209/209/209
f 212/212/212 209/209/209 210/210/210
f 215/215/215 213/213/213 214/214/214
f 218/218/218 217/217/217 216/216/216
f 219/219/219 216/216/216 217/217/217
f 220/220/220 221/221/221 222/222/222
f 223/223/223 222/222/222 221/221/221
f 224/224/224 225/225/225 226/226/226
f 227/227/227 226/226/226 225/225/225
