g textC_collision
v 0.33300877 0.35092348 0.08563796
v 0.3227532 0.25611925 0.08563796
v 0.28577858 0.22105367 0.08563796
v 0.21268 0.44466326 0.08563796
v 0.28577858 0.22105367 0.08563796
v 0.20765154 0.21984106 0.08563796
v 0.20765154 0.21984106 0.08563796
v 0.21268 0.44466326 0.08563796
v 0.046237502 0.2634017 0.08563796
v 0.006579298 0.4650104 0.08563796
v 0.046237502 0.2634017 0.08563796
v -0.06488841 0.22323495 0.08563796
v 0.006579298 0.4650104 0.08563796
v -0.19232573 0.39139366 0.08563796
v -0.19232573 0.39139366 0.08563796
v -0.33445248 0.20601496 0.08563796
v -0.06488841 0.22323495 0.08563796
v -0.13457301 0.10445371 0.08563796
v -0.33445248 0.20601496 0.08563796
v -0.13457301 0.10445371 0.08563796
v -0.37635574 -0.0016257064 0.08563796
v -0.14809369 -0.024376484 0.08563796
v -0.37635574 -0.0016257064 0.08563796
v -0.14809369 -0.024376484 0.08563796
v -0.33630404 -0.21478988 0.08563796
v -0.114193685 -0.15820676 0.08563796
v -0.33630404 -0.21478988 0.08563796
v -0.114193685 -0.15820676 0.08563796
v -0.052281633 -0.23029852 0.08563796
v -0.24505307 -0.34196997 0.08563796
v -0.14480034 -0.41944596 0.08563796
v -0.14480034 -0.41944596 0.08563796
v 0.008821177 -0.46516138 0.08563796
v 0.008821177 -0.46516138 0.08563796
v 0.042434253 -0.26464123 0.08563796
v 0.042434253 -0.26464123 0.08563796
v 0.17830536 -0.45280153 0.08563796
v 0.17830536 -0.45280153 0.08563796
v 0.16447057 -0.23914802 0.08563796
v 0.27302086 -0.41751832 0.08563796
v 0.16447057 -0.23914802 0.08563796
v 0.27302086 -0.41751832 0.08563796
v 0.28424102 -0.18770593 0.08563796
v 0.28424102 -0.18770593 0.08563796
v 0.35727063 -0.22390604 0.08563796
v 0.34820867 -0.3609023 0.08563796
v 0.35727063 -0.22390604 0.08563796
v 0.37541324 -0.30109626 0.08563796
v -0.19232573 0.39139366 0.08563796
v -0.33659825 0.20611724 -0.08563718
v -0.23571087 0.34809732 -0.08563718
v -0.33445248 0.20601496 0.08563796
v -0.33659825 0.20611724 -0.08563718
v -0.33445248 0.20601496 0.08563796
v -0.37635574 -0.0016257064 0.08563796
v -0.37301135 0.022774916 -0.08563718
v -0.37301135 0.022774916 -0.08563718
v -0.37635574 -0.0016257064 0.08563796
v -0.36834788 -0.07924222 -0.08563718
v -0.37635574 -0.0016257064 0.08563796
v -0.33630404 -0.21478988 0.08563796
v -0.3484466 -0.1762538 -0.08563718
v -0.33630404 -0.21478988 0.08563796
v -0.27670074 -0.31090719 -0.08563718
v -0.24505307 -0.34196997 0.08563796
v -0.06488841 0.22323495 0.08563796
v -0.034812666 0.24427885 -0.08563718
v 0.046237502 0.2634017 0.08563796
v 0.09679304 0.2590362 -0.08563718
v 0.046237502 0.2634017 0.08563796
v 0.09679304 0.2590362 -0.08563718
v 0.20765154 0.21984106 0.08563796
v 0.23290764 0.21165736 -0.08563718
v 0.20765154 0.21984106 0.08563796
v 0.23290764 0.21165736 -0.08563718
v 0.28577858 0.22105367 0.08563796
v 0.31162754 0.23894665 -0.08563718
v -0.034812666 0.24427885 -0.08563718
v -0.06488841 0.22323495 0.08563796
v -0.09499623 0.18341875 -0.08563718
v -0.13457301 0.10445371 0.08563796
v -0.13670473 0.09702973 -0.08563718
v -0.13457301 0.10445371 0.08563796
v -0.13670473 0.09702973 -0.08563718
v -0.14809369 -0.024376484 0.08563796
v -0.14348623 -0.07470672 -0.08563718
v -0.14809369 -0.024376484 0.08563796
v -0.14348623 -0.07470672 -0.08563718
v -0.114193685 -0.15820676 0.08563796
v -0.09499623 -0.18438864 -0.08563718
v -0.114193685 -0.15820676 0.08563796
v -0.030272488 -0.24674688 -0.08563718
v -0.052281633 -0.23029852 0.08563796
v -0.23571087 0.34809732 -0.08563718
v -0.19232573 0.39139366 0.08563796
v -0.1291266 0.42571655 -0.08563718
v -0.19232573 0.39139366 0.08563796
v -0.1291266 0.42571655 -0.08563718
v 0.006579298 0.4650104 0.08563796
v 0.020704556 0.46646625 -0.08563718
v 0.006579298 0.4650104 0.08563796
v 0.020704556 0.46646625 -0.08563718
v 0.21268 0.44466326 0.08563796
v 0.1868535 0.44941387 -0.08563718
v 0.1868535 0.44941387 -0.08563718
v 0.21268 0.44466326 0.08563796
v 0.3019771 0.39201143 -0.08563718
v 0.33300877 0.35092348 0.08563796
v 0.3019771 0.39201143 -0.08563718
v 0.33300877 0.35092348 0.08563796
v 0.33637613 0.31473583 -0.08563718
v 0.33300877 0.35092348 0.08563796
v 0.33637613 0.31473583 -0.08563718
v 0.3227532 0.25611925 0.08563796
v 0.31162754 0.23894665 -0.08563718
v 0.28577858 0.22105367 0.08563796
v 0.3019771 0.39201143 -0.08563718
v 0.33637613 0.31473583 -0.08563718
v 0.31162754 0.23894665 -0.08563718
v 0.31162754 0.23894665 -0.08563718
v 0.3019771 0.39201143 -0.08563718
v 0.23290764 0.21165736 -0.08563718
v 0.23290764 0.21165736 -0.08563718
v 0.1868535 0.44941387 -0.08563718
v 0.09679304 0.2590362 -0.08563718
v 0.1868535 0.44941387 -0.08563718
v 0.09679304 0.2590362 -0.08563718
v 0.020704556 0.46646625 -0.08563718
v -0.034812666 0.24427885 -0.08563718
v -0.034812666 0.24427885 -0.08563718
v 0.020704556 0.46646625 -0.08563718
v -0.1291266 0.42571655 -0.08563718
v -0.1291266 0.42571655 -0.08563718
v -0.23571087 0.34809732 -0.08563718
v -0.33659825 0.20611724 -0.08563718
v -0.09499623 0.18341875 -0.08563718
v -0.13670473 0.09702973 -0.08563718
v -0.33659825 0.20611724 -0.08563718
v -0.13670473 0.09702973 -0.08563718
v -0.37301135 0.022774916 -0.08563718
v -0.14348623 -0.07470672 -0.08563718
v -0.37301135 0.022774916 -0.08563718
v -0.36834788 -0.07924222 -0.08563718
v -0.14348623 -0.07470672 -0.08563718
v -0.3484466 -0.1762538 -0.08563718
v -0.14348623 -0.07470672 -0.08563718
v -0.27670074 -0.31090719 -0.08563718
v -0.09499623 -0.18438864 -0.08563718
v -0.030272488 -0.24674688 -0.08563718
v -0.27670074 -0.31090719 -0.08563718
v -0.13341542 -0.42536095 -0.08563718
v -0.13341542 -0.42536095 -0.08563718
v 0.022736195 -0.46651354 -0.08563718
v 0.022736195 -0.46651354 -0.08563718
v -0.030272488 -0.24674688 -0.08563718
v 0.11540308 -0.25789797 -0.08563718
v 0.22596723 -0.44199055 -0.08563718
v 0.22596723 -0.44199055 -0.08563718
v 0.11540308 -0.25789797 -0.08563718
v 0.36248142 -0.3478959 -0.08563718
v 0.27407277 -0.18806395 -0.08563718
v 0.27407277 -0.18806395 -0.08563718
v 0.35305554 -0.21907187 -0.08563718
v 0.36248142 -0.3478959 -0.08563718
v 0.35305554 -0.21907187 -0.08563718
v 0.37345815 -0.27085447 -0.08563718
v -0.030272488 -0.24674688 -0.08563718
v -0.052281633 -0.23029852 0.08563796
v 0.042434253 -0.26464123 0.08563796
v 0.11540308 -0.25789797 -0.08563718
v 0.042434253 -0.26464123 0.08563796
v 0.11540308 -0.25789797 -0.08563718
v 0.16447057 -0.23914802 0.08563796
v 0.11540308 -0.25789797 -0.08563718
v 0.16447057 -0.23914802 0.08563796
v 0.27407277 -0.18806395 -0.08563718
v 0.28424102 -0.18770593 0.08563796
v 0.27407277 -0.18806395 -0.08563718
v 0.28424102 -0.18770593 0.08563796
v 0.35305554 -0.21907187 -0.08563718
v 0.35727063 -0.22390604 0.08563796
v -0.14480034 -0.41944596 0.08563796
v -0.27670074 -0.31090719 -0.08563718
v -0.24505307 -0.34196997 0.08563796
v -0.13341542 -0.42536095 -0.08563718
v -0.14480034 -0.41944596 0.08563796
v -0.13341542 -0.42536095 -0.08563718
v 0.008821177 -0.46516138 0.08563796
v 0.022736195 -0.46651354 -0.08563718
v 0.008821177 -0.46516138 0.08563796
v 0.022736195 -0.46651354 -0.08563718
v 0.17830536 -0.45280153 0.08563796
v 0.22596723 -0.44199055 -0.08563718
v 0.17830536 -0.45280153 0.08563796
v 0.22596723 -0.44199055 -0.08563718
v 0.27302086 -0.41751832 0.08563796
v 0.22596723 -0.44199055 -0.08563718
v 0.27302086 -0.41751832 0.08563796
v 0.36248142 -0.3478959 -0.08563718
v 0.34820867 -0.3609023 0.08563796
v 0.35305554 -0.21907187 -0.08563718
v 0.35727063 -0.22390604 0.08563796
v 0.37345815 -0.27085447 -0.08563718
v 0.37541324 -0.30109626 0.08563796
v 0.36248142 -0.3478959 -0.08563718
v 0.37541324 -0.30109626 0.08563796
v 0.36248142 -0.3478959 -0.08563718
v 0.34820867 -0.3609023 0.08563796
vt 0.5777821 0.7221206
vt 0.57633305 0.7124964
vt 0.57241356 0.70907784
vt 0.5718081 0.7286408
vt 0.56999946 0.70861804
vt 0.5644729 0.70927453
vt 0.5580187 0.7121388
vt 0.5619846 0.73318887
vt 0.54816633 0.7144148
vt 0.549425 0.7350991
vt 0.54475236 0.7139243
vt 0.5366634 0.71079135
vt 0.54497945 0.7351426
vt 0.533093 0.73244643
vt 0.5243829 0.72848123
vt 0.5114044 0.71402466
vt 0.5334238 0.7068591
vt 0.5290523 0.69897485
vt 0.5091012 0.7101816
vt 0.5280173 0.6941464
vt 0.5054585 0.6979265
vt 0.5271257 0.6858949
vt 0.50394523 0.68918544
vt 0.5275235 0.6823047
vt 0.5060487 0.6712589
vt 0.52854156 0.67633104
vt 0.5071232 0.6672776
vt 0.5318599 0.6693517
vt 0.53602064 0.6644885
vt 0.51588774 0.6539203
vt 0.523067 0.6476016
vt 0.52578163 0.6455934
vt 0.5374006 0.64123666
vt 0.5412529 0.64027834
vt 0.54553324 0.66058356
vt 0.5492737 0.6608094
vt 0.5535842 0.64032984
vt 0.5585886 0.6408183
vt 0.55807954 0.6626615
vt 0.5675998 0.64367294
vt 0.5613824 0.6640742
vt 0.5683974 0.6440136
vt 0.5705187 0.6674009
vt 0.5723262 0.6669207
vt 0.577812 0.6633989
vt 0.57630527 0.64946723
vt 0.57830775 0.66235816
vt 0.57933384 0.65545034
vt 0.6196729 0.72609556
vt 0.59907675 0.7136471
vt 0.59907675 0.72609556
vt 0.6196729 0.7136471
vt 0.59907675 0.7022958
vt 0.6196729 0.7022958
vt 0.6196729 0.6944051
vt 0.59907675 0.6944051
vt 0.59907675 0.6840805
vt 0.6196729 0.6840805
vt 0.59907675 0.67470753
vt 0.6196729 0.67470753
vt 0.6196729 0.6630416
vt 0.59907675 0.6630416
vt 0.6196729 0.6524037
vt 0.59907675 0.6524037
vt 0.6196729 0.643114
vt 0.61980605 0.6951246
vt 0.5992099 0.6872724
vt 0.61980605 0.6872724
vt 0.5992099 0.67934287
vt 0.61980605 0.67934287
vt 0.5992099 0.67727935
vt 0.61980605 0.671568
vt 0.5992099 0.6637157
vt 0.61980605 0.6637157
vt 0.5992099 0.65729165
vt 0.61980605 0.65729165
vt 0.5992099 0.6529335
vt 0.619135 0.7026026
vt 0.598539 0.696887
vt 0.619135 0.696887
vt 0.598539 0.68863857
vt 0.619135 0.68863857
vt 0.598539 0.68165654
vt 0.619135 0.68165654
vt 0.598539 0.6746745
vt 0.619135 0.6746745
vt 0.598539 0.6676925
vt 0.619135 0.66071045
vt 0.598539 0.66071045
vt 0.619135 0.65265745
vt 0.598539 0.6560731
vt 0.619135 0.64713687
vt 0.598539 0.64713687
vt 0.6206466 0.7145352
vt 0.60005045 0.7068974
vt 0.6206466 0.7068974
vt 0.60005045 0.6992595
vt 0.6206466 0.6992595
vt 0.60005045 0.6897118
vt 0.6206466 0.68365467
vt 0.60005045 0.6801641
vt 0.6206466 0.6801641
vt 0.60005045 0.6706164
vt 0.6206397 0.66379976
vt 0.6206466 0.6610686
vt 0.60005045 0.65349835
vt 0.6206466 0.6500971
vt 0.60005045 0.6491038
vt 0.61881053 0.72349894
vt 0.5982144 0.71822774
vt 0.61881053 0.7152435
vt 0.5982144 0.71267056
vt 0.61881053 0.71267056
vt 0.5982144 0.7082258
vt 0.61881053 0.7082258
vt 0.5982144 0.7051197
vt 0.57537866 0.725507
vt 0.5775937 0.7162224
vt 0.57633305 0.7124964
vt 0.575109 0.71082073
vt 0.5717684 0.7286296
vt 0.5700091 0.7086024
vt 0.56707436 0.7082614
vt 0.565464 0.7318368
vt 0.55801964 0.7120937
vt 0.5574399 0.7340243
vt 0.5514854 0.7138759
vt 0.5493696 0.7350328
vt 0.5447489 0.7138466
vt 0.53991103 0.71271586
vt 0.5412359 0.73442805
vt 0.5309266 0.73160106
vt 0.5264245 0.7289773
vt 0.51974595 0.72411144
vt 0.50886714 0.70998174
vt 0.53343785 0.7067536
vt 0.52955997 0.69989955
vt 0.50701785 0.704395
vt 0.5288385 0.69811
vt 0.5044415 0.6914827
vt 0.5273267 0.68812597
vt 0.5042995 0.68902946
vt 0.50450885 0.6810598
vt 0.52726203 0.6858477
vt 0.50615025 0.67108625
vt 0.5286306 0.6762136
vt 0.51003015 0.6618981
vt 0.5319661 0.6692425
vt 0.5361388 0.6643895
vt 0.516032 0.6537718
vt 0.5270837 0.6448205
vt 0.52956855 0.64375496
vt 0.54284436 0.6399987
vt 0.54563713 0.6399009
vt 0.5384116 0.66262066
vt 0.5494008 0.660743
vt 0.5599921 0.64101493
vt 0.56776905 0.64365166
vt 0.5573878 0.6623456
vt 0.5762853 0.649209
vt 0.5669738 0.6667104
vt 0.56959116 0.66739094
vt 0.5760664 0.6650293
vt 0.57801855 0.6508117
vt 0.5775163 0.6639039
vt 0.5793959 0.65854985
vt 0.6206466 0.68462527
vt 0.60005045 0.6924776
vt 0.60005045 0.68462527
vt 0.6206466 0.6766958
vt 0.60005045 0.6766958
vt 0.6206466 0.6689209
vt 0.60005045 0.6689209
vt 0.6206466 0.66260195
vt 0.60005045 0.66260195
vt 0.6206466 0.656283
vt 0.60005045 0.656283
vt 0.6206466 0.64985895
vt 0.60005045 0.64985895
vt 0.6206466 0.6455007
vt 0.60005045 0.6455007
vt 0.61980605 0.705325
vt 0.5992099 0.7140863
vt 0.61980605 0.7140863
vt 0.5992099 0.705325
vt 0.61980605 0.69768715
vt 0.5992099 0.69768715
vt 0.61980605 0.68813944
vt 0.5992099 0.68813944
vt 0.61980605 0.6785917
vt 0.5992099 0.6785917
vt 0.61980605 0.669044
vt 0.5992099 0.669044
vt 0.61980605 0.65949625
vt 0.5992099 0.65949625
vt 0.61980605 0.6527093
vt 0.59920734 0.65643984
vt 0.61980605 0.6471404
vt 0.5992099 0.6471404
vt 0.61980605 0.64274585
vt 0.62075794 0.65936315
vt 0.6001619 0.65936315
vt 0.62075794 0.6549183
vt 0.6001619 0.6549183
vt 0.62075794 0.64936125
vt 0.6001619 0.64936125
vt 0.62075794 0.64408994
vt 0.6001619 0.64408994
vn -0 0 1
vn -0 0 1
vn -0 0 1
vn -0 0 1
vn -0 0 1
vn -0 0 1
vn -0 0 1
vn -0 0 1
vn -0 0 1
vn -0 0 1
vn -0 0 1
vn -0 0 1
vn -0 0 1
vn -0 0 1
vn -0 0 1
vn -0 0 1
vn -0 0 1
vn -0 0 1
vn -0 0 1
vn -0 0 1
vn -0 0 1
vn -0 0 1
vn -0 0 1
vn -0 0 1
vn -0 0 1
vn -0 0 1
vn -0 0 1
vn -0 0 1
vn -0 0 1
vn -0 0 1
vn -0 0 1
vn -0 0 1
vn -0 0 1
vn -0 0 1
vn -0 0 1
vn -0 0 1
vn -0 0 1
vn -0 0 1
vn -0 0 1
vn -0 0 1
vn -0 0 1
vn -0 0 1
vn -0 0 1
vn -0 0 1
vn -0 0 1
vn -0 0 1
vn -0 0 1
vn -0 0 1
vn -0.71575236 0.6983541 0
vn -0.8681829 0.4962443 0
vn -0.7157523 0.6983541 0
vn -0.8681829 0.49624437 0
vn -0.9581764 0.2861782 0
vn -0.9581764 0.28617817 0
vn -0.9899961 0.14109454 0
vn -0.9899961 0.14109454 0
vn -0.99987626 0.015731215 0
vn -0.99987626 0.01573121 0
vn -0.9910493 -0.13349621 0
vn -0.9910493 -0.13349621 0
vn -0.9490624 -0.31508815 0
vn -0.9490624 -0.31508818 0
vn -0.8488104 -0.5286974 0
vn -0.8488104 -0.5286974 0
vn -0.7087653 -0.7054444 0
vn 0.57328314 -0.81935734 0
vn 0.21132785 -0.97741514 0
vn 0.21132784 -0.97741514 0
vn -0.09162081 -0.99579394 0
vn -0.09162085 -0.99579394 0
vn -0.15023173 -0.9886508 0
vn -0.30971622 -0.95082897 0
vn -0.21608543 -0.97637445 0
vn -0.21608543 -0.97637445 0
vn 0.17557833 -0.9844654 0
vn 0.17557836 -0.9844654 0
vn 0.56643164 -0.82410866 0
vn 0.5732832 -0.81935734 0
vn 0.8231411 -0.5678369 0
vn 0.8231411 -0.5678369 0
vn 0.9417257 -0.336382 0
vn 0.9417257 -0.336382 0
vn 0.98911846 -0.14712085 0
vn 0.98911846 -0.14712085 0
vn 1 0 0
vn 1 0 0
vn 0.98911846 0.14712085 0
vn 0.9400614 0.3410052 0
vn 0.9400614 0.3410052 0
vn 0.81536704 0.5789444 0
vn 0.8760099 0.48229313 0
vn 0.57796675 0.8160603 0
vn 0.57796675 0.8160603 0
vn -0.7157523 0.6983541 0
vn -0.5555754 0.83146614 0
vn -0.55557543 0.83146626 0
vn -0.3885058 0.9214463 0
vn -0.3885058 0.9214463 0
vn -0.19975573 0.9798457 0
vn -0.082347885 0.9966036 0
vn -0.014162629 0.99989974 0
vn -0.014162619 0.99989974 0
vn 0.15538636 0.98785377 0
vn 0.27607694 0.96113557 0
vn 0.3232496 0.9463137 0
vn 0.52493143 0.8511445 0
vn 0.7256092 0.688107 0
vn 0.7750925 0.6318478 0
vn 0.7750925 0.63184774 0
vn 0.9645259 0.2639883 0
vn 0.99798656 0.06342632 0
vn 0.9937535 -0.11159766 0
vn 0.9937535 -0.11159769 0
vn 0.8679831 -0.49659365 0
vn 0.8679831 -0.49659377 0
vn 0.56643164 -0.82410866 0
vn -0 0 -1
vn -0 0 -1
vn -0 0 -1
vn -0 0 -1
vn -0 0 -1
vn -0 0 -1
vn -0 0 -1
vn -0 0 -1
vn -0 0 -1
vn -0 0 -1
vn -0 0 -1
vn -0 0 -1
vn -0 0 -1
vn -0 0 -1
vn -0 0 -1
vn -0 0 -1
vn -0 0 -1
vn -0 0 -1
vn -0 0 -1
vn -0 0 -1
vn -0 0 -1
vn -0 0 -1
vn -0 0 -1
vn -0 0 -1
vn -0 0 -1
vn -0 0 -1
vn -0 0 -1
vn -0 0 -1
vn -0 0 -1
vn -0 0 -1
vn -0 0 -1
vn -0 0 -1
vn -0 0 -1
vn -0 0 -1
vn -0 0 -1
vn -0 0 -1
vn -0 0 -1
vn -0 0 -1
vn -0 0 -1
vn -0 0 -1
vn -0 0 -1
vn -0 0 -1
vn -0 0 -1
vn -0 0 -1
vn -0 0 -1
vn -0 0 -1
vn -0 0 -1
vn -0 0 -1
vn -0 0 -1
vn -0 0 -1
vn 0.21995905 0.97550917 0
vn 0.57796675 0.8160603 0
vn 0.21995902 0.97550917 0
vn -0.09712892 0.99527186 0
vn -0.09712892 0.99527186 0
vn -0.30647463 0.9518788 0
vn -0.30647463 0.9518788 0
vn -0.43022436 0.90272194 0
vn -0.43022445 0.90272194 0
vn -0.28090307 0.9597361 0
vn -0.280903 0.9597361 0
vn 0.18066835 0.98354405 0
vn 0.18066838 0.98354405 0
vn 0.58318055 0.8123426 0
vn 0.58318055 0.8123426 0
vn -0.55255187 -0.8334785 0
vn -0.7087653 -0.7054444 0
vn -0.7087653 -0.7054444 0
vn -0.55255187 -0.8334785 0
vn -0.37421614 -0.9273415 0
vn -0.3742161 -0.9273415 0
vn -0.19364181 -0.98107237 0
vn -0.1936418 -0.98107237 0
vn -0.014162628 -0.99989974 0
vn -0.01416262 -0.99989974 0
vn 0.13993672 -0.99016047 0
vn 0.1399367 -0.99016047 0
vn 0.28510413 -0.95849663 0
vn 0.2851042 -0.95849663 0
vn 0.46787858 -0.8837928 0
vn 0.36920074 -0.9293497 0
vn 0.59120893 -0.80651844 0
vn 0.59120893 -0.80651844 0
vn 0.77509266 -0.6318476 0
vn 0.8648788 0.5019807 0
vn 0.8648789 0.5019808 0
vn 0.9937535 0.11159778 0
vn 0.9937535 0.11159774 0
vn 0.9645259 -0.26398838 0
vn 0.9645259 -0.26398844 0
vn 0.77509254 -0.6318477 0
vn 0.77509266 -0.6318476 0
g textC_collision_0
f 2/2/2 1/1/1 3/3/3
f 1/1/1 4/4/4 3/3/3
f 5/5/5 4/4/4 6/6/6
f 7/7/7 8/8/8 9/9/9
f 8/8/8 10/10/10 9/9/9
f 11/11/11 10/10/10 12/12/12
f 12/12/12 13/13/13 14/14/14
f 16/16/16 12/12/12 15/15/15
f 17/17/17 16/16/16 18/18/18
f 21/21/21 20/20/20 19/19/19
f 20/20/20 21/21/21 22/22/22
f 23/23/23 25/25/25 24/24/24
f 26/26/26 24/24/24 25/25/25
f 29/29/29 28/28/28 27/27/27
f 29/29/29 27/27/27 30/30/30
f 29/29/29 30/30/30 31/31/31
f 33/33/33 29/29/29 32/32/32
f 35/35/35 29/29/29 34/34/34
f 37/37/37 36/36/36 34/34/34
f 39/39/39 36/36/36 38/38/38
f 38/38/38 40/40/40 39/39/39
f 43/43/43 41/41/41 42/42/42
f 44/44/44 42/42/42 45/45/45
f 46/46/46 45/45/45 42/42/42
f 47/47/47 46/46/46 48/48/48
f 51/51/51 50/50/50 49/49/49
f 52/52/52 49/49/49 50/50/50
f 54/54/54 53/53/53 55/55/55
f 56/56/56 55/55/55 53/53/53
f 57/57/57 59/59/59 58/58/58
f 60/60/60 59/59/59 61/61/61
f 62/62/62 61/61/61 59/59/59
f 64/64/64 63/63/63 62/62/62
f 63/63/63 64/64/64 65/65/65
f 68/68/68 66/66/66 67/67/67
f 67/67/67 69/69/69 68/68/68
f 72/72/72 70/70/70 71/71/71
f 71/71/71 73/73/73 72/72/72
f 76/76/76 74/74/74 75/75/75
f 75/75/75 77/77/77 76/76/76
f 80/80/80 78/78/78 79/79/79
f 79/79/79 81/81/81 80/80/80
f 82/82/82 80/80/80 81/81/81
f 83/83/83 85/85/85 84/84/84
f 86/86/86 84/84/84 85/85/85
f 89/89/89 88/88/88 87/87/87
f 88/88/88 89/89/89 90/90/90
f 90/90/90 91/91/91 92/92/92
f 93/93/93 92/92/92 91/91/91
f 96/96/96 94/94/94 95/95/95
f 97/97/97 99/99/99 98/98/98
f 100/100/100 98/98/98 99/99/99
f 101/101/101 103/103/103 102/102/102
f 104/104/104 102/102/102 103/103/103
f 107/107/107 105/105/105 106/106/106
f 106/106/106 108/108/108 107/107/107
f 111/111/111 109/109/109 110/110/110
f 112/112/112 114/114/114 113/113/113
f 115/115/115 113/113/113 114/114/114
f 114/114/114 116/116/116 115/115/115
f 119/119/119 117/117/117 118/118/118
f 122/122/122 121/121/121 120/120/120
f 124/124/124 121/121/121 123/123/123
f 123/123/123 125/125/125 124/124/124
f 126/126/126 127/127/127 128/128/128
f 129/129/129 128/128/128 127/127/127
f 131/131/131 130/130/130 132/132/132
f 130/130/130 134/134/134 133/133/133
f 130/130/130 135/135/135 134/134/134
f 130/130/130 136/136/136 135/135/135
f 136/136/136 137/137/137 135/135/135
f 140/140/140 138/138/138 139/139/139
f 139/139/139 141/141/141 140/140/140
f 142/142/142 141/141/141 143/143/143
f 143/143/143 144/144/144 145/145/145
f 145/145/145 146/146/146 147/147/147
f 148/148/148 147/147/147 146/146/146
f 148/148/148 149/149/149 147/147/147
f 150/150/150 149/149/149 151/151/151
f 149/149/149 153/153/153 152/152/152
f 155/155/155 156/156/156 154/154/154
f 157/157/157 154/154/154 156/156/156
f 158/158/158 159/159/159 160/160/160
f 161/161/161 160/160/160 159/159/159
f 162/162/162 163/163/163 160/160/160
f 165/165/165 166/166/166 164/164/164
f 169/169/169 167/167/167 168/168/168
f 167/167/167 169/169/169 170/170/170
f 173/173/173 172/172/172 171/171/171
f 174/174/174 175/175/175 176/176/176
f 177/177/177 176/176/176 175/175/175
f 178/178/178 179/179/179 180/180/180
f 181/181/181 180/180/180 179/179/179
f 184/184/184 183/183/183 182/182/182
f 185/185/185 182/182/182 183/183/183
f 186/186/186 187/187/187 188/188/188
f 189/189/189 188/188/188 187/187/187
f 190/190/190 191/191/191 192/192/192
f 193/193/193 192/192/192 191/191/191
f 194/194/194 195/195/195 196/196/196
f 199/199/199 198/198/198 197/197/197
f 198/198/198 199/199/199 200/200/200
f 201/201/201 202/202/202 203/203/203
f 204/204/204 203/203/203 202/202/202
f 203/203/203 204/204/204 205/205/205
f 208/208/208 207/207/207 206/206/206
