g textZ_collision
v 0.32924017 -0.35291573 0.08811636
v 0.30364195 -0.26775447 0.08811636
v 0.29264793 -0.4451246 0.08811638
v 0.30364195 -0.26775447 0.08811636
v 0.29264793 -0.4451246 0.08811638
v 0.2583702 -0.24438669 0.08811636
v 0.29264793 -0.4451246 0.08811638
v 0.2583702 -0.24438669 0.08811636
v 0.13841872 -0.46041787 0.08811636
v -0.021047669 -0.2418266 0.08811636
v 0.13841872 -0.46041787 0.08811636
v -0.31190166 -0.2968238 0.08811636
v -0.2430634 -0.46136898 0.08811636
v -0.2430634 -0.46136898 0.08811636
v -0.31190166 -0.2968238 0.08811636
v -0.30689576 -0.42953154 0.08811636
v -0.3273885 -0.36163384 0.08811636
v 0.014197273 0.24423832 0.08811636
v 0.30869463 0.2836095 0.08811636
v 0.25099534 0.45910302 0.08811636
v 0.25099534 0.45910302 0.08811636
v 0.25099534 0.45910302 0.08811636
v -0.2642692 0.45611465 0.08811636
v 0.30869463 0.2836095 0.08811636
v -0.27205002 0.24803367 0.08811636
v 0.31310382 0.41659522 0.08811636
v -0.2642692 0.45611465 0.08811636
v 0.30869463 0.2836095 0.08811636
v -0.27205002 0.24803367 0.08811636
v 0.31310382 0.41659522 0.08811636
v 0.32220116 0.33165973 0.08811636
v -0.3159343 0.41493303 0.08811636
v -0.27205002 0.24803367 0.08811636
v -0.3159343 0.41493303 0.08811636
v -0.31821865 0.30717084 0.08811636
v -0.30138752 -0.43333 -0.088115975
v -0.30689576 -0.42953154 0.08811636
v -0.26348457 -0.45469433 -0.088115975
v -0.2430634 -0.46136898 0.08811636
v -0.22522314 -0.46310955 -0.088115975
v -0.2430634 -0.46136898 0.08811636
v -0.021047669 -0.46313244 -0.088115975
v 0.13841872 -0.46041787 0.08811636
v 0.13841872 -0.46041787 0.08811636
v 0.2619039 -0.45393488 -0.088115975
v 0.29264793 -0.4451246 0.08811638
v 0.2619039 -0.45393488 -0.088115975
v 0.29264793 -0.4451246 0.08811638
v 0.30364308 -0.43173283 -0.08811598
v -0.30138752 -0.43333 -0.088115975
v -0.30689576 -0.42953154 0.08811636
v -0.3262013 -0.38223428 -0.088115975
v -0.3273885 -0.36163384 0.08811636
v -0.3262013 -0.38223428 -0.088115975
v -0.3273885 -0.36163384 0.08811636
v -0.31697 -0.30634016 -0.088115975
v -0.31697 -0.30634016 -0.088115975
v -0.31190166 -0.2968238 0.08811636
v -0.31190166 -0.2968238 0.08811636
v -0.31697 -0.30634016 -0.088115975
v 0.014197273 0.24423832 0.08811636
v 0.014197273 0.24423832 -0.088115975
v -0.021047669 -0.2418266 0.08811636
v 0.29699057 0.266184 -0.088115975
v -0.021047669 -0.2418266 -0.088115975
v 0.30869463 0.2836095 0.08811636
v 0.29699057 0.266184 -0.088115975
v 0.30869463 0.2836095 0.08811636
v 0.3117737 0.2919163 -0.088115975
v 0.30869463 0.2836095 0.08811636
v 0.3246832 0.34870306 -0.088115975
v 0.32220116 0.33165973 0.08811636
v 0.3246832 0.34870306 -0.088115975
v 0.31310382 0.41659522 0.08811636
v 0.3117737 0.41307682 -0.088115975
v 0.31310382 0.41659522 0.08811636
v 0.29121706 0.44076952 -0.088115975
v 0.31310382 0.41659522 0.08811636
v 0.29121706 0.44076952 -0.088115975
v 0.25099534 0.45910302 0.08811636
v 0.21978065 0.46034494 -0.088115975
v 0.21978065 0.46034494 -0.088115975
v 0.25099534 0.45910302 0.08811636
v -0.261396 0.4569481 -0.088115975
v -0.2642692 0.45611465 0.08811636
v -0.261396 0.4569481 -0.088115975
v -0.2642692 0.45611465 0.08811636
v -0.3009093 0.43259946 -0.088115975
v -0.3159343 0.41493303 0.08811636
v 0.014197273 0.24423832 -0.088115975
v -0.27205002 0.24803367 0.08811636
v 0.014197273 0.24423832 0.08811636
v -0.26410028 0.24697012 -0.088115975
v -0.26410028 0.24697012 -0.088115975
v -0.27205002 0.24803367 0.08811636
v -0.2904831 0.26313442 -0.088115975
v -0.2904831 0.26313442 -0.088115975
v -0.31821865 0.30717084 0.08811636
v -0.27205002 0.24803367 0.08811636
v -0.3204419 0.31408626 -0.088115975
v -0.31821865 0.30717084 0.08811636
v -0.3204419 0.31408626 -0.088115975
v -0.3159343 0.41493303 0.08811636
v -0.32227287 0.38271183 -0.088115975
v -0.3159343 0.41493303 0.08811636
v -0.3009093 0.43259946 -0.088115975
v 0.29990357 -0.2635041 -0.088115975
v 0.3292402 -0.3465778 -0.088115975
v 0.30364308 -0.43173283 -0.08811598
v 0.29990357 -0.2635041 -0.088115975
v 0.30364308 -0.43173283 -0.08811598
v 0.25952023 -0.24501891 -0.088115975
v 0.2619039 -0.45393488 -0.088115975
v 0.25952023 -0.24501891 -0.088115975
v 0.2619039 -0.45393488 -0.088115975
v -0.021047669 -0.2418266 -0.088115975
v -0.021047669 -0.46313244 -0.088115975
v -0.31697 -0.30634016 -0.088115975
v -0.22522314 -0.46310955 -0.088115975
v -0.31697 -0.30634016 -0.088115975
v -0.26348457 -0.45469433 -0.088115975
v -0.31697 -0.30634016 -0.088115975
v -0.30138752 -0.43333 -0.088115975
v -0.31697 -0.30634016 -0.088115975
v -0.30138752 -0.43333 -0.088115975
v -0.3262013 -0.38223428 -0.088115975
v 0.014197273 0.24423832 -0.088115975
v 0.29699057 0.266184 -0.088115975
v 0.21978065 0.46034494 -0.088115975
v 0.21978065 0.46034494 -0.088115975
v 0.29121706 0.44076952 -0.088115975
v -0.261396 0.4569481 -0.088115975
v 0.29699057 0.266184 -0.088115975
v -0.26410028 0.24697012 -0.088115975
v 0.29121706 0.44076952 -0.088115975
v -0.261396 0.4569481 -0.088115975
v 0.3117737 0.2919163 -0.088115975
v -0.26410028 0.24697012 -0.088115975
v 0.3117737 0.41307682 -0.088115975
v 0.3246832 0.34870306 -0.088115975
v -0.3009093 0.43259946 -0.088115975
v -0.2904831 0.26313442 -0.088115975
v -0.3009093 0.43259946 -0.088115975
v -0.3204419 0.31408626 -0.088115975
v -0.32227287 0.38271183 -0.088115975
v -0.021047669 -0.2418266 -0.088115975
v 0.2583702 -0.24438669 0.08811636
v -0.021047669 -0.2418266 0.08811636
v 0.25952023 -0.24501891 -0.088115975
v 0.25952023 -0.24501891 -0.088115975
v 0.2583702 -0.24438669 0.08811636
v 0.29990357 -0.2635041 -0.088115975
v 0.30364195 -0.26775447 0.08811636
v 0.29264793 -0.4451246 0.08811638
v 0.30364308 -0.43173283 -0.08811598
v 0.32924017 -0.35291573 0.08811636
v 0.3292402 -0.3465778 -0.088115975
v 0.32924017 -0.35291573 0.08811636
v 0.3292402 -0.3465778 -0.088115975
v 0.30364195 -0.26775447 0.08811636
v 0.29990357 -0.2635041 -0.088115975
vt 0.8192165 0.10387194
vt 0.8177575 0.09565878
vt 0.81578636 0.1116879
vt 0.8168924 0.09394497
vt 0.81472695 0.112053946
vt 0.81295097 0.09180975
vt 0.81295097 0.112485886
vt 0.8123631 0.09160734
vt 0.8003625 0.11321992
vt 0.7844088 0.09135103
vt 0.7844088 0.113491535
vt 0.7586206 0.09135103
vt 0.7621874 0.11333283
vt 0.76015425 0.112647414
vt 0.75531036 0.096853316
vt 0.7565917 0.11072457
vt 0.75399697 0.10180378
vt 0.7879349 0.04272282
vt 0.81469715 0.04272282
vt 0.8129825 0.021718344
vt 0.8116546 0.021185268
vt 0.81427526 0.022360027
vt 0.762689 0.021236837
vt 0.81651616 0.04015492
vt 0.7603943 0.04253847
vt 0.8178389 0.02547933
vt 0.76007575 0.021525618
vt 0.8173979 0.03878399
vt 0.7588416 0.042211123
vt 0.8182998 0.027073687
vt 0.81874907 0.033976734
vt 0.7574531 0.023038477
vt 0.7574531 0.04083237
vt 0.7561104 0.024236266
vt 0.7546785 0.036426798
vt 0.8529272 0.06730819
vt 0.8711873 0.06730819
vt 0.8529272 0.064777374
vt 0.8711873 0.064777374
vt 0.8529272 0.06081292
vt 0.8711873 0.06081292
vt 0.8529272 0.039657623
vt 0.8711873 0.039657623
vt 0.8711873 0.016124547
vt 0.8529272 0.016124547
vt 0.8711873 0.010097414
vt 0.8529272 0.010345158
vt 0.8711873 0.0071582496
vt 0.8529272 0.0071582496
vt 0.8521162 0.0015771687
vt 0.87037635 0.004180789
vt 0.8521156 0.0065398873
vt 0.87037635 0.008162349
vt 0.8521162 0.008162349
vt 0.87037635 0.008604992
vt 0.8521146 0.01280486
vt 0.8521162 0.013296813
vt 0.87037635 0.013296813
vt 0.87037635 0.021027684
vt 0.8521162 0.021027684
vt 0.87037635 0.07139051
vt 0.8521162 0.07139051
vt 0.85358274 0.12342286
vt 0.8701993 0.07759273
vt 0.8701993 0.12342286
vt 0.85358274 0.07759273
vt 0.87117875 0.05264786
vt 0.85291874 0.05264786
vt 0.87117875 0.054886192
vt 0.85291874 0.054886192
vt 0.87117875 0.059004247
vt 0.85291874 0.059004247
vt 0.87117875 0.06077019
vt 0.85291874 0.06332207
vt 0.87117875 0.06744009
vt 0.85291874 0.06744009
vt 0.87117875 0.06934011
vt 0.85259235 0.008467078
vt 0.8708525 0.009509619
vt 0.85259235 0.010781854
vt 0.8708525 0.015165836
vt 0.8708525 0.038061827
vt 0.85259235 0.038061827
vt 0.8708525 0.06420815
vt 0.85259235 0.06420815
vt 0.8708515 0.06659381
vt 0.85259235 0.06728989
vt 0.8708525 0.06963086
vt 0.85259235 0.06963086
vt 0.87038386 0.12338877
vt 0.85376716 0.09959555
vt 0.85376716 0.12338877
vt 0.87038386 0.09716575
vt 0.87038386 0.09679115
vt 0.85376716 0.09466088
vt 0.87038386 0.09466088
vt 0.8521162 0.048902214
vt 0.87037635 0.051481456
vt 0.87037635 0.048902184
vt 0.8521162 0.051481456
vt 0.87037635 0.05551538
vt 0.8521162 0.05551538
vt 0.87037635 0.061292052
vt 0.8521162 0.061292052
vt 0.87037635 0.065325975
vt 0.8521162 0.065325975
vt 0.81651837 0.09351979
vt 0.8194531 0.10183089
vt 0.8177575 0.108636856
vt 0.81578887 0.093010485
vt 0.81578887 0.11128521
vt 0.81247693 0.09167102
vt 0.81295097 0.112485886
vt 0.8071314 0.09139645
vt 0.8071314 0.112899184
vt 0.7844088 0.09135103
vt 0.7844088 0.113491535
vt 0.7559645 0.095687926
vt 0.76398206 0.11348915
vt 0.75518644 0.09705535
vt 0.76015425 0.112647414
vt 0.75465584 0.09881568
vt 0.7577106 0.11143577
vt 0.75399697 0.10180384
vt 0.75636226 0.11051012
vt 0.7538127 0.103773355
vt 0.7879349 0.04272282
vt 0.81622684 0.040527336
vt 0.8085024 0.02110229
vt 0.7879349 0.020823807
vt 0.81427526 0.022360027
vt 0.762689 0.021236837
vt 0.8165865 0.040114194
vt 0.762689 0.04272282
vt 0.8165103 0.02399686
vt 0.7597134 0.021690518
vt 0.81770587 0.03795293
vt 0.7597134 0.04226914
vt 0.81770587 0.025831401
vt 0.81874907 0.033976734
vt 0.7564101 0.023878224
vt 0.7574531 0.04083237
vt 0.75569904 0.024974227
vt 0.75569904 0.03834197
vt 0.7542728 0.028869241
vt 0.8708525 0.041713685
vt 0.85259235 0.018180579
vt 0.85259235 0.041713685
vt 0.8708525 0.018180579
vt 0.8708525 0.0121534765
vt 0.85259235 0.0121534765
vt 0.8708525 0.009214282
vt 0.85259235 0.009214282
vt 0.85258377 0.01115033
vt 0.8708438 0.00957835
vt 0.85258377 0.016085207
vt 0.8708439 0.016085207
vt 0.85258377 0.01965642
vt 0.8708439 0.01965642
vt 0.85258377 0.024591327
vt 0.8708439 0.024591327
vn -0 0 1
vn -0 0 1
vn -0 0 1
vn -0 0 1
vn -0 0 1
vn -0 0 1
vn -0 0 1
vn -0 0 1
vn -0 0 1
vn -0 0 1
vn -0 0 1
vn -0 0 1
vn -0 0 1
vn -0 0 1
vn -0 0 1
vn -0 0 1
vn -0 0 1
vn -0 0 1
vn -0 0 1
vn -0 0 1
vn -0 0 1
vn -0 0 1
vn -0 0 1
vn -0 0 1
vn -0 0 1
vn -0 0 1
vn -0 0 1
vn -0 0 1
vn -0 0 1
vn -0 0 1
vn -0 0 1
vn -0 0 1
vn -0 0 1
vn -0 0 1
vn -0 0 1
vn -0.53648454 -0.84391016 0
vn -0.53648454 -0.84391016 0
vn -0.33195874 -0.9432939 0
vn -0.33195874 -0.9432939 0
vn -0.10807311 -0.99414295 0
vn -0.10807312 -0.99414295 0
vn 0.012973338 -0.99991584 0
vn 0.012973339 -0.99991584 0
vn 0.048464853 -0.9988249 0
vn 0.048464853 -0.9988249 0
vn 0.23340517 -0.9723796 0
vn 0.22595869 -0.9741368 0
vn 0.61777645 -0.7863538 0
vn 0.61777645 -0.7863538 0
vn -0.7597056 -0.65026706 0
vn -0.9341846 -0.35678977 0
vn -0.9831685 -0.18270119 0
vn -0.99822766 -0.05951045 0
vn -0.99822766 -0.05951046 0
vn -0.999914 -0.013115492 0
vn -0.96050304 0.27826953 0
vn -0.953577 0.3011495 0
vn -0.953577 0.30114946 0
vn -0.85347396 0.52113545 0
vn -0.85347396 0.5211354 0
vn -0.87071025 -0.49179628 0
vn -0.8707103 -0.4917961 0
vn 0.8747518 0.48457134 0
vn 0.8298643 -0.5579653 0
vn 0.87475187 0.48457104 0
vn 0.8298643 -0.5579652 0
vn 0.85129136 -0.5246932 0
vn 0.85129136 -0.5246932 0
vn 0.93332016 -0.35904533 0
vn 0.93332016 -0.3590453 0
vn 0.99178165 -0.12794238 0
vn 0.99178165 -0.1279424 0
vn 0.99972445 -0.023474354 0
vn 0.99178165 0.12794282 0
vn 0.91427934 0.40508437 0
vn 0.91427934 0.40508437 0
vn 0.72613156 0.6875558 0
vn 0.7261316 0.68755573 0
vn 0.59721655 0.80208004 0
vn 0.41579184 0.9094599 0
vn 0.12520465 0.99213094 0
vn 0.0045985985 0.9999895 0
vn 0.004598598 0.9999895 0
vn -0.083734326 0.9964882 0
vn -0.08373432 0.9964882 0
vn -0.2820401 0.9594026 0
vn -0.33774203 0.94123876 0
vn -0.63357157 0.7736841 0
vn -0.63357157 0.7736841 0
vn -0.8707103 -0.4917961 0
vn -0.075580895 -0.9971397 0
vn -0.87071025 -0.49179628 0
vn -0.31576595 -0.94883704 0
vn -0.3511119 -0.9363335 0
vn -0.6901453 -0.7236707 0
vn -0.6901453 -0.7236707 0
vn -0.6901453 -0.7236707 0
vn -0.88592297 -0.46383235 0
vn -0.6901453 -0.7236707 0
vn -0.88592297 -0.46383235 0
vn -0.984639 -0.1746029 0
vn -0.984639 -0.17460296 0
vn -0.98463905 0.17460234 0
vn -0.98463905 0.1746023 0
vn -0.8558507 0.517223 0
vn -0.8558507 0.517223 0
vn -0 0 -1
vn -0 0 -1
vn -0 0 -1
vn -0 0 -1
vn -0 0 -1
vn -0 0 -1
vn -0 0 -1
vn -0 0 -1
vn -0 0 -1
vn -0 0 -1
vn -0 0 -1
vn -0 0 -1
vn -0 0 -1
vn -0 0 -1
vn -0 0 -1
vn -0 0 -1
vn -0 0 -1
vn -0 0 -1
vn -0 0 -1
vn -0 0 -1
vn -0 0 -1
vn -0 0 -1
vn -0 0 -1
vn -0 0 -1
vn -0 0 -1
vn -0 0 -1
vn -0 0 -1
vn -0 0 -1
vn -0 0 -1
vn -0 0 -1
vn -0 0 -1
vn -0 0 -1
vn -0 0 -1
vn -0 0 -1
vn -0 0 -1
vn -0 0 -1
vn -0 0 -1
vn -0 0 -1
vn -0 0 -1
vn 0.87475187 0.48457104 0
vn 0.036443055 0.9993357 0
vn 0.8747518 0.48457134 0
vn 0.036443055 0.9993357 0
vn 0.23340943 0.9723785 0
vn 0.23340943 0.9723785 0
vn 0.61778206 0.7863494 0
vn 0.617782 0.7863495 0
vn 0.8923883 -0.4512684 0
vn 0.75247794 -0.65861756 0
vn 0.988983 -0.14802945 0
vn 0.988983 -0.14802945 0
vn 0.9889831 0.1480286 0
vn 0.9889831 0.14802857 0
vn 0.89238983 0.45126525 0
vn 0.8923899 0.45126525 0
g textZ_collision_0
f 3/3/3 1/1/1 2/2/2
f 4/4/4 6/6/6 5/5/5
f 9/9/9 7/7/7 8/8/8
f 8/8/8 10/10/10 9/9/9
f 10/10/10 12/12/12 11/11/11
f 13/13/13 11/11/11 12/12/12
f 16/16/16 14/14/14 15/15/15
f 15/15/15 17/17/17 16/16/16
f 12/12/12 10/10/10 18/18/18
f 19/19/19 18/18/18 10/10/10
f 19/19/19 20/20/20 18/18/18
f 21/21/21 23/23/23 18/18/18
f 25/25/25 18/18/18 23/23/23
f 26/26/26 22/22/22 24/24/24
f 28/28/28 31/31/31 30/30/30
f 27/27/27 32/32/32 29/29/29
f 35/35/35 33/33/33 34/34/34
f 36/36/36 38/38/38 37/37/37
f 39/39/39 37/37/37 38/38/38
f 38/38/38 40/40/40 39/39/39
f 40/40/40 42/42/42 41/41/41
f 43/43/43 41/41/41 42/42/42
f 45/45/45 44/44/44 42/42/42
f 44/44/44 45/45/45 46/46/46
f 49/49/49 48/48/48 47/47/47
f 52/52/52 50/50/50 51/51/51
f 51/51/51 53/53/53 52/52/52
f 56/56/56 54/54/54 55/55/55
f 58/58/58 57/57/57 55/55/55
f 59/59/59 61/61/61 60/60/60
f 62/62/62 60/60/60 61/61/61
f 65/65/65 64/64/64 63/63/63
f 66/66/66 63/63/63 64/64/64
f 67/67/67 69/69/69 68/68/68
f 69/69/69 71/71/71 70/70/70
f 72/72/72 70/70/70 71/71/71
f 74/74/74 72/72/72 73/73/73
f 73/73/73 75/75/75 74/74/74
f 75/75/75 77/77/77 76/76/76
f 80/80/80 78/78/78 79/79/79
f 79/79/79 81/81/81 80/80/80
f 82/82/82 84/84/84 83/83/83
f 85/85/85 83/83/83 84/84/84
f 86/86/86 88/88/88 87/87/87
f 89/89/89 87/87/87 88/88/88
f 92/92/92 91/91/91 90/90/90
f 93/93/93 90/90/90 91/91/91
f 96/96/96 94/94/94 95/95/95
f 99/99/99 98/98/98 97/97/97
f 100/100/100 97/97/97 98/98/98
f 101/101/101 103/103/103 102/102/102
f 104/104/104 102/102/102 103/103/103
f 106/106/106 104/104/104 105/105/105
f 109/109/109 107/107/107 108/108/108
f 110/110/110 111/111/111 112/112/112
f 113/113/113 112/112/112 111/111/111
f 114/114/114 115/115/115 116/116/116
f 117/117/117 116/116/116 115/115/115
f 116/116/116 117/117/117 118/118/118
f 119/119/119 118/118/118 117/117/117
f 121/121/121 120/120/120 119/119/119
f 123/123/123 122/122/122 121/121/121
f 124/124/124 125/125/125 126/126/126
f 118/118/118 127/127/127 116/116/116
f 128/128/128 116/116/116 127/127/127
f 128/128/128 127/127/127 129/129/129
f 129/129/129 131/131/131 128/128/128
f 130/130/130 127/127/127 132/132/132
f 134/134/134 132/132/132 127/127/127
f 133/133/133 135/135/135 137/137/137
f 139/139/139 137/137/137 135/135/135
f 137/137/137 139/139/139 140/140/140
f 136/136/136 138/138/138 141/141/141
f 142/142/142 141/141/141 138/138/138
f 144/144/144 143/143/143 142/142/142
f 143/143/143 144/144/144 145/145/145
f 148/148/148 147/147/147 146/146/146
f 149/149/149 146/146/146 147/147/147
f 150/150/150 151/151/151 152/152/152
f 153/153/153 152/152/152 151/151/151
f 154/154/154 155/155/155 156/156/156
f 157/157/157 156/156/156 155/155/155
f 158/158/158 159/159/159 160/160/160
f 161/161/161 160/160/160 159/159/159
