g textE_collision
v 0.3214102 0.30310935 0.08690425
v 0.3337045 0.40411893 0.08690425
v 0.2709937 0.45876095 0.08690425
v 0.3214102 0.30310935 0.08690425
v 0.2709937 0.45876095 0.08690425
v 0.24980335 0.26936084 0.08690425
v 0.2709937 0.45876095 0.08690425
v 0.24980335 0.26936084 0.08690425
v -0.117911085 0.26200253 0.08690425
v -0.24116752 0.45132336 0.08690425
v -0.24116752 0.45132336 0.08690425
v -0.32901585 0.32238173 0.08690425
v -0.32901585 0.32238173 0.08690425
v -0.117911085 0.10900074 0.08690425
v -0.32901585 0.32238173 0.08690425
v -0.32745612 -0.30846205 0.08690425
v -0.117909975 -0.09701676 0.08690425
v -0.32745612 -0.30846205 0.08690425
v -0.117909975 -0.09701676 0.08690425
v 0.1408621 0.10451746 0.08690425
v 0.09585161 -0.09567985 0.08690425
v -0.117911085 -0.25580448 0.08690425
v 0.09585161 -0.09567985 0.08690425
v 0.1408621 0.10451746 0.08690425
v 0.16905333 -0.074017465 0.08690425
v 0.1968167 0.048774783 0.08690425
v 0.1968167 -0.036644395 0.08690425
v -0.32745612 -0.30846205 0.08690425
v -0.2735889 -0.4117207 0.08690425
v -0.19635384 -0.4589384 0.08690425
v -0.19635384 -0.4589384 0.08690425
v 0.23180771 -0.46312773 0.08690425
v 0.2797611 -0.26567137 0.08690425
v 0.23180771 -0.46312773 0.08690425
v 0.2797611 -0.26567137 0.08690425
v 0.314083 -0.43566012 0.08690425
v 0.3270905 -0.30785984 0.08690425
v 0.314083 -0.43566012 0.08690425
v 0.33847356 -0.36277813 0.08690425
v -0.24116752 0.45132336 0.08690425
v -0.31157374 0.364204 -0.08690385
v -0.2668712 0.4281879 -0.08690385
v -0.32901585 0.32238173 0.08690425
v -0.33481428 0.23952942 -0.08690385
v -0.32901585 0.32238173 0.08690425
v -0.33481428 0.23952942 -0.08690385
v -0.33363783 -0.24342032 -0.08690385
v -0.32745612 -0.30846205 0.08690425
v -0.33363783 -0.24342032 -0.08690385
v -0.32745612 -0.30846205 0.08690425
v -0.29054272 -0.39567333 -0.08690385
v -0.2735889 -0.4117207 0.08690425
v -0.2668712 0.4281879 -0.08690385
v -0.24116752 0.45132336 0.08690425
v -0.18379766 0.4634684 -0.08690385
v -0.24116752 0.45132336 0.08690425
v -0.18379766 0.4634684 -0.08690385
v 0.2709937 0.45876095 0.08690425
v 0.17919427 0.46392888 -0.08690385
v 0.17919427 0.46392888 -0.08690385
v 0.2709937 0.45876095 0.08690425
v 0.28768542 0.45053685 -0.08690385
v 0.2709937 0.45876095 0.08690425
v 0.28768542 0.45053685 -0.08690385
v 0.3337045 0.40411893 0.08690425
v 0.3270905 0.4145885 -0.08690385
v 0.3270905 0.4145885 -0.08690385
v 0.3337045 0.40411893 0.08690425
v 0.33393836 0.32912368 -0.08690385
v 0.3214102 0.30310935 0.08690425
v -0.117911085 0.26200253 0.08690425
v 0.27601537 0.271588 -0.08690385
v -0.117911085 0.26200253 -0.08690385
v 0.24980335 0.26936084 0.08690425
v 0.24980335 0.26936084 0.08690425
v 0.27601537 0.271588 -0.08690385
v 0.3214102 0.30310935 0.08690425
v 0.3214102 0.30310935 0.08690425
v 0.33393836 0.32912368 -0.08690385
v -0.117911085 0.10900074 0.08690425
v -0.117911085 0.26200253 -0.08690385
v -0.117911085 0.10900074 -0.08690385
v -0.117911085 0.26200253 0.08690425
v 0.16905333 0.086147845 -0.08690385
v 0.1968167 0.048774783 0.08690425
v 0.1408621 0.10451746 0.08690425
v 0.1968167 0.048774783 -0.08690385
v 0.1968167 -0.036644395 0.08690425
v 0.18746541 -0.057834636 -0.08690385
v 0.16905333 -0.074017465 0.08690425
v 0.1408621 0.10451746 0.08690425
v 0.09561005 0.10860049 -0.08690385
v 0.16905333 0.086147845 -0.08690385
v 0.09561005 0.10860049 -0.08690385
v 0.1408621 0.10451746 0.08690425
v -0.117911085 0.10900074 -0.08690385
v -0.117911085 0.10900074 0.08690425
v 0.33393836 0.32912368 -0.08690385
v 0.3270905 0.4145885 -0.08690385
v 0.28768542 0.45053685 -0.08690385
v 0.27601537 0.271588 -0.08690385
v 0.28768542 0.45053685 -0.08690385
v 0.27601537 0.271588 -0.08690385
v 0.17919427 0.46392888 -0.08690385
v 0.17919427 0.46392888 -0.08690385
v 0.27601537 0.271588 -0.08690385
v -0.117911085 0.26200253 -0.08690385
v -0.18379766 0.4634684 -0.08690385
v -0.18379766 0.4634684 -0.08690385
v -0.2668712 0.4281879 -0.08690385
v -0.31157374 0.364204 -0.08690385
v -0.33481428 0.23952942 -0.08690385
v -0.117911085 0.10900074 -0.08690385
v -0.33481428 0.23952942 -0.08690385
v -0.33363783 -0.24342032 -0.08690385
v -0.11790754 -0.09710489 -0.08690385
v -0.33363783 -0.24342032 -0.08690385
v -0.11790754 -0.09710489 -0.08690385
v 0.09561005 0.10860049 -0.08690385
v 0.10389798 -0.09441055 -0.08690385
v -0.117911085 -0.25580448 -0.08690385
v 0.10389798 -0.09441055 -0.08690385
v 0.09561005 0.10860049 -0.08690385
v 0.16905333 0.086147845 -0.08690385
v 0.18746541 -0.057834636 -0.08690385
v 0.1968167 0.048774783 -0.08690385
v -0.29054272 -0.39567333 -0.08690385
v -0.29054272 -0.39567333 -0.08690385
v -0.18529537 -0.46213242 -0.08690385
v -0.18529537 -0.46213242 -0.08690385
v 0.2780741 -0.45798686 -0.08690385
v 0.2492491 -0.26251084 -0.08690385
v 0.2492491 -0.26251084 -0.08690385
v 0.2780741 -0.45798686 -0.08690385
v 0.29507947 -0.27617496 -0.08690385
v 0.2780741 -0.45798686 -0.08690385
v 0.3270905 -0.30785984 -0.08690385
v 0.338405 -0.39210674 -0.08690385
v -0.19635384 -0.4589384 0.08690425
v -0.29054272 -0.39567333 -0.08690385
v -0.2735889 -0.4117207 0.08690425
v -0.18529537 -0.46213242 -0.08690385
v -0.19635384 -0.4589384 0.08690425
v -0.18529537 -0.46213242 -0.08690385
v 0.23180771 -0.46312773 0.08690425
v 0.2780741 -0.45798686 -0.08690385
v 0.23180771 -0.46312773 0.08690425
v 0.2780741 -0.45798686 -0.08690385
v 0.314083 -0.43566012 0.08690425
v 0.2780741 -0.45798686 -0.08690385
v 0.314083 -0.43566012 0.08690425
v 0.338405 -0.39210674 -0.08690385
v -0.117909975 -0.09701676 0.08690425
v -0.117911085 -0.25580448 -0.08690385
v -0.117911085 -0.25580448 0.08690425
v -0.11790754 -0.09710489 -0.08690385
v 0.2492491 -0.26251084 -0.08690385
v -0.117911085 -0.25580448 0.08690425
v -0.117911085 -0.25580448 -0.08690385
v 0.2797611 -0.26567137 0.08690425
v 0.2492491 -0.26251084 -0.08690385
v 0.2797611 -0.26567137 0.08690425
v 0.29507947 -0.27617496 -0.08690385
v 0.2797611 -0.26567137 0.08690425
v 0.3270905 -0.30785984 -0.08690385
v 0.3270905 -0.30785984 0.08690425
v 0.338405 -0.39210674 -0.08690385
v 0.3270905 -0.30785984 0.08690425
v 0.3270905 -0.30785984 -0.08690385
v 0.33847356 -0.36277813 0.08690425
v 0.338405 -0.39210674 -0.08690385
v 0.314083 -0.43566012 0.08690425
v -0.117909975 -0.09701676 0.08690425
v -0.11790754 -0.09710489 -0.08690385
v 0.09585161 -0.09567985 0.08690425
v 0.10389798 -0.09441055 -0.08690385
v 0.09585161 -0.09567985 0.08690425
v 0.10389798 -0.09441055 -0.08690385
v 0.16905333 -0.074017465 0.08690425
v 0.18746541 -0.057834636 -0.08690385
vt 0.9445808 0.84202415
vt 0.9458581 0.8521137
vt 0.94198954 0.8562497
vt 0.94198954 0.8401083
vt 0.9407045 0.85700333
vt 0.9379763 0.838764
vt 0.9294195 0.85814714
vt 0.92556715 0.83819544
vt 0.9006251 0.8378799
vt 0.9006251 0.85847807
vt 0.8882801 0.85684186
vt 0.88122845 0.84811616
vt 0.87964225 0.84519917
vt 0.9006251 0.8225554
vt 0.8787539 0.834056
vt 0.87871647 0.79942846
vt 0.9006251 0.8019358
vt 0.87908745 0.7869904
vt 0.9006252 0.80192107
vt 0.9180594 0.822651
vt 0.9181825 0.80185175
vt 0.9006251 0.7860172
vt 0.92203397 0.8020551
vt 0.92936707 0.8202665
vt 0.92936707 0.80422467
vt 0.93214774 0.8165233
vt 0.93214774 0.8079679
vt 0.87963766 0.7807431
vt 0.8850329 0.770401
vt 0.89129853 0.7663671
vt 0.89276844 0.7656718
vt 0.92556715 0.7649121
vt 0.9303045 0.7855871
vt 0.9356415 0.7652547
vt 0.94198954 0.783977
vt 0.94198954 0.7668946
vt 0.9451958 0.7808035
vt 0.94389296 0.7680033
vt 0.9463357 0.77530307
vt 0.9945419 0.8388865
vt 0.9768455 0.83237195
vt 0.9768455 0.8388865
vt 0.9945419 0.83237195
vt 0.9768455 0.8219662
vt 0.9945419 0.80893683
vt 0.9768455 0.80893683
vt 0.9768455 0.78287816
vt 0.9945419 0.78287816
vt 0.9768466 0.77051246
vt 0.9945419 0.75980043
vt 0.9768455 0.75980043
vt 0.9945419 0.75337017
vt 0.9953724 0.81594265
vt 0.9776759 0.8102572
vt 0.9953724 0.8102572
vt 0.9776759 0.8007762
vt 0.9953724 0.8007762
vt 0.9776759 0.77542126
vt 0.9953723 0.7705275
vt 0.9953724 0.76893437
vt 0.9776759 0.7624476
vt 0.9953724 0.7624476
vt 0.9776759 0.758727
vt 0.9953724 0.758727
vt 0.9776759 0.75546765
vt 0.9953724 0.75546765
vt 0.9960506 0.818124
vt 0.9783541 0.813058
vt 0.9960506 0.813058
vt 0.9783541 0.807992
vt 0.9953433 0.81971407
vt 0.9776468 0.7943592
vt 0.9776468 0.81971407
vt 0.9953433 0.7943592
vt 0.9953433 0.78138554
vt 0.97764915 0.7792579
vt 0.9953433 0.7776649
vt 0.9953433 0.77440554
vt 0.9776468 0.77440554
vt 0.9778584 0.8531573
vt 0.9955549 0.8687354
vt 0.9955549 0.8531573
vt 0.9778584 0.8687354
vt 0.9964658 0.770565
vt 0.9787693 0.76675975
vt 0.9787693 0.770565
vt 0.9964658 0.76675975
vt 0.9787693 0.7580627
vt 0.9964658 0.75621665
vt 0.9787693 0.75425756
vt 0.9776759 0.7715584
vt 0.9953724 0.7769789
vt 0.9953724 0.7715584
vt 0.9953724 0.78887755
vt 0.9776759 0.78887755
vt 0.9953724 0.8007762
vt 0.9776759 0.8007762
vt 0.9458815 0.84460247
vt 0.9451958 0.8531624
vt 0.94124895 0.856763
vt 0.94198954 0.8401083
vt 0.9383296 0.85749483
vt 0.9383296 0.8388631
vt 0.9319483 0.858004
vt 0.92556715 0.8582337
vt 0.92556715 0.83819544
vt 0.9006251 0.8378799
vt 0.89402604 0.8580584
vt 0.89129853 0.8572298
vt 0.8857057 0.8545246
vt 0.88122845 0.84811616
vt 0.87890065 0.83562905
vt 0.9006251 0.8225554
vt 0.8785342 0.82506275
vt 0.87871647 0.79942846
vt 0.9006254 0.8019122
vt 0.87923706 0.7860172
vt 0.91233003 0.8018602
vt 0.91233003 0.822631
vt 0.92287385 0.80218107
vt 0.9006251 0.7860172
vt 0.92403483 0.80248034
vt 0.92403483 0.8220109
vt 0.92936707 0.8202665
vt 0.92936707 0.80422467
vt 0.93214774 0.8165233
vt 0.881186 0.7767266
vt 0.8850329 0.770401
vt 0.8938761 0.76535183
vt 0.9001142 0.76479816
vt 0.92556715 0.7649121
vt 0.92556715 0.78570163
vt 0.9373895 0.78534484
vt 0.94149464 0.76653916
vt 0.94198954 0.783977
vt 0.94198954 0.7668946
vt 0.9451958 0.7808035
vt 0.9463288 0.77236557
vt 0.9953433 0.8254579
vt 0.9776468 0.8318273
vt 0.9953433 0.8318273
vt 0.9776468 0.8254579
vt 0.9953433 0.81649625
vt 0.9776468 0.81649625
vt 0.9953433 0.7906219
vt 0.9776468 0.7906219
vt 0.9953433 0.77764827
vt 0.9776468 0.77764827
vt 0.9953433 0.7739277
vt 0.9776468 0.7739277
vt 0.9953433 0.77066827
vt 0.9776468 0.77066827
vt 0.9778584 0.86873823
vt 0.9955549 0.85255617
vt 0.9778584 0.85255617
vt 0.9955549 0.86873823
vt 0.9953724 0.77542126
vt 0.9776759 0.8007762
vt 0.9953724 0.8007762
vt 0.9776759 0.77542126
vt 0.9953724 0.7624476
vt 0.9776759 0.76296425
vt 0.9953724 0.758727
vt 0.9776759 0.758727
vt 0.9953724 0.75546765
vt 0.9776759 0.75546765
vt 0.9964658 0.7755176
vt 0.9787693 0.7811091
vt 0.9964658 0.7811091
vt 0.9787693 0.7755176
vt 0.9964658 0.7701508
vt 0.9787693 0.7701508
vt 0.99575853 0.81030697
vt 0.97806215 0.81030697
vt 0.99575853 0.80435765
vt 0.97806215 0.80435765
vt 0.99575853 0.7984084
vt 0.97806215 0.7984084
vt 0.99575853 0.7929878
vt 0.97806215 0.7929878
vn -0 0 1
vn -0 0 1
vn -0 0 1
vn -0 0 1
vn -0 0 1
vn -0 0 1
vn -0 0 1
vn -0 0 1
vn -0 0 1
vn -0 0 1
vn -0 0 1
vn -0 0 1
vn -0 0 1
vn -0 0 1
vn -0 0 1
vn -0 0 1
vn -0 0 1
vn -0 0 1
vn -0 0 1
vn -0 0 1
vn -0 0 1
vn -0 0 1
vn -0 0 1
vn -0 0 1
vn -0 0 1
vn -0 0 1
vn -0 0 1
vn -0 0 1
vn -0 0 1
vn -0 0 1
vn -0 0 1
vn -0 0 1
vn -0 0 1
vn -0 0 1
vn -0 0 1
vn -0 0 1
vn -0 0 1
vn -0 0 1
vn -0 0 1
vn -0.6486018 0.76112795 0
vn -0.92067856 0.39032152 0
vn -0.64860183 0.76112795 0
vn -0.92067856 0.39032152 0
vn -0.9923881 0.123149335 0
vn -0.999716 0.023831274 0
vn -0.999716 0.023831274 0
vn -0.9997366 -0.022949612 0
vn -0.9997366 -0.022949612 0
vn -0.9935642 -0.11327033 0
vn -0.9299253 -0.3677484 0
vn -0.9299253 -0.36774835 0
vn -0.7161083 -0.6979892 0
vn -0.64860183 0.76112795 0
vn -0.28765568 0.95773387 0
vn -0.2876557 0.95773387 0
vn -0.061585575 0.9981019 0
vn -0.06158557 0.9981019 0
vn 0.022891553 0.9997379 0
vn 0.049211413 0.9987884 0
vn 0.05777227 0.9983298 0
vn 0.20236383 0.97931045 0
vn 0.20236383 0.97931045 0
vn 0.5203 0.8539836 0
vn 0.5203 0.8539836 0
vn 0.88075376 0.47357446 0
vn 0.88075376 0.47357446 0
vn 0.88075376 0.47357446 0
vn 1 0 0
vn 1 0 0
vn 0.8807532 -0.4735755 0
vn 0.71156585 -0.7026194 0
vn 0.021531776 -0.9997682 0
vn 0.71156585 -0.7026194 0
vn 0.021531772 -0.9997682 0
vn 0.19964582 -0.9798681 0
vn 0.38870558 -0.921362 0
vn 0.5202998 -0.85398376 0
vn 0.8807532 -0.4735755 0
vn 0.8807532 -0.47357553 0
vn 0.7048195 0.70938665 0
vn 0.71156585 -0.7026194 0
vn 0.70481944 0.70938665 0
vn 0.71156585 -0.7026194 0
vn 0.5843094 0.81153095 0
vn 0.94940794 0.31404534 0
vn 0.5843094 0.81153095 0
vn 0.94940794 0.31404537 0
vn 0.94940794 -0.31404534 0
vn 0.8118574 -0.5838558 0
vn 0.5843094 -0.81153095 0
vn 0.5843094 0.81153095 0
vn 0.20999788 0.9777019 0
vn 0.5843094 0.81153095 0
vn -0.003945599 0.99999225 0
vn -0.0039455984 0.99999225 0
vn 0.70481944 0.70938665 0
vn 0.7048195 0.70938665 0
vn -0 0 -1
vn -0 0 -1
vn -0 0 -1
vn -0 0 -1
vn -0 0 -1
vn -0 0 -1
vn -0 0 -1
vn -0 0 -1
vn -0 0 -1
vn -0 0 -1
vn -0 0 -1
vn -0 0 -1
vn -0 0 -1
vn -0 0 -1
vn -0 0 -1
vn -0 0 -1
vn -0 0 -1
vn -0 0 -1
vn -0 0 -1
vn -0 0 -1
vn -0 0 -1
vn -0 0 -1
vn -0 0 -1
vn -0 0 -1
vn -0 0 -1
vn -0 0 -1
vn -0 0 -1
vn -0 0 -1
vn -0 0 -1
vn -0 0 -1
vn -0 0 -1
vn -0 0 -1
vn -0 0 -1
vn -0 0 -1
vn -0 0 -1
vn -0 0 -1
vn -0 0 -1
vn -0 0 -1
vn -0 0 -1
vn -0 0 -1
vn -0 0 -1
vn -0.3654101 -0.9308466 0
vn -0.7161083 -0.6979892 0
vn -0.7161083 -0.6979892 0
vn -0.3654101 -0.9308466 0
vn -0.08572001 -0.9963193 0
vn -0.08572 -0.9963193 0
vn 0.020218976 -0.9997956 0
vn 0.020218974 -0.9997956 0
vn 0.19620012 -0.9805638 0
vn 0.19620006 -0.9805638 0
vn 0.5089378 -0.86080337 0
vn 0.50893766 -0.86080337 0
vn 0.8751167 -0.48391175 0
vn 0.8751167 -0.48391175 0
vn 0.70481944 -0.7093867 0
vn 0.71156573 0.70261955 0
vn 0.71156573 0.70261955 0
vn 0.70481944 -0.70938665 0
vn 0.021531697 0.9997682 0
vn 0.71156573 0.70261955 0
vn 0.71156573 0.70261955 0
vn 0.021531697 0.9997682 0
vn 0.18123661 0.9834395 0
vn 0.1704691 0.98536307 0
vn 0.51670706 0.8561622 0
vn 0.51670706 0.8561623 0
vn 0.8788055 0.47718012 0
vn 0.8788055 0.47718012 0
vn 0.9999914 -0.004152148 0
vn 0.8788055 0.47718012 0
vn 0.8788055 0.47718012 0
vn 0.9999914 -0.004152143 0
vn 0.8751167 -0.48391175 0
vn 0.8751167 -0.48391175 0
vn -0.0039455984 -0.99999225 0
vn -0.003945599 -0.99999225 0
vn 0.052750535 -0.9986078 0
vn 0.052750535 -0.9986078 0
vn 0.20999788 -0.9777019 0
vn 0.20999788 -0.9777019 0
vn 0.5843094 -0.81153095 0
vn 0.58430934 -0.811531 0
g textE_collision_0
f 2/2/2 3/3/3 1/1/1
f 6/6/6 4/4/4 5/5/5
f 8/8/8 7/7/7 9/9/9
f 10/10/10 9/9/9 7/7/7
f 12/12/12 9/9/9 11/11/11
f 9/9/9 13/13/13 14/14/14
f 15/15/15 16/16/16 14/14/14
f 17/17/17 14/14/14 16/16/16
f 20/20/20 14/14/14 19/19/19
f 19/19/19 21/21/21 20/20/20
f 22/22/22 17/17/17 18/18/18
f 25/25/25 24/24/24 23/23/23
f 24/24/24 25/25/25 26/26/26
f 27/27/27 26/26/26 25/25/25
f 22/22/22 28/28/28 29/29/29
f 30/30/30 22/22/22 29/29/29
f 31/31/31 32/32/32 22/22/22
f 33/33/33 22/22/22 32/32/32
f 36/36/36 35/35/35 34/34/34
f 35/35/35 36/36/36 37/37/37
f 38/38/38 39/39/39 37/37/37
f 42/42/42 41/41/41 40/40/40
f 43/43/43 40/40/40 41/41/41
f 41/41/41 44/44/44 43/43/43
f 46/46/46 47/47/47 45/45/45
f 48/48/48 45/45/45 47/47/47
f 51/51/51 50/50/50 49/49/49
f 50/50/50 51/51/51 52/52/52
f 55/55/55 53/53/53 54/54/54
f 56/56/56 58/58/58 57/57/57
f 59/59/59 57/57/57 58/58/58
f 62/62/62 60/60/60 61/61/61
f 63/63/63 65/65/65 64/64/64
f 66/66/66 64/64/64 65/65/65
f 69/69/69 67/67/67 68/68/68
f 68/68/68 70/70/70 69/69/69
f 73/73/73 72/72/72 71/71/71
f 74/74/74 71/71/71 72/72/72
f 77/77/77 75/75/75 76/76/76
f 79/79/79 78/78/78 76/76/76
f 82/82/82 81/81/81 80/80/80
f 83/83/83 80/80/80 81/81/81
f 86/86/86 85/85/85 84/84/84
f 87/87/87 84/84/84 85/85/85
f 85/85/85 88/88/88 87/87/87
f 89/89/89 87/87/87 88/88/88
f 88/88/88 90/90/90 89/89/89
f 93/93/93 92/92/92 91/91/91
f 94/94/94 96/96/96 95/95/95
f 97/97/97 95/95/95 96/96/96
f 99/99/99 98/98/98 100/100/100
f 101/101/101 100/100/100 98/98/98
f 102/102/102 103/103/103 104/104/104
f 106/106/106 107/107/107 105/105/105
f 108/108/108 105/105/105 107/107/107
f 109/109/109 107/107/107 110/110/110
f 107/107/107 111/111/111 110/110/110
f 107/107/107 112/112/112 111/111/111
f 107/107/107 113/113/113 112/112/112
f 114/114/114 113/113/113 115/115/115
f 116/116/116 115/115/115 113/113/113
f 119/119/119 118/118/118 113/113/113
f 118/118/118 119/119/119 120/120/120
f 121/121/121 117/117/117 116/116/116
f 123/123/123 124/124/124 122/122/122
f 125/125/125 122/122/122 124/124/124
f 124/124/124 126/126/126 125/125/125
f 117/117/117 121/121/121 127/127/127
f 121/121/121 129/129/129 128/128/128
f 130/130/130 121/121/121 131/131/131
f 132/132/132 131/131/131 121/121/121
f 133/133/133 135/135/135 134/134/134
f 135/135/135 137/137/137 136/136/136
f 138/138/138 136/136/136 137/137/137
f 141/141/141 140/140/140 139/139/139
f 142/142/142 139/139/139 140/140/140
f 143/143/143 144/144/144 145/145/145
f 146/146/146 145/145/145 144/144/144
f 147/147/147 148/148/148 149/149/149
f 152/152/152 151/151/151 150/150/150
f 155/155/155 154/154/154 153/153/153
f 156/156/156 153/153/153 154/154/154
f 159/159/159 158/158/158 157/157/157
f 160/160/160 157/157/157 158/158/158
f 161/161/161 162/162/162 163/163/163
f 163/163/163 164/164/164 165/165/165
f 166/166/166 165/165/165 164/164/164
f 169/169/169 168/168/168 167/167/167
f 170/170/170 167/167/167 168/168/168
f 172/172/172 171/171/171 170/170/170
f 173/173/173 174/174/174 175/175/175
f 176/176/176 175/175/175 174/174/174
f 177/177/177 178/178/178 179/179/179
f 180/180/180 179/179/179 178/178/178
