g textI_collision
v 0.04835228 0.44607717 0.08442003
v 0.038276415 0.45260623 -0.08441942
v -0.038276352 0.45260623 0.08442003
v -0.048352204 0.44607717 -0.08441942
v 0.038276415 0.45260623 -0.08441942
v 0.09750643 0.3870009 0.08442003
v 0.04835228 0.44607717 0.08442003
v 0.09435538 0.3891858 -0.08441942
v 0.09435538 0.3891858 -0.08441942
v 0.09750643 0.3870009 0.08442003
v 0.09800151 -0.38218355 -0.08441942
v 0.098359145 -0.36376017 0.08442003
v 0.09800151 -0.38218355 -0.08441942
v 0.062404703 -0.43925434 0.08442003
v 0.03828255 -0.45260295 -0.08441942
v -0.038276352 0.45260623 0.08442003
v -0.0915339 0.39640355 -0.08441942
v -0.048352204 0.44607717 -0.08441942
v -0.084608994 0.4070719 0.08442003
v -0.0915339 0.39640355 -0.08441942
v -0.10072603 0.35459477 0.08442003
v -0.10204608 -0.35080528 -0.08441942
v -0.10072603 0.35459477 0.08442003
v -0.094354816 -0.38918683 0.08442003
v -0.10204608 -0.35080528 -0.08441942
v -0.094354816 -0.38918683 0.08442003
v -0.062404633 -0.43925434 -0.08441942
v -0.048352204 -0.44607753 0.08442003
v 0.03828255 -0.45260295 -0.08441942
v 0.062404703 -0.43925434 0.08442003
v 6.7850986E-10 -0.45516795 0.08442003
v -0.062404633 -0.43925434 -0.08441942
v -0.048352204 -0.44607753 0.08442003
v -0.10204608 -0.35080528 -0.08441942
v -0.10204608 -0.35080528 -0.08441942
v -0.062404633 -0.43925434 -0.08441942
v -0.0915339 0.39640355 -0.08441942
v -0.0915339 0.39640355 -0.08441942
v -0.062404633 -0.43925434 -0.08441942
v -0.048352204 0.44607717 -0.08441942
v 0.03828255 -0.45260295 -0.08441942
v 0.038276415 0.45260623 -0.08441942
v 0.03828255 -0.45260295 -0.08441942
v 0.012841968 3.7170995E-09 -0.08441942
v 0.038276415 0.45260623 -0.08441942
v 0.09800151 -0.38218355 -0.08441942
v 0.09435538 0.3891858 -0.08441942
v 0.09435538 0.3891858 -0.08441942
v 0.09800151 -0.38218355 -0.08441942
v -0.094354816 -0.38918683 0.08442003
v 0.012841968 -3.733481E-09 0.08442003
v -0.094354816 -0.38918683 0.08442003
v -0.10072603 0.35459477 0.08442003
v -0.10072603 0.35459477 0.08442003
v -0.084608994 0.4070719 0.08442003
v -0.048352204 -0.44607753 0.08442003
v -0.038276352 0.45260623 0.08442003
v 6.7850986E-10 -0.45516795 0.08442003
v -0.038276352 0.45260623 0.08442003
v 0.062404703 -0.43925434 0.08442003
v 0.04835228 0.44607717 0.08442003
v 0.062404703 -0.43925434 0.08442003
v 0.09750643 0.3870009 0.08442003
v 0.098359145 -0.36376017 0.08442003
v 0.09750643 0.3870009 0.08442003
vt 0.3637768 0.8645814
vt 0.34268928 0.8632178
vt 0.3637768 0.8538668
vt 0.34268928 0.85250324
vt 0.36426014 0.8673674
vt 0.3431726 0.8624958
vt 0.3431726 0.8673674
vt 0.36426014 0.8624958
vt 0.36426014 0.8570863
vt 0.3431726 0.85604644
vt 0.36426014 0.7673696
vt 0.3431726 0.7662209
vt 0.36426014 0.76081145
vt 0.3431726 0.76081145
vt 0.36426014 0.75593984
vt 0.36287975 0.86852014
vt 0.34179223 0.86364853
vt 0.34179223 0.86852014
vt 0.36287975 0.86364853
vt 0.34179223 0.8621886
vt 0.36287975 0.85709053
vt 0.34179223 0.81280637
vt 0.36287975 0.81280637
vt 0.36287975 0.7673737
vt 0.34179223 0.768997
vt 0.36287975 0.7619642
vt 0.34179223 0.7619642
vt 0.36287975 0.7570926
vt 0.3637768 0.84357727
vt 0.34268928 0.84961635
vt 0.34268928 0.84357727
vt 0.3637768 0.83753824
vt 0.34268928 0.83753824
vt 0.28631687 0.76623356
vt 0.2868734 0.8125
vt 0.284568 0.76072484
vt 0.28631687 0.85876644
vt 0.284568 0.86427516
vt 0.27995652 0.7557639
vt 0.27995652 0.8692361
vt 0.2689375 0.7549339
vt 0.27380663 0.8703925
vt 0.26765674 0.7557639
vt 0.2721733 0.8125
vt 0.26765674 0.8692361
vt 0.2630453 0.76072484
vt 0.2630453 0.86427516
vt 0.26180565 0.86200005
vt 0.26073986 0.8125
vt 0.2612964 0.76623356
vt 0.27543998 0.8125
vt 0.2618057 0.7629996
vt 0.26073986 0.8125
vt 0.2612964 0.85876644
vt 0.2630453 0.86427516
vt 0.26765674 0.7557639
vt 0.26765674 0.8692361
vt 0.27380663 0.7546075
vt 0.27380663 0.8703925
vt 0.27995652 0.7557639
vt 0.27995652 0.8692361
vt 0.284568 0.76072484
vt 0.284568 0.86427516
vt 0.28631687 0.76623356
vt 0.2868734 0.8125
vn 0.4828243 0.8757172 0
vn 0.38220143 0.924079 0
vn -0.38220137 0.92407906 0
vn -0.4828243 0.8757172 0
vn 0.4828243 0.8757172 0
vn 0.8637372 0.50394243 0
vn 0.4828243 0.8757172 0
vn 0.8637372 0.50394243 0
vn 0.9872721 0.15904015 0
vn 0.98784465 0.15544438 0
vn 0.98790383 -0.1550678 0
vn 0.9872721 -0.15904015 0
vn 0.8637372 -0.50394243 0
vn 0.8637372 -0.50394243 0
vn 0.4828243 -0.8757172 0
vn -0.4828243 0.8757172 0
vn -0.8637372 0.50394243 0
vn -0.4828243 0.8757172 0
vn -0.8637372 0.50394243 0
vn -0.9091823 0.4163983 0
vn -0.9879037 0.15506823 0
vn -1 0 0
vn -1 0 0
vn -0.9872721 -0.15904015 0
vn -0.9881604 -0.15342483 0
vn -0.8637372 -0.50394243 0
vn -0.8637372 -0.50394243 0
vn -0.4828243 -0.8757172 0
vn -0 -1 0
vn 0.4828243 -0.8757172 0
vn -0 -1 0
vn -0.4828243 -0.8757172 0
vn -0.4828243 -0.8757172 0
vn -0 0 -1
vn -0 0 -1
vn -0 0 -1
vn -0 0 -1
vn -0 0 -1
vn -0 0 -1
vn -0 0 -1
vn -0 0 -1
vn -0 0 -1
vn -0 0 -1
vn -0 0 -1
vn -0 0 -1
vn -0 0 -1
vn -0 0 -1
vn -0 0 -1
vn -0 0 -1
vn -0 0 1
vn -0 0 1
vn -0 0 1
vn -0 0 1
vn -0 0 1
vn -0 0 1
vn -0 0 1
vn -0 0 1
vn -0 0 1
vn -0 0 1
vn -0 0 1
vn -0 0 1
vn -0 0 1
vn -0 0 1
vn -0 0 1
vn -0 0 1
g textI_collision_0
f 3/3/3 1/1/1 2/2/2
f 2/2/2 4/4/4 3/3/3
f 7/7/7 6/6/6 5/5/5
f 8/8/8 5/5/5 6/6/6
f 11/11/11 9/9/9 10/10/10
f 10/10/10 12/12/12 11/11/11
f 14/14/14 13/13/13 12/12/12
f 13/13/13 14/14/14 15/15/15
f 18/18/18 17/17/17 16/16/16
f 19/19/19 16/16/16 17/17/17
f 21/21/21 19/19/19 20/20/20
f 20/20/20 22/22/22 21/21/21
f 23/23/23 22/22/22 24/24/24
f 27/27/27 26/26/26 25/25/25
f 26/26/26 27/27/27 28/28/28
f 31/31/31 29/29/29 30/30/30
f 29/29/29 31/31/31 32/32/32
f 33/33/33 32/32/32 31/31/31
f 36/36/36 34/34/34 44/44/44
f 35/35/35 37/37/37 44/44/44
f 40/40/40 44/44/44 38/38/38
f 41/41/41 39/39/39 44/44/44
f 42/42/42 44/44/44 40/40/40
f 43/43/43 44/44/44 46/46/46
f 44/44/44 45/45/45 47/47/47
f 49/49/49 44/44/44 48/48/48
f 53/53/53 50/50/50 51/51/51
f 55/55/55 54/54/54 51/51/51
f 56/56/56 51/51/51 52/52/52
f 51/51/51 57/57/57 55/55/55
f 58/58/58 51/51/51 56/56/56
f 58/58/58 60/60/60 51/51/51
f 59/59/59 51/51/51 61/61/61
f 61/61/61 51/51/51 63/63/63
f 62/62/62 64/64/64 51/51/51
f 65/65/65 51/51/51 64/64/64
