g Text_N
v -0.2678636 -0.4516765 0.08418546
v -0.18406233 -0.43151963 0.08418546
v -0.22605452 -0.4516765 0.08418546
v -0.3098558 -0.43151963 0.08418546
v -0.16072401 -0.40433228 0.08418546
v -0.3331941 -0.40433228 0.08418546
v -0.15014204 -0.36513627 0.08418546
v -0.34377608 -0.36513627 0.08418546
v -0.14649901 -0.28475678 0.08418546
v -0.3474191 -0.28475678 0.08418546
v -0.14610037 0.029085513 0.08418546
v -0.35263762 0.029085513 0.08418546
v -0.14610037 0.3852681 0.08418546
v -0.35261855 0.3112172 0.08418546
v 0.0005570078 0.1956414 0.08418546
v -0.18342528 0.42144668 0.08418546
v 0.0005570078 -0.18214715 0.08418546
v -0.34519896 0.36408508 0.08418546
v -0.21188292 0.44002807 0.08418546
v -0.33452162 0.39783752 0.08418546
v -0.23821768 0.44912994 0.08418546
v -0.32303175 0.42047012 0.08418546
v -0.26699576 0.45167434 0.08418546
v -0.300876 0.44022644 0.08418546
v 0.14721361 -0.01961625 0.08418546
v 0.14721361 -0.38925278 0.08418546
v 0.34709993 -0.32495987 0.08418546
v 0.35263887 -0.01961625 0.08418546
v 0.33853975 -0.38925278 0.08418546
v 0.3484389 0.3290776 0.08418546
v 0.17308298 -0.42012513 0.08418546
v 0.14721361 0.3290776 0.08418546
v 0.32411638 -0.42012513 0.08418546
v 0.3444411 0.37017334 0.08418546
v 0.18924966 -0.43663514 0.08418546
v 0.15121141 0.37017334 0.08418546
v 0.30794588 -0.43663514 0.08418546
v 0.22429147 -0.45104325 0.08418546
v 0.27290598 -0.45104325 0.08418546
v 0.33256212 0.40139282 0.08418546
v 0.1638743 0.40139282 0.08418546
v 0.3155028 0.42561996 0.08418546
v 0.18582025 0.42561996 0.08418546
v 0.28117624 0.44531906 0.08418546
v 0.2201468 0.44531906 0.08418546
v -0.14610037 0.029085513 -0.08418479
v -0.14649901 -0.28475678 0.08418546
v -0.14610037 0.029085513 0.08418546
v -0.14649901 -0.28475678 -0.08418479
v -0.15014204 -0.36513627 -0.08418479
v -0.15014204 -0.36513627 0.08418546
v -0.16072401 -0.40433228 -0.08418479
v -0.16072401 -0.40433228 0.08418546
v -0.18406233 -0.43151963 -0.08418479
v -0.18406233 -0.43151963 0.08418546
v -0.14610037 0.3852681 0.08418546
v -0.18342528 0.42144668 -0.08418479
v -0.14610037 0.3852681 -0.08418479
v -0.18342528 0.42144668 0.08418546
v -0.21188292 0.44002807 -0.08418479
v -0.21188292 0.44002807 0.08418546
v -0.23821768 0.44912994 -0.08418479
v -0.23821768 0.44912994 0.08418546
v -0.26699576 0.45167434 -0.08418479
v -0.26699576 0.45167434 0.08418546
v -0.300876 0.44022644 -0.08418479
v -0.300876 0.44022644 0.08418546
v -0.32303175 0.42047012 -0.08418479
v -0.32303175 0.42047012 0.08418546
v -0.32303175 0.42047012 0.08418546
v -0.33452162 0.39783752 -0.08418479
v -0.32303175 0.42047012 -0.08418479
v -0.33452162 0.39783752 0.08418546
v -0.34519896 0.36408508 -0.08418479
v -0.34519896 0.36408508 0.08418546
v -0.35261855 0.3112172 -0.08418479
v -0.35261855 0.3112172 0.08418546
v -0.35263762 0.029085513 -0.08418479
v -0.35263762 0.029085513 0.08418546
v -0.3474191 -0.28475678 0.08418546
v -0.3474191 -0.28475678 -0.08418479
v -0.34377608 -0.36513627 0.08418546
v -0.34377608 -0.36513627 -0.08418479
v -0.3331941 -0.40433228 0.08418546
v -0.3331941 -0.40433228 -0.08418479
v -0.3098558 -0.43151963 0.08418546
v -0.3098558 -0.43151963 -0.08418479
v -0.14610037 0.029085513 0.08418546
v 0.0005570078 -0.18214715 -0.08418479
v -0.14610037 0.029085513 -0.08418479
v 0.0005570078 -0.18214715 0.08418546
v 0.14721361 -0.38925278 -0.08418479
v 0.14721361 -0.38925278 0.08418546
v 0.17308298 -0.42012513 -0.08418479
v 0.17308298 -0.42012513 0.08418546
v 0.18924966 -0.43663514 -0.08418479
v 0.18924966 -0.43663514 0.08418546
v 0.14721361 -0.01961625 0.08418546
v 0.0005570078 0.1956414 -0.08418479
v 0.14721361 -0.01961625 -0.08418479
v 0.0005570078 0.1956414 0.08418546
v -0.14610037 0.3852681 -0.08418479
v -0.14610037 0.3852681 0.08418546
v 0.30794588 -0.43663514 0.08418546
v 0.32411638 -0.42012513 -0.08418479
v 0.30794588 -0.43663514 -0.08418479
v 0.32411638 -0.42012513 0.08418546
v 0.33853975 -0.38925278 -0.08418479
v 0.33853975 -0.38925278 0.08418546
v 0.34709993 -0.32495987 -0.08418479
v 0.34709993 -0.32495987 0.08418546
v 0.35263887 -0.01961625 -0.08418479
v 0.35263887 -0.01961625 0.08418546
v 0.3484389 0.3290776 -0.08418479
v 0.3484389 0.3290776 0.08418546
v 0.3444411 0.37017334 -0.08418479
v 0.3444411 0.37017334 0.08418546
v 0.33256212 0.40139282 -0.08418479
v 0.33256212 0.40139282 0.08418546
v 0.3155028 0.42561996 -0.08418479
v 0.3155028 0.42561996 0.08418546
v 0.18924966 -0.43663514 0.08418546
v 0.22429147 -0.45104325 -0.08418479
v 0.18924966 -0.43663514 -0.08418479
v 0.22429147 -0.45104325 0.08418546
v 0.27290598 -0.45104325 -0.08418479
v 0.27290598 -0.45104325 0.08418546
v 0.30794588 -0.43663514 -0.08418479
v 0.30794588 -0.43663514 0.08418546
v 0.14721361 -0.01961625 -0.08418479
v 0.14721361 0.3290776 0.08418546
v 0.14721361 -0.01961625 0.08418546
v 0.14721361 0.3290776 -0.08418479
v 0.15121141 0.37017334 0.08418546
v 0.15121141 0.37017334 -0.08418479
v 0.1638743 0.40139282 0.08418546
v 0.1638743 0.40139282 -0.08418479
v 0.18582025 0.42561996 0.08418546
v 0.18582025 0.42561996 -0.08418479
v 0.18582025 0.42561996 -0.08418479
v 0.2201468 0.44531906 0.08418546
v 0.18582025 0.42561996 0.08418546
v 0.2201468 0.44531906 -0.08418479
v 0.28117624 0.44531906 0.08418546
v 0.28117624 0.44531906 -0.08418479
v 0.3155028 0.42561996 0.08418546
v 0.3155028 0.42561996 -0.08418479
v -0.18406233 -0.43151963 -0.08418479
v -0.2678636 -0.4516765 -0.08418479
v -0.22605452 -0.4516765 -0.08418479
v -0.3098558 -0.43151963 -0.08418479
v -0.16072401 -0.40433228 -0.08418479
v -0.3331941 -0.40433228 -0.08418479
v -0.15014204 -0.36513627 -0.08418479
v -0.34377608 -0.36513627 -0.08418479
v -0.14649901 -0.28475678 -0.08418479
v -0.3474191 -0.28475678 -0.08418479
v -0.14610037 0.029085513 -0.08418479
v -0.35263762 0.029085513 -0.08418479
v -0.14610037 0.3852681 -0.08418479
v -0.35261855 0.3112172 -0.08418479
v 0.0005570078 0.1956414 -0.08418479
v -0.18342528 0.42144668 -0.08418479
v 0.0005570078 -0.18214715 -0.08418479
v -0.34519896 0.36408508 -0.08418479
v -0.21188292 0.44002807 -0.08418479
v -0.33452162 0.39783752 -0.08418479
v -0.23821768 0.44912994 -0.08418479
v -0.32303175 0.42047012 -0.08418479
v -0.26699576 0.45167434 -0.08418479
v -0.300876 0.44022644 -0.08418479
v 0.14721361 -0.01961625 -0.08418479
v 0.14721361 -0.38925278 -0.08418479
v 0.34709993 -0.32495987 -0.08418479
v 0.35263887 -0.01961625 -0.08418479
v 0.33853975 -0.38925278 -0.08418479
v 0.3484389 0.3290776 -0.08418479
v 0.17308298 -0.42012513 -0.08418479
v 0.14721361 0.3290776 -0.08418479
v 0.32411638 -0.42012513 -0.08418479
v 0.3444411 0.37017334 -0.08418479
v 0.18924966 -0.43663514 -0.08418479
v 0.15121141 0.37017334 -0.08418479
v 0.30794588 -0.43663514 -0.08418479
v 0.22429147 -0.45104325 -0.08418479
v 0.27290598 -0.45104325 -0.08418479
v 0.33256212 0.40139282 -0.08418479
v 0.1638743 0.40139282 -0.08418479
v 0.3155028 0.42561996 -0.08418479
v 0.18582025 0.42561996 -0.08418479
v 0.28117624 0.44531906 -0.08418479
v 0.2201468 0.44531906 -0.08418479
v -0.2678636 -0.4516765 0.08418546
v -0.3098558 -0.43151963 -0.08418479
v -0.3098558 -0.43151963 0.08418546
v -0.2678636 -0.4516765 -0.08418479
v -0.22605452 -0.4516765 0.08418546
v -0.22605452 -0.4516765 -0.08418479
v -0.18406233 -0.43151963 0.08418546
v -0.18406233 -0.43151963 -0.08418479
vt 0.51135075 0.8854315
vt 0.51989055 0.8874853
vt 0.5156113 0.8854315
vt 0.50707155 0.8874853
vt 0.5222689 0.89025605
vt 0.5046932 0.89025605
vt 0.52334726 0.89425045
vt 0.5036149 0.89425045
vt 0.5237184 0.90244144
vt 0.5032437 0.90244144
vt 0.5237592 0.93442345
vt 0.5027118 0.93442345
vt 0.5237592 0.9707203
vt 0.50271386 0.9631739
vt 0.5387042 0.9513964
vt 0.51995546 0.974407
vt 0.5387042 0.9128977
vt 0.5034698 0.9685617
vt 0.51705545 0.9763008
vt 0.5045579 0.97200114
vt 0.51437193 0.97722805
vt 0.5057291 0.9743075
vt 0.5114393 0.97748744
vt 0.5079868 0.97632074
vt 0.5536493 0.9294605
vt 0.5536493 0.89179254
vt 0.57401854 0.8983443
vt 0.5745832 0.9294605
vt 0.5731464 0.89179254
vt 0.5741551 0.964994
vt 0.55628544 0.8886467
vt 0.5536493 0.964994
vt 0.57167643 0.8886467
vt 0.5737477 0.9691821
vt 0.557933 0.8869641
vt 0.55405676 0.9691821
vt 0.5700289 0.8869641
vt 0.5615039 0.8854957
vt 0.566458 0.8854957
vt 0.5725371 0.9723636
vt 0.5553471 0.9723636
vt 0.57079875 0.97483236
vt 0.5575836 0.97483236
vt 0.56730074 0.97683984
vt 0.5610816 0.97683984
vt 0.57732 0.9974225
vt 0.6080741 0.9809235
vt 0.57732 0.9809235
vt 0.6080741 0.9974225
vt 0.6159506 0.9974225
vt 0.6159506 0.9809235
vt 0.6197917 0.9974225
vt 0.6197917 0.9809235
vt 0.622456 0.9974225
vt 0.622456 0.9809235
vt 0.6025238 0.9360694
vt 0.61902285 0.93972707
vt 0.61902285 0.9360694
vt 0.6025238 0.93972707
vt 0.61902285 0.94251573
vt 0.6025238 0.94251573
vt 0.61902285 0.94509625
vt 0.6025238 0.94509625
vt 0.61902285 0.94791627
vt 0.6025238 0.94791627
vt 0.61902285 0.95123625
vt 0.6025238 0.95123625
vt 0.61902285 0.9534073
vt 0.6025238 0.9534073
vt 0.62031305 0.9657191
vt 0.603814 0.96350133
vt 0.603814 0.9657191
vt 0.62031305 0.96350133
vt 0.603814 0.96019393
vt 0.62031305 0.96019393
vt 0.603814 0.95501304
vt 0.62031305 0.95501304
vt 0.603814 0.9273664
vt 0.62031305 0.9273664
vt 0.62031305 0.8966123
vt 0.603814 0.8966123
vt 0.62031305 0.8887358
vt 0.603814 0.8887358
vt 0.62031305 0.8848947
vt 0.603814 0.8848947
vt 0.62031305 0.8822304
vt 0.603814 0.8822304
vt 0.62031305 0.9273664
vt 0.603814 0.9066671
vt 0.603814 0.9273664
vt 0.62031305 0.9066671
vt 0.603814 0.8863722
vt 0.62031305 0.8863722
vt 0.603814 0.88334715
vt 0.62031305 0.88334715
vt 0.603814 0.8817291
vt 0.62031305 0.8817291
vt 0.60421807 0.92110366
vt 0.6207171 0.9421974
vt 0.6207171 0.92110366
vt 0.60421807 0.9421974
vt 0.6207171 0.96077937
vt 0.60421807 0.96077937
vt 0.60421807 0.88023883
vt 0.6207171 0.88185686
vt 0.6207171 0.88023883
vt 0.60421807 0.88185686
vt 0.6207171 0.884882
vt 0.60421807 0.884882
vt 0.6207171 0.89118207
vt 0.60421807 0.89118207
vt 0.6207171 0.92110366
vt 0.60421807 0.92110366
vt 0.6207171 0.9552729
vt 0.60421807 0.9552729
vt 0.6207171 0.95930016
vt 0.60421807 0.95930016
vt 0.6207171 0.96235955
vt 0.60421807 0.96235955
vt 0.6207171 0.96473354
vt 0.60421807 0.96473354
vt 0.62051314 0.92250526
vt 0.6040141 0.9190715
vt 0.6040141 0.92250526
vt 0.62051314 0.9190715
vt 0.6040141 0.91430753
vt 0.62051314 0.91430753
vt 0.6040141 0.9108738
vt 0.62051314 0.9108738
vt 0.5772632 0.99794966
vt 0.6114325 0.9814506
vt 0.5772632 0.9814506
vt 0.6114325 0.99794966
vt 0.61545974 0.9814506
vt 0.61545974 0.99794966
vt 0.61851907 0.9814506
vt 0.61851907 0.99794966
vt 0.62089306 0.9814506
vt 0.62089306 0.99794966
vt 0.62110925 0.910399
vt 0.6046102 0.90703535
vt 0.6046102 0.910399
vt 0.62110925 0.90703535
vt 0.6046102 0.901055
vt 0.62110925 0.901055
vt 0.6046102 0.89769125
vt 0.62110925 0.89769125
vt 0.51989055 0.8874853
vt 0.51135075 0.8854315
vt 0.51561135 0.8854315
vt 0.50707155 0.8874853
vt 0.5222689 0.89025605
vt 0.5046932 0.89025605
vt 0.52334726 0.89425045
vt 0.50361484 0.89425045
vt 0.5237185 0.90244144
vt 0.5032437 0.90244144
vt 0.5237591 0.93442345
vt 0.5027118 0.93442345
vt 0.5237591 0.9707203
vt 0.50271386 0.9631739
vt 0.5387042 0.9513964
vt 0.51995546 0.974407
vt 0.5387042 0.9128977
vt 0.5034698 0.9685617
vt 0.51705545 0.9763008
vt 0.5045579 0.97200114
vt 0.51437193 0.97722805
vt 0.50572914 0.9743075
vt 0.5114393 0.97748744
vt 0.5079868 0.97632074
vt 0.5536493 0.9294605
vt 0.5536493 0.89179254
vt 0.57401854 0.8983443
vt 0.5745832 0.9294605
vt 0.5731464 0.89179254
vt 0.5741551 0.964994
vt 0.55628544 0.8886467
vt 0.5536493 0.964994
vt 0.57167643 0.8886467
vt 0.57374763 0.9691821
vt 0.557933 0.8869641
vt 0.55405676 0.9691821
vt 0.5700289 0.8869641
vt 0.5615039 0.8854957
vt 0.566458 0.8854957
vt 0.5725371 0.9723636
vt 0.555347 0.9723636
vt 0.5707987 0.97483236
vt 0.5575836 0.97483236
vt 0.56730074 0.97683984
vt 0.5610816 0.97683984
vt 0.62110925 0.89218795
vt 0.6046102 0.8963028
vt 0.62110925 0.8963028
vt 0.6046102 0.89218795
vt 0.62110925 0.88809097
vt 0.6046102 0.88809097
vt 0.62110925 0.883976
vt 0.6046102 0.883976
vn -0 0 1
vn -0 0 1
vn -0 0 1
vn -0 0 1
vn -0 0 1
vn -0 0 1
vn -0 0 1
vn -0 0 1
vn -0 0 1
vn -0 0 1
vn -0 0 1
vn -0 0 1
vn -0 0 1
vn -0 0 1
vn -0 0 1
vn -0 0 1
vn -0 0 1
vn -0 0 1
vn -0 0 1
vn -0 0 1
vn -0 0 1
vn -0 0 1
vn -0 0 1
vn -0 0 1
vn -0 0 1
vn -0 0 1
vn -0 0 1
vn -0 0 1
vn -0 0 1
vn -0 0 1
vn -0 0 1
vn -0 0 1
vn -0 0 1
vn -0 0 1
vn -0 0 1
vn -0 0 1
vn -0 0 1
vn -0 0 1
vn -0 0 1
vn -0 0 1
vn -0 0 1
vn -0 0 1
vn -0 0 1
vn -0 0 1
vn -0 0 1
vn 0.29819837 -0.9545039 0
vn 0.999729 -0.023278022 0
vn 0.2981986 -0.9545038 0
vn 0.999729 -0.023278018 0
vn 0.9880916 -0.15386687 0
vn 0.9880916 -0.1538669 0
vn 0.8839698 -0.46754414 0
vn 0.8839698 -0.46754408 0
vn 0.6087295 -0.7933779 0
vn 0.6087295 -0.7933779 0
vn 0.7454006 0.66661674 0
vn 0.6242223 0.78124684 0
vn 0.7454006 0.6666168 0
vn 0.6242223 0.78124684 0
vn 0.43999708 0.8979993 0
vn 0.43999714 0.89799917 0
vn 0.20890607 0.9779358 0
vn 0.20890607 0.9779358 0
vn -0.118554704 0.9929476 0
vn -0.118554704 0.9929476 0
vn -0.50298965 0.86429244 0
vn -0.5029896 0.86429244 0
vn -0.7922998 0.6101319 0
vn -0.79229975 0.610132 0
vn -0.79229975 0.610132 0
vn -0.92561316 0.3784711 0
vn -0.7922998 0.6101319 0
vn -0.92561316 0.3784711 0
vn -0.975261 0.22105661 0
vn -0.975261 0.2210566 0
vn -0.9975695 0.06967816 0
vn -0.9975695 0.069678165 0
vn -0.9999658 -0.0082789995 0
vn -0.9999658 -0.008278998 0
vn -0.9995209 -0.030952096 0
vn -0.9995209 -0.030952092 0
vn -0.9880918 -0.15386517 0
vn -0.9880918 -0.15386516 0
vn -0.88397115 -0.46754143 0
vn -0.88397115 -0.46754143 0
vn -0.6087329 -0.79337525 0
vn -0.608733 -0.7933752 0
vn 0.2981986 -0.9545038 0
vn -0.8187762 -0.5741128 0
vn 0.29819837 -0.9545039 0
vn -0.8187762 -0.5741128 0
vn -0.79194295 -0.6105951 0
vn -0.79194295 -0.6105951 0
vn -0.74105024 -0.6714496 0
vn -0.7410501 -0.6714497 0
vn -0.5588753 -0.8292517 0
vn -0.5588753 -0.8292517 0
vn -0.29459783 0.9556214 0
vn 0.80909306 0.5876805 0
vn -0.29459783 0.9556214 0
vn 0.80909306 0.5876806 0
vn 0.7454006 0.6666168 0
vn 0.7454006 0.66661674 0
vn 0.5588753 -0.8292517 0
vn 0.82193565 -0.56958026 0
vn 0.5588754 -0.8292517 0
vn 0.8219358 -0.56958026 0
vn 0.95973676 -0.28090075 0
vn 0.95973676 -0.2809008 0
vn 0.99717087 -0.07516845 0
vn 0.99717087 -0.075168446 0
vn 0.99999535 -0.0030489352 0
vn 0.99999535 -0.0030489322 0
vn 0.9985145 0.05448727 0
vn 0.9985145 0.05448727 0
vn 0.9736028 0.22824933 0
vn 0.9736028 0.22824933 0
vn 0.88301814 0.4693388 0
vn 0.88301814 0.46933892 0
vn 0.67365456 0.7390464 0
vn 0.67365456 0.7390464 0
vn -0.5588753 -0.8292517 0
vn -0.19382626 -0.9810358 0
vn -0.5588753 -0.8292517 0
vn -0.19382626 -0.9810358 0
vn 0.19382626 -0.9810358 0
vn 0.19382626 -0.9810358 0
vn 0.5588754 -0.8292517 0
vn 0.5588753 -0.8292517 0
vn -0.29459783 0.9556214 0
vn -0.99882454 0.04847237 0
vn -0.29459783 0.9556214 0
vn -0.99882454 0.04847237 0
vn -0.97106737 0.23880592 0
vn -0.97106737 0.23880593 0
vn -0.8468921 0.53176475 0
vn -0.8468921 0.53176475 0
vn -0.6271264 0.7789175 0
vn -0.6271264 0.7789175 0
vn -0.6271264 0.7789175 0
vn -0.2575624 0.9662616 0
vn -0.6271264 0.7789175 0
vn -0.2575624 0.9662616 0
vn 0.2575624 0.9662616 0
vn 0.2575624 0.9662616 0
vn 0.67365456 0.7390464 0
vn 0.67365456 0.7390464 0
vn -0 0 -1
vn -0 0 -1
vn -0 0 -1
vn -0 0 -1
vn -0 0 -1
vn -0 0 -1
vn -0 0 -1
vn -0 0 -1
vn -0 0 -1
vn -0 0 -1
vn -0 0 -1
vn -0 0 -1
vn -0 0 -1
vn -0 0 -1
vn -0 0 -1
vn -0 0 -1
vn -0 0 -1
vn -0 0 -1
vn -0 0 -1
vn -0 0 -1
vn -0 0 -1
vn -0 0 -1
vn -0 0 -1
vn -0 0 -1
vn -0 0 -1
vn -0 0 -1
vn -0 0 -1
vn -0 0 -1
vn -0 0 -1
vn -0 0 -1
vn -0 0 -1
vn -0 0 -1
vn -0 0 -1
vn -0 0 -1
vn -0 0 -1
vn -0 0 -1
vn -0 0 -1
vn -0 0 -1
vn -0 0 -1
vn -0 0 -1
vn -0 0 -1
vn -0 0 -1
vn -0 0 -1
vn -0 0 -1
vn -0 0 -1
vn -0.22187287 -0.97507566 0
vn -0.608733 -0.7933752 0
vn -0.6087329 -0.79337525 0
vn -0.22187291 -0.97507566 0
vn 0.2218716 -0.9750759 0
vn 0.22187161 -0.9750759 0
vn 0.6087295 -0.7933779 0
vn 0.6087295 -0.7933779 0
g Text_N_0
f 3/3/3 2/2/2 1/1/1
f 4/4/4 1/1/1 2/2/2
f 2/2/2 5/5/5 4/4/4
f 6/6/6 4/4/4 5/5/5
f 5/5/5 7/7/7 6/6/6
f 8/8/8 6/6/6 7/7/7
f 7/7/7 9/9/9 8/8/8
f 10/10/10 8/8/8 9/9/9
f 9/9/9 11/11/11 10/10/10
f 12/12/12 10/10/10 11/11/11
f 11/11/11 13/13/13 12/12/12
f 14/14/14 12/12/12 13/13/13
f 13/13/13 11/11/11 15/15/15
f 13/13/13 16/16/16 14/14/14
f 17/17/17 15/15/15 11/11/11
f 18/18/18 14/14/14 16/16/16
f 16/16/16 19/19/19 18/18/18
f 20/20/20 18/18/18 19/19/19
f 19/19/19 21/21/21 20/20/20
f 22/22/22 20/20/20 21/21/21
f 21/21/21 23/23/23 22/22/22
f 24/24/24 22/22/22 23/23/23
f 15/15/15 17/17/17 25/25/25
f 26/26/26 25/25/25 17/17/17
f 26/26/26 27/27/27 25/25/25
f 28/28/28 25/25/25 27/27/27
f 29/29/29 27/27/27 26/26/26
f 28/28/28 30/30/30 25/25/25
f 26/26/26 31/31/31 29/29/29
f 32/32/32 25/25/25 30/30/30
f 33/33/33 29/29/29 31/31/31
f 30/30/30 34/34/34 32/32/32
f 31/31/31 35/35/35 33/33/33
f 36/36/36 32/32/32 34/34/34
f 37/37/37 33/33/33 35/35/35
f 35/35/35 38/38/38 37/37/37
f 39/39/39 37/37/37 38/38/38
f 34/34/34 40/40/40 36/36/36
f 41/41/41 36/36/36 40/40/40
f 40/40/40 42/42/42 41/41/41
f 43/43/43 41/41/41 42/42/42
f 42/42/42 44/44/44 43/43/43
f 45/45/45 43/43/43 44/44/44
f 48/48/48 47/47/47 46/46/46
f 49/49/49 46/46/46 47/47/47
f 49/49/49 47/47/47 50/50/50
f 51/51/51 50/50/50 47/47/47
f 50/50/50 51/51/51 52/52/52
f 53/53/53 52/52/52 51/51/51
f 52/52/52 53/53/53 54/54/54
f 55/55/55 54/54/54 53/53/53
f 58/58/58 57/57/57 56/56/56
f 59/59/59 56/56/56 57/57/57
f 57/57/57 60/60/60 59/59/59
f 61/61/61 59/59/59 60/60/60
f 60/60/60 62/62/62 61/61/61
f 63/63/63 61/61/61 62/62/62
f 62/62/62 64/64/64 63/63/63
f 65/65/65 63/63/63 64/64/64
f 64/64/64 66/66/66 65/65/65
f 67/67/67 65/65/65 66/66/66
f 66/66/66 68/68/68 67/67/67
f 69/69/69 67/67/67 68/68/68
f 72/72/72 71/71/71 70/70/70
f 73/73/73 70/70/70 71/71/71
f 71/71/71 74/74/74 73/73/73
f 75/75/75 73/73/73 74/74/74
f 74/74/74 76/76/76 75/75/75
f 77/77/77 75/75/75 76/76/76
f 76/76/76 78/78/78 77/77/77
f 79/79/79 77/77/77 78/78/78
f 79/79/79 78/78/78 80/80/80
f 81/81/81 80/80/80 78/78/78
f 80/80/80 81/81/81 82/82/82
f 83/83/83 82/82/82 81/81/81
f 82/82/82 83/83/83 84/84/84
f 85/85/85 84/84/84 83/83/83
f 84/84/84 85/85/85 86/86/86
f 87/87/87 86/86/86 85/85/85
f 90/90/90 89/89/89 88/88/88
f 91/91/91 88/88/88 89/89/89
f 89/89/89 92/92/92 91/91/91
f 93/93/93 91/91/91 92/92/92
f 92/92/92 94/94/94 93/93/93
f 95/95/95 93/93/93 94/94/94
f 94/94/94 96/96/96 95/95/95
f 97/97/97 95/95/95 96/96/96
f 100/100/100 99/99/99 98/98/98
f 101/101/101 98/98/98 99/99/99
f 99/99/99 102/102/102 101/101/101
f 103/103/103 101/101/101 102/102/102
f 106/106/106 105/105/105 104/104/104
f 107/107/107 104/104/104 105/105/105
f 105/105/105 108/108/108 107/107/107
f 109/109/109 107/107/107 108/108/108
f 108/108/108 110/110/110 109/109/109
f 111/111/111 109/109/109 110/110/110
f 110/110/110 112/112/112 111/111/111
f 113/113/113 111/111/111 112/112/112
f 112/112/112 114/114/114 113/113/113
f 115/115/115 113/113/113 114/114/114
f 114/114/114 116/116/116 115/115/115
f 117/117/117 115/115/115 116/116/116
f 116/116/116 118/118/118 117/117/117
f 119/119/119 117/117/117 118/118/118
f 118/118/118 120/120/120 119/119/119
f 121/121/121 119/119/119 120/120/120
f 124/124/124 123/123/123 122/122/122
f 125/125/125 122/122/122 123/123/123
f 123/123/123 126/126/126 125/125/125
f 127/127/127 125/125/125 126/126/126
f 126/126/126 128/128/128 127/127/127
f 129/129/129 127/127/127 128/128/128
f 132/132/132 131/131/131 130/130/130
f 133/133/133 130/130/130 131/131/131
f 131/131/131 134/134/134 133/133/133
f 135/135/135 133/133/133 134/134/134
f 134/134/134 136/136/136 135/135/135
f 137/137/137 135/135/135 136/136/136
f 136/136/136 138/138/138 137/137/137
f 139/139/139 137/137/137 138/138/138
f 142/142/142 141/141/141 140/140/140
f 143/143/143 140/140/140 141/141/141
f 141/141/141 144/144/144 143/143/143
f 145/145/145 143/143/143 144/144/144
f 144/144/144 146/146/146 145/145/145
f 147/147/147 145/145/145 146/146/146
f 150/150/150 149/149/149 148/148/148
f 151/151/151 148/148/148 149/149/149
f 148/148/148 151/151/151 152/152/152
f 153/153/153 152/152/152 151/151/151
f 152/152/152 153/153/153 154/154/154
f 155/155/155 154/154/154 153/153/153
f 154/154/154 155/155/155 156/156/156
f 157/157/157 156/156/156 155/155/155
f 156/156/156 157/157/157 158/158/158
f 159/159/159 158/158/158 157/157/157
f 158/158/158 159/159/159 160/160/160
f 161/161/161 160/160/160 159/159/159
f 160/160/160 162/162/162 158/158/158
f 160/160/160 161/161/161 163/163/163
f 164/164/164 158/158/158 162/162/162
f 165/165/165 163/163/163 161/161/161
f 163/163/163 165/165/165 166/166/166
f 167/167/167 166/166/166 165/165/165
f 166/166/166 167/167/167 168/168/168
f 169/169/169 168/168/168 167/167/167
f 168/168/168 169/169/169 170/170/170
f 171/171/171 170/170/170 169/169/169
f 162/162/162 172/172/172 164/164/164
f 173/173/173 164/164/164 172/172/172
f 173/173/173 172/172/172 174/174/174
f 175/175/175 174/174/174 172/172/172
f 174/174/174 176/176/176 173/173/173
f 175/175/175 172/172/172 177/177/177
f 173/173/173 176/176/176 178/178/178
f 179/179/179 177/177/177 172/172/172
f 180/180/180 178/178/178 176/176/176
f 177/177/177 179/179/179 181/181/181
f 178/178/178 180/180/180 182/182/182
f 183/183/183 181/181/181 179/179/179
f 184/184/184 182/182/182 180/180/180
f 182/182/182 184/184/184 185/185/185
f 186/186/186 185/185/185 184/184/184
f 181/181/181 183/183/183 187/187/187
f 188/188/188 187/187/187 183/183/183
f 187/187/187 188/188/188 189/189/189
f 190/190/190 189/189/189 188/188/188
f 189/189/189 190/190/190 191/191/191
f 192/192/192 191/191/191 190/190/190
f 195/195/195 194/194/194 193/193/193
f 196/196/196 193/193/193 194/194/194
f 193/193/193 196/196/196 197/197/197
f 198/198/198 197/197/197 196/196/196
f 197/197/197 198/198/198 199/199/199
f 200/200/200 199/199/199 198/198/198
