g textF_collision
v -0.25863734 -0.46552002 0.08737662
v -0.17209785 -0.46134496 0.08737662
v -0.31675112 -0.42497838 0.08737662
v -0.12137604 -0.39896223 0.08737662
v -0.31675112 -0.42497838 0.08737662
v -0.12137604 -0.39896223 0.08737662
v -0.33299723 -0.3447963 0.08737662
v -0.11566821 -0.10165513 0.08737662
v -0.33299723 -0.3447963 0.08737662
v -0.11566819 0.10756442 0.08737662
v -0.33297437 0.2556403 0.08737662
v -0.11566821 0.2557286 0.08737662
v -0.33297437 0.2556403 0.08737662
v -0.31200808 0.36580163 0.08737662
v -0.31200808 0.36580163 0.08737662
v -0.11566819 0.10756442 0.08737662
v 0.12868915 -0.095669985 0.08737662
v -0.25890782 0.4353026 0.08737662
v 0.12868915 -0.095669985 0.08737662
v 0.13442615 0.09810061 0.08737662
v 0.12868915 -0.095669985 0.08737662
v 0.13442615 0.09810061 0.08737662
v 0.18385112 -0.05589578 0.08737662
v 0.18629941 0.055120822 0.08737662
v 0.18385112 -0.05589578 0.08737662
v 0.19947729 0.0034493464 0.08737662
v -0.25890782 0.4353026 0.08737662
v -0.16733906 0.46434936 0.08737662
v -0.16733906 0.46434936 0.08737662
v 0.22672835 0.4644197 0.08737662
v 0.274091 0.27052885 0.08737662
v 0.22672835 0.4644197 0.08737662
v 0.274091 0.27052885 0.08737662
v 0.29422674 0.44310272 0.08737662
v 0.274091 0.27052885 0.08737662
v 0.33088702 0.39410233 0.08737662
v 0.32028112 0.30777824 0.08737662
v -0.11566819 0.10756442 0.08737662
v -0.11566821 0.2557286 -0.08737657
v -0.11566821 0.107581966 -0.08737657
v -0.11566821 0.2557286 0.08737662
v -0.25890782 0.4353026 0.08737662
v -0.30216044 0.3895189 -0.08737657
v -0.31200808 0.36580163 0.08737662
v -0.30216044 0.3895189 -0.08737657
v -0.31200808 0.36580163 0.08737662
v -0.33298296 0.25559103 -0.08737657
v -0.33297437 0.2556403 0.08737662
v -0.33297437 0.2556403 0.08737662
v -0.33298296 0.25559103 -0.08737657
v -0.33299723 -0.3447963 0.08737662
v -0.33299723 -0.3447963 0.08737662
v -0.3272888 -0.39895856 -0.08737657
v -0.31675112 -0.42497838 0.08737662
v -0.3272888 -0.39895856 -0.08737657
v -0.31675112 -0.42497838 0.08737662
v -0.29923907 -0.44305146 -0.08737657
v -0.30216044 0.3895189 -0.08737657
v -0.25890782 0.4353026 0.08737662
v -0.20830606 0.46089315 -0.08737657
v -0.25890782 0.4353026 0.08737662
v -0.20830606 0.46089315 -0.08737657
v -0.16733906 0.46434936 0.08737662
v -0.16733906 0.46434936 0.08737662
v -0.20830606 0.46089315 -0.08737657
v 0.22672835 0.4644197 0.08737662
v 0.2805282 0.4529678 -0.08737657
v 0.22672835 0.4644197 0.08737662
v 0.2805282 0.4529678 -0.08737657
v 0.29422674 0.44310272 0.08737662
v 0.2805282 0.4529678 -0.08737657
v 0.33088702 0.39410233 0.08737662
v 0.29422674 0.44310272 0.08737662
v 0.32028112 0.41347015 -0.08737657
v 0.33088702 0.39410233 0.08737662
v 0.33299932 0.36062515 -0.08737657
v 0.32028112 0.30777824 0.08737662
v 0.32028112 0.30777824 -0.08737657
v -0.11566821 0.2557286 0.08737662
v 0.24681085 0.2651338 -0.08737657
v -0.11566821 0.2557286 -0.08737657
v 0.274091 0.27052885 0.08737662
v 0.24681085 0.2651338 -0.08737657
v 0.274091 0.27052885 0.08737662
v 0.29422674 0.28391922 -0.08737657
v 0.274091 0.27052885 0.08737662
v 0.32028112 0.30777824 -0.08737657
v 0.32028112 0.30777824 0.08737662
v -0.11566821 -0.10165513 0.08737662
v -0.11566818 -0.10163726 -0.08737657
v 0.12868915 -0.095669985 0.08737662
v 0.1424096 -0.09203164 -0.08737657
v 0.1424096 -0.09203164 -0.08737657
v 0.12868915 -0.095669985 0.08737662
v 0.18385112 -0.05589578 0.08737662
v -0.11566821 0.107581966 -0.08737657
v -0.11566819 0.10756442 0.08737662
v 0.09358212 0.104067296 -0.08737657
v 0.13442615 0.09810061 0.08737662
v 0.09358212 0.104067296 -0.08737657
v 0.13442615 0.09810061 0.08737662
v 0.14446275 0.09058802 -0.08737657
v 0.14446275 0.09058802 -0.08737657
v 0.13442615 0.09810061 0.08737662
v 0.18617986 0.055458184 -0.08737657
v 0.18629941 0.055120822 0.08737662
v -0.16405794 -0.45700744 -0.08737657
v -0.25863734 -0.46552002 -0.08737657
v -0.29923907 -0.44305146 -0.08737657
v -0.11955977 -0.39305094 -0.08737657
v -0.3272888 -0.39895856 -0.08737657
v -0.11955977 -0.39305094 -0.08737657
v -0.3272888 -0.39895856 -0.08737657
v -0.11566818 -0.10163726 -0.08737657
v -0.33298296 0.25559103 -0.08737657
v -0.11566821 0.107581966 -0.08737657
v -0.33298296 0.25559103 -0.08737657
v -0.11566821 0.2557286 -0.08737657
v -0.33298296 0.25559103 -0.08737657
v -0.30216044 0.3895189 -0.08737657
v 0.09358212 0.104067296 -0.08737657
v -0.11566818 -0.10163726 -0.08737657
v -0.30216044 0.3895189 -0.08737657
v 0.1424096 -0.09203164 -0.08737657
v 0.09358212 0.104067296 -0.08737657
v 0.14446275 0.09058802 -0.08737657
v 0.14446275 0.09058802 -0.08737657
v 0.1424096 -0.09203164 -0.08737657
v 0.18617986 0.055458184 -0.08737657
v 0.1424096 -0.09203164 -0.08737657
v 0.18617986 0.055458184 -0.08737657
v 0.20011999 -0.019452082 -0.08737657
v -0.20830606 0.46089315 -0.08737657
v -0.20830606 0.46089315 -0.08737657
v 0.2805282 0.4529678 -0.08737657
v 0.24681085 0.2651338 -0.08737657
v 0.24681085 0.2651338 -0.08737657
v 0.2805282 0.4529678 -0.08737657
v 0.29422674 0.28391922 -0.08737657
v 0.32028112 0.41347015 -0.08737657
v 0.32028112 0.30777824 -0.08737657
v 0.33299932 0.36062515 -0.08737657
v -0.11955977 -0.39305094 -0.08737657
v -0.11566821 -0.10165513 0.08737662
v -0.11566818 -0.10163726 -0.08737657
v -0.12137604 -0.39896223 0.08737662
v -0.12137604 -0.39896223 0.08737662
v -0.11955977 -0.39305094 -0.08737657
v -0.16405794 -0.45700744 -0.08737657
v -0.17209785 -0.46134496 0.08737662
v -0.25863734 -0.46552002 0.08737662
v -0.29923907 -0.44305146 -0.08737657
v -0.31675112 -0.42497838 0.08737662
v -0.25863734 -0.46552002 -0.08737657
v -0.17209785 -0.46134496 0.08737662
v -0.16405794 -0.45700744 -0.08737657
v 0.20011999 -0.019452082 -0.08737657
v 0.18629941 0.055120822 0.08737662
v 0.18617986 0.055458184 -0.08737657
v 0.19947729 0.0034493464 0.08737662
v 0.20011999 -0.019452082 -0.08737657
v 0.18385112 -0.05589578 0.08737662
v 0.1424096 -0.09203164 -0.08737657
vt 0.7629366 0.7594193
vt 0.7726129 0.75988626
vt 0.75644946 0.7639745
vt 0.7778778 0.76604366
vt 0.755667 0.76604366
vt 0.7782844 0.7668617
vt 0.75462234 0.77291805
vt 0.77892256 0.8001046
vt 0.75462234 0.80021334
vt 0.77892256 0.8234984
vt 0.7546248 0.8400553
vt 0.77892256 0.8400651
vt 0.7546265 0.8400651
vt 0.75696915 0.8523729
vt 0.75798357 0.8542868
vt 0.79246247 0.82327044
vt 0.79246247 0.8003346
vt 0.76154965 0.8588361
vt 0.80231297 0.80049604
vt 0.80464184 0.8228447
vt 0.8072498 0.8013012
vt 0.81127083 0.8189516
vt 0.81127083 0.80412924
vt 0.8126868 0.81763446
vt 0.81241304 0.8052212
vt 0.8141602 0.8118568
vt 0.7667724 0.86188984
vt 0.77314514 0.8633918
vt 0.77892256 0.86352295
vt 0.8172075 0.8633997
vt 0.8157017 0.84081566
vt 0.82085896 0.86243653
vt 0.820094 0.8409926
vt 0.8247546 0.86101645
vt 0.82353723 0.84237754
vt 0.8288537 0.85553724
vt 0.82766783 0.84588504
vt 0.85134864 0.8556675
vt 0.87037766 0.87179923
vt 0.87037766 0.8556675
vt 0.85134864 0.87179923
vt 0.86649644 0.80800456
vt 0.85530853 0.80607986
vt 0.86649644 0.80607986
vt 0.85530853 0.80382687
vt 0.86649644 0.80382687
vt 0.85530853 0.79793704
vt 0.86649644 0.79793704
vt 0.86649644 0.7884526
vt 0.85530853 0.7751193
vt 0.86649644 0.7751193
vt 0.86649644 0.7594911
vt 0.85530853 0.7594911
vt 0.86649644 0.75555503
vt 0.85530853 0.7560476
vt 0.86649644 0.75320077
vt 0.85530853 0.75320077
vt 0.86685133 0.8059089
vt 0.85566354 0.8041042
vt 0.86685133 0.80299747
vt 0.85566354 0.80229956
vt 0.8668508 0.8007292
vt 0.85566354 0.7988212
vt 0.85566354 0.7953428
vt 0.86685133 0.7953428
vt 0.85566354 0.7742845
vt 0.8668476 0.77007324
vt 0.85566354 0.77133155
vt 0.86685133 0.7693183
vt 0.85566354 0.7691011
vt 0.8664279 0.7938057
vt 0.8552401 0.7919085
vt 0.8552401 0.7938057
vt 0.8664279 0.7919085
vt 0.8552401 0.7885252
vt 0.8664279 0.7885252
vt 0.8552401 0.78514194
vt 0.8664279 0.78514194
vt 0.8668628 0.79447746
vt 0.855675 0.773419
vt 0.855675 0.79447746
vt 0.8668628 0.773419
vt 0.855675 0.77128744
vt 0.8668628 0.7704662
vt 0.855675 0.7682357
vt 0.8668628 0.7682357
vt 0.855675 0.7665677
vt 0.8668628 0.7665677
vt 0.8668628 0.79447746
vt 0.855675 0.7944774
vt 0.8668628 0.7810788
vt 0.855675 0.7810849
vt 0.85568005 0.77803034
vt 0.8668628 0.77723825
vt 0.8668628 0.77595603
vt 0.86685133 0.7953428
vt 0.85566354 0.7875904
vt 0.86685133 0.78194654
vt 0.85566354 0.78195035
vt 0.86685133 0.78195035
vt 0.85566354 0.7793859
vt 0.86685133 0.7787289
vt 0.86685133 0.77810365
vt 0.85566354 0.77682143
vt 0.86685133 0.7760255
vt 0.85566354 0.77601063
vt 0.7751479 0.7619319
vt 0.7629366 0.7594193
vt 0.75839686 0.7619319
vt 0.7784806 0.7675364
vt 0.755667 0.76604366
vt 0.77892256 0.77291805
vt 0.75462234 0.77291805
vt 0.77892256 0.8001046
vt 0.75462234 0.80021334
vt 0.77892256 0.82350034
vt 0.75462234 0.82350034
vt 0.77892256 0.8400651
vt 0.7546265 0.8400651
vt 0.7564155 0.8503519
vt 0.79246247 0.82327044
vt 0.79246247 0.8003346
vt 0.75807023 0.8550248
vt 0.8056984 0.80078447
vt 0.80231297 0.8231089
vt 0.8067919 0.8220873
vt 0.80903137 0.8208835
vt 0.81041574 0.80325127
vt 0.81127083 0.8189516
vt 0.81127083 0.80412924
vt 0.8126868 0.81763446
vt 0.81422895 0.8093052
vt 0.7636205 0.86028165
vt 0.77892256 0.86352295
vt 0.8157017 0.8635195
vt 0.8157017 0.84081566
vt 0.82085896 0.8415209
vt 0.8247546 0.86101645
vt 0.8247546 0.84321725
vt 0.82766783 0.857703
vt 0.82766783 0.84588504
vt 0.82909 0.851794
vt 0.8693317 0.8235285
vt 0.8523977 0.8470932
vt 0.8693336 0.8470925
vt 0.85239625 0.8235291
vt 0.8523947 0.81750166
vt 0.86933005 0.8175006
vt 0.86932886 0.8132212
vt 0.8523928 0.81322443
vt 0.8668628 0.80363035
vt 0.855675 0.8062297
vt 0.8668628 0.8062297
vt 0.855675 0.80363035
vt 0.8668628 0.79923797
vt 0.855675 0.79923797
vt 0.8685577 0.7763078
vt 0.8573699 0.7796159
vt 0.8685577 0.7796159
vt 0.8573699 0.7763078
vt 0.8685577 0.7728183
vt 0.8573699 0.7728183
vt 0.8685577 0.77188337
vn -0 0 1
vn -0 0 1
vn -0 0 1
vn -0 0 1
vn -0 0 1
vn -0 0 1
vn -0 0 1
vn -0 0 1
vn -0 0 1
vn -0 0 1
vn -0 0 1
vn -0 0 1
vn -0 0 1
vn -0 0 1
vn -0 0 1
vn -0 0 1
vn -0 0 1
vn -0 0 1
vn -0 0 1
vn -0 0 1
vn -0 0 1
vn -0 0 1
vn -0 0 1
vn -0 0 1
vn -0 0 1
vn -0 0 1
vn -0 0 1
vn -0 0 1
vn -0 0 1
vn -0 0 1
vn -0 0 1
vn -0 0 1
vn -0 0 1
vn -0 0 1
vn -0 0 1
vn -0 0 1
vn -0 0 1
vn 0.7130843 0.70107836 0
vn 0.7142838 -0.6998561 0
vn 0.7130843 0.7010783 0
vn 0.7142839 -0.6998561 0
vn -0.72779703 0.6857926 0
vn -0.8737651 0.48634815 0
vn -0.8737651 0.4863482 0
vn -0.9622325 0.27222914 0
vn -0.9622325 0.27222916 0
vn -0.99628544 0.08611253 0
vn -0.99628544 0.08611253 0
vn -1 0.00012706465 0
vn -1 0 0
vn -1 0 0
vn -0.99715805 -0.075338766 0
vn -0.99715805 -0.07533876 0
vn -0.9328832 -0.36017898 0
vn -0.94535017 -0.32605684 0
vn -0.67804265 -0.73502254 0
vn -0.67804265 -0.7350226 0
vn -0.7277971 0.6857926 0
vn -0.55127186 0.83432573 0
vn -0.42758223 0.9039765 0
vn -0.34516853 0.9385407 0
vn -0.25403652 0.9671946 0
vn -0.13186797 0.9912674 0
vn -0.015680239 0.9998771 0
vn -0.015680239 0.9998771 0
vn 0.10335388 0.99464464 0
vn 0.478939 0.8778482 0
vn 0.27469292 0.961532 0
vn 0.53851795 0.84261405 0
vn 0.5642936 0.82557416 0
vn 0.5642936 0.8255741 0
vn 0.88759714 0.46062064 0
vn 0.5642936 0.82557416 0
vn 0.88759714 0.46062064 0
vn 1 0 0
vn 1 0 0
vn 0.86140543 -0.507918 0
vn 0.86140543 -0.507918 0
vn 0.7142839 -0.6998561 0
vn 0.0780755 -0.99694747 0
vn 0.7142838 -0.6998561 0
vn 0.0780755 -0.99694747 0
vn 0.21738246 -0.9760865 0
vn 0.26990858 -0.9628859 0
vn 0.5447343 -0.83860874 0
vn 0.54473436 -0.83860874 0
vn 0.86140543 -0.507918 0
vn 0.86140543 -0.507918 0
vn 0.7130844 -0.70107824 0
vn 0.7130831 -0.7010795 0
vn 0.0835867 -0.99650055 0
vn 0.08351511 -0.9965065 0
vn 0.40892228 -0.9125692 0
vn 0.546791 -0.8372691 0
vn 0.6874386 -0.72624254 0
vn 0.7130843 0.7010783 0
vn 0.016686158 0.99986076 0
vn 0.120105825 0.99276114 0
vn 0.12003569 0.99276954 0
vn 0.12003568 0.99276954 0
vn 0.35109982 0.936338 0
vn 0.4650175 0.88530153 0
vn 0.5667164 0.82391286 0
vn 0.6672541 0.74483025 0
vn 0.857123 0.51511174 0
vn 0.85994697 0.5103833 0
vn -0 0 -1
vn -0 0 -1
vn -0 0 -1
vn -0 0 -1
vn -0 0 -1
vn -0 0 -1
vn -0 0 -1
vn -0 0 -1
vn -0 0 -1
vn -0 0 -1
vn -0 0 -1
vn -0 0 -1
vn -0 0 -1
vn -0 0 -1
vn -0 0 -1
vn -0 0 -1
vn -0 0 -1
vn -0 0 -1
vn -0 0 -1
vn -0 0 -1
vn -0 0 -1
vn -0 0 -1
vn -0 0 -1
vn -0 0 -1
vn -0 0 -1
vn -0 0 -1
vn -0 0 -1
vn -0 0 -1
vn -0 0 -1
vn -0 0 -1
vn -0 0 -1
vn -0 0 -1
vn -0 0 -1
vn -0 0 -1
vn -0 0 -1
vn -0 0 -1
vn 0.99715805 -0.075338766 0
vn 0.7130844 -0.70107824 0
vn 0.7130844 -0.70107824 0
vn 0.99715805 -0.075338766 0
vn 0.93288124 -0.36018413 0
vn 0.93288124 -0.36018416 0
vn 0.6780374 -0.73502743 0
vn 0.6780374 -0.7350274 0
vn -0.2500653 -0.968229 0
vn -0.67804265 -0.7350226 0
vn -0.67804265 -0.73502254 0
vn -0.2500653 -0.968229 0
vn 0.25006387 -0.9682294 0
vn 0.25006387 -0.9682294 0
vn 0.99998057 0.0062436773 0
vn 0.85994697 0.5103833 0
vn 0.85994697 0.51038337 0
vn 0.99998057 0.0062437053 0
vn 0.888935 -0.45803332 0
vn 0.888935 -0.45803332 0
vn 0.6874386 -0.7262426 0
g textF_collision_0
f 3/3/3 1/1/1 2/2/2
f 2/2/2 4/4/4 3/3/3
f 7/7/7 5/5/5 6/6/6
f 6/6/6 8/8/8 7/7/7
f 8/8/8 10/10/10 9/9/9
f 11/11/11 9/9/9 10/10/10
f 10/10/10 12/12/12 11/11/11
f 13/13/13 12/12/12 14/14/14
f 17/17/17 16/16/16 8/8/8
f 18/18/18 15/15/15 12/12/12
f 20/20/20 16/16/16 19/19/19
f 23/23/23 22/22/22 21/21/21
f 22/22/22 23/23/23 24/24/24
f 26/26/26 24/24/24 25/25/25
f 27/27/27 12/12/12 28/28/28
f 29/29/29 12/12/12 30/30/30
f 31/31/31 30/30/30 12/12/12
f 32/32/32 33/33/33 34/34/34
f 34/34/34 35/35/35 36/36/36
f 37/37/37 36/36/36 35/35/35
f 40/40/40 39/39/39 38/38/38
f 41/41/41 38/38/38 39/39/39
f 44/44/44 42/42/42 43/43/43
f 45/45/45 47/47/47 46/46/46
f 48/48/48 46/46/46 47/47/47
f 51/51/51 49/49/49 50/50/50
f 53/53/53 52/52/52 50/50/50
f 52/52/52 53/53/53 54/54/54
f 57/57/57 56/56/56 55/55/55
f 60/60/60 58/58/58 59/59/59
f 61/61/61 63/63/63 62/62/62
f 64/64/64 66/66/66 65/65/65
f 67/67/67 65/65/65 66/66/66
f 68/68/68 70/70/70 69/69/69
f 73/73/73 72/72/72 71/71/71
f 74/74/74 71/71/71 72/72/72
f 76/76/76 74/74/74 75/75/75
f 75/75/75 77/77/77 76/76/76
f 78/78/78 76/76/76 77/77/77
f 81/81/81 80/80/80 79/79/79
f 82/82/82 79/79/79 80/80/80
f 83/83/83 85/85/85 84/84/84
f 85/85/85 87/87/87 86/86/86
f 88/88/88 86/86/86 87/87/87
f 91/91/91 89/89/89 90/90/90
f 90/90/90 92/92/92 91/91/91
f 94/94/94 93/93/93 95/95/95
f 98/98/98 96/96/96 97/97/97
f 97/97/97 99/99/99 98/98/98
f 102/102/102 100/100/100 101/101/101
f 105/105/105 103/103/103 104/104/104
f 104/104/104 106/106/106 105/105/105
f 109/109/109 107/107/107 108/108/108
f 107/107/107 109/109/109 110/110/110
f 111/111/111 110/110/110 109/109/109
f 112/112/112 113/113/113 114/114/114
f 115/115/115 114/114/114 113/113/113
f 114/114/114 115/115/115 116/116/116
f 116/116/116 117/117/117 118/118/118
f 118/118/118 119/119/119 120/120/120
f 116/116/116 121/121/121 114/114/114
f 122/122/122 121/121/121 124/124/124
f 125/125/125 126/126/126 124/124/124
f 127/127/127 129/129/129 128/128/128
f 132/132/132 130/130/130 131/131/131
f 123/123/123 133/133/133 118/118/118
f 134/134/134 135/135/135 118/118/118
f 136/136/136 118/118/118 135/135/135
f 139/139/139 137/137/137 138/138/138
f 138/138/138 140/140/140 139/139/139
f 141/141/141 139/139/139 140/140/140
f 142/142/142 141/141/141 140/140/140
f 145/145/145 144/144/144 143/143/143
f 146/146/146 143/143/143 144/144/144
f 148/148/148 147/147/147 149/149/149
f 150/150/150 149/149/149 147/147/147
f 153/153/153 152/152/152 151/151/151
f 154/154/154 151/151/151 152/152/152
f 151/151/151 154/154/154 155/155/155
f 156/156/156 155/155/155 154/154/154
f 159/159/159 158/158/158 157/157/157
f 160/160/160 157/157/157 158/158/158
f 162/162/162 161/161/161 160/160/160
f 161/161/161 162/162/162 163/163/163
