g Text_F
v -0.25863734 -0.46552002 0.08737662
v -0.14942732 -0.44305146 0.08737662
v -0.1900281 -0.46552002 0.08737662
v -0.29923907 -0.44305146 0.08737662
v -0.12501231 -0.40627778 0.08737662
v -0.32365122 -0.40627778 0.08737662
v -0.11566821 -0.3447963 0.08737662
v -0.33299723 -0.3447963 0.08737662
v -0.11566821 -0.10165513 0.08737662
v -0.33299723 -0.10068334 0.08737662
v -0.11566821 0.107581966 0.08737662
v -0.33299723 0.107581966 0.08737662
v -0.11566821 0.2557286 0.08737662
v -0.3329591 0.2557286 0.08737662
v -0.31696025 0.34772766 0.08737662
v -0.3029355 0.38291824 0.08737662
v 0.0054242904 0.105525844 0.08737662
v 0.0054242904 -0.09959901 0.08737662
v -0.28071108 0.41298187 0.08737662
v 0.09352216 -0.09815515 0.08737662
v 0.09352216 0.10408103 0.08737662
v 0.13357839 0.09494483 0.08737662
v 0.13357839 -0.09206689 0.08737662
v 0.1536065 0.0841788 0.08737662
v 0.1536065 -0.08118833 0.08737662
v 0.17363462 0.06690108 0.08737662
v 0.17363462 -0.06566108 0.08737662
v 0.18629941 0.055120822 0.08737662
v 0.18629941 -0.05105603 0.08737662
v 0.19947729 0.0034493464 0.08737662
v -0.25252047 0.4365338 0.08737662
v -0.22433177 0.45091522 0.08737662
v -0.17000094 0.4638127 0.08737662
v -0.11566821 0.4655217 0.08737662
v 0.2132617 0.46549118 0.08737662
v 0.2132617 0.26244056 0.08737662
v 0.2593852 0.45580566 0.08737662
v 0.2593852 0.26874816 0.08737662
v 0.29422674 0.44310272 0.08737662
v 0.29422674 0.28391922 0.08737662
v 0.32028112 0.41347015 0.08737662
v 0.32028112 0.30777824 0.08737662
v 0.33299932 0.36062515 0.08737662
v -0.11566821 0.107581966 0.08737662
v -0.11566821 0.2557286 -0.08737657
v -0.11566821 0.107581966 -0.08737657
v -0.11566821 0.2557286 0.08737662
v -0.28071108 0.41298187 0.08737662
v -0.3029355 0.38291824 -0.08737657
v -0.28071108 0.41298187 -0.08737657
v -0.3029355 0.38291824 0.08737662
v -0.31696025 0.34772766 -0.08737657
v -0.31696025 0.34772766 0.08737662
v -0.3329591 0.2557286 -0.08737657
v -0.3329591 0.2557286 0.08737662
v -0.33299723 0.107581966 -0.08737657
v -0.33299723 0.107581966 0.08737662
v -0.33299723 -0.10068334 -0.08737657
v -0.33299723 -0.10068334 0.08737662
v -0.33299723 -0.3447963 0.08737662
v -0.33299723 -0.3447963 -0.08737657
v -0.32365122 -0.40627778 0.08737662
v -0.32365122 -0.40627778 -0.08737657
v -0.29923907 -0.44305146 0.08737662
v -0.29923907 -0.44305146 -0.08737657
v -0.28071108 0.41298187 -0.08737657
v -0.25252047 0.4365338 0.08737662
v -0.28071108 0.41298187 0.08737662
v -0.25252047 0.4365338 -0.08737657
v -0.22433177 0.45091522 0.08737662
v -0.22433177 0.45091522 -0.08737657
v -0.17000094 0.4638127 0.08737662
v -0.17000094 0.4638127 -0.08737657
v -0.11566821 0.4655217 0.08737662
v -0.11566821 0.4655217 -0.08737657
v 0.2132617 0.46549118 0.08737662
v 0.2132617 0.46549118 -0.08737657
v 0.2593852 0.45580566 0.08737662
v 0.2593852 0.45580566 -0.08737657
v 0.29422674 0.44310272 0.08737662
v 0.29422674 0.44310272 -0.08737657
v 0.29422674 0.44310272 -0.08737657
v 0.32028112 0.41347015 0.08737662
v 0.29422674 0.44310272 0.08737662
v 0.32028112 0.41347015 -0.08737657
v 0.33299932 0.36062515 0.08737662
v 0.33299932 0.36062515 -0.08737657
v 0.32028112 0.30777824 0.08737662
v 0.32028112 0.30777824 -0.08737657
v -0.11566821 0.2557286 0.08737662
v 0.2132617 0.26244056 -0.08737657
v -0.11566821 0.2557286 -0.08737657
v 0.2132617 0.26244056 0.08737662
v 0.2593852 0.26874816 -0.08737657
v 0.2593852 0.26874816 0.08737662
v 0.29422674 0.28391922 -0.08737657
v 0.29422674 0.28391922 0.08737662
v 0.32028112 0.30777824 -0.08737657
v 0.32028112 0.30777824 0.08737662
v -0.11566821 -0.10165513 0.08737662
v 0.0054242904 -0.09959901 -0.08737657
v -0.11566821 -0.10165513 -0.08737657
v 0.0054242904 -0.09959901 0.08737662
v 0.09352216 -0.09815515 -0.08737657
v 0.09352216 -0.09815515 0.08737662
v 0.13357839 -0.09206689 0.08737662
v 0.13357839 -0.09206689 -0.08737657
v 0.1536065 -0.08118833 -0.08737657
v 0.1536065 -0.08118833 0.08737662
v 0.17363462 -0.06566108 0.08737662
v 0.17363462 -0.06566108 -0.08737657
v -0.11566821 0.107581966 -0.08737657
v 0.0054242904 0.105525844 0.08737662
v -0.11566821 0.107581966 0.08737662
v 0.0054242904 0.105525844 -0.08737657
v 0.09352216 0.10408103 0.08737662
v 0.09352216 0.10408103 -0.08737657
v 0.13357839 0.09494483 0.08737662
v 0.13357839 0.09494483 -0.08737657
v 0.1536065 0.0841788 0.08737662
v 0.1536065 0.0841788 -0.08737657
v 0.17363462 0.06690108 0.08737662
v 0.17363462 0.06690108 -0.08737657
v 0.18629941 0.055120822 0.08737662
v 0.18629941 0.055120822 -0.08737657
v -0.14942732 -0.44305146 -0.08737657
v -0.25863734 -0.46552002 -0.08737657
v -0.1900281 -0.46552002 -0.08737657
v -0.29923907 -0.44305146 -0.08737657
v -0.12501231 -0.40627778 -0.08737657
v -0.32365122 -0.40627778 -0.08737657
v -0.11566821 -0.3447963 -0.08737657
v -0.33299723 -0.3447963 -0.08737657
v -0.11566821 -0.10165513 -0.08737657
v -0.33299723 -0.10068334 -0.08737657
v -0.11566821 0.107581966 -0.08737657
v -0.33299723 0.107581966 -0.08737657
v -0.11566821 0.2557286 -0.08737657
v -0.3329591 0.2557286 -0.08737657
v -0.31696025 0.34772766 -0.08737657
v -0.3029355 0.38291824 -0.08737657
v 0.0054242904 0.105525844 -0.08737657
v 0.0054242904 -0.09959901 -0.08737657
v -0.28071108 0.41298187 -0.08737657
v 0.09352216 -0.09815515 -0.08737657
v 0.09352216 0.10408103 -0.08737657
v 0.13357839 0.09494483 -0.08737657
v 0.13357839 -0.09206689 -0.08737657
v 0.1536065 0.0841788 -0.08737657
v 0.1536065 -0.08118833 -0.08737657
v 0.17363462 0.06690108 -0.08737657
v 0.17363462 -0.06566108 -0.08737657
v 0.18629941 0.055120822 -0.08737657
v 0.18629941 -0.05105603 -0.08737657
v 0.19947729 0.0034493762 -0.08737657
v -0.25252047 0.4365338 -0.08737657
v -0.22433177 0.45091522 -0.08737657
v -0.17000094 0.4638127 -0.08737657
v -0.11566821 0.4655217 -0.08737657
v 0.2132617 0.46549118 -0.08737657
v 0.2132617 0.26244056 -0.08737657
v 0.2593852 0.45580566 -0.08737657
v 0.2593852 0.26874816 -0.08737657
v 0.29422674 0.44310272 -0.08737657
v 0.29422674 0.28391922 -0.08737657
v 0.32028112 0.41347015 -0.08737657
v 0.32028112 0.30777824 -0.08737657
v 0.33299932 0.36062515 -0.08737657
v -0.11566821 -0.3447963 -0.08737657
v -0.11566821 -0.10165513 0.08737662
v -0.11566821 -0.10165513 -0.08737657
v -0.11566821 -0.3447963 0.08737662
v -0.12501231 -0.40627778 0.08737662
v -0.12501231 -0.40627778 -0.08737657
v -0.14942732 -0.44305146 -0.08737657
v -0.14942732 -0.44305146 0.08737662
v -0.25863734 -0.46552002 0.08737662
v -0.29923907 -0.44305146 -0.08737657
v -0.29923907 -0.44305146 0.08737662
v -0.25863734 -0.46552002 -0.08737657
v -0.1900281 -0.46552002 0.08737662
v -0.1900281 -0.46552002 -0.08737657
v -0.14942732 -0.44305146 0.08737662
v -0.14942732 -0.44305146 -0.08737657
v 0.19947729 0.0034493762 -0.08737657
v 0.18629941 0.055120822 0.08737662
v 0.18629941 0.055120822 -0.08737657
v 0.19947729 0.0034493464 0.08737662
v 0.18629941 -0.05105603 -0.08737657
v 0.18629941 -0.05105603 0.08737662
v 0.17363462 -0.06566108 -0.08737657
v 0.17363462 -0.06566108 0.08737662
vt 0.7629366 0.7594193
vt 0.7751479 0.7619319
vt 0.77060807 0.7594193
vt 0.75839686 0.7619319
vt 0.7778778 0.76604366
vt 0.755667 0.76604366
vt 0.77892256 0.77291805
vt 0.75462234 0.77291805
vt 0.77892256 0.8001046
vt 0.75462234 0.80021334
vt 0.77892256 0.82350034
vt 0.75462234 0.82350034
vt 0.77892256 0.8400651
vt 0.7546265 0.8400651
vt 0.7564155 0.8503519
vt 0.75798357 0.8542868
vt 0.79246247 0.82327044
vt 0.79246247 0.8003346
vt 0.7604686 0.8576484
vt 0.80231297 0.80049604
vt 0.8023131 0.8231089
vt 0.8067919 0.8220873
vt 0.8067919 0.8011768
vt 0.80903137 0.8208835
vt 0.80903137 0.8023932
vt 0.81127083 0.8189516
vt 0.81127083 0.80412924
vt 0.8126868 0.81763446
vt 0.8126868 0.80576235
vt 0.8141602 0.8118568
vt 0.7636205 0.86028165
vt 0.7667724 0.86188984
vt 0.77284753 0.8633318
vt 0.77892256 0.86352295
vt 0.8157017 0.8635195
vt 0.8157017 0.84081566
vt 0.82085896 0.86243653
vt 0.82085896 0.8415209
vt 0.8247546 0.86101645
vt 0.8247546 0.84321725
vt 0.82766783 0.857703
vt 0.82766783 0.84588504
vt 0.82909 0.851794
vt 0.85134864 0.8556675
vt 0.87037766 0.87179923
vt 0.87037766 0.8556675
vt 0.85134864 0.87179923
vt 0.86649644 0.80800456
vt 0.85530853 0.80607986
vt 0.85530853 0.80800456
vt 0.86649644 0.80607986
vt 0.85530853 0.80382687
vt 0.86649644 0.80382687
vt 0.85530853 0.79793704
vt 0.86649644 0.79793704
vt 0.85530853 0.7884526
vt 0.86649644 0.7884526
vt 0.85530853 0.7751193
vt 0.86649644 0.7751193
vt 0.86649644 0.7594911
vt 0.85530853 0.7594911
vt 0.86649644 0.75555503
vt 0.85530853 0.75555503
vt 0.86649644 0.75320077
vt 0.85530853 0.75320077
vt 0.86685133 0.8059089
vt 0.85566354 0.8041042
vt 0.85566354 0.8059089
vt 0.86685133 0.8041042
vt 0.85566354 0.80229956
vt 0.86685133 0.80229956
vt 0.85566354 0.7988212
vt 0.86685133 0.7988212
vt 0.85566354 0.7953428
vt 0.86685133 0.7953428
vt 0.85566354 0.7742845
vt 0.86685133 0.7742845
vt 0.85566354 0.77133155
vt 0.86685133 0.77133155
vt 0.85566354 0.7691011
vt 0.86685133 0.7691011
vt 0.8664279 0.7938057
vt 0.8552401 0.7919085
vt 0.8552401 0.7938057
vt 0.8664279 0.7919085
vt 0.8552401 0.7885252
vt 0.8664279 0.7885252
vt 0.8552401 0.78514194
vt 0.8664279 0.78514194
vt 0.8668628 0.79447746
vt 0.855675 0.773419
vt 0.855675 0.79447746
vt 0.8668628 0.773419
vt 0.855675 0.7704662
vt 0.8668628 0.7704662
vt 0.855675 0.7682357
vt 0.8668628 0.7682357
vt 0.855675 0.7665677
vt 0.8668628 0.7665677
vt 0.8668628 0.79447746
vt 0.855675 0.786725
vt 0.855675 0.79447746
vt 0.8668628 0.786725
vt 0.855675 0.7810849
vt 0.8668628 0.7810849
vt 0.8668628 0.77852046
vt 0.855675 0.77852046
vt 0.855675 0.77723825
vt 0.8668628 0.77723825
vt 0.8668628 0.77595603
vt 0.855675 0.77595603
vt 0.86685133 0.7953428
vt 0.85566354 0.7875904
vt 0.85566354 0.7953428
vt 0.86685133 0.7875904
vt 0.85566354 0.78195035
vt 0.86685133 0.78195035
vt 0.85566354 0.7793859
vt 0.86685133 0.7793859
vt 0.85566354 0.77810365
vt 0.86685133 0.77810365
vt 0.85566354 0.77682143
vt 0.86685133 0.77682143
vt 0.85566354 0.77601063
vt 0.86685133 0.77601063
vt 0.7751479 0.7619319
vt 0.7629366 0.7594193
vt 0.77060807 0.7594193
vt 0.75839686 0.7619319
vt 0.7778778 0.76604366
vt 0.755667 0.76604366
vt 0.77892256 0.77291805
vt 0.75462234 0.77291805
vt 0.77892256 0.8001046
vt 0.75462234 0.80021334
vt 0.77892256 0.82350034
vt 0.75462234 0.82350034
vt 0.77892256 0.8400651
vt 0.7546265 0.8400651
vt 0.7564155 0.8503519
vt 0.75798357 0.8542868
vt 0.79246247 0.82327044
vt 0.79246247 0.8003346
vt 0.7604686 0.8576484
vt 0.80231297 0.80049604
vt 0.80231297 0.8231089
vt 0.8067919 0.8220873
vt 0.8067919 0.8011768
vt 0.80903137 0.8208835
vt 0.80903137 0.8023932
vt 0.81127083 0.8189516
vt 0.81127083 0.80412924
vt 0.8126868 0.81763446
vt 0.8126868 0.80576235
vt 0.8141602 0.8118568
vt 0.7636205 0.86028165
vt 0.7667724 0.86188984
vt 0.77284753 0.8633318
vt 0.77892256 0.86352295
vt 0.8157017 0.8635195
vt 0.8157017 0.84081566
vt 0.82085896 0.86243653
vt 0.82085896 0.8415209
vt 0.8247546 0.86101645
vt 0.8247546 0.84321725
vt 0.82766783 0.857703
vt 0.82766783 0.84588504
vt 0.82909 0.851794
vt 0.8693317 0.8235285
vt 0.8523977 0.8470932
vt 0.8693336 0.8470925
vt 0.85239625 0.8235291
vt 0.8523947 0.81750166
vt 0.86933005 0.8175006
vt 0.86932886 0.8132212
vt 0.8523928 0.81322443
vt 0.8668628 0.80363035
vt 0.855675 0.8062297
vt 0.8668628 0.8062297
vt 0.855675 0.80363035
vt 0.8668628 0.79923797
vt 0.855675 0.79923797
vt 0.8668628 0.79663867
vt 0.855675 0.79663867
vt 0.8685577 0.7763078
vt 0.8573699 0.7796159
vt 0.8685577 0.7796159
vt 0.8573699 0.7763078
vt 0.8685577 0.7728183
vt 0.8573699 0.7728183
vt 0.8685577 0.77188337
vt 0.8573699 0.77188337
vn -0 0 1
vn -0 0 1
vn -0 0 1
vn -0 0 1
vn -0 0 1
vn -0 0 1
vn -0 0 1
vn -0 0 1
vn -0 0 1
vn -0 0 1
vn -0 0 1
vn -0 0 1
vn -0 0 1
vn -0 0 1
vn -0 0 1
vn -0 0 1
vn -0 0 1
vn -0 0 1
vn -0 0 1
vn -0 0 1
vn -0 0 1
vn -0 0 1
vn -0 0 1
vn -0 0 1
vn -0 0 1
vn -0 0 1
vn -0 0 1
vn -0 0 1
vn -0 0 1
vn -0 0 1
vn -0 0 1
vn -0 0 1
vn -0 0 1
vn -0 0 1
vn -0 0 1
vn -0 0 1
vn -0 0 1
vn -0 0 1
vn -0 0 1
vn -0 0 1
vn -0 0 1
vn -0 0 1
vn -0 0 1
vn 0.7130843 0.70107836 0
vn 0.7142838 -0.6998561 0
vn 0.7130843 0.7010783 0
vn 0.7142839 -0.6998561 0
vn -0.72779703 0.6857926 0
vn -0.8737651 0.48634815 0
vn -0.7277971 0.6857926 0
vn -0.8737651 0.4863482 0
vn -0.9622325 0.27222914 0
vn -0.9622325 0.27222916 0
vn -0.99628544 0.08611253 0
vn -0.99628544 0.08611253 0
vn -1 0.00012706463 0
vn -1 0.00012706465 0
vn -1 0 0
vn -1 0 0
vn -0.99715805 -0.075338766 0
vn -0.99715805 -0.07533876 0
vn -0.9328832 -0.36017898 0
vn -0.9328832 -0.36017892 0
vn -0.67804265 -0.73502254 0
vn -0.67804265 -0.7350226 0
vn -0.7277971 0.6857926 0
vn -0.55127186 0.83432573 0
vn -0.72779703 0.6857926 0
vn -0.55127186 0.83432573 0
vn -0.34516853 0.9385407 0
vn -0.3451685 0.93854076 0
vn -0.13186797 0.9912674 0
vn -0.13186795 0.9912674 0
vn -0.015680239 0.9998771 0
vn -0.015680239 0.9998771 0
vn 0.10335388 0.99464464 0
vn 0.103353895 0.99464464 0
vn 0.27469292 0.961532 0
vn 0.27469295 0.961532 0
vn 0.5642936 0.82557416 0
vn 0.5642936 0.8255741 0
vn 0.5642936 0.8255741 0
vn 0.88759714 0.46062064 0
vn 0.5642936 0.82557416 0
vn 0.88759714 0.46062064 0
vn 1 0 0
vn 1 0 0
vn 0.86140543 -0.507918 0
vn 0.86140543 -0.507918 0
vn 0.7142839 -0.6998561 0
vn 0.0780755 -0.99694747 0
vn 0.7142838 -0.6998561 0
vn 0.0780755 -0.99694747 0
vn 0.26990855 -0.9628859 0
vn 0.26990858 -0.9628859 0
vn 0.5447343 -0.83860874 0
vn 0.54473436 -0.83860874 0
vn 0.86140543 -0.507918 0
vn 0.86140543 -0.507918 0
vn 0.7130844 -0.70107824 0
vn 0.01668631 -0.99986076 0
vn 0.7130844 -0.70107824 0
vn 0.016686307 -0.99986076 0
vn 0.08351511 -0.9965065 0
vn 0.083515115 -0.9965065 0
vn 0.3185589 -0.94790304 0
vn 0.31855896 -0.94790304 0
vn 0.546791 -0.83726907 0
vn 0.546791 -0.8372691 0
vn 0.6874386 -0.72624254 0
vn 0.6874386 -0.7262426 0
vn 0.7130843 0.7010783 0
vn 0.016686158 0.99986076 0
vn 0.7130843 0.70107836 0
vn 0.016686158 0.99986076 0
vn 0.12003569 0.99276954 0
vn 0.12003568 0.99276954 0
vn 0.35109982 0.936338 0
vn 0.35109985 0.936338 0
vn 0.56671643 0.823913 0
vn 0.5667164 0.82391286 0
vn 0.6672541 0.74483025 0
vn 0.667254 0.74483025 0
vn 0.85994697 0.5103833 0
vn 0.85994697 0.51038337 0
vn -0 0 -1
vn -0 0 -1
vn -0 0 -1
vn -0 0 -1
vn -0 0 -1
vn -0 0 -1
vn -0 0 -1
vn -0 0 -1
vn -0 0 -1
vn -0 0 -1
vn -0 0 -1
vn -0 0 -1
vn -0 0 -1
vn -0 0 -1
vn -0 0 -1
vn -0 0 -1
vn -0 0 -1
vn -0 0 -1
vn -0 0 -1
vn -0 0 -1
vn -0 0 -1
vn -0 0 -1
vn -0 0 -1
vn -0 0 -1
vn -0 0 -1
vn -0 0 -1
vn -0 0 -1
vn -0 0 -1
vn -0 0 -1
vn -0 0 -1
vn -0 0 -1
vn -0 0 -1
vn -0 0 -1
vn -0 0 -1
vn -0 0 -1
vn -0 0 -1
vn -0 0 -1
vn -0 0 -1
vn -0 0 -1
vn -0 0 -1
vn -0 0 -1
vn -0 0 -1
vn -0 0 -1
vn 0.99715805 -0.075338766 0
vn 0.7130844 -0.70107824 0
vn 0.7130844 -0.70107824 0
vn 0.99715805 -0.075338766 0
vn 0.93288124 -0.36018413 0
vn 0.93288124 -0.36018416 0
vn 0.6780374 -0.73502743 0
vn 0.6780374 -0.7350274 0
vn -0.2500653 -0.968229 0
vn -0.67804265 -0.7350226 0
vn -0.67804265 -0.73502254 0
vn -0.2500653 -0.968229 0
vn 0.25006387 -0.9682294 0
vn 0.25006387 -0.9682294 0
vn 0.6780374 -0.7350274 0
vn 0.6780374 -0.73502743 0
vn 0.99998057 0.0062436773 0
vn 0.85994697 0.5103833 0
vn 0.85994697 0.51038337 0
vn 0.99998057 0.0062437053 0
vn 0.888935 -0.45803332 0
vn 0.888935 -0.45803332 0
vn 0.6874386 -0.7262426 0
vn 0.6874386 -0.72624254 0
g Text_F_0
f 3/3/3 2/2/2 1/1/1
f 4/4/4 1/1/1 2/2/2
f 2/2/2 5/5/5 4/4/4
f 6/6/6 4/4/4 5/5/5
f 5/5/5 7/7/7 6/6/6
f 8/8/8 6/6/6 7/7/7
f 7/7/7 9/9/9 8/8/8
f 10/10/10 8/8/8 9/9/9
f 9/9/9 11/11/11 10/10/10
f 12/12/12 10/10/10 11/11/11
f 11/11/11 13/13/13 12/12/12
f 14/14/14 12/12/12 13/13/13
f 14/14/14 13/13/13 15/15/15
f 13/13/13 16/16/16 15/15/15
f 11/11/11 9/9/9 17/17/17
f 18/18/18 17/17/17 9/9/9
f 19/19/19 16/16/16 13/13/13
f 18/18/18 20/20/20 17/17/17
f 21/21/21 17/17/17 20/20/20
f 21/21/21 20/20/20 22/22/22
f 23/23/23 22/22/22 20/20/20
f 22/22/22 23/23/23 24/24/24
f 25/25/25 24/24/24 23/23/23
f 24/24/24 25/25/25 26/26/26
f 27/27/27 26/26/26 25/25/25
f 26/26/26 27/27/27 28/28/28
f 29/29/29 28/28/28 27/27/27
f 30/30/30 28/28/28 29/29/29
f 31/31/31 19/19/19 13/13/13
f 32/32/32 31/31/31 13/13/13
f 32/32/32 13/13/13 33/33/33
f 34/34/34 33/33/33 13/13/13
f 34/34/34 13/13/13 35/35/35
f 36/36/36 35/35/35 13/13/13
f 35/35/35 36/36/36 37/37/37
f 38/38/38 37/37/37 36/36/36
f 37/37/37 38/38/38 39/39/39
f 40/40/40 39/39/39 38/38/38
f 39/39/39 40/40/40 41/41/41
f 42/42/42 41/41/41 40/40/40
f 42/42/42 43/43/43 41/41/41
f 46/46/46 45/45/45 44/44/44
f 47/47/47 44/44/44 45/45/45
f 50/50/50 49/49/49 48/48/48
f 51/51/51 48/48/48 49/49/49
f 49/49/49 52/52/52 51/51/51
f 53/53/53 51/51/51 52/52/52
f 52/52/52 54/54/54 53/53/53
f 55/55/55 53/53/53 54/54/54
f 54/54/54 56/56/56 55/55/55
f 57/57/57 55/55/55 56/56/56
f 56/56/56 58/58/58 57/57/57
f 59/59/59 57/57/57 58/58/58
f 59/59/59 58/58/58 60/60/60
f 61/61/61 60/60/60 58/58/58
f 60/60/60 61/61/61 62/62/62
f 63/63/63 62/62/62 61/61/61
f 62/62/62 63/63/63 64/64/64
f 65/65/65 64/64/64 63/63/63
f 68/68/68 67/67/67 66/66/66
f 69/69/69 66/66/66 67/67/67
f 67/67/67 70/70/70 69/69/69
f 71/71/71 69/69/69 70/70/70
f 70/70/70 72/72/72 71/71/71
f 73/73/73 71/71/71 72/72/72
f 72/72/72 74/74/74 73/73/73
f 75/75/75 73/73/73 74/74/74
f 74/74/74 76/76/76 75/75/75
f 77/77/77 75/75/75 76/76/76
f 76/76/76 78/78/78 77/77/77
f 79/79/79 77/77/77 78/78/78
f 78/78/78 80/80/80 79/79/79
f 81/81/81 79/79/79 80/80/80
f 84/84/84 83/83/83 82/82/82
f 85/85/85 82/82/82 83/83/83
f 83/83/83 86/86/86 85/85/85
f 87/87/87 85/85/85 86/86/86
f 86/86/86 88/88/88 87/87/87
f 89/89/89 87/87/87 88/88/88
f 92/92/92 91/91/91 90/90/90
f 93/93/93 90/90/90 91/91/91
f 91/91/91 94/94/94 93/93/93
f 95/95/95 93/93/93 94/94/94
f 94/94/94 96/96/96 95/95/95
f 97/97/97 95/95/95 96/96/96
f 96/96/96 98/98/98 97/97/97
f 99/99/99 97/97/97 98/98/98
f 102/102/102 101/101/101 100/100/100
f 103/103/103 100/100/100 101/101/101
f 101/101/101 104/104/104 103/103/103
f 105/105/105 103/103/103 104/104/104
f 105/105/105 104/104/104 106/106/106
f 107/107/107 106/106/106 104/104/104
f 107/107/107 108/108/108 106/106/106
f 109/109/109 106/106/106 108/108/108
f 109/109/109 108/108/108 110/110/110
f 111/111/111 110/110/110 108/108/108
f 114/114/114 113/113/113 112/112/112
f 115/115/115 112/112/112 113/113/113
f 113/113/113 116/116/116 115/115/115
f 117/117/117 115/115/115 116/116/116
f 116/116/116 118/118/118 117/117/117
f 119/119/119 117/117/117 118/118/118
f 118/118/118 120/120/120 119/119/119
f 121/121/121 119/119/119 120/120/120
f 120/120/120 122/122/122 121/121/121
f 123/123/123 121/121/121 122/122/122
f 122/122/122 124/124/124 123/123/123
f 125/125/125 123/123/123 124/124/124
f 128/128/128 127/127/127 126/126/126
f 129/129/129 126/126/126 127/127/127
f 126/126/126 129/129/129 130/130/130
f 131/131/131 130/130/130 129/129/129
f 130/130/130 131/131/131 132/132/132
f 133/133/133 132/132/132 131/131/131
f 132/132/132 133/133/133 134/134/134
f 135/135/135 134/134/134 133/133/133
f 134/134/134 135/135/135 136/136/136
f 137/137/137 136/136/136 135/135/135
f 136/136/136 137/137/137 138/138/138
f 139/139/139 138/138/138 137/137/137
f 138/138/138 139/139/139 140/140/140
f 141/141/141 138/138/138 140/140/140
f 136/136/136 142/142/142 134/134/134
f 143/143/143 134/134/134 142/142/142
f 141/141/141 144/144/144 138/138/138
f 143/143/143 142/142/142 145/145/145
f 146/146/146 145/145/145 142/142/142
f 146/146/146 147/147/147 145/145/145
f 148/148/148 145/145/145 147/147/147
f 147/147/147 149/149/149 148/148/148
f 150/150/150 148/148/148 149/149/149
f 149/149/149 151/151/151 150/150/150
f 152/152/152 150/150/150 151/151/151
f 151/151/151 153/153/153 152/152/152
f 154/154/154 152/152/152 153/153/153
f 153/153/153 155/155/155 154/154/154
f 144/144/144 156/156/156 138/138/138
f 156/156/156 157/157/157 138/138/138
f 138/138/138 157/157/157 158/158/158
f 158/158/158 159/159/159 138/138/138
f 159/159/159 160/160/160 138/138/138
f 161/161/161 138/138/138 160/160/160
f 160/160/160 162/162/162 161/161/161
f 163/163/163 161/161/161 162/162/162
f 162/162/162 164/164/164 163/163/163
f 165/165/165 163/163/163 164/164/164
f 164/164/164 166/166/166 165/165/165
f 167/167/167 165/165/165 166/166/166
f 168/168/168 167/167/167 166/166/166
f 171/171/171 170/170/170 169/169/169
f 172/172/172 169/169/169 170/170/170
f 172/172/172 173/173/173 169/169/169
f 174/174/174 169/169/169 173/173/173
f 174/174/174 173/173/173 175/175/175
f 176/176/176 175/175/175 173/173/173
f 179/179/179 178/178/178 177/177/177
f 180/180/180 177/177/177 178/178/178
f 177/177/177 180/180/180 181/181/181
f 182/182/182 181/181/181 180/180/180
f 181/181/181 182/182/182 183/183/183
f 184/184/184 183/183/183 182/182/182
f 187/187/187 186/186/186 185/185/185
f 188/188/188 185/185/185 186/186/186
f 185/185/185 188/188/188 189/189/189
f 190/190/190 189/189/189 188/188/188
f 189/189/189 190/190/190 191/191/191
f 192/192/192 191/191/191 190/190/190
