g Text_T
v 0.33736992 0.3296249 0.08437667
v 0.3290882 0.39866328 0.08437667
v 0.33736992 0.3754089 0.08437667
v 0.3290882 0.3063743 0.08437667
v 0.3208065 0.29122806 0.08437667
v 0.3208065 0.41380763 0.08437667
v 0.30481148 0.42645717 0.08437667
v 0.30481148 0.27857852 0.08437667
v 0.26690102 0.44505763 0.08437667
v 0.26690102 0.25997806 0.08437667
v 0.1856823 0.45339656 0.08437667
v 0.18733025 0.25164485 0.08437667
v 0.104465485 0.2503097 0.08437667
v 0.104465485 0.45637202 0.08437667
v -0.104465485 0.45637202 0.08437667
v -0.104465485 0.2503097 0.08437667
v -0.1856823 0.45339656 0.08437667
v -0.18733025 0.25164485 0.08437667
v -0.26690102 0.25997806 0.08437667
v -0.26690102 0.44505763 0.08437667
v -0.30481148 0.27857852 0.08437667
v -0.30481148 0.42645717 0.08437667
v -0.09860611 -0.36626744 0.08437572
v 0.09860611 -0.36626744 0.08437572
v 0.09101486 -0.39989018 0.08437572
v -0.09101486 -0.39989018 0.08437572
v 0.07252741 -0.42908025 0.08437572
v -0.07252741 -0.42908025 0.08437572
v 0.04941225 -0.44590306 0.08437572
v -0.04941225 -0.44590306 0.08437572
v 0.022836922 -0.4563706 0.08437572
v -0.022836925 -0.4563706 0.08437572
v -0.3208065 0.29122806 0.08437667
v -0.3208065 0.41380763 0.08437667
v -0.3290882 0.39866328 0.08437667
v -0.3290882 0.3063743 0.08437667
v -0.33737373 0.3296249 0.08437667
v -0.33737373 0.3754089 0.08437667
v 0.104465485 0.2503097 -0.084376
v 0.09860611 -0.36626744 0.08437572
v 0.104465485 0.2503097 0.08437667
v 0.09860611 -0.36626744 -0.084376
v 0.09101486 -0.39989018 -0.084376
v 0.09101486 -0.39989018 0.08437572
v 0.07252741 -0.42908025 -0.084376
v 0.07252741 -0.42908025 0.08437572
v 0.3208065 0.41380763 0.08437667
v 0.30481148 0.42645717 -0.084376
v 0.3208065 0.41380763 -0.084376
v 0.30481148 0.42645717 0.08437667
v 0.26690102 0.44505763 -0.084376
v 0.26690102 0.44505763 0.08437667
v 0.1856823 0.45339656 -0.084376
v 0.1856823 0.45339656 0.08437667
v 0.104465485 0.45637202 -0.084376
v 0.104465485 0.45637202 0.08437667
v -0.104465485 0.45637202 -0.084376
v -0.104465485 0.45637202 0.08437667
v -0.1856823 0.45339656 -0.084376
v -0.1856823 0.45339656 0.08437667
v -0.26690102 0.44505763 -0.084376
v -0.26690102 0.44505763 0.08437667
v -0.30481148 0.42645717 -0.084376
v -0.30481148 0.42645717 0.08437667
v -0.3208065 0.41380763 -0.084376
v -0.3208065 0.41380763 0.08437667
v 0.3208065 0.29122806 -0.084376
v 0.30481148 0.27857852 0.08437667
v 0.3208065 0.29122806 0.08437667
v 0.30481148 0.27857852 -0.084376
v 0.26690102 0.25997806 -0.084376
v 0.26690102 0.25997806 0.08437667
v 0.18733025 0.25164485 0.08437667
v 0.18733025 0.25164485 -0.084376
v 0.104465485 0.2503097 -0.084376
v 0.104465485 0.2503097 0.08437667
v 0.3208065 0.29122806 0.08437667
v 0.3290882 0.3063743 -0.084376
v 0.3208065 0.29122806 -0.084376
v 0.3290882 0.3063743 0.08437667
v 0.33736992 0.3296249 -0.084376
v 0.33736992 0.3296249 0.08437667
v 0.33736992 0.3754089 -0.084376
v 0.33736992 0.3754089 0.08437667
v 0.3290882 0.39866328 -0.084376
v 0.3290882 0.39866328 0.08437667
v 0.3208065 0.41380763 -0.084376
v 0.3208065 0.41380763 0.08437667
v -0.09860611 -0.36626744 0.08437572
v -0.104465485 0.2503097 -0.084376
v -0.104465485 0.2503097 0.08437667
v -0.09860611 -0.36626744 -0.084376
v -0.09101486 -0.39989018 0.08437572
v -0.09101486 -0.39989018 -0.084376
v -0.07252741 -0.42908025 0.08437572
v -0.07252741 -0.42908025 -0.084376
v -0.104465485 0.2503097 -0.084376
v -0.18733025 0.25164485 0.08437667
v -0.104465485 0.2503097 0.08437667
v -0.18733025 0.25164485 -0.084376
v -0.26690102 0.25997806 -0.084376
v -0.26690102 0.25997806 0.08437667
v -0.30481148 0.27857852 0.08437667
v -0.30481148 0.27857852 -0.084376
v -0.3208065 0.29122806 -0.084376
v -0.3208065 0.29122806 0.08437667
v -0.3290882 0.3063743 -0.084376
v -0.3290882 0.3063743 0.08437667
v -0.3208065 0.41380763 0.08437667
v -0.3290882 0.39866328 -0.084376
v -0.3208065 0.41380763 -0.084376
v -0.3290882 0.39866328 0.08437667
v -0.33737373 0.3754089 -0.084376
v -0.33737373 0.3754089 0.08437667
v -0.33737373 0.3296249 -0.084376
v -0.33737373 0.3296249 0.08437667
v -0.3290882 0.3063743 0.08437667
v -0.3290882 0.3063743 -0.084376
v 0.3290882 0.39866328 -0.084376
v 0.33736992 0.3296249 -0.084376
v 0.33736992 0.3754089 -0.084376
v 0.3290882 0.3063743 -0.084376
v 0.3208065 0.29122806 -0.084376
v 0.3208065 0.41380763 -0.084376
v 0.30481148 0.42645717 -0.084376
v 0.30481148 0.27857852 -0.084376
v 0.26690102 0.44505763 -0.084376
v 0.26690102 0.25997806 -0.084376
v 0.1856823 0.45339656 -0.084376
v 0.18733025 0.25164485 -0.084376
v 0.104465485 0.2503097 -0.084376
v 0.104465485 0.45637202 -0.084376
v -0.104465485 0.45637202 -0.084376
v -0.104465485 0.2503097 -0.084376
v -0.1856823 0.45339656 -0.084376
v -0.18733025 0.25164485 -0.084376
v -0.26690102 0.25997806 -0.084376
v -0.26690102 0.44505763 -0.084376
v -0.30481148 0.27857852 -0.084376
v -0.30481148 0.42645717 -0.084376
v -0.09860611 -0.36626744 -0.084376
v 0.09860611 -0.36626744 -0.084376
v 0.09101486 -0.39989018 -0.084376
v -0.09101486 -0.39989018 -0.084376
v 0.07252741 -0.42908025 -0.084376
v -0.07252741 -0.42908025 -0.084376
v 0.04941225 -0.44590306 -0.084376
v -0.04941225 -0.44590306 -0.084376
v 0.022836922 -0.4563706 -0.084376
v -0.022836925 -0.4563706 -0.084376
v -0.3208065 0.29122806 -0.084376
v -0.3208065 0.41380763 -0.084376
v -0.3290882 0.39866328 -0.084376
v -0.3290882 0.3063743 -0.084376
v -0.33737373 0.3296249 -0.084376
v -0.33737373 0.3754089 -0.084376
v 0.04941225 -0.44590306 -0.084376
v 0.07252741 -0.42908025 0.08437572
v 0.07252741 -0.42908025 -0.084376
v 0.04941225 -0.44590306 0.08437572
v 0.022836922 -0.4563706 -0.084376
v 0.022836922 -0.4563706 0.08437572
v -0.022836925 -0.4563706 -0.084376
v -0.022836925 -0.4563706 0.08437572
v -0.04941225 -0.44590306 -0.084376
v -0.04941225 -0.44590306 0.08437572
v -0.07252741 -0.42908025 -0.084376
v -0.07252741 -0.42908025 0.08437572
vt 0.073479176 0.09343636
vt 0.07261461 0.10064232
vt 0.073479176 0.09821504
vt 0.07261461 0.09100908
vt 0.071750045 0.089428246
vt 0.071750045 0.10222316
vt 0.07008034 0.10354364
vt 0.07008034 0.088107765
vt 0.06612331 0.10548508
vt 0.06612331 0.08616632
vt 0.05764562 0.10635567
vt 0.057817698 0.08529651
vt 0.04916799 0.085157156
vt 0.04916799 0.10666615
vt 0.027359486 0.10666615
vt 0.027359486 0.085157156
vt 0.018881857 0.10635567
vt 0.018709779 0.08529651
vt 0.01040417 0.08616632
vt 0.01040417 0.10548508
vt 0.0064471364 0.088107765
vt 0.0064471364 0.10354364
vt 0.027971089 0.0207977
vt 0.048556387 0.0207977
vt 0.047764003 0.017288119
vt 0.028763473 0.017288119
vt 0.045834243 0.014241397
vt 0.030693233 0.014241397
vt 0.043421447 0.012485057
vt 0.03310603 0.012485057
vt 0.040647507 0.011392534
vt 0.03587997 0.011392534
vt 0.0047774315 0.089428246
vt 0.0047774315 0.10222316
vt 0.003912866 0.10064238
vt 0.003912866 0.09100908
vt 0.0030483007 0.09343636
vt 0.0030483007 0.09821504
vt 0.121657014 0.06800586
vt 0.10546315 0.008837491
vt 0.10546315 0.06800586
vt 0.121657014 0.008837491
vt 0.121657014 0.0056110024
vt 0.10546315 0.0056110024
vt 0.121657014 0.0028100014
vt 0.10546315 0.0028100014
vt 0.10382736 0.0055815578
vt 0.120021164 0.007116616
vt 0.120021164 0.0055815578
vt 0.10382736 0.007116616
vt 0.120021164 0.010754496
vt 0.10382736 0.010754496
vt 0.120021164 0.01854834
vt 0.10382736 0.01854834
vt 0.120021224 0.026342213
vt 0.10382736 0.026342213
vt 0.120021224 0.046391666
vt 0.10382736 0.046391666
vt 0.120021224 0.05418551
vt 0.10382736 0.05418551
vt 0.120021224 0.061979353
vt 0.10382736 0.061979353
vt 0.120021224 0.06561726
vt 0.10382736 0.06561726
vt 0.120021224 0.06715232
vt 0.10382736 0.06715232
vt 0.10078442 0.10631198
vt 0.102697015 0.12218994
vt 0.1007902 0.12219
vt 0.10269463 0.106310844
vt 0.10664946 0.10631055
vt 0.10665053 0.12218982
vt 0.11416119 0.12218946
vt 0.11416036 0.10631043
vt 0.12195021 0.10631031
vt 0.1219517 0.12218839
vt 0.105027795 0.06714368
vt 0.12122166 0.06859702
vt 0.12122166 0.06714368
vt 0.105027795 0.06859702
vt 0.12122166 0.0708285
vt 0.105027795 0.0708285
vt 0.12122166 0.07522178
vt 0.105027795 0.07522178
vt 0.12122166 0.077453256
vt 0.105027795 0.077453256
vt 0.12122166 0.078906536
vt 0.105027795 0.078906536
vt 0.121504486 0.010578871
vt 0.10531062 0.06974721
vt 0.121504486 0.06974721
vt 0.10531062 0.010578871
vt 0.121504486 0.007352382
vt 0.10531062 0.007352382
vt 0.121504486 0.004551381
vt 0.10531062 0.004551381
vt 0.12155479 0.105977
vt 0.11377555 0.12185502
vt 0.12155336 0.12185508
vt 0.11377621 0.105975926
vt 0.10629499 0.10597563
vt 0.10629445 0.12185508
vt 0.10238367 0.12185502
vt 0.102384746 0.10597557
vt 0.10052413 0.10597557
vt 0.10052127 0.12185472
vt 0.09893024 0.10597551
vt 0.09892315 0.12185353
vt 0.121504486 0.0854367
vt 0.10531062 0.08398336
vt 0.10531062 0.0854367
vt 0.121504486 0.08398336
vt 0.10531062 0.08175188
vt 0.121504486 0.08175188
vt 0.10531062 0.0773586
vt 0.121504486 0.0773586
vt 0.121504486 0.075127125
vt 0.10531062 0.075127125
vt 0.003912866 0.10064232
vt 0.0030483007 0.09343636
vt 0.0030483007 0.09821504
vt 0.003912866 0.09100908
vt 0.0047774315 0.089428246
vt 0.0047774315 0.10222316
vt 0.0064471364 0.10354364
vt 0.0064471364 0.088107765
vt 0.010404229 0.10548508
vt 0.010404229 0.08616632
vt 0.018881857 0.10635567
vt 0.018709779 0.08529651
vt 0.027359486 0.085157156
vt 0.027359486 0.10666615
vt 0.04916799 0.10666615
vt 0.04916799 0.085157156
vt 0.05764562 0.10635567
vt 0.057817698 0.08529651
vt 0.06612331 0.08616632
vt 0.06612331 0.10548508
vt 0.07008034 0.088107765
vt 0.07008034 0.10354364
vt 0.048556387 0.0207977
vt 0.027971089 0.0207977
vt 0.028763473 0.017288119
vt 0.047764003 0.017288119
vt 0.030693233 0.014241368
vt 0.045834243 0.014241368
vt 0.03310603 0.012485027
vt 0.043421447 0.012485027
vt 0.03587997 0.011392534
vt 0.040647507 0.011392534
vt 0.071750045 0.089428246
vt 0.071750045 0.10222316
vt 0.07261461 0.10064232
vt 0.07261461 0.09100908
vt 0.073479176 0.09343636
vt 0.073479176 0.09821504
vt 0.10208601 0.007876813
vt 0.118279815 0.0056586266
vt 0.10208601 0.0056586266
vt 0.118279815 0.007876813
vt 0.10208601 0.010427028
vt 0.118279815 0.010427028
vt 0.10208601 0.014809996
vt 0.118279815 0.014809996
vt 0.10208601 0.01736024
vt 0.118279815 0.01736024
vt 0.10208601 0.019578427
vt 0.118279815 0.019578427
vn -0 0 1
vn -0 0 1
vn -0 0 1
vn -0 0 1
vn -0 0 1
vn -0 0 1
vn -0 0 1
vn -0 0 1
vn -0 0 1
vn -0 0 1
vn -0 0 1
vn -0 0 1
vn -0 0 1
vn -0 0 1
vn -0 0 1
vn -0 0 1
vn -0 0 1
vn -0 0 1
vn -0 0 1
vn -0 0 1
vn -0 0 1
vn -0 0 1
vn -0 0 1
vn -0 0 1
vn -0 0 1
vn -0 0 1
vn -0 0 1
vn -0 0 1
vn -0 0 1
vn -0 0 1
vn -0 0 1
vn -0 0 1
vn -0 0 1
vn -0 0 1
vn -0 0 1
vn -0 0 1
vn -0 0 1
vn -0 0 1
vn 0.70943755 -0.7047683 0
vn 0.9933048 -0.11552325 0
vn 0.7094375 -0.7047683 0
vn 0.9933048 -0.115523264 0
vn 0.9236372 -0.38326782 0
vn 0.9236372 -0.38326776 0
vn 0.72958 -0.6838954 0
vn 0.72958004 -0.6838954 0
vn 0.76415724 0.64502996 0
vn 0.5334123 0.84585536 0
vn 0.76415724 0.64502996 0
vn 0.5334123 0.84585536 0
vn 0.2756122 0.9612689 0
vn 0.27561218 0.96126896 0
vn 0.06941367 0.99758804 0
vn 0.06941368 0.99758804 0
vn 0.018303249 0.9998325 0
vn 0.018303245 0.9998325 0
vn -0.018303245 0.9998325 0
vn -0.018303247 0.9998325 0
vn -0.06941367 0.99758804 0
vn -0.06941367 0.99758804 0
vn -0.27561218 0.96126896 0
vn -0.2756122 0.9612689 0
vn -0.5334123 0.84585536 0
vn -0.53341234 0.84585536 0
vn -0.76415724 0.64502996 0
vn -0.76415724 0.64502996 0
vn 0.7641577 -0.6450294 0
vn 0.5334146 -0.845854 0
vn 0.76415783 -0.6450294 0
vn 0.5334146 -0.845854 0
vn 0.27658194 -0.96099025 0
vn 0.2765819 -0.96099025 0
vn 0.060190685 -0.9981869 0
vn 0.060190685 -0.9981869 0
vn 0.70943755 -0.7047683 0
vn 0.7094375 -0.7047683 0
vn 0.76415783 -0.6450294 0
vn 0.91254884 -0.4089676 0
vn 0.7641577 -0.6450294 0
vn 0.91254884 -0.40896773 0
vn 0.98540014 -0.17025444 0
vn 0.98540014 -0.17025444 0
vn 0.98540014 0.17025444 0
vn 0.98540014 0.17025444 0
vn 0.91254973 0.40896592 0
vn 0.9125496 0.4089659 0
vn 0.76415724 0.64502996 0
vn 0.76415724 0.64502996 0
vn -0.9933048 -0.115523264 0
vn -0.70943755 -0.7047683 0
vn -0.7094375 -0.7047683 0
vn -0.9933048 -0.115523264 0
vn -0.9236372 -0.38326782 0
vn -0.9236372 -0.38326776 0
vn -0.72958 -0.6838954 0
vn -0.7295801 -0.6838953 0
vn -0.70943755 -0.7047683 0
vn -0.06019069 -0.9981869 0
vn -0.7094375 -0.7047683 0
vn -0.060190685 -0.9981869 0
vn -0.27658194 -0.96099025 0
vn -0.2765819 -0.96099025 0
vn -0.5334146 -0.8458539 0
vn -0.5334146 -0.845854 0
vn -0.7641577 -0.6450294 0
vn -0.76415783 -0.64502937 0
vn -0.91254884 -0.4089676 0
vn -0.91254884 -0.40896767 0
vn -0.76415724 0.64502996 0
vn -0.9125496 0.4089659 0
vn -0.76415724 0.64502996 0
vn -0.9125496 0.40896592 0
vn -0.98540014 0.17025444 0
vn -0.98540014 0.17025444 0
vn -0.98540014 -0.17025444 0
vn -0.98540014 -0.17025444 0
vn -0.91254884 -0.40896767 0
vn -0.91254884 -0.4089676 0
vn -0 0 -1
vn -0 0 -1
vn -0 0 -1
vn -0 0 -1
vn -0 0 -1
vn -0 0 -1
vn -0 0 -1
vn -0 0 -1
vn -0 0 -1
vn -0 0 -1
vn -0 0 -1
vn -0 0 -1
vn -0 0 -1
vn -0 0 -1
vn -0 0 -1
vn -0 0 -1
vn -0 0 -1
vn -0 0 -1
vn -0 0 -1
vn -0 0 -1
vn -0 0 -1
vn -0 0 -1
vn -0 0 -1
vn -0 0 -1
vn -0 0 -1
vn -0 0 -1
vn -0 0 -1
vn -0 0 -1
vn -0 0 -1
vn -0 0 -1
vn -0 0 -1
vn -0 0 -1
vn -0 0 -1
vn -0 0 -1
vn -0 0 -1
vn -0 0 -1
vn -0 0 -1
vn -0 0 -1
vn 0.48135957 -0.87652326 0
vn 0.72958004 -0.6838954 0
vn 0.72958 -0.6838954 0
vn 0.4813596 -0.87652326 0
vn 0.18649611 -0.98245573 0
vn 0.18649611 -0.98245573 0
vn -0.18649612 -0.98245573 0
vn -0.18649611 -0.98245573 0
vn -0.48135957 -0.87652326 0
vn -0.48135957 -0.87652326 0
vn -0.7295801 -0.6838953 0
vn -0.72958 -0.6838954 0
g Text_T_0
f 3/3/3 2/2/2 1/1/1
f 4/4/4 1/1/1 2/2/2
f 4/4/4 2/2/2 5/5/5
f 6/6/6 5/5/5 2/2/2
f 6/6/6 7/7/7 5/5/5
f 8/8/8 5/5/5 7/7/7
f 7/7/7 9/9/9 8/8/8
f 10/10/10 8/8/8 9/9/9
f 9/9/9 11/11/11 10/10/10
f 12/12/12 10/10/10 11/11/11
f 12/12/12 11/11/11 13/13/13
f 14/14/14 13/13/13 11/11/11
f 14/14/14 15/15/15 13/13/13
f 16/16/16 13/13/13 15/15/15
f 15/15/15 17/17/17 16/16/16
f 18/18/18 16/16/16 17/17/17
f 18/18/18 17/17/17 19/19/19
f 20/20/20 19/19/19 17/17/17
f 19/19/19 20/20/20 21/21/21
f 22/22/22 21/21/21 20/20/20
f 16/16/16 23/23/23 13/13/13
f 24/24/24 13/13/13 23/23/23
f 24/24/24 23/23/23 25/25/25
f 26/26/26 25/25/25 23/23/23
f 25/25/25 26/26/26 27/27/27
f 28/28/28 27/27/27 26/26/26
f 27/27/27 28/28/28 29/29/29
f 30/30/30 29/29/29 28/28/28
f 29/29/29 30/30/30 31/31/31
f 32/32/32 31/31/31 30/30/30
f 21/21/21 22/22/22 33/33/33
f 34/34/34 33/33/33 22/22/22
f 34/34/34 35/35/35 33/33/33
f 36/36/36 33/33/33 35/35/35
f 36/36/36 35/35/35 37/37/37
f 38/38/38 37/37/37 35/35/35
f 41/41/41 40/40/40 39/39/39
f 42/42/42 39/39/39 40/40/40
f 42/42/42 40/40/40 43/43/43
f 44/44/44 43/43/43 40/40/40
f 43/43/43 44/44/44 45/45/45
f 46/46/46 45/45/45 44/44/44
f 49/49/49 48/48/48 47/47/47
f 50/50/50 47/47/47 48/48/48
f 48/48/48 51/51/51 50/50/50
f 52/52/52 50/50/50 51/51/51
f 51/51/51 53/53/53 52/52/52
f 54/54/54 52/52/52 53/53/53
f 53/53/53 55/55/55 54/54/54
f 56/56/56 54/54/54 55/55/55
f 55/55/55 57/57/57 56/56/56
f 58/58/58 56/56/56 57/57/57
f 57/57/57 59/59/59 58/58/58
f 60/60/60 58/58/58 59/59/59
f 59/59/59 61/61/61 60/60/60
f 62/62/62 60/60/60 61/61/61
f 61/61/61 63/63/63 62/62/62
f 64/64/64 62/62/62 63/63/63
f 63/63/63 65/65/65 64/64/64
f 66/66/66 64/64/64 65/65/65
f 69/69/69 68/68/68 67/67/67
f 70/70/70 67/67/67 68/68/68
f 70/70/70 68/68/68 71/71/71
f 72/72/72 71/71/71 68/68/68
f 72/72/72 73/73/73 71/71/71
f 74/74/74 71/71/71 73/73/73
f 74/74/74 73/73/73 75/75/75
f 76/76/76 75/75/75 73/73/73
f 79/79/79 78/78/78 77/77/77
f 80/80/80 77/77/77 78/78/78
f 78/78/78 81/81/81 80/80/80
f 82/82/82 80/80/80 81/81/81
f 81/81/81 83/83/83 82/82/82
f 84/84/84 82/82/82 83/83/83
f 83/83/83 85/85/85 84/84/84
f 86/86/86 84/84/84 85/85/85
f 85/85/85 87/87/87 86/86/86
f 88/88/88 86/86/86 87/87/87
f 91/91/91 90/90/90 89/89/89
f 92/92/92 89/89/89 90/90/90
f 89/89/89 92/92/92 93/93/93
f 94/94/94 93/93/93 92/92/92
f 93/93/93 94/94/94 95/95/95
f 96/96/96 95/95/95 94/94/94
f 99/99/99 98/98/98 97/97/97
f 100/100/100 97/97/97 98/98/98
f 100/100/100 98/98/98 101/101/101
f 102/102/102 101/101/101 98/98/98
f 102/102/102 103/103/103 101/101/101
f 104/104/104 101/101/101 103/103/103
f 104/104/104 103/103/103 105/105/105
f 106/106/106 105/105/105 103/103/103
f 105/105/105 106/106/106 107/107/107
f 108/108/108 107/107/107 106/106/106
f 111/111/111 110/110/110 109/109/109
f 112/112/112 109/109/109 110/110/110
f 110/110/110 113/113/113 112/112/112
f 114/114/114 112/112/112 113/113/113
f 113/113/113 115/115/115 114/114/114
f 116/116/116 114/114/114 115/115/115
f 116/116/116 115/115/115 117/117/117
f 118/118/118 117/117/117 115/115/115
f 121/121/121 120/120/120 119/119/119
f 122/122/122 119/119/119 120/120/120
f 122/122/122 123/123/123 119/119/119
f 124/124/124 119/119/119 123/123/123
f 124/124/124 123/123/123 125/125/125
f 126/126/126 125/125/125 123/123/123
f 125/125/125 126/126/126 127/127/127
f 128/128/128 127/127/127 126/126/126
f 127/127/127 128/128/128 129/129/129
f 130/130/130 129/129/129 128/128/128
f 130/130/130 131/131/131 129/129/129
f 132/132/132 129/129/129 131/131/131
f 132/132/132 131/131/131 133/133/133
f 134/134/134 133/133/133 131/131/131
f 133/133/133 134/134/134 135/135/135
f 136/136/136 135/135/135 134/134/134
f 136/136/136 137/137/137 135/135/135
f 138/138/138 135/135/135 137/137/137
f 137/137/137 139/139/139 138/138/138
f 140/140/140 138/138/138 139/139/139
f 134/134/134 131/131/131 141/141/141
f 142/142/142 141/141/141 131/131/131
f 142/142/142 143/143/143 141/141/141
f 144/144/144 141/141/141 143/143/143
f 143/143/143 145/145/145 144/144/144
f 146/146/146 144/144/144 145/145/145
f 145/145/145 147/147/147 146/146/146
f 148/148/148 146/146/146 147/147/147
f 147/147/147 149/149/149 148/148/148
f 150/150/150 148/148/148 149/149/149
f 139/139/139 151/151/151 140/140/140
f 152/152/152 140/140/140 151/151/151
f 152/152/152 151/151/151 153/153/153
f 154/154/154 153/153/153 151/151/151
f 154/154/154 155/155/155 153/153/153
f 156/156/156 153/153/153 155/155/155
f 159/159/159 158/158/158 157/157/157
f 160/160/160 157/157/157 158/158/158
f 157/157/157 160/160/160 161/161/161
f 162/162/162 161/161/161 160/160/160
f 161/161/161 162/162/162 163/163/163
f 164/164/164 163/163/163 162/162/162
f 163/163/163 164/164/164 165/165/165
f 166/166/166 165/165/165 164/164/164
f 165/165/165 166/166/166 167/167/167
f 168/168/168 167/167/167 166/166/166
