g Text_M
v 0.23831742 0.435852 0.0812373
v 0.18805878 0.42760843 0.0812373
v 0.2130832 0.435852 0.0812373
v 0.2633418 0.42760843 0.0812373
v 0.16086952 0.4111747 0.0812373
v 0.29053298 0.4111747 0.0812373
v 0.1430711 0.39273447 0.0812373
v 0.30729857 0.39273447 0.0812373
v 0.19952576 0.034779243 0.0812373
v 0.33368865 0.3194694 0.0812373
v 0.10509293 0.31943887 0.0812373
v 0.39102736 0.029379064 0.0812373
v 0.123154566 -0.13675886 0.0812373
v 0.25639525 -0.34373862 0.0812373
v 0.44444838 -0.30730826 0.0812373
v 0.28205672 -0.39960104 0.0812373
v 0.44550505 -0.3683167 0.0812373
v 0.32156554 -0.42688757 0.0812373
v 0.42963973 -0.4064675 0.0812373
v 0.36769286 -0.4358521 0.0812373
v 0.39846984 -0.43100363 0.0812373
v 0.059482977 0.21323961 0.0812373
v 0.090207025 -0.21065527 0.0812373
v 0.0484585 -0.26222426 0.0812373
v 9.545054E-07 0.06354468 0.0812373
v 9.545054E-07 -0.2772618 0.0812373
v -0.048456743 -0.26222426 0.0812373
v -0.05396898 -0.026029175 0.0812373
v -0.09020527 -0.21065527 0.0812373
v -0.05948122 0.21323961 0.0812373
v -0.12315281 -0.13675886 0.0812373
v -0.105090216 0.31943887 0.0812373
v -0.199524 0.034779243 0.0812373
v -0.14306934 0.39273447 0.0812373
v -0.30729875 0.39273447 0.0812373
v -0.333685 0.3194694 0.0812373
v -0.29052934 0.4111747 0.0812373
v -0.39102373 0.029379064 0.0812373
v -0.16086777 0.4111747 0.0812373
v -0.25639352 -0.34373862 0.0812373
v -0.2633401 0.42760843 0.0812373
v -0.44444475 -0.30730826 0.0812373
v -0.18805702 0.42760843 0.0812373
v -0.23831566 0.435852 0.0812373
v -0.21308143 0.435852 0.0812373
v -0.282055 -0.39960104 0.0812373
v -0.44550142 -0.3683167 0.0812373
v -0.3215619 -0.42688757 0.0812373
v -0.4296361 -0.4064675 0.0812373
v -0.36768922 -0.4358521 0.0812373
v -0.3984662 -0.43100363 0.0812373
v 9.545054E-07 0.06354468 -0.08123733
v 0.059482977 0.21323961 0.0812373
v 9.545054E-07 0.06354468 0.0812373
v 0.059482977 0.21323961 -0.08123733
v 0.10509293 0.31943887 0.0812373
v 0.10509293 0.31943887 -0.08123733
v 0.1430711 0.39273447 0.0812373
v 0.1430711 0.39273447 -0.08123733
v 0.16086952 0.4111747 0.0812373
v 0.16086952 0.4111747 -0.08123733
v 0.29053298 0.4111747 -0.08123733
v 0.30729857 0.39273447 0.0812373
v 0.29053298 0.4111747 0.0812373
v 0.30729857 0.39273447 -0.08123733
v 0.33368865 0.3194694 0.0812373
v 0.33368865 0.3194694 -0.08123733
v 0.39102736 0.029379064 0.0812373
v 0.39102736 0.029379064 -0.08123733
v 0.44444838 -0.30730826 -0.08123733
v 0.44444838 -0.30730826 0.0812373
v 0.44550505 -0.3683167 -0.08123733
v 0.44550505 -0.3683167 0.0812373
v 0.42963973 -0.4064675 -0.08123733
v 0.42963973 -0.4064675 0.0812373
v 0.16086952 0.4111747 -0.08123733
v 0.18805878 0.42760843 0.0812373
v 0.16086952 0.4111747 0.0812373
v 0.18805878 0.42760843 -0.08123733
v 0.2130832 0.435852 0.0812373
v 0.2130832 0.435852 -0.08123733
v 0.23831742 0.435852 0.0812373
v 0.23831742 0.435852 -0.08123733
v 0.2633418 0.42760843 0.0812373
v 0.2633418 0.42760843 -0.08123733
v 0.29053298 0.4111747 0.0812373
v 0.29053298 0.4111747 -0.08123733
v -0.29052934 0.4111747 0.0812373
v -0.30729875 0.39273447 -0.08123733
v -0.29052934 0.4111747 -0.08123733
v -0.30729875 0.39273447 0.0812373
v -0.333685 0.3194694 -0.08123733
v -0.333685 0.3194694 0.0812373
v -0.39102373 0.029379064 0.0812373
v -0.39102373 0.029379064 -0.08123733
v -0.44444475 -0.30730826 0.0812373
v -0.44444475 -0.30730826 -0.08123733
v -0.44550142 -0.3683167 0.0812373
v -0.44550142 -0.3683167 -0.08123733
v -0.4296361 -0.4064675 0.0812373
v -0.4296361 -0.4064675 -0.08123733
v -0.16086777 0.4111747 -0.08123733
v -0.14306934 0.39273447 0.0812373
v -0.16086777 0.4111747 0.0812373
v -0.14306934 0.39273447 -0.08123733
v -0.105090216 0.31943887 0.0812373
v -0.105090216 0.31943887 -0.08123733
v -0.05948122 0.21323961 0.0812373
v -0.05948122 0.21323961 -0.08123733
v 9.545054E-07 0.06354468 0.0812373
v 9.545054E-07 0.06354468 -0.08123733
v -0.29052934 0.4111747 -0.08123733
v -0.2633401 0.42760843 0.0812373
v -0.29052934 0.4111747 0.0812373
v -0.2633401 0.42760843 -0.08123733
v -0.23831566 0.435852 0.0812373
v -0.23831566 0.435852 -0.08123733
v -0.21308143 0.435852 0.0812373
v -0.21308143 0.435852 -0.08123733
v -0.18805702 0.42760843 0.0812373
v -0.18805702 0.42760843 -0.08123733
v -0.16086777 0.4111747 0.0812373
v -0.16086777 0.4111747 -0.08123733
v 0.18805878 0.42760843 -0.08123733
v 0.23831742 0.435852 -0.08123733
v 0.2130832 0.435852 -0.08123733
v 0.2633418 0.42760843 -0.08123733
v 0.16086952 0.4111747 -0.08123733
v 0.29053298 0.4111747 -0.08123733
v 0.1430711 0.39273447 -0.08123733
v 0.30729857 0.39273447 -0.08123733
v 0.19952576 0.034779243 -0.08123733
v 0.33368865 0.3194694 -0.08123733
v 0.10509293 0.31943887 -0.08123733
v 0.39102736 0.029379064 -0.08123733
v 0.123154566 -0.13675886 -0.08123733
v 0.25639525 -0.34373862 -0.08123733
v 0.44444838 -0.30730826 -0.08123733
v 0.28205672 -0.39960104 -0.08123733
v 0.44550505 -0.3683167 -0.08123733
v 0.32156554 -0.42688757 -0.08123733
v 0.42963973 -0.4064675 -0.08123733
v 0.36769286 -0.4358521 -0.08123733
v 0.39846984 -0.43100363 -0.08123733
v 0.059482977 0.21323961 -0.08123733
v 0.090207025 -0.21065527 -0.08123733
v 0.0484585 -0.26222426 -0.08123733
v 9.545054E-07 0.06354468 -0.08123733
v 9.545054E-07 -0.2772618 -0.08123733
v -0.048456743 -0.26222426 -0.08123733
v -0.05396898 -0.026029175 -0.08123733
v -0.09020527 -0.21065527 -0.08123733
v -0.05948122 0.21323961 -0.08123733
v -0.12315281 -0.13675886 -0.08123733
v -0.105090216 0.31943887 -0.08123733
v -0.199524 0.034779243 -0.08123733
v -0.14306934 0.39273447 -0.08123733
v -0.30729875 0.39273447 -0.08123733
v -0.333685 0.3194694 -0.08123733
v -0.29052934 0.4111747 -0.08123733
v -0.39102373 0.029379064 -0.08123733
v -0.16086777 0.4111747 -0.08123733
v -0.25639352 -0.34373862 -0.08123733
v -0.2633401 0.42760843 -0.08123733
v -0.44444475 -0.30730826 -0.08123733
v -0.18805702 0.42760843 -0.08123733
v -0.23831566 0.435852 -0.08123733
v -0.21308143 0.435852 -0.08123733
v -0.282055 -0.39960104 -0.08123733
v -0.44550142 -0.3683167 -0.08123733
v -0.3215619 -0.42688757 -0.08123733
v -0.4296361 -0.4064675 -0.08123733
v -0.36768922 -0.4358521 -0.08123733
v -0.3984662 -0.43100363 -0.08123733
v 0.090207025 -0.21065527 0.0812373
v 0.0484585 -0.26222426 -0.08123733
v 0.0484585 -0.26222426 0.0812373
v 0.090207025 -0.21065527 -0.08123733
v 0.123154566 -0.13675886 0.0812373
v 0.123154566 -0.13675886 -0.08123733
v 0.19952576 0.034779243 0.0812373
v 0.19952576 0.034779243 -0.08123733
v 0.25639525 -0.34373862 0.0812373
v 0.19952576 0.034779243 -0.08123733
v 0.19952576 0.034779243 0.0812373
v 0.25639525 -0.34373862 -0.08123733
v 0.28205672 -0.39960104 0.0812373
v 0.28205672 -0.39960104 -0.08123733
v 0.32156554 -0.42688757 0.0812373
v 0.32156554 -0.42688757 -0.08123733
v 0.36769286 -0.4358521 0.0812373
v 0.36769286 -0.4358521 -0.08123733
v 0.39846984 -0.43100363 0.0812373
v 0.39846984 -0.43100363 -0.08123733
v 0.42963973 -0.4064675 0.0812373
v 0.42963973 -0.4064675 -0.08123733
v 9.545054E-07 -0.2772618 -0.08123733
v 0.0484585 -0.26222426 0.0812373
v 0.0484585 -0.26222426 -0.08123733
v 9.545054E-07 -0.2772618 0.0812373
v -0.048456743 -0.26222426 -0.08123733
v -0.048456743 -0.26222426 0.0812373
v -0.09020527 -0.21065527 -0.08123733
v -0.048456743 -0.26222426 0.0812373
v -0.048456743 -0.26222426 -0.08123733
v -0.09020527 -0.21065527 0.0812373
v -0.12315281 -0.13675886 -0.08123733
v -0.12315281 -0.13675886 0.0812373
v -0.199524 0.034779243 -0.08123733
v -0.199524 0.034779243 0.0812373
v -0.25639352 -0.34373862 -0.08123733
v -0.199524 0.034779243 0.0812373
v -0.199524 0.034779243 -0.08123733
v -0.25639352 -0.34373862 0.0812373
v -0.282055 -0.39960104 -0.08123733
v -0.282055 -0.39960104 0.0812373
v -0.3215619 -0.42688757 -0.08123733
v -0.3215619 -0.42688757 0.0812373
v -0.36768922 -0.4358521 -0.08123733
v -0.36768922 -0.4358521 0.0812373
v -0.3984662 -0.43100363 -0.08123733
v -0.3984662 -0.43100363 0.0812373
v -0.4296361 -0.4064675 -0.08123733
v -0.4296361 -0.4064675 0.0812373
vt 0.8067305 0.9646434
vt 0.8027377 0.9639885
vt 0.80472577 0.9646434
vt 0.80871856 0.9639885
vt 0.80057764 0.96268296
vt 0.81087875 0.96268296
vt 0.7991636 0.96121794
vt 0.8122108 0.96121794
vt 0.8036487 0.93277997
vt 0.81430733 0.9553973
vt 0.7961464 0.9553948
vt 0.81886256 0.93235093
vt 0.7975813 0.9191521
vt 0.80816674 0.9027085
vt 0.8231065 0.9056027
vt 0.81020546 0.8982704
vt 0.82319057 0.9007559
vt 0.8133441 0.89610267
vt 0.82193005 0.89772475
vt 0.81700873 0.8953905
vt 0.81945384 0.8957756
vt 0.7925229 0.9469579
vt 0.79496384 0.9132813
vt 0.7916471 0.9091844
vt 0.78779733 0.93506527
vt 0.78779733 0.9079898
vt 0.7839476 0.9091844
vt 0.78350973 0.927949
vt 0.78063095 0.9132813
vt 0.78307176 0.9469579
vt 0.77801335 0.9191521
vt 0.7794483 0.9553948
vt 0.77194595 0.93277997
vt 0.7764311 0.96121794
vt 0.76338387 0.96121794
vt 0.76128745 0.9553973
vt 0.764716 0.96268296
vt 0.7567321 0.93235093
vt 0.77501714 0.96268296
vt 0.76742804 0.9027085
vt 0.7668762 0.9639885
vt 0.75248814 0.9056027
vt 0.77285695 0.9639885
vt 0.7688643 0.9646434
vt 0.7708689 0.9646434
vt 0.7653893 0.8982704
vt 0.7524042 0.9007559
vt 0.76225054 0.89610267
vt 0.7536646 0.89772475
vt 0.75858605 0.8953905
vt 0.7561408 0.8957756
vt 0.8551247 0.927487
vt 0.8711462 0.94224834
vt 0.8711462 0.927487
vt 0.8551247 0.94224834
vt 0.8711462 0.95272034
vt 0.8551247 0.95272034
vt 0.8711462 0.9599481
vt 0.8551247 0.9599481
vt 0.8711462 0.9617665
vt 0.8551247 0.9617665
vt 0.87207854 0.9621523
vt 0.85605705 0.9603339
vt 0.85605705 0.9621523
vt 0.87207854 0.9603339
vt 0.85605705 0.95310926
vt 0.87207854 0.95310926
vt 0.85605705 0.9245038
vt 0.87207854 0.9245038
vt 0.87207854 0.8913034
vt 0.85605705 0.8913034
vt 0.87207854 0.8852875
vt 0.85605705 0.8852875
vt 0.87207854 0.8815253
vt 0.85605705 0.8815253
vt 0.87182426 0.93307155
vt 0.8558028 0.93039036
vt 0.8558028 0.93307155
vt 0.87182426 0.93039036
vt 0.8558028 0.9279228
vt 0.87182426 0.9279228
vt 0.8558028 0.9254345
vt 0.87182426 0.9254345
vt 0.8558028 0.9229669
vt 0.87182426 0.9229669
vt 0.8558028 0.92028564
vt 0.87182426 0.92028564
vt 0.8711462 0.9617665
vt 0.8551247 0.9599481
vt 0.8551247 0.9617665
vt 0.8711462 0.9599481
vt 0.8551247 0.9527235
vt 0.8711462 0.9527235
vt 0.8711462 0.924118
vt 0.8551247 0.924118
vt 0.8711462 0.89091766
vt 0.8551247 0.89091766
vt 0.8711462 0.8849017
vt 0.8551247 0.8849017
vt 0.8711462 0.8811395
vt 0.8551247 0.8811395
vt 0.87207854 0.9621523
vt 0.85605705 0.9603339
vt 0.85605705 0.9621523
vt 0.87207854 0.9603339
vt 0.85605705 0.9531061
vt 0.87207854 0.9531061
vt 0.85605705 0.94263417
vt 0.87207854 0.94263417
vt 0.85605705 0.9278728
vt 0.87207854 0.9278728
vt 0.87182426 0.9436348
vt 0.8558028 0.94095355
vt 0.8558028 0.9436348
vt 0.87182426 0.94095355
vt 0.8558028 0.938486
vt 0.87182426 0.938486
vt 0.8558028 0.93599766
vt 0.87182426 0.93599766
vt 0.8558028 0.9335301
vt 0.87182426 0.9335301
vt 0.8558028 0.9308489
vt 0.87182426 0.9308489
vt 0.77285695 0.9639885
vt 0.7688643 0.9646434
vt 0.7708689 0.9646434
vt 0.7668762 0.9639885
vt 0.77501714 0.96268296
vt 0.764716 0.96268296
vt 0.7764311 0.96121794
vt 0.76338387 0.96121794
vt 0.77194595 0.93277997
vt 0.76128745 0.95539737
vt 0.7794483 0.9553948
vt 0.7567321 0.93235093
vt 0.77801335 0.9191521
vt 0.76742804 0.9027085
vt 0.75248814 0.9056027
vt 0.7653893 0.8982704
vt 0.7524042 0.9007559
vt 0.76225054 0.89610267
vt 0.7536646 0.8977248
vt 0.75858593 0.8953905
vt 0.7561408 0.8957757
vt 0.78307176 0.9469579
vt 0.78063095 0.9132813
vt 0.7839476 0.9091844
vt 0.78779733 0.93506527
vt 0.78779733 0.9079898
vt 0.7916471 0.9091844
vt 0.79208505 0.927949
vt 0.79496384 0.9132813
vt 0.7925229 0.9469579
vt 0.7975813 0.9191521
vt 0.7961464 0.9553948
vt 0.8036487 0.93277997
vt 0.7991636 0.96121794
vt 0.8122108 0.96121794
vt 0.81430733 0.95539737
vt 0.81087875 0.96268296
vt 0.81886256 0.93235093
vt 0.8005775 0.96268296
vt 0.80816674 0.9027085
vt 0.80871856 0.9639885
vt 0.8231065 0.9056027
vt 0.8027377 0.9639885
vt 0.8067305 0.9646434
vt 0.80472577 0.9646434
vt 0.81020546 0.8982704
vt 0.82319057 0.9007559
vt 0.8133441 0.89610267
vt 0.82193005 0.8977248
vt 0.81700873 0.8953905
vt 0.81945384 0.8957757
vt 0.85605705 0.90083426
vt 0.87207854 0.8957491
vt 0.85605705 0.8957491
vt 0.87207854 0.90083426
vt 0.85605705 0.9081211
vt 0.87207854 0.9081211
vt 0.85605705 0.9250363
vt 0.87207854 0.9250363
vt 0.85474336 0.9975782
vt 0.8223431 0.98367065
vt 0.8223431 0.9975782
vt 0.85474336 0.98367065
vt 0.8595251 0.9975782
vt 0.8595251 0.98367065
vt 0.86290693 0.9975782
vt 0.86290693 0.98367065
vt 0.86685526 0.9975782
vt 0.86685526 0.98367065
vt 0.8694898 0.9975782
vt 0.8694898 0.98367065
vt 0.8721578 0.9975782
vt 0.8721578 0.98367065
vt 0.8565743 0.9116315
vt 0.8725958 0.9068532
vt 0.8565743 0.9068532
vt 0.8725958 0.9116315
vt 0.8565743 0.91640985
vt 0.8725958 0.91640985
vt 0.8551247 0.90044844
vt 0.8711462 0.89536333
vt 0.8551247 0.89536333
vt 0.8711462 0.90044844
vt 0.8551247 0.90773535
vt 0.8711462 0.90773535
vt 0.8551247 0.9246505
vt 0.8711462 0.9246505
vt 0.8551414 0.997464
vt 0.82274103 0.9835565
vt 0.82274103 0.997464
vt 0.8551414 0.9835565
vt 0.8599231 0.99746406
vt 0.8599231 0.9835565
vt 0.86330485 0.99746406
vt 0.86330485 0.9835565
vt 0.8672532 0.99746406
vt 0.8672533 0.9835565
vt 0.8698878 0.99746406
vt 0.8698878 0.9835565
vt 0.87255573 0.99746406
vt 0.87255573 0.9835565
vn -0 0 1
vn -0 0 1
vn -0 0 1
vn -0 0 1
vn -0 0 1
vn -0 0 1
vn -0 0 1
vn -0 0 1
vn -0 0 1
vn -0 0 1
vn -0 0 1
vn -0 0 1
vn -0 0 1
vn -0 0 1
vn -0 0 1
vn -0 0 1
vn -0 0 1
vn -0 0 1
vn -0 0 1
vn -0 0 1
vn -0 0 1
vn -0 0 1
vn -0 0 1
vn -0 0 1
vn -0 0 1
vn -0 0 1
vn -0 0 1
vn -0 0 1
vn -0 0 1
vn -0 0 1
vn -0 0 1
vn -0 0 1
vn -0 0 1
vn -0 0 1
vn -0 0 1
vn -0 0 1
vn -0 0 1
vn -0 0 1
vn -0 0 1
vn -0 0 1
vn -0 0 1
vn -0 0 1
vn -0 0 1
vn -0 0 1
vn -0 0 1
vn -0 0 1
vn -0 0 1
vn -0 0 1
vn -0 0 1
vn -0 0 1
vn -0 0 1
vn -0 1 0
vn -0.9241695 0.38198256 0
vn -0 1 0
vn -0.9241695 0.38198254 0
vn -0.9039587 0.42762 0
vn -0.9039587 0.4276199 0
vn -0.8122133 0.58336055 0
vn -0.81221336 0.5833605 0
vn -0.6236342 0.78171635 0
vn -0.6236342 0.78171635 0
vn 0.63518816 0.7723574 0
vn 0.8567734 0.5156931 0
vn 0.6351882 0.7723574 0
vn 0.8567734 0.5156931 0
vn 0.96365654 0.2671442 0
vn 0.96365654 0.26714414 0
vn 0.98450875 0.17533557 0
vn 0.98450875 0.17533557 0
vn 0.99618846 0.08722749 0
vn 0.99618846 0.08722749 0
vn 0.9823072 -0.18727641 0
vn 0.9823072 -0.18727641 0
vn 0.79667926 -0.60440236 0
vn 0.79667926 -0.60440236 0
vn -0.6236342 0.78171635 0
vn -0.41771153 0.90857977 0
vn -0.6236342 0.78171635 0
vn -0.41771156 0.90857965 0
vn -0.15843801 0.9873689 0
vn -0.15843804 0.9873689 0
vn 0.15843646 0.9873691 0
vn 0.15843642 0.9873691 0
vn 0.41770598 0.9085822 0
vn 0.41770595 0.9085822 0
vn 0.6351882 0.7723574 0
vn 0.63518816 0.7723574 0
vn -0.63518745 0.772358 0
vn -0.8567723 0.51569486 0
vn -0.63518745 0.77235794 0
vn -0.8567723 0.5156948 0
vn -0.96365654 0.26714414 0
vn -0.96365654 0.2671442 0
vn -0.98450875 0.17533557 0
vn -0.98450875 0.17533557 0
vn -0.99618846 0.08722637 0
vn -0.99618846 0.08722635 0
vn -0.9823077 -0.18727455 0
vn -0.98230755 -0.18727456 0
vn -0.7966811 -0.6044 0
vn -0.7966811 -0.6043999 0
vn 0.6236357 0.78171515 0
vn 0.8122145 0.58335894 0
vn 0.6236357 0.7817151 0
vn 0.8122145 0.583359 0
vn 0.9039587 0.4276199 0
vn 0.9039587 0.42762 0
vn 0.9241695 0.38198256 0
vn 0.9241695 0.3819826 0
vn -0 1 0
vn -0 1 0
vn -0.63518745 0.77235794 0
vn -0.41770703 0.90858185 0
vn -0.63518745 0.772358 0
vn -0.41770703 0.90858185 0
vn -0.15843642 0.9873691 0
vn -0.15843646 0.9873691 0
vn 0.15843724 0.987369 0
vn 0.15843719 0.987369 0
vn 0.41771078 0.90858006 0
vn 0.41771078 0.90858006 0
vn 0.6236357 0.7817151 0
vn 0.6236357 0.78171515 0
vn -0 0 -1
vn -0 0 -1
vn -0 0 -1
vn -0 0 -1
vn -0 0 -1
vn -0 0 -1
vn -0 0 -1
vn -0 0 -1
vn -0 0 -1
vn -0 0 -1
vn -0 0 -1
vn -0 0 -1
vn -0 0 -1
vn -0 0 -1
vn -0 0 -1
vn -0 0 -1
vn -0 0 -1
vn -0 0 -1
vn -0 0 -1
vn -0 0 -1
vn -0 0 -1
vn -0 0 -1
vn -0 0 -1
vn -0 0 -1
vn -0 0 -1
vn -0 0 -1
vn -0 0 -1
vn -0 0 -1
vn -0 0 -1
vn -0 0 -1
vn -0 0 -1
vn -0 0 -1
vn -0 0 -1
vn -0 0 -1
vn -0 0 -1
vn -0 0 -1
vn -0 0 -1
vn -0 0 -1
vn -0 0 -1
vn -0 0 -1
vn -0 0 -1
vn -0 0 -1
vn -0 0 -1
vn -0 0 -1
vn -0 0 -1
vn -0 0 -1
vn -0 0 -1
vn -0 0 -1
vn -0 0 -1
vn -0 0 -1
vn -0 0 -1
vn 0.8525371 -0.52266675 0
vn 0.5609784 -0.82783043 0
vn 0.5609784 -0.82783043 0
vn 0.85253704 -0.52266675 0
vn 0.9134397 -0.4069741 0
vn 0.9134397 -0.4069741 0
vn -0.13446628 -0.99091816 0
vn -0.13446607 -0.99091816 0
vn -0.9582798 -0.28583154 0
vn -0.13446607 -0.99091816 0
vn -0.13446628 -0.99091816 0
vn -0.9582798 -0.2858315 0
vn -0.7658074 -0.64307 0
vn -0.7658074 -0.64307004 0
vn -0.38774097 -0.9217683 0
vn -0.387741 -0.9217684 0
vn -0.017860884 -0.9998405 0
vn -0.017860906 -0.9998405 0
vn 0.40002224 -0.9165054 0
vn 0.40002227 -0.9165054 0
vn 0.79667926 -0.60440236 0
vn 0.79667926 -0.60440236 0
vn -0 -1 0
vn 0.5609784 -0.82783043 0
vn 0.5609784 -0.82783043 0
vn -0 -1 0
vn -0.5609784 -0.82783043 0
vn -0.5609784 -0.82783043 0
vn -0.8525371 -0.52266675 0
vn -0.5609784 -0.82783043 0
vn -0.5609784 -0.82783043 0
vn -0.8525371 -0.52266675 0
vn -0.9134397 -0.4069741 0
vn -0.9134397 -0.4069741 0
vn 0.13446628 -0.99091816 0
vn 0.13446614 -0.99091816 0
vn 0.9582796 -0.28583246 0
vn 0.13446614 -0.99091816 0
vn 0.13446628 -0.99091816 0
vn 0.9582796 -0.28583246 0
vn 0.76580775 -0.64306957 0
vn 0.7658078 -0.64306957 0
vn 0.38774246 -0.9217677 0
vn 0.3877425 -0.9217677 0
vn 0.01786156 -0.9998405 0
vn 0.01786159 -0.9998405 0
vn -0.40002164 -0.9165057 0
vn -0.4000216 -0.9165057 0
vn -0.7966811 -0.6043999 0
vn -0.7966811 -0.6044 0
g Text_M_0
f 3/3/3 2/2/2 1/1/1
f 4/4/4 1/1/1 2/2/2
f 2/2/2 5/5/5 4/4/4
f 6/6/6 4/4/4 5/5/5
f 5/5/5 7/7/7 6/6/6
f 8/8/8 6/6/6 7/7/7
f 7/7/7 9/9/9 8/8/8
f 10/10/10 8/8/8 9/9/9
f 7/7/7 11/11/11 9/9/9
f 12/12/12 10/10/10 9/9/9
f 13/13/13 9/9/9 11/11/11
f 9/9/9 14/14/14 12/12/12
f 15/15/15 12/12/12 14/14/14
f 14/14/14 16/16/16 15/15/15
f 17/17/17 15/15/15 16/16/16
f 16/16/16 18/18/18 17/17/17
f 19/19/19 17/17/17 18/18/18
f 18/18/18 20/20/20 19/19/19
f 21/21/21 19/19/19 20/20/20
f 11/11/11 22/22/22 13/13/13
f 23/23/23 13/13/13 22/22/22
f 23/23/23 22/22/22 24/24/24
f 22/22/22 25/25/25 24/24/24
f 26/26/26 24/24/24 25/25/25
f 25/25/25 27/27/27 26/26/26
f 28/28/28 27/27/27 25/25/25
f 28/28/28 29/29/29 27/27/27
f 30/30/30 28/28/28 25/25/25
f 28/28/28 30/30/30 29/29/29
f 30/30/30 31/31/31 29/29/29
f 32/32/32 31/31/31 30/30/30
f 31/31/31 32/32/32 33/33/33
f 34/34/34 33/33/33 32/32/32
f 34/34/34 35/35/35 33/33/33
f 36/36/36 33/33/33 35/35/35
f 35/35/35 34/34/34 37/37/37
f 36/36/36 38/38/38 33/33/33
f 39/39/39 37/37/37 34/34/34
f 33/33/33 38/38/38 40/40/40
f 37/37/37 39/39/39 41/41/41
f 42/42/42 40/40/40 38/38/38
f 43/43/43 41/41/41 39/39/39
f 41/41/41 43/43/43 44/44/44
f 45/45/45 44/44/44 43/43/43
f 40/40/40 42/42/42 46/46/46
f 47/47/47 46/46/46 42/42/42
f 46/46/46 47/47/47 48/48/48
f 49/49/49 48/48/48 47/47/47
f 48/48/48 49/49/49 50/50/50
f 51/51/51 50/50/50 49/49/49
f 54/54/54 53/53/53 52/52/52
f 55/55/55 52/52/52 53/53/53
f 53/53/53 56/56/56 55/55/55
f 57/57/57 55/55/55 56/56/56
f 56/56/56 58/58/58 57/57/57
f 59/59/59 57/57/57 58/58/58
f 58/58/58 60/60/60 59/59/59
f 61/61/61 59/59/59 60/60/60
f 64/64/64 63/63/63 62/62/62
f 65/65/65 62/62/62 63/63/63
f 63/63/63 66/66/66 65/65/65
f 67/67/67 65/65/65 66/66/66
f 66/66/66 68/68/68 67/67/67
f 69/69/69 67/67/67 68/68/68
f 69/69/69 68/68/68 70/70/70
f 71/71/71 70/70/70 68/68/68
f 70/70/70 71/71/71 72/72/72
f 73/73/73 72/72/72 71/71/71
f 72/72/72 73/73/73 74/74/74
f 75/75/75 74/74/74 73/73/73
f 78/78/78 77/77/77 76/76/76
f 79/79/79 76/76/76 77/77/77
f 77/77/77 80/80/80 79/79/79
f 81/81/81 79/79/79 80/80/80
f 80/80/80 82/82/82 81/81/81
f 83/83/83 81/81/81 82/82/82
f 82/82/82 84/84/84 83/83/83
f 85/85/85 83/83/83 84/84/84
f 84/84/84 86/86/86 85/85/85
f 87/87/87 85/85/85 86/86/86
f 90/90/90 89/89/89 88/88/88
f 91/91/91 88/88/88 89/89/89
f 89/89/89 92/92/92 91/91/91
f 93/93/93 91/91/91 92/92/92
f 93/93/93 92/92/92 94/94/94
f 95/95/95 94/94/94 92/92/92
f 94/94/94 95/95/95 96/96/96
f 97/97/97 96/96/96 95/95/95
f 96/96/96 97/97/97 98/98/98
f 99/99/99 98/98/98 97/97/97
f 98/98/98 99/99/99 100/100/100
f 101/101/101 100/100/100 99/99/99
f 104/104/104 103/103/103 102/102/102
f 105/105/105 102/102/102 103/103/103
f 103/103/103 106/106/106 105/105/105
f 107/107/107 105/105/105 106/106/106
f 106/106/106 108/108/108 107/107/107
f 109/109/109 107/107/107 108/108/108
f 108/108/108 110/110/110 109/109/109
f 111/111/111 109/109/109 110/110/110
f 114/114/114 113/113/113 112/112/112
f 115/115/115 112/112/112 113/113/113
f 113/113/113 116/116/116 115/115/115
f 117/117/117 115/115/115 116/116/116
f 116/116/116 118/118/118 117/117/117
f 119/119/119 117/117/117 118/118/118
f 118/118/118 120/120/120 119/119/119
f 121/121/121 119/119/119 120/120/120
f 120/120/120 122/122/122 121/121/121
f 123/123/123 121/121/121 122/122/122
f 126/126/126 125/125/125 124/124/124
f 127/127/127 124/124/124 125/125/125
f 124/124/124 127/127/127 128/128/128
f 129/129/129 128/128/128 127/127/127
f 128/128/128 129/129/129 130/130/130
f 131/131/131 130/130/130 129/129/129
f 130/130/130 131/131/131 132/132/132
f 133/133/133 132/132/132 131/131/131
f 130/130/130 132/132/132 134/134/134
f 133/133/133 135/135/135 132/132/132
f 136/136/136 134/134/134 132/132/132
f 132/132/132 135/135/135 137/137/137
f 138/138/138 137/137/137 135/135/135
f 137/137/137 138/138/138 139/139/139
f 140/140/140 139/139/139 138/138/138
f 139/139/139 140/140/140 141/141/141
f 142/142/142 141/141/141 140/140/140
f 141/141/141 142/142/142 143/143/143
f 144/144/144 143/143/143 142/142/142
f 134/134/134 136/136/136 145/145/145
f 146/146/146 145/145/145 136/136/136
f 145/145/145 146/146/146 147/147/147
f 145/145/145 147/147/147 148/148/148
f 149/149/149 148/148/148 147/147/147
f 150/150/150 148/148/148 149/149/149
f 151/151/151 148/148/148 150/150/150
f 152/152/152 151/151/151 150/150/150
f 153/153/153 148/148/148 151/151/151
f 153/153/153 151/151/151 152/152/152
f 154/154/154 153/153/153 152/152/152
f 155/155/155 153/153/153 154/154/154
f 154/154/154 156/156/156 155/155/155
f 157/157/157 155/155/155 156/156/156
f 157/157/157 156/156/156 158/158/158
f 159/159/159 158/158/158 156/156/156
f 158/158/158 160/160/160 157/157/157
f 161/161/161 159/159/159 156/156/156
f 162/162/162 157/157/157 160/160/160
f 156/156/156 163/163/163 161/161/161
f 160/160/160 164/164/164 162/162/162
f 165/165/165 161/161/161 163/163/163
f 166/166/166 162/162/162 164/164/164
f 164/164/164 167/167/167 166/166/166
f 168/168/168 166/166/166 167/167/167
f 163/163/163 169/169/169 165/165/165
f 170/170/170 165/165/165 169/169/169
f 169/169/169 171/171/171 170/170/170
f 172/172/172 170/170/170 171/171/171
f 171/171/171 173/173/173 172/172/172
f 174/174/174 172/172/172 173/173/173
f 177/177/177 176/176/176 175/175/175
f 178/178/178 175/175/175 176/176/176
f 175/175/175 178/178/178 179/179/179
f 180/180/180 179/179/179 178/178/178
f 179/179/179 180/180/180 181/181/181
f 182/182/182 181/181/181 180/180/180
f 185/185/185 184/184/184 183/183/183
f 186/186/186 183/183/183 184/184/184
f 183/183/183 186/186/186 187/187/187
f 188/188/188 187/187/187 186/186/186
f 187/187/187 188/188/188 189/189/189
f 190/190/190 189/189/189 188/188/188
f 189/189/189 190/190/190 191/191/191
f 192/192/192 191/191/191 190/190/190
f 191/191/191 192/192/192 193/193/193
f 194/194/194 193/193/193 192/192/192
f 193/193/193 194/194/194 195/195/195
f 196/196/196 195/195/195 194/194/194
f 199/199/199 198/198/198 197/197/197
f 200/200/200 197/197/197 198/198/198
f 197/197/197 200/200/200 201/201/201
f 202/202/202 201/201/201 200/200/200
f 205/205/205 204/204/204 203/203/203
f 206/206/206 203/203/203 204/204/204
f 203/203/203 206/206/206 207/207/207
f 208/208/208 207/207/207 206/206/206
f 207/207/207 208/208/208 209/209/209
f 210/210/210 209/209/209 208/208/208
f 213/213/213 212/212/212 211/211/211
f 214/214/214 211/211/211 212/212/212
f 211/211/211 214/214/214 215/215/215
f 216/216/216 215/215/215 214/214/214
f 215/215/215 216/216/216 217/217/217
f 218/218/218 217/217/217 216/216/216
f 217/217/217 218/218/218 219/219/219
f 220/220/220 219/219/219 218/218/218
f 219/219/219 220/220/220 221/221/221
f 222/222/222 221/221/221 220/220/220
f 221/221/221 222/222/222 223/223/223
f 224/224/224 223/223/223 222/222/222
