g Text_L
v -0.14214611 0.4397257 0.08141363
v -0.2251339 0.41900426 0.08141363
v -0.18445778 0.4397257 0.08141363
v -0.10146999 0.41900426 0.08141363
v -0.2485447 0.3904627 0.08141363
v -0.078061104 0.3904627 0.08141363
v -0.2588787 0.34238988 0.08141363
v -0.06772661 0.34238988 0.08141363
v -0.26211357 -0.24868411 0.08141363
v -0.066414356 -0.24868411 0.08141363
v -0.26000977 -0.29788417 0.08141363
v -0.2546692 -0.34708232 0.08141363
v -0.24437523 -0.3791334 0.08141363
v -0.22541237 -0.40851802 0.08141363
v -0.198843 -0.42807215 0.08141363
v -0.16264725 -0.43878 0.08141363
v -0.066414356 -0.43972224 0.08141363
v 0.029108286 -0.43282527 0.08141363
v 0.011229037 -0.23757952 0.08141363
v 0.08887291 -0.22875994 0.08141363
v 0.10706806 -0.42309016 0.08141363
v 0.17346191 -0.40467662 0.08141363
v 0.14625168 -0.22334689 0.08141363
v 0.21643448 -0.38477153 0.08141363
v 0.18640327 -0.22336406 0.08141363
v 0.22990799 -0.2414152 0.08141363
v 0.25086594 -0.3529722 0.08141363
v 0.26211166 -0.32111567 0.08141363
v 0.25030327 -0.26026744 0.08141363
v -0.066414356 -0.24868411 0.08141363
v -0.06772661 0.34238988 -0.081413865
v -0.066414356 -0.24868411 -0.081413865
v -0.06772661 0.34238988 0.08141363
v -0.078061104 0.3904627 -0.081413865
v -0.078061104 0.3904627 0.08141363
v -0.10146999 0.41900426 -0.081413865
v -0.10146999 0.41900426 0.08141363
v -0.2251339 0.41900426 0.08141363
v -0.2485447 0.3904627 -0.081413865
v -0.2251339 0.41900426 -0.081413865
v -0.2485447 0.3904627 0.08141363
v -0.2588787 0.34238988 -0.081413865
v -0.2588787 0.34238988 0.08141363
v -0.26211357 -0.24868411 -0.081413865
v -0.26211357 -0.24868411 0.08141363
v -0.26000977 -0.29788417 0.08141363
v -0.26000977 -0.29788417 -0.081413865
v -0.2546692 -0.34708232 0.08141363
v -0.2546692 -0.34708232 -0.081413865
v -0.24437523 -0.3791334 0.08141363
v -0.24437523 -0.3791334 -0.081413865
v -0.22541237 -0.40851802 0.08141363
v -0.22541237 -0.40851802 -0.081413865
v -0.2251339 0.41900426 -0.081413865
v -0.18445778 0.4397257 0.08141363
v -0.2251339 0.41900426 0.08141363
v -0.18445778 0.4397257 -0.081413865
v -0.14214611 0.4397257 0.08141363
v -0.14214611 0.4397257 -0.081413865
v -0.10146999 0.41900426 0.08141363
v -0.10146999 0.41900426 -0.081413865
v -0.2251339 0.41900426 -0.081413865
v -0.14214611 0.4397257 -0.081413865
v -0.18445778 0.4397257 -0.081413865
v -0.10146999 0.41900426 -0.081413865
v -0.2485447 0.3904627 -0.081413865
v -0.078061104 0.3904627 -0.081413865
v -0.2588787 0.34238988 -0.081413865
v -0.06772661 0.34238988 -0.081413865
v -0.26211357 -0.24868411 -0.081413865
v -0.066414356 -0.24868411 -0.081413865
v -0.26000977 -0.29788417 -0.081413865
v -0.2546692 -0.34708232 -0.081413865
v -0.24437523 -0.3791334 -0.081413865
v -0.22541237 -0.40851802 -0.081413865
v -0.198843 -0.42807215 -0.081413865
v -0.16264725 -0.43878 -0.081413865
v -0.066414356 -0.43972224 -0.081413865
v 0.029108286 -0.43282527 -0.081413865
v 0.011229037 -0.23757952 -0.081413865
v 0.08887291 -0.22875994 -0.081413865
v 0.10706806 -0.42309016 -0.081413865
v 0.17346191 -0.40467662 -0.081413865
v 0.14625168 -0.22334689 -0.081413865
v 0.21643448 -0.38477153 -0.081413865
v 0.18640327 -0.22336406 -0.081413865
v 0.22990799 -0.2414152 -0.081413865
v 0.25086594 -0.3529722 -0.081413865
v 0.26211166 -0.32111567 -0.081413865
v 0.25030327 -0.26026744 -0.081413865
v -0.066414356 -0.24868411 -0.081413865
v 0.011229037 -0.23757952 0.08141363
v -0.066414356 -0.24868411 0.08141363
v 0.011229037 -0.23757952 -0.081413865
v 0.08887291 -0.22875994 -0.081413865
v 0.08887291 -0.22875994 0.08141363
v 0.14625168 -0.22334689 -0.081413865
v 0.14625168 -0.22334689 0.08141363
v 0.18640327 -0.22336406 -0.081413865
v 0.18640327 -0.22336406 0.08141363
v 0.22990799 -0.2414152 0.08141363
v 0.22990799 -0.2414152 -0.081413865
v 0.25030327 -0.26026744 -0.081413865
v 0.25030327 -0.26026744 0.08141363
v 0.26211166 -0.32111567 0.08141363
v 0.25086594 -0.3529722 -0.081413865
v 0.25086594 -0.3529722 0.08141363
v 0.26211166 -0.32111567 -0.081413865
v 0.25030327 -0.26026744 0.08141363
v 0.25030327 -0.26026744 -0.081413865
v 0.21643448 -0.38477153 -0.081413865
v 0.25086594 -0.3529722 0.08141363
v 0.25086594 -0.3529722 -0.081413865
v 0.21643448 -0.38477153 0.08141363
v 0.17346191 -0.40467662 -0.081413865
v 0.17346191 -0.40467662 0.08141363
v 0.10706806 -0.42309016 -0.081413865
v 0.10706806 -0.42309016 0.08141363
v 0.029108286 -0.43282527 -0.081413865
v 0.029108286 -0.43282527 0.08141363
v -0.066414356 -0.43972224 -0.081413865
v -0.066414356 -0.43972224 0.08141363
v -0.16264725 -0.43878 -0.081413865
v -0.16264725 -0.43878 0.08141363
v -0.198843 -0.42807215 -0.081413865
v -0.198843 -0.42807215 0.08141363
v -0.22541237 -0.40851802 -0.081413865
v -0.22541237 -0.40851802 0.08141363
vt 0.90141004 0.99595404
vt 0.8912607 0.9942206
vt 0.8963313 0.99633825
vt 0.9061044 0.99309766
vt 0.88819164 0.9910074
vt 0.90865505 0.9894594
vt 0.88651466 0.9853309
vt 0.909459 0.98359525
vt 0.8807595 0.9144124
vt 0.90424955 0.91263545
vt 0.88056517 0.9084879
vt 0.88075966 0.902534
vt 0.8817042 0.8985932
vt 0.8837134 0.8948939
vt 0.886725 0.8923055
vt 0.89097255 0.89069164
vt 0.90251493 0.8897047
vt 0.91404337 0.8896654
vt 0.9136701 0.9132635
vt 0.9230699 0.913617
vt 0.92348933 0.89012593
vt 0.93162596 0.8917333
vt 0.93000627 0.9137459
vt 0.9369647 0.8937324
vt 0.93482554 0.9133792
vt 0.93988377 0.91081744
vt 0.94138634 0.89723676
vt 0.9430255 0.9009584
vt 0.94216067 0.9083693
vt 0.98191494 0.89574623
vt 0.9970409 0.950655
vt 0.9970409 0.89574623
vt 0.98191494 0.950655
vt 0.9970409 0.9551208
vt 0.98191494 0.9551208
vt 0.9970409 0.95777214
vt 0.98191494 0.95777214
vt 0.996427 0.9542894
vt 0.98130095 0.9516381
vt 0.98130095 0.9542894
vt 0.996427 0.9516381
vt 0.98130095 0.9471723
vt 0.996427 0.9471723
vt 0.98130095 0.89226353
vt 0.996427 0.89226353
vt 0.996427 0.88769317
vt 0.98130095 0.88769317
vt 0.996427 0.8831228
vt 0.98130095 0.8831228
vt 0.996427 0.8801452
vt 0.98130095 0.8801452
vt 0.996427 0.8774154
vt 0.98130095 0.8774154
vt 0.9955563 0.8904989
vt 0.9804303 0.8867202
vt 0.9804303 0.8904989
vt 0.9955563 0.8867202
vt 0.9804303 0.8827896
vt 0.9955563 0.8827896
vt 0.9804303 0.8790109
vt 0.9955563 0.8790109
vt 0.8912607 0.9942206
vt 0.90140575 0.99597895
vt 0.89632607 0.99635065
vt 0.90610707 0.99313426
vt 0.88819957 0.9909998
vt 0.9086667 0.9895022
vt 0.88653654 0.98531926
vt 0.90948504 0.98364
vt 0.88095576 0.91438687
vt 0.9044501 0.91266763
vt 0.880776 0.9084619
vt 0.8809851 0.9025085
vt 0.88193935 0.89856994
vt 0.8839576 0.89487565
vt 0.8869756 0.89229465
vt 0.8912271 0.8906913
vt 0.90277183 0.88973266
vt 0.9143003 0.88972175
vt 0.9138691 0.9133189
vt 0.92326796 0.91369545
vt 0.92374516 0.8902055
vt 0.9318778 0.8918328
vt 0.93020403 0.91384137
vt 0.9372116 0.8938451
vt 0.93502414 0.91348654
vt 0.9400887 0.91093725
vt 0.94162464 0.8973603
vt 0.9432547 0.901086
vt 0.94237155 0.9084947
vt 0.99815255 0.9975846
vt 0.9812114 0.98950624
vt 0.9812114 0.9975846
vt 0.99815255 0.98950624
vt 0.99815255 0.9814279
vt 0.9812114 0.9814279
vt 0.99815255 0.975458
vt 0.9812114 0.975458
vt 0.99815255 0.9712805
vt 0.9812114 0.9712805
vt 0.9812114 0.96675396
vt 0.99815255 0.96675396
vt 0.99815255 0.9646319
vt 0.9812114 0.9646319
vt 0.9823503 0.8942418
vt 0.9974763 0.89128244
vt 0.9823503 0.89128244
vt 0.9974763 0.8942418
vt 0.9823503 0.89989436
vt 0.9974763 0.89989436
vt 0.98116684 0.9141141
vt 0.9962928 0.91091555
vt 0.9811668 0.91091555
vt 0.9962928 0.9141141
vt 0.98116684 0.9181061
vt 0.9962928 0.9181061
vt 0.98116684 0.92427385
vt 0.9962928 0.92427385
vt 0.98116684 0.931516
vt 0.9962928 0.931516
vt 0.98116684 0.94038975
vt 0.9962928 0.94038975
vt 0.98116684 0.9493293
vt 0.9962928 0.9493293
vt 0.98116684 0.9526919
vt 0.9962928 0.9526919
vt 0.98116684 0.9551601
vt 0.9962928 0.9551601
vn -0 0 1
vn -0 0 1
vn -0 0 1
vn -0 0 1
vn -0 0 1
vn -0 0 1
vn -0 0 1
vn -0 0 1
vn -0 0 1
vn -0 0 1
vn -0 0 1
vn -0 0 1
vn -0 0 1
vn -0 0 1
vn -0 0 1
vn -0 0 1
vn -0 0 1
vn -0 0 1
vn -0 0 1
vn -0 0 1
vn -0 0 1
vn -0 0 1
vn -0 0 1
vn -0 0 1
vn -0 0 1
vn -0 0 1
vn -0 0 1
vn -0 0 1
vn -0 0 1
vn 0.6542969 0.75623775 0
vn 0.9942825 0.106781535 0
vn 0.654297 0.75623775 0
vn 0.9942825 0.10678151 0
vn 0.9007309 0.43437728 0
vn 0.900731 0.43437728 0
vn 0.6268344 0.7791526 0
vn 0.6268344 0.7791526 0
vn -0.6268306 0.7791557 0
vn -0.9007292 0.4343811 0
vn -0.6268306 0.7791557 0
vn -0.9007292 0.4343811 0
vn -0.99410737 0.10839969 0
vn -0.99410737 0.108399704 0
vn -0.9998266 -0.018620731 0
vn -0.9998266 -0.018620731 0
vn -0.99715626 -0.075362414 0
vn -0.99715626 -0.07536242 0
vn -0.9781455 -0.20792142 0
vn -0.9781455 -0.2079214 0
vn -0.90394014 -0.427659 0
vn -0.90394014 -0.427659 0
vn -0.72848004 -0.685067 0
vn -0.72848016 -0.68506694 0
vn -0.6268306 0.7791557 0
vn -0.23338228 0.972385 0
vn -0.6268306 0.7791557 0
vn -0.23338228 0.972385 0
vn 0.2333843 0.9723846 0
vn 0.23338428 0.9723846 0
vn 0.6268344 0.7791526 0
vn 0.6268344 0.7791526 0
vn -0 0 -1
vn -0 0 -1
vn -0 0 -1
vn -0 0 -1
vn -0 0 -1
vn -0 0 -1
vn -0 0 -1
vn -0 0 -1
vn -0 0 -1
vn -0 0 -1
vn -0 0 -1
vn -0 0 -1
vn -0 0 -1
vn -0 0 -1
vn -0 0 -1
vn -0 0 -1
vn -0 0 -1
vn -0 0 -1
vn -0 0 -1
vn -0 0 -1
vn -0 0 -1
vn -0 0 -1
vn -0 0 -1
vn -0 0 -1
vn -0 0 -1
vn -0 0 -1
vn -0 0 -1
vn -0 0 -1
vn -0 0 -1
vn 0.654297 0.75623775 0
vn -0.12723602 0.9918725 0
vn 0.6542969 0.75623775 0
vn -0.12723601 0.9918725 0
vn -0.10340048 0.9946398 0
vn -0.10340046 0.9946398 0
vn -0.046798892 0.99890435 0
vn -0.0467989 0.99890435 0
vn 0.19559896 0.980684 0
vn 0.19559896 0.980684 0
vn 0.5393841 0.84205985 0
vn 0.5393841 0.8420598 0
vn 0.8736323 0.48658663 0
vn 0.8736323 0.4865867 0
vn 0.99727446 -0.07378123 0
vn 0.83522713 -0.5499051 0
vn 0.83522713 -0.54990506 0
vn 0.99727446 -0.07378123 0
vn 0.8736323 0.4865867 0
vn 0.8736323 0.48658663 0
vn 0.5561452 -0.83108515 0
vn 0.83522713 -0.54990506 0
vn 0.83522713 -0.5499051 0
vn 0.5561453 -0.8310851 0
vn 0.3449351 -0.9386266 0
vn 0.3449351 -0.9386266 0
vn 0.19609515 -0.9805848 0
vn 0.19609515 -0.9805848 0
vn 0.097998805 -0.9951866 0
vn 0.0979988 -0.9951866 0
vn 0.03114236 -0.99951494 0
vn 0.031142363 -0.99951494 0
vn -0.14814758 -0.9889653 0
vn -0.1481476 -0.9889653 0
vn -0.4448658 -0.8955972 0
vn -0.44486573 -0.8955972 0
vn -0.72848016 -0.68506694 0
vn -0.72848004 -0.685067 0
g Text_L_0
f 3/3/3 2/2/2 1/1/1
f 4/4/4 1/1/1 2/2/2
f 2/2/2 5/5/5 4/4/4
f 6/6/6 4/4/4 5/5/5
f 5/5/5 7/7/7 6/6/6
f 8/8/8 6/6/6 7/7/7
f 7/7/7 9/9/9 8/8/8
f 10/10/10 8/8/8 9/9/9
f 11/11/11 10/10/10 9/9/9
f 12/12/12 10/10/10 11/11/11
f 13/13/13 10/10/10 12/12/12
f 14/14/14 10/10/10 13/13/13
f 15/15/15 10/10/10 14/14/14
f 16/16/16 10/10/10 15/15/15
f 17/17/17 10/10/10 16/16/16
f 17/17/17 18/18/18 10/10/10
f 19/19/19 10/10/10 18/18/18
f 19/19/19 18/18/18 20/20/20
f 21/21/21 20/20/20 18/18/18
f 21/21/21 22/22/22 20/20/20
f 23/23/23 20/20/20 22/22/22
f 22/22/22 24/24/24 23/23/23
f 25/25/25 23/23/23 24/24/24
f 25/25/25 24/24/24 26/26/26
f 27/27/27 26/26/26 24/24/24
f 27/27/27 28/28/28 26/26/26
f 29/29/29 26/26/26 28/28/28
f 32/32/32 31/31/31 30/30/30
f 33/33/33 30/30/30 31/31/31
f 31/31/31 34/34/34 33/33/33
f 35/35/35 33/33/33 34/34/34
f 34/34/34 36/36/36 35/35/35
f 37/37/37 35/35/35 36/36/36
f 40/40/40 39/39/39 38/38/38
f 41/41/41 38/38/38 39/39/39
f 39/39/39 42/42/42 41/41/41
f 43/43/43 41/41/41 42/42/42
f 42/42/42 44/44/44 43/43/43
f 45/45/45 43/43/43 44/44/44
f 45/45/45 44/44/44 46/46/46
f 47/47/47 46/46/46 44/44/44
f 46/46/46 47/47/47 48/48/48
f 49/49/49 48/48/48 47/47/47
f 48/48/48 49/49/49 50/50/50
f 51/51/51 50/50/50 49/49/49
f 50/50/50 51/51/51 52/52/52
f 53/53/53 52/52/52 51/51/51
f 56/56/56 55/55/55 54/54/54
f 57/57/57 54/54/54 55/55/55
f 55/55/55 58/58/58 57/57/57
f 59/59/59 57/57/57 58/58/58
f 58/58/58 60/60/60 59/59/59
f 61/61/61 59/59/59 60/60/60
f 64/64/64 63/63/63 62/62/62
f 65/65/65 62/62/62 63/63/63
f 62/62/62 65/65/65 66/66/66
f 67/67/67 66/66/66 65/65/65
f 66/66/66 67/67/67 68/68/68
f 69/69/69 68/68/68 67/67/67
f 68/68/68 69/69/69 70/70/70
f 71/71/71 70/70/70 69/69/69
f 71/71/71 72/72/72 70/70/70
f 71/71/71 73/73/73 72/72/72
f 71/71/71 74/74/74 73/73/73
f 71/71/71 75/75/75 74/74/74
f 71/71/71 76/76/76 75/75/75
f 71/71/71 77/77/77 76/76/76
f 71/71/71 78/78/78 77/77/77
f 78/78/78 71/71/71 79/79/79
f 80/80/80 79/79/79 71/71/71
f 80/80/80 81/81/81 79/79/79
f 82/82/82 79/79/79 81/81/81
f 82/82/82 81/81/81 83/83/83
f 84/84/84 83/83/83 81/81/81
f 83/83/83 84/84/84 85/85/85
f 86/86/86 85/85/85 84/84/84
f 86/86/86 87/87/87 85/85/85
f 88/88/88 85/85/85 87/87/87
f 88/88/88 87/87/87 89/89/89
f 90/90/90 89/89/89 87/87/87
f 93/93/93 92/92/92 91/91/91
f 94/94/94 91/91/91 92/92/92
f 94/94/94 92/92/92 95/95/95
f 96/96/96 95/95/95 92/92/92
f 95/95/95 96/96/96 97/97/97
f 98/98/98 97/97/97 96/96/96
f 97/97/97 98/98/98 99/99/99
f 100/100/100 99/99/99 98/98/98
f 100/100/100 101/101/101 99/99/99
f 102/102/102 99/99/99 101/101/101
f 102/102/102 101/101/101 103/103/103
f 104/104/104 103/103/103 101/101/101
f 107/107/107 106/106/106 105/105/105
f 108/108/108 105/105/105 106/106/106
f 105/105/105 108/108/108 109/109/109
f 110/110/110 109/109/109 108/108/108
f 113/113/113 112/112/112 111/111/111
f 114/114/114 111/111/111 112/112/112
f 111/111/111 114/114/114 115/115/115
f 116/116/116 115/115/115 114/114/114
f 115/115/115 116/116/116 117/117/117
f 118/118/118 117/117/117 116/116/116
f 117/117/117 118/118/118 119/119/119
f 120/120/120 119/119/119 118/118/118
f 119/119/119 120/120/120 121/121/121
f 122/122/122 121/121/121 120/120/120
f 121/121/121 122/122/122 123/123/123
f 124/124/124 123/123/123 122/122/122
f 123/123/123 124/124/124 125/125/125
f 126/126/126 125/125/125 124/124/124
f 125/125/125 126/126/126 127/127/127
f 128/128/128 127/127/127 126/126/126
