g textP_collision
v -0.28428808 -0.46598327 0.08716428
v -0.19411516 -0.46593788 0.08716428
v -0.3374734 -0.4080742 0.08716428
v -0.13882604 -0.40414882 0.08716428
v -0.13882604 -0.40414882 0.08716428
v -0.3374734 -0.4080742 0.08716428
v -0.13769114 -0.1740048 0.08716428
v -0.3374734 -0.4080742 0.08716428
v -0.3467555 0.25787133 0.08716428
v -0.13449538 0.024216412 0.08716428
v 0.06594361 -0.16846237 0.08716428
v 0.07182313 0.03349533 0.08716428
v 0.06594361 -0.16846237 0.08716428
v 0.07182313 0.03349533 0.08716428
v 0.17356622 -0.13722634 0.08716428
v 0.07182313 0.03349533 0.08716428
v 0.27771524 -0.069677845 0.08716428
v 0.123285644 0.08348155 0.08716428
v 0.27771524 -0.069677845 0.08716428
v 0.13755526 0.1425029 0.08716428
v 0.34175947 0.06483521 0.08716428
v -0.12677836 0.24475184 0.08716428
v 0.13755526 0.1425029 0.08716428
v 0.34175947 0.06483521 0.08716428
v 0.34615397 0.2255892 0.08716428
v 0.13755526 0.1425029 0.08716428
v 0.34615397 0.2255892 0.08716428
v 0.1229924 0.21709435 0.08716428
v 0.30927217 0.3250587 0.08716428
v 0.1229924 0.21709435 0.08716428
v 0.20886663 0.42401206 0.08716428
v -0.3467555 0.25787133 0.08716428
v 0.07351908 0.25973278 0.08716428
v 0.20886663 0.42401206 0.08716428
v 0.07351908 0.25973278 0.08716428
v -0.29019415 0.36744 0.08716428
v 0.041689966 0.46917424 0.08716428
v -0.12677836 0.24475184 0.08716428
v -0.21595173 0.42842564 0.08716428
v 0.07351908 0.25973278 0.08716428
v 0.041689966 0.46917424 0.08716428
v -0.11695827 0.46352458 0.08716428
v -0.08341945 0.26487613 0.08716428
v -0.21595173 0.42842564 0.08716428
v -0.12677836 0.24475184 0.08716428
v -0.13449538 0.024216412 0.08716428
v -0.13344175 0.2289795 -0.08716357
v -0.13449538 0.024216412 -0.08716357
v -0.12677836 0.24475184 0.08716428
v -0.13344175 0.2289795 -0.08716357
v -0.12677836 0.24475184 0.08716428
v -0.10413693 0.25899595 -0.08716357
v -0.12677836 0.24475184 0.08716428
v -0.10413693 0.25899595 -0.08716357
v -0.08341945 0.26487613 0.08716428
v 0.043765057 0.26380384 -0.08716357
v 0.07351908 0.25973278 0.08716428
v -0.13449538 0.024216412 -0.08716357
v 0.07182313 0.03349533 0.08716428
v -0.13449538 0.024216412 0.08716428
v 0.066439554 0.033651557 -0.08716357
v 0.066439554 0.033651557 -0.08716357
v 0.07182313 0.03349533 0.08716428
v 0.12034411 0.077122115 -0.08716357
v 0.12034411 0.077122115 -0.08716357
v 0.123285644 0.08348155 0.08716428
v 0.07182313 0.03349533 0.08716428
v 0.12034411 0.077122115 -0.08716357
v 0.13755526 0.1425029 0.08716428
v 0.13525777 0.12774998 -0.08716357
v 0.13525777 0.12774998 -0.08716357
v 0.13755526 0.1425029 0.08716428
v 0.12964968 0.20272182 -0.08716357
v 0.1229924 0.21709435 0.08716428
v 0.12964968 0.20272182 -0.08716357
v 0.1229924 0.21709435 0.08716428
v 0.095792644 0.24695207 -0.08716357
v 0.2911941 0.35311732 -0.08716357
v 0.30927217 0.3250587 0.08716428
v 0.20886663 0.42401206 0.08716428
v 0.2911941 0.35311732 -0.08716357
v 0.34426832 0.23579708 -0.08716357
v 0.34615397 0.2255892 0.08716428
v 0.34426832 0.23579708 -0.08716357
v 0.34615397 0.2255892 0.08716428
v 0.34292755 0.06452722 -0.08716357
v 0.34175947 0.06483521 0.08716428
v 0.34292755 0.06452722 -0.08716357
v 0.34175947 0.06483521 0.08716428
v 0.27771524 -0.069677845 0.08716428
v 0.29748857 -0.03914857 -0.08716357
v 0.24385393 -0.09591699 -0.08716357
v 0.043765057 0.26380384 -0.08716357
v 0.07351908 0.25973278 0.08716428
v 0.095792644 0.24695207 -0.08716357
v 0.07351908 0.25973278 0.08716428
v 0.095792644 0.24695207 -0.08716357
v 0.1229924 0.21709435 0.08716428
v 0.20886663 0.42401206 0.08716428
v 0.2911941 0.35311732 -0.08716357
v 0.1549097 0.44967157 -0.08716357
v 0.20886663 0.42401206 0.08716428
v 0.1549097 0.44967157 -0.08716357
v 0.041689966 0.46917424 0.08716428
v 0.1549097 0.44967157 -0.08716357
v 0.041689966 0.46917424 0.08716428
v 0.006284349 0.47031474 -0.08716357
v -0.11695827 0.46352458 0.08716428
v -0.14512707 0.4579429 -0.08716357
v -0.14512707 0.4579429 -0.08716357
v -0.21595173 0.42842564 0.08716428
v -0.26832196 0.39209133 -0.08716357
v -0.21595173 0.42842564 0.08716428
v -0.26832196 0.39209133 -0.08716357
v -0.29019415 0.36744 0.08716428
v -0.29019415 0.36744 0.08716428
v -0.32659972 0.30849528 -0.08716357
v -0.26832196 0.39209133 -0.08716357
v -0.3467555 0.25787133 0.08716428
v -0.34961995 0.22298767 -0.08716357
v -0.34961995 0.22298767 -0.08716357
v -0.3467555 0.25787133 0.08716428
v -0.3374734 -0.4080742 0.08716428
v -0.34109634 -0.37273133 -0.08716357
v -0.34109634 -0.37273133 -0.08716357
v -0.3374734 -0.4080742 0.08716428
v -0.31751695 -0.4440711 -0.08716357
v -0.18812418 -0.4623786 -0.08716357
v -0.2664839 -0.4703133 -0.08716357
v -0.31751695 -0.4440711 -0.08716357
v -0.18812418 -0.4623786 -0.08716357
v -0.31751695 -0.4440711 -0.08716357
v -0.13779677 -0.40109748 -0.08716357
v -0.31751695 -0.4440711 -0.08716357
v -0.13779677 -0.40109748 -0.08716357
v -0.34109634 -0.37273133 -0.08716357
v -0.13769114 -0.1740048 -0.08716357
v -0.34109634 -0.37273133 -0.08716357
v -0.34961995 0.22298767 -0.08716357
v -0.13449538 0.024216412 -0.08716357
v 0.07923514 -0.1662623 -0.08716357
v 0.066439554 0.033651557 -0.08716357
v 0.07923514 -0.1662623 -0.08716357
v 0.066439554 0.033651557 -0.08716357
v 0.17356622 -0.13722634 -0.08716357
v 0.12034411 0.077122115 -0.08716357
v 0.24385393 -0.09591699 -0.08716357
v 0.12034411 0.077122115 -0.08716357
v 0.29748857 -0.03914857 -0.08716357
v 0.13525777 0.12774998 -0.08716357
v 0.34292755 0.06452722 -0.08716357
v -0.13344175 0.2289795 -0.08716357
v 0.13525777 0.12774998 -0.08716357
v 0.34292755 0.06452722 -0.08716357
v 0.34426832 0.23579708 -0.08716357
v 0.12964968 0.20272182 -0.08716357
v 0.34426832 0.23579708 -0.08716357
v 0.12964968 0.20272182 -0.08716357
v 0.2911941 0.35311732 -0.08716357
v 0.095792644 0.24695207 -0.08716357
v 0.2911941 0.35311732 -0.08716357
v -0.34961995 0.22298767 -0.08716357
v -0.32659972 0.30849528 -0.08716357
v 0.095792644 0.24695207 -0.08716357
v 0.1549097 0.44967157 -0.08716357
v 0.1549097 0.44967157 -0.08716357
v 0.043765057 0.26380384 -0.08716357
v -0.26832196 0.39209133 -0.08716357
v -0.13344175 0.2289795 -0.08716357
v 0.1549097 0.44967157 -0.08716357
v -0.10413693 0.25899595 -0.08716357
v -0.26832196 0.39209133 -0.08716357
v 0.043765057 0.26380384 -0.08716357
v 0.006284349 0.47031474 -0.08716357
v -0.14512707 0.4579429 -0.08716357
v -0.10413693 0.25899595 -0.08716357
v -0.14512707 0.4579429 -0.08716357
v -0.13779677 -0.40109748 -0.08716357
v -0.13769114 -0.1740048 0.08716428
v -0.13769114 -0.1740048 -0.08716357
v -0.13882604 -0.40414882 0.08716428
v -0.13779677 -0.40109748 -0.08716357
v -0.13882604 -0.40414882 0.08716428
v -0.18812418 -0.4623786 -0.08716357
v -0.19411516 -0.46593788 0.08716428
v -0.18812418 -0.4623786 -0.08716357
v -0.19411516 -0.46593788 0.08716428
v -0.2664839 -0.4703133 -0.08716357
v -0.28428808 -0.46598327 0.08716428
v -0.28428808 -0.46598327 0.08716428
v -0.31751695 -0.4440711 -0.08716357
v -0.3374734 -0.4080742 0.08716428
v -0.31751695 -0.4440711 -0.08716357
v -0.28428808 -0.46598327 0.08716428
v -0.2664839 -0.4703133 -0.08716357
v 0.06594361 -0.16846237 0.08716428
v -0.13769114 -0.1740048 -0.08716357
v -0.13769114 -0.1740048 0.08716428
v 0.07923514 -0.1662623 -0.08716357
v 0.06594361 -0.16846237 0.08716428
v 0.07923514 -0.1662623 -0.08716357
v 0.17356622 -0.13722634 0.08716428
v 0.17356622 -0.13722634 -0.08716357
v 0.27771524 -0.069677845 0.08716428
v 0.24385393 -0.09591699 -0.08716357
vt 0.26152912 0.8884275
vt 0.27385408 0.8887547
vt 0.25855786 0.8915128
vt 0.2778168 0.8935235
vt 0.2780343 0.89388704
vt 0.2570438 0.8972805
vt 0.27814636 0.9177541
vt 0.25664315 0.9177541
vt 0.2562308 0.9590599
vt 0.27847758 0.9382966
vt 0.2949622 0.9180073
vt 0.29985917 0.9392582
vt 0.29924995 0.9183285
vt 0.30127 0.94028014
vt 0.31040326 0.92156565
vt 0.30318406 0.9420008
vt 0.3176874 0.9258467
vt 0.30519244 0.9444386
vt 0.3211967 0.928566
vt 0.30638838 0.9486512
vt 0.32676303 0.9392006
vt 0.27847758 0.95888126
vt 0.30672175 0.95159304
vt 0.32783294 0.94248575
vt 0.3285179 0.95509756
vt 0.30624518 0.9547082
vt 0.3282893 0.9591658
vt 0.30516204 0.9582854
vt 0.32446694 0.9694741
vt 0.30364475 0.9600656
vt 0.31880116 0.97584796
vt 0.25856885 0.9677577
vt 0.30048186 0.9624808
vt 0.31406164 0.97972924
vt 0.29872915 0.9627967
vt 0.2623419 0.9738662
vt 0.30003014 0.98386276
vt 0.27914912 0.96105194
vt 0.27004 0.9801896
vt 0.29305604 0.9633734
vt 0.29673636 0.9844095
vt 0.28029498 0.9838239
vt 0.2837707 0.9632373
vt 0.27366623 0.98180294
vt 0.28074768 0.96204686
vt 0.36868668 0.9961721
vt 0.34663093 0.9768146
vt 0.36868668 0.9768146
vt 0.34663093 0.9961721
vt 0.3450507 0.9768146
vt 0.3450507 0.9961721
vt 0.34347045 0.9768146
vt 0.34198642 0.9961721
vt 0.34212223 0.97681504
vt 0.339934 0.9961721
vt 0.32998502 0.9768146
vt 0.32998514 0.9961721
vt 0.3645693 0.9426969
vt 0.34521186 0.9246794
vt 0.34521186 0.9426969
vt 0.3645693 0.9246794
vt 0.3645693 0.919043
vt 0.34521186 0.91622484
vt 0.3645693 0.91622484
vt 0.34684706 0.9287492
vt 0.3662045 0.9293301
vt 0.3662045 0.9267181
vt 0.34684706 0.9293301
vt 0.3662045 0.93313277
vt 0.34684706 0.93313277
vt 0.34684706 0.93553305
vt 0.3662045 0.9403337
vt 0.34684706 0.9425295
vt 0.3662045 0.9432038
vt 0.34684706 0.9432038
vt 0.3662045 0.946074
vt 0.34684706 0.946074
vt 0.36676443 0.93008256
vt 0.34740698 0.9273454
vt 0.34740698 0.9341748
vt 0.36676443 0.9273454
vt 0.36676443 0.91922903
vt 0.34740698 0.91922903
vt 0.36676443 0.9119414
vt 0.34740698 0.9119414
vt 0.36675748 0.8985177
vt 0.34740698 0.9020624
vt 0.36676443 0.8949083
vt 0.34740698 0.8949083
vt 0.34740698 0.88690364
vt 0.36676443 0.88690364
vt 0.36676443 0.8806001
vt 0.34477448 0.899984
vt 0.36413193 0.899984
vt 0.34477448 0.89685464
vt 0.36413193 0.89685464
vt 0.34477448 0.8947171
vt 0.36413193 0.8947171
vt 0.34739923 0.8904902
vt 0.36675668 0.8854923
vt 0.36675668 0.8904902
vt 0.34739923 0.8962436
vt 0.36675668 0.8941881
vt 0.34739923 0.9056049
vt 0.36676514 0.8968087
vt 0.34739923 0.91306555
vt 0.36675668 0.91306555
vt 0.34739923 0.9267505
vt 0.36675668 0.9267505
vt 0.36675668 0.92978525
vt 0.34739923 0.933853
vt 0.36675668 0.93993556
vt 0.34739923 0.93993556
vt 0.36676288 0.94323736
vt 0.34739923 0.9459866
vt 0.36707938 0.96829784
vt 0.34772193 0.9617529
vt 0.34772193 0.96829784
vt 0.36707938 0.9617529
vt 0.34772193 0.9528179
vt 0.34772193 0.9307622
vt 0.36707938 0.9307622
vt 0.36707938 0.9081757
vt 0.34772193 0.9081757
vt 0.34772193 0.8859118
vt 0.36707938 0.88221335
vt 0.34772193 0.88221335
vt 0.27413526 0.888729
vt 0.26479897 0.88704634
vt 0.26152912 0.8884275
vt 0.2754281 0.8903694
vt 0.26037854 0.8891398
vt 0.27813533 0.89421946
vt 0.25951016 0.88976604
vt 0.27835092 0.8969753
vt 0.25710556 0.8969753
vt 0.27814636 0.9177541
vt 0.25706673 0.89715934
vt 0.25631335 0.9388341
vt 0.27847758 0.9382966
vt 0.30062738 0.9185565
vt 0.29529342 0.9385499
vt 0.30311903 0.9191872
vt 0.29934293 0.93928504
vt 0.31040326 0.92156565
vt 0.30318406 0.9420008
vt 0.3176874 0.9258467
vt 0.30519244 0.9444386
vt 0.323246 0.9317298
vt 0.30624518 0.94798756
vt 0.32676303 0.9392006
vt 0.27858675 0.9595171
vt 0.30643323 0.9490262
vt 0.32833493 0.94587755
vt 0.328089 0.96024984
vt 0.30624518 0.9547082
vt 0.327582 0.96189904
vt 0.30554083 0.957387
vt 0.32446694 0.9694741
vt 0.30364475 0.9600656
vt 0.31880116 0.97584796
vt 0.25618348 0.9588962
vt 0.25856885 0.9677577
vt 0.30234328 0.9613796
vt 0.31413674 0.97932553
vt 0.30876705 0.9818957
vt 0.29872915 0.9627967
vt 0.2623419 0.9738662
vt 0.2790732 0.9603561
vt 0.30003014 0.98386276
vt 0.28047016 0.961831
vt 0.2679893 0.97872686
vt 0.29305604 0.9633734
vt 0.29306713 0.9845277
vt 0.28029498 0.9838239
vt 0.2837707 0.9632373
vt 0.27366623 0.98180294
vt 0.3462504 0.9774877
vt 0.3685143 0.9968451
vt 0.3685143 0.9774877
vt 0.3462504 0.9968451
vt 0.34255207 0.9774877
vt 0.34255207 0.9968451
vt 0.33917248 0.9774877
vt 0.33917248 0.9968451
vt 0.33336937 0.9774877
vt 0.33336937 0.9968451
vt 0.32778382 0.9774877
vt 0.32778382 0.9968451
vt 0.36675668 0.8816584
vt 0.34739923 0.8839581
vt 0.36675668 0.8839581
vt 0.34739923 0.8816584
vt 0.36675668 0.8781548
vt 0.34739923 0.8781548
vt 0.3645693 0.90489507
vt 0.34521186 0.9229127
vt 0.3645693 0.9229127
vt 0.34521186 0.90489507
vt 0.3645693 0.89615536
vt 0.34521186 0.89615536
vt 0.3645693 0.8883505
vt 0.34521186 0.8883505
vt 0.3645693 0.8805458
vt 0.34521186 0.8805458
vn -0 0 1
vn -0 0 1
vn -0 0 1
vn -0 0 1
vn -0 0 1
vn -0 0 1
vn -0 0 1
vn -0 0 1
vn -0 0 1
vn -0 0 1
vn -0 0 1
vn -0 0 1
vn -0 0 1
vn -0 0 1
vn -0 0 1
vn -0 0 1
vn -0 0 1
vn -0 0 1
vn -0 0 1
vn -0 0 1
vn -0 0 1
vn -0 0 1
vn -0 0 1
vn -0 0 1
vn -0 0 1
vn -0 0 1
vn -0 0 1
vn -0 0 1
vn -0 0 1
vn -0 0 1
vn -0 0 1
vn -0 0 1
vn -0 0 1
vn -0 0 1
vn -0 0 1
vn -0 0 1
vn -0 0 1
vn -0 0 1
vn -0 0 1
vn -0 0 1
vn -0 0 1
vn -0 0 1
vn -0 0 1
vn -0 0 1
vn -0 0 1
vn 0.7017632 0.7124103 0
vn 0.9816404 -0.19074093 0
vn 0.7017633 0.7124103 0
vn 0.9816404 -0.19074093 0
vn 0.84132814 -0.54052466 0
vn 0.8413281 -0.5405247 0
vn 0.59811085 -0.8014133 0
vn 0.39933416 -0.9168054 0
vn 0.44795355 -0.8940568 0
vn 0.18221286 -0.9832591 0
vn -0.04331086 -0.99906164 0
vn -0.043310873 -0.99906164 0
vn 0.7017633 0.7124103 0
vn -0.13903466 0.9902874 0
vn 0.7017632 0.7124103 0
vn -0.13903466 0.9902874 0
vn -0.4444408 0.8958082 0
vn -0.6957245 0.71830875 0
vn -0.6957245 0.7183087 0
vn -0.8484312 0.52930564 0
vn -0.8829249 0.4695142 0
vn -0.6957245 0.71830875 0
vn -0.8829249 0.46951413 0
vn -0.98179954 0.18992008 0
vn -0.98179954 0.18992008 0
vn -0.99972624 0.023397405 0
vn -0.988461 -0.15147527 0
vn -0.93230087 -0.3616836 0
vn -0.9062206 -0.42280513 0
vn -0.9062206 -0.42280507 0
vn -0.73618823 -0.6767768 0
vn -0.7361882 -0.6767768 0
vn 0.7860174 0.6182044 0
vn 0.8481057 0.52982694 0
vn 0.67605186 0.736854 0
vn 0.8481057 0.52982694 0
vn 0.96549934 0.26040527 0
vn 0.96549934 0.2604053 0
vn 0.99829215 0.058418777 0
vn 0.99829215 0.058418777 0
vn 0.9737544 -0.22760114 0
vn 0.99213153 -0.12519945 0
vn 0.9442099 -0.32934424 0
vn 0.9442099 -0.32934424 0
vn 0.8261723 -0.56341755 0
vn 0.8261723 -0.5634177 0
vn 0.6229824 -0.78223574 0
vn -0.22146599 -0.97516817 0
vn -0.22146603 -0.97516817 0
vn -0.49918824 -0.8664935 0
vn -0.49918824 -0.8664935 0
vn -0.7361882 -0.6767768 0
vn -0.73618823 -0.6767768 0
vn 0.5171617 0.85588765 0
vn 0.67605186 0.736854 0
vn 0.5171617 0.85588765 0
vn 0.32776517 0.94475925 0
vn 0.3974326 0.9176314 0
vn 0.15766428 0.9874928 0
vn 0.34430096 0.93885934 0
vn 0.020077048 0.9997985 0
vn 0.020077057 0.9997985 0
vn -0.17458987 0.98464125 0
vn -0.17458987 0.98464125 0
vn -0.26649132 0.9638373 0
vn -0.38596144 0.9225149 0
vn -0.56762254 0.823289 0
vn -0.56762254 0.823289 0
vn -0.6785636 0.7345416 0
vn -0.7604944 0.64934444 0
vn -0.7604944 0.64934444 0
vn -0.91762495 0.39744732 0
vn -0.7604944 0.64934444 0
vn -0.91762495 0.39744732 0
vn -0.99129033 0.13169445 0
vn -0.9999695 -0.007821086 0
vn -0.9999695 -0.007821086 0
vn -0.99982053 -0.018946264 0
vn -0.99982053 -0.018946264 0
vn -0.992853 -0.119343564 0
vn -0.94521207 -0.32645676 0
vn -0.94521207 -0.32645673 0
vn -0 0 -1
vn -0 0 -1
vn -0 0 -1
vn -0 0 -1
vn -0 0 -1
vn -0 0 -1
vn -0 0 -1
vn -0 0 -1
vn -0 0 -1
vn -0 0 -1
vn -0 0 -1
vn -0 0 -1
vn -0 0 -1
vn -0 0 -1
vn -0 0 -1
vn -0 0 -1
vn -0 0 -1
vn -0 0 -1
vn -0 0 -1
vn -0 0 -1
vn -0 0 -1
vn -0 0 -1
vn -0 0 -1
vn -0 0 -1
vn -0 0 -1
vn -0 0 -1
vn -0 0 -1
vn -0 0 -1
vn -0 0 -1
vn -0 0 -1
vn -0 0 -1
vn -0 0 -1
vn -0 0 -1
vn -0 0 -1
vn -0 0 -1
vn -0 0 -1
vn -0 0 -1
vn -0 0 -1
vn -0 0 -1
vn -0 0 -1
vn -0 0 -1
vn -0 0 -1
vn -0 0 -1
vn -0 0 -1
vn -0 0 -1
vn -0 0 -1
vn -0 0 -1
vn -0 0 -1
vn -0 0 -1
vn -0 0 -1
vn 0.99742115 -0.07177137 0
vn 0.71585524 -0.6982486 0
vn 0.71585524 -0.6982486 0
vn 0.99742115 -0.07177137 0
vn 0.92073 -0.39020032 0
vn 0.92073 -0.39020026 0
vn 0.7372832 -0.67558384 0
vn 0.7372831 -0.67558384 0
vn 0.1985016 -0.9801005 0
vn 0.1985016 -0.9801005 0
vn -0.19850324 -0.98010033 0
vn -0.19850323 -0.98010033 0
vn -0.5375758 -0.8432155 0
vn -0.80106777 -0.5985736 0
vn -0.80106777 -0.59857357 0
vn -0.5375757 -0.8432154 0
vn -0.19850323 -0.98010033 0
vn -0.19850324 -0.98010033 0
vn 0.07927245 -0.99685305 0
vn 0.71585524 -0.6982486 0
vn 0.71585524 -0.6982486 0
vn 0.07927246 -0.99685305 0
vn 0.22761722 -0.9737507 0
vn 0.22761722 -0.9737507 0
vn 0.41092882 -0.91166747 0
vn 0.41092882 -0.91166747 0
vn 0.62298244 -0.78223574 0
vn 0.6229824 -0.78223574 0
g textP_collision_0
f 3/3/3 1/1/1 2/2/2
f 2/2/2 4/4/4 3/3/3
f 5/5/5 7/7/7 6/6/6
f 8/8/8 7/7/7 9/9/9
f 10/10/10 9/9/9 7/7/7
f 7/7/7 11/11/11 10/10/10
f 12/12/12 10/10/10 11/11/11
f 13/13/13 15/15/15 14/14/14
f 15/15/15 17/17/17 16/16/16
f 18/18/18 16/16/16 17/17/17
f 20/20/20 18/18/18 19/19/19
f 19/19/19 21/21/21 20/20/20
f 10/10/10 22/22/22 9/9/9
f 24/24/24 25/25/25 23/23/23
f 28/28/28 26/26/26 27/27/27
f 27/27/27 29/29/29 28/28/28
f 29/29/29 31/31/31 30/30/30
f 33/33/33 30/30/30 31/31/31
f 32/32/32 22/22/22 36/36/36
f 34/34/34 37/37/37 35/35/35
f 39/39/39 36/36/36 38/38/38
f 41/41/41 42/42/42 40/40/40
f 43/43/43 40/40/40 42/42/42
f 42/42/42 44/44/44 43/43/43
f 45/45/45 43/43/43 44/44/44
f 48/48/48 47/47/47 46/46/46
f 49/49/49 46/46/46 47/47/47
f 50/50/50 52/52/52 51/51/51
f 55/55/55 53/53/53 54/54/54
f 54/54/54 56/56/56 55/55/55
f 57/57/57 55/55/55 56/56/56
f 60/60/60 59/59/59 58/58/58
f 61/61/61 58/58/58 59/59/59
f 64/64/64 62/62/62 63/63/63
f 67/67/67 66/66/66 65/65/65
f 66/66/66 69/69/69 68/68/68
f 70/70/70 68/68/68 69/69/69
f 73/73/73 71/71/71 72/72/72
f 72/72/72 74/74/74 73/73/73
f 77/77/77 75/75/75 76/76/76
f 80/80/80 79/79/79 78/78/78
f 81/81/81 79/79/79 82/82/82
f 83/83/83 82/82/82 79/79/79
f 84/84/84 85/85/85 86/86/86
f 87/87/87 86/86/86 85/85/85
f 89/89/89 90/90/90 88/88/88
f 91/91/91 88/88/88 90/90/90
f 91/91/91 90/90/90 92/92/92
f 93/93/93 95/95/95 94/94/94
f 98/98/98 96/96/96 97/97/97
f 101/101/101 99/99/99 100/100/100
f 102/102/102 103/103/103 104/104/104
f 107/107/107 106/106/106 105/105/105
f 106/106/106 107/107/107 108/108/108
f 109/109/109 108/108/108 107/107/107
f 111/111/111 108/108/108 110/110/110
f 110/110/110 112/112/112 111/111/111
f 115/115/115 113/113/113 114/114/114
f 118/118/118 117/117/117 116/116/116
f 119/119/119 116/116/116 117/117/117
f 117/117/117 120/120/120 119/119/119
f 122/122/122 121/121/121 123/123/123
f 124/124/124 123/123/123 121/121/121
f 127/127/127 126/126/126 125/125/125
f 130/130/130 128/128/128 129/129/129
f 131/131/131 132/132/132 133/133/133
f 136/136/136 135/135/135 134/134/134
f 135/135/135 136/136/136 137/137/137
f 138/138/138 139/139/139 137/137/137
f 140/140/140 137/137/137 139/139/139
f 137/137/137 140/140/140 141/141/141
f 142/142/142 141/141/141 140/140/140
f 143/143/143 144/144/144 145/145/145
f 146/146/146 145/145/145 144/144/144
f 145/145/145 146/146/146 147/147/147
f 147/147/147 148/148/148 149/149/149
f 150/150/150 149/149/149 148/148/148
f 149/149/149 150/150/150 151/151/151
f 140/140/140 139/139/139 152/152/152
f 154/154/154 153/153/153 155/155/155
f 156/156/156 155/155/155 153/153/153
f 157/157/157 158/158/158 159/159/159
f 160/160/160 159/159/159 158/158/158
f 152/152/152 162/162/162 163/163/163
f 164/164/164 165/165/165 161/161/161
f 167/167/167 166/166/166 164/164/164
f 163/163/163 168/168/168 152/152/152
f 169/169/169 168/168/168 171/171/171
f 174/174/174 170/170/170 173/173/173
f 174/174/174 173/173/173 175/175/175
f 176/176/176 175/175/175 173/173/173
f 172/172/172 177/177/177 171/171/171
f 180/180/180 179/179/179 178/178/178
f 181/181/181 178/178/178 179/179/179
f 182/182/182 183/183/183 184/184/184
f 185/185/185 184/184/184 183/183/183
f 186/186/186 187/187/187 188/188/188
f 189/189/189 188/188/188 187/187/187
f 192/192/192 191/191/191 190/190/190
f 195/195/195 194/194/194 193/193/193
f 198/198/198 197/197/197 196/196/196
f 199/199/199 196/196/196 197/197/197
f 200/200/200 201/201/201 202/202/202
f 203/203/203 202/202/202 201/201/201
f 202/202/202 203/203/203 204/204/204
f 205/205/205 204/204/204 203/203/203
