g textO_collision
v 0.1632244 0.1844756 -0.08665062
v 0.15914412 0.19415285 0.086650126
v 0.08052216 0.25142378 -0.08665062
v 0.030744107 0.2688189 0.086650126
v 0.08052216 0.25142378 -0.08665062
v 0.030744107 0.2688189 0.086650126
v -0.038168486 0.26878825 -0.08665062
v -0.110471696 0.2423675 0.086650126
v -0.038168486 0.26878825 -0.08665062
v -0.110471696 0.2423675 0.086650126
v -0.11791056 0.23199165 -0.08665062
v 0.15914412 0.19415285 0.086650126
v 0.1632244 0.1844756 -0.08665062
v 0.20996977 0.049244978 -0.08665062
v 0.21396376 -0.004324979 0.086650126
v 0.20996977 0.049244978 -0.08665062
v 0.21396376 -0.004324979 0.086650126
v 0.19169499 -0.11870318 -0.08665062
v 0.15321206 -0.19353572 0.086650126
v 0.19169499 -0.11870318 -0.08665062
v 0.15321206 -0.19353572 0.086650126
v 0.13148262 -0.21369112 -0.08665062
v 0.24015352 0.400124 -0.08665062
v 0.35211727 0.28474197 0.086650126
v 0.28279 0.36264694 0.086650126
v 0.37113568 0.25373483 -0.08665062
v 0.35211727 0.28474197 0.086650126
v 0.37113568 0.25373483 -0.08665062
v 0.4083429 0.14123173 0.086650126
v 0.37113568 0.25373483 -0.08665062
v 0.42463574 0.03663987 -0.08665062
v 0.4083429 0.14123173 0.086650126
v 0.42463574 0.03663987 -0.08665062
v 0.423724 -0.0006869215 0.086650126
v 0.40093768 -0.17495775 0.086650126
v 0.40928385 -0.131773 -0.08665062
v 0.40928385 -0.131773 -0.08665062
v 0.40093768 -0.17495775 0.086650126
v 0.35969076 -0.26722434 -0.08665062
v 0.40093768 -0.17495775 0.086650126
v 0.35969076 -0.26722434 -0.08665062
v 0.3124266 -0.3327627 0.086650126
v 0.26085043 -0.38071206 -0.08665062
v 0.28279 0.36264694 0.086650126
v 0.24015352 0.400124 -0.08665062
v 0.19183882 0.42469633 0.086650126
v 0.24015352 0.400124 -0.08665062
v 0.19183882 0.42469633 0.086650126
v 0.054265127 0.4670683 -0.08665062
v 0.10323698 0.45595825 0.086650126
v 0.054265127 0.4670683 -0.08665062
v -0.06547326 0.46700558 0.086650126
v -0.16097134 0.44525003 -0.08665062
v -0.06547326 0.46700558 0.086650126
v -0.16097134 0.44525003 -0.08665062
v -0.20523472 0.42251155 0.086650126
v -0.16097134 0.44525003 -0.08665062
v -0.20523472 0.42251155 0.086650126
v -0.28852576 0.36264694 -0.08665062
v -0.31573132 0.3359258 0.086650126
v -0.11791056 0.23199165 -0.08665062
v -0.110471696 0.2423675 0.086650126
v -0.17217973 0.16802841 -0.08665062
v -0.19432163 0.12126269 0.086650126
v -0.17217973 0.16802841 -0.08665062
v -0.19432163 0.12126269 0.086650126
v -0.20909962 0.04501629 -0.08665062
v -0.20909962 0.04501629 -0.08665062
v -0.21040267 -0.0006869215 0.086650126
v -0.19795081 -0.11227314 -0.08665062
v -0.19454032 -0.12329366 0.086650126
v -0.19795081 -0.11227314 -0.08665062
v -0.19454032 -0.12329366 0.086650126
v -0.15572089 -0.19591248 -0.08665062
v -0.13483016 -0.22143383 0.086650126
v -0.31573132 0.3359258 0.086650126
v -0.35933092 0.27303684 -0.08665062
v -0.28852576 0.36264694 -0.08665062
v -0.31573132 0.3359258 0.086650126
v -0.35933092 0.27303684 -0.08665062
v -0.39001977 0.20414236 0.086650126
v -0.39001977 0.20414236 0.086650126
v -0.40760085 0.14128874 -0.08665062
v -0.40760085 0.14128874 -0.08665062
v -0.42343867 0.03474981 0.086650126
v -0.42463374 -0.03803623 -0.08665062
v -0.42343867 0.03474981 0.086650126
v -0.40214384 -0.17376769 0.086650126
v -0.42463374 -0.03803623 -0.08665062
v -0.40214384 -0.17376769 0.086650126
v -0.3858216 -0.21656266 -0.08665062
v -0.40214384 -0.17376769 0.086650126
v -0.3858216 -0.21656266 -0.08665062
v -0.30891865 -0.34509787 0.086650126
v -0.31326017 -0.3371459 -0.08665062
v 0.15321206 -0.19353572 0.086650126
v 0.13148262 -0.21369112 -0.08665062
v 0.03950282 -0.26454115 0.086650126
v 0.065780945 -0.2542888 -0.08665062
v 0.03950282 -0.26454115 0.086650126
v -0.048022438 -0.266148 -0.08665062
v -0.0725724 -0.2574836 0.086650126
v -0.048022438 -0.266148 -0.08665062
v -0.13483016 -0.22143383 0.086650126
v -0.11791056 -0.23336709 -0.08665062
v -0.13483016 -0.22143383 0.086650126
v -0.15572089 -0.19591248 -0.08665062
v 0.26085043 -0.38071206 -0.08665062
v 0.3124266 -0.3327627 0.086650126
v 0.18787841 -0.426598 0.086650126
v 0.1342219 -0.44760394 -0.08665062
v 0.18787841 -0.426598 0.086650126
v 0.1342219 -0.44760394 -0.08665062
v 0.028882695 -0.46817708 0.086650126
v -0.0057750866 -0.4682628 -0.08665062
v 0.028882695 -0.46817708 0.086650126
v -0.14935568 -0.45209038 -0.08665062
v -0.14259557 -0.45222637 0.086650126
v -0.14259557 -0.45222637 0.086650126
v -0.14935568 -0.45209038 -0.08665062
v -0.30891865 -0.34509787 0.086650126
v -0.31326017 -0.3371459 -0.08665062
v -0.20909962 0.04501629 -0.08665062
v -0.35933092 0.27303684 -0.08665062
v -0.40760085 0.14128874 -0.08665062
v -0.40760085 0.14128874 -0.08665062
v -0.17217973 0.16802841 -0.08665062
v -0.20909962 0.04501629 -0.08665062
v -0.42463374 -0.03803623 -0.08665062
v -0.42463374 -0.03803623 -0.08665062
v -0.17217973 0.16802841 -0.08665062
v -0.19795081 -0.11227314 -0.08665062
v -0.3858216 -0.21656266 -0.08665062
v -0.35933092 0.27303684 -0.08665062
v -0.28852576 0.36264694 -0.08665062
v -0.16097134 0.44525003 -0.08665062
v -0.11791056 0.23199165 -0.08665062
v -0.16097134 0.44525003 -0.08665062
v -0.038168486 0.26878825 -0.08665062
v -0.16097134 0.44525003 -0.08665062
v -0.3858216 -0.21656266 -0.08665062
v -0.19795081 -0.11227314 -0.08665062
v -0.038168486 0.26878825 -0.08665062
v 0.054265127 0.4670683 -0.08665062
v 0.054265127 0.4670683 -0.08665062
v 0.08052216 0.25142378 -0.08665062
v 0.24015352 0.400124 -0.08665062
v 0.08052216 0.25142378 -0.08665062
v 0.24015352 0.400124 -0.08665062
v -0.15572089 -0.19591248 -0.08665062
v 0.1632244 0.1844756 -0.08665062
v -0.31326017 -0.3371459 -0.08665062
v -0.31326017 -0.3371459 -0.08665062
v -0.14935568 -0.45209038 -0.08665062
v -0.11791056 -0.23336709 -0.08665062
v -0.14935568 -0.45209038 -0.08665062
v -0.048022438 -0.266148 -0.08665062
v -0.14935568 -0.45209038 -0.08665062
v 0.24015352 0.400124 -0.08665062
v 0.37113568 0.25373483 -0.08665062
v -0.048022438 -0.266148 -0.08665062
v -0.0057750866 -0.4682628 -0.08665062
v 0.1342219 -0.44760394 -0.08665062
v 0.065780945 -0.2542888 -0.08665062
v 0.1342219 -0.44760394 -0.08665062
v 0.13148262 -0.21369112 -0.08665062
v 0.26085043 -0.38071206 -0.08665062
v 0.37113568 0.25373483 -0.08665062
v 0.1632244 0.1844756 -0.08665062
v 0.13148262 -0.21369112 -0.08665062
v 0.20996977 0.049244978 -0.08665062
v 0.37113568 0.25373483 -0.08665062
v 0.42463574 0.03663987 -0.08665062
v 0.26085043 -0.38071206 -0.08665062
v 0.35969076 -0.26722434 -0.08665062
v 0.20996977 0.049244978 -0.08665062
v 0.42463574 0.03663987 -0.08665062
v 0.40928385 -0.131773 -0.08665062
v 0.35969076 -0.26722434 -0.08665062
v 0.19169499 -0.11870318 -0.08665062
v 0.19169499 -0.11870318 -0.08665062
v 0.40928385 -0.131773 -0.08665062
v -0.19454032 -0.12329366 0.086650126
v -0.40214384 -0.17376769 0.086650126
v -0.40214384 -0.17376769 0.086650126
v -0.19454032 -0.12329366 0.086650126
v -0.21040267 -0.0006869215 0.086650126
v -0.42343867 0.03474981 0.086650126
v -0.42343867 0.03474981 0.086650126
v -0.13483016 -0.22143383 0.086650126
v -0.19432163 0.12126269 0.086650126
v -0.39001977 0.20414236 0.086650126
v -0.30891865 -0.34509787 0.086650126
v -0.30891865 -0.34509787 0.086650126
v -0.13483016 -0.22143383 0.086650126
v -0.14259557 -0.45222637 0.086650126
v -0.0725724 -0.2574836 0.086650126
v -0.14259557 -0.45222637 0.086650126
v -0.39001977 0.20414236 0.086650126
v -0.19432163 0.12126269 0.086650126
v 0.03950282 -0.26454115 0.086650126
v 0.028882695 -0.46817708 0.086650126
v 0.028882695 -0.46817708 0.086650126
v 0.03950282 -0.26454115 0.086650126
v 0.18787841 -0.426598 0.086650126
v 0.15321206 -0.19353572 0.086650126
v 0.18787841 -0.426598 0.086650126
v -0.110471696 0.2423675 0.086650126
v 0.15321206 -0.19353572 0.086650126
v -0.31573132 0.3359258 0.086650126
v -0.31573132 0.3359258 0.086650126
v -0.20523472 0.42251155 0.086650126
v -0.20523472 0.42251155 0.086650126
v -0.110471696 0.2423675 0.086650126
v -0.06547326 0.46700558 0.086650126
v 0.3124266 -0.3327627 0.086650126
v 0.3124266 -0.3327627 0.086650126
v 0.030744107 0.2688189 0.086650126
v -0.06547326 0.46700558 0.086650126
v 0.10323698 0.45595825 0.086650126
v 0.030744107 0.2688189 0.086650126
v 0.19183882 0.42469633 0.086650126
v 0.15914412 0.19415285 0.086650126
v 0.19183882 0.42469633 0.086650126
v 0.40093768 -0.17495775 0.086650126
v 0.15321206 -0.19353572 0.086650126
v 0.15914412 0.19415285 0.086650126
v 0.21396376 -0.004324979 0.086650126
v 0.40093768 -0.17495775 0.086650126
v 0.28279 0.36264694 0.086650126
v 0.35211727 0.28474197 0.086650126
v 0.21396376 -0.004324979 0.086650126
v 0.423724 -0.0006869215 0.086650126
v 0.4083429 0.14123173 0.086650126
v 0.35211727 0.28474197 0.086650126
v 0.15914412 0.19415285 0.086650126
v 0.21396376 -0.004324979 0.086650126
v 0.4083429 0.14123173 0.086650126
vt 0.4818921 0.8905184
vt 0.4968438 0.8917737
vt 0.4818921 0.8966005
vt 0.4968438 0.89775944
vt 0.4818921 0.89775944
vt 0.49684912 0.90087736
vt 0.4818921 0.90663934
vt 0.4968438 0.9095346
vt 0.4818921 0.9095346
vt 0.49686202 0.912132
vt 0.4818921 0.91360766
vt 0.4974668 0.9583479
vt 0.4825151 0.96088004
vt 0.4825151 0.95199645
vt 0.4974668 0.94942915
vt 0.4825222 0.9493401
vt 0.4974668 0.93813
vt 0.4825151 0.93813
vt 0.4974668 0.9300316
vt 0.4825102 0.9350131
vt 0.4974668 0.9284084
vt 0.4825151 0.9284084
vt 0.49711204 0.97721124
vt 0.48216033 0.9720442
vt 0.48216033 0.97721124
vt 0.49710047 0.96753585
vt 0.48216033 0.9703524
vt 0.49711207 0.9639853
vt 0.48216033 0.9606855
vt 0.49711204 0.9606855
vt 0.49711618 0.94904816
vt 0.48216033 0.95806456
vt 0.49711204 0.9458641
vt 0.48216033 0.9458641
vt 0.48216033 0.9366064
vt 0.497112 0.93458426
vt 0.49711204 0.9315543
vt 0.4821667 0.93348515
vt 0.49711204 0.92599535
vt 0.48216036 0.92751783
vt 0.49711204 0.9202052
vt 0.48216033 0.9202052
vt 0.49711204 0.9148756
vt 0.4818921 0.928988
vt 0.4968438 0.9308358
vt 0.4818921 0.93695045
vt 0.4968308 0.93302464
vt 0.4818921 0.93977666
vt 0.4968438 0.9444792
vt 0.4818921 0.9444792
vt 0.4968438 0.948758
vt 0.4818878 0.95898116
vt 0.4968438 0.9632895
vt 0.4818921 0.9632895
vt 0.4968438 0.96487844
vt 0.4818921 0.9709945
vt 0.4968346 0.96703506
vt 0.4818921 0.97299933
vt 0.4968438 0.978279
vt 0.4818921 0.978279
vt 0.49711204 0.9659388
vt 0.48216033 0.96518606
vt 0.49711204 0.9603137
vt 0.48216033 0.95914876
vt 0.49711204 0.95914876
vt 0.48215637 0.9562516
vt 0.49711204 0.9497806
vt 0.49711204 0.9458641
vt 0.48216033 0.9458641
vt 0.49711204 0.93631715
vt 0.48216033 0.93893087
vt 0.49711204 0.9335084
vt 0.48216033 0.9335084
vt 0.49711204 0.92902076
vt 0.48216033 0.92902076
vt 0.49747214 0.9738914
vt 0.4825151 0.9712434
vt 0.4825151 0.9764105
vt 0.4974668 0.9712434
vt 0.4825151 0.9685187
vt 0.4974668 0.9654483
vt 0.4974668 0.95988464
vt 0.4825151 0.95988464
vt 0.4825151 0.9572818
vt 0.4974668 0.94809544
vt 0.4825151 0.94506323
vt 0.4974668 0.94506323
vt 0.4974668 0.933352
vt 0.48251167 0.9418772
vt 0.49745986 0.9282779
vt 0.4825151 0.9302419
vt 0.4974668 0.9246782
vt 0.4825151 0.92650414
vt 0.4974668 0.9162049
vt 0.4825151 0.9188831
vt 0.4818921 0.94379914
vt 0.4968438 0.94221497
vt 0.48189208 0.9500609
vt 0.4968438 0.94771075
vt 0.4818921 0.95388436
vt 0.4968438 0.95388436
vt 0.4818921 0.9596473
vt 0.4968438 0.95746684
vt 0.4818921 0.9648105
vt 0.4968438 0.9635589
vt 0.4818921 0.9668212
vt 0.4968438 0.96682113
vt 0.4818921 0.8838216
vt 0.4968438 0.8790368
vt 0.4968438 0.8838216
vt 0.4818921 0.88982534
vt 0.4968438 0.8873602
vt 0.4818921 0.8956857
vt 0.4968438 0.8956857
vt 0.4818921 0.90393305
vt 0.4968438 0.90098065
vt 0.4818921 0.9161077
vt 0.4968438 0.9124217
vt 0.4968438 0.91804075
vt 0.4818921 0.923048
vt 0.4968438 0.923048
vt 0.4818921 0.92783284
vt 0.39760593 0.94225925
vt 0.3802041 0.9551705
vt 0.37860844 0.94900453
vt 0.3778613 0.9429183
vt 0.3991764 0.94927466
vt 0.39757547 0.9347595
vt 0.37784865 0.93290675
vt 0.3797252 0.9230725
vt 0.401199 0.95331264
vt 0.39891443 0.9273883
vt 0.38159254 0.91723186
vt 0.3831173 0.96171033
vt 0.38719532 0.9676806
vt 0.39245752 0.97243804
vt 0.40410796 0.95707995
vt 0.3975655 0.9757007
vt 0.40825686 0.95979846
vt 0.40245286 0.97780395
vt 0.38430843 0.9114709
vt 0.4011385 0.92173386
vt 0.4141486 0.9615576
vt 0.41242555 0.97990334
vt 0.42261335 0.97971207
vt 0.4208854 0.9609057
vt 0.427807 0.97855425
vt 0.42528751 0.95906913
vt 0.43454316 0.97595465
vt 0.40432784 0.91718084
vt 0.42914096 0.9563723
vt 0.3909861 0.90275204
vt 0.39403722 0.9005312
vt 0.39952216 0.8972192
vt 0.40814975 0.9140457
vt 0.40519014 0.89451927
vt 0.4125519 0.9122092
vt 0.41139594 0.8931371
vt 0.44002807 0.97264266
vt 0.44567692 0.96758604
vt 0.41881242 0.9119009
vt 0.42055967 0.8932973
vt 0.43332657 0.8964238
vt 0.4253184 0.9137062
vt 0.4354178 0.89752066
vt 0.42928514 0.91650546
vt 0.4415474 0.90137875
vt 0.44975686 0.96170294
vt 0.43227276 0.95238316
vt 0.43248168 0.9200288
vt 0.43512174 0.9457828
vt 0.4524728 0.955942
vt 0.4543401 0.95010126
vt 0.44630337 0.905828
vt 0.45258746 0.915031
vt 0.4363719 0.93840325
vt 0.4562167 0.9402671
vt 0.45620406 0.93025553
vt 0.45380926 0.9185568
vt 0.4344161 0.9238547
vt 0.43634048 0.93090343
vt 0.45540535 0.92471766
vt 0.39785475 0.9473318
vt 0.3802137 0.95652556
vt 0.37769213 0.9443089
vt 0.39855692 0.9493071
vt 0.397285 0.9358629
vt 0.37753323 0.9342985
vt 0.37926593 0.924438
vt 0.4009165 0.9543404
vt 0.3986037 0.92847997
vt 0.38215616 0.91558015
vt 0.38322213 0.9630222
vt 0.39275232 0.97317934
vt 0.40414283 0.95808566
vt 0.39787206 0.9768131
vt 0.40816393 0.96065116
vt 0.40025216 0.9781693
vt 0.38367918 0.9127706
vt 0.40135625 0.9218387
vt 0.41427836 0.96203065
vt 0.41280308 0.9806578
vt 0.42173436 0.98034656
vt 0.42099783 0.96137005
vt 0.42816588 0.9790502
vt 0.42538658 0.959294
vt 0.43486723 0.9763028
vt 0.40404257 0.91820836
vt 0.42914096 0.9563723
vt 0.3876728 0.9068286
vt 0.39271602 0.9016479
vt 0.39871737 0.8978654
vt 0.40431002 0.895529
vt 0.41210994 0.9130317
vt 0.4094861 0.89429677
vt 0.44031703 0.97273695
vt 0.4459052 0.9674239
vt 0.41821632 0.9123111
vt 0.41967115 0.8939422
vt 0.4296746 0.8958811
vt 0.42474088 0.9141109
vt 0.4345921 0.8979142
vt 0.428762 0.9166765
vt 0.44078135 0.90163255
vt 0.44989836 0.9614872
vt 0.431704 0.9529357
vt 0.43209472 0.9199953
vt 0.4348109 0.94632256
vt 0.45426774 0.9503739
vt 0.44561565 0.90583766
vt 0.45031154 0.9117898
vt 0.43613055 0.9389396
vt 0.45600045 0.9405134
vt 0.45584154 0.930503
vt 0.45332003 0.9182863
vt 0.43449453 0.92446333
vt 0.43616697 0.931455
vt 0.45500553 0.92442834
vn -0.7523162 -0.6588023 0
vn -0.6857186 -0.72786677 0
vn -0.4035795 -0.9149446 0
vn -0.33301795 -0.94292045 0
vn -0.333018 -0.94292045 0
vn -0.16564332 -0.9861857 0
vn 0.16579533 -0.98616016 0
vn 0.3348586 -0.9422684 0
vn 0.33485863 -0.9422684 0
vn 0.51453096 -0.85747176 0
vn 0.60757715 -0.7942607 0
vn -0.9035213 -0.42854318 0
vn -0.81402326 -0.5808323 0
vn -0.98124045 -0.19278778 0
vn -0.993061 -0.11760033 0
vn -0.9933695 -0.11496534 0
vn -0.97389346 0.2270055 0
vn -0.97389346 0.22700553 0
vn -0.83488256 0.5504281 0
vn -0.9418138 0.33613488 0
vn -0.7673429 0.64123696 0
vn -0.767343 0.64123696 0
vn 0.6671165 0.7449534 0
vn 0.8081096 0.58903223 0
vn 0.6671165 0.7449534 0
vn 0.8851086 0.4653845 0
vn 0.8410541 0.5409511 0
vn 0.9325394 0.36106825 0
vn 0.9606848 0.27764174 0
vn 0.9606848 0.2776417 0
vn 0.9985755 0.053357527 0
vn 0.97546035 0.22017504 0
vn 1 0 0
vn 1 0 0
vn 0.98627126 -0.165133 0
vn 0.97668606 -0.21467246 0
vn 0.95766586 -0.28788218 0
vn 0.97042 -0.24142292 0
vn 0.9089192 -0.41697234 0
vn 0.9240209 -0.3823419 0
vn 0.81252 -0.5829332 0
vn 0.81252 -0.5829332 0
vn 0.6807758 -0.7324918 0
vn 0.6671165 0.7449534 0
vn 0.6135276 0.7896733 0
vn 0.44725788 0.89440507 0
vn 0.55966705 0.8287176 0
vn 0.3778504 0.9258666 0
vn 0.21110162 0.97746414 0
vn 0.21110162 0.97746414 0
vn 0.11539033 0.9933202 0
vn -0.11568519 0.99328595 0
vn -0.2116763 0.9773398 0
vn -0.2116763 0.9773398 0
vn -0.27077052 0.9626439 0
vn -0.47268045 0.8812339 0
vn -0.3421809 0.9396341 0
vn -0.5295701 0.8482661 0
vn -0.68866926 0.7250756 0
vn -0.6886693 0.72507554 0
vn 0.60757715 -0.7942607 0
vn 0.6548819 -0.7557313 0
vn 0.87401843 -0.4858927 0
vn 0.906473 -0.42226374 0
vn 0.906473 -0.4222638 0
vn 0.9457157 -0.32499498 0
vn 0.9929479 -0.1185518 0
vn 0.99998295 -0.0058348347 0
vn 0.99998295 -0.0058348365 0
vn 0.9589504 0.28357387 0
vn 0.983198 0.18254231 0
vn 0.921351 0.38873178 0
vn 0.921351 0.38873172 0
vn 0.79379284 0.6081883 0
vn 0.7937927 0.60818833 0
vn -0.7586326 0.65151864 0
vn -0.8237439 0.5669621 0
vn -0.68866926 0.7250756 0
vn -0.8237439 0.5669621 0
vn -0.86708385 0.49816215 0
vn -0.9090505 0.4166861 0
vn -0.9606848 0.27764174 0
vn -0.9606848 0.2776417 0
vn -0.9753698 0.22057591 0
vn -0.9987081 0.050813667 0
vn -1 0 0
vn -1 0 0
vn -0.97784245 -0.20934229 0
vn -0.99857366 -0.05339183 0
vn -0.9448345 -0.3275483 0
vn -0.9606848 -0.2776417 0
vn -0.9090506 -0.41668564 0
vn -0.9282504 -0.37195587 0
vn -0.73911804 -0.67357594 0
vn -0.80810946 -0.5890323 0
vn -0.58964235 0.8076645 0
vn -0.680997 0.7322862 0
vn -0.22112475 0.9752455 0
vn -0.34192124 0.9397286 0
vn -0.017088082 0.99985397 0
vn -0.017088087 0.99985397 0
vn 0.31064156 0.95052713 0
vn 0.18910094 0.9819576 0
vn 0.6763851 0.7365481 0
vn 0.59298533 0.8052133 0
vn 0.7937927 0.60818833 0
vn 0.79379284 0.6081883 0
vn 0.5339611 -0.84550905 0
vn 0.6807758 -0.7324918 0
vn 0.5339611 -0.84550905 0
vn 0.3644359 -0.9312285 0
vn 0.43594998 -0.8999709 0
vn 0.19465247 -0.9808723 0
vn 0.19465247 -0.9808723 0
vn 0.018851563 -0.9998223 0
vn 0.08208066 -0.99662566 0
vn -0.335229 -0.94213665 0
vn -0.19325675 -0.9811482 0
vn -0.41277272 -0.9108341 0
vn -0.55431026 -0.8323101 0
vn -0.55431026 -0.8323101 0
vn -0.667116 -0.74495393 0
vn -0 0 -1
vn -0 0 -1
vn -0 0 -1
vn -0 0 -1
vn -0 0 -1
vn -0 0 -1
vn -0 0 -1
vn -0 0 -1
vn -0 0 -1
vn -0 0 -1
vn -0 0 -1
vn -0 0 -1
vn -0 0 -1
vn -0 0 -1
vn -0 0 -1
vn -0 0 -1
vn -0 0 -1
vn -0 0 -1
vn -0 0 -1
vn -0 0 -1
vn -0 0 -1
vn -0 0 -1
vn -0 0 -1
vn -0 0 -1
vn -0 0 -1
vn -0 0 -1
vn -0 0 -1
vn -0 0 -1
vn -0 0 -1
vn -0 0 -1
vn -0 0 -1
vn -0 0 -1
vn -0 0 -1
vn -0 0 -1
vn -0 0 -1
vn -0 0 -1
vn -0 0 -1
vn -0 0 -1
vn -0 0 -1
vn -0 0 -1
vn -0 0 -1
vn -0 0 -1
vn -0 0 -1
vn -0 0 -1
vn -0 0 -1
vn -0 0 -1
vn -0 0 -1
vn -0 0 -1
vn -0 0 -1
vn -0 0 -1
vn -0 0 -1
vn -0 0 -1
vn -0 0 -1
vn -0 0 -1
vn -0 0 -1
vn -0 0 -1
vn -0 0 -1
vn -0 0 -1
vn -0 0 -1
vn -0 0 -1
vn -0 0 1
vn -0 0 1
vn -0 0 1
vn -0 0 1
vn -0 0 1
vn -0 0 1
vn -0 0 1
vn -0 0 1
vn -0 0 1
vn -0 0 1
vn -0 0 1
vn -0 0 1
vn -0 0 1
vn -0 0 1
vn -0 0 1
vn -0 0 1
vn -0 0 1
vn -0 0 1
vn -0 0 1
vn -0 0 1
vn -0 0 1
vn -0 0 1
vn -0 0 1
vn -0 0 1
vn -0 0 1
vn -0 0 1
vn -0 0 1
vn -0 0 1
vn -0 0 1
vn -0 0 1
vn -0 0 1
vn -0 0 1
vn -0 0 1
vn -0 0 1
vn -0 0 1
vn -0 0 1
vn -0 0 1
vn -0 0 1
vn -0 0 1
vn -0 0 1
vn -0 0 1
vn -0 0 1
vn -0 0 1
vn -0 0 1
vn -0 0 1
vn -0 0 1
vn -0 0 1
vn -0 0 1
vn -0 0 1
vn -0 0 1
vn -0 0 1
vn -0 0 1
vn -0 0 1
vn -0 0 1
vn -0 0 1
vn -0 0 1
g textO_collision_0
f 3/3/3 1/1/1 2/2/2
f 2/2/2 4/4/4 3/3/3
f 7/7/7 5/5/5 6/6/6
f 6/6/6 8/8/8 7/7/7
f 11/11/11 9/9/9 10/10/10
f 13/13/13 14/14/14 12/12/12
f 15/15/15 12/12/12 14/14/14
f 18/18/18 17/17/17 16/16/16
f 17/17/17 18/18/18 19/19/19
f 22/22/22 21/21/21 20/20/20
f 25/25/25 24/24/24 23/23/23
f 26/26/26 23/23/23 24/24/24
f 27/27/27 29/29/29 28/28/28
f 30/30/30 29/29/29 31/31/31
f 34/34/34 33/33/33 32/32/32
f 34/34/34 35/35/35 33/33/33
f 36/36/36 33/33/33 35/35/35
f 37/37/37 38/38/38 39/39/39
f 42/42/42 41/41/41 40/40/40
f 41/41/41 42/42/42 43/43/43
f 46/46/46 44/44/44 45/45/45
f 47/47/47 49/49/49 48/48/48
f 50/50/50 48/48/48 49/49/49
f 52/52/52 50/50/50 51/51/51
f 51/51/51 53/53/53 52/52/52
f 56/56/56 54/54/54 55/55/55
f 57/57/57 59/59/59 58/58/58
f 60/60/60 58/58/58 59/59/59
f 63/63/63 61/61/61 62/62/62
f 62/62/62 64/64/64 63/63/63
f 67/67/67 65/65/65 66/66/66
f 69/69/69 68/68/68 66/66/66
f 68/68/68 69/69/69 70/70/70
f 71/71/71 70/70/70 69/69/69
f 72/72/72 73/73/73 74/74/74
f 75/75/75 74/74/74 73/73/73
f 78/78/78 77/77/77 76/76/76
f 81/81/81 79/79/79 80/80/80
f 83/83/83 82/82/82 80/80/80
f 85/85/85 82/82/82 84/84/84
f 84/84/84 86/86/86 85/85/85
f 87/87/87 86/86/86 88/88/88
f 91/91/91 90/90/90 89/89/89
f 92/92/92 93/93/93 94/94/94
f 95/95/95 94/94/94 93/93/93
f 96/96/96 97/97/97 98/98/98
f 99/99/99 98/98/98 97/97/97
f 101/101/101 100/100/100 99/99/99
f 100/100/100 101/101/101 102/102/102
f 102/102/102 103/103/103 104/104/104
f 105/105/105 104/104/104 103/103/103
f 107/107/107 106/106/106 105/105/105
f 110/110/110 108/108/108 109/109/109
f 108/108/108 110/110/110 111/111/111
f 114/114/114 113/113/113 112/112/112
f 113/113/113 114/114/114 115/115/115
f 115/115/115 116/116/116 117/117/117
f 118/118/118 117/117/117 116/116/116
f 121/121/121 120/120/120 119/119/119
f 120/120/120 121/121/121 122/122/122
f 125/125/125 124/124/124 123/123/123
f 127/127/127 123/123/123 124/124/124
f 129/129/129 126/126/126 128/128/128
f 132/132/132 130/130/130 128/128/128
f 133/133/133 130/130/130 132/132/132
f 134/134/134 135/135/135 131/131/131
f 135/135/135 136/136/136 131/131/131
f 131/131/131 136/136/136 137/137/137
f 137/137/137 138/138/138 139/139/139
f 144/144/144 143/143/143 140/140/140
f 146/146/146 143/143/143 145/145/145
f 145/145/145 147/147/147 146/146/146
f 142/142/142 150/150/150 141/141/141
f 151/151/151 148/148/148 149/149/149
f 152/152/152 141/141/141 150/150/150
f 154/154/154 153/153/153 150/150/150
f 150/150/150 155/155/155 154/154/154
f 155/155/155 157/157/157 156/156/156
f 159/159/159 160/160/160 151/151/151
f 162/162/162 158/158/158 161/161/161
f 162/162/162 161/161/161 163/163/163
f 164/164/164 163/163/163 161/161/161
f 166/166/166 165/165/165 164/164/164
f 165/165/165 166/166/166 167/167/167
f 169/169/169 168/168/168 171/171/171
f 172/172/172 173/173/173 171/171/171
f 175/175/175 174/174/174 170/170/170
f 177/177/177 178/178/178 176/176/176
f 180/180/180 179/179/179 170/170/170
f 181/181/181 176/176/176 178/178/178
f 182/182/182 179/179/179 181/181/181
f 183/183/183 187/187/187 185/185/185
f 188/188/188 185/185/185 187/187/187
f 186/186/186 184/184/184 190/190/190
f 191/191/191 189/189/189 187/187/187
f 192/192/192 189/189/189 191/191/191
f 193/193/193 190/190/190 184/184/184
f 196/196/196 195/195/195 194/194/194
f 195/195/195 196/196/196 197/197/197
f 197/197/197 198/198/198 201/201/201
f 202/202/202 201/201/201 198/198/198
f 203/203/203 205/205/205 204/204/204
f 206/206/206 204/204/204 205/205/205
f 200/200/200 208/208/208 199/199/199
f 210/210/210 199/199/199 208/208/208
f 212/212/212 211/211/211 208/208/208
f 215/215/215 213/213/213 214/214/214
f 207/207/207 216/216/216 209/209/209
f 214/214/214 218/218/218 215/215/215
f 219/219/219 218/218/218 220/220/220
f 220/220/220 221/221/221 222/222/222
f 223/223/223 222/222/222 221/221/221
f 217/217/217 225/225/225 209/209/209
f 226/226/226 225/225/225 228/228/228
f 230/230/230 224/224/224 227/227/227
f 231/231/231 230/230/230 227/227/227
f 233/233/233 232/232/232 229/229/229
f 233/233/233 234/234/234 232/232/232
f 236/236/236 237/237/237 235/235/235
f 238/238/238 235/235/235 237/237/237
