g waffle_col
v 0.43243456 0.41673452 -0.028101113
v 0.4026364 0.4290772 0.028100938
v 0.4026364 0.4290772 -0.028101116
v 0.43243456 0.41673452 0.028100941
v 0.44477737 0.3869363 -0.028101105
v 0.44477737 0.3869363 0.028100919
v 0.44477737 -0.38693625 -0.028100923
v 0.44477737 -0.38693625 0.028101103
v 0.43243456 -0.41673434 -0.028100912
v 0.43243456 -0.4167344 0.028101109
v 0.4026364 -0.42907715 -0.028100912
v 0.4026364 -0.4290772 0.028101113
v -0.40263647 -0.42907715 -0.028100912
v -0.40263647 -0.4290772 0.028101113
v 0.43243456 -0.3869362 0.05789928
v 0.44477737 0.3869363 0.028100919
v 0.44477737 -0.38693625 0.028101103
v 0.43243456 -0.4167344 0.028101109
v 0.43243456 0.38693637 0.057899095
v 0.43243456 0.41673452 0.028100941
v 0.42695796 -0.4112578 0.052422695
v 0.4026364 -0.41673434 0.05789929
v 0.4026364 -0.4290772 0.028101113
v 0.4026364 -0.38693625 0.07024209
v -0.40263647 -0.41673434 0.05789929
v -0.40263647 -0.4290772 0.028101113
v -0.40263647 -0.38693625 0.07024209
v 0.4026364 0.38693637 0.07024191
v 0.42695796 0.4112578 0.0524225
v 0.4026364 0.41673452 0.05789909
v 0.4026364 0.4290772 0.028100938
v -0.40263647 0.4290772 0.028100938
v 0.4026364 0.4290772 -0.028101116
v -0.40263647 0.41673452 0.05789909
v -0.40263647 0.38693637 0.07024191
v -0.43243462 -0.3869362 0.05789928
v -0.43243462 0.38693637 0.057899095
v -0.43243462 0.41673452 0.028100941
v -0.42695802 0.4112578 0.0524225
v -0.40263647 0.4290772 -0.028101116
v -0.42695802 -0.4112578 0.052422695
v -0.43243462 -0.4167344 0.028101109
v -0.44477737 -0.38693625 0.028101103
v -0.44477737 0.3869363 0.028100919
v -0.43243462 0.41673452 -0.028101113
v -0.40263647 0.41673452 -0.057899285
v -0.43243462 -0.41673434 -0.028100912
v -0.40263647 -0.42907715 -0.028100912
v -0.44477737 -0.38693625 -0.028100923
v -0.44477737 0.3869363 -0.028101105
v -0.43243462 -0.38693625 -0.05789913
v -0.43243462 0.3869363 -0.057899278
v -0.42695802 0.41125786 -0.052422725
v 0.4026364 0.41673452 -0.057899285
v 0.43243456 0.41673452 -0.028101113
v -0.40263647 0.3869363 -0.07024209
v -0.40263647 -0.38693625 -0.07024188
v -0.42695802 -0.41125786 -0.052422535
v -0.40263647 -0.4167344 -0.05789912
v 0.4026364 -0.38693625 -0.07024188
v 0.4026364 -0.4167344 -0.05789912
v 0.4026364 -0.42907715 -0.028100912
v 0.43243456 -0.41673434 -0.028100912
v 0.4026364 0.3869363 -0.07024209
v 0.43243456 -0.38693625 -0.05789913
v 0.42695796 -0.41125786 -0.052422535
v 0.44477737 -0.38693625 -0.028100923
v 0.43243456 0.3869363 -0.057899278
v 0.44477737 0.3869363 -0.028101105
v 0.42695796 0.41125786 -0.052422725
vt 0.9393536 0.06112744
vt 0.09611213 0.49183154
vt 0.92486304 0.05136487
vt 0.08034879 0.5025383
vt 0.9492406 0.07550533
vt 0.06960392 0.51829696
vt 0.95034474 0.42552197
vt 0.06856182 0.9002694
vt 0.94058394 0.44001985
vt 0.07925883 0.91602325
vt 0.9261975 0.44991574
vt 0.09500922 0.92676973
vt 0.56233084 0.45104146
vt 0.4920959 0.92789304
vt 0.08378041 0.8973726
vt 0.06960392 0.51829696
vt 0.06856182 0.9002694
vt 0.07925883 0.91602325
vt 0.0846141 0.5213255
vt 0.08034879 0.5025383
vt 0.08668873 0.9086996
vt 0.09803343 0.9117447
vt 0.09500922 0.92676973
vt 0.09905483 0.89649725
vt 0.4892314 0.9126624
vt 0.4920959 0.92789304
vt 0.48837596 0.8973729
vt 0.09984642 0.5223497
vt 0.08766383 0.5099722
vt 0.09898764 0.50706065
vt 0.09611213 0.49183154
vt 0.49319947 0.49294335
vt 0.92486304 0.05136487
vt 0.49017832 0.5079688
vt 0.48915926 0.52321684
vt 0.50360745 0.8983934
vt 0.504433 0.52233934
vt 0.5089513 0.50368744
vt 0.5015229 0.5110124
vt 0.5609894 0.052489758
vt 0.5005577 0.90975076
vt 0.50787586 0.9171786
vt 0.5186182 0.90141594
vt 0.5196507 0.5194402
vt 0.5466031 0.06238629
vt 0.56370676 0.06642884
vt 0.5478389 0.44128066
vt 0.56233084 0.45104146
vt 0.5379502 0.42690304
vt 0.53684276 0.076884955
vt 0.5518793 0.42416543
vt 0.55061364 0.079578444
vt 0.5533463 0.069158524
vt 0.9221735 0.065148816
vt 0.9393536 0.06112744
vt 0.564577 0.080433965
vt 0.5658705 0.42327988
vt 0.5546066 0.43452913
vt 0.5650185 0.4372572
vt 0.922611 0.42197162
vt 0.9234805 0.43597656
vt 0.9261975 0.44991574
vt 0.94058394 0.44001985
vt 0.92131996 0.079126105
vt 0.93657416 0.42282778
vt 0.933841 0.43324745
vt 0.95034474 0.42552197
vt 0.9353113 0.07824172
vt 0.9492406 0.07550533
vt 0.9325851 0.06787805
vn 0.69762105 0.6976226 -0.1632413
vn 0.011943981 0.97827643 0.2069601
vn 0.0119439345 0.9782763 -0.20696081
vn 0.69762105 0.6976226 0.16324134
vn 0.9782828 0.012413085 -0.20690209
vn 0.9782828 0.012413144 0.20690209
vn 0.9782828 -0.012413134 -0.20690213
vn 0.9782829 -0.012413109 0.20690201
vn 0.6976219 -0.6976217 -0.16324092
vn 0.69762176 -0.69762164 0.16324171
vn 0.011944013 -0.9782761 -0.20696172
vn 0.011944009 -0.9782759 0.20696315
vn -0.011944011 -0.9782761 -0.20696175
vn -0.011944011 -0.9782758 0.20696317
vn 0.707069 -0.010367895 0.7070685
vn 0.9782828 0.012413144 0.20690209
vn 0.9782829 -0.012413109 0.20690201
vn 0.69762176 -0.69762164 0.16324171
vn 0.707069 0.010368204 0.70706856
vn 0.69762105 0.6976226 0.16324134
vn 0.5773505 -0.5773502 0.5773502
vn 0.00997445 -0.70707184 0.70707124
vn 0.011944009 -0.9782759 0.20696315
vn 0.014592896 -0.015170224 0.99977845
vn -0.009974445 -0.70707196 0.7070713
vn -0.011944011 -0.9782758 0.20696317
vn -0.014592895 -0.015170222 0.99977845
vn 0.014592903 0.01517069 0.99977845
vn 0.57735074 0.5773498 0.5773502
vn 0.009974458 0.70707285 0.70707035
vn 0.011943981 0.97827643 0.2069601
vn -0.011943976 0.97827643 0.20696013
vn 0.0119439345 0.9782763 -0.20696081
vn -0.009974455 0.7070728 0.70707035
vn -0.014592903 0.015170692 0.99977845
vn -0.7070695 -0.010367842 0.70706797
vn -0.7070694 0.010368191 0.707068
vn -0.69762164 0.697622 0.1632413
vn -0.57735103 0.5773496 0.57735014
vn -0.011943934 0.9782763 -0.20696081
vn -0.57735085 -0.5773502 0.5773499
vn -0.6976224 -0.69762117 0.16324155
vn -0.97828305 -0.012413028 0.20690106
vn -0.97828305 0.012413069 0.20690118
vn -0.6976214 0.69762224 -0.16324113
vn -0.009974429 0.70707256 -0.7070707
vn -0.6976222 -0.69762146 -0.1632408
vn -0.011944011 -0.9782761 -0.20696175
vn -0.97828305 -0.012413089 -0.20690124
vn -0.97828305 0.012413017 -0.20690113
vn -0.7070694 -0.010368199 -0.70706815
vn -0.70706934 0.01036787 -0.70706815
vn -0.57735074 0.57734966 -0.5773503
vn 0.009974432 0.70707256 -0.70707065
vn 0.69762105 0.6976226 -0.1632413
vn -0.014592863 0.015170201 -0.99977845
vn -0.014592878 -0.015170653 -0.99977845
vn -0.57735044 -0.57735085 -0.57734966
vn -0.009974433 -0.70707184 -0.7070713
vn 0.014592878 -0.015170653 -0.99977845
vn 0.009974431 -0.70707184 -0.7070713
vn 0.011944013 -0.9782761 -0.20696172
vn 0.6976219 -0.6976217 -0.16324092
vn 0.014592863 0.015170201 -0.99977845
vn 0.7070689 -0.010368222 -0.7070686
vn 0.57735026 -0.57735074 -0.5773497
vn 0.9782828 -0.012413134 -0.20690213
vn 0.7070689 0.010367873 -0.7070686
vn 0.9782828 0.012413085 -0.20690209
vn 0.57735056 0.57734984 -0.5773505
g waffle_col_0
f 3/3/3 2/2/2 1/1/1
f 2/2/2 4/4/4 1/1/1
f 1/1/1 4/4/4 5/5/5
f 4/4/4 6/6/6 5/5/5
f 5/5/5 6/6/6 7/7/7
f 6/6/6 8/8/8 7/7/7
f 7/7/7 8/8/8 9/9/9
f 8/8/8 10/10/10 9/9/9
f 9/9/9 10/10/10 11/11/11
f 10/10/10 12/12/12 11/11/11
f 11/11/11 12/12/12 13/13/13
f 12/12/12 14/14/14 13/13/13
f 17/17/17 16/16/16 15/15/15
f 17/17/17 15/15/15 18/18/18
f 16/16/16 19/19/19 15/15/15
f 16/16/16 20/20/20 19/19/19
f 15/15/15 21/21/21 18/18/18
f 18/18/18 21/21/21 22/22/22
f 22/22/22 21/21/21 15/15/15
f 23/23/23 18/18/18 22/22/22
f 15/15/15 19/19/19 24/24/24
f 24/24/24 22/22/22 15/15/15
f 23/23/23 22/22/22 25/25/25
f 26/26/26 23/23/23 25/25/25
f 22/22/22 24/24/24 27/27/27
f 25/25/25 22/22/22 27/27/27
f 19/19/19 28/28/28 24/24/24
f 24/24/24 28/28/28 27/27/27
f 20/20/20 29/29/29 19/19/19
f 19/19/19 29/29/29 30/30/30
f 30/30/30 29/29/29 20/20/20
f 28/28/28 19/19/19 30/30/30
f 31/31/31 30/30/30 20/20/20
f 30/30/30 31/31/31 32/32/32
f 32/32/32 31/31/31 33/33/33
f 28/28/28 30/30/30 34/34/34
f 34/34/34 30/30/30 32/32/32
f 28/28/28 35/35/35 27/27/27
f 35/35/35 28/28/28 34/34/34
f 27/27/27 35/35/35 36/36/36
f 27/27/27 36/36/36 25/25/25
f 35/35/35 34/34/34 37/37/37
f 35/35/35 37/37/37 36/36/36
f 32/32/32 38/38/38 34/34/34
f 34/34/34 39/39/39 37/37/37
f 38/38/38 39/39/39 34/34/34
f 37/37/37 39/39/39 38/38/38
f 40/40/40 32/32/32 33/33/33
f 38/38/38 32/32/32 40/40/40
f 36/36/36 41/41/41 25/25/25
f 25/25/25 41/41/41 42/42/42
f 42/42/42 41/41/41 36/36/36
f 26/26/26 25/25/25 42/42/42
f 36/36/36 37/37/37 43/43/43
f 43/43/43 42/42/42 36/36/36
f 44/44/44 37/37/37 38/38/38
f 37/37/37 44/44/44 43/43/43
f 45/45/45 38/38/38 40/40/40
f 44/44/44 38/38/38 45/45/45
f 40/40/40 33/33/33 46/46/46
f 40/40/40 46/46/46 45/45/45
f 26/26/26 42/42/42 47/47/47
f 48/48/48 26/26/26 47/47/47
f 42/42/42 43/43/43 49/49/49
f 47/47/47 42/42/42 49/49/49
f 43/43/43 44/44/44 50/50/50
f 49/49/49 43/43/43 50/50/50
f 50/50/50 44/44/44 45/45/45
f 49/49/49 50/50/50 51/51/51
f 49/49/49 51/51/51 47/47/47
f 50/50/50 45/45/45 52/52/52
f 50/50/50 52/52/52 51/51/51
f 46/46/46 53/53/53 45/45/45
f 45/45/45 53/53/53 52/52/52
f 52/52/52 53/53/53 46/46/46
f 33/33/33 54/54/54 46/46/46
f 33/33/33 55/55/55 54/54/54
f 56/56/56 52/52/52 46/46/46
f 46/46/46 54/54/54 56/56/56
f 51/51/51 52/52/52 57/57/57
f 52/52/52 56/56/56 57/57/57
f 51/51/51 58/58/58 47/47/47
f 47/47/47 58/58/58 59/59/59
f 59/59/59 58/58/58 51/51/51
f 57/57/57 59/59/59 51/51/51
f 48/48/48 47/47/47 59/59/59
f 60/60/60 57/57/57 56/56/56
f 57/57/57 60/60/60 59/59/59
f 59/59/59 61/61/61 48/48/48
f 60/60/60 61/61/61 59/59/59
f 61/61/61 62/62/62 48/48/48
f 62/62/62 61/61/61 63/63/63
f 64/64/64 60/60/60 56/56/56
f 54/54/54 64/64/64 56/56/56
f 60/60/60 65/65/65 61/61/61
f 60/60/60 64/64/64 65/65/65
f 61/61/61 66/66/66 63/63/63
f 65/65/65 66/66/66 61/61/61
f 63/63/63 66/66/66 65/65/65
f 67/67/67 63/63/63 65/65/65
f 64/64/64 68/68/68 65/65/65
f 65/65/65 68/68/68 67/67/67
f 64/64/64 54/54/54 68/68/68
f 68/68/68 69/69/69 67/67/67
f 69/69/69 68/68/68 55/55/55
f 54/54/54 70/70/70 68/68/68
f 68/68/68 70/70/70 55/55/55
f 55/55/55 70/70/70 54/54/54
