g xylophone_col
v -0.2434752 -0.46291554 0.052627064
v -0.2453141 -0.37133846 0.052627064
v 0.24628733 -0.37133846 0.052627064
v 0.24444842 -0.46291554 0.052627064
v -0.17729113 0.46949446 0.05295226
v -0.17729113 0.46949446 -0.05264949
v 0.17826435 0.46949446 -0.05264949
v 0.17826435 0.46949446 0.05295226
v -0.24531409 -0.37133843 -0.053266868
v -0.2434752 -0.46291554 -0.053266868
v 0.24444842 -0.46291554 -0.053266868
v 0.24628732 -0.37133843 -0.053266868
v -0.2434752 -0.46291554 -0.053266868
v -0.2434752 -0.46291554 0.052627064
v 0.24444842 -0.46291554 0.052627064
v 0.24444842 -0.46291554 -0.053266868
v 0.24444842 -0.46291554 0.052627064
v 0.24628733 -0.37133846 0.052627064
v 0.24628732 -0.37133843 -0.053266868
v 0.24444842 -0.46291554 -0.053266868
v -0.2434752 -0.46291554 -0.053266868
v -0.24531409 -0.37133843 -0.053266868
v -0.2453141 -0.37133846 0.052627064
v -0.2434752 -0.46291554 0.052627064
v -0.17694286 0.3521826 -0.05264949
v -0.17729113 0.46949446 -0.05264949
v -0.17729113 0.46949446 0.05295226
v -0.17694286 0.3521826 0.05295226
v -0.17729113 0.46949446 -0.05264949
v -0.17694286 0.3521826 -0.05264949
v 0.17791608 0.3521826 -0.05264949
v 0.17826435 0.46949446 -0.05264949
v 0.17791608 0.3521826 0.05295226
v 0.17826435 0.46949446 0.05295226
v 0.17826435 0.46949446 -0.05264949
v 0.17791608 0.3521826 -0.05264949
v -0.17694286 0.3521826 0.05295226
v -0.17729113 0.46949446 0.05295226
v 0.17826435 0.46949446 0.05295226
v 0.17791608 0.3521826 0.05295226
v -0.1277257 0.3294721 -0.042216703
v -0.17694286 0.3521826 -0.05264949
v -0.17694286 0.3521826 0.05295226
v -0.15941419 0.32947183 0.03497886
v -0.17694286 0.3521826 -0.05264949
v -0.1277257 0.3294721 -0.042216703
v 0.11656068 0.3294721 -0.039371036
v 0.17791608 0.3521826 -0.05264949
v 0.16038741 0.32947183 0.03497886
v 0.17791608 0.3521826 0.05295226
v 0.17791608 0.3521826 -0.05264949
v 0.11656068 0.3294721 -0.039371036
v -0.15941419 0.32947183 0.03497886
v -0.17694286 0.3521826 0.05295226
v 0.17791608 0.3521826 0.05295226
v 0.16038741 0.32947183 0.03497886
v -0.1277257 0.3294721 -0.042216703
v -0.1850024 -0.33162642 -0.04692959
v 0.17383738 -0.33162642 -0.044083923
v 0.11656068 0.3294721 -0.039371036
v -0.21669088 -0.33162645 0.035921432
v -0.15941419 0.32947183 0.03497886
v 0.16038741 0.32947183 0.03497886
v 0.21766411 -0.33162645 0.035921432
v -0.24531409 -0.37133843 -0.053266868
v -0.1850024 -0.33162642 -0.04692959
v -0.21669088 -0.33162645 0.035921432
v -0.2453141 -0.37133846 0.052627064
v -0.2453141 -0.37133846 0.052627064
v -0.21669088 -0.33162645 0.035921432
v 0.21766411 -0.33162645 0.035921432
v 0.24628733 -0.37133846 0.052627064
v 0.24628733 -0.37133846 0.052627064
v 0.21766411 -0.33162645 0.035921432
v 0.17383738 -0.33162642 -0.044083923
v 0.24628732 -0.37133843 -0.053266868
v -0.1850024 -0.33162642 -0.04692959
v -0.24531409 -0.37133843 -0.053266868
v 0.24628732 -0.37133843 -0.053266868
v 0.17383738 -0.33162642 -0.044083923
v 0.16038741 0.32947183 0.03497886
v 0.11656068 0.3294721 -0.039371036
v 0.16298962 0.29943684 -0.0025322996
v 0.21766411 -0.33162645 0.035921432
v 0.21579161 -0.31001216 -0.0170013
v 0.17383738 -0.33162642 -0.044083923
v -0.21494639 -0.31149116 -0.012909299
v -0.15941419 0.32947183 0.03497886
v -0.21669088 -0.33162645 0.035921432
v -0.1850024 -0.33162642 -0.04692959
v -0.1609764 0.31144685 -0.012453299
v -0.1277257 0.3294721 -0.042216703
vt 0.375 0
vt 0.375 0.031616736
vt 0.625 0.031616736
vt 0.625 0
vt 0.375 0.25
vt 0.375 0.5
vt 0.625 0.5
vt 0.625 0.25
vt 0.375 0.71838325
vt 0.375 0.75
vt 0.625 0.75
vt 0.625 0.71838325
vt 0.375 0.75
vt 0.375 1
vt 0.625 1
vt 0.625 0.75
vt 0.625 0
vt 0.625 0.031616736
vt 0.87500006 0.03161674
vt 0.875 0
vt 0.125 0
vt 0.125 0.03161674
vt 0.375 0.031616736
vt 0.375 0
vt 0.125 0.2176645
vt 0.125 0.25
vt 0.375 0.25
vt 0.375 0.2176645
vt 0.375 0.5
vt 0.375 0.5323355
vt 0.625 0.5323355
vt 0.625 0.5
vt 0.625 0.2176645
vt 0.625 0.25
vt 0.875 0.25
vt 0.875 0.2176645
vt 0.375 0.2176645
vt 0.375 0.25
vt 0.625 0.25
vt 0.625 0.2176645
vt 0.125 0.21269397
vt 0.125 0.2176645
vt 0.375 0.2176645
vt 0.375 0.2126939
vt 0.375 0.5323355
vt 0.37500003 0.5373061
vt 0.62500006 0.5373061
vt 0.625 0.5323355
vt 0.625 0.2126939
vt 0.625 0.2176645
vt 0.875 0.2176645
vt 0.87500006 0.21269397
vt 0.375 0.2126939
vt 0.375 0.2176645
vt 0.625 0.2176645
vt 0.625 0.2126939
vt 0.37500003 0.5373061
vt 0.375 0.7134418
vt 0.625 0.7134418
vt 0.62500006 0.5373061
vt 0.375 0.03655815
vt 0.375 0.2126939
vt 0.625 0.2126939
vt 0.625 0.03655815
vt 0.125 0.03161674
vt 0.125 0.03655815
vt 0.375 0.03655815
vt 0.375 0.031616736
vt 0.375 0.031616736
vt 0.375 0.03655815
vt 0.625 0.03655815
vt 0.625 0.031616736
vt 0.625 0.031616736
vt 0.625 0.03655815
vt 0.87500006 0.03655815
vt 0.87500006 0.03161674
vt 0.375 0.7134418
vt 0.375 0.71838325
vt 0.625 0.71838325
vt 0.625 0.7134418
vt 0.625 0.2126939
vt 0.87500006 0.21269397
vt 0.7457876 0.20469171
vt 0.625 0.03655815
vt 0.7845994 0.042316817
vt 0.87500006 0.03655815
vt 0.22722188 0.041922774
vt 0.375 0.2126939
vt 0.375 0.03655815
vt 0.125 0.03655815
vt 0.2213064 0.20789151
vt 0.125 0.21269397
vn -0 0 1
vn -0 0 1
vn -0 0 1
vn -0 0 1
vn -0 1 0
vn -0 1 0
vn -0 1 0
vn -0 1 0
vn -0 0 -1
vn -0 0 -1
vn -0 0 -1
vn -0 0 -1
vn -0 -1 0
vn -0 -1 0
vn -0 -1 0
vn -0 -1 0
vn 0.9997985 -0.02007611 0
vn 0.9997985 -0.020076107 0
vn 0.9997985 -0.020076107 0
vn 0.9997985 -0.02007611 0
vn -0.9997985 -0.02007611 0
vn -0.9997985 -0.020076107 0
vn -0.9997985 -0.020076107 0
vn -0.9997985 -0.02007611 0
vn -0.9999956 -0.0029687404 0
vn -0.9999956 -0.0029687404 0
vn -0.9999956 -0.0029687404 0
vn -0.9999956 -0.0029687404 0
vn -0 0 -1
vn -0 0 -1
vn -0 0 -1
vn -0 0 -1
vn 0.9999956 -0.0029687404 0
vn 0.9999956 -0.0029687404 0
vn 0.9999956 -0.0029687404 0
vn 0.9999956 -0.0029687404 0
vn -0 0 1
vn -0 0 1
vn -0 0 1
vn -0 0 1
vn -0.5674422 -0.81751627 -0.09836899
vn -0.5674422 -0.8175163 -0.098369
vn -0.5674422 -0.81751627 -0.098369
vn -0.5674422 -0.81751627 -0.098369
vn 0.0042081256 -0.46365002 -0.8860084
vn 0.0042081256 -0.46365002 -0.8860084
vn 0.0042081256 -0.46365008 -0.8860084
vn 0.0042081256 -0.46365002 -0.8860084
vn 0.50070757 -0.85698354 -0.12194733
vn 0.50070757 -0.85698354 -0.12194733
vn 0.5007075 -0.85698354 -0.12194733
vn 0.5007075 -0.8569836 -0.12194735
vn -0 -0.62057674 0.7841457
vn -0 -0.62057674 0.7841457
vn -0 -0.62057674 0.7841457
vn -0 -0.62057674 0.7841457
vn 0.009435738 0.007128374 -0.99993014
vn 0.009435738 0.0071283747 -0.99993014
vn 0.009435738 0.0071283747 -0.99993014
vn 0.009435738 0.0071283747 -0.99993014
vn -0 0.0014257726 0.99999905
vn -0 0.0014257724 0.99999905
vn -0 0.0014257724 0.99999905
vn -0 0.0014257726 0.99999905
vn -0.6691365 0.73459893 -0.11234141
vn -0.6691366 0.73459893 -0.11234141
vn -0.6691366 0.73459893 -0.11234142
vn -0.6691366 0.73459893 -0.11234141
vn -0 0.38775685 0.92176175
vn -0 0.38775682 0.92176175
vn -0 0.38775682 0.92176175
vn -0 0.38775685 0.92176175
vn 0.6179557 0.77259713 -0.14568618
vn 0.6179557 0.7725971 -0.14568618
vn 0.6179557 0.77259713 -0.14568618
vn 0.6179557 0.77259713 -0.14568618
vn 0.003283648 0.19226477 -0.98133755
vn 0.0032836476 0.19226475 -0.98133755
vn 0.0032836476 0.19226477 -0.98133755
vn 0.0032836478 0.19226475 -0.98133755
vn 0.99339455 0.11274316 -0.021358298
vn 0.594865 0.07663055 -0.8001645
vn 0.8755226 0.09392825 -0.47395948
vn 0.9977616 0.06636753 -0.008198132
vn 0.86915654 0.06255029 -0.49056533
vn 0.59428877 0.04649662 -0.8029066
vn -0.9289036 0.06716065 -0.3641805
vn -0.99526274 0.09713363 -0.00413861
vn -0.9971148 0.07578321 -0.0043674065
vn -0.7122411 0.052610245 -0.6999604
vn -0.922363 0.09497585 -0.37446794
vn -0.7107463 0.077638105 -0.6991509
g xylophone_col_0
f 3/3/3 2/2/2 1/1/1
f 4/4/4 3/3/3 1/1/1
f 7/7/7 6/6/6 5/5/5
f 8/8/8 7/7/7 5/5/5
f 11/11/11 10/10/10 9/9/9
f 12/12/12 11/11/11 9/9/9
f 15/15/15 14/14/14 13/13/13
f 16/16/16 15/15/15 13/13/13
f 19/19/19 18/18/18 17/17/17
f 20/20/20 19/19/19 17/17/17
f 23/23/23 22/22/22 21/21/21
f 24/24/24 23/23/23 21/21/21
f 27/27/27 26/26/26 25/25/25
f 28/28/28 27/27/27 25/25/25
f 31/31/31 30/30/30 29/29/29
f 32/32/32 31/31/31 29/29/29
f 35/35/35 34/34/34 33/33/33
f 36/36/36 35/35/35 33/33/33
f 39/39/39 38/38/38 37/37/37
f 40/40/40 39/39/39 37/37/37
f 43/43/43 42/42/42 41/41/41
f 44/44/44 43/43/43 41/41/41
f 47/47/47 46/46/46 45/45/45
f 48/48/48 47/47/47 45/45/45
f 51/51/51 50/50/50 49/49/49
f 52/52/52 51/51/51 49/49/49
f 55/55/55 54/54/54 53/53/53
f 56/56/56 55/55/55 53/53/53
f 59/59/59 58/58/58 57/57/57
f 60/60/60 59/59/59 57/57/57
f 63/63/63 62/62/62 61/61/61
f 64/64/64 63/63/63 61/61/61
f 67/67/67 66/66/66 65/65/65
f 68/68/68 67/67/67 65/65/65
f 71/71/71 70/70/70 69/69/69
f 72/72/72 71/71/71 69/69/69
f 75/75/75 74/74/74 73/73/73
f 76/76/76 75/75/75 73/73/73
f 79/79/79 78/78/78 77/77/77
f 80/80/80 79/79/79 77/77/77
f 83/83/83 82/82/82 81/81/81
f 83/83/83 81/81/81 84/84/84
f 83/83/83 85/85/85 82/82/82
f 85/85/85 83/83/83 84/84/84
f 85/85/85 86/86/86 82/82/82
f 86/86/86 85/85/85 84/84/84
f 89/89/89 88/88/88 87/87/87
f 89/89/89 87/87/87 90/90/90
f 88/88/88 91/91/91 87/87/87
f 87/87/87 91/91/91 90/90/90
f 88/88/88 92/92/92 91/91/91
f 91/91/91 92/92/92 90/90/90
