g Ball_02
v 0.00042042136 -0.4301282 -0.00042042136
v 0.08198923 -0.3973325 -0.14253512
v 0.00042042136 -0.3973325 -0.16439894
v 0.14253512 -0.3973325 -0.08198923
v -0.08198926 -0.3973325 -0.14253512
v 0.16439894 -0.3973325 -0.00042042136
v -0.14253518 -0.3973325 -0.08198923
v 0.14253512 -0.3973325 0.08198926
v -0.164399 -0.3973325 -0.00042042136
v 0.08198923 -0.3973325 0.14253518
v -0.14253518 -0.3973325 0.08198926
v 0.00042042136 -0.3973325 0.164399
v -0.08198926 -0.3973325 0.14253518
v 0.08198923 0.39733252 -0.14253512
v 0.14253512 0.39733252 -0.08198923
v -0.00042048097 0.43012825 -0.00042042136
v 0.00042042136 0.39733252 -0.16439894
v 0.16439894 0.39733252 -0.00042042136
v -0.08198926 0.39733252 -0.14253512
v 0.14253512 0.39733252 0.08198926
v -0.14253518 0.39733252 -0.08198923
v 0.08198923 0.39733252 0.14253518
v -0.164399 0.39733252 -0.00042042136
v 0.00042042136 0.39733252 0.164399
v -0.14253518 0.39733252 0.08198926
v -0.08198926 0.39733252 0.14253518
v 0.00042042136 0.30399093 -0.3039909
v 0.1517852 0.30399093 -0.26362693
v 0.08198923 0.39733252 -0.14253512
v 0.00042042136 0.39733252 -0.16439894
v 0.14253512 0.39733252 -0.08198923
v -0.15178528 0.30399093 -0.26362693
v 0.26362693 0.30399093 -0.1517852
v -0.08198926 0.39733252 -0.14253512
v 0.16439894 0.39733252 -0.00042042136
v -0.26362702 0.30399093 -0.1517852
v 0.3039909 0.30399093 -0.00042042136
v -0.14253518 0.39733252 -0.08198923
v 0.14253512 0.39733252 0.08198926
v -0.30399093 0.30399093 -0.00042042136
v 0.26362693 0.30399093 0.15178528
v -0.164399 0.39733252 -0.00042042136
v 0.08198923 0.39733252 0.14253518
v -0.26362702 0.30399093 0.15178528
v 0.1517852 0.30399093 0.26362702
v -0.14253518 0.39733252 0.08198926
v 0.00042042136 0.39733252 0.164399
v -0.15178528 0.30399093 0.26362702
v -0.00042048097 0.30399093 0.30399093
v -0.08198926 0.39733252 0.14253518
v 0.00042042136 -0.3039909 -0.3039909
v 0.19887646 -0.16439894 -0.3443548
v 0.00042042136 -0.16439894 -0.3973325
v 0.1517852 -0.3039909 -0.26362693
v -0.15178528 -0.3039909 -0.26362693
v 0.3443548 -0.16439894 -0.19887646
v -0.19887653 -0.16439894 -0.3443548
v 0.26362693 -0.3039909 -0.1517852
v -0.26362702 -0.3039909 -0.1517852
v 0.3973325 -0.16439894 0.00042048097
v -0.3443549 -0.16439894 -0.19887646
v 0.3039909 -0.3039909 0.00042048097
v -0.30399093 -0.3039909 -0.00042042136
v 0.3443548 -0.16439894 0.19887653
v -0.39733252 -0.16439894 -0.00042042136
v 0.26362693 -0.3039909 0.15178528
v -0.26362702 -0.3039909 0.15178528
v 0.19887646 -0.16439894 0.3443549
v -0.3443549 -0.16439894 0.19887653
v 0.1517852 -0.3039909 0.26362702
v -0.15178528 -0.3039909 0.26362702
v -0.00042048097 -0.16439894 0.39733252
v -0.19887653 -0.16439894 0.3443549
v -0.00042048097 -0.3039909 0.30399093
v 0.00042042136 0.00042048097 -0.4301282
v 0.21485385 0.00042048097 -0.37210503
v 0.19887646 0.164399 -0.3443548
v 0.00042042136 0.164399 -0.3973325
v 0.3443548 0.164399 -0.19887646
v -0.21485391 0.00042048097 -0.37210503
v 0.37210503 0.00042048097 -0.21485385
v -0.19887653 0.164399 -0.3443548
v 0.3973325 0.164399 0.00042048097
v -0.3721051 0.00042048097 -0.21485385
v 0.4301282 0.00042048097 -0.00042042136
v -0.3443549 0.164399 -0.19887646
v 0.3443548 0.164399 0.19887653
v -0.43012825 0.00042048097 -0.00042042136
v 0.37210503 0.00042048097 0.21485391
v -0.39733252 0.164399 -0.00042042136
v 0.19887646 0.164399 0.3443549
v -0.3721051 0.00042048097 0.21485391
v 0.21485385 0.00042048097 0.3721051
v -0.3443549 0.164399 0.19887653
v -0.00042048097 0.164399 0.39733252
v -0.21485391 0.00042048097 0.3721051
v -0.00042048097 0.00042048097 0.43012825
v -0.19887653 0.164399 0.3443549
v 0.19887646 0.164399 -0.3443548
v 0.3443548 0.164399 -0.19887646
v 0.26362693 0.30399093 -0.1517852
v 0.1517852 0.30399093 -0.26362693
v 0.3039909 0.30399093 -0.00042042136
v 0.00042042136 0.164399 -0.3973325
v 0.3973325 0.164399 0.00042048097
v 0.00042042136 0.30399093 -0.3039909
v 0.26362693 0.30399093 0.15178528
v -0.19887653 0.164399 -0.3443548
v 0.3443548 0.164399 0.19887653
v -0.15178528 0.30399093 -0.26362693
v 0.1517852 0.30399093 0.26362702
v -0.3443549 0.164399 -0.19887646
v 0.19887646 0.164399 0.3443549
v -0.26362702 0.30399093 -0.1517852
v -0.00042048097 0.30399093 0.30399093
v -0.39733252 0.164399 -0.00042042136
v -0.00042048097 0.164399 0.39733252
v -0.30399093 0.30399093 -0.00042042136
v -0.15178528 0.30399093 0.26362702
v -0.3443549 0.164399 0.19887653
v -0.19887653 0.164399 0.3443549
v -0.26362702 0.30399093 0.15178528
v 0.19887646 -0.16439894 -0.3443548
v 0.3443548 -0.16439894 -0.19887646
v 0.37210503 0.00042048097 -0.21485385
v 0.21485385 0.00042048097 -0.37210503
v 0.4301282 0.00042048097 -0.00042042136
v 0.00042042136 -0.16439894 -0.3973325
v 0.3973325 -0.16439894 0.00042048097
v 0.00042042136 0.00042048097 -0.4301282
v 0.37210503 0.00042048097 0.21485391
v -0.19887653 -0.16439894 -0.3443548
v 0.3443548 -0.16439894 0.19887653
v -0.21485391 0.00042048097 -0.37210503
v 0.21485385 0.00042048097 0.3721051
v -0.3443549 -0.16439894 -0.19887646
v 0.19887646 -0.16439894 0.3443549
v -0.3721051 0.00042048097 -0.21485385
v -0.00042048097 0.00042048097 0.43012825
v -0.39733252 -0.16439894 -0.00042042136
v -0.00042048097 -0.16439894 0.39733252
v -0.43012825 0.00042048097 -0.00042042136
v -0.21485391 0.00042048097 0.3721051
v -0.3443549 -0.16439894 0.19887653
v -0.19887653 -0.16439894 0.3443549
v -0.3721051 0.00042048097 0.21485391
v 0.08198923 -0.3973325 -0.14253512
v 0.14253512 -0.3973325 -0.08198923
v 0.26362693 -0.3039909 -0.1517852
v 0.1517852 -0.3039909 -0.26362693
v 0.3039909 -0.3039909 0.00042048097
v 0.00042042136 -0.3973325 -0.16439894
v 0.16439894 -0.3973325 -0.00042042136
v 0.00042042136 -0.3039909 -0.3039909
v 0.26362693 -0.3039909 0.15178528
v -0.08198926 -0.3973325 -0.14253512
v 0.14253512 -0.3973325 0.08198926
v -0.15178528 -0.3039909 -0.26362693
v 0.1517852 -0.3039909 0.26362702
v -0.14253518 -0.3973325 -0.08198923
v 0.08198923 -0.3973325 0.14253518
v -0.26362702 -0.3039909 -0.1517852
v -0.00042048097 -0.3039909 0.30399093
v -0.164399 -0.3973325 -0.00042042136
v 0.00042042136 -0.3973325 0.164399
v -0.30399093 -0.3039909 -0.00042042136
v -0.15178528 -0.3039909 0.26362702
v -0.14253518 -0.3973325 0.08198926
v -0.08198926 -0.3973325 0.14253518
v -0.26362702 -0.3039909 0.15178528
vt 0.45039886 0.9333019
vt 0.45039886 0.9333019
vt 0.45039886 0.9333019
vt 0.45039886 0.9333019
vt 0.45039886 0.9333019
vt 0.45039886 0.9333019
vt 0.45039886 0.9333019
vt 0.45039886 0.9333019
vt 0.45039886 0.9333019
vt 0.45039886 0.9333019
vt 0.45039886 0.9333019
vt 0.45039886 0.9333019
vt 0.45039886 0.9333019
vt 0.31450656 0.697917
vt 0.31450656 0.697917
vt 0.31450656 0.697917
vt 0.31450656 0.697917
vt 0.31450656 0.697917
vt 0.31450656 0.697917
vt 0.31450656 0.697917
vt 0.31450656 0.697917
vt 0.31450656 0.697917
vt 0.31450656 0.697917
vt 0.31450656 0.697917
vt 0.31450656 0.697917
vt 0.31450656 0.697917
vt 0.45039886 0.9235953
vt 0.45039886 0.9235953
vt 0.45039886 0.9235953
vt 0.45039886 0.9235953
vt 0.45039886 0.9235953
vt 0.45039886 0.9235953
vt 0.45039886 0.9235953
vt 0.45039886 0.9235953
vt 0.45039886 0.9235953
vt 0.45039886 0.9235953
vt 0.45039886 0.9235953
vt 0.45039886 0.9235953
vt 0.45039886 0.9235953
vt 0.45039886 0.9235953
vt 0.45039886 0.9235953
vt 0.45039886 0.9235953
vt 0.45039886 0.9235953
vt 0.45039886 0.9235953
vt 0.45039886 0.9235953
vt 0.45039886 0.9235953
vt 0.45039886 0.9235953
vt 0.45039886 0.9235953
vt 0.45039886 0.9235953
vt 0.45039886 0.9235953
vt 0.45039886 0.9235953
vt 0.45039886 0.9235953
vt 0.45039886 0.9235953
vt 0.45039886 0.9235953
vt 0.45039886 0.9235953
vt 0.45039886 0.9235953
vt 0.45039886 0.9235953
vt 0.45039886 0.9235953
vt 0.45039886 0.9235953
vt 0.45039886 0.9235953
vt 0.45039886 0.9235953
vt 0.45039886 0.9235953
vt 0.45039886 0.9235953
vt 0.45039886 0.9235953
vt 0.45039886 0.9235953
vt 0.45039886 0.9235953
vt 0.45039886 0.9235953
vt 0.45039886 0.9235953
vt 0.45039886 0.9235953
vt 0.45039886 0.9235953
vt 0.45039886 0.9235953
vt 0.45039886 0.9235953
vt 0.45039886 0.9235953
vt 0.45039886 0.9235953
vt 0.45039886 0.9235953
vt 0.45039886 0.9235953
vt 0.45039886 0.9235953
vt 0.45039886 0.9235953
vt 0.45039886 0.9235953
vt 0.45039886 0.9235953
vt 0.45039886 0.9235953
vt 0.45039886 0.9235953
vt 0.45039886 0.9235953
vt 0.45039886 0.9235953
vt 0.45039886 0.9235953
vt 0.45039886 0.9235953
vt 0.45039886 0.9235953
vt 0.45039886 0.9235953
vt 0.45039886 0.9235953
vt 0.45039886 0.9235953
vt 0.45039886 0.9235953
vt 0.45039886 0.9235953
vt 0.45039886 0.9235953
vt 0.45039886 0.9235953
vt 0.45039886 0.9235953
vt 0.45039886 0.9235953
vt 0.45039886 0.9235953
vt 0.45039886 0.9235953
vt 0.31450656 0.697917
vt 0.31450656 0.697917
vt 0.31450656 0.697917
vt 0.31450656 0.697917
vt 0.31450656 0.697917
vt 0.31450656 0.697917
vt 0.31450656 0.697917
vt 0.31450656 0.697917
vt 0.31450656 0.697917
vt 0.31450656 0.697917
vt 0.31450656 0.697917
vt 0.31450656 0.697917
vt 0.31450656 0.697917
vt 0.31450656 0.697917
vt 0.31450656 0.697917
vt 0.31450656 0.697917
vt 0.31450656 0.697917
vt 0.31450656 0.697917
vt 0.31450656 0.697917
vt 0.31450656 0.697917
vt 0.31450656 0.697917
vt 0.31450656 0.697917
vt 0.31450656 0.697917
vt 0.31450656 0.697917
vt 0.31450656 0.697917
vt 0.31450656 0.697917
vt 0.31450656 0.697917
vt 0.31450656 0.697917
vt 0.31450656 0.697917
vt 0.31450656 0.697917
vt 0.31450656 0.697917
vt 0.31450656 0.697917
vt 0.31450656 0.697917
vt 0.31450656 0.697917
vt 0.31450656 0.697917
vt 0.31450656 0.697917
vt 0.31450656 0.697917
vt 0.31450656 0.697917
vt 0.31450656 0.697917
vt 0.31450656 0.697917
vt 0.31450656 0.697917
vt 0.31450656 0.697917
vt 0.31450656 0.697917
vt 0.31450656 0.697917
vt 0.31450656 0.697917
vt 0.31450656 0.697917
vt 0.31450656 0.697917
vt 0.31450656 0.697917
vt 0.31450656 0.697917
vt 0.31450656 0.697917
vt 0.31450656 0.697917
vt 0.31450656 0.697917
vt 0.31450656 0.697917
vt 0.31450656 0.697917
vt 0.31450656 0.697917
vt 0.31450656 0.697917
vt 0.31450656 0.697917
vt 0.31450656 0.697917
vt 0.31450656 0.697917
vt 0.31450656 0.697917
vt 0.31450656 0.697917
vt 0.31450656 0.697917
vt 0.31450656 0.697917
vt 0.31450656 0.697917
vt 0.31450656 0.697917
vt 0.31450656 0.697917
vt 0.31450656 0.697917
vt 0.31450656 0.697917
vt 0.31450656 0.697917
vt 0.31450656 0.697917
vt 0.31450656 0.697917
vt 0.31450656 0.697917
vn -0.015871048 -0.999874 -0.00034526698
vn 0.2063232 -0.9046479 -0.37288457
vn -0.015871048 -0.9046479 -0.4258642
vn 0.36503333 -0.9046479 -0.21991555
vn -0.20632327 -0.9046479 -0.37288457
vn 0.39677536 -0.9046479 -0.15550397
vn -0.3650334 -0.9046479 -0.21991542
vn 0.36503333 -0.9046479 0.21991555
vn -0.39677536 -0.9046479 -0.15550397
vn 0.2063232 -0.9046479 0.37288457
vn -0.3650334 -0.9046479 0.21991542
vn -0.015871048 -0.9046479 0.4258642
vn -0.20632327 -0.9046479 0.37288457
vn 0.2063232 0.90464795 -0.37288442
vn 0.36503333 0.90464795 -0.21991529
vn -0.015871048 0.999874 -0.00034526698
vn -0.015871048 0.90464795 -0.42586404
vn 0.39677536 0.90464795 -0.15550359
vn -0.20632327 0.90464795 -0.37288442
vn 0.36503333 0.90464795 0.21991529
vn -0.3650334 0.90464795 -0.21991515
vn 0.2063232 0.90464795 0.37288442
vn -0.39677536 0.90464795 -0.15550359
vn -0.015871048 0.90464795 0.42586404
vn -0.3650334 0.90464795 0.21991515
vn -0.20632327 0.90464795 0.37288442
vn -0.015871048 0.68245375 -0.73075646
vn 0.36503333 0.68245375 -0.63325155
vn 0.2063232 0.90464795 -0.37288442
vn -0.015871048 0.90464795 -0.42586404
vn 0.36503333 0.90464795 -0.21991529
vn -0.3650334 0.68245375 -0.6332515
vn 0.6189696 0.68245375 -0.3887589
vn -0.20632327 0.90464795 -0.37288442
vn 0.39677536 0.90464795 -0.15550359
vn -0.6189697 0.68245375 -0.3887588
vn 0.7141957 0.68245375 -0.15550359
vn -0.3650334 0.90464795 -0.21991515
vn 0.36503333 0.90464795 0.21991529
vn -0.7141957 0.68245375 -0.15550359
vn 0.6189696 0.68245375 0.3887589
vn -0.39677536 0.90464795 -0.15550359
vn 0.2063232 0.90464795 0.37288442
vn -0.6189697 0.68245375 0.3887588
vn 0.36503333 0.68245375 0.63325155
vn -0.3650334 0.90464795 0.21991515
vn -0.015871048 0.90464795 0.42586404
vn -0.3650334 0.68245375 0.6332515
vn -0.015871048 0.68245375 0.73075646
vn -0.20632327 0.90464795 0.37288442
vn -0.015871048 -0.68245363 -0.7307566
vn 0.46025944 -0.36503333 -0.80926627
vn -0.015871048 -0.36503333 -0.93085915
vn 0.36503333 -0.68245363 -0.6332517
vn -0.3650334 -0.68245363 -0.63325167
vn 0.8094218 -0.36503333 -0.45998597
vn -0.46025944 -0.36503333 -0.80926627
vn 0.6189696 -0.68245363 -0.38875914
vn -0.6189697 -0.68245363 -0.38875905
vn 0.931708 -0.36320817 -0
vn -0.8094218 -0.36503333 -0.45998597
vn 0.7141957 -0.68245363 -0.15550417
vn -0.7141957 -0.68245363 -0.15550417
vn 0.8094218 -0.36503333 0.45998597
vn -0.931708 -0.36320817 -0
vn 0.6189696 -0.68245363 0.38875914
vn -0.6189697 -0.68245363 0.38875905
vn 0.46025944 -0.36503333 0.80926627
vn -0.8094218 -0.36503333 0.45998597
vn 0.36503333 -0.68245363 0.6332517
vn -0.3650334 -0.68245363 0.63325167
vn -0.015871048 -0.36503333 0.93085915
vn -0.46025944 -0.36503333 0.80926627
vn -0.015871048 -0.68245363 0.7307566
vn -0.015871048 0.015871048 -0.99974805
vn 0.49200147 0.015871048 -0.8704497
vn 0.46025944 0.3650334 -0.80926627
vn -0.015871048 0.3650334 -0.93085915
vn 0.8094218 0.3650334 -0.4599859
vn -0.49200153 0.015871048 -0.87044966
vn 0.87290585 0.015871048 -0.4876305
vn -0.46025944 0.3650334 -0.80926627
vn 0.931708 0.36320823 -0
vn -0.87290585 0.015871048 -0.4876305
vn 0.999874 0.015871048 -0.00034391563
vn -0.8094218 0.3650334 -0.4599859
vn 0.8094218 0.3650334 0.4599859
vn -0.999874 0.015871048 -0.00034391563
vn 0.87290585 0.015871048 0.4876305
vn -0.931708 0.36320823 -0
vn 0.46025944 0.3650334 0.80926627
vn -0.87290585 0.015871048 0.4876305
vn 0.49200147 0.015871048 0.8704497
vn -0.8094218 0.3650334 0.4599859
vn -0.015871048 0.3650334 0.93085915
vn -0.49200153 0.015871048 0.87044966
vn -0.015871048 0.015871048 0.99974805
vn -0.46025944 0.3650334 0.80926627
vn 0.46025944 0.3650334 -0.80926627
vn 0.8094218 0.3650334 -0.4599859
vn 0.6189696 0.68245375 -0.3887589
vn 0.36503333 0.68245375 -0.63325155
vn 0.7141957 0.68245375 -0.15550359
vn -0.015871048 0.3650334 -0.93085915
vn 0.931708 0.36320823 -0
vn -0.015871048 0.68245375 -0.73075646
vn 0.6189696 0.68245375 0.3887589
vn -0.46025944 0.3650334 -0.80926627
vn 0.8094218 0.3650334 0.4599859
vn -0.3650334 0.68245375 -0.6332515
vn 0.36503333 0.68245375 0.63325155
vn -0.8094218 0.3650334 -0.4599859
vn 0.46025944 0.3650334 0.80926627
vn -0.6189697 0.68245375 -0.3887588
vn -0.015871048 0.68245375 0.73075646
vn -0.931708 0.36320823 -0
vn -0.015871048 0.3650334 0.93085915
vn -0.7141957 0.68245375 -0.15550359
vn -0.3650334 0.68245375 0.6332515
vn -0.8094218 0.3650334 0.4599859
vn -0.46025944 0.3650334 0.80926627
vn -0.6189697 0.68245375 0.3887588
vn 0.46025944 -0.36503333 -0.80926627
vn 0.8094218 -0.36503333 -0.45998597
vn 0.87290585 0.015871048 -0.4876305
vn 0.49200147 0.015871048 -0.8704497
vn 0.999874 0.015871048 -0.00034391563
vn -0.015871048 -0.36503333 -0.93085915
vn 0.931708 -0.36320817 -0
vn -0.015871048 0.015871048 -0.99974805
vn 0.87290585 0.015871048 0.4876305
vn -0.46025944 -0.36503333 -0.80926627
vn 0.8094218 -0.36503333 0.45998597
vn -0.49200153 0.015871048 -0.87044966
vn 0.49200147 0.015871048 0.8704497
vn -0.8094218 -0.36503333 -0.45998597
vn 0.46025944 -0.36503333 0.80926627
vn -0.87290585 0.015871048 -0.4876305
vn -0.015871048 0.015871048 0.99974805
vn -0.931708 -0.36320817 -0
vn -0.015871048 -0.36503333 0.93085915
vn -0.999874 0.015871048 -0.00034391563
vn -0.49200153 0.015871048 0.87044966
vn -0.8094218 -0.36503333 0.45998597
vn -0.46025944 -0.36503333 0.80926627
vn -0.87290585 0.015871048 0.4876305
vn 0.2063232 -0.9046479 -0.37288457
vn 0.36503333 -0.9046479 -0.21991555
vn 0.6189696 -0.68245363 -0.38875914
vn 0.36503333 -0.68245363 -0.6332517
vn 0.7141957 -0.68245363 -0.15550417
vn -0.015871048 -0.9046479 -0.4258642
vn 0.39677536 -0.9046479 -0.15550397
vn -0.015871048 -0.68245363 -0.7307566
vn 0.6189696 -0.68245363 0.38875914
vn -0.20632327 -0.9046479 -0.37288457
vn 0.36503333 -0.9046479 0.21991555
vn -0.3650334 -0.68245363 -0.63325167
vn 0.36503333 -0.68245363 0.6332517
vn -0.3650334 -0.9046479 -0.21991542
vn 0.2063232 -0.9046479 0.37288457
vn -0.6189697 -0.68245363 -0.38875905
vn -0.015871048 -0.68245363 0.7307566
vn -0.39677536 -0.9046479 -0.15550397
vn -0.015871048 -0.9046479 0.4258642
vn -0.7141957 -0.68245363 -0.15550417
vn -0.3650334 -0.68245363 0.63325167
vn -0.3650334 -0.9046479 0.21991542
vn -0.20632327 -0.9046479 0.37288457
vn -0.6189697 -0.68245363 0.38875905
g Ball_02_0
f 3/3/3 2/2/2 1/1/1
f 2/2/2 4/4/4 1/1/1
f 5/5/5 3/3/3 1/1/1
f 4/4/4 6/6/6 1/1/1
f 7/7/7 5/5/5 1/1/1
f 6/6/6 8/8/8 1/1/1
f 9/9/9 7/7/7 1/1/1
f 8/8/8 10/10/10 1/1/1
f 11/11/11 9/9/9 1/1/1
f 10/10/10 12/12/12 1/1/1
f 13/13/13 11/11/11 1/1/1
f 12/12/12 13/13/13 1/1/1
f 16/16/16 15/15/15 14/14/14
f 16/16/16 14/14/14 17/17/17
f 16/16/16 18/18/18 15/15/15
f 16/16/16 17/17/17 19/19/19
f 16/16/16 20/20/20 18/18/18
f 16/16/16 19/19/19 21/21/21
f 16/16/16 22/22/22 20/20/20
f 16/16/16 21/21/21 23/23/23
f 16/16/16 24/24/24 22/22/22
f 16/16/16 23/23/23 25/25/25
f 16/16/16 26/26/26 24/24/24
f 16/16/16 25/25/25 26/26/26
f 29/29/29 28/28/28 27/27/27
f 30/30/30 29/29/29 27/27/27
f 29/29/29 31/31/31 28/28/28
f 30/30/30 27/27/27 32/32/32
f 31/31/31 33/33/33 28/28/28
f 34/34/34 30/30/30 32/32/32
f 31/31/31 35/35/35 33/33/33
f 34/34/34 32/32/32 36/36/36
f 35/35/35 37/37/37 33/33/33
f 38/38/38 34/34/34 36/36/36
f 35/35/35 39/39/39 37/37/37
f 38/38/38 36/36/36 40/40/40
f 39/39/39 41/41/41 37/37/37
f 42/42/42 38/38/38 40/40/40
f 39/39/39 43/43/43 41/41/41
f 42/42/42 40/40/40 44/44/44
f 43/43/43 45/45/45 41/41/41
f 46/46/46 42/42/42 44/44/44
f 43/43/43 47/47/47 45/45/45
f 46/46/46 44/44/44 48/48/48
f 47/47/47 49/49/49 45/45/45
f 50/50/50 46/46/46 48/48/48
f 50/50/50 48/48/48 49/49/49
f 47/47/47 50/50/50 49/49/49
f 53/53/53 52/52/52 51/51/51
f 52/52/52 54/54/54 51/51/51
f 53/53/53 51/51/51 55/55/55
f 52/52/52 56/56/56 54/54/54
f 57/57/57 53/53/53 55/55/55
f 56/56/56 58/58/58 54/54/54
f 57/57/57 55/55/55 59/59/59
f 56/56/56 60/60/60 58/58/58
f 61/61/61 57/57/57 59/59/59
f 60/60/60 62/62/62 58/58/58
f 61/61/61 59/59/59 63/63/63
f 60/60/60 64/64/64 62/62/62
f 65/65/65 61/61/61 63/63/63
f 64/64/64 66/66/66 62/62/62
f 65/65/65 63/63/63 67/67/67
f 64/64/64 68/68/68 66/66/66
f 69/69/69 65/65/65 67/67/67
f 68/68/68 70/70/70 66/66/66
f 69/69/69 67/67/67 71/71/71
f 68/68/68 72/72/72 70/70/70
f 73/73/73 69/69/69 71/71/71
f 72/72/72 74/74/74 70/70/70
f 73/73/73 71/71/71 74/74/74
f 72/72/72 73/73/73 74/74/74
f 77/77/77 76/76/76 75/75/75
f 78/78/78 77/77/77 75/75/75
f 77/77/77 79/79/79 76/76/76
f 78/78/78 75/75/75 80/80/80
f 79/79/79 81/81/81 76/76/76
f 82/82/82 78/78/78 80/80/80
f 79/79/79 83/83/83 81/81/81
f 82/82/82 80/80/80 84/84/84
f 83/83/83 85/85/85 81/81/81
f 86/86/86 82/82/82 84/84/84
f 83/83/83 87/87/87 85/85/85
f 86/86/86 84/84/84 88/88/88
f 87/87/87 89/89/89 85/85/85
f 90/90/90 86/86/86 88/88/88
f 87/87/87 91/91/91 89/89/89
f 90/90/90 88/88/88 92/92/92
f 91/91/91 93/93/93 89/89/89
f 94/94/94 90/90/90 92/92/92
f 91/91/91 95/95/95 93/93/93
f 94/94/94 92/92/92 96/96/96
f 95/95/95 97/97/97 93/93/93
f 98/98/98 94/94/94 96/96/96
f 98/98/98 96/96/96 97/97/97
f 95/95/95 98/98/98 97/97/97
f 101/101/101 100/100/100 99/99/99
f 102/102/102 101/101/101 99/99/99
f 101/101/101 103/103/103 100/100/100
f 102/102/102 99/99/99 104/104/104
f 103/103/103 105/105/105 100/100/100
f 106/106/106 102/102/102 104/104/104
f 103/103/103 107/107/107 105/105/105
f 106/106/106 104/104/104 108/108/108
f 107/107/107 109/109/109 105/105/105
f 110/110/110 106/106/106 108/108/108
f 107/107/107 111/111/111 109/109/109
f 110/110/110 108/108/108 112/112/112
f 111/111/111 113/113/113 109/109/109
f 114/114/114 110/110/110 112/112/112
f 111/111/111 115/115/115 113/113/113
f 114/114/114 112/112/112 116/116/116
f 115/115/115 117/117/117 113/113/113
f 118/118/118 114/114/114 116/116/116
f 115/115/115 119/119/119 117/117/117
f 118/118/118 116/116/116 120/120/120
f 119/119/119 121/121/121 117/117/117
f 122/122/122 118/118/118 120/120/120
f 122/122/122 120/120/120 121/121/121
f 119/119/119 122/122/122 121/121/121
f 125/125/125 124/124/124 123/123/123
f 126/126/126 125/125/125 123/123/123
f 125/125/125 127/127/127 124/124/124
f 126/126/126 123/123/123 128/128/128
f 127/127/127 129/129/129 124/124/124
f 130/130/130 126/126/126 128/128/128
f 127/127/127 131/131/131 129/129/129
f 130/130/130 128/128/128 132/132/132
f 131/131/131 133/133/133 129/129/129
f 134/134/134 130/130/130 132/132/132
f 131/131/131 135/135/135 133/133/133
f 134/134/134 132/132/132 136/136/136
f 135/135/135 137/137/137 133/133/133
f 138/138/138 134/134/134 136/136/136
f 135/135/135 139/139/139 137/137/137
f 138/138/138 136/136/136 140/140/140
f 139/139/139 141/141/141 137/137/137
f 142/142/142 138/138/138 140/140/140
f 139/139/139 143/143/143 141/141/141
f 142/142/142 140/140/140 144/144/144
f 143/143/143 145/145/145 141/141/141
f 146/146/146 142/142/142 144/144/144
f 146/146/146 144/144/144 145/145/145
f 143/143/143 146/146/146 145/145/145
f 149/149/149 148/148/148 147/147/147
f 150/150/150 149/149/149 147/147/147
f 149/149/149 151/151/151 148/148/148
f 150/150/150 147/147/147 152/152/152
f 151/151/151 153/153/153 148/148/148
f 154/154/154 150/150/150 152/152/152
f 151/151/151 155/155/155 153/153/153
f 154/154/154 152/152/152 156/156/156
f 155/155/155 157/157/157 153/153/153
f 158/158/158 154/154/154 156/156/156
f 155/155/155 159/159/159 157/157/157
f 158/158/158 156/156/156 160/160/160
f 159/159/159 161/161/161 157/157/157
f 162/162/162 158/158/158 160/160/160
f 159/159/159 163/163/163 161/161/161
f 162/162/162 160/160/160 164/164/164
f 163/163/163 165/165/165 161/161/161
f 166/166/166 162/162/162 164/164/164
f 163/163/163 167/167/167 165/165/165
f 166/166/166 164/164/164 168/168/168
f 167/167/167 169/169/169 165/165/165
f 170/170/170 166/166/166 168/168/168
f 170/170/170 168/168/168 169/169/169
f 167/167/167 170/170/170 169/169/169
