g ball
v -0.28470057 -0.2847006 0.28470057
v -0.16851586 -0.3346312 0.3346312
v -0.18291897 -0.42681086 0.18291897
v -0.3346312 -0.3346312 0.16851586
v 0.0004800856 -0.35959655 0.35959655
v -0.35959655 -0.35959655 0.0004801154
v 0.0004800856 -0.45849758 0.19636178
v 0.18291894 -0.42681086 0.18291897
v 0.0004800856 -0.49114454 0.0004801154
v 0.16851586 -0.3346312 0.3346312
v 0.2847006 -0.2847006 0.28470057
v 0.3346312 -0.3346312 0.16851586
v 0.35959655 -0.35959655 0.0004801154
v -0.19636178 -0.45849758 0.0004801154
v -0.18291897 -0.42681086 -0.18291894
v -0.3346312 -0.3346312 -0.16851586
v -0.28470057 -0.2847006 -0.2847006
v -0.16851586 -0.3346312 -0.3346312
v 0.0004800856 -0.35959655 -0.35959655
v 0.19636178 -0.45849758 0.0004801154
v 0.18291894 -0.42681086 -0.18291894
v 0.3346312 -0.3346312 -0.16851586
v 0.2847006 -0.2847006 -0.2847006
v 0.16851586 -0.3346312 -0.3346312
v 0.0004800856 -0.45849758 -0.19636178
v -0.28470057 0.28470057 0.28470057
v -0.3346312 0.3346312 0.16851586
v -0.18291897 0.42681086 0.18291897
v -0.16851586 0.3346312 0.3346312
v -0.35959655 0.35959655 -0.0004800856
v -0.0004801154 0.35959655 0.35959655
v -0.19636178 0.45849758 -0.0004800856
v -0.18291897 0.42681086 -0.18291894
v -0.0004801154 0.49114454 -0.0004800856
v -0.3346312 0.3346312 -0.16851586
v -0.28470057 0.28470057 -0.2847006
v -0.16851586 0.3346312 -0.3346312
v -0.0004801154 0.35959655 -0.35959655
v -0.0004801154 0.45849758 0.19636178
v 0.18291894 0.42681086 0.18291897
v 0.16851586 0.3346312 0.3346312
v 0.2847006 0.28470057 0.28470057
v 0.3346312 0.3346312 0.16851586
v 0.35959655 0.35959655 0.0004801154
v -0.0004801154 0.45849758 -0.19636178
v 0.18291894 0.42681086 -0.18291894
v 0.16851586 0.3346312 -0.3346312
v 0.2847006 0.28470057 -0.2847006
v 0.3346312 0.3346312 -0.16851586
v 0.19636178 0.45849758 -0.0004800856
v -0.28470057 -0.2847006 0.28470057
v -0.3346312 -0.16851586 0.3346312
v -0.18291897 -0.18291894 0.42681086
v -0.16851586 -0.3346312 0.3346312
v -0.35959655 -0.0004800856 0.35959655
v 0.0004800856 -0.35959655 0.35959655
v -0.19636178 -0.0004800856 0.45849758
v -0.18291897 0.18291897 0.42681086
v -0.0004801154 -0.0004800856 0.49114454
v -0.3346312 0.16851586 0.3346312
v -0.28470057 0.28470057 0.28470057
v -0.16851586 0.3346312 0.3346312
v -0.0004801154 0.35959655 0.35959655
v -0.0004801154 -0.19636178 0.45849758
v 0.18291894 -0.18291894 0.42681086
v 0.16851586 -0.3346312 0.3346312
v 0.2847006 -0.2847006 0.28470057
v 0.3346312 -0.16851586 0.3346312
v 0.35959655 0.0004801154 0.35959655
v -0.0004801154 0.19636178 0.45849758
v 0.18291894 0.18291897 0.42681086
v 0.16851586 0.3346312 0.3346312
v 0.2847006 0.28470057 0.28470057
v 0.3346312 0.16851586 0.3346312
v 0.19636178 -0.0004800856 0.45849758
v 0.2847006 -0.2847006 -0.2847006
v 0.42681086 -0.18291894 -0.18291894
v 0.3346312 -0.16851586 -0.3346312
v 0.3346312 -0.3346312 -0.16851586
v 0.35959655 -0.0004800856 -0.35959655
v 0.35959655 -0.35959655 0.0004801154
v 0.45849758 -0.0004800856 -0.19636178
v 0.42681086 0.18291897 -0.18291894
v 0.49114454 -0.0004800856 0.0004801154
v 0.3346312 0.16851586 -0.3346312
v 0.2847006 0.28470057 -0.2847006
v 0.3346312 0.3346312 -0.16851586
v 0.35959655 0.35959655 0.0004801154
v 0.45849758 -0.19636178 0.0004801154
v 0.42681086 -0.18291894 0.18291897
v 0.3346312 -0.3346312 0.16851586
v 0.2847006 -0.2847006 0.28470057
v 0.3346312 -0.16851586 0.3346312
v 0.35959655 0.0004801154 0.35959655
v 0.45849758 0.19636178 0.0004801154
v 0.42681086 0.18291897 0.18291897
v 0.3346312 0.3346312 0.16851586
v 0.2847006 0.28470057 0.28470057
v 0.3346312 0.16851586 0.3346312
v 0.45849758 0.0004801154 0.19636178
v -0.28470057 -0.2847006 -0.2847006
v -0.18291897 -0.18291894 -0.42681086
v -0.3346312 -0.16851586 -0.3346312
v -0.16851586 -0.3346312 -0.3346312
v -0.35959655 -0.0004800856 -0.35959655
v 0.0004800856 -0.35959655 -0.35959655
v -0.19636178 -0.0004800856 -0.45849758
v -0.18291897 0.18291897 -0.42681086
v 0.0004800856 -0.0004800856 -0.49114454
v -0.3346312 0.16851586 -0.3346312
v -0.28470057 0.28470057 -0.2847006
v -0.16851586 0.3346312 -0.3346312
v -0.0004801154 0.35959655 -0.35959655
v 0.0004800856 -0.19636178 -0.45849758
v 0.18291894 -0.18291894 -0.42681086
v 0.16851586 -0.3346312 -0.3346312
v 0.2847006 -0.2847006 -0.2847006
v 0.3346312 -0.16851586 -0.3346312
v 0.35959655 -0.0004800856 -0.35959655
v 0.0004800856 0.19636178 -0.45849758
v 0.18291894 0.18291897 -0.42681086
v 0.16851586 0.3346312 -0.3346312
v 0.2847006 0.28470057 -0.2847006
v 0.3346312 0.16851586 -0.3346312
v 0.19636178 -0.0004800856 -0.45849758
v -0.28470057 -0.2847006 -0.2847006
v -0.3346312 -0.16851586 -0.3346312
v -0.42681086 -0.18291894 -0.18291894
v -0.3346312 -0.3346312 -0.16851586
v -0.35959655 -0.0004800856 -0.35959655
v -0.35959655 -0.35959655 0.0004801154
v -0.45849758 -0.0004800856 -0.19636178
v -0.42681086 0.18291897 -0.18291894
v -0.49114454 -0.0004800856 -0.0004800856
v -0.3346312 0.16851586 -0.3346312
v -0.28470057 0.28470057 -0.2847006
v -0.3346312 0.3346312 -0.16851586
v -0.35959655 0.35959655 -0.0004800856
v -0.45849758 -0.19636178 -0.0004800856
v -0.42681086 -0.18291894 0.18291897
v -0.3346312 -0.3346312 0.16851586
v -0.28470057 -0.2847006 0.28470057
v -0.3346312 -0.16851586 0.3346312
v -0.35959655 -0.0004800856 0.35959655
v -0.45849758 0.19636178 -0.0004800856
v -0.42681086 0.18291897 0.18291897
v -0.3346312 0.3346312 0.16851586
v -0.28470057 0.28470057 0.28470057
v -0.3346312 0.16851586 0.3346312
v -0.45849758 -0.0004800856 0.19636178
vt 0.5377795 0.92134166
vt 0.531968 0.91940445
vt 0.531968 0.9290904
vt 0.5397167 0.9290904
vt 0.52228206 0.91746724
vt 0.5416539 0.9368391
vt 0.52228206 0.92715317
vt 0.5125962 0.9290904
vt 0.52228206 0.9368391
vt 0.5125962 0.91940445
vt 0.50484747 0.92134166
vt 0.50484747 0.9290904
vt 0.50291026 0.9368391
vt 0.531968 0.9368391
vt 0.531968 0.946525
vt 0.5397167 0.946525
vt 0.5377795 0.9542737
vt 0.531968 0.9562109
vt 0.52228206 0.9562109
vt 0.5125962 0.9368391
vt 0.5125962 0.946525
vt 0.50484747 0.946525
vt 0.50484747 0.9542737
vt 0.5125962 0.9562109
vt 0.52228206 0.946525
vt 0.5377795 0.91359293
vt 0.5397167 0.9058442
vt 0.531968 0.9058442
vt 0.531968 0.9155301
vt 0.5416539 0.8980954
vt 0.52228206 0.9155301
vt 0.531968 0.8980954
vt 0.531968 0.8884095
vt 0.52228206 0.8980954
vt 0.5397167 0.8884095
vt 0.5377795 0.8806608
vt 0.531968 0.8787236
vt 0.52228206 0.8787236
vt 0.52228206 0.9058442
vt 0.5125962 0.9058442
vt 0.5125962 0.9155301
vt 0.50484747 0.91359293
vt 0.50484747 0.9058442
vt 0.50291026 0.8980954
vt 0.52228206 0.8884095
vt 0.5125962 0.8884095
vt 0.5125962 0.8787236
vt 0.50484747 0.8806608
vt 0.50484747 0.8884095
vt 0.5125962 0.8980954
vt 0.57846034 0.9542737
vt 0.58039755 0.946525
vt 0.5726488 0.946525
vt 0.5726488 0.9562109
vt 0.58233476 0.9368391
vt 0.5629629 0.9562109
vt 0.5726488 0.9368391
vt 0.5707116 0.9290904
vt 0.5629629 0.9368391
vt 0.58039755 0.92715317
vt 0.57846034 0.92134166
vt 0.5726488 0.91940445
vt 0.5629629 0.91746724
vt 0.5629629 0.946525
vt 0.553277 0.946525
vt 0.553277 0.9562109
vt 0.5455283 0.9542737
vt 0.5435911 0.946525
vt 0.5435911 0.9368391
vt 0.5629629 0.92715317
vt 0.553277 0.9290904
vt 0.553277 0.91940445
vt 0.5455283 0.92134166
vt 0.5435911 0.92715317
vt 0.553277 0.9368391
vt 0.5862091 0.9949546
vt 0.59395784 0.98720586
vt 0.5842719 0.98720586
vt 0.59395784 0.99689174
vt 0.5842719 0.97751987
vt 0.6036437 0.99689174
vt 0.59395784 0.97751987
vt 0.59395784 0.967834
vt 0.6036437 0.97751987
vt 0.5842719 0.967834
vt 0.5862091 0.9620224
vt 0.59395784 0.9600853
vt 0.6036437 0.9581481
vt 0.6036437 0.98720586
vt 0.61139244 0.98720586
vt 0.61139244 0.99689174
vt 0.6191412 0.9949546
vt 0.6210784 0.98720586
vt 0.6230156 0.97751987
vt 0.6036437 0.967834
vt 0.61139244 0.967834
vt 0.61139244 0.9600853
vt 0.6191412 0.9620224
vt 0.6210784 0.967834
vt 0.61332965 0.97751987
vt 0.57846034 0.9620224
vt 0.5726488 0.967834
vt 0.58039755 0.967834
vt 0.5726488 0.9600853
vt 0.58233476 0.97751987
vt 0.5629629 0.9581481
vt 0.5726488 0.97751987
vt 0.5707116 0.98720586
vt 0.5629629 0.97751987
vt 0.58039755 0.98720586
vt 0.57846034 0.9949546
vt 0.5726488 0.99689174
vt 0.5629629 0.99689174
vt 0.5629629 0.967834
vt 0.553277 0.967834
vt 0.553277 0.9600853
vt 0.5455283 0.9620224
vt 0.5435911 0.967834
vt 0.5435911 0.97751987
vt 0.5629629 0.98720586
vt 0.553277 0.98720586
vt 0.553277 0.99689174
vt 0.5455283 0.9949546
vt 0.5435911 0.98720586
vt 0.553277 0.97751987
vt 0.50484747 0.9620224
vt 0.50291026 0.967834
vt 0.5125962 0.967834
vt 0.5125962 0.9600853
vt 0.50291026 0.97751987
vt 0.52228206 0.9581481
vt 0.5125962 0.97751987
vt 0.5125962 0.98720586
vt 0.52228206 0.97751987
vt 0.50484747 0.98720586
vt 0.50484747 0.9949546
vt 0.5125962 0.99689174
vt 0.52228206 0.99689174
vt 0.52228206 0.967834
vt 0.531968 0.967834
vt 0.531968 0.9600853
vt 0.5397167 0.9620224
vt 0.5397167 0.967834
vt 0.5416539 0.97751987
vt 0.52228206 0.98720586
vt 0.531968 0.98720586
vt 0.531968 0.99689174
vt 0.5377795 0.9949546
vt 0.5397167 0.98720586
vt 0.531968 0.97751987
vn -0.5872276 -0.5872276 0.5570705
vn -0.3332913 -0.65071166 0.6822692
vn -0.3332913 -0.87290585 0.35630366
vn -0.65071166 -0.65071166 0.39134216
vn -0.015871048 -0.7141957 0.6997661
vn -0.70710677 -0.70710677 -0
vn -0.015871048 -0.9363899 0.35060233
vn 0.33329135 -0.87290585 0.35630357
vn -0.015871048 -0.999874 -0.00034526698
vn 0.33329135 -0.65071166 0.68226916
vn 0.5872276 -0.5872276 0.5570705
vn 0.65071166 -0.65071166 0.39134216
vn 0.70710677 -0.70710677 -0
vn -0.36320823 -0.931708 -0
vn -0.3332913 -0.87290585 -0.35630366
vn -0.65071166 -0.65071166 -0.39134216
vn -0.5872276 -0.5872276 -0.5570705
vn -0.3332913 -0.65071166 -0.6822692
vn -0.015871048 -0.7141957 -0.6997661
vn 0.36320817 -0.931708 -0
vn 0.33329135 -0.87290585 -0.35630357
vn 0.65071166 -0.65071166 -0.39134216
vn 0.5872276 -0.5872276 -0.5570705
vn 0.33329135 -0.65071166 -0.68226916
vn -0.015871048 -0.9363899 -0.35060233
vn -0.5872276 0.5872276 0.5570705
vn -0.65071166 0.65071166 0.39134216
vn -0.3332913 0.87290585 0.35630366
vn -0.3332913 0.65071166 0.6822692
vn -0.70710677 0.70710677 -0
vn -0.015871048 0.7141957 0.6997661
vn -0.36320823 0.931708 -0
vn -0.3332913 0.87290585 -0.35630366
vn -0.015871048 0.999874 -0.00034526698
vn -0.65071166 0.65071166 -0.39134216
vn -0.5872276 0.5872276 -0.5570705
vn -0.3332913 0.65071166 -0.6822692
vn -0.015871048 0.7141957 -0.6997661
vn -0.015871048 0.9363899 0.35060233
vn 0.33329135 0.87290585 0.35630357
vn 0.33329135 0.65071166 0.68226916
vn 0.5872276 0.5872276 0.5570705
vn 0.65071166 0.65071166 0.39134216
vn 0.70710677 0.70710677 -0
vn -0.015871048 0.9363899 -0.35060233
vn 0.33329135 0.87290585 -0.35630357
vn 0.33329135 0.65071166 -0.68226916
vn 0.5872276 0.5872276 -0.5570705
vn 0.65071166 0.65071166 -0.39134216
vn 0.36320817 0.931708 -0
vn -0.5872276 -0.5872276 0.5570705
vn -0.65071166 -0.33329135 0.68226916
vn -0.3332913 -0.33329135 0.8819488
vn -0.3332913 -0.65071166 0.6822692
vn -0.7141957 0.015871048 0.6997661
vn -0.015871048 -0.7141957 0.6997661
vn -0.3650334 0.015871048 0.93085915
vn -0.3332913 0.3332913 0.8819489
vn -0.015871048 0.015871048 0.99974805
vn -0.65071166 0.3332913 0.68226916
vn -0.5872276 0.5872276 0.5570705
vn -0.3332913 0.65071166 0.6822692
vn -0.015871048 0.7141957 0.6997661
vn -0.015871048 -0.36503333 0.93085915
vn 0.33329135 -0.33329135 0.8819488
vn 0.33329135 -0.65071166 0.68226916
vn 0.5872276 -0.5872276 0.5570705
vn 0.65071166 -0.33329135 0.68226916
vn 0.7141957 0.015871048 0.6997661
vn -0.015871048 0.3650334 0.93085915
vn 0.33329135 0.3332913 0.8819488
vn 0.33329135 0.65071166 0.68226916
vn 0.5872276 0.5872276 0.5570705
vn 0.65071166 0.3332913 0.68226916
vn 0.36503333 0.015871048 0.93085915
vn 0.5872276 -0.5872276 -0.5570705
vn 0.87290585 -0.33329135 -0.3563036
vn 0.65071166 -0.33329135 -0.68226916
vn 0.65071166 -0.65071166 -0.39134216
vn 0.7141957 0.015871048 -0.6997661
vn 0.70710677 -0.70710677 -0
vn 0.9363899 0.015871048 -0.35060233
vn 0.87290585 0.3332913 -0.35630366
vn 0.999874 0.015871048 -0.00034391563
vn 0.65071166 0.3332913 -0.68226916
vn 0.5872276 0.5872276 -0.5570705
vn 0.65071166 0.65071166 -0.39134216
vn 0.70710677 0.70710677 -0
vn 0.931708 -0.36320817 -0
vn 0.87290585 -0.33329135 0.3563036
vn 0.65071166 -0.65071166 0.39134216
vn 0.5872276 -0.5872276 0.5570705
vn 0.65071166 -0.33329135 0.68226916
vn 0.7141957 0.015871048 0.6997661
vn 0.931708 0.36320823 -0
vn 0.87290585 0.3332913 0.35630366
vn 0.65071166 0.65071166 0.39134216
vn 0.5872276 0.5872276 0.5570705
vn 0.65071166 0.3332913 0.68226916
vn 0.9363899 0.015871048 0.35060233
vn -0.5872276 -0.5872276 -0.5570705
vn -0.3332913 -0.33329135 -0.8819488
vn -0.65071166 -0.33329135 -0.68226916
vn -0.3332913 -0.65071166 -0.6822692
vn -0.7141957 -0.015870988 -0.6997661
vn -0.015871048 -0.7141957 -0.6997661
vn -0.3650334 -0.015870988 -0.93085915
vn -0.3332913 0.3332913 -0.8819489
vn -0.015871048 -0.015870988 -0.99974805
vn -0.65071166 0.3332913 -0.68226916
vn -0.5872276 0.5872276 -0.5570705
vn -0.3332913 0.65071166 -0.6822692
vn -0.015871048 0.7141957 -0.6997661
vn -0.015871048 -0.36503333 -0.93085915
vn 0.33329135 -0.33329135 -0.8819488
vn 0.33329135 -0.65071166 -0.68226916
vn 0.5872276 -0.5872276 -0.5570705
vn 0.65071166 -0.33329135 -0.68226916
vn 0.7141957 0.015871048 -0.6997661
vn -0.015871048 0.3650334 -0.93085915
vn 0.33329135 0.3332913 -0.8819488
vn 0.33329135 0.65071166 -0.68226916
vn 0.5872276 0.5872276 -0.5570705
vn 0.65071166 0.3332913 -0.68226916
vn 0.36503333 0.015871048 -0.93085915
vn -0.5872276 -0.5872276 -0.5570705
vn -0.65071166 -0.33329135 -0.68226916
vn -0.87290585 -0.33329135 -0.3563036
vn -0.65071166 -0.65071166 -0.39134216
vn -0.7141957 -0.015870988 -0.6997661
vn -0.70710677 -0.70710677 -0
vn -0.9363899 0.015871048 -0.35060233
vn -0.87290585 0.3332913 -0.35630366
vn -0.999874 0.015871048 -0.00034391563
vn -0.65071166 0.3332913 -0.68226916
vn -0.5872276 0.5872276 -0.5570705
vn -0.65071166 0.65071166 -0.39134216
vn -0.70710677 0.70710677 -0
vn -0.931708 -0.36320817 -0
vn -0.87290585 -0.33329135 0.3563036
vn -0.65071166 -0.65071166 0.39134216
vn -0.5872276 -0.5872276 0.5570705
vn -0.65071166 -0.33329135 0.68226916
vn -0.7141957 0.015871048 0.6997661
vn -0.931708 0.36320823 -0
vn -0.87290585 0.3332913 0.35630366
vn -0.65071166 0.65071166 0.39134216
vn -0.5872276 0.5872276 0.5570705
vn -0.65071166 0.3332913 0.68226916
vn -0.9363899 0.015871048 0.35060233
g ball_0
f 3/3/3 2/2/2 1/1/1
f 4/4/4 3/3/3 1/1/1
f 2/2/2 3/3/3 5/5/5
f 3/3/3 4/4/4 6/6/6
f 3/3/3 7/7/7 5/5/5
f 7/7/7 8/8/8 5/5/5
f 7/7/7 3/3/3 9/9/9
f 8/8/8 7/7/7 9/9/9
f 8/8/8 10/10/10 5/5/5
f 10/10/10 8/8/8 11/11/11
f 8/8/8 12/12/12 11/11/11
f 12/12/12 8/8/8 13/13/13
f 14/14/14 3/3/3 6/6/6
f 3/3/3 14/14/14 9/9/9
f 15/15/15 14/14/14 6/6/6
f 14/14/14 15/15/15 9/9/9
f 16/16/16 15/15/15 6/6/6
f 15/15/15 16/16/16 17/17/17
f 18/18/18 15/15/15 17/17/17
f 15/15/15 18/18/18 19/19/19
f 8/8/8 20/20/20 13/13/13
f 20/20/20 8/8/8 9/9/9
f 20/20/20 21/21/21 13/13/13
f 21/21/21 20/20/20 9/9/9
f 21/21/21 22/22/22 13/13/13
f 22/22/22 21/21/21 23/23/23
f 21/21/21 24/24/24 23/23/23
f 24/24/24 21/21/21 19/19/19
f 25/25/25 15/15/15 19/19/19
f 15/15/15 25/25/25 9/9/9
f 25/25/25 21/21/21 9/9/9
f 21/21/21 25/25/25 19/19/19
f 28/28/28 27/27/27 26/26/26
f 29/29/29 28/28/28 26/26/26
f 27/27/27 28/28/28 30/30/30
f 28/28/28 29/29/29 31/31/31
f 28/28/28 32/32/32 30/30/30
f 32/32/32 33/33/33 30/30/30
f 32/32/32 28/28/28 34/34/34
f 33/33/33 32/32/32 34/34/34
f 33/33/33 35/35/35 30/30/30
f 35/35/35 33/33/33 36/36/36
f 33/33/33 37/37/37 36/36/36
f 37/37/37 33/33/33 38/38/38
f 39/39/39 28/28/28 31/31/31
f 28/28/28 39/39/39 34/34/34
f 40/40/40 39/39/39 31/31/31
f 39/39/39 40/40/40 34/34/34
f 41/41/41 40/40/40 31/31/31
f 40/40/40 41/41/41 42/42/42
f 43/43/43 40/40/40 42/42/42
f 40/40/40 43/43/43 44/44/44
f 33/33/33 45/45/45 38/38/38
f 45/45/45 33/33/33 34/34/34
f 45/45/45 46/46/46 38/38/38
f 46/46/46 45/45/45 34/34/34
f 46/46/46 47/47/47 38/38/38
f 47/47/47 46/46/46 48/48/48
f 46/46/46 49/49/49 48/48/48
f 49/49/49 46/46/46 44/44/44
f 50/50/50 40/40/40 44/44/44
f 40/40/40 50/50/50 34/34/34
f 50/50/50 46/46/46 34/34/34
f 46/46/46 50/50/50 44/44/44
f 53/53/53 52/52/52 51/51/51
f 54/54/54 53/53/53 51/51/51
f 52/52/52 53/53/53 55/55/55
f 53/53/53 54/54/54 56/56/56
f 53/53/53 57/57/57 55/55/55
f 57/57/57 58/58/58 55/55/55
f 57/57/57 53/53/53 59/59/59
f 58/58/58 57/57/57 59/59/59
f 58/58/58 60/60/60 55/55/55
f 60/60/60 58/58/58 61/61/61
f 58/58/58 62/62/62 61/61/61
f 62/62/62 58/58/58 63/63/63
f 64/64/64 53/53/53 56/56/56
f 53/53/53 64/64/64 59/59/59
f 65/65/65 64/64/64 56/56/56
f 64/64/64 65/65/65 59/59/59
f 66/66/66 65/65/65 56/56/56
f 65/65/65 66/66/66 67/67/67
f 68/68/68 65/65/65 67/67/67
f 65/65/65 68/68/68 69/69/69
f 58/58/58 70/70/70 63/63/63
f 70/70/70 58/58/58 59/59/59
f 70/70/70 71/71/71 63/63/63
f 71/71/71 70/70/70 59/59/59
f 71/71/71 72/72/72 63/63/63
f 72/72/72 71/71/71 73/73/73
f 71/71/71 74/74/74 73/73/73
f 74/74/74 71/71/71 69/69/69
f 75/75/75 65/65/65 69/69/69
f 65/65/65 75/75/75 59/59/59
f 75/75/75 71/71/71 59/59/59
f 71/71/71 75/75/75 69/69/69
f 78/78/78 77/77/77 76/76/76
f 77/77/77 79/79/79 76/76/76
f 77/77/77 78/78/78 80/80/80
f 79/79/79 77/77/77 81/81/81
f 82/82/82 77/77/77 80/80/80
f 83/83/83 82/82/82 80/80/80
f 77/77/77 82/82/82 84/84/84
f 82/82/82 83/83/83 84/84/84
f 85/85/85 83/83/83 80/80/80
f 83/83/83 85/85/85 86/86/86
f 87/87/87 83/83/83 86/86/86
f 83/83/83 87/87/87 88/88/88
f 77/77/77 89/89/89 81/81/81
f 89/89/89 77/77/77 84/84/84
f 89/89/89 90/90/90 81/81/81
f 90/90/90 89/89/89 84/84/84
f 90/90/90 91/91/91 81/81/81
f 91/91/91 90/90/90 92/92/92
f 90/90/90 93/93/93 92/92/92
f 93/93/93 90/90/90 94/94/94
f 95/95/95 83/83/83 88/88/88
f 83/83/83 95/95/95 84/84/84
f 96/96/96 95/95/95 88/88/88
f 95/95/95 96/96/96 84/84/84
f 97/97/97 96/96/96 88/88/88
f 96/96/96 97/97/97 98/98/98
f 99/99/99 96/96/96 98/98/98
f 96/96/96 99/99/99 94/94/94
f 100/100/100 90/90/90 84/84/84
f 90/90/90 100/100/100 94/94/94
f 100/100/100 96/96/96 94/94/94
f 96/96/96 100/100/100 84/84/84
f 103/103/103 102/102/102 101/101/101
f 102/102/102 104/104/104 101/101/101
f 102/102/102 103/103/103 105/105/105
f 104/104/104 102/102/102 106/106/106
f 107/107/107 102/102/102 105/105/105
f 108/108/108 107/107/107 105/105/105
f 102/102/102 107/107/107 109/109/109
f 107/107/107 108/108/108 109/109/109
f 110/110/110 108/108/108 105/105/105
f 108/108/108 110/110/110 111/111/111
f 112/112/112 108/108/108 111/111/111
f 108/108/108 112/112/112 113/113/113
f 102/102/102 114/114/114 106/106/106
f 114/114/114 102/102/102 109/109/109
f 114/114/114 115/115/115 106/106/106
f 115/115/115 114/114/114 109/109/109
f 115/115/115 116/116/116 106/106/106
f 116/116/116 115/115/115 117/117/117
f 115/115/115 118/118/118 117/117/117
f 118/118/118 115/115/115 119/119/119
f 120/120/120 108/108/108 113/113/113
f 108/108/108 120/120/120 109/109/109
f 121/121/121 120/120/120 113/113/113
f 120/120/120 121/121/121 109/109/109
f 122/122/122 121/121/121 113/113/113
f 121/121/121 122/122/122 123/123/123
f 124/124/124 121/121/121 123/123/123
f 121/121/121 124/124/124 119/119/119
f 125/125/125 115/115/115 109/109/109
f 115/115/115 125/125/125 119/119/119
f 125/125/125 121/121/121 119/119/119
f 121/121/121 125/125/125 109/109/109
f 128/128/128 127/127/127 126/126/126
f 129/129/129 128/128/128 126/126/126
f 127/127/127 128/128/128 130/130/130
f 128/128/128 129/129/129 131/131/131
f 128/128/128 132/132/132 130/130/130
f 132/132/132 133/133/133 130/130/130
f 132/132/132 128/128/128 134/134/134
f 133/133/133 132/132/132 134/134/134
f 133/133/133 135/135/135 130/130/130
f 135/135/135 133/133/133 136/136/136
f 133/133/133 137/137/137 136/136/136
f 137/137/137 133/133/133 138/138/138
f 139/139/139 128/128/128 131/131/131
f 128/128/128 139/139/139 134/134/134
f 140/140/140 139/139/139 131/131/131
f 139/139/139 140/140/140 134/134/134
f 141/141/141 140/140/140 131/131/131
f 140/140/140 141/141/141 142/142/142
f 143/143/143 140/140/140 142/142/142
f 140/140/140 143/143/143 144/144/144
f 133/133/133 145/145/145 138/138/138
f 145/145/145 133/133/133 134/134/134
f 145/145/145 146/146/146 138/138/138
f 146/146/146 145/145/145 134/134/134
f 146/146/146 147/147/147 138/138/138
f 147/147/147 146/146/146 148/148/148
f 146/146/146 149/149/149 148/148/148
f 149/149/149 146/146/146 144/144/144
f 150/150/150 140/140/140 144/144/144
f 140/140/140 150/150/150 134/134/134
f 150/150/150 146/146/146 134/134/134
f 146/146/146 150/150/150 144/144/144
