g banana
v -0.25786787 0.39715528 -0.00029414892
v -0.22664827 0.26627314 0.11137593
v -0.27707988 0.39235222 0.033326924
v -0.16901207 0.2794814 -0.00029414892
v -0.14259553 0.101769865 0.18462187
v -0.059743524 0.144997 -0.00029414892
v -0.042932987 -0.043521285 0.19903094
v 0.035116017 0.016516387 -0.00029414892
v 0.098755956 -0.15999436 0.19542867
v 0.1623959 -0.08914995 -0.00029414892
v 0.28247124 -0.24044487 0.17261434
v 0.32329687 -0.16839963 -0.00029414892
v 0.46138352 -0.27526674 0.13779247
v 0.47339106 -0.2092253 -0.00029414892
v 0.6138792 -0.2368426 0.05494052
v 0.60787547 -0.21282753 -0.00029414892
v 0.6462996 -0.22123283 0.05013746
v 0.6354928 -0.20082 -0.00029414892
v -0.27707988 0.39235222 -0.03391528
v -0.16901207 0.2794814 -0.00029414892
v -0.25786787 0.39715528 -0.00029414892
v -0.22664827 0.26627314 -0.11076349
v -0.059743524 0.144997 -0.00029414892
v -0.14259553 0.101769865 -0.18400946
v 0.035116017 0.016516387 -0.00029414892
v -0.042932987 -0.043521285 -0.19961926
v 0.1623959 -0.08914995 -0.00029414892
v 0.098755956 -0.15999436 -0.196017
v 0.32329687 -0.16839963 -0.00029414892
v 0.28247124 -0.24044487 -0.1720019
v 0.47339106 -0.2092253 -0.00029414892
v 0.46138352 -0.27526674 -0.13838083
v 0.60787547 -0.21282753 -0.00029414892
v 0.6138792 -0.2368426 -0.054328084
v 0.6354928 -0.20082 -0.00029414892
v 0.6462996 -0.22123283 -0.049525082
v -0.32871234 0.54724944 0.064546525
v -0.33591688 0.38034475 -0.00029414892
v -0.3647349 0.54845023 -0.00029414892
v -0.31670475 0.383947 0.03212619
v -0.3947537 0.227849 -0.00029414892
v -0.33951914 0.23985654 0.10537213
v -0.38754928 -0.024309218 -0.00029414892
v -0.305898 0.017717123 0.17981887
v -0.27707988 -0.22603583 -0.00029414892
v -0.19903094 -0.16599816 0.19903094
v -0.09216386 -0.371327 -0.00029414892
v -0.028523922 -0.30048254 0.19422793
v 0.1623959 -0.454179 -0.00029414892
v 0.20202076 -0.38333455 0.1654098
v 0.42776242 -0.4697888 -0.00029414892
v 0.4385692 -0.40614885 0.1245842
v 0.63429207 -0.30888784 -0.00029414892
v 0.62708753 -0.28487277 0.051338255
v 0.6799207 -0.283672 -0.00029414892
v 0.6691139 -0.2632592 0.05013746
v -0.25546634 0.54484797 0.064546525
v -0.31670475 0.383947 0.03212619
v -0.32871234 0.54724944 0.064546525
v -0.27707988 0.39235222 0.033326924
v -0.33951914 0.23985654 0.10537213
v -0.22664827 0.26627314 0.11137593
v -0.305898 0.017717123 0.17981887
v -0.14259553 0.101769865 0.18462187
v -0.19903094 -0.16599816 0.19903094
v -0.042932987 -0.043521285 0.19903094
v -0.028523922 -0.30048254 0.19422793
v 0.098755956 -0.15999436 0.19542867
v 0.20202076 -0.38333455 0.1654098
v 0.28247124 -0.24044487 0.17261434
v 0.4385692 -0.40614885 0.1245842
v 0.46138352 -0.27526674 0.13779247
v 0.62708753 -0.28487277 0.051338255
v 0.6138792 -0.2368426 0.05494052
v 0.6691139 -0.2632592 0.05013746
v 0.6462996 -0.22123283 0.05013746
v -0.27707988 0.39235222 0.033326924
v -0.218243 0.54364717 -0.00029414892
v -0.25786787 0.39715528 -0.00029414892
v -0.25546634 0.54484797 0.064546525
v -0.25786787 0.39715528 -0.00029414892
v -0.25546634 0.54484797 -0.06513488
v -0.27707988 0.39235222 -0.03391528
v -0.218243 0.54364717 -0.00029414892
v -0.32871234 0.54724944 -0.06513488
v -0.27707988 0.39235222 -0.03391528
v -0.25546634 0.54484797 -0.06513488
v -0.31670475 0.383947 -0.032714486
v -0.22664827 0.26627314 -0.11076349
v -0.33951914 0.23985654 -0.10475975
v -0.14259553 0.101769865 -0.18400946
v -0.305898 0.017717123 -0.1804072
v -0.042932987 -0.043521285 -0.19961926
v -0.19903094 -0.16599816 -0.19961926
v 0.098755956 -0.15999436 -0.196017
v -0.028523922 -0.30048254 -0.19481623
v 0.28247124 -0.24044487 -0.1720019
v 0.20202076 -0.38333455 -0.16599816
v 0.46138352 -0.27526674 -0.13838083
v 0.4385692 -0.40614885 -0.12517256
v 0.6138792 -0.2368426 -0.054328084
v 0.62708753 -0.28487277 -0.051926553
v 0.6462996 -0.22123283 -0.049525082
v 0.6691139 -0.2632592 -0.049525082
v -0.3647349 0.54845023 -0.00029414892
v -0.31670475 0.383947 -0.032714486
v -0.32871234 0.54724944 -0.06513488
v -0.33591688 0.38034475 -0.00029414892
v -0.33951914 0.23985654 -0.10475975
v -0.3947537 0.227849 -0.00029414892
v -0.305898 0.017717123 -0.1804072
v -0.38754928 -0.024309218 -0.00029414892
v -0.19903094 -0.16599816 -0.19961926
v -0.27707988 -0.22603583 -0.00029414892
v -0.028523922 -0.30048254 -0.19481623
v -0.09216386 -0.371327 -0.00029414892
v 0.20202076 -0.38333455 -0.16599816
v 0.1623959 -0.454179 -0.00029414892
v 0.4385692 -0.40614885 -0.12517256
v 0.42776242 -0.4697888 -0.00029414892
v 0.62708753 -0.28487277 -0.051926553
v 0.63429207 -0.30888784 -0.00029414892
v 0.6691139 -0.2632592 -0.049525082
v 0.6799207 -0.283672 -0.00029414892
v -0.25546634 0.54484797 0.064546525
v -0.25546634 0.54484797 -0.06513488
v -0.218243 0.54364717 -0.00029414892
v -0.3647349 0.54845023 -0.00029414892
v -0.32871234 0.54724944 0.064546525
v -0.32871234 0.54724944 -0.06513488
v 0.6691139 -0.2632592 -0.049525082
v 0.6354928 -0.20082 -0.00029414892
v 0.6462996 -0.22123283 -0.049525082
v 0.6691139 -0.2632592 0.05013746
v 0.6799207 -0.283672 -0.00029414892
v 0.6462996 -0.22123283 0.05013746
vt 0.14647658 0.8229651
vt 0.15225853 0.8114012
vt 0.1435856 0.82007414
vt 0.1551495 0.82007414
vt 0.16093147 0.80561924
vt 0.16960439 0.8142922
vt 0.17249537 0.79694635
vt 0.1811683 0.80851024
vt 0.18695025 0.79116434
vt 0.19273221 0.8027283
vt 0.20140514 0.7882734
vt 0.20718709 0.7998373
vt 0.21586001 0.7853824
vt 0.218751 0.79694635
vt 0.23031491 0.7882734
vt 0.23031491 0.79405534
vt 0.23320588 0.7882734
vt 0.23320588 0.79405534
vt 0.1551495 0.84609294
vt 0.16382244 0.83742
vt 0.1551495 0.84320194
vt 0.16671342 0.84609294
vt 0.17538634 0.83163804
vt 0.17827733 0.84320194
vt 0.18695025 0.8258561
vt 0.19273221 0.840311
vt 0.20140514 0.82007414
vt 0.20429611 0.83452904
vt 0.21296903 0.8142922
vt 0.218751 0.8258561
vt 0.22453295 0.80561924
vt 0.23031491 0.81718314
vt 0.23320588 0.7998373
vt 0.23609686 0.8027283
vt 0.23609686 0.79694635
vt 0.23898783 0.7998373
vt 0.1320217 0.82874703
vt 0.13780364 0.81718314
vt 0.12913072 0.8258561
vt 0.14069463 0.81718314
vt 0.13780364 0.80561924
vt 0.14647658 0.80851024
vt 0.14647658 0.7882734
vt 0.1551495 0.79405534
vt 0.1580405 0.7767095
vt 0.16671342 0.7853824
vt 0.17538634 0.76803654
vt 0.1811683 0.77960044
vt 0.19562319 0.7651456
vt 0.19851416 0.7767095
vt 0.21586001 0.76803654
vt 0.21586001 0.7767095
vt 0.23320588 0.77960044
vt 0.23031491 0.7853824
vt 0.23609686 0.78249145
vt 0.23609686 0.7853824
vt 0.13780364 0.83163804
vt 0.14069463 0.81718314
vt 0.1320217 0.82874703
vt 0.1435856 0.82007414
vt 0.14647658 0.80851024
vt 0.15225853 0.8114012
vt 0.1551495 0.79405534
vt 0.16093147 0.80561924
vt 0.16671342 0.7853824
vt 0.17249537 0.79694635
vt 0.1811683 0.77960044
vt 0.18695025 0.79116434
vt 0.19851416 0.7767095
vt 0.20140514 0.7882734
vt 0.21586001 0.7767095
vt 0.21586001 0.7853824
vt 0.23031491 0.7853824
vt 0.23031491 0.7882734
vt 0.23609686 0.7853824
vt 0.23320588 0.7882734
vt 0.1435856 0.82007414
vt 0.1435856 0.83163804
vt 0.14647658 0.8229651
vt 0.13780364 0.83163804
vt 0.1551495 0.84320194
vt 0.1435856 0.84320194
vt 0.1551495 0.84609294
vt 0.14647658 0.83742
vt 0.1435856 0.84609294
vt 0.1551495 0.84609294
vt 0.1435856 0.84320194
vt 0.1551495 0.8489839
vt 0.16671342 0.84609294
vt 0.16671342 0.8518749
vt 0.17827733 0.84320194
vt 0.1811683 0.85476583
vt 0.19273221 0.840311
vt 0.19562319 0.8518749
vt 0.20429611 0.83452904
vt 0.21007806 0.84609294
vt 0.218751 0.8258561
vt 0.22453295 0.83452904
vt 0.23031491 0.81718314
vt 0.23609686 0.8229651
vt 0.23609686 0.8027283
vt 0.24187881 0.80561924
vt 0.23898783 0.7998373
vt 0.24187881 0.8027283
vt 0.14069463 0.8518749
vt 0.1551495 0.8489839
vt 0.1435856 0.84609294
vt 0.1551495 0.8518749
vt 0.16671342 0.8518749
vt 0.16382244 0.8605478
vt 0.1811683 0.85476583
vt 0.1811683 0.8663297
vt 0.19562319 0.8518749
vt 0.19851416 0.8634388
vt 0.21007806 0.84609294
vt 0.21586001 0.85765684
vt 0.22453295 0.83452904
vt 0.23031491 0.84320194
vt 0.23609686 0.8229651
vt 0.24476978 0.82874703
vt 0.24187881 0.80561924
vt 0.24476978 0.80851024
vt 0.24187881 0.8027283
vt 0.24766076 0.8027283
vt 0.1435856 0.77960044
vt 0.13491267 0.77960044
vt 0.13780364 0.78249145
vt 0.13780364 0.77092755
vt 0.1435856 0.7738185
vt 0.13491267 0.7738185
vt 0.1435856 0.7651456
vt 0.1435856 0.75936365
vt 0.14069463 0.7622546
vt 0.14936756 0.7622546
vt 0.14647658 0.7651456
vt 0.14936756 0.75936365
vn 0.699213 0.55891025 0.44578072
vn 0.699213 0.55891025 0.44578072
vn 0.66775995 0.55891025 0.49164617
vn 0.699213 0.55891025 0.44578072
vn 0.699213 0.55891025 0.44578072
vn 0.699213 0.55891025 0.44578072
vn 0.6363069 0.6218164 0.45657188
vn 0.6363069 0.6218164 0.45657188
vn 0.51049453 0.7476287 0.42479017
vn 0.47904146 0.7476287 0.45996806
vn 0.35322917 0.84198797 0.40778112
vn 0.32177603 0.84198797 0.4330317
vn 0.16451067 0.873441 0.458298
vn 0.1330576 0.9048941 0.40430477
vn -0.11856711 0.9048941 0.40878904
vn -0.15002012 0.9048941 0.39832222
vn -0.33873868 0.84198797 0.41989568
vn -0.3701917 0.84198797 0.3924466
vn 0.699213 0.5274571 -0.48258692
vn 0.699213 0.55891025 -0.44578072
vn 0.699213 0.5274571 -0.48258692
vn 0.699213 0.55891025 -0.44578072
vn 0.699213 0.55891025 -0.44578072
vn 0.699213 0.55891025 -0.44578072
vn 0.6363069 0.6218164 -0.45657188
vn 0.6363069 0.6218164 -0.45657188
vn 0.47904146 0.7476287 -0.45996806
vn 0.51049453 0.7476287 -0.42479017
vn 0.32177603 0.84198797 -0.4330317
vn 0.35322917 0.84198797 -0.40778112
vn 0.1330576 0.9048941 -0.40430477
vn 0.16451067 0.873441 -0.458298
vn -0.18147326 0.873441 -0.45184988
vn -0.15002012 0.9048941 -0.39832222
vn -0.3701917 0.84198797 -0.3924466
vn -0.33873868 0.84198797 -0.41989568
vn -0.873441 -0.16451067 0.45829803
vn -0.9930339 0.117829144 -0
vn -0.9867173 -0.16244683 -0
vn -0.873441 0.08711398 0.4790741
vn -0.98891723 0.14846835 -0
vn -0.9048941 0.15002012 0.39832222
vn -0.9660384 -0.25839862 -0
vn -0.873441 -0.22741681 0.4305606
vn -0.7745045 -0.6325685 -0
vn -0.68472254 -0.57340074 0.4498518
vn -0.46357158 -0.8860595 -0
vn -0.40164483 -0.79357225 0.45708263
vn -0.18147326 -0.98229074 -0.046608485
vn -0.15002012 -0.8879315 0.43482357
vn 0.2588699 -0.9508377 -0.16998272
vn 0.29032296 -0.85647845 0.42679888
vn 0.570709 -0.8211523 -0
vn 0.51049453 -0.7306661 0.45334575
vn 0.47481003 -0.8800883 -0
vn 0.44758838 -0.79357225 0.4121986
vn 0.0072452426 -0.19596374 0.9805844
vn -0.055660963 0.18147326 0.9818194
vn 0.0072452426 -0.19596374 0.9805844
vn -0.055660963 0.11856711 0.99138474
vn -0.11856711 0.3701917 0.9213577
vn -0.15002012 0.3701917 0.91676176
vn -0.11856711 0.18147326 0.976222
vn -0.11856711 0.18147326 0.976222
vn -0.02420783 0.02420783 0.9994138
vn -0.02420783 0.02420783 0.9994138
vn 0.038698316 -0.038698316 0.9985013
vn 0.07015139 -0.07015139 0.99506664
vn 0.10160452 -0.10160452 0.9896227
vn 0.1330576 -0.10160452 0.9858865
vn 0.2588699 -0.1330576 0.9567038
vn 0.32177603 -0.1330576 0.9374198
vn 0.29032296 -0.038698316 0.95614594
vn 0.29032296 0.02420783 0.9566225
vn 0.10160452 -0.0072452426 0.9947985
vn 0.1330576 0.055660963 0.9895441
vn 0.85647845 -0.22741681 0.46338567
vn 0.85647845 -0.22741681 0.46338567
vn 0.85647845 -0.22741681 0.46338567
vn 0.85647845 -0.22741681 0.46338567
vn 0.85647845 -0.22741681 -0.46338567
vn 0.85647845 -0.22741681 -0.46338567
vn 0.85647845 -0.22741681 -0.46338567
vn 0.85647845 -0.22741681 -0.46338567
vn 0.0072452426 -0.19596374 -0.9805844
vn -0.055660963 0.11856711 -0.99138474
vn 0.0072452426 -0.19596374 -0.9805844
vn -0.08711398 0.21292627 -0.973177
vn -0.15002012 0.40164483 -0.9034242
vn -0.15002012 0.3701917 -0.91676176
vn -0.11856711 0.18147326 -0.976222
vn -0.11856711 0.18147326 -0.976222
vn -0.02420783 0.02420783 -0.9994138
vn -0.02420783 0.02420783 -0.9994138
vn 0.038698316 -0.07015139 -0.99678546
vn 0.038698316 -0.038698316 -0.9985013
vn 0.1330576 -0.1330576 -0.98213613
vn 0.1330576 -0.10160452 -0.9858865
vn 0.35322917 -0.16451067 -0.92095894
vn 0.2588699 -0.1330576 -0.9567038
vn 0.29032296 -0.038698316 -0.95614594
vn 0.22741681 0.02420783 -0.97349656
vn 0.10160452 -0.0072452426 -0.9947985
vn 0.038698316 0.02420783 -0.99895763
vn -0.9867173 -0.16244683 -0
vn -0.873441 0.11856711 -0.47227395
vn -0.873441 -0.16451067 -0.45829803
vn -0.9930339 0.117829144 -0
vn -0.873441 0.15002012 -0.46324378
vn -0.98891723 0.14846835 -0
vn -0.873441 -0.22741681 -0.4305606
vn -0.9660384 -0.25839862 -0
vn -0.68472254 -0.57340074 -0.4498518
vn -0.7745045 -0.6325685 -0
vn -0.40164483 -0.79357225 -0.45708263
vn -0.46357158 -0.8860595 -0
vn -0.15002012 -0.8879315 -0.43482357
vn -0.18147326 -0.98229074 -0.046608485
vn 0.29032296 -0.85647845 -0.42679888
vn 0.2588699 -0.9508377 -0.16998272
vn 0.51049453 -0.7621192 -0.3982081
vn 0.570709 -0.8211523 -0
vn 0.44758838 -0.79357225 -0.4121986
vn 0.47481003 -0.8800883 -0
vn 0.038698226 0.999251 -0
vn 0.038698226 0.999251 -0
vn 0.038698226 0.999251 -0
vn 0.038698226 0.999251 -0
vn 0.038698226 0.999251 -0
vn 0.038698226 0.999251 -0
vn 0.8860595 0.46357158 -0
vn 0.8860595 0.46357158 -0
vn 0.8860595 0.46357158 -0
vn 0.8860595 0.46357158 -0
vn 0.8860595 0.46357158 -0
vn 0.8860595 0.46357158 -0
g banana_0
f 3/3/3 2/2/2 1/1/1
f 4/4/4 1/1/1 2/2/2
f 2/2/2 5/5/5 4/4/4
f 6/6/6 4/4/4 5/5/5
f 5/5/5 7/7/7 6/6/6
f 8/8/8 6/6/6 7/7/7
f 7/7/7 9/9/9 8/8/8
f 10/10/10 8/8/8 9/9/9
f 9/9/9 11/11/11 10/10/10
f 12/12/12 10/10/10 11/11/11
f 11/11/11 13/13/13 12/12/12
f 14/14/14 12/12/12 13/13/13
f 13/13/13 15/15/15 14/14/14
f 16/16/16 14/14/14 15/15/15
f 15/15/15 17/17/17 16/16/16
f 18/18/18 16/16/16 17/17/17
f 21/21/21 20/20/20 19/19/19
f 22/22/22 19/19/19 20/20/20
f 20/20/20 23/23/23 22/22/22
f 24/24/24 22/22/22 23/23/23
f 23/23/23 25/25/25 24/24/24
f 26/26/26 24/24/24 25/25/25
f 25/25/25 27/27/27 26/26/26
f 28/28/28 26/26/26 27/27/27
f 27/27/27 29/29/29 28/28/28
f 30/30/30 28/28/28 29/29/29
f 29/29/29 31/31/31 30/30/30
f 32/32/32 30/30/30 31/31/31
f 31/31/31 33/33/33 32/32/32
f 34/34/34 32/32/32 33/33/33
f 33/33/33 35/35/35 34/34/34
f 36/36/36 34/34/34 35/35/35
f 39/39/39 38/38/38 37/37/37
f 40/40/40 37/37/37 38/38/38
f 38/38/38 41/41/41 40/40/40
f 42/42/42 40/40/40 41/41/41
f 41/41/41 43/43/43 42/42/42
f 44/44/44 42/42/42 43/43/43
f 43/43/43 45/45/45 44/44/44
f 46/46/46 44/44/44 45/45/45
f 45/45/45 47/47/47 46/46/46
f 48/48/48 46/46/46 47/47/47
f 47/47/47 49/49/49 48/48/48
f 50/50/50 48/48/48 49/49/49
f 49/49/49 51/51/51 50/50/50
f 52/52/52 50/50/50 51/51/51
f 51/51/51 53/53/53 52/52/52
f 54/54/54 52/52/52 53/53/53
f 53/53/53 55/55/55 54/54/54
f 56/56/56 54/54/54 55/55/55
f 59/59/59 58/58/58 57/57/57
f 60/60/60 57/57/57 58/58/58
f 58/58/58 61/61/61 60/60/60
f 62/62/62 60/60/60 61/61/61
f 61/61/61 63/63/63 62/62/62
f 64/64/64 62/62/62 63/63/63
f 63/63/63 65/65/65 64/64/64
f 66/66/66 64/64/64 65/65/65
f 65/65/65 67/67/67 66/66/66
f 68/68/68 66/66/66 67/67/67
f 67/67/67 69/69/69 68/68/68
f 70/70/70 68/68/68 69/69/69
f 69/69/69 71/71/71 70/70/70
f 72/72/72 70/70/70 71/71/71
f 71/71/71 73/73/73 72/72/72
f 74/74/74 72/72/72 73/73/73
f 73/73/73 75/75/75 74/74/74
f 76/76/76 74/74/74 75/75/75
f 79/79/79 78/78/78 77/77/77
f 80/80/80 77/77/77 78/78/78
f 83/83/83 82/82/82 81/81/81
f 84/84/84 81/81/81 82/82/82
f 87/87/87 86/86/86 85/85/85
f 88/88/88 85/85/85 86/86/86
f 86/86/86 89/89/89 88/88/88
f 90/90/90 88/88/88 89/89/89
f 89/89/89 91/91/91 90/90/90
f 92/92/92 90/90/90 91/91/91
f 91/91/91 93/93/93 92/92/92
f 94/94/94 92/92/92 93/93/93
f 93/93/93 95/95/95 94/94/94
f 96/96/96 94/94/94 95/95/95
f 95/95/95 97/97/97 96/96/96
f 98/98/98 96/96/96 97/97/97
f 97/97/97 99/99/99 98/98/98
f 100/100/100 98/98/98 99/99/99
f 99/99/99 101/101/101 100/100/100
f 102/102/102 100/100/100 101/101/101
f 101/101/101 103/103/103 102/102/102
f 104/104/104 102/102/102 103/103/103
f 107/107/107 106/106/106 105/105/105
f 108/108/108 105/105/105 106/106/106
f 106/106/106 109/109/109 108/108/108
f 110/110/110 108/108/108 109/109/109
f 109/109/109 111/111/111 110/110/110
f 112/112/112 110/110/110 111/111/111
f 111/111/111 113/113/113 112/112/112
f 114/114/114 112/112/112 113/113/113
f 113/113/113 115/115/115 114/114/114
f 116/116/116 114/114/114 115/115/115
f 115/115/115 117/117/117 116/116/116
f 118/118/118 116/116/116 117/117/117
f 117/117/117 119/119/119 118/118/118
f 120/120/120 118/118/118 119/119/119
f 119/119/119 121/121/121 120/120/120
f 122/122/122 120/120/120 121/121/121
f 121/121/121 123/123/123 122/122/122
f 124/124/124 122/122/122 123/123/123
f 127/127/127 126/126/126 125/125/125
f 126/126/126 128/128/128 125/125/125
f 125/125/125 128/128/128 129/129/129
f 130/130/130 128/128/128 126/126/126
f 133/133/133 132/132/132 131/131/131
f 132/132/132 134/134/134 131/131/131
f 131/131/131 134/134/134 135/135/135
f 136/136/136 134/134/134 132/132/132
