g Barrel_Metal_A
v -0.00010049343 -0.0078061223 -0.36887535
v 0.22392055 0.4173946 -0.31089342
v -0.00010049343 0.4173946 -0.38381007
v 0.21513541 -0.0078061223 -0.29859424
v -0.00010049343 -0.42422172 -0.38381007
v 0.36272573 0.4173946 -0.12025592
v 0.22392055 -0.42422172 -0.31089342
v 0.34779102 -0.0078061223 -0.11586332
v 0.36272573 0.4173946 0.11518583
v 0.36272573 -0.42422172 -0.12025592
v 0.34779102 -0.0078061223 0.10991475
v 0.22392055 0.4173946 0.30494484
v 0.36272573 -0.42422172 0.11518583
v 0.21513541 -0.0078061223 0.29264566
v -0.00010049343 0.4173946 0.37786147
v 0.22392055 -0.42422172 0.30494484
v -0.00010049343 -0.0078061223 0.36292675
v -0.22412154 0.4173946 0.30494484
v -0.00010049343 -0.42422172 0.37786147
v -0.21533641 -0.0078061223 0.29264566
v -0.36204824 0.4173946 0.11518583
v -0.22412154 -0.42422172 0.30494484
v -0.34799203 -0.0078061223 0.10991475
v -0.36204824 0.4173946 -0.12025592
v -0.36204824 -0.42422172 0.11518583
v -0.34799203 -0.0078061223 -0.11586332
v -0.22412154 0.4173946 -0.31089342
v -0.36204824 -0.42422172 -0.12025592
v -0.21533641 -0.0078061223 -0.29859424
v -0.00010049343 0.4173946 -0.38381007
v -0.22412154 -0.42422172 -0.31089342
v -0.00010049343 -0.0078061223 -0.36887535
v -0.00010049343 -0.42422172 -0.38381007
v 0.36272573 0.4173946 -0.12025592
v -0.00010049343 0.4173946 -0.38381007
v 0.22392055 0.4173946 -0.31089342
v 0.36272573 0.4173946 0.11518583
v 0.22392055 0.4173946 0.30494484
v -0.00010049343 0.4173946 0.37786147
v -0.22412154 0.4173946 0.30494484
v -0.36204824 0.4173946 0.11518583
v -0.36204824 0.4173946 -0.12025592
v -0.22412154 0.4173946 -0.31089342
v -0.00010049343 -0.01922682 -0.39523077
v -0.00010049343 0.015035242 -0.36360425
v -0.21182236 0.015035242 -0.29508018
v -0.23114964 -0.01922682 -0.3205571
v -0.00010049343 -0.05348885 -0.36360425
v -0.34359947 0.015035242 -0.1141063
v -0.21182236 -0.05348885 -0.29508018
v -0.3734689 -0.01922682 -0.12464848
v -0.34359947 0.015035242 0.10903624
v -0.34359947 -0.05348885 -0.1141063
v -0.3734689 -0.01922682 0.11869988
v -0.21182236 0.015035242 0.28913155
v -0.34359947 -0.05348885 0.10903624
v -0.23114964 -0.01922682 0.31460848
v -0.00010049343 0.015035242 0.3585342
v -0.21182236 -0.05348885 0.28913155
v -0.00010049343 -0.01922682 0.3901607
v 0.21249987 0.015035242 0.28913155
v -0.00010049343 -0.05348885 0.3585342
v 0.23094866 -0.01922682 0.31460848
v 0.34339845 0.015035242 0.10903624
v 0.21249987 -0.05348885 0.28913155
v 0.37326792 -0.01922682 0.11869988
v 0.34339845 0.015035242 -0.1141063
v 0.34339845 -0.05348885 0.10903624
v 0.37326792 -0.01922682 -0.12464848
v 0.21249987 0.015035242 -0.29508018
v 0.34339845 -0.05348885 -0.1141063
v 0.23094866 -0.01922682 -0.3205571
v -0.00010049343 0.015035242 -0.36360425
v 0.21249987 -0.05348885 -0.29508018
v -0.00010049343 -0.01922682 -0.39523077
v -0.00010049343 -0.05348885 -0.36360425
v -0.00010049343 -0.3899597 -0.4101655
v -0.00010049343 -0.35833317 -0.37766048
v -0.22060749 -0.35833317 -0.30562234
v -0.23905626 -0.3899597 -0.33285627
v -0.00010049343 -0.4224647 -0.37766048
v -0.35589865 -0.35833317 -0.11849889
v -0.22060749 -0.4224647 -0.30562234
v -0.3875251 -0.3899597 -0.12904105
v -0.35589865 -0.35833317 0.11255029
v -0.35589865 -0.4224647 -0.11849889
v -0.3875251 -0.3899597 0.12309244
v -0.22060749 -0.35833317 0.30055228
v -0.35589865 -0.4224647 0.11255029
v -0.23905626 -0.3899597 0.32690766
v -0.00010049343 -0.35833317 0.37171188
v -0.22060749 -0.4224647 0.30055228
v -0.00010049343 -0.3899597 0.40421692
v 0.22040649 -0.35833317 0.30055228
v -0.00010049343 -0.4224647 0.37171188
v 0.2397338 -0.3899597 0.32690766
v 0.35657614 -0.35833317 0.11255029
v 0.22040649 -0.4224647 0.30055228
v 0.38732415 -0.3899597 0.12309244
v 0.35657614 -0.35833317 -0.11849889
v 0.35657614 -0.4224647 0.11255029
v 0.38732415 -0.3899597 -0.12904105
v 0.22040649 -0.35833317 -0.30562234
v 0.35657614 -0.4224647 -0.11849889
v 0.2397338 -0.3899597 -0.33285627
v -0.00010049343 -0.35833317 -0.37766048
v 0.22040649 -0.4224647 -0.30562234
v -0.00010049343 -0.3899597 -0.4101655
v -0.00010049343 -0.4224647 -0.37766048
v -0.00010049343 0.38401106 -0.40928698
v -0.00010049343 0.4165161 -0.37766048
v -0.22060749 0.4165161 -0.30562234
v -0.23905626 0.38401106 -0.33197775
v -0.00010049343 0.3523846 -0.37766048
v -0.35589865 0.4165161 -0.11849889
v -0.22060749 0.3523846 -0.30562234
v -0.3866466 0.38401106 -0.12816253
v -0.35589865 0.4165161 0.11255029
v -0.35589865 0.3523846 -0.11849889
v -0.3866466 0.38401106 0.12309244
v -0.22060749 0.4165161 0.30055228
v -0.35589865 0.3523846 0.11255029
v -0.23905626 0.38401106 0.32602915
v -0.00010049343 0.4165161 0.37171188
v -0.22060749 0.3523846 0.30055228
v -0.00010049343 0.38401106 0.4033384
v 0.22040649 0.4165161 0.30055228
v -0.00010049343 0.3523846 0.37171188
v 0.23885529 0.38401106 0.32602915
v 0.35657614 0.4165161 0.11255029
v 0.22040649 0.3523846 0.30055228
v 0.38644564 0.38401106 0.12309244
v 0.35657614 0.4165161 -0.11849889
v 0.35657614 0.3523846 0.11255029
v 0.38644564 0.38401106 -0.12816253
v 0.22040649 0.4165161 -0.30562234
v 0.35657614 0.3523846 -0.11849889
v 0.23885529 0.38401106 -0.33197775
v -0.00010049343 0.4165161 -0.37766048
v 0.22040649 0.3523846 -0.30562234
v -0.00010049343 0.38401106 -0.40928698
v -0.00010049343 0.3523846 -0.37766048
v 0.22392055 -0.42422172 -0.31089342
v -0.00010049343 -0.42422172 -0.38381007
v 0.36272573 -0.42422172 -0.12025592
v 0.36272573 -0.42422172 0.11518583
v 0.22392055 -0.42422172 0.30494484
v -0.00010049343 -0.42422172 0.37786147
v -0.22412154 -0.42422172 0.30494484
v -0.36204824 -0.42422172 0.11518583
v -0.36204824 -0.42422172 -0.12025592
v -0.22412154 -0.42422172 -0.31089342
v 0.05963844 0.474498 0.25399104
v -0.00010049343 0.474498 0.21006534
v 0.036797076 0.474498 0.22236452
v 0.05963844 0.474498 0.29264566
v 0.036797076 0.474498 0.3233936
v -0.00010049343 0.474498 0.3356928
v -0.036998093 0.474498 0.3233936
v -0.059839457 0.474498 0.29264566
v -0.059839457 0.474498 0.25399104
v -0.036998093 0.474498 0.22236452
v -0.00010049343 0.474498 0.21006534
v -0.03260553 0.40509543 0.2285141
v -0.00010049343 0.40509543 0.21797195
v -0.036998093 0.474498 0.22236452
v -0.052811325 0.40509543 0.25574806
v -0.059839457 0.474498 0.25399104
v -0.052811325 0.40509543 0.29001006
v -0.059839457 0.474498 0.29264566
v -0.03260553 0.40509543 0.31724402
v -0.036998093 0.474498 0.3233936
v -0.00010049343 0.40509543 0.32778618
v -0.00010049343 0.474498 0.3356928
v 0.032404512 0.40509543 0.31724402
v 0.036797076 0.474498 0.3233936
v 0.052610338 0.40509543 0.29001006
v 0.05963844 0.474498 0.29264566
v 0.052610338 0.40509543 0.25574806
v 0.05963844 0.474498 0.25399104
v 0.032404512 0.40509543 0.2285141
v 0.036797076 0.474498 0.22236452
v -0.00010049343 0.40509543 0.21797195
v -0.00010049343 0.474498 0.21006534
vt 0.9845763 0.25515634
vt 0.88859993 0.43175274
vt 0.9845763 0.43175274
vt 0.88859993 0.25515634
vt 0.9845763 0.082399
vt 0.79262364 0.43175274
vt 0.88859993 0.082399
vt 0.79262364 0.25515634
vt 0.69664735 0.43175274
vt 0.79262364 0.082399
vt 0.69664735 0.25515634
vt 0.60067105 0.43175274
vt 0.69664735 0.082399
vt 0.60067105 0.25515634
vt 0.50469476 0.43175274
vt 0.60067105 0.082399
vt 0.50469476 0.25515634
vt 0.40871847 0.43175274
vt 0.50469476 0.082399
vt 0.40871847 0.25515634
vt 0.3127421 0.43175274
vt 0.40871847 0.082399
vt 0.3127421 0.25515634
vt 0.21676582 0.43175274
vt 0.3127421 0.082399
vt 0.21676582 0.25515634
vt 0.12078952 0.43175274
vt 0.21676582 0.082399
vt 0.12078952 0.25515634
vt 0.024813216 0.43175274
vt 0.12078952 0.082399
vt 0.024813216 0.25515634
vt 0.024813216 0.082399
vt 0.32809836 0.6659349
vt 0.17453626 0.7734284
vt 0.27051258 0.74271595
vt 0.32809836 0.56611955
vt 0.27051258 0.4854995
vt 0.17453626 0.45478708
vt 0.082399 0.4854995
vt 0.024813216 0.56611955
vt 0.024813216 0.6659349
vt 0.082399 0.74271595
vt 0.013296059 0.028652268
vt 0.013296059 0.047847528
vt 0.11695047 0.047847528
vt 0.11695047 0.028652268
vt 0.013296059 0.009457007
vt 0.21292678 0.047847528
vt 0.11695047 0.009457007
vt 0.21292678 0.028652268
vt 0.3089031 0.047847528
vt 0.21292678 0.009457007
vt 0.3089031 0.028652268
vt 0.4048794 0.047847528
vt 0.3089031 0.009457007
vt 0.4048794 0.028652268
vt 0.5008557 0.047847528
vt 0.4048794 0.009457007
vt 0.5008557 0.028652268
vt 0.596832 0.047847528
vt 0.5008557 0.009457007
vt 0.596832 0.028652268
vt 0.6928083 0.047847528
vt 0.596832 0.009457007
vt 0.6928083 0.028652268
vt 0.7887846 0.047847528
vt 0.6928083 0.009457007
vt 0.7887846 0.028652268
vt 0.8847609 0.047847528
vt 0.7887846 0.009457007
vt 0.8847609 0.028652268
vt 0.9884153 0.047847528
vt 0.8847609 0.009457007
vt 0.9884153 0.028652268
vt 0.9884153 0.009457007
vt 0.9884153 0.028652268
vt 0.9884153 0.047847528
vt 0.8847609 0.047847528
vt 0.8847609 0.028652268
vt 0.9884153 0.009457007
vt 0.7887846 0.047847528
vt 0.8847609 0.009457007
vt 0.7887846 0.028652268
vt 0.6928083 0.047847528
vt 0.7887846 0.009457007
vt 0.6928083 0.028652268
vt 0.596832 0.047847528
vt 0.6928083 0.009457007
vt 0.596832 0.028652268
vt 0.5008557 0.047847528
vt 0.596832 0.009457007
vt 0.5008557 0.028652268
vt 0.4048794 0.047847528
vt 0.5008557 0.009457007
vt 0.4048794 0.028652268
vt 0.3089031 0.047847528
vt 0.4048794 0.009457007
vt 0.3089031 0.028652268
vt 0.21292678 0.047847528
vt 0.3089031 0.009457007
vt 0.21292678 0.028652268
vt 0.11695047 0.047847528
vt 0.21292678 0.009457007
vt 0.11695047 0.028652268
vt 0.013296059 0.047847528
vt 0.11695047 0.009457007
vt 0.013296059 0.028652268
vt 0.013296059 0.009457007
vt 0.9884153 0.028652268
vt 0.9884153 0.047847528
vt 0.8847609 0.047847528
vt 0.8847609 0.028652268
vt 0.9884153 0.009457007
vt 0.7887846 0.047847528
vt 0.8847609 0.009457007
vt 0.7887846 0.028652268
vt 0.6928083 0.047847528
vt 0.7887846 0.009457007
vt 0.6928083 0.028652268
vt 0.596832 0.047847528
vt 0.6928083 0.009457007
vt 0.596832 0.028652268
vt 0.5008557 0.047847528
vt 0.596832 0.009457007
vt 0.5008557 0.028652268
vt 0.4048794 0.047847528
vt 0.5008557 0.009457007
vt 0.4048794 0.028652268
vt 0.3089031 0.047847528
vt 0.4048794 0.009457007
vt 0.3089031 0.028652268
vt 0.21292678 0.047847528
vt 0.3089031 0.009457007
vt 0.21292678 0.028652268
vt 0.11695047 0.047847528
vt 0.21292678 0.009457007
vt 0.11695047 0.028652268
vt 0.013296059 0.047847528
vt 0.11695047 0.009457007
vt 0.013296059 0.028652268
vt 0.013296059 0.009457007
vt 0.42407465 0.73887694
vt 0.52005094 0.7695893
vt 0.36648887 0.6582568
vt 0.36648887 0.55844146
vt 0.42407465 0.48166043
vt 0.52005094 0.450948
vt 0.6121882 0.48166043
vt 0.669774 0.55844146
vt 0.669774 0.6582568
vt 0.6121882 0.73887694
vt 0.7734284 0.55076337
vt 0.73503786 0.57379764
vt 0.7580722 0.56611955
vt 0.7734284 0.52772903
vt 0.7580722 0.5085338
vt 0.73503786 0.5008557
vt 0.7158426 0.5085338
vt 0.7004864 0.52772903
vt 0.7004864 0.55076337
vt 0.7158426 0.56611955
vt 0.7081645 0.48933852
vt 0.7311988 0.450948
vt 0.7081645 0.450948
vt 0.7311988 0.48933852
vt 0.75039405 0.450948
vt 0.75039405 0.48933852
vt 0.7734284 0.450948
vt 0.7734284 0.48933852
vt 0.79262364 0.450948
vt 0.79262364 0.48933852
vt 0.815658 0.450948
vt 0.815658 0.48933852
vt 0.83485323 0.450948
vt 0.83485323 0.48933852
vt 0.8578875 0.450948
vt 0.8578875 0.48933852
vt 0.88092184 0.450948
vt 0.88092184 0.48933852
vt 0.9001171 0.450948
vt 0.9001171 0.48933852
vt 0.91931236 0.450948
vt 0.91931236 0.48933852
vn 0.015870988 0.015871048 -0.99974805
vn 0.5872276 -0.047613025 -0.8080203
vn 0.015870988 -0.047613025 -0.9987398
vn 0.5872276 0.015871048 -0.80926627
vn 0.015870988 0.047613025 -0.9987398
vn 0.9363899 -0.047613025 -0.3477167
vn 0.5872276 0.047613025 -0.8080203
vn 0.9363899 0.015871048 -0.35060233
vn 0.9363899 -0.047613025 0.3477167
vn 0.9363899 0.047613025 -0.3477167
vn 0.9363899 0.015871048 0.35060233
vn 0.5872276 -0.047613025 0.8080203
vn 0.9363899 0.047613025 0.3477167
vn 0.5872276 0.015871048 0.80926627
vn -0.015871048 -0.047613025 0.9987398
vn 0.5872276 0.047613025 0.8080203
vn -0.015871048 0.015871048 0.99974805
vn -0.5872276 -0.047613025 0.8080203
vn -0.015871048 0.047613025 0.9987398
vn -0.5872276 0.015871048 0.80926627
vn -0.9363899 -0.047613025 0.3477167
vn -0.5872276 0.047613025 0.8080203
vn -0.9363899 0.015871048 0.35060233
vn -0.9363899 -0.047613025 -0.3477167
vn -0.9363899 0.047613025 0.3477167
vn -0.9363899 0.015871048 -0.35060233
vn -0.5872276 -0.047613025 -0.8080203
vn -0.9363899 0.047613025 -0.3477167
vn -0.5872276 0.015871048 -0.80926627
vn 0.015870988 -0.047613025 -0.9987398
vn -0.5872276 0.047613025 -0.8080203
vn 0.015870988 0.015871048 -0.99974805
vn 0.015870988 0.047613025 -0.9987398
vn -0.015871048 0.999874 -0.00034526698
vn -0.015871048 0.999874 -0.00034526698
vn -0.015871048 0.999874 -0.00034526698
vn -0.015871048 0.999874 -0.00034526698
vn -0.015871048 0.999874 -0.00034526698
vn -0.015871048 0.999874 -0.00034526698
vn -0.015871048 0.999874 -0.00034526698
vn -0.015871048 0.999874 -0.00034526698
vn -0.015871048 0.999874 -0.00034526698
vn -0.015871048 0.999874 -0.00034526698
vn 0.015870988 0.015871048 -0.99974805
vn -0.015871048 0.68245375 -0.73075646
vn -0.42851746 0.68245375 -0.5921399
vn -0.5872276 0.015871048 -0.80926627
vn 0.015870988 -0.68245363 -0.7307566
vn -0.7141957 0.68245375 -0.15550359
vn -0.42851746 -0.68245363 -0.59214
vn -0.9363899 0.015871048 -0.35060233
vn -0.7141957 0.68245375 0.15550359
vn -0.7141957 -0.68245363 -0.15550417
vn -0.9363899 0.015871048 0.35060233
vn -0.42851746 0.68245375 0.5921399
vn -0.7141957 -0.68245363 0.15550417
vn -0.5872276 -0.015870988 0.80926627
vn -0.015871048 0.68245375 0.73075646
vn -0.42851746 -0.68245363 0.59214
vn -0.015871048 0.015871048 0.99974805
vn 0.4285174 0.68245375 0.59213996
vn -0.015871048 -0.68245363 0.7307566
vn 0.5872276 0.015871048 0.80926627
vn 0.7141957 0.68245375 0.15550359
vn 0.4285174 -0.68245363 0.59214014
vn 0.9363899 0.015871048 0.35060233
vn 0.7141957 0.68245375 -0.15550359
vn 0.7141957 -0.68245363 0.15550417
vn 0.9363899 0.015871048 -0.35060233
vn 0.4285174 0.68245375 -0.59213996
vn 0.7141957 -0.68245363 -0.15550417
vn 0.5872276 0.015871048 -0.80926627
vn -0.015871048 0.68245375 -0.73075646
vn 0.4285174 -0.68245363 -0.59214014
vn 0.015870988 0.015871048 -0.99974805
vn 0.015870988 -0.68245363 -0.7307566
vn -0.015871048 -0.015870988 -0.99974805
vn 0.015870988 0.7141957 -0.6997661
vn -0.39677536 0.7141957 -0.5766227
vn -0.5872276 -0.015870988 -0.80926627
vn -0.015871048 -0.7141957 -0.6997661
vn -0.65071166 0.7141957 -0.25787365
vn -0.39677536 -0.7141957 -0.5766227
vn -0.9363899 -0.015870988 -0.35060233
vn -0.65071166 0.7141957 0.25787365
vn -0.65071166 -0.7141957 -0.25787365
vn -0.9363899 -0.015870988 0.35060233
vn -0.39677536 0.7141957 0.5766227
vn -0.65071166 -0.7141957 0.25787365
vn -0.5872276 -0.015870988 0.80926627
vn -0.015871048 0.7141957 0.6997661
vn -0.39677536 -0.7141957 0.5766227
vn -0.015871048 -0.015870988 0.99974805
vn 0.39677536 0.7141957 0.5766227
vn -0.015871048 -0.7141957 0.6997661
vn 0.5872276 0.015871048 0.80926627
vn 0.65071166 0.7141957 0.25787365
vn 0.39677536 -0.7141957 0.5766227
vn 0.9363899 -0.015870988 0.35060233
vn 0.65071166 0.7141957 -0.25787365
vn 0.65071166 -0.7141957 0.25787365
vn 0.9363899 -0.015870988 -0.35060233
vn 0.39677536 0.7141957 -0.5766227
vn 0.65071166 -0.7141957 -0.25787365
vn 0.5872276 -0.015870988 -0.80926627
vn 0.015870988 0.7141957 -0.6997661
vn 0.39677536 -0.7141957 -0.5766227
vn -0.015871048 -0.015870988 -0.99974805
vn -0.015871048 -0.7141957 -0.6997661
vn -0.015871048 -0.015870988 -0.99974805
vn -0.015871048 0.7141957 -0.6997661
vn -0.42851746 0.7141957 -0.5534413
vn -0.5872276 -0.015870988 -0.80926627
vn -0.015871048 -0.7141957 -0.6997661
vn -0.68245375 0.7141957 -0.15550359
vn -0.42851746 -0.7141957 -0.5534413
vn -0.9363899 -0.015870988 -0.35060233
vn -0.68245375 0.7141957 0.15550359
vn -0.68245375 -0.7141957 -0.15550359
vn -0.9363899 0.015871048 0.35060233
vn -0.42851746 0.7141957 0.5534413
vn -0.68245375 -0.7141957 0.15550359
vn -0.5872276 -0.015870988 0.80926627
vn -0.015871048 0.7141957 0.6997661
vn -0.42851746 -0.7141957 0.5534413
vn -0.015871048 -0.015870988 0.99974805
vn 0.4285174 0.7141957 0.5534414
vn -0.015871048 -0.7141957 0.6997661
vn 0.5872276 -0.015870988 0.80926627
vn 0.68245363 0.7141957 0.15550417
vn 0.4285174 -0.7141957 0.5534414
vn 0.9363899 -0.015870988 0.35060233
vn 0.68245363 0.7141957 -0.15550417
vn 0.68245363 -0.7141957 0.15550417
vn 0.9363899 -0.015870988 -0.35060233
vn 0.4285174 0.7141957 -0.5534414
vn 0.68245363 -0.7141957 -0.15550417
vn 0.5872276 -0.015870988 -0.80926627
vn -0.015871048 0.7141957 -0.6997661
vn 0.4285174 -0.7141957 -0.5534414
vn -0.015871048 -0.015870988 -0.99974805
vn -0.015871048 -0.7141957 -0.6997661
vn -0.015871048 -0.999874 -0.00034526698
vn -0.015871048 -0.999874 -0.00034526698
vn -0.015871048 -0.999874 -0.00034526698
vn -0.015871048 -0.999874 -0.00034526698
vn -0.015871048 -0.999874 -0.00034526698
vn -0.015871048 -0.999874 -0.00034526698
vn -0.015871048 -0.999874 -0.00034526698
vn -0.015871048 -0.999874 -0.00034526698
vn 0.015870988 -0.999874 -0.00034526698
vn 0.015870988 -0.999874 -0.00034526698
vn -0.015871048 0.999874 -0.00034526698
vn -0.015871048 0.999874 -0.00034526698
vn -0.015871048 0.999874 -0.00034526698
vn -0.015871048 0.999874 -0.00034526698
vn -0.015871048 0.999874 -0.00034526698
vn 0.015870988 0.999874 -0.00034526698
vn 0.015870988 0.999874 -0.00034526698
vn -0.015871048 0.999874 -0.00034526698
vn -0.015871048 0.999874 -0.00034526698
vn -0.015871048 0.999874 -0.00034526698
vn 0.015870988 -0.1110971 -0.9936828
vn -0.5872276 -0.1110971 -0.8017613
vn 0.015870988 -0.1110971 -0.9936828
vn -0.5872276 -0.1110971 -0.8017613
vn -0.9363899 -0.1110971 -0.3329134
vn -0.9363899 -0.1110971 -0.3329134
vn -0.9363899 -0.1110971 0.3329134
vn -0.9363899 -0.1110971 0.3329134
vn -0.5872276 -0.1110971 0.8017613
vn -0.5872276 -0.1110971 0.8017613
vn -0.015871048 -0.1110971 0.9936828
vn -0.015871048 -0.1110971 0.9936828
vn 0.5872276 -0.1110971 0.8017613
vn 0.5872276 -0.1110971 0.8017613
vn 0.9363899 -0.1110971 0.3329134
vn 0.9363899 -0.1110971 0.3329134
vn 0.9363899 -0.1110971 -0.3329134
vn 0.9363899 -0.1110971 -0.3329134
vn 0.5872276 -0.1110971 -0.8017613
vn 0.5872276 -0.1110971 -0.8017613
vn 0.015870988 -0.1110971 -0.9936828
vn 0.015870988 -0.1110971 -0.9936828
g Barrel_Metal_A_0
f 3/3/3 2/2/2 1/1/1
f 2/2/2 4/4/4 1/1/1
f 1/1/1 4/4/4 5/5/5
f 2/2/2 6/6/6 4/4/4
f 4/4/4 7/7/7 5/5/5
f 6/6/6 8/8/8 4/4/4
f 4/4/4 8/8/8 7/7/7
f 6/6/6 9/9/9 8/8/8
f 8/8/8 10/10/10 7/7/7
f 9/9/9 11/11/11 8/8/8
f 8/8/8 11/11/11 10/10/10
f 9/9/9 12/12/12 11/11/11
f 11/11/11 13/13/13 10/10/10
f 12/12/12 14/14/14 11/11/11
f 11/11/11 14/14/14 13/13/13
f 12/12/12 15/15/15 14/14/14
f 14/14/14 16/16/16 13/13/13
f 15/15/15 17/17/17 14/14/14
f 14/14/14 17/17/17 16/16/16
f 15/15/15 18/18/18 17/17/17
f 17/17/17 19/19/19 16/16/16
f 18/18/18 20/20/20 17/17/17
f 17/17/17 20/20/20 19/19/19
f 18/18/18 21/21/21 20/20/20
f 20/20/20 22/22/22 19/19/19
f 21/21/21 23/23/23 20/20/20
f 20/20/20 23/23/23 22/22/22
f 21/21/21 24/24/24 23/23/23
f 23/23/23 25/25/25 22/22/22
f 24/24/24 26/26/26 23/23/23
f 23/23/23 26/26/26 25/25/25
f 24/24/24 27/27/27 26/26/26
f 26/26/26 28/28/28 25/25/25
f 27/27/27 29/29/29 26/26/26
f 26/26/26 29/29/29 28/28/28
f 27/27/27 30/30/30 29/29/29
f 29/29/29 31/31/31 28/28/28
f 30/30/30 32/32/32 29/29/29
f 29/29/29 32/32/32 31/31/31
f 32/32/32 33/33/33 31/31/31
f 36/36/36 35/35/35 34/34/34
f 34/34/34 35/35/35 37/37/37
f 37/37/37 35/35/35 38/38/38
f 38/38/38 35/35/35 39/39/39
f 39/39/39 35/35/35 40/40/40
f 40/40/40 35/35/35 41/41/41
f 41/41/41 35/35/35 42/42/42
f 42/42/42 35/35/35 43/43/43
f 46/46/46 45/45/45 44/44/44
f 47/47/47 46/46/46 44/44/44
f 47/47/47 44/44/44 48/48/48
f 49/49/49 46/46/46 47/47/47
f 50/50/50 47/47/47 48/48/48
f 51/51/51 49/49/49 47/47/47
f 51/51/51 47/47/47 50/50/50
f 52/52/52 49/49/49 51/51/51
f 53/53/53 51/51/51 50/50/50
f 54/54/54 52/52/52 51/51/51
f 54/54/54 51/51/51 53/53/53
f 55/55/55 52/52/52 54/54/54
f 56/56/56 54/54/54 53/53/53
f 57/57/57 55/55/55 54/54/54
f 57/57/57 54/54/54 56/56/56
f 58/58/58 55/55/55 57/57/57
f 59/59/59 57/57/57 56/56/56
f 60/60/60 58/58/58 57/57/57
f 60/60/60 57/57/57 59/59/59
f 61/61/61 58/58/58 60/60/60
f 62/62/62 60/60/60 59/59/59
f 63/63/63 61/61/61 60/60/60
f 63/63/63 60/60/60 62/62/62
f 64/64/64 61/61/61 63/63/63
f 65/65/65 63/63/63 62/62/62
f 66/66/66 64/64/64 63/63/63
f 66/66/66 63/63/63 65/65/65
f 67/67/67 64/64/64 66/66/66
f 68/68/68 66/66/66 65/65/65
f 69/69/69 67/67/67 66/66/66
f 69/69/69 66/66/66 68/68/68
f 70/70/70 67/67/67 69/69/69
f 71/71/71 69/69/69 68/68/68
f 72/72/72 70/70/70 69/69/69
f 72/72/72 69/69/69 71/71/71
f 73/73/73 70/70/70 72/72/72
f 74/74/74 72/72/72 71/71/71
f 75/75/75 73/73/73 72/72/72
f 75/75/75 72/72/72 74/74/74
f 76/76/76 75/75/75 74/74/74
f 79/79/79 78/78/78 77/77/77
f 80/80/80 79/79/79 77/77/77
f 80/80/80 77/77/77 81/81/81
f 82/82/82 79/79/79 80/80/80
f 83/83/83 80/80/80 81/81/81
f 84/84/84 82/82/82 80/80/80
f 84/84/84 80/80/80 83/83/83
f 85/85/85 82/82/82 84/84/84
f 86/86/86 84/84/84 83/83/83
f 87/87/87 85/85/85 84/84/84
f 87/87/87 84/84/84 86/86/86
f 88/88/88 85/85/85 87/87/87
f 89/89/89 87/87/87 86/86/86
f 90/90/90 88/88/88 87/87/87
f 90/90/90 87/87/87 89/89/89
f 91/91/91 88/88/88 90/90/90
f 92/92/92 90/90/90 89/89/89
f 93/93/93 91/91/91 90/90/90
f 93/93/93 90/90/90 92/92/92
f 94/94/94 91/91/91 93/93/93
f 95/95/95 93/93/93 92/92/92
f 96/96/96 94/94/94 93/93/93
f 96/96/96 93/93/93 95/95/95
f 97/97/97 94/94/94 96/96/96
f 98/98/98 96/96/96 95/95/95
f 99/99/99 97/97/97 96/96/96
f 99/99/99 96/96/96 98/98/98
f 100/100/100 97/97/97 99/99/99
f 101/101/101 99/99/99 98/98/98
f 102/102/102 100/100/100 99/99/99
f 102/102/102 99/99/99 101/101/101
f 103/103/103 100/100/100 102/102/102
f 104/104/104 102/102/102 101/101/101
f 105/105/105 103/103/103 102/102/102
f 105/105/105 102/102/102 104/104/104
f 106/106/106 103/103/103 105/105/105
f 107/107/107 105/105/105 104/104/104
f 108/108/108 106/106/106 105/105/105
f 108/108/108 105/105/105 107/107/107
f 109/109/109 108/108/108 107/107/107
f 112/112/112 111/111/111 110/110/110
f 113/113/113 112/112/112 110/110/110
f 113/113/113 110/110/110 114/114/114
f 115/115/115 112/112/112 113/113/113
f 116/116/116 113/113/113 114/114/114
f 117/117/117 115/115/115 113/113/113
f 117/117/117 113/113/113 116/116/116
f 118/118/118 115/115/115 117/117/117
f 119/119/119 117/117/117 116/116/116
f 120/120/120 118/118/118 117/117/117
f 120/120/120 117/117/117 119/119/119
f 121/121/121 118/118/118 120/120/120
f 122/122/122 120/120/120 119/119/119
f 123/123/123 121/121/121 120/120/120
f 123/123/123 120/120/120 122/122/122
f 124/124/124 121/121/121 123/123/123
f 125/125/125 123/123/123 122/122/122
f 126/126/126 124/124/124 123/123/123
f 126/126/126 123/123/123 125/125/125
f 127/127/127 124/124/124 126/126/126
f 128/128/128 126/126/126 125/125/125
f 129/129/129 127/127/127 126/126/126
f 129/129/129 126/126/126 128/128/128
f 130/130/130 127/127/127 129/129/129
f 131/131/131 129/129/129 128/128/128
f 132/132/132 130/130/130 129/129/129
f 132/132/132 129/129/129 131/131/131
f 133/133/133 130/130/130 132/132/132
f 134/134/134 132/132/132 131/131/131
f 135/135/135 133/133/133 132/132/132
f 135/135/135 132/132/132 134/134/134
f 136/136/136 133/133/133 135/135/135
f 137/137/137 135/135/135 134/134/134
f 138/138/138 136/136/136 135/135/135
f 138/138/138 135/135/135 137/137/137
f 139/139/139 136/136/136 138/138/138
f 140/140/140 138/138/138 137/137/137
f 141/141/141 139/139/139 138/138/138
f 141/141/141 138/138/138 140/140/140
f 142/142/142 141/141/141 140/140/140
f 145/145/145 144/144/144 143/143/143
f 146/146/146 144/144/144 145/145/145
f 147/147/147 144/144/144 146/146/146
f 148/148/148 144/144/144 147/147/147
f 149/149/149 144/144/144 148/148/148
f 150/150/150 144/144/144 149/149/149
f 151/151/151 144/144/144 150/150/150
f 152/152/152 144/144/144 151/151/151
f 155/155/155 154/154/154 153/153/153
f 153/153/153 154/154/154 156/156/156
f 156/156/156 154/154/154 157/157/157
f 157/157/157 154/154/154 158/158/158
f 158/158/158 154/154/154 159/159/159
f 159/159/159 154/154/154 160/160/160
f 160/160/160 154/154/154 161/161/161
f 161/161/161 154/154/154 162/162/162
f 165/165/165 164/164/164 163/163/163
f 164/164/164 166/166/166 163/163/163
f 164/164/164 167/167/167 166/166/166
f 167/167/167 168/168/168 166/166/166
f 167/167/167 169/169/169 168/168/168
f 169/169/169 170/170/170 168/168/168
f 169/169/169 171/171/171 170/170/170
f 171/171/171 172/172/172 170/170/170
f 171/171/171 173/173/173 172/172/172
f 173/173/173 174/174/174 172/172/172
f 173/173/173 175/175/175 174/174/174
f 175/175/175 176/176/176 174/174/174
f 175/175/175 177/177/177 176/176/176
f 177/177/177 178/178/178 176/176/176
f 177/177/177 179/179/179 178/178/178
f 179/179/179 180/180/180 178/178/178
f 179/179/179 181/181/181 180/180/180
f 181/181/181 182/182/182 180/180/180
f 181/181/181 183/183/183 182/182/182
f 183/183/183 184/184/184 182/182/182
