g Biscuit_01
v 0.32972234 0.23961678 -0.043457985
v 0.40786693 -0.00039872527 -0.043457985
v 0.32972234 -0.23961684 -0.043457985
v 0.12638694 0.38793203 -0.043457985
v 0.12638694 -0.3879321 -0.043457985
v -0.12638691 -0.3879321 -0.043457985
v -0.12638691 0.38793203 -0.043457985
v -0.32972232 0.23961678 -0.043457985
v -0.32972232 -0.23961684 -0.043457985
v -0.40786687 0.00039866567 -0.043457985
v 0.32972234 -0.23961684 0.042660534
v 0.40786693 -0.00039872527 0.042660534
v 0.32972234 0.23961678 0.042660534
v 0.12638694 -0.3879321 0.042660534
v 0.12638694 0.38793203 0.042660534
v -0.12638691 -0.3879321 0.042660534
v -0.12638691 0.38793203 0.042660534
v -0.32972232 0.23961678 0.042660534
v -0.32972232 -0.23961684 0.042660534
v -0.40786687 0.00039866567 0.042660534
v 0.2826761 -0.20532891 -0.120805174
v 0.34965718 -0.00039872527 -0.120805174
v 0.2826761 0.20532885 -0.120805174
v 0.10804686 0.3321145 -0.120805174
v 0.10804686 -0.33211452 -0.120805174
v -0.10804686 -0.33211452 -0.120805174
v -0.10804686 0.3321145 -0.120805174
v -0.28267607 0.20532885 -0.120805174
v -0.28267607 -0.20532891 -0.120805174
v -0.34965715 0.00039866567 -0.120805174
v 0.2826761 0.20532885 0.12000772
v 0.34965718 -0.00039872527 0.12000772
v 0.2826761 -0.20532891 0.12000772
v 0.10804686 0.3321145 0.12000772
v 0.10804686 -0.33211452 0.12000772
v -0.10804686 -0.33211452 0.12000772
v -0.10804686 0.3321145 0.12000772
v -0.28267607 0.20532885 0.12000772
v -0.28267607 -0.20532891 0.12000772
v -0.34965715 -0.00039872527 0.12000772
v -0.28267607 0.20532885 -0.13117129
v -0.40786687 0.00039866567 -0.13117129
v -0.34965715 0.00039866567 -0.13117129
v -0.32972232 0.23961678 -0.13117129
v -0.32972232 -0.23961684 -0.13117129
v -0.10804686 0.3321145 -0.13117129
v -0.28267607 -0.20532891 -0.13117129
v -0.12638691 0.38793203 -0.13117129
v -0.12638691 -0.3879321 -0.13117129
v 0.10804686 0.3321145 -0.13117129
v -0.10804686 -0.33211452 -0.13117129
v 0.12638694 0.38793203 -0.13117129
v 0.12638694 -0.3879321 -0.13117129
v 0.2826761 0.20532885 -0.13117129
v 0.10804686 -0.33211452 -0.13117129
v 0.32972234 0.23961678 -0.13117129
v 0.32972234 -0.23961684 -0.13117129
v 0.34965718 -0.00039872527 -0.13117129
v 0.2826761 -0.20532891 -0.13117129
v 0.40786693 -0.00039872527 -0.13117129
v -0.40786687 0.00039866567 -0.13117129
v -0.32972232 0.23961678 -0.043457985
v -0.40786687 0.00039866567 -0.043457985
v -0.32972232 0.23961678 -0.13117129
v -0.32972232 -0.23961684 -0.13117129
v -0.12638691 0.38793203 -0.043457985
v -0.32972232 -0.23961684 -0.043457985
v -0.12638691 0.38793203 -0.13117129
v -0.12638691 -0.3879321 -0.13117129
v 0.12638694 0.38793203 -0.043457985
v -0.12638691 -0.3879321 -0.043457985
v 0.12638694 0.38793203 -0.13117129
v 0.12638694 -0.3879321 -0.13117129
v 0.32972234 0.23961678 -0.043457985
v 0.12638694 -0.3879321 -0.043457985
v 0.32972234 0.23961678 -0.13117129
v 0.32972234 -0.23961684 -0.13117129
v 0.40786693 -0.00039872527 -0.043457985
v 0.32972234 -0.23961684 -0.043457985
v 0.40786693 -0.00039872527 -0.13117129
v 0.2826761 0.20532885 -0.13117129
v 0.2826761 0.20532885 -0.120805174
v 0.34965718 -0.00039872527 -0.120805174
v 0.34965718 -0.00039872527 -0.13117129
v 0.10804686 0.3321145 -0.13117129
v 0.2826761 -0.20532891 -0.120805174
v 0.10804686 0.3321145 -0.120805174
v 0.2826761 -0.20532891 -0.13117129
v -0.10804686 0.3321145 -0.13117129
v 0.10804686 -0.33211452 -0.120805174
v -0.10804686 0.3321145 -0.120805174
v 0.10804686 -0.33211452 -0.13117129
v -0.28267607 0.20532885 -0.13117129
v -0.10804686 -0.33211452 -0.120805174
v -0.28267607 0.20532885 -0.120805174
v -0.10804686 -0.33211452 -0.13117129
v -0.34965715 0.00039866567 -0.13117129
v -0.28267607 -0.20532891 -0.120805174
v -0.34965715 0.00039866567 -0.120805174
v -0.28267607 -0.20532891 -0.13117129
v -0.40786687 0.00039866567 0.042660534
v -0.32972232 0.23961678 0.042660534
v -0.32972232 0.23961678 0.13117126
v -0.40786687 0.00039866567 0.13117126
v -0.12638691 0.38793203 0.13117126
v -0.32972232 -0.23961684 0.042660534
v -0.12638691 0.38793203 0.042660534
v -0.32972232 -0.23961684 0.13117126
v 0.12638694 0.38793203 0.13117126
v -0.12638691 -0.3879321 0.042660534
v 0.12638694 0.38793203 0.042660534
v -0.12638691 -0.3879321 0.13117126
v 0.32972234 0.23961678 0.13117126
v 0.12638694 -0.3879321 0.042660534
v 0.32972234 0.23961678 0.042660534
v 0.12638694 -0.3879321 0.13117126
v 0.40786693 -0.00039872527 0.13117126
v 0.32972234 -0.23961684 0.042660534
v 0.40786693 -0.00039872527 0.042660534
v 0.32972234 -0.23961684 0.13117126
v -0.34965715 -0.00039872527 0.13117126
v -0.40786687 0.00039866567 0.13117126
v -0.32972232 0.23961678 0.13117126
v -0.28267607 0.20532885 0.13117126
v -0.28267607 -0.20532891 0.13117126
v -0.12638691 0.38793203 0.13117126
v -0.32972232 -0.23961684 0.13117126
v -0.10804686 0.3321145 0.13117126
v -0.10804686 -0.33211452 0.13117126
v 0.12638694 0.38793203 0.13117126
v -0.12638691 -0.3879321 0.13117126
v 0.10804686 0.3321145 0.13117126
v 0.10804686 -0.33211452 0.13117126
v 0.32972234 0.23961678 0.13117126
v 0.12638694 -0.3879321 0.13117126
v 0.2826761 0.20532885 0.13117126
v 0.2826761 -0.20532891 0.13117126
v 0.40786693 -0.00039872527 0.13117126
v 0.32972234 -0.23961684 0.13117126
v 0.34965718 -0.00039872527 0.13117126
v -0.10804686 0.3321145 0.13117126
v -0.28267607 0.20532885 0.12000772
v -0.28267607 0.20532885 0.13117126
v -0.10804686 0.3321145 0.12000772
v -0.34965715 -0.00039872527 0.12000772
v 0.10804686 0.3321145 0.13117126
v -0.34965715 -0.00039872527 0.13117126
v 0.10804686 0.3321145 0.12000772
v -0.28267607 -0.20532891 0.12000772
v 0.2826761 0.20532885 0.13117126
v -0.28267607 -0.20532891 0.13117126
v 0.2826761 0.20532885 0.12000772
v -0.10804686 -0.33211452 0.12000772
v 0.34965718 -0.00039872527 0.13117126
v -0.10804686 -0.33211452 0.13117126
v 0.34965718 -0.00039872527 0.12000772
v 0.10804686 -0.33211452 0.12000772
v 0.2826761 -0.20532891 0.13117126
v 0.10804686 -0.33211452 0.13117126
v 0.2826761 -0.20532891 0.12000772
v -0.3018135 -0.219682 -0.051431924
v -0.37278154 0.00039866567 -0.051431924
v -0.40148774 0.00039866567 0.0019934773
v -0.3249379 -0.23642726 0.0019934773
v -0.11522338 -0.35523894 -0.051431924
v -0.3249379 0.23642722 0.0019934773
v -0.3018135 0.21968195 -0.051431924
v -0.12399474 -0.38155293 0.0019934773
v 0.11522341 -0.35523894 -0.051431924
v -0.12399474 0.3815529 0.0019934773
v -0.11522338 0.35523888 -0.051431924
v 0.12399474 -0.38155293 0.0019934773
v 0.30181354 -0.219682 -0.051431924
v 0.12399474 0.3815529 0.0019934773
v 0.11522341 0.35523888 -0.051431924
v 0.32493797 -0.23642726 0.0019934773
v 0.3727816 0.00039866567 -0.051431924
v 0.32493797 0.23642722 0.0019934773
v 0.30181354 0.21968195 -0.051431924
v 0.40148777 -0.00039872527 0.0019934773
v -0.11522338 0.35523888 0.05621624
v -0.3018135 0.21968195 0.05621624
v 0.11522341 0.35523888 0.05621624
v 0.30181354 0.21968195 0.05621624
v -0.37278154 0.00039866567 0.05621624
v 0.3727816 0.00039866567 0.05621624
v 0.30181354 -0.219682 0.05621624
v -0.3018135 -0.219682 0.05621624
v 0.11522341 -0.35523894 0.05621624
v -0.11522338 -0.35523894 0.05621624
vt 0.40625 0.03125
vt 0.40625 0.03125
vt 0.40625 0.03125
vt 0.40625 0.03125
vt 0.40625 0.03125
vt 0.40625 0.03125
vt 0.40625 0.03125
vt 0.40625 0.03125
vt 0.40625 0.03125
vt 0.40625 0.03125
vt 0.40625 0.03125
vt 0.40625 0.03125
vt 0.40625 0.03125
vt 0.40625 0.03125
vt 0.40625 0.03125
vt 0.40625 0.03125
vt 0.40625 0.03125
vt 0.40625 0.03125
vt 0.40625 0.03125
vt 0.40625 0.03125
vt 0.40625 0.03125
vt 0.40625 0.03125
vt 0.40625 0.03125
vt 0.40625 0.03125
vt 0.40625 0.03125
vt 0.40625 0.03125
vt 0.40625 0.03125
vt 0.40625 0.03125
vt 0.40625 0.03125
vt 0.40625 0.03125
vt 0.40625 0.03125
vt 0.40625 0.03125
vt 0.40625 0.03125
vt 0.40625 0.03125
vt 0.40625 0.03125
vt 0.40625 0.03125
vt 0.40625 0.03125
vt 0.40625 0.03125
vt 0.40625 0.03125
vt 0.40625 0.03125
vt 0.40625 0.03125
vt 0.40625 0.03125
vt 0.40625 0.03125
vt 0.40625 0.03125
vt 0.40625 0.03125
vt 0.40625 0.03125
vt 0.40625 0.03125
vt 0.40625 0.03125
vt 0.40625 0.03125
vt 0.40625 0.03125
vt 0.40625 0.03125
vt 0.40625 0.03125
vt 0.40625 0.03125
vt 0.40625 0.03125
vt 0.40625 0.03125
vt 0.40625 0.03125
vt 0.40625 0.03125
vt 0.40625 0.03125
vt 0.40625 0.03125
vt 0.40625 0.03125
vt 0.40625 0.03125
vt 0.40625 0.03125
vt 0.40625 0.03125
vt 0.40625 0.03125
vt 0.40625 0.03125
vt 0.40625 0.03125
vt 0.40625 0.03125
vt 0.40625 0.03125
vt 0.40625 0.03125
vt 0.40625 0.03125
vt 0.40625 0.03125
vt 0.40625 0.03125
vt 0.40625 0.03125
vt 0.40625 0.03125
vt 0.40625 0.03125
vt 0.40625 0.03125
vt 0.40625 0.03125
vt 0.40625 0.03125
vt 0.40625 0.03125
vt 0.40625 0.03125
vt 0.40625 0.03125
vt 0.40625 0.03125
vt 0.40625 0.03125
vt 0.40625 0.03125
vt 0.40625 0.03125
vt 0.40625 0.03125
vt 0.40625 0.03125
vt 0.40625 0.03125
vt 0.40625 0.03125
vt 0.40625 0.03125
vt 0.40625 0.03125
vt 0.40625 0.03125
vt 0.40625 0.03125
vt 0.40625 0.03125
vt 0.40625 0.03125
vt 0.40625 0.03125
vt 0.40625 0.03125
vt 0.40625 0.03125
vt 0.40625 0.03125
vt 0.40625 0.03125
vt 0.40625 0.03125
vt 0.40625 0.03125
vt 0.40625 0.03125
vt 0.40625 0.03125
vt 0.40625 0.03125
vt 0.40625 0.03125
vt 0.40625 0.03125
vt 0.40625 0.03125
vt 0.40625 0.03125
vt 0.40625 0.03125
vt 0.40625 0.03125
vt 0.40625 0.03125
vt 0.40625 0.03125
vt 0.40625 0.03125
vt 0.40625 0.03125
vt 0.40625 0.03125
vt 0.40625 0.03125
vt 0.40625 0.03125
vt 0.40625 0.03125
vt 0.40625 0.03125
vt 0.40625 0.03125
vt 0.40625 0.03125
vt 0.40625 0.03125
vt 0.40625 0.03125
vt 0.40625 0.03125
vt 0.40625 0.03125
vt 0.40625 0.03125
vt 0.40625 0.03125
vt 0.40625 0.03125
vt 0.40625 0.03125
vt 0.40625 0.03125
vt 0.40625 0.03125
vt 0.40625 0.03125
vt 0.40625 0.03125
vt 0.40625 0.03125
vt 0.40625 0.03125
vt 0.40625 0.03125
vt 0.40625 0.03125
vt 0.40625 0.03125
vt 0.40625 0.03125
vt 0.40625 0.03125
vt 0.40625 0.03125
vt 0.40625 0.03125
vt 0.40625 0.03125
vt 0.40625 0.03125
vt 0.40625 0.03125
vt 0.40625 0.03125
vt 0.40625 0.03125
vt 0.40625 0.03125
vt 0.40625 0.03125
vt 0.40625 0.03125
vt 0.40625 0.03125
vt 0.40625 0.03125
vt 0.40625 0.03125
vt 0.40625 0.03125
vt 0.40625 0.03125
vt 0.40625 0.03125
vt 0.40625 0.03125
vt 0.40625 0.03125
vt 0.40625 0.03125
vt 0.03125 0.34448528
vt 0.03125 0.34448528
vt 0.03125 0.34448528
vt 0.03125 0.34448528
vt 0.03125 0.34448528
vt 0.03125 0.34448528
vt 0.03125 0.34448528
vt 0.03125 0.34448528
vt 0.03125 0.34448528
vt 0.03125 0.34448528
vt 0.03125 0.34448528
vt 0.03125 0.34448528
vt 0.03125 0.34448528
vt 0.03125 0.34448528
vt 0.03125 0.34448528
vt 0.03125 0.34448528
vt 0.03125 0.34448528
vt 0.03125 0.34448528
vt 0.03125 0.34448528
vt 0.03125 0.34448528
vt 0.03125 0.34448528
vt 0.03125 0.34448528
vt 0.03125 0.34448528
vt 0.03125 0.34448528
vt 0.03125 0.34448528
vt 0.03125 0.34448528
vt 0.03125 0.34448528
vt 0.03125 0.34448528
vt 0.03125 0.34448528
vt 0.03125 0.34448528
vn -0.015871048 0.015871048 0.99974805
vn -0.015871048 0.015871048 0.99974805
vn -0.015871048 0.015871048 0.99974805
vn -0.015871048 0.015871048 0.99974805
vn -0.015871048 0.015871048 0.99974805
vn -0.015871048 0.015871048 0.99974805
vn -0.015871048 0.015871048 0.99974805
vn -0.015871048 0.015871048 0.99974805
vn -0.015871048 0.015871048 0.99974805
vn -0.015871048 0.015871048 0.99974805
vn -0.015871048 0.015871048 -0.99974805
vn -0.015871048 0.015871048 -0.99974805
vn -0.015871048 0.015871048 -0.99974805
vn -0.015871048 0.015871048 -0.99974805
vn -0.015871048 0.015871048 -0.99974805
vn -0.015871048 0.015871048 -0.99974805
vn -0.015871048 0.015871048 -0.99974805
vn -0.015871048 0.015871048 -0.99974805
vn -0.015871048 0.015871048 -0.99974805
vn -0.015871048 0.015871048 -0.99974805
vn -0.015871048 0.015871048 -0.99974805
vn -0.015871048 0.015871048 -0.99974805
vn -0.015871048 0.015871048 -0.99974805
vn -0.015871048 0.015871048 -0.99974805
vn -0.015871048 0.015871048 -0.99974805
vn -0.015871048 0.015871048 -0.99974805
vn -0.015871048 0.015871048 -0.99974805
vn -0.015871048 0.015871048 -0.99974805
vn -0.015871048 0.015871048 -0.99974805
vn -0.015871048 0.015871048 -0.99974805
vn -0.015871048 0.015871048 0.99974805
vn -0.015871048 0.015871048 0.99974805
vn -0.015871048 0.015871048 0.99974805
vn -0.015871048 0.015871048 0.99974805
vn -0.015871048 0.015871048 0.99974805
vn -0.015871048 0.015871048 0.99974805
vn -0.015871048 0.015871048 0.99974805
vn -0.015871048 0.015871048 0.99974805
vn -0.015871048 0.015871048 0.99974805
vn -0.015871048 0.015871048 0.99974805
vn -0.015871048 0.015871048 -0.99974805
vn -0.015871048 0.015871048 -0.99974805
vn -0.015871048 0.015871048 -0.99974805
vn -0.015871048 0.015871048 -0.99974805
vn -0.015871048 0.015871048 -0.99974805
vn -0.015871048 0.015871048 -0.99974805
vn -0.015871048 0.015871048 -0.99974805
vn -0.015871048 0.015871048 -0.99974805
vn -0.015871048 0.015871048 -0.99974805
vn -0.015871048 0.015871048 -0.99974805
vn -0.015871048 0.015871048 -0.99974805
vn -0.015871048 0.015871048 -0.99974805
vn -0.015871048 0.015871048 -0.99974805
vn -0.015871048 0.015871048 -0.99974805
vn -0.015871048 0.015871048 -0.99974805
vn -0.015871048 0.015871048 -0.99974805
vn -0.015871048 0.015871048 -0.99974805
vn -0.015871048 0.015871048 -0.99974805
vn -0.015871048 0.015871048 -0.99974805
vn -0.015871048 0.015871048 -0.99974805
vn -0.999874 0.015871048 -0.00034391563
vn -0.8094218 0.5872276 -0.00042286396
vn -0.999874 0.015871048 -0.00034391563
vn -0.8094218 0.5872276 -0.00042286396
vn -0.8094218 -0.5872276 -0.00042286396
vn -0.30154932 0.9363899 -0.17956024
vn -0.8094218 -0.5872276 -0.00042286396
vn -0.30154932 0.9363899 -0.17956024
vn -0.30154932 -0.9363899 -0.17956024
vn 0.30154932 0.9363899 -0.17956024
vn -0.30154932 -0.9363899 -0.17956024
vn 0.30154932 0.9363899 -0.17956024
vn 0.30154932 -0.9363899 -0.17956024
vn 0.8094218 0.5872276 -0.00042286396
vn 0.30154932 -0.9363899 -0.17956024
vn 0.8094218 0.5872276 -0.00042286396
vn 0.8094218 -0.5872276 -0.00042286396
vn 0.999874 0.015871048 -0.00034391563
vn 0.8094218 -0.5872276 -0.00042286396
vn 0.999874 0.015871048 -0.00034391563
vn -0.8094218 -0.5872276 -0.00042286396
vn -0.8094218 -0.5872276 -0.00042286396
vn -0.999874 0.015871048 -0.00034391563
vn -0.999874 0.015871048 -0.00034391563
vn -0.30154932 -0.9363899 -0.17956024
vn -0.8094218 0.5872276 -0.00042286396
vn -0.30154932 -0.9363899 -0.17956024
vn -0.8094218 0.5872276 -0.00042286396
vn 0.30154932 -0.9363899 -0.17956024
vn -0.30154932 0.9363899 -0.17956024
vn 0.30154932 -0.9363899 -0.17956024
vn -0.30154932 0.9363899 -0.17956024
vn 0.8094218 -0.5872276 -0.00042286396
vn 0.30154932 0.9363899 -0.17956024
vn 0.8094218 -0.5872276 -0.00042286396
vn 0.30154932 0.9363899 -0.17956024
vn 0.999874 -0.015870988 -0.00034665503
vn 0.8094218 0.5872276 -0.00042286396
vn 0.999874 -0.015870988 -0.00034665503
vn 0.8094218 0.5872276 -0.00042286396
vn -0.999874 0.015871048 -0.00034391563
vn -0.8094218 0.5872276 -0.00042286396
vn -0.8094218 0.5872276 -0.00042286396
vn -0.999874 0.015871048 -0.00034391563
vn -0.30154932 0.9363899 -0.17956024
vn -0.8094218 -0.5872276 -0.00042286396
vn -0.30154932 0.9363899 -0.17956024
vn -0.8094218 -0.5872276 -0.00042286396
vn 0.30154932 0.9363899 -0.17956024
vn -0.30154932 -0.9363899 -0.17956024
vn 0.30154932 0.9363899 -0.17956024
vn -0.30154932 -0.9363899 -0.17956024
vn 0.8094218 0.5872276 -0.00042286396
vn 0.30154932 -0.9363899 -0.17956024
vn 0.8094218 0.5872276 -0.00042286396
vn 0.30154932 -0.9363899 -0.17956024
vn 0.999874 0.015871048 -0.00034391563
vn 0.8094218 -0.5872276 -0.00042286396
vn 0.999874 0.015871048 -0.00034391563
vn 0.8094218 -0.5872276 -0.00042286396
vn -0.015871048 0.015871048 0.99974805
vn -0.015871048 0.015871048 0.99974805
vn -0.015871048 0.015871048 0.99974805
vn -0.015871048 0.015871048 0.99974805
vn -0.015871048 0.015871048 0.99974805
vn -0.015871048 0.015871048 0.99974805
vn -0.015871048 0.015871048 0.99974805
vn -0.015871048 0.015871048 0.99974805
vn -0.015871048 -0.015870988 0.99974805
vn -0.015871048 0.015871048 0.99974805
vn -0.015871048 -0.015870988 0.99974805
vn -0.015871048 0.015871048 0.99974805
vn -0.015871048 -0.015870988 0.99974805
vn -0.015871048 0.015871048 0.99974805
vn -0.015871048 -0.015870988 0.99974805
vn -0.015871048 0.015871048 0.99974805
vn -0.015871048 -0.015870988 0.99974805
vn -0.015871048 0.015871048 0.99974805
vn -0.015871048 -0.015870988 0.99974805
vn -0.015871048 0.015871048 0.99974805
vn 0.30154932 -0.9363899 -0.17956024
vn 0.8094218 -0.5872276 -0.00042286396
vn 0.8094218 -0.5872276 -0.00042286396
vn 0.30154932 -0.9363899 -0.17956024
vn 0.999874 0.015871048 -0.00034391563
vn -0.30154932 -0.9363899 -0.17956024
vn 0.999874 0.015871048 -0.00034391563
vn -0.30154932 -0.9363899 -0.17956024
vn 0.8094218 0.5872276 -0.00042286396
vn -0.8094218 -0.5872276 -0.00042286396
vn 0.8094218 0.5872276 -0.00042286396
vn -0.8094218 -0.5872276 -0.00042286396
vn 0.30154932 0.9363899 -0.17956024
vn -0.999874 0.015871048 -0.00034391563
vn 0.30154932 0.9363899 -0.17956024
vn -0.999874 0.015871048 -0.00034391563
vn -0.30154932 0.9363899 -0.17956024
vn -0.8094218 0.5872276 -0.00042286396
vn -0.30154932 0.9363899 -0.17956024
vn -0.8094218 0.5872276 -0.00042286396
vn -0.7141957 -0.5237435 -0.46434602
vn -0.87290585 0.015871048 -0.4876305
vn -0.999874 0.015871048 -0.00034391563
vn -0.8094218 -0.5872276 -0.00042286396
vn -0.26980734 -0.8411638 -0.46866563
vn -0.8094218 0.5872276 -0.00042286396
vn -0.7141957 0.5237435 -0.46434602
vn -0.30154932 -0.9363899 -0.17956024
vn 0.26980728 -0.8411638 -0.46866563
vn -0.30154932 0.9363899 -0.17956024
vn -0.26980734 0.8411639 -0.4686655
vn 0.30154932 -0.9363899 -0.17956024
vn 0.7141957 -0.5237435 -0.46434602
vn 0.30154932 0.9363899 -0.17956024
vn 0.26980728 0.8411639 -0.4686655
vn 0.8094218 -0.5872276 -0.00042286396
vn 0.87290585 0.015871048 -0.4876305
vn 0.8094218 0.5872276 -0.00042286396
vn 0.7141957 0.5237435 -0.46434602
vn 0.999874 -0.015870988 -0.00034665503
vn -0.26980734 0.8411639 0.4686655
vn -0.7141957 0.5237435 0.46434602
vn 0.26980728 0.8411639 0.4686655
vn 0.7141957 0.5237435 0.46434602
vn -0.87290585 0.015871048 0.4876305
vn 0.87290585 0.015871048 0.4876305
vn 0.7141957 -0.5237435 0.46434602
vn -0.7141957 -0.5237435 0.46434602
vn 0.26980728 -0.8411638 0.46866563
vn -0.26980734 -0.8411638 0.46866563
g Biscuit_01_0
f 3/3/3 2/2/2 1/1/1
f 1/1/1 4/4/4 3/3/3
f 4/4/4 5/5/5 3/3/3
f 4/4/4 6/6/6 5/5/5
f 4/4/4 7/7/7 6/6/6
f 7/7/7 8/8/8 6/6/6
f 8/8/8 9/9/9 6/6/6
f 8/8/8 10/10/10 9/9/9
f 13/13/13 12/12/12 11/11/11
f 11/11/11 14/14/14 13/13/13
f 14/14/14 15/15/15 13/13/13
f 14/14/14 16/16/16 15/15/15
f 16/16/16 17/17/17 15/15/15
f 16/16/16 18/18/18 17/17/17
f 16/16/16 19/19/19 18/18/18
f 19/19/19 20/20/20 18/18/18
f 23/23/23 22/22/22 21/21/21
f 21/21/21 24/24/24 23/23/23
f 21/21/21 25/25/25 24/24/24
f 25/25/25 26/26/26 24/24/24
f 26/26/26 27/27/27 24/24/24
f 26/26/26 28/28/28 27/27/27
f 26/26/26 29/29/29 28/28/28
f 29/29/29 30/30/30 28/28/28
f 33/33/33 32/32/32 31/31/31
f 31/31/31 34/34/34 33/33/33
f 34/34/34 35/35/35 33/33/33
f 34/34/34 36/36/36 35/35/35
f 34/34/34 37/37/37 36/36/36
f 37/37/37 38/38/38 36/36/36
f 38/38/38 39/39/39 36/36/36
f 38/38/38 40/40/40 39/39/39
f 43/43/43 42/42/42 41/41/41
f 42/42/42 44/44/44 41/41/41
f 45/45/45 42/42/42 43/43/43
f 41/41/41 44/44/44 46/46/46
f 47/47/47 45/45/45 43/43/43
f 44/44/44 48/48/48 46/46/46
f 49/49/49 45/45/45 47/47/47
f 46/46/46 48/48/48 50/50/50
f 51/51/51 49/49/49 47/47/47
f 48/48/48 52/52/52 50/50/50
f 53/53/53 49/49/49 51/51/51
f 50/50/50 52/52/52 54/54/54
f 55/55/55 53/53/53 51/51/51
f 52/52/52 56/56/56 54/54/54
f 57/57/57 53/53/53 55/55/55
f 54/54/54 56/56/56 58/58/58
f 59/59/59 57/57/57 55/55/55
f 56/56/56 60/60/60 58/58/58
f 60/60/60 57/57/57 59/59/59
f 58/58/58 60/60/60 59/59/59
f 63/63/63 62/62/62 61/61/61
f 62/62/62 64/64/64 61/61/61
f 63/63/63 61/61/61 65/65/65
f 62/62/62 66/66/66 64/64/64
f 67/67/67 63/63/63 65/65/65
f 66/66/66 68/68/68 64/64/64
f 67/67/67 65/65/65 69/69/69
f 66/66/66 70/70/70 68/68/68
f 71/71/71 67/67/67 69/69/69
f 70/70/70 72/72/72 68/68/68
f 71/71/71 69/69/69 73/73/73
f 70/70/70 74/74/74 72/72/72
f 75/75/75 71/71/71 73/73/73
f 74/74/74 76/76/76 72/72/72
f 75/75/75 73/73/73 77/77/77
f 74/74/74 78/78/78 76/76/76
f 79/79/79 75/75/75 77/77/77
f 78/78/78 80/80/80 76/76/76
f 79/79/79 77/77/77 80/80/80
f 78/78/78 79/79/79 80/80/80
f 83/83/83 82/82/82 81/81/81
f 84/84/84 83/83/83 81/81/81
f 81/81/81 82/82/82 85/85/85
f 86/86/86 83/83/83 84/84/84
f 82/82/82 87/87/87 85/85/85
f 88/88/88 86/86/86 84/84/84
f 85/85/85 87/87/87 89/89/89
f 90/90/90 86/86/86 88/88/88
f 87/87/87 91/91/91 89/89/89
f 92/92/92 90/90/90 88/88/88
f 89/89/89 91/91/91 93/93/93
f 94/94/94 90/90/90 92/92/92
f 91/91/91 95/95/95 93/93/93
f 96/96/96 94/94/94 92/92/92
f 93/93/93 95/95/95 97/97/97
f 98/98/98 94/94/94 96/96/96
f 95/95/95 99/99/99 97/97/97
f 100/100/100 98/98/98 96/96/96
f 97/97/97 99/99/99 100/100/100
f 99/99/99 98/98/98 100/100/100
f 103/103/103 102/102/102 101/101/101
f 104/104/104 103/103/103 101/101/101
f 103/103/103 105/105/105 102/102/102
f 104/104/104 101/101/101 106/106/106
f 105/105/105 107/107/107 102/102/102
f 108/108/108 104/104/104 106/106/106
f 105/105/105 109/109/109 107/107/107
f 108/108/108 106/106/106 110/110/110
f 109/109/109 111/111/111 107/107/107
f 112/112/112 108/108/108 110/110/110
f 109/109/109 113/113/113 111/111/111
f 112/112/112 110/110/110 114/114/114
f 113/113/113 115/115/115 111/111/111
f 116/116/116 112/112/112 114/114/114
f 113/113/113 117/117/117 115/115/115
f 116/116/116 114/114/114 118/118/118
f 117/117/117 119/119/119 115/115/115
f 120/120/120 116/116/116 118/118/118
f 120/120/120 118/118/118 119/119/119
f 117/117/117 120/120/120 119/119/119
f 123/123/123 122/122/122 121/121/121
f 124/124/124 123/123/123 121/121/121
f 121/121/121 122/122/122 125/125/125
f 126/126/126 123/123/123 124/124/124
f 122/122/122 127/127/127 125/125/125
f 128/128/128 126/126/126 124/124/124
f 125/125/125 127/127/127 129/129/129
f 130/130/130 126/126/126 128/128/128
f 127/127/127 131/131/131 129/129/129
f 132/132/132 130/130/130 128/128/128
f 129/129/129 131/131/131 133/133/133
f 134/134/134 130/130/130 132/132/132
f 131/131/131 135/135/135 133/133/133
f 136/136/136 134/134/134 132/132/132
f 133/133/133 135/135/135 137/137/137
f 138/138/138 134/134/134 136/136/136
f 135/135/135 139/139/139 137/137/137
f 140/140/140 138/138/138 136/136/136
f 137/137/137 139/139/139 140/140/140
f 139/139/139 138/138/138 140/140/140
f 143/143/143 142/142/142 141/141/141
f 142/142/142 144/144/144 141/141/141
f 145/145/145 142/142/142 143/143/143
f 141/141/141 144/144/144 146/146/146
f 147/147/147 145/145/145 143/143/143
f 144/144/144 148/148/148 146/146/146
f 149/149/149 145/145/145 147/147/147
f 146/146/146 148/148/148 150/150/150
f 151/151/151 149/149/149 147/147/147
f 148/148/148 152/152/152 150/150/150
f 153/153/153 149/149/149 151/151/151
f 150/150/150 152/152/152 154/154/154
f 155/155/155 153/153/153 151/151/151
f 152/152/152 156/156/156 154/154/154
f 157/157/157 153/153/153 155/155/155
f 154/154/154 156/156/156 158/158/158
f 159/159/159 157/157/157 155/155/155
f 156/156/156 160/160/160 158/158/158
f 160/160/160 157/157/157 159/159/159
f 158/158/158 160/160/160 159/159/159
f 163/163/163 162/162/162 161/161/161
f 164/164/164 163/163/163 161/161/161
f 164/164/164 161/161/161 165/165/165
f 163/163/163 166/166/166 162/162/162
f 166/166/166 167/167/167 162/162/162
f 168/168/168 164/164/164 165/165/165
f 168/168/168 165/165/165 169/169/169
f 166/166/166 170/170/170 167/167/167
f 170/170/170 171/171/171 167/167/167
f 172/172/172 168/168/168 169/169/169
f 172/172/172 169/169/169 173/173/173
f 170/170/170 174/174/174 171/171/171
f 174/174/174 175/175/175 171/171/171
f 176/176/176 172/172/172 173/173/173
f 176/176/176 173/173/173 177/177/177
f 174/174/174 178/178/178 175/175/175
f 178/178/178 179/179/179 175/175/175
f 180/180/180 177/177/177 179/179/179
f 180/180/180 176/176/176 177/177/177
f 178/178/178 180/180/180 179/179/179
f 181/181/181 170/170/170 166/166/166
f 182/182/182 181/181/181 166/166/166
f 181/181/181 183/183/183 170/170/170
f 183/183/183 174/174/174 170/170/170
f 182/182/182 166/166/166 163/163/163
f 183/183/183 184/184/184 174/174/174
f 184/184/184 178/178/178 174/174/174
f 185/185/185 182/182/182 163/163/163
f 184/184/184 186/186/186 178/178/178
f 186/186/186 180/180/180 178/178/178
f 185/185/185 163/163/163 164/164/164
f 186/186/186 187/187/187 180/180/180
f 187/187/187 176/176/176 180/180/180
f 188/188/188 185/185/185 164/164/164
f 187/187/187 189/189/189 176/176/176
f 188/188/188 164/164/164 168/168/168
f 189/189/189 172/172/172 176/176/176
f 190/190/190 188/188/188 168/168/168
f 190/190/190 168/168/168 172/172/172
f 189/189/189 190/190/190 172/172/172
