g CakeSlice_02
v -0.30878627 -0.0001334846 -0.29660308
v -0.29555798 -0.15576056 -0.29660308
v -0.24809176 -0.30438444 -0.29660308
v -0.17261261 -0.27325904 -0.29660308
v -0.030991912 -0.21489885 -0.29660308
v 0.48724627 -0.0001334846 -0.29660308
v -0.027101278 0.21307564 -0.29660308
v -0.20218176 0.28544223 -0.29660308
v -0.24809176 0.30489564 -0.29660308
v -0.29555798 0.15549362 -0.29660308
v -0.29555798 0.15549362 0.17339075
v -0.24809176 0.30489564 0.17339075
v -0.24809176 0.30489564 0.24186665
v -0.29555798 0.15549362 0.24186665
v -0.30878627 -0.0001334846 0.17339075
v -0.23953223 0.14459974 0.30567378
v -0.19595665 0.28310782 0.30567378
v -0.2519824 -0.0001334846 0.30567378
v -0.30878627 -0.0001334846 0.24186665
v -0.29555798 -0.15576056 0.17339075
v -0.23953223 -0.14486668 0.30567378
v -0.29555798 -0.15576056 0.24186665
v -0.24809176 -0.30438444 0.17339075
v -0.19595665 -0.28259665 0.30567378
v -0.24809176 -0.30438444 0.24186665
v -0.23953223 -0.14486668 0.30567378
v -0.029435694 -0.21412072 0.30567378
v -0.19595665 -0.28259665 0.30567378
v -0.06289548 -0.109850585 0.30567378
v -0.2519824 -0.0001334846 0.30567378
v -0.07223314 -0.0001334846 0.30567378
v 0.48724627 -0.0001334846 0.30567378
v -0.23953223 0.14459974 0.30567378
v -0.029435694 0.21385378 0.30567378
v -0.06289548 0.109583616 0.30567378
v -0.19595665 0.28310782 0.30567378
v -0.24809176 -0.30438444 -0.1386416
v -0.17261261 -0.27325904 -0.29660308
v -0.24809176 -0.30438444 -0.29660308
v -0.17416888 -0.27403715 -0.1386416
v -0.030991912 -0.21489885 -0.29660308
v -0.03254819 -0.21489885 -0.1386416
v 0.48724627 -0.0001334846 -0.29660308
v 0.48724627 -0.0001334846 -0.1386416
v -0.24809176 -0.30438444 0.17339075
v -0.17416888 -0.27403715 0.018541753
v -0.24809176 -0.30438444 0.018541753
v -0.17572516 -0.2748153 0.17339075
v -0.03254819 -0.215677 0.018541753
v -0.034104466 -0.215677 0.17339075
v 0.48724627 -0.0001334846 0.018541753
v 0.48724627 -0.0001334846 0.17339075
v -0.29555798 0.15549362 -0.1386416
v -0.24809176 0.30489564 -0.1386416
v -0.24809176 0.30489564 0.018541753
v -0.29555798 0.15549362 0.018541753
v -0.30878627 -0.0001334846 -0.1386416
v -0.30878627 -0.0001334846 0.018541753
v -0.29555798 -0.15576056 -0.1386416
v -0.29555798 -0.15576056 0.018541753
v -0.24809176 -0.30438444 -0.1386416
v -0.24809176 -0.30438444 0.018541753
v 0.48724627 -0.0001334846 0.17339075
v -0.027879417 0.21307564 0.018541753
v 0.48724627 -0.0001334846 0.018541753
v -0.029435694 0.21385378 0.17339075
v -0.19984734 0.2846641 0.018541753
v -0.19673479 0.28310782 0.17339075
v -0.24809176 0.30489564 0.018541753
v -0.24809176 0.30489564 0.17339075
v -0.24809176 -0.30438444 0.018541753
v -0.17416888 -0.27403715 -0.1386416
v -0.24809176 -0.30438444 -0.1386416
v -0.17416888 -0.27403715 0.018541753
v -0.03254819 -0.21489885 -0.1386416
v -0.03254819 -0.215677 0.018541753
v 0.48724627 -0.0001334846 -0.1386416
v 0.48724627 -0.0001334846 0.018541753
v 0.48724627 -0.0001334846 0.24186665
v 0.48724627 -0.0001334846 0.17339075
v -0.034104466 -0.215677 0.17339075
v -0.030991912 -0.21489885 0.24186665
v 0.48724627 -0.0001334846 0.30567378
v -0.17572516 -0.2748153 0.17339075
v -0.029435694 -0.21412072 0.30567378
v -0.18039393 -0.27637157 0.24186665
v -0.24809176 -0.30438444 0.17339075
v -0.19595665 -0.28259665 0.30567378
v -0.24809176 -0.30438444 0.24186665
v -0.29555798 0.15549362 -0.1386416
v -0.24809176 0.30489564 -0.29660308
v -0.24809176 0.30489564 -0.1386416
v -0.29555798 0.15549362 -0.29660308
v -0.30878627 -0.0001334846 -0.29660308
v -0.30878627 -0.0001334846 -0.1386416
v -0.29555798 -0.15576056 -0.1386416
v -0.29555798 -0.15576056 -0.29660308
v -0.24809176 -0.30438444 -0.29660308
v -0.24809176 -0.30438444 -0.1386416
v 0.48724627 -0.0001334846 0.24186665
v -0.029435694 0.21385378 0.17339075
v 0.48724627 -0.0001334846 0.17339075
v -0.029435694 0.21385378 0.24186665
v -0.19673479 0.28310782 0.17339075
v -0.029435694 0.21385378 0.30567378
v 0.48724627 -0.0001334846 0.30567378
v -0.19595665 0.28310782 0.30567378
v -0.19595665 0.28310782 0.24186665
v -0.24809176 0.30489564 0.17339075
v -0.24809176 0.30489564 0.24186665
v 0.48724627 -0.0001334846 0.018541753
v -0.027879417 0.21307564 -0.1386416
v 0.48724627 -0.0001334846 -0.1386416
v -0.027879417 0.21307564 0.018541753
v -0.20062548 0.2846641 -0.1386416
v -0.19984734 0.2846641 0.018541753
v -0.24809176 0.30489564 -0.1386416
v -0.24809176 0.30489564 0.018541753
v -0.29555798 0.15549362 0.018541753
v -0.24809176 0.30489564 0.018541753
v -0.24809176 0.30489564 0.17339075
v -0.29555798 0.15549362 0.17339075
v -0.30878627 -0.0001334846 0.018541753
v -0.30878627 -0.0001334846 0.17339075
v -0.29555798 -0.15576056 0.17339075
v -0.29555798 -0.15576056 0.018541753
v -0.24809176 -0.30438444 0.17339075
v -0.24809176 -0.30438444 0.018541753
v -0.20218176 0.28544223 -0.29660308
v -0.24809176 0.30489564 -0.1386416
v -0.24809176 0.30489564 -0.29660308
v -0.20062548 0.2846641 -0.1386416
v -0.027879417 0.21307564 -0.1386416
v -0.027101278 0.21307564 -0.29660308
v 0.48724627 -0.0001334846 -0.29660308
v 0.48724627 -0.0001334846 -0.1386416
vt 0.6557598 0.03125
vt 0.6557598 0.03125
vt 0.6557598 0.03125
vt 0.6557598 0.03125
vt 0.6557598 0.03125
vt 0.6557598 0.03125
vt 0.6557598 0.03125
vt 0.6557598 0.03125
vt 0.6557598 0.03125
vt 0.6557598 0.03125
vt 0.78002447 0.2797794
vt 0.78002447 0.2797794
vt 0.78002447 0.2797794
vt 0.78002447 0.2797794
vt 0.78002447 0.2797794
vt 0.78002447 0.2797794
vt 0.78002447 0.2797794
vt 0.78002447 0.2797794
vt 0.78002447 0.2797794
vt 0.78002447 0.2797794
vt 0.78002447 0.2797794
vt 0.78002447 0.2797794
vt 0.78002447 0.2797794
vt 0.78002447 0.2797794
vt 0.78002447 0.2797794
vt 0.78002447 0.2797794
vt 0.78002447 0.2797794
vt 0.78002447 0.2797794
vt 0.78002447 0.2797794
vt 0.78002447 0.2797794
vt 0.78002447 0.2797794
vt 0.78002447 0.2797794
vt 0.78002447 0.2797794
vt 0.78002447 0.2797794
vt 0.78002447 0.2797794
vt 0.78002447 0.2797794
vt 0.84375 0.21924019
vt 0.84375 0.21924019
vt 0.84375 0.21924019
vt 0.84375 0.21924019
vt 0.84375 0.21924019
vt 0.84375 0.21924019
vt 0.84375 0.21924019
vt 0.84375 0.21924019
vt 0.84375 0.21924019
vt 0.84375 0.21924019
vt 0.84375 0.21924019
vt 0.84375 0.21924019
vt 0.84375 0.21924019
vt 0.84375 0.21924019
vt 0.84375 0.21924019
vt 0.84375 0.21924019
vt 0.78002447 0.2797794
vt 0.78002447 0.2797794
vt 0.78002447 0.2797794
vt 0.78002447 0.2797794
vt 0.78002447 0.2797794
vt 0.78002447 0.2797794
vt 0.78002447 0.2797794
vt 0.78002447 0.2797794
vt 0.78002447 0.2797794
vt 0.78002447 0.2797794
vt 0.84375 0.21924019
vt 0.84375 0.21924019
vt 0.84375 0.21924019
vt 0.84375 0.21924019
vt 0.84375 0.21924019
vt 0.84375 0.21924019
vt 0.84375 0.21924019
vt 0.84375 0.21924019
vt 0.78002447 0.2797794
vt 0.78002447 0.2797794
vt 0.78002447 0.2797794
vt 0.78002447 0.2797794
vt 0.78002447 0.2797794
vt 0.78002447 0.2797794
vt 0.78002447 0.2797794
vt 0.78002447 0.2797794
vt 0.78002447 0.2797794
vt 0.78002447 0.2797794
vt 0.78002447 0.2797794
vt 0.78002447 0.2797794
vt 0.78002447 0.2797794
vt 0.78002447 0.2797794
vt 0.78002447 0.2797794
vt 0.78002447 0.2797794
vt 0.78002447 0.2797794
vt 0.78002447 0.2797794
vt 0.78002447 0.2797794
vt 0.84375 0.21924019
vt 0.84375 0.21924019
vt 0.84375 0.21924019
vt 0.84375 0.21924019
vt 0.84375 0.21924019
vt 0.84375 0.21924019
vt 0.84375 0.21924019
vt 0.84375 0.21924019
vt 0.84375 0.21924019
vt 0.84375 0.21924019
vt 0.78002447 0.2797794
vt 0.78002447 0.2797794
vt 0.78002447 0.2797794
vt 0.78002447 0.2797794
vt 0.78002447 0.2797794
vt 0.78002447 0.2797794
vt 0.78002447 0.2797794
vt 0.78002447 0.2797794
vt 0.78002447 0.2797794
vt 0.78002447 0.2797794
vt 0.78002447 0.2797794
vt 0.78002447 0.2797794
vt 0.78002447 0.2797794
vt 0.78002447 0.2797794
vt 0.78002447 0.2797794
vt 0.78002447 0.2797794
vt 0.78002447 0.2797794
vt 0.78002447 0.2797794
vt 0.78002447 0.2797794
vt 0.84375 0.21924019
vt 0.84375 0.21924019
vt 0.84375 0.21924019
vt 0.84375 0.21924019
vt 0.84375 0.21924019
vt 0.84375 0.21924019
vt 0.84375 0.21924019
vt 0.84375 0.21924019
vt 0.84375 0.21924019
vt 0.84375 0.21924019
vt 0.84375 0.21924019
vt 0.84375 0.21924019
vt 0.84375 0.21924019
vt 0.84375 0.21924019
vt 0.84375 0.21924019
vt 0.84375 0.21924019
vt 0.84375 0.21924019
vt 0.84375 0.21924019
vn 0.007760763 -0.007760763 -0.9999398
vn 0.007760763 -0.007760763 -0.9999398
vn 0.007760763 -0.007760763 -0.9999398
vn 0.007760763 -0.007760763 -0.9999398
vn 0.007760763 -0.007760763 -0.9999398
vn 0.007760763 -0.007760763 -0.9999398
vn 0.007760763 -0.007760763 -0.9999398
vn 0.007760763 -0.007760763 -0.9999398
vn 0.007760763 -0.007760763 -0.9999398
vn 0.007760763 -0.007760763 -0.9999398
vn -0.9694327 0.20600033 0.13328196
vn -0.93889546 0.2976122 0.17292282
vn -0.9083581 0.2976122 0.29378998
vn -0.9083581 0.17546308 0.3796028
vn -0.99996996 -0.0077607622 -0
vn -0.7251344 0.14492571 0.673184
vn -0.7251344 0.2365377 0.6467071
vn -0.7556716 -0.007760763 0.65490466
vn -0.93889546 -0.007760763 0.34411493
vn -0.9694327 -0.19098449 -0.15402968
vn -0.7251344 -0.16044724 0.6696543
vn -0.9083581 -0.19098449 0.37203562
vn -0.93889546 -0.31313372 -0.14290763
vn -0.7251344 -0.2215218 0.6520033
vn -0.9083581 -0.2825964 0.30826098
vn 0.007760763 -0.007760763 0.9999398
vn 0.007760763 -0.007760763 0.9999398
vn 0.007760763 -0.007760763 0.9999398
vn 0.007760763 -0.007760763 0.9999398
vn 0.007760763 -0.007760763 0.9999398
vn 0.007760763 -0.007760763 0.9999398
vn 0.007760763 -0.007760763 0.9999398
vn 0.007760763 -0.007760763 0.9999398
vn 0.007760763 -0.007760763 0.9999398
vn 0.007760763 -0.007760763 0.9999398
vn 0.007760763 -0.007760763 0.9999398
vn 0.37420827 -0.9238796 -0.08009152
vn 0.37420827 -0.9238796 -0.08009152
vn 0.37420827 -0.9238796 -0.08009152
vn 0.37420827 -0.9238796 -0.08009152
vn 0.37420827 -0.9238796 -0.08009152
vn 0.37420827 -0.9238796 -0.08009152
vn 0.37420827 -0.9238796 -0.08009152
vn 0.37420827 -0.9238796 -0.08009152
vn 0.37420827 -0.9238796 -0.08009152
vn 0.37420827 -0.9238796 -0.08009152
vn 0.37420827 -0.9238796 -0.08009152
vn 0.37420827 -0.9238796 -0.08009152
vn 0.37420827 -0.9238796 -0.08009152
vn 0.37420827 -0.9238796 -0.08009152
vn 0.37420827 -0.9238796 -0.08009152
vn 0.37420827 -0.9238796 -0.08009152
vn -0.9694327 0.20600033 -0.13328196
vn -0.93889546 0.2976122 -0.17292282
vn -0.93889546 0.2976122 -0.17292282
vn -0.9694327 0.20600033 -0.13328196
vn -0.99996996 -0.0077607622 -0
vn -0.99996996 -0.0077607622 -0
vn -0.9694327 -0.19098449 -0.15402968
vn -0.9694327 -0.19098449 -0.15402968
vn -0.93889546 -0.31313372 -0.14290763
vn -0.93889546 -0.31313372 -0.14290763
vn 0.37023905 0.9289366 -0
vn 0.37023905 0.9289366 -0
vn 0.37023905 0.9289366 -0
vn 0.37023905 0.9289366 -0
vn 0.37023905 0.9289366 -0
vn 0.37023905 0.9289366 -0
vn 0.37023905 0.9289366 -0
vn 0.37023905 0.9289366 -0
vn 0.37420827 -0.9238796 -0.08009152
vn 0.37420827 -0.9238796 -0.08009152
vn 0.37420827 -0.9238796 -0.08009152
vn 0.37420827 -0.9238796 -0.08009152
vn 0.37420827 -0.9238796 -0.08009152
vn 0.37420827 -0.9238796 -0.08009152
vn 0.37420827 -0.9238796 -0.08009152
vn 0.37420827 -0.9238796 -0.08009152
vn 0.37420827 -0.9238796 -0.08009152
vn 0.37420827 -0.9238796 -0.08009152
vn 0.37420827 -0.9238796 -0.08009152
vn 0.37420827 -0.9238796 -0.08009152
vn 0.37420827 -0.9238796 0.08009152
vn 0.37420827 -0.9238796 -0.08009152
vn 0.37420827 -0.9238796 0.08009152
vn 0.37420827 -0.9238796 -0.08009152
vn 0.37420827 -0.9238796 -0.08009152
vn 0.37420827 -0.9238796 -0.08009152
vn 0.37420827 -0.9238796 -0.08009152
vn -0.9694327 0.20600033 -0.13328196
vn -0.93889546 0.2976122 -0.17292282
vn -0.93889546 0.2976122 -0.17292282
vn -0.9694327 0.20600033 -0.13328196
vn -0.99996996 -0.0077607622 -0
vn -0.99996996 -0.0077607622 -0
vn -0.9694327 -0.19098449 -0.15402968
vn -0.9694327 -0.19098449 -0.15402968
vn -0.93889546 -0.31313372 -0.14290763
vn -0.93889546 -0.31313372 -0.14290763
vn 0.37023905 0.9289366 -0
vn 0.37023905 0.9289366 -0
vn 0.37023905 0.9289366 -0
vn 0.37023905 0.9289366 -0
vn 0.37023905 0.9289366 -0
vn 0.37023905 0.9289366 -0
vn 0.37023905 0.9289366 -0
vn 0.37023905 0.9289366 -0
vn 0.37023905 0.9289366 -0
vn 0.37023905 0.9289366 -0
vn 0.37023905 0.9289366 -0
vn 0.37023905 0.9289366 -0
vn 0.37023905 0.9289366 -0
vn 0.37023905 0.9289366 -0
vn 0.37023905 0.9289366 -0
vn 0.37023905 0.9289366 -0
vn 0.37023905 0.9289366 -0
vn 0.37023905 0.9289366 -0
vn 0.37023905 0.9289366 -0
vn -0.9694327 0.20600033 -0.13328196
vn -0.93889546 0.2976122 -0.17292282
vn -0.93889546 0.2976122 0.17292282
vn -0.9694327 0.20600033 0.13328196
vn -0.99996996 -0.0077607622 -0
vn -0.99996996 -0.0077607622 -0
vn -0.9694327 -0.19098449 -0.15402968
vn -0.9694327 -0.19098449 -0.15402968
vn -0.93889546 -0.31313372 -0.14290763
vn -0.93889546 -0.31313372 -0.14290763
vn 0.37023905 0.9289366 -0
vn 0.37023905 0.9289366 -0
vn 0.37023905 0.9289366 -0
vn 0.37023905 0.9289366 -0
vn 0.37023905 0.9289366 -0
vn 0.37023905 0.9289366 -0
vn 0.37023905 0.9289366 -0
vn 0.37023905 0.9289366 -0
g CakeSlice_02_0
f 3/3/3 2/2/2 1/1/1
f 4/4/4 3/3/3 1/1/1
f 5/5/5 4/4/4 1/1/1
f 1/1/1 6/6/6 5/5/5
f 7/7/7 6/6/6 1/1/1
f 1/1/1 8/8/8 7/7/7
f 1/1/1 9/9/9 8/8/8
f 1/1/1 10/10/10 9/9/9
f 13/13/13 12/12/12 11/11/11
f 14/14/14 13/13/13 11/11/11
f 14/14/14 11/11/11 15/15/15
f 14/14/14 16/16/16 13/13/13
f 16/16/16 17/17/17 13/13/13
f 18/18/18 16/16/16 14/14/14
f 19/19/19 14/14/14 15/15/15
f 19/19/19 18/18/18 14/14/14
f 19/19/19 15/15/15 20/20/20
f 21/21/21 18/18/18 19/19/19
f 22/22/22 19/19/19 20/20/20
f 22/22/22 21/21/21 19/19/19
f 22/22/22 20/20/20 23/23/23
f 24/24/24 21/21/21 22/22/22
f 25/25/25 22/22/22 23/23/23
f 25/25/25 24/24/24 22/22/22
f 28/28/28 27/27/27 26/26/26
f 27/27/27 29/29/29 26/26/26
f 26/26/26 29/29/29 30/30/30
f 29/29/29 27/27/27 31/31/31
f 29/29/29 31/31/31 30/30/30
f 27/27/27 32/32/32 31/31/31
f 30/30/30 31/31/31 33/33/33
f 31/31/31 32/32/32 34/34/34
f 31/31/31 35/35/35 33/33/33
f 35/35/35 31/31/31 34/34/34
f 33/33/33 35/35/35 36/36/36
f 35/35/35 34/34/34 36/36/36
f 39/39/39 38/38/38 37/37/37
f 38/38/38 40/40/40 37/37/37
f 38/38/38 41/41/41 40/40/40
f 41/41/41 42/42/42 40/40/40
f 41/41/41 43/43/43 42/42/42
f 43/43/43 44/44/44 42/42/42
f 47/47/47 46/46/46 45/45/45
f 46/46/46 48/48/48 45/45/45
f 46/46/46 49/49/49 48/48/48
f 49/49/49 50/50/50 48/48/48
f 49/49/49 51/51/51 50/50/50
f 51/51/51 52/52/52 50/50/50
f 55/55/55 54/54/54 53/53/53
f 56/56/56 55/55/55 53/53/53
f 56/56/56 53/53/53 57/57/57
f 58/58/58 56/56/56 57/57/57
f 58/58/58 57/57/57 59/59/59
f 60/60/60 58/58/58 59/59/59
f 60/60/60 59/59/59 61/61/61
f 62/62/62 60/60/60 61/61/61
f 65/65/65 64/64/64 63/63/63
f 64/64/64 66/66/66 63/63/63
f 64/64/64 67/67/67 66/66/66
f 67/67/67 68/68/68 66/66/66
f 67/67/67 69/69/69 68/68/68
f 69/69/69 70/70/70 68/68/68
f 73/73/73 72/72/72 71/71/71
f 72/72/72 74/74/74 71/71/71
f 72/72/72 75/75/75 74/74/74
f 75/75/75 76/76/76 74/74/74
f 75/75/75 77/77/77 76/76/76
f 77/77/77 78/78/78 76/76/76
f 81/81/81 80/80/80 79/79/79
f 82/82/82 81/81/81 79/79/79
f 82/82/82 79/79/79 83/83/83
f 84/84/84 81/81/81 82/82/82
f 85/85/85 82/82/82 83/83/83
f 86/86/86 84/84/84 82/82/82
f 86/86/86 82/82/82 85/85/85
f 87/87/87 84/84/84 86/86/86
f 88/88/88 86/86/86 85/85/85
f 89/89/89 87/87/87 86/86/86
f 88/88/88 89/89/89 86/86/86
f 92/92/92 91/91/91 90/90/90
f 91/91/91 93/93/93 90/90/90
f 90/90/90 93/93/93 94/94/94
f 95/95/95 90/90/90 94/94/94
f 95/95/95 94/94/94 96/96/96
f 94/94/94 97/97/97 96/96/96
f 96/96/96 97/97/97 98/98/98
f 99/99/99 96/96/96 98/98/98
f 102/102/102 101/101/101 100/100/100
f 101/101/101 103/103/103 100/100/100
f 101/101/101 104/104/104 103/103/103
f 103/103/103 105/105/105 100/100/100
f 105/105/105 106/106/106 100/100/100
f 107/107/107 105/105/105 103/103/103
f 104/104/104 108/108/108 103/103/103
f 108/108/108 107/107/107 103/103/103
f 104/104/104 109/109/109 108/108/108
f 108/108/108 110/110/110 107/107/107
f 109/109/109 110/110/110 108/108/108
f 113/113/113 112/112/112 111/111/111
f 112/112/112 114/114/114 111/111/111
f 112/112/112 115/115/115 114/114/114
f 115/115/115 116/116/116 114/114/114
f 115/115/115 117/117/117 116/116/116
f 117/117/117 118/118/118 116/116/116
f 121/121/121 120/120/120 119/119/119
f 122/122/122 121/121/121 119/119/119
f 122/122/122 119/119/119 123/123/123
f 124/124/124 122/122/122 123/123/123
f 124/124/124 123/123/123 125/125/125
f 123/123/123 126/126/126 125/125/125
f 125/125/125 126/126/126 127/127/127
f 126/126/126 128/128/128 127/127/127
f 131/131/131 130/130/130 129/129/129
f 130/130/130 132/132/132 129/129/129
f 129/129/129 132/132/132 133/133/133
f 134/134/134 129/129/129 133/133/133
f 134/134/134 133/133/133 135/135/135
f 133/133/133 136/136/136 135/135/135
