g ChickenNugget_01
v -0.16194019 -0.30550373 -0.0892601
v -0.14649424 -0.2770506 -0.11933911
v -0.25786778 -0.14128864 -0.11933911
v -0.27981737 -0.16079934 -0.0892601
v -0.35704723 0.053818375 -0.11446142
v -0.27737853 -0.1900654 0.07251614
v -0.011545181 -0.35102868 -0.0892601
v -0.15950134 -0.3347698 0.07251614
v -0.38062266 0.035933584 -0.065684676
v -0.37899676 0.009919316 0.07658088
v -0.23185351 0.017235816 -0.11120963
v -0.011545181 -0.3176979 -0.11933911
v -0.41232756 0.23429236 -0.09576365
v -0.009919316 -0.3794818 0.07251614
v 0.17299353 -0.29412246 -0.0892601
v -0.14324245 -0.31119433 0.09853041
v -0.25461605 -0.17461942 0.09853041
v -0.00829342 -0.35184163 0.09853041
v -0.43509004 0.20014867 0.09609157
v -0.43752888 0.22616294 -0.046986908
v -0.35379544 0.019674659 0.1034081
v -0.11235049 -0.03479272 -0.14454043
v -0.25705484 0.19770983 -0.09576365
v 0.15998639 -0.2648564 -0.11933911
v -0.06763846 -0.20469843 0.09934336
v 0.018533796 -0.2307127 0.09934336
v -0.12047997 -0.14047569 0.09934336
v -0.025365263 -0.07544002 0.12860939
v -0.19527099 -0.025850326 0.13023528
v -0.20746514 0.15299776 0.14649424
v -0.40907577 0.20096162 0.122918814
v -0.3976945 0.29282448 0.09609157
v -0.37655792 0.27656558 0.12454465
v -0.020487607 0.10991165 0.1424295
v 0.08519536 -0.10795787 0.12779644
v -0.17169556 0.25461605 0.11478934
v -0.3993204 0.3163999 -0.038044512
v -0.30420575 0.35704723 0.07495499
v -0.29363742 0.33103296 0.118854076
v -0.3798097 0.31070927 -0.09332484
v -0.16519198 0.2895727 -0.10877079
v -0.108285755 0.14486834 -0.13315919
v 0.14128864 0.08552328 -0.14047569
v 0.11852616 -0.102267236 -0.14616631
v 0.2998131 -0.13803685 -0.11933911
v 0.32094967 -0.15836051 -0.0892601
v 0.17543237 -0.32257557 0.07251614
v 0.16323818 -0.2981872 0.09853041
v 0.11283553 -0.20144664 0.09934336
v 0.30306488 -0.17136765 0.09853041
v 0.19413012 -0.13966274 0.09934336
v 0.32338852 -0.18762656 0.07251614
v 0.39086303 0.042437136 -0.069749385
v 0.36810055 0.018861711 0.10665986
v 0.2290868 0.05137953 0.10991165
v 0.39411482 0.01560992 0.07820675
v 0.36322287 0.04894072 -0.11933911
v 0.34452513 0.16519198 -0.052677542
v 0.331518 0.13999066 0.13023528
v 0.09007305 0.08389738 0.13999066
v 0.19982074 0.17250851 0.13186118
v 0.35184163 0.14974603 0.075767934
v 0.32013673 0.1586884 -0.10064134
v 0.124216765 0.20827809 0.12210587
v 0.25510108 0.26193252 0.10259515
v 0.2591658 0.28550795 -0.04617396
v 0.23884214 0.27250084 -0.09413779
v -0.00016394258 0.23591825 0.11397639
v 0.27135998 0.27412674 0.060321957
v 0.15754756 0.33265886 0.090400964
v -0.108285755 0.36192492 0.10584691
v 0.15836051 0.3676155 -0.059181094
v 0.099015445 0.23591825 -0.102267236
v 0.16648996 0.35054365 0.04812777
v 0.020159692 0.36273786 0.11316344
v -0.111537546 0.38875213 0.060321957
v 0.022598535 0.3846874 0.07332909
v 0.14535336 0.34891775 -0.10308018
v -0.043250084 0.27656558 -0.10551903
v 0.019346744 0.4098887 -0.07056233
v -0.30583164 0.37899676 -0.046986908
v -0.11316344 0.41070166 -0.059994042
v 0.015282035 0.3928168 -0.11446142
v -0.111537546 0.3960686 -0.11771321
v -0.29688922 0.3643637 -0.099015445
vt 0.03125 0.15625
vt 0.03125 0.15625
vt 0.03125 0.15625
vt 0.03125 0.15625
vt 0.03125 0.15625
vt 0.03125 0.15625
vt 0.03125 0.15625
vt 0.03125 0.15625
vt 0.03125 0.15625
vt 0.03125 0.15625
vt 0.03125 0.15625
vt 0.03125 0.15625
vt 0.03125 0.15625
vt 0.03125 0.15625
vt 0.03125 0.15625
vt 0.03125 0.15625
vt 0.03125 0.15625
vt 0.03125 0.15625
vt 0.03125 0.15625
vt 0.03125 0.15625
vt 0.03125 0.15625
vt 0.03125 0.15625
vt 0.03125 0.15625
vt 0.03125 0.15625
vt 0.03125 0.15625
vt 0.03125 0.15625
vt 0.03125 0.15625
vt 0.03125 0.15625
vt 0.03125 0.15625
vt 0.03125 0.15625
vt 0.03125 0.15625
vt 0.03125 0.15625
vt 0.03125 0.15625
vt 0.03125 0.15625
vt 0.03125 0.15625
vt 0.03125 0.15625
vt 0.03125 0.15625
vt 0.03125 0.15625
vt 0.03125 0.15625
vt 0.03125 0.15625
vt 0.03125 0.15625
vt 0.03125 0.15625
vt 0.03125 0.15625
vt 0.03125 0.15625
vt 0.03125 0.15625
vt 0.03125 0.15625
vt 0.03125 0.15625
vt 0.03125 0.15625
vt 0.03125 0.15625
vt 0.03125 0.15625
vt 0.03125 0.15625
vt 0.03125 0.15625
vt 0.03125 0.15625
vt 0.03125 0.15625
vt 0.03125 0.15625
vt 0.03125 0.15625
vt 0.03125 0.15625
vt 0.03125 0.15625
vt 0.03125 0.15625
vt 0.03125 0.15625
vt 0.03125 0.15625
vt 0.03125 0.15625
vt 0.03125 0.15625
vt 0.03125 0.15625
vt 0.03125 0.15625
vt 0.03125 0.15625
vt 0.03125 0.15625
vt 0.03125 0.15625
vt 0.03125 0.15625
vt 0.03125 0.15625
vt 0.03125 0.15625
vt 0.03125 0.15625
vt 0.03125 0.15625
vt 0.03125 0.15625
vt 0.03125 0.15625
vt 0.03125 0.15625
vt 0.03125 0.15625
vt 0.03125 0.15625
vt 0.03125 0.15625
vt 0.03125 0.15625
vt 0.03125 0.15625
vt 0.03125 0.15625
vt 0.03125 0.15625
vt 0.03125 0.15625
vt 0.03125 0.15625
vn -0.49889004 -0.74234885 -0.44724363
vn -0.2816732 -0.36997718 -0.8853119
vn -0.3747661 -0.21482235 -0.90188783
vn -0.7781688 -0.49410108 -0.38770798
vn -0.46785903 -0.12172943 -0.8753798
vn -0.7781688 -0.52513206 0.34451365
vn -0.0023944974 -0.8975037 -0.4410005
vn -0.52992094 -0.8044108 0.2685275
vn -0.9022926 -0.33894622 -0.26642725
vn -0.8712617 -0.36997718 0.32252118
vn -0.06445646 0.03342545 -0.9973606
vn -0.03342545 -0.4630701 -0.88569117
vn -0.62301385 0.095487356 -0.7763607
vn -0.0023944974 -0.95956564 0.28147477
vn 0.43203914 -0.7733798 -0.46392444
vn -0.21961129 -0.33894622 0.91481495
vn -0.34373522 -0.27688426 0.89731884
vn -0.0023944974 -0.43203914 0.9018517
vn -0.9333236 0.0023944974 0.35902825
vn -0.96435463 0.06445646 -0.25664276
vn -0.43682814 -0.2458533 0.8652961
vn -0.095487356 -0.028636515 -0.99501866
vn -0.06445646 0.06445646 -0.99583673
vn 0.21482235 -0.40100813 -0.8905301
vn -0.03342545 -0.09069842 0.9953173
vn -0.0023944974 -0.09069842 0.99587554
vn -0.095487356 -0.15276039 0.98363936
vn -0.03342545 -0.15276039 0.9876978
vn -0.095487356 -0.15276039 0.98363936
vn -0.03342545 0.03342545 0.9988821
vn -0.46785903 0.03342545 0.8831708
vn -0.7161068 0.59198296 0.3697935
vn -0.34373522 0.3747661 0.8610438
vn 0.028636515 0.06445646 0.99750954
vn 0.09069842 -0.15276039 0.9840925
vn 0.028636515 0.12651837 0.99155086
vn -0.7655192 0.643413 -0
vn -0.3127042 0.8712617 0.37831086
vn -0.12651837 0.49889004 0.8573808
vn -0.49889004 0.40579712 -0.765792
vn -0.06445646 0.03342545 -0.9973606
vn -0.095487356 0.12651837 -0.98735774
vn 0.059667468 0.12651837 -0.99016815
vn 0.059667468 -0.059667468 -0.99643344
vn 0.4630701 -0.2458533 -0.8515411
vn 0.7733798 -0.49410108 -0.39717475
vn 0.4630701 -0.83544177 0.2959783
vn 0.21482235 -0.36997718 0.90386295
vn 0.059667468 -0.12172943 0.99076825
vn 0.36997718 -0.2458533 0.8959202
vn 0.059667468 -0.059667468 0.99643344
vn 0.7733798 -0.52513206 0.35513374
vn 0.95956564 0.03342545 -0.2794933
vn 0.52513206 -0.059667468 0.8489264
vn 0.059667468 -0.059667468 0.99643344
vn 0.95956564 -0.028636515 0.2800245
vn 0.58719397 0.095487356 -0.8037944
vn 0.8664727 0.46785903 -0.17416358
vn 0.49410108 0.18858027 0.8487058
vn 0.059667468 0.0023944974 0.99821544
vn 0.059667468 0.06445646 0.9961351
vn 0.8664727 0.43682814 0.24167375
vn 0.52513206 0.3747661 -0.7640593
vn 0.059667468 0.12651837 0.99016815
vn 0.40100813 0.49889004 0.7683106
vn 0.7113179 0.6850759 -0.15715556
vn 0.43203914 0.43682814 -0.7890015
vn 0.028636515 0.15754938 0.98709583
vn 0.7113179 0.6850759 0.15715556
vn 0.27688426 0.59198296 0.7568958
vn -0.03342545 0.52992094 0.847388
vn 0.4630701 0.8712617 -0.1626933
vn 0.059667468 0.095487356 -0.9936408
vn 0.43203914 0.8712617 0.23290606
vn 0.09069842 0.52992094 0.843183
vn -0.06445646 0.9333236 0.35320306
vn 0.12172943 0.9333236 0.33777055
vn 0.3079152 0.46785903 -0.8284299
vn -0.0023944974 0.03342545 -0.99943835
vn 0.15169258 0.9884277 -0
vn -0.37262177 0.92798334 -0
vn -0.06445646 0.9953855 -0.07108476
vn 0.12172943 0.56095195 -0.8188497
vn -0.06445646 0.59198296 -0.80336887
vn -0.2816732 0.59198296 -0.7551267
g ChickenNugget_01_0
f 3/3/3 2/2/2 1/1/1
f 4/4/4 3/3/3 1/1/1
f 3/3/3 5/5/5 2/2/2
f 5/5/5 3/3/3 4/4/4
f 6/6/6 4/4/4 1/1/1
f 1/1/1 2/2/2 7/7/7
f 8/8/8 6/6/6 1/1/1
f 8/8/8 1/1/1 7/7/7
f 9/9/9 5/5/5 4/4/4
f 6/6/6 10/10/10 4/4/4
f 10/10/10 9/9/9 4/4/4
f 5/5/5 11/11/11 2/2/2
f 2/2/2 12/12/12 7/7/7
f 2/2/2 11/11/11 12/12/12
f 13/13/13 5/5/5 9/9/9
f 11/11/11 5/5/5 13/13/13
f 14/14/14 8/8/8 7/7/7
f 7/7/7 12/12/12 15/15/15
f 14/14/14 7/7/7 15/15/15
f 8/8/8 16/16/16 6/6/6
f 6/6/6 17/17/17 10/10/10
f 16/16/16 17/17/17 6/6/6
f 14/14/14 18/18/18 8/8/8
f 18/18/18 16/16/16 8/8/8
f 10/10/10 19/19/19 9/9/9
f 20/20/20 13/13/13 9/9/9
f 19/19/19 20/20/20 9/9/9
f 17/17/17 21/21/21 10/10/10
f 10/10/10 21/21/21 19/19/19
f 11/11/11 22/22/22 12/12/12
f 23/23/23 11/11/11 13/13/13
f 22/22/22 11/11/11 23/23/23
f 12/12/12 22/22/22 24/24/24
f 12/12/12 24/24/24 15/15/15
f 17/17/17 16/16/16 25/25/25
f 16/16/16 18/18/18 26/26/26
f 25/25/25 16/16/16 26/26/26
f 27/27/27 17/17/17 25/25/25
f 21/21/21 17/17/17 27/27/27
f 25/25/25 28/28/28 27/27/27
f 25/25/25 26/26/26 28/28/28
f 29/29/29 21/21/21 27/27/27
f 28/28/28 29/29/29 27/27/27
f 29/29/29 30/30/30 21/21/21
f 30/30/30 29/29/29 28/28/28
f 30/30/30 31/31/31 21/21/21
f 21/21/21 31/31/31 19/19/19
f 19/19/19 31/31/31 32/32/32
f 19/19/19 32/32/32 20/20/20
f 31/31/31 30/30/30 33/33/33
f 31/31/31 33/33/33 32/32/32
f 34/34/34 30/30/30 28/28/28
f 26/26/26 35/35/35 28/28/28
f 34/34/34 28/28/28 35/35/35
f 30/30/30 36/36/36 33/33/33
f 30/30/30 34/34/34 36/36/36
f 32/32/32 37/37/37 20/20/20
f 32/32/32 33/33/33 38/38/38
f 32/32/32 38/38/38 37/37/37
f 33/33/33 36/36/36 39/39/39
f 33/33/33 39/39/39 38/38/38
f 37/37/37 40/40/40 20/20/20
f 40/40/40 13/13/13 20/20/20
f 13/13/13 40/40/40 41/41/41
f 23/23/23 13/13/13 41/41/41
f 42/42/42 23/23/23 41/41/41
f 42/42/42 22/22/22 23/23/23
f 22/22/22 42/42/42 43/43/43
f 44/44/44 22/22/22 43/43/43
f 22/22/22 44/44/44 24/24/24
f 44/44/44 45/45/45 24/24/24
f 45/45/45 44/44/44 43/43/43
f 24/24/24 45/45/45 46/46/46
f 15/15/15 24/24/24 46/46/46
f 47/47/47 15/15/15 46/46/46
f 47/47/47 14/14/14 15/15/15
f 47/47/47 48/48/48 14/14/14
f 48/48/48 18/18/18 14/14/14
f 18/18/18 48/48/48 49/49/49
f 26/26/26 18/18/18 49/49/49
f 50/50/50 48/48/48 47/47/47
f 48/48/48 50/50/50 49/49/49
f 26/26/26 49/49/49 51/51/51
f 50/50/50 51/51/51 49/49/49
f 35/35/35 26/26/26 51/51/51
f 52/52/52 47/47/47 46/46/46
f 52/52/52 50/50/50 47/47/47
f 46/46/46 45/45/45 53/53/53
f 52/52/52 46/46/46 53/53/53
f 50/50/50 54/54/54 51/51/51
f 54/54/54 50/50/50 52/52/52
f 51/51/51 55/55/55 35/35/35
f 54/54/54 55/55/55 51/51/51
f 56/56/56 54/54/54 52/52/52
f 56/56/56 52/52/52 53/53/53
f 45/45/45 57/57/57 53/53/53
f 57/57/57 45/45/45 43/43/43
f 53/53/53 57/57/57 58/58/58
f 56/56/56 53/53/53 58/58/58
f 54/54/54 56/56/56 59/59/59
f 55/55/55 54/54/54 59/59/59
f 55/55/55 60/60/60 35/35/35
f 60/60/60 34/34/34 35/35/35
f 60/60/60 55/55/55 61/61/61
f 61/61/61 55/55/55 59/59/59
f 56/56/56 62/62/62 59/59/59
f 62/62/62 56/56/56 58/58/58
f 57/57/57 63/63/63 58/58/58
f 43/43/43 63/63/63 57/57/57
f 34/34/34 60/60/60 64/64/64
f 64/64/64 60/60/60 61/61/61
f 65/65/65 61/61/61 59/59/59
f 59/59/59 62/62/62 65/65/65
f 64/64/64 61/61/61 65/65/65
f 58/58/58 66/66/66 62/62/62
f 66/66/66 58/58/58 63/63/63
f 63/63/63 43/43/43 67/67/67
f 67/67/67 66/66/66 63/63/63
f 68/68/68 34/34/34 64/64/64
f 34/34/34 68/68/68 36/36/36
f 62/62/62 69/69/69 65/65/65
f 66/66/66 69/69/69 62/62/62
f 70/70/70 64/64/64 65/65/65
f 68/68/68 64/64/64 70/70/70
f 65/65/65 69/69/69 70/70/70
f 36/36/36 68/68/68 71/71/71
f 36/36/36 71/71/71 39/39/39
f 69/69/69 66/66/66 72/72/72
f 66/66/66 67/67/67 72/72/72
f 43/43/43 73/73/73 67/67/67
f 43/43/43 42/42/42 73/73/73
f 69/69/69 74/74/74 70/70/70
f 74/74/74 69/69/69 72/72/72
f 75/75/75 68/68/68 70/70/70
f 68/68/68 75/75/75 71/71/71
f 75/75/75 70/70/70 74/74/74
f 39/39/39 71/71/71 76/76/76
f 38/38/38 39/39/39 76/76/76
f 71/71/71 75/75/75 77/77/77
f 77/77/77 75/75/75 74/74/74
f 76/76/76 71/71/71 77/77/77
f 67/67/67 78/78/78 72/72/72
f 73/73/73 78/78/78 67/67/67
f 42/42/42 79/79/79 73/73/73
f 73/73/73 79/79/79 78/78/78
f 79/79/79 42/42/42 41/41/41
f 74/74/74 72/72/72 80/80/80
f 77/77/77 74/74/74 80/80/80
f 72/72/72 78/78/78 80/80/80
f 38/38/38 76/76/76 81/81/81
f 38/38/38 81/81/81 37/37/37
f 76/76/76 77/77/77 82/82/82
f 77/77/77 80/80/80 82/82/82
f 76/76/76 82/82/82 81/81/81
f 78/78/78 83/83/83 80/80/80
f 79/79/79 83/83/83 78/78/78
f 80/80/80 83/83/83 82/82/82
f 79/79/79 41/41/41 84/84/84
f 83/83/83 79/79/79 84/84/84
f 83/83/83 84/84/84 82/82/82
f 82/82/82 84/84/84 81/81/81
f 41/41/41 40/40/40 84/84/84
f 85/85/85 40/40/40 37/37/37
f 81/81/81 85/85/85 37/37/37
f 84/84/84 85/85/85 81/81/81
f 40/40/40 85/85/85 84/84/84
