g Chip_01
v 0.22439091 -0.29482386 0.014200658
v -0.011559427 -0.25696614 -0.0007663369
v -0.012439817 -0.34060526 0.02124393
v 0.17244664 -0.2226301 -0.01221171
v 0.38814747 -0.16980538 0.028287232
v -0.2122933 -0.2226301 0.02124393
v -0.27920458 -0.29482386 0.044134647
v 0.2983455 -0.12578481 -0.005168408
v 0.45329794 0.015081048 0.038852185
v -0.31530145 -0.12842605 0.025646001
v -0.40510342 -0.1706858 0.041493416
v 0.34676814 0.018602699 0.00011405349
v 0.38814747 0.20877162 0.028287232
v -0.3364313 0.00011405349 0.026526421
v -0.4464828 0.00011405349 0.038852185
v 0.29218262 0.16387066 -0.0060488284
v 0.20238063 0.3276272 0.013320237
v -0.3170623 0.12073049 0.025646001
v -0.40686426 0.16387066 0.041493416
v 0.15307757 0.25103137 -0.013092101
v -0.02388519 0.3434746 0.02036354
v -0.21581492 0.2078912 0.02036354
v -0.28360662 0.27656332 0.044134647
v -0.02212435 0.2598355 -0.0007663369
v -0.26247677 0.00011405349 0.015961468
v -0.23958603 0.09607896 0.010679007
v -0.16210982 0.16299024 0.0027552843
v -0.010679007 0.20348915 -0.01221171
v 0.12138274 0.19468507 -0.023657054
v 0.23143421 0.12601295 -0.022776634
v -0.2387056 -0.10025287 0.011559427
v 0.27105272 0.012439817 -0.021015823
v -0.16034898 -0.17332703 0.0045161247
v 0.23583627 -0.097611636 -0.021896243
v -0.0027552843 -0.20061979 -0.013092101
v 0.13723016 -0.17332703 -0.023657054
v 0.11345905 0.05734083 -0.03950447
v 0.1337085 0.005396545 -0.0421457
v 0.11786109 -0.04742816 -0.03950447
v 0.07031888 -0.08352503 -0.034222007
v 0.064155996 0.09167686 -0.035102397
v 0.005168408 -0.096731216 -0.028059125
v 0.0007663369 0.09960058 -0.028939515
v -0.06438413 -0.08352503 -0.020135403
v -0.06438413 0.08199236 -0.021015823
v -0.10928509 -0.04830858 -0.01133129
v -0.10928509 0.046775907 -0.01221171
v -0.12337169 0.00011405349 -0.005168408
v 0.22527133 -0.29482386 0.034450114
v -0.012439817 -0.34060526 0.041493416
v -0.010679007 -0.25696614 0.01948312
v 0.17332703 -0.2226301 0.008037776
v 0.38814747 -0.16980538 0.048536688
v -0.2122933 -0.2226301 0.041493416
v -0.27832416 -0.29482386 0.06438413
v 0.29922593 -0.124904394 0.015081048
v 0.45417836 0.015081048 0.05998203
v -0.31442103 -0.12842605 0.045895487
v -0.40510342 -0.1706858 0.06262329
v 0.34676814 0.018602699 0.02036354
v 0.38814747 0.20877162 0.048536688
v -0.3364313 0.00011405349 0.047656268
v -0.4456024 0.00011405349 0.05998203
v 0.29306304 0.16387066 0.014200658
v 0.20326105 0.3276272 0.033569694
v -0.31618187 0.12073049 0.045895487
v -0.40598384 0.16387066 0.061742872
v 0.153958 0.25103137 0.0071573555
v -0.02300477 0.3434746 0.040612996
v -0.21581492 0.2078912 0.040612996
v -0.28360662 0.27656332 0.06438413
v -0.02124393 0.2598355 0.01948312
v -0.26159635 0.00011405349 0.036210954
v -0.2387056 0.09607896 0.030928463
v -0.16210982 0.16299024 0.02388519
v -0.009798586 0.20348915 0.008037776
v 0.12138274 0.19468507 -0.0034075975
v 0.23231462 0.12601295 -0.0025271773
v -0.23782524 -0.10025287 0.031808883
v 0.27193314 0.012439817 0.00011405349
v -0.15946856 -0.17332703 0.02476558
v 0.23583627 -0.097611636 -0.0016467571
v -0.0027552843 -0.20061979 0.0071573555
v 0.13723016 -0.17332703 -0.0034075975
v 0.11433944 0.05734083 -0.019254982
v 0.13458893 0.005396545 -0.021015823
v 0.11786109 -0.04742816 -0.018374592
v 0.07119927 -0.08352503 -0.013972521
v 0.064155996 0.09167686 -0.014852941
v 0.005168408 -0.096731216 -0.007809639
v 0.0016467571 0.09960058 -0.008690059
v -0.06350371 -0.08352503 0.0009944737
v -0.06438413 0.08199236 0.00011405349
v -0.108404726 -0.04830858 0.008918166
v -0.108404726 0.046775907 0.008037776
v -0.12249127 0.00011405349 0.015081048
v 0.38814747 -0.16980538 0.028287232
v 0.22439091 -0.29482386 0.014200658
v 0.22527133 -0.29482386 0.034450114
v 0.38814747 -0.16980538 0.048536688
v -0.012439817 -0.34060526 0.041493416
v 0.45329794 0.015081048 0.038852185
v -0.012439817 -0.34060526 0.02124393
v 0.45417836 0.015081048 0.05998203
v -0.27832416 -0.29482386 0.06438413
v 0.38814747 0.20877162 0.028287232
v -0.27920458 -0.29482386 0.044134647
v 0.38814747 0.20877162 0.048536688
v -0.40510342 -0.1706858 0.06262329
v 0.20238063 0.3276272 0.013320237
v -0.40510342 -0.1706858 0.041493416
v 0.20326105 0.3276272 0.033569694
v -0.4456024 0.00011405349 0.05998203
v -0.02388519 0.3434746 0.02036354
v -0.4464828 0.00011405349 0.038852185
v -0.02300477 0.3434746 0.040612996
v -0.40598384 0.16387066 0.061742872
v -0.28360662 0.27656332 0.044134647
v -0.40686426 0.16387066 0.041493416
v -0.28360662 0.27656332 0.06438413
vt 0.65625 0.21875
vt 0.65625 0.21875
vt 0.65625 0.21875
vt 0.65625 0.21875
vt 0.65625 0.21875
vt 0.65625 0.21875
vt 0.65625 0.21875
vt 0.65625 0.21875
vt 0.65625 0.21875
vt 0.65625 0.21875
vt 0.65625 0.21875
vt 0.65625 0.21875
vt 0.65625 0.21875
vt 0.65625 0.21875
vt 0.65625 0.21875
vt 0.65625 0.21875
vt 0.65625 0.21875
vt 0.65625 0.21875
vt 0.65625 0.21875
vt 0.65625 0.21875
vt 0.65625 0.21875
vt 0.65625 0.21875
vt 0.65625 0.21875
vt 0.65625 0.21875
vt 0.65625 0.21875
vt 0.65625 0.21875
vt 0.65625 0.21875
vt 0.65625 0.21875
vt 0.65625 0.21875
vt 0.65625 0.21875
vt 0.65625 0.21875
vt 0.65625 0.21875
vt 0.65625 0.21875
vt 0.65625 0.21875
vt 0.65625 0.21875
vt 0.65625 0.21875
vt 0.65625 0.21875
vt 0.65625 0.21875
vt 0.65625 0.21875
vt 0.65625 0.21875
vt 0.65625 0.21875
vt 0.65625 0.21875
vt 0.65625 0.21875
vt 0.65625 0.21875
vt 0.65625 0.21875
vt 0.65625 0.21875
vt 0.65625 0.21875
vt 0.65625 0.21875
vt 0.65625 0.21875
vt 0.65625 0.21875
vt 0.65625 0.21875
vt 0.65625 0.21875
vt 0.65625 0.21875
vt 0.65625 0.21875
vt 0.65625 0.21875
vt 0.65625 0.21875
vt 0.65625 0.21875
vt 0.65625 0.21875
vt 0.65625 0.21875
vt 0.65625 0.21875
vt 0.65625 0.21875
vt 0.65625 0.21875
vt 0.65625 0.21875
vt 0.65625 0.21875
vt 0.65625 0.21875
vt 0.65625 0.21875
vt 0.65625 0.21875
vt 0.65625 0.21875
vt 0.65625 0.21875
vt 0.65625 0.21875
vt 0.65625 0.21875
vt 0.65625 0.21875
vt 0.65625 0.21875
vt 0.65625 0.21875
vt 0.65625 0.21875
vt 0.65625 0.21875
vt 0.65625 0.21875
vt 0.65625 0.21875
vt 0.65625 0.21875
vt 0.65625 0.21875
vt 0.65625 0.21875
vt 0.65625 0.21875
vt 0.65625 0.21875
vt 0.65625 0.21875
vt 0.65625 0.21875
vt 0.65625 0.21875
vt 0.65625 0.21875
vt 0.65625 0.21875
vt 0.65625 0.21875
vt 0.65625 0.21875
vt 0.65625 0.21875
vt 0.65625 0.21875
vt 0.65625 0.21875
vt 0.65625 0.21875
vt 0.65625 0.21875
vt 0.65625 0.21875
vt 0.65625 0.21875
vt 0.65625 0.21875
vt 0.65625 0.21875
vt 0.65625 0.21875
vt 0.65625 0.21875
vt 0.65625 0.21875
vt 0.65625 0.21875
vt 0.65625 0.21875
vt 0.65625 0.21875
vt 0.65625 0.21875
vt 0.65625 0.21875
vt 0.65625 0.21875
vt 0.65625 0.21875
vt 0.65625 0.21875
vt 0.65625 0.21875
vt 0.65625 0.21875
vt 0.65625 0.21875
vt 0.65625 0.21875
vt 0.65625 0.21875
vt 0.65625 0.21875
vt 0.65625 0.21875
vt 0.65625 0.21875
vt 0.65625 0.21875
vt 0.65625 0.21875
vn 0.14293373 -0.23814905 -0.9606534
vn -0.079235315 -0.23814905 -0.9679911
vn -0.047496915 -0.2698875 -0.9617197
vn 0.111195326 -0.23814905 -0.9648423
vn 0.3016259 -0.14293373 -0.94265145
vn -0.14271212 -0.17467219 -0.9742294
vn -0.14271212 -0.17467219 -0.9742294
vn 0.23814905 -0.111195326 -0.9648423
vn 0.33336437 -0.015980005 -0.94266266
vn -0.14271212 -0.079456866 -0.98656976
vn -0.14271212 -0.079456866 -0.98656976
vn 0.3016259 0.015758395 -0.9532961
vn 0.2698875 0.14271212 -0.95225734
vn -0.14271212 -0.015980005 -0.9896352
vn -0.14271212 -0.015980005 -0.9896352
vn 0.23814905 0.14271212 -0.9606864
vn 0.111195326 0.26966596 -0.95651233
vn -0.14271212 0.079235315 -0.9865876
vn -0.14271212 0.079235315 -0.9865876
vn 0.047718465 0.23792744 -0.97011006
vn -0.079235315 0.26966596 -0.9596885
vn -0.14271212 0.17445064 -0.9742691
vn -0.14271212 0.17445064 -0.9742691
vn -0.110973716 0.23792744 -0.9649225
vn -0.17445064 -0.015980005 -0.9845363
vn -0.17445064 0.047496915 -0.98351973
vn -0.17445064 0.110973716 -0.9783925
vn -0.110973716 0.17445064 -0.9783925
vn 0.015980005 0.17445064 -0.9845363
vn 0.14293373 0.110973716 -0.9834911
vn -0.17445064 -0.047718465 -0.983509
vn 0.20641065 -0.015980005 -0.97833496
vn -0.14271212 -0.111195326 -0.9834983
vn 0.17467219 -0.111195326 -0.97832775
vn -0.079235315 -0.17467219 -0.98143333
vn 0.047718465 -0.17467219 -0.98346967
vn 0.015980005 0.047496915 -0.99874353
vn 0.047718465 -0.015980005 -0.998733
vn 0.015980005 -0.047718465 -0.998733
vn -0.047496915 -0.079456866 -0.9957061
vn -0.047496915 0.079235315 -0.9957238
vn -0.110973716 -0.079456866 -0.99064195
vn -0.110973716 0.079235315 -0.9906597
vn -0.14271212 -0.047718465 -0.98861325
vn -0.14271212 0.047496915 -0.9886239
vn -0.14271212 -0.015980005 -0.9896352
vn -0.14271212 0.015758395 -0.9896388
vn -0.14271212 -0.015980005 -0.9896352
vn -0.14271212 0.23792744 0.9607413
vn 0.047718465 0.26966596 0.96177083
vn 0.079456866 0.23792744 0.9680275
vn -0.110973716 0.23792744 0.9649225
vn -0.30140436 0.14271212 0.9427559
vn 0.14293373 0.17445064 0.9742366
vn 0.14293373 0.17445064 0.9742366
vn -0.23792744 0.110973716 0.9649225
vn -0.33314276 0.015758395 0.94274473
vn 0.14293373 0.079235315 0.9865555
vn 0.14293373 0.079235315 0.9865555
vn -0.30140436 -0.015980005 0.9533625
vn -0.26966596 -0.14293373 0.95228684
vn 0.14293373 0.015758395 0.9896068
vn 0.14293373 0.015758395 0.9896068
vn -0.23792744 -0.14293373 0.9607083
vn -0.110973716 -0.23814905 0.96486783
vn 0.14293373 -0.079456866 0.9865377
vn 0.14293373 -0.079456866 0.9865377
vn -0.047496915 -0.23814905 0.97006655
vn 0.079456866 -0.2698875 0.9596079
vn 0.14293373 -0.17467219 0.9741969
vn 0.14293373 -0.17467219 0.9741969
vn 0.111195326 -0.23814905 0.9648423
vn 0.17467219 0.015758395 0.9845005
vn 0.17467219 -0.047718465 0.98346967
vn 0.17467219 -0.111195326 0.97832775
vn 0.111195326 -0.17467219 0.97832775
vn -0.015758395 -0.17467219 0.9845005
vn -0.14271212 -0.111195326 0.9834983
vn 0.17467219 0.047496915 0.9834804
vn -0.20618904 0.015758395 0.97838527
vn 0.14293373 0.110973716 0.9834911
vn -0.17445064 0.110973716 0.9783925
vn 0.079456866 0.17445064 0.98145485
vn -0.047496915 0.17445064 0.98351973
vn -0.015758395 -0.047718465 0.9987365
vn -0.047496915 0.015758395 0.99874705
vn -0.015758395 0.047496915 0.99874705
vn 0.047718465 0.079235315 0.9957132
vn 0.047718465 -0.079456866 0.99569553
vn 0.111195326 0.079235315 0.99063486
vn 0.111195326 -0.079456866 0.9906171
vn 0.14293373 0.047496915 0.9885919
vn 0.14293373 -0.047718465 0.98858124
vn 0.14293373 0.015758395 0.9896068
vn 0.14293373 -0.015980005 0.9896033
vn 0.14293373 0.015758395 0.9896068
vn 0.80940735 -0.5872475 -0
vn 0.39684123 -0.9046562 -0.15528764
vn 0.42813396 -0.9037154 -0
vn 0.80940735 -0.5872475 -0
vn 0.015980005 -0.9998715 -0.0012918707
vn 0.9998715 -0.015980005 -0.0012863395
vn 0.015980005 -0.9998715 -0.0012918707
vn 0.9998715 -0.015980005 -0.0012863395
vn -0.46009648 -0.8729178 0.16225234
vn 0.77770245 0.6187887 -0.11081255
vn -0.45332637 -0.89134455 -0
vn 0.80944085 0.5870502 -0.013324129
vn -0.87107825 -0.4911443 -0
vn 0.3016259 0.9361731 -0.1805596
vn -0.87107825 -0.4911443 -0
vn 0.33336437 0.9361731 -0.11157146
vn -0.9996499 0.015758395 0.021255333
vn -0.07901524 0.9968734 -0
vn -0.9996499 -0.015980005 0.02108923
vn -0.07901524 0.9968734 -0
vn -0.8575121 0.5144637 -0
vn -0.46009648 0.87269616 0.16344006
vn -0.87117285 0.49097648 -0
vn -0.49097648 0.87117285 -0
g Chip_01_0
f 3/3/3 2/2/2 1/1/1
f 2/2/2 4/4/4 1/1/1
f 1/1/1 4/4/4 5/5/5
f 6/6/6 2/2/2 3/3/3
f 7/7/7 6/6/6 3/3/3
f 4/4/4 8/8/8 5/5/5
f 5/5/5 8/8/8 9/9/9
f 10/10/10 6/6/6 7/7/7
f 11/11/11 10/10/10 7/7/7
f 8/8/8 12/12/12 9/9/9
f 9/9/9 12/12/12 13/13/13
f 14/14/14 10/10/10 11/11/11
f 15/15/15 14/14/14 11/11/11
f 12/12/12 16/16/16 13/13/13
f 13/13/13 16/16/16 17/17/17
f 18/18/18 14/14/14 15/15/15
f 19/19/19 18/18/18 15/15/15
f 16/16/16 20/20/20 17/17/17
f 17/17/17 20/20/20 21/21/21
f 22/22/22 18/18/18 19/19/19
f 23/23/23 22/22/22 19/19/19
f 21/21/21 24/24/24 23/23/23
f 20/20/20 24/24/24 21/21/21
f 24/24/24 22/22/22 23/23/23
f 14/14/14 25/25/25 10/10/10
f 18/18/18 26/26/26 14/14/14
f 26/26/26 25/25/25 14/14/14
f 22/22/22 27/27/27 18/18/18
f 27/27/27 26/26/26 18/18/18
f 24/24/24 28/28/28 22/22/22
f 28/28/28 27/27/27 22/22/22
f 20/20/20 29/29/29 24/24/24
f 29/29/29 28/28/28 24/24/24
f 16/16/16 30/30/30 20/20/20
f 30/30/30 29/29/29 20/20/20
f 25/25/25 31/31/31 10/10/10
f 10/10/10 31/31/31 6/6/6
f 32/32/32 30/30/30 16/16/16
f 12/12/12 32/32/32 16/16/16
f 31/31/31 33/33/33 6/6/6
f 6/6/6 33/33/33 2/2/2
f 34/34/34 32/32/32 12/12/12
f 8/8/8 34/34/34 12/12/12
f 33/33/33 35/35/35 2/2/2
f 2/2/2 35/35/35 4/4/4
f 4/4/4 36/36/36 8/8/8
f 36/36/36 34/34/34 8/8/8
f 35/35/35 36/36/36 4/4/4
f 30/30/30 37/37/37 29/29/29
f 32/32/32 38/38/38 30/30/30
f 38/38/38 37/37/37 30/30/30
f 39/39/39 38/38/38 32/32/32
f 34/34/34 39/39/39 32/32/32
f 37/37/37 38/38/38 39/39/39
f 40/40/40 39/39/39 34/34/34
f 36/36/36 40/40/40 34/34/34
f 39/39/39 40/40/40 37/37/37
f 37/37/37 41/41/41 29/29/29
f 40/40/40 41/41/41 37/37/37
f 29/29/29 41/41/41 28/28/28
f 42/42/42 40/40/40 36/36/36
f 35/35/35 42/42/42 36/36/36
f 40/40/40 42/42/42 41/41/41
f 41/41/41 43/43/43 28/28/28
f 42/42/42 43/43/43 41/41/41
f 28/28/28 43/43/43 27/27/27
f 44/44/44 42/42/42 35/35/35
f 42/42/42 44/44/44 43/43/43
f 33/33/33 44/44/44 35/35/35
f 43/43/43 45/45/45 27/27/27
f 44/44/44 45/45/45 43/43/43
f 27/27/27 45/45/45 26/26/26
f 46/46/46 44/44/44 33/33/33
f 44/44/44 46/46/46 45/45/45
f 31/31/31 46/46/46 33/33/33
f 45/45/45 47/47/47 26/26/26
f 46/46/46 47/47/47 45/45/45
f 26/26/26 47/47/47 25/25/25
f 48/48/48 46/46/46 31/31/31
f 25/25/25 48/48/48 31/31/31
f 47/47/47 48/48/48 25/25/25
f 46/46/46 48/48/48 47/47/47
f 51/51/51 50/50/50 49/49/49
f 52/52/52 51/51/51 49/49/49
f 52/52/52 49/49/49 53/53/53
f 51/51/51 54/54/54 50/50/50
f 54/54/54 55/55/55 50/50/50
f 56/56/56 52/52/52 53/53/53
f 56/56/56 53/53/53 57/57/57
f 54/54/54 58/58/58 55/55/55
f 58/58/58 59/59/59 55/55/55
f 60/60/60 56/56/56 57/57/57
f 60/60/60 57/57/57 61/61/61
f 58/58/58 62/62/62 59/59/59
f 62/62/62 63/63/63 59/59/59
f 64/64/64 60/60/60 61/61/61
f 64/64/64 61/61/61 65/65/65
f 62/62/62 66/66/66 63/63/63
f 66/66/66 67/67/67 63/63/63
f 68/68/68 64/64/64 65/65/65
f 68/68/68 65/65/65 69/69/69
f 66/66/66 70/70/70 67/67/67
f 70/70/70 71/71/71 67/67/67
f 72/72/72 69/69/69 71/71/71
f 72/72/72 68/68/68 69/69/69
f 70/70/70 72/72/72 71/71/71
f 73/73/73 62/62/62 58/58/58
f 74/74/74 66/66/66 62/62/62
f 73/73/73 74/74/74 62/62/62
f 75/75/75 70/70/70 66/66/66
f 74/74/74 75/75/75 66/66/66
f 76/76/76 72/72/72 70/70/70
f 75/75/75 76/76/76 70/70/70
f 77/77/77 68/68/68 72/72/72
f 76/76/76 77/77/77 72/72/72
f 78/78/78 64/64/64 68/68/68
f 77/77/77 78/78/78 68/68/68
f 79/79/79 73/73/73 58/58/58
f 79/79/79 58/58/58 54/54/54
f 78/78/78 80/80/80 64/64/64
f 80/80/80 60/60/60 64/64/64
f 81/81/81 79/79/79 54/54/54
f 81/81/81 54/54/54 51/51/51
f 80/80/80 82/82/82 60/60/60
f 82/82/82 56/56/56 60/60/60
f 83/83/83 81/81/81 51/51/51
f 83/83/83 51/51/51 52/52/52
f 84/84/84 52/52/52 56/56/56
f 82/82/82 84/84/84 56/56/56
f 84/84/84 83/83/83 52/52/52
f 85/85/85 78/78/78 77/77/77
f 86/86/86 80/80/80 78/78/78
f 85/85/85 86/86/86 78/78/78
f 86/86/86 87/87/87 80/80/80
f 87/87/87 82/82/82 80/80/80
f 87/87/87 86/86/86 85/85/85
f 87/87/87 88/88/88 82/82/82
f 88/88/88 84/84/84 82/82/82
f 85/85/85 88/88/88 87/87/87
f 89/89/89 85/85/85 77/77/77
f 85/85/85 89/89/89 88/88/88
f 89/89/89 77/77/77 76/76/76
f 88/88/88 90/90/90 84/84/84
f 90/90/90 83/83/83 84/84/84
f 89/89/89 90/90/90 88/88/88
f 91/91/91 89/89/89 76/76/76
f 89/89/89 91/91/91 90/90/90
f 91/91/91 76/76/76 75/75/75
f 90/90/90 92/92/92 83/83/83
f 91/91/91 92/92/92 90/90/90
f 92/92/92 81/81/81 83/83/83
f 93/93/93 91/91/91 75/75/75
f 91/91/91 93/93/93 92/92/92
f 93/93/93 75/75/75 74/74/74
f 92/92/92 94/94/94 81/81/81
f 93/93/93 94/94/94 92/92/92
f 94/94/94 79/79/79 81/81/81
f 95/95/95 93/93/93 74/74/74
f 93/93/93 95/95/95 94/94/94
f 95/95/95 74/74/74 73/73/73
f 96/96/96 73/73/73 79/79/79
f 94/94/94 96/96/96 79/79/79
f 96/96/96 95/95/95 73/73/73
f 95/95/95 96/96/96 94/94/94
f 99/99/99 98/98/98 97/97/97
f 100/100/100 99/99/99 97/97/97
f 99/99/99 101/101/101 98/98/98
f 100/100/100 97/97/97 102/102/102
f 101/101/101 103/103/103 98/98/98
f 104/104/104 100/100/100 102/102/102
f 101/101/101 105/105/105 103/103/103
f 104/104/104 102/102/102 106/106/106
f 105/105/105 107/107/107 103/103/103
f 108/108/108 104/104/104 106/106/106
f 105/105/105 109/109/109 107/107/107
f 108/108/108 106/106/106 110/110/110
f 109/109/109 111/111/111 107/107/107
f 112/112/112 108/108/108 110/110/110
f 109/109/109 113/113/113 111/111/111
f 112/112/112 110/110/110 114/114/114
f 113/113/113 115/115/115 111/111/111
f 116/116/116 112/112/112 114/114/114
f 113/113/113 117/117/117 115/115/115
f 116/116/116 114/114/114 118/118/118
f 117/117/117 119/119/119 115/115/115
f 120/120/120 116/116/116 118/118/118
f 120/120/120 118/118/118 119/119/119
f 117/117/117 120/120/120 119/119/119
