g Cookie
v -0.002445966 -0.39129725 -0.07173756
v -0.002445966 0.003261149 -0.07173756
v -0.15896499 -0.3562435 -0.07173756
v 0.15570349 -0.3562435 -0.07173756
v -0.2877671 -0.27798396 -0.07173756
v 0.28532082 -0.26901674 -0.07173756
v -0.36602664 -0.14999706 -0.07173756
v 0.3758084 -0.14755145 -0.07173756
v -0.40352595 0.008152366 -0.07173756
v 0.4084165 0.008967578 -0.07173756
v -0.36602664 0.15896499 -0.07173756
v 0.38396043 0.16467142 -0.07173756
v -0.27553904 0.26820225 -0.07173756
v 0.2828752 0.27798468 -0.07173756
v -0.15325856 0.33178806 -0.07173756
v 0.13939941 0.34809214 -0.07173756
v -0.013043582 0.37091786 -0.07173756
v -0.002445966 -0.40271008 -0.041575015
v -0.002445966 -0.39129725 -0.07173756
v -0.15896499 -0.3562435 -0.07173756
v -0.163041 -0.36684114 -0.041575015
v -0.15162814 -0.34075463 0.010597974
v -0.2877671 -0.27798396 -0.07173756
v -0.29591912 -0.2869512 -0.041575015
v -0.36602664 -0.14999706 -0.07173756
v 0.15977952 -0.36684114 -0.041575015
v 0.14999706 -0.34075463 0.010597974
v 0.15570349 -0.3562435 -0.07173756
v 0.29347283 -0.27798396 -0.041575015
v 0.28532082 -0.26901674 -0.07173756
v -0.002445966 -0.3758084 0.025271654
v -0.0016307533 -0.29510325 0.06195578
v -0.3766243 -0.15488827 -0.041575015
v -0.351353 -0.14347544 0.010597974
v -0.40352595 0.008152366 -0.07173756
v -0.4149388 0.008152366 -0.041575015
v -0.36602664 0.15896499 -0.07173756
v 0.38640603 -0.15162748 -0.041575015
v 0.3611347 -0.14102983 0.014674008
v 0.3758084 -0.14755145 -0.07173756
v 0.41901416 0.008967578 -0.041575015
v 0.4084165 0.008967578 -0.07173756
v 0.27390796 -0.25760388 0.0073371828
v 0.23966943 -0.22418056 0.040760517
v -0.3766243 0.16385621 -0.041575015
v -0.351353 0.15162814 0.010597974
v -0.27553904 0.26820225 -0.07173756
v -0.28450632 0.27716947 -0.041575015
v -0.15325856 0.33178806 -0.07173756
v 0.39455807 0.16956264 -0.041575015
v 0.36847156 0.15733457 0.016304404
v 0.38396043 0.16467142 -0.07173756
v 0.29021204 0.2861367 -0.041575015
v 0.2828752 0.27798468 -0.07173756
v 0.39211243 0.008967578 0.014674008
v 0.3081465 0.0057067573 0.06195578
v -0.15814978 0.34320092 -0.041575015
v -0.14510655 0.32689685 0.010597974
v -0.013043582 0.37091786 -0.07173756
v -0.013043582 0.38314587 -0.041575015
v 0.13939941 0.34809214 -0.07173756
v 0.14429066 0.35868979 -0.041575015
v 0.13369301 0.33260328 0.010597974
v 0.2845056 -0.13043219 0.07418385
v 0.15488827 -0.14102983 0.08885753
v -0.2649414 0.2657566 0.0073371828
v 0.27146235 0.2657566 0.0122283995
v 0.23070219 0.22418123 0.051358163
v -0.011413187 0.36602664 0.014674008
v -0.0122283995 0.27716947 0.06195578
v -0.22662687 0.21521401 0.040760517
v 0.14021462 -0.26575595 0.054618955
v 0.28613603 0.14021534 0.054618955
v 0.14429066 0.14103049 0.08152068
v -0.13858491 0.24863738 0.054618955
v -0.15407377 0.14836735 0.08152068
v 0.16385552 0.0016307533 0.09619433
v -0.002445966 0.003261149 0.10027033
v -3.2782555E-07 -0.15162748 0.0904879
v -0.15162814 -0.14102983 0.087227106
v 0.12554097 0.25923496 0.054618955
v -0.008967578 0.15488899 0.0904879
v -0.27472383 0.13940012 0.054618955
v -0.30325598 0.008152366 0.06195578
v -0.16385621 0.0073371828 0.0904879
v -0.14103049 -0.26575595 0.054618955
v -0.23477888 -0.22581097 0.040760517
v -0.3880371 0.008152366 0.014674008
v -0.27635425 -0.13206258 0.054618955
v -0.27553904 -0.26657113 0.0073371828
vt 0.9710019 0.797874
vt 0.72260094 0.71883726
vt 0.91831076 0.8882016
vt 0.98229283 0.68872803
vt 0.8430378 0.9559473
vt 0.95218366 0.5908731
vt 0.7451828 0.9785292
vt 0.8957289 0.5080728
vt 0.6398006 0.9710019
vt 0.8016376 0.4553817
vt 0.549473 0.91454715
vt 0.700019 0.44032708
vt 0.5005455 0.83551043
vt 0.6059277 0.48172724
vt 0.4854909 0.7451828
vt 0.53441834 0.5570003
vt 0.4854909 0.6510916
vt 0.5946368 0.26343545
vt 0.61345506 0.2596718
vt 0.5607639 0.14676228
vt 0.5457093 0.15805323
vt 0.5156001 0.1768715
vt 0.47419995 0.063961945
vt 0.46667263 0.07901655
vt 0.36505404 0.022561783
vt 0.5946368 0.38010865
vt 0.5607639 0.376345
vt 0.61345506 0.3838723
vt 0.5532366 0.4854909
vt 0.56829125 0.49678186
vt 0.5532366 0.27096277
vt 0.5005455 0.2822537
vt 0.3612904 0.04138004
vt 0.35752675 0.0752529
vt 0.24085356 0.022561783
vt 0.24461721 0.04138004
vt 0.13170767 0.07901655
vt 0.48172724 0.57205486
vt 0.45914534 0.54194564
vt 0.49301818 0.58710945
vt 0.37258136 0.62098235
vt 0.376345 0.6398006
vt 0.5231274 0.47043628
vt 0.49301818 0.44785437
vt 0.14299862 0.09407116
vt 0.16558054 0.120416716
vt 0.060198292 0.16558054
vt 0.0752529 0.17310783
vt 0.026325434 0.2671991
vt 0.2596718 0.62474597
vt 0.2671991 0.58710945
vt 0.25590816 0.6398006
vt 0.16181688 0.57205486
vt 0.14676228 0.58710945
vt 0.36505404 0.58334583
vt 0.3537631 0.5231274
vt 0.04514369 0.27096277
vt 0.07901655 0.27849007
vt 0.022561783 0.38010865
vt 0.04138004 0.376345
vt 0.0677256 0.49301818
vt 0.082780205 0.48172724
vt 0.11665306 0.46290898
vt 0.4327998 0.4854909
vt 0.42527246 0.40269056
vt 0.10159846 0.19192609
vt 0.18063514 0.54194564
vt 0.2069807 0.5043091
vt 0.0752529 0.37258136
vt 0.13547133 0.35752675
vt 0.14299862 0.214508
vt 0.5043091 0.38010865
vt 0.2671991 0.5306547
vt 0.24461721 0.43656343
vt 0.13547133 0.27472642
vt 0.1994534 0.25214452
vt 0.33494484 0.4290361
vt 0.31236294 0.32741755
vt 0.41021788 0.30483562
vt 0.38010865 0.21074435
vt 0.16558054 0.44409072
vt 0.214508 0.34247214
vt 0.18816245 0.17310783
vt 0.2671991 0.13547133
vt 0.2860174 0.22579895
vt 0.46290898 0.1994534
vt 0.42527246 0.14299862
vt 0.25214452 0.0752529
vt 0.35752675 0.13170767
vt 0.44785437 0.10912576
vn -0.015545249 -0.6188622 -0.78534573
vn -0.015545249 0.015545249 -0.99975836
vn -0.23758793 -0.5554215 -0.7969059
vn 0.23821771 -0.5554215 -0.7967178
vn -0.4279102 -0.42853993 -0.79576784
vn 0.42853993 -0.42853993 -0.7954289
vn -0.5547917 -0.23821771 -0.7971565
vn 0.5554215 -0.23821771 -0.7967178
vn -0.61823237 0.015545249 -0.78584164
vn 0.6188622 -0.016175091 -0.785333
vn -0.5547917 0.26930833 -0.787197
vn 0.5554215 0.26930833 -0.7867528
vn -0.3644694 0.4596305 -0.8098777
vn 0.3650992 0.4913509 -0.7907445
vn -0.20586753 0.5547917 -0.80611706
vn 0.17477697 0.5865121 -0.79085815
vn -0.04726565 0.61823237 -0.78457296
vn -0.015545249 -0.9995067 0.0272892
vn -0.015545249 -0.6188622 -0.78534573
vn -0.23758793 -0.5554215 -0.7969059
vn -0.36282995 -0.9318554 -0
vn -0.3010286 -0.68230295 0.6662165
vn -0.4279102 -0.42853993 -0.79576784
vn -0.7067948 -0.70741874 -0
vn -0.5547917 -0.23821771 -0.7971565
vn 0.3968196 -0.9043456 0.15714087
vn 0.30165845 -0.68230295 0.6659316
vn 0.23821771 -0.5554215 -0.7967178
vn 0.68230295 -0.71402335 0.15695015
vn 0.42853993 -0.42853993 -0.7954289
vn -0.015545249 -0.74574375 0.6660515
vn -0.015545249 -0.3650992 0.9308388
vn -0.92059314 -0.39052308 -0
vn -0.68167317 -0.30165845 0.66657627
vn -0.61823237 0.015545249 -0.78584164
vn -0.9988769 0.015545249 0.044757515
vn -0.5547917 0.26930833 -0.787197
vn 0.9043456 -0.3968196 0.15714096
vn 0.71402335 -0.30165845 0.63180125
vn 0.5554215 -0.23821771 -0.7967178
vn 0.9995067 -0.016175091 0.02692033
vn 0.6188622 -0.016175091 -0.785333
vn 0.5237011 -0.5554215 0.6459444
vn 0.33337885 -0.42853993 0.83976907
vn -0.8913398 0.453336 -0
vn -0.64995277 0.332749 0.6832565
vn -0.3644694 0.4596305 -0.8098777
vn -0.64169276 0.76696175 -0
vn -0.20586753 0.5547917 -0.80611706
vn 0.90391713 0.4277075 -0
vn 0.68230295 0.3010286 0.66621655
vn 0.5554215 0.26930833 -0.7867528
vn 0.60779446 0.79409444 -0
vn 0.3650992 0.4913509 -0.7907445
vn 0.74574375 -0.016175091 0.6660365
vn 0.3650992 0.015545249 0.9308388
vn -0.36304206 0.9317727 -0
vn -0.3010286 0.71339357 0.63281226
vn -0.04726565 0.61823237 -0.78457296
vn -0.04726565 0.9988769 -0.0032936372
vn 0.17477697 0.5865121 -0.79085815
vn 0.30165845 0.9354361 0.18428624
vn 0.23821771 0.71339357 0.65903103
vn 0.3650992 -0.20649731 0.90777826
vn 0.11133623 -0.17477697 0.97829306
vn -0.4913509 0.5865121 0.6438772
vn 0.46026033 0.5865121 0.6664563
vn 0.23821771 0.332749 0.91243106
vn -0.04726565 0.77683425 0.62792873
vn -0.015545249 0.3644694 0.9310856
vn -0.3010286 0.3644694 0.88121724
vn 0.17477697 -0.3650992 0.9144155
vn 0.30165845 0.17414713 0.9373767
vn 0.11133623 0.14242685 0.98352367
vn -0.17414713 0.3644694 0.91478676
vn -0.14242685 0.17414713 0.9743651
vn 0.11133623 0.04726565 0.99265814
vn -0.015545249 0.015545249 0.99975836
vn -0.015545249 -0.14305657 0.98959243
vn -0.14242685 -0.14305657 0.9794128
vn 0.14305657 0.3644694 0.9201613
vn -0.015545249 0.17414713 0.98459697
vn -0.332749 0.20586753 0.9202699
vn -0.3644694 0.015545249 0.9310856
vn -0.14242685 0.015545249 0.9896833
vn -0.20586753 -0.33337885 0.9200419
vn -0.332749 -0.33337885 0.88212055
vn -0.74511397 0.015545249 0.6667559
vn -0.3644694 -0.17477697 0.91466665
vn -0.5230713 -0.5237011 0.6724088
g Cookie_0
f 3/3/3 2/2/2 1/1/1
f 1/1/1 2/2/2 4/4/4
f 5/5/5 2/2/2 3/3/3
f 4/4/4 2/2/2 6/6/6
f 7/7/7 2/2/2 5/5/5
f 6/6/6 2/2/2 8/8/8
f 9/9/9 2/2/2 7/7/7
f 8/8/8 2/2/2 10/10/10
f 11/11/11 2/2/2 9/9/9
f 10/10/10 2/2/2 12/12/12
f 13/13/13 2/2/2 11/11/11
f 12/12/12 2/2/2 14/14/14
f 15/15/15 2/2/2 13/13/13
f 14/14/14 2/2/2 16/16/16
f 17/17/17 2/2/2 15/15/15
f 16/16/16 2/2/2 17/17/17
f 20/20/20 19/19/19 18/18/18
f 21/21/21 20/20/20 18/18/18
f 22/22/22 21/21/21 18/18/18
f 23/23/23 20/20/20 21/21/21
f 24/24/24 23/23/23 21/21/21
f 21/21/21 22/22/22 24/24/24
f 25/25/25 23/23/23 24/24/24
f 18/18/18 19/19/19 26/26/26
f 26/26/26 27/27/27 18/18/18
f 19/19/19 28/28/28 26/26/26
f 26/26/26 28/28/28 29/29/29
f 27/27/27 26/26/26 29/29/29
f 28/28/28 30/30/30 29/29/29
f 31/31/31 22/22/22 18/18/18
f 27/27/27 31/31/31 18/18/18
f 22/22/22 31/31/31 32/32/32
f 31/31/31 27/27/27 32/32/32
f 33/33/33 25/25/25 24/24/24
f 34/34/34 33/33/33 24/24/24
f 35/35/35 25/25/25 33/33/33
f 36/36/36 35/35/35 33/33/33
f 33/33/33 34/34/34 36/36/36
f 37/37/37 35/35/35 36/36/36
f 29/29/29 30/30/30 38/38/38
f 38/38/38 39/39/39 29/29/29
f 30/30/30 40/40/40 38/38/38
f 38/38/38 40/40/40 41/41/41
f 39/39/39 38/38/38 41/41/41
f 40/40/40 42/42/42 41/41/41
f 43/43/43 27/27/27 29/29/29
f 39/39/39 43/43/43 29/29/29
f 27/27/27 43/43/43 44/44/44
f 43/43/43 39/39/39 44/44/44
f 45/45/45 37/37/37 36/36/36
f 46/46/46 45/45/45 36/36/36
f 47/47/47 37/37/37 45/45/45
f 48/48/48 47/47/47 45/45/45
f 45/45/45 46/46/46 48/48/48
f 49/49/49 47/47/47 48/48/48
f 41/41/41 42/42/42 50/50/50
f 50/50/50 51/51/51 41/41/41
f 42/42/42 52/52/52 50/50/50
f 50/50/50 52/52/52 53/53/53
f 51/51/51 50/50/50 53/53/53
f 52/52/52 54/54/54 53/53/53
f 55/55/55 39/39/39 41/41/41
f 51/51/51 55/55/55 41/41/41
f 39/39/39 55/55/55 56/56/56
f 55/55/55 51/51/51 56/56/56
f 57/57/57 49/49/49 48/48/48
f 58/58/58 57/57/57 48/48/48
f 59/59/59 49/49/49 57/57/57
f 60/60/60 59/59/59 57/57/57
f 57/57/57 58/58/58 60/60/60
f 61/61/61 59/59/59 60/60/60
f 54/54/54 61/61/61 62/62/62
f 53/53/53 54/54/54 62/62/62
f 62/62/62 61/61/61 60/60/60
f 62/62/62 63/63/63 53/53/53
f 63/63/63 62/62/62 60/60/60
f 64/64/64 39/39/39 56/56/56
f 65/65/65 64/64/64 56/56/56
f 39/39/39 64/64/64 44/44/44
f 64/64/64 65/65/65 44/44/44
f 66/66/66 58/58/58 48/48/48
f 46/46/46 66/66/66 48/48/48
f 63/63/63 67/67/67 53/53/53
f 67/67/67 51/51/51 53/53/53
f 51/51/51 67/67/67 68/68/68
f 67/67/67 63/63/63 68/68/68
f 58/58/58 69/69/69 60/60/60
f 69/69/69 63/63/63 60/60/60
f 63/63/63 69/69/69 70/70/70
f 69/69/69 58/58/58 70/70/70
f 58/58/58 66/66/66 71/71/71
f 66/66/66 46/46/46 71/71/71
f 65/65/65 72/72/72 44/44/44
f 72/72/72 27/27/27 44/44/44
f 27/27/27 72/72/72 32/32/32
f 72/72/72 65/65/65 32/32/32
f 73/73/73 51/51/51 68/68/68
f 74/74/74 73/73/73 68/68/68
f 51/51/51 73/73/73 56/56/56
f 73/73/73 74/74/74 56/56/56
f 58/58/58 75/75/75 70/70/70
f 75/75/75 58/58/58 71/71/71
f 76/76/76 75/75/75 71/71/71
f 75/75/75 76/76/76 70/70/70
f 77/77/77 65/65/65 56/56/56
f 74/74/74 77/77/77 56/56/56
f 65/65/65 77/77/77 78/78/78
f 77/77/77 74/74/74 78/78/78
f 65/65/65 79/79/79 32/32/32
f 79/79/79 65/65/65 78/78/78
f 79/79/79 80/80/80 32/32/32
f 80/80/80 79/79/79 78/78/78
f 81/81/81 74/74/74 68/68/68
f 74/74/74 81/81/81 70/70/70
f 63/63/63 81/81/81 68/68/68
f 81/81/81 63/63/63 70/70/70
f 82/82/82 74/74/74 70/70/70
f 76/76/76 82/82/82 70/70/70
f 74/74/74 82/82/82 78/78/78
f 82/82/82 76/76/76 78/78/78
f 83/83/83 76/76/76 71/71/71
f 76/76/76 83/83/83 84/84/84
f 46/46/46 83/83/83 71/71/71
f 83/83/83 46/46/46 84/84/84
f 76/76/76 85/85/85 78/78/78
f 85/85/85 80/80/80 78/78/78
f 85/85/85 76/76/76 84/84/84
f 80/80/80 85/85/85 84/84/84
f 80/80/80 86/86/86 32/32/32
f 86/86/86 22/22/22 32/32/32
f 86/86/86 80/80/80 87/87/87
f 22/22/22 86/86/86 87/87/87
f 46/46/46 88/88/88 84/84/84
f 88/88/88 46/46/46 36/36/36
f 34/34/34 88/88/88 36/36/36
f 88/88/88 34/34/34 84/84/84
f 89/89/89 80/80/80 84/84/84
f 80/80/80 89/89/89 87/87/87
f 34/34/34 89/89/89 84/84/84
f 89/89/89 34/34/34 87/87/87
f 90/90/90 22/22/22 87/87/87
f 34/34/34 90/90/90 87/87/87
f 22/22/22 90/90/90 24/24/24
f 90/90/90 34/34/34 24/24/24
