g Cube
v 0.26126957 0.49520868 -0.011080116
v 0.27604452 0.48437375 -0.011080116
v 0.27604452 0.48437375 0.011574805
v 0.26126957 0.49520868 0.011574805
v 0.2445246 0.5030887 -0.011080116
v 0.2445246 0.5030887 0.011574805
v 0.22580963 0.50505865 -0.011080116
v 0.22580963 0.50505865 0.011574805
v -0.22827435 0.5030887 -0.011080116
v -0.22827435 0.5030887 0.011574805
v -0.24501926 0.50111866 -0.011080116
v -0.24501926 0.50111866 0.011574805
v -0.26176423 0.4942237 -0.011080116
v -0.26176423 0.4942237 0.011574805
v -0.27555418 0.48437375 -0.011080116
v -0.27555418 0.48437375 0.011574805
v 0.27604452 0.48437375 -0.011080116
v 0.28687948 0.46959877 0.011574805
v 0.27604452 0.48437375 0.011574805
v 0.28687948 0.46959877 -0.011080116
v 0.2937745 0.4528538 0.011574805
v 0.2937745 0.4528538 -0.011080116
v 0.29574448 0.43512386 0.011574805
v 0.29574448 0.43512386 -0.011080116
v 0.29278946 -0.44152415 -0.011080116
v 0.29278946 -0.44152415 0.011574805
v 0.29081947 -0.4572841 0.011574805
v 0.29081947 -0.4572841 -0.011080116
v 0.2849095 -0.47205907 0.011574805
v 0.2849095 -0.47205907 -0.011080116
v 0.27505952 -0.48486403 0.011574805
v 0.27505952 -0.48486403 -0.011080116
v -0.27555418 0.48437375 0.011574805
v -0.2854042 0.47058374 -0.011080116
v -0.27555418 0.48437375 -0.011080116
v -0.2854042 0.47058374 0.011574805
v -0.29229915 0.4548238 -0.011080116
v -0.29229915 0.4548238 0.011574805
v -0.29426914 0.43709385 -0.011080116
v -0.29426914 0.43709385 0.011574805
v -0.29525417 -0.43856913 0.011574805
v -0.29525417 -0.43856913 -0.011080116
v -0.29229915 -0.4543291 -0.011080116
v -0.29229915 -0.4543291 0.011574805
v -0.2854042 -0.47008908 -0.011080116
v -0.2854042 -0.47008908 0.011574805
v -0.2745692 -0.48289403 -0.011080116
v -0.2745692 -0.48289403 0.011574805
v 0.29278946 -0.44152415 -0.011080116
v 0.29574448 0.43512386 -0.011080116
v 0.2937745 0.4528538 -0.011080116
v 0.28687948 0.46959877 -0.011080116
v 0.29081947 -0.4572841 -0.011080116
v 0.2849095 -0.47205907 -0.011080116
v 0.27604452 0.48437375 -0.011080116
v 0.27505952 -0.48486403 -0.011080116
v 0.26126957 0.49520868 -0.011080116
v 0.26225454 -0.49471402 -0.011080116
v 0.24747959 -0.500624 -0.011080116
v 0.2445246 0.5030887 -0.011080116
v 0.23171961 -0.502594 -0.011080116
v 0.22580963 0.50505865 -0.011080116
v -0.22925931 -0.50160897 -0.011080116
v -0.22827435 0.5030887 -0.011080116
v -0.24501926 0.50111866 -0.011080116
v -0.24600428 -0.499639 -0.011080116
v -0.26176423 0.4942237 -0.011080116
v -0.26077926 -0.49274403 -0.011080116
v -0.2745692 -0.48289403 -0.011080116
v -0.27555418 0.48437375 -0.011080116
v -0.2854042 -0.47008908 -0.011080116
v -0.2854042 0.47058374 -0.011080116
v -0.29229915 -0.4543291 -0.011080116
v -0.29229915 0.4548238 -0.011080116
v -0.29525417 -0.43856913 -0.011080116
v -0.29426914 0.43709385 -0.011080116
v 0.2937745 0.4528538 0.011574805
v 0.29574448 0.43512386 0.011574805
v 0.29278946 -0.44152415 0.011574805
v 0.28687948 0.46959877 0.011574805
v 0.29081947 -0.4572841 0.011574805
v 0.2849095 -0.47205907 0.011574805
v 0.27604452 0.48437375 0.011574805
v 0.27505952 -0.48486403 0.011574805
v 0.26126957 0.49520868 0.011574805
v 0.26225454 -0.49471402 0.011574805
v 0.24747959 -0.500624 0.011574805
v 0.2445246 0.5030887 0.011574805
v 0.23171961 -0.502594 0.011574805
v 0.22580963 0.50505865 0.011574805
v -0.22925931 -0.50160897 0.011574805
v -0.22827435 0.5030887 0.011574805
v -0.24501926 0.50111866 0.011574805
v -0.24600428 -0.499639 0.011574805
v -0.26176423 0.4942237 0.011574805
v -0.26077926 -0.49274403 0.011574805
v -0.2745692 -0.48289403 0.011574805
v -0.27555418 0.48437375 0.011574805
v -0.2854042 -0.47008908 0.011574805
v -0.2854042 0.47058374 0.011574805
v -0.29229915 -0.4543291 0.011574805
v -0.29229915 0.4548238 0.011574805
v -0.29525417 -0.43856913 0.011574805
v -0.29426914 0.43709385 0.011574805
v 0.26225454 -0.49471402 0.011574805
v 0.27505952 -0.48486403 0.011574805
v 0.27505952 -0.48486403 -0.011080116
v 0.26225454 -0.49471402 -0.011080116
v 0.24747959 -0.500624 0.011574805
v 0.24747959 -0.500624 -0.011080116
v 0.23171961 -0.502594 0.011574805
v 0.23171961 -0.502594 -0.011080116
v -0.22925931 -0.50160897 0.011574805
v -0.22925931 -0.50160897 -0.011080116
v -0.24600428 -0.499639 0.011574805
v -0.24600428 -0.499639 -0.011080116
v -0.26077926 -0.49274403 0.011574805
v -0.26077926 -0.49274403 -0.011080116
v -0.2745692 -0.48289403 0.011574805
v -0.2745692 -0.48289403 -0.011080116
vt 0.039846424 0.06590057
vt 0.03240238 0.06590057
vt 0.03240238 0.07334462
vt 0.039846424 0.07334462
vt 0.043568444 0.06590057
vt 0.043568444 0.07334462
vt 0.051012486 0.06590057
vt 0.051012486 0.07334462
vt 0.21478142 0.06590057
vt 0.21478142 0.07334462
vt 0.22222546 0.06590057
vt 0.22222546 0.07334462
vt 0.22594748 0.06590057
vt 0.22594748 0.07334462
vt 0.2296695 0.06590057
vt 0.2296695 0.07334462
vt 0.07706663 0.05845653
vt 0.08451068 0.047290467
vt 0.07706663 0.047290467
vt 0.08451068 0.05845653
vt 0.09195472 0.047290467
vt 0.09195472 0.05845653
vt 0.09567674 0.047290467
vt 0.09567674 0.05845653
vt 0.41577053 0.05845653
vt 0.41577053 0.047290467
vt 0.4194926 0.047290467
vt 0.4194926 0.05845653
vt 0.42693663 0.047290467
vt 0.42693663 0.05845653
vt 0.43065864 0.047290467
vt 0.43065864 0.05845653
vt 0.08078866 0.06590057
vt 0.08451068 0.05845653
vt 0.08078866 0.05845653
vt 0.08451068 0.06590057
vt 0.09195472 0.05845653
vt 0.09195472 0.06590057
vt 0.09567674 0.05845653
vt 0.09567674 0.06590057
vt 0.41577053 0.06590057
vt 0.41577053 0.05845653
vt 0.4194926 0.05845653
vt 0.4194926 0.06590057
vt 0.42693663 0.05845653
vt 0.42693663 0.06590057
vt 0.43065864 0.05845653
vt 0.43065864 0.06590057
vt 0.50509906 0.3338861
vt 0.50509906 0.5125431
vt 0.50509906 0.5162651
vt 0.50509906 0.5162651
vt 0.50509906 0.3338861
vt 0.50509906 0.33016407
vt 0.50882107 0.51998717
vt 0.50882107 0.32644206
vt 0.5125431 0.5237092
vt 0.50882107 0.32644206
vt 0.5125431 0.32272005
vt 0.5125431 0.5237092
vt 0.5162651 0.32272005
vt 0.5162651 0.5237092
vt 0.6093157 0.32272005
vt 0.6093157 0.5237092
vt 0.6130377 0.5237092
vt 0.6130377 0.32272005
vt 0.6167597 0.5237092
vt 0.6130377 0.32644206
vt 0.6167597 0.32644206
vt 0.6167597 0.51998717
vt 0.6204817 0.33016407
vt 0.6204817 0.5162651
vt 0.6204817 0.3338861
vt 0.6204817 0.5162651
vt 0.6204817 0.3338861
vt 0.6204817 0.5125431
vt 0.62420374 0.9703517
vt 0.62420374 0.9666297
vt 0.62420374 0.7916947
vt 0.6204817 0.9740737
vt 0.62420374 0.7879727
vt 0.6204817 0.7842507
vt 0.6204817 0.9777958
vt 0.6204817 0.7842507
vt 0.6167597 0.9777958
vt 0.6167597 0.78052866
vt 0.6130377 0.78052866
vt 0.6130377 0.9815178
vt 0.6093157 0.78052866
vt 0.6093157 0.9815178
vt 0.51998717 0.78052866
vt 0.51998717 0.9815178
vt 0.5162651 0.9815178
vt 0.5162651 0.78052866
vt 0.5125431 0.9777958
vt 0.5125431 0.78052866
vt 0.50882107 0.7842507
vt 0.50882107 0.9777958
vt 0.50882107 0.7842507
vt 0.50882107 0.9740737
vt 0.50509906 0.7879727
vt 0.50509906 0.9703517
vt 0.50509906 0.7916947
vt 0.50509906 0.9666297
vt 0.42693663 0.07334462
vt 0.43065864 0.07334462
vt 0.43065864 0.06590057
vt 0.42693663 0.06590057
vt 0.4194926 0.07334462
vt 0.4194926 0.06590057
vt 0.41577053 0.07334462
vt 0.41577053 0.06590057
vt 0.2482796 0.07334462
vt 0.2482796 0.06590057
vt 0.24083556 0.07334462
vt 0.24083556 0.06590057
vt 0.23711354 0.07334462
vt 0.23711354 0.06590057
vt 0.2296695 0.07334462
vt 0.2296695 0.06590057
vn 0.4905212 0.8702796 -0.044747055
vn 0.70710677 0.70710677 -0
vn 0.70710677 0.70710677 -0
vn 0.4905212 0.8702796 -0.044747055
vn 0.26845825 0.96329135 -0
vn 0.26845825 0.96329135 -0
vn 0.07911632 0.99686545 -0
vn 0.07911632 0.99686545 -0
vn -0.07911626 0.99686545 -0
vn -0.07911626 0.99686545 -0
vn -0.2684582 0.96329135 -0
vn -0.2684582 0.96329135 -0
vn -0.49052125 0.8702796 -0.044747055
vn -0.49052125 0.8702796 -0.044747055
vn -0.70710677 0.70710677 -0
vn -0.70710677 0.70710677 -0
vn 0.70710677 0.70710677 -0
vn 0.87027955 0.49052125 -0.044748053
vn 0.70710677 0.70710677 -0
vn 0.87027955 0.49052125 -0.044748053
vn 0.9632913 0.2684582 -0
vn 0.9632913 0.2684582 -0
vn 0.99686545 0.07911626 -0
vn 0.99686545 0.07911626 -0
vn 0.99686545 -0.07911632 -0
vn 0.99686545 -0.07911632 -0
vn 0.9632913 -0.26845825 -0
vn 0.9632913 -0.26845825 -0
vn 0.87027955 -0.4905212 -0.04474872
vn 0.87027955 -0.4905212 -0.04474872
vn 0.70710677 -0.70710677 -0
vn 0.70710677 -0.70710677 -0
vn -0.70710677 0.70710677 -0
vn -0.8702796 0.49052125 -0.04474672
vn -0.70710677 0.70710677 -0
vn -0.8702796 0.49052125 -0.04474672
vn -0.96329135 0.2684582 -0
vn -0.96329135 0.2684582 -0
vn -0.99686545 0.07911626 -0
vn -0.99686545 0.07911626 -0
vn -0.99686545 -0.07911632 -0
vn -0.99686545 -0.07911632 -0
vn -0.9547581 -0.29738364 -0
vn -0.9547581 -0.29738364 -0
vn -0.838633 -0.52216774 -0.155034
vn -0.838633 -0.52216774 -0.155034
vn -0.68040043 -0.7120469 -0.17333332
vn -0.68040043 -0.7120469 -0.17333332
vn -0.015823305 0.015823305 -0.99974954
vn -0.015823305 0.015823305 -0.99974954
vn -0.015823305 0.015823305 -0.99974954
vn -0.015823305 0.015823305 -0.99974954
vn -0.015823305 0.015823305 -0.99974954
vn -0.015823305 0.015823305 -0.99974954
vn -0.015823305 0.015823305 -0.99974954
vn -0.015823305 0.015823305 -0.99974954
vn -0.015823305 0.015823305 -0.99974954
vn -0.015823305 0.015823305 -0.99974954
vn -0.015823305 0.015823305 -0.99974954
vn -0.015823305 0.015823305 -0.99974954
vn -0.015823305 0.015823305 -0.99974954
vn -0.015823305 0.015823305 -0.99974954
vn -0.015823305 0.015823305 -0.99974954
vn -0.015823305 0.015823305 -0.99974954
vn -0.015823305 0.015823305 -0.99974954
vn -0.015823305 0.015823305 -0.99974954
vn -0.015823305 0.015823305 -0.99974954
vn -0.015823305 0.015823305 -0.99974954
vn -0.015823305 0.015823305 -0.99974954
vn -0.015823305 0.015823305 -0.99974954
vn -0.015823305 0.015823305 -0.99974954
vn -0.015823305 0.015823305 -0.99974954
vn -0.015823305 0.015823305 -0.99974954
vn -0.015823305 0.015823305 -0.99974954
vn -0.015823305 0.015823305 -0.99974954
vn -0.015823305 0.015823305 -0.99974954
vn -0.015823305 0.015823305 0.99974954
vn -0.015823305 0.015823305 0.99974954
vn -0.015823305 0.015823305 0.99974954
vn -0.015823305 0.015823305 0.99974954
vn -0.015823305 0.015823305 0.99974954
vn -0.015823305 0.015823305 0.99974954
vn -0.015823305 0.015823305 0.99974954
vn -0.015823305 0.015823305 0.99974954
vn -0.015823305 0.015823305 0.99974954
vn -0.015823305 0.015823305 0.99974954
vn -0.015823305 0.015823305 0.99974954
vn -0.015823305 0.015823305 0.99974954
vn -0.015823305 0.015823305 0.99974954
vn -0.015823305 0.015823305 0.99974954
vn -0.015823305 0.015823305 0.99974954
vn -0.015823305 0.015823305 0.99974954
vn -0.015823305 0.015823305 0.99974954
vn -0.015823305 0.015823305 0.99974954
vn -0.015823305 0.015823305 0.99974954
vn -0.015823305 0.015823305 0.99974954
vn -0.015823305 0.015823305 0.99974954
vn -0.015823305 0.015823305 0.99974954
vn -0.015823305 0.015823305 0.99974954
vn -0.015823305 0.015823305 0.99974954
vn -0.015823305 0.015823305 0.99974954
vn -0.015823305 0.015823305 0.99974954
vn -0.015823305 0.015823305 0.99974954
vn -0.015823305 0.015823305 0.99974954
vn 0.4905212 -0.87027955 -0.044748385
vn 0.70710677 -0.70710677 -0
vn 0.70710677 -0.70710677 -0
vn 0.4905212 -0.87027955 -0.044748385
vn 0.26845825 -0.9632913 -0
vn 0.26845825 -0.9632913 -0
vn 0.07911632 -0.99686545 -0
vn 0.07911632 -0.99686545 -0
vn -0.07911626 -0.99686545 -0
vn -0.07911626 -0.99686545 -0
vn -0.2684582 -0.9632913 -0
vn -0.2684582 -0.9632913 -0
vn -0.49052125 -0.87027955 -0.044748385
vn -0.49052125 -0.87027955 -0.044748385
vn -0.68040043 -0.7120469 -0.17333332
vn -0.68040043 -0.7120469 -0.17333332
g Cube_0
f 3/3/3 2/2/2 1/1/1
f 4/4/4 3/3/3 1/1/1
f 4/4/4 1/1/1 5/5/5
f 6/6/6 4/4/4 5/5/5
f 6/6/6 5/5/5 7/7/7
f 8/8/8 6/6/6 7/7/7
f 7/7/7 9/9/9 8/8/8
f 9/9/9 10/10/10 8/8/8
f 9/9/9 11/11/11 10/10/10
f 11/11/11 12/12/12 10/10/10
f 11/11/11 13/13/13 12/12/12
f 13/13/13 14/14/14 12/12/12
f 13/13/13 15/15/15 14/14/14
f 15/15/15 16/16/16 14/14/14
f 19/19/19 18/18/18 17/17/17
f 18/18/18 20/20/20 17/17/17
f 18/18/18 21/21/21 20/20/20
f 21/21/21 22/22/22 20/20/20
f 21/21/21 23/23/23 22/22/22
f 23/23/23 24/24/24 22/22/22
f 24/24/24 23/23/23 25/25/25
f 23/23/23 26/26/26 25/25/25
f 25/25/25 26/26/26 27/27/27
f 28/28/28 25/25/25 27/27/27
f 28/28/28 27/27/27 29/29/29
f 30/30/30 28/28/28 29/29/29
f 30/30/30 29/29/29 31/31/31
f 32/32/32 30/30/30 31/31/31
f 35/35/35 34/34/34 33/33/33
f 34/34/34 36/36/36 33/33/33
f 34/34/34 37/37/37 36/36/36
f 37/37/37 38/38/38 36/36/36
f 37/37/37 39/39/39 38/38/38
f 39/39/39 40/40/40 38/38/38
f 40/40/40 39/39/39 41/41/41
f 39/39/39 42/42/42 41/41/41
f 42/42/42 43/43/43 41/41/41
f 43/43/43 44/44/44 41/41/41
f 43/43/43 45/45/45 44/44/44
f 45/45/45 46/46/46 44/44/44
f 45/45/45 47/47/47 46/46/46
f 47/47/47 48/48/48 46/46/46
f 51/51/51 50/50/50 49/49/49
f 49/49/49 52/52/52 51/51/51
f 49/49/49 53/53/53 52/52/52
f 53/53/53 54/54/54 52/52/52
f 54/54/54 55/55/55 52/52/52
f 54/54/54 56/56/56 55/55/55
f 56/56/56 57/57/57 55/55/55
f 56/56/56 58/58/58 57/57/57
f 58/58/58 59/59/59 57/57/57
f 59/59/59 60/60/60 57/57/57
f 59/59/59 61/61/61 60/60/60
f 61/61/61 62/62/62 60/60/60
f 61/61/61 63/63/63 62/62/62
f 63/63/63 64/64/64 62/62/62
f 63/63/63 65/65/65 64/64/64
f 63/63/63 66/66/66 65/65/65
f 66/66/66 67/67/67 65/65/65
f 66/66/66 68/68/68 67/67/67
f 68/68/68 69/69/69 67/67/67
f 69/69/69 70/70/70 67/67/67
f 69/69/69 71/71/71 70/70/70
f 71/71/71 72/72/72 70/70/70
f 71/71/71 73/73/73 72/72/72
f 73/73/73 74/74/74 72/72/72
f 73/73/73 75/75/75 74/74/74
f 75/75/75 76/76/76 74/74/74
f 79/79/79 78/78/78 77/77/77
f 77/77/77 80/80/80 79/79/79
f 80/80/80 81/81/81 79/79/79
f 80/80/80 82/82/82 81/81/81
f 80/80/80 83/83/83 82/82/82
f 83/83/83 84/84/84 82/82/82
f 83/83/83 85/85/85 84/84/84
f 85/85/85 86/86/86 84/84/84
f 85/85/85 87/87/87 86/86/86
f 85/85/85 88/88/88 87/87/87
f 88/88/88 89/89/89 87/87/87
f 88/88/88 90/90/90 89/89/89
f 90/90/90 91/91/91 89/89/89
f 90/90/90 92/92/92 91/91/91
f 92/92/92 93/93/93 91/91/91
f 93/93/93 94/94/94 91/91/91
f 93/93/93 95/95/95 94/94/94
f 95/95/95 96/96/96 94/94/94
f 95/95/95 97/97/97 96/96/96
f 95/95/95 98/98/98 97/97/97
f 98/98/98 99/99/99 97/97/97
f 98/98/98 100/100/100 99/99/99
f 100/100/100 101/101/101 99/99/99
f 100/100/100 102/102/102 101/101/101
f 102/102/102 103/103/103 101/101/101
f 102/102/102 104/104/104 103/103/103
f 107/107/107 106/106/106 105/105/105
f 108/108/108 107/107/107 105/105/105
f 108/108/108 105/105/105 109/109/109
f 110/110/110 108/108/108 109/109/109
f 110/110/110 109/109/109 111/111/111
f 112/112/112 110/110/110 111/111/111
f 112/112/112 111/111/111 113/113/113
f 114/114/114 112/112/112 113/113/113
f 114/114/114 113/113/113 115/115/115
f 116/116/116 114/114/114 115/115/115
f 116/116/116 115/115/115 117/117/117
f 118/118/118 116/116/116 117/117/117
f 118/118/118 117/117/117 119/119/119
f 120/120/120 118/118/118 119/119/119
