g Cube
v 0.26126957 0.49520868 -0.011080116
v 0.27604452 0.48437375 -0.011080116
v 0.27604452 0.48437375 0.011574805
v 0.26126957 0.49520868 0.011574805
v 0.2445246 0.5030887 -0.011080116
v 0.2445246 0.5030887 0.011574805
v 0.22580963 0.50505865 -0.011080116
v 0.22580963 0.50505865 0.011574805
v -0.22827435 0.5030887 -0.011080116
v -0.22827435 0.5030887 0.011574805
v -0.24501926 0.50111866 -0.011080116
v -0.24501926 0.50111866 0.011574805
v -0.26176423 0.4942237 -0.011080116
v -0.26176423 0.4942237 0.011574805
v -0.27555418 0.48437375 -0.011080116
v -0.27555418 0.48437375 0.011574805
v 0.27604452 0.48437375 -0.011080116
v 0.28687948 0.46959877 0.011574805
v 0.27604452 0.48437375 0.011574805
v 0.28687948 0.46959877 -0.011080116
v 0.2937745 0.4528538 0.011574805
v 0.2937745 0.4528538 -0.011080116
v 0.29574448 0.43512386 0.011574805
v 0.29574448 0.43512386 -0.011080116
v 0.29278946 -0.44152415 -0.011080116
v 0.29278946 -0.44152415 0.011574805
v 0.29081947 -0.4572841 0.011574805
v 0.29081947 -0.4572841 -0.011080116
v 0.2849095 -0.47205907 0.011574805
v 0.2849095 -0.47205907 -0.011080116
v 0.27505952 -0.48486403 0.011574805
v 0.27505952 -0.48486403 -0.011080116
v -0.27555418 0.48437375 0.011574805
v -0.2854042 0.47058374 -0.011080116
v -0.27555418 0.48437375 -0.011080116
v -0.2854042 0.47058374 0.011574805
v -0.29229915 0.4548238 -0.011080116
v -0.29229915 0.4548238 0.011574805
v -0.29426914 0.43709385 -0.011080116
v -0.29426914 0.43709385 0.011574805
v -0.29525417 -0.43856913 0.011574805
v -0.29525417 -0.43856913 -0.011080116
v -0.29229915 -0.4543291 -0.011080116
v -0.29229915 -0.4543291 0.011574805
v -0.2854042 -0.47008908 -0.011080116
v -0.2854042 -0.47008908 0.011574805
v -0.2745692 -0.48289403 -0.011080116
v -0.2745692 -0.48289403 0.011574805
v 0.29278946 -0.44152415 -0.011080116
v 0.29574448 0.43512386 -0.011080116
v 0.2937745 0.4528538 -0.011080116
v 0.28687948 0.46959877 -0.011080116
v 0.29081947 -0.4572841 -0.011080116
v 0.2849095 -0.47205907 -0.011080116
v 0.27604452 0.48437375 -0.011080116
v 0.27505952 -0.48486403 -0.011080116
v 0.26126957 0.49520868 -0.011080116
v 0.26225454 -0.49471402 -0.011080116
v 0.24747959 -0.500624 -0.011080116
v 0.2445246 0.5030887 -0.011080116
v 0.23171961 -0.502594 -0.011080116
v 0.22580963 0.50505865 -0.011080116
v -0.22925931 -0.50160897 -0.011080116
v -0.22827435 0.5030887 -0.011080116
v -0.24501926 0.50111866 -0.011080116
v -0.24600428 -0.499639 -0.011080116
v -0.26176423 0.4942237 -0.011080116
v -0.26077926 -0.49274403 -0.011080116
v -0.2745692 -0.48289403 -0.011080116
v -0.27555418 0.48437375 -0.011080116
v -0.2854042 -0.47008908 -0.011080116
v -0.2854042 0.47058374 -0.011080116
v -0.29229915 -0.4543291 -0.011080116
v -0.29229915 0.4548238 -0.011080116
v -0.29525417 -0.43856913 -0.011080116
v -0.29426914 0.43709385 -0.011080116
v 0.2937745 0.4528538 0.011574805
v 0.29574448 0.43512386 0.011574805
v 0.29278946 -0.44152415 0.011574805
v 0.28687948 0.46959877 0.011574805
v 0.29081947 -0.4572841 0.011574805
v 0.2849095 -0.47205907 0.011574805
v 0.27604452 0.48437375 0.011574805
v 0.27505952 -0.48486403 0.011574805
v 0.26126957 0.49520868 0.011574805
v 0.26225454 -0.49471402 0.011574805
v 0.24747959 -0.500624 0.011574805
v 0.2445246 0.5030887 0.011574805
v 0.23171961 -0.502594 0.011574805
v 0.22580963 0.50505865 0.011574805
v -0.22925931 -0.50160897 0.011574805
v -0.22827435 0.5030887 0.011574805
v -0.24501926 0.50111866 0.011574805
v -0.24600428 -0.499639 0.011574805
v -0.26176423 0.4942237 0.011574805
v -0.26077926 -0.49274403 0.011574805
v -0.2745692 -0.48289403 0.011574805
v -0.27555418 0.48437375 0.011574805
v -0.2854042 -0.47008908 0.011574805
v -0.2854042 0.47058374 0.011574805
v -0.29229915 -0.4543291 0.011574805
v -0.29229915 0.4548238 0.011574805
v -0.29525417 -0.43856913 0.011574805
v -0.29426914 0.43709385 0.011574805
v 0.26225454 -0.49471402 0.011574805
v 0.27505952 -0.48486403 0.011574805
v 0.27505952 -0.48486403 -0.011080116
v 0.26225454 -0.49471402 -0.011080116
v 0.24747959 -0.500624 0.011574805
v 0.24747959 -0.500624 -0.011080116
v 0.23171961 -0.502594 0.011574805
v 0.23171961 -0.502594 -0.011080116
v -0.22925931 -0.50160897 0.011574805
v -0.22925931 -0.50160897 -0.011080116
v -0.24600428 -0.499639 0.011574805
v -0.24600428 -0.499639 -0.011080116
v -0.26077926 -0.49274403 0.011574805
v -0.26077926 -0.49274403 -0.011080116
v -0.2745692 -0.48289403 0.011574805
v -0.2745692 -0.48289403 -0.011080116
vt 0.0380901 0.063684836
vt 0.03240238 0.063684836
vt 0.03240238 0.072216414
vt 0.0380901 0.072216414
vt 0.04377782 0.063684836
vt 0.04377782 0.072216414
vt 0.052309398 0.063684836
vt 0.052309398 0.072216414
vt 0.21440938 0.063684836
vt 0.21440938 0.072216414
vt 0.2200971 0.063684836
vt 0.2200971 0.072216414
vt 0.22578482 0.063684836
vt 0.22578482 0.072216414
vt 0.23147254 0.063684836
vt 0.23147254 0.072216414
vt 0.077904135 0.057997115
vt 0.08359185 0.049465537
vt 0.077904135 0.049465537
vt 0.08359185 0.057997115
vt 0.08927957 0.049465537
vt 0.08927957 0.057997115
vt 0.09781115 0.049465537
vt 0.09781115 0.057997115
vt 0.41347957 0.057997115
vt 0.41347957 0.049465537
vt 0.42201114 0.049465537
vt 0.42201114 0.057997115
vt 0.424855 0.049465537
vt 0.424855 0.057997115
vt 0.4305427 0.049465537
vt 0.4305427 0.057997115
vt 0.08074799 0.063684836
vt 0.08359185 0.057997115
vt 0.08074799 0.057997115
vt 0.08359185 0.063684836
vt 0.08927957 0.057997115
vt 0.08927957 0.063684836
vt 0.09781115 0.057997115
vt 0.09781115 0.063684836
vt 0.41347957 0.063684836
vt 0.41347957 0.057997115
vt 0.41916728 0.057997115
vt 0.41916728 0.063684836
vt 0.424855 0.057997115
vt 0.424855 0.063684836
vt 0.4305427 0.057997115
vt 0.4305427 0.063684836
vt 0.50448304 0.3366953
vt 0.50448304 0.51017076
vt 0.50448304 0.5158585
vt 0.50448304 0.5187023
vt 0.50448304 0.3310076
vt 0.50448304 0.32816374
vt 0.5073269 0.5215462
vt 0.5073269 0.3253199
vt 0.51017076 0.52439004
vt 0.51017076 0.3253199
vt 0.5130146 0.32247603
vt 0.5130146 0.52439004
vt 0.5158585 0.32247603
vt 0.5187023 0.52439004
vt 0.60970587 0.32247603
vt 0.60970587 0.52439004
vt 0.6125497 0.52439004
vt 0.6125497 0.32247603
vt 0.6153936 0.5215462
vt 0.6153936 0.3253199
vt 0.61823744 0.32816374
vt 0.61823744 0.5215462
vt 0.61823744 0.32816374
vt 0.6210813 0.5187023
vt 0.6210813 0.33385146
vt 0.6210813 0.5158585
vt 0.6210813 0.3366953
vt 0.6210813 0.51017076
vt 0.24284798 0.7462111
vt 0.24569184 0.74336725
vt 0.24569184 0.56704795
vt 0.24284798 0.7518988
vt 0.24284798 0.5642041
vt 0.24284798 0.56136024
vt 0.24000412 0.7547427
vt 0.24000412 0.5585164
vt 0.23716025 0.7547427
vt 0.23716025 0.5585164
vt 0.2343164 0.5556725
vt 0.2343164 0.75758654
vt 0.23147254 0.5556725
vt 0.23147254 0.75758654
vt 0.14046904 0.5556725
vt 0.14046904 0.75758654
vt 0.13762519 0.75758654
vt 0.13762519 0.5556725
vt 0.13193746 0.7547427
vt 0.13478132 0.5585164
vt 0.13193746 0.5585164
vt 0.1290936 0.7518988
vt 0.1290936 0.56136024
vt 0.1290936 0.74905497
vt 0.12624973 0.5642041
vt 0.12624973 0.7462111
vt 0.12624973 0.56704795
vt 0.12624973 0.74336725
vt 0.424855 0.072216414
vt 0.4305427 0.072216414
vt 0.4305427 0.063684836
vt 0.424855 0.063684836
vt 0.42201114 0.072216414
vt 0.42201114 0.063684836
vt 0.41347957 0.072216414
vt 0.41347957 0.063684836
vt 0.2485357 0.072216414
vt 0.2485357 0.063684836
vt 0.24284798 0.072216414
vt 0.24284798 0.063684836
vt 0.23716025 0.072216414
vt 0.23716025 0.063684836
vt 0.23147254 0.072216414
vt 0.23147254 0.063684836
vn 0.4905212 0.8702796 -0.044747055
vn 0.70710677 0.70710677 -0
vn 0.70710677 0.70710677 -0
vn 0.4905212 0.8702796 -0.044747055
vn 0.26845825 0.96329135 -0
vn 0.26845825 0.96329135 -0
vn 0.07911632 0.99686545 -0
vn 0.07911632 0.99686545 -0
vn -0.07911626 0.99686545 -0
vn -0.07911626 0.99686545 -0
vn -0.2684582 0.96329135 -0
vn -0.2684582 0.96329135 -0
vn -0.49052125 0.8702796 -0.044747055
vn -0.49052125 0.8702796 -0.044747055
vn -0.70710677 0.70710677 -0
vn -0.70710677 0.70710677 -0
vn 0.70710677 0.70710677 -0
vn 0.87027955 0.49052125 -0.044748053
vn 0.70710677 0.70710677 -0
vn 0.87027955 0.49052125 -0.044748053
vn 0.9632913 0.2684582 -0
vn 0.9632913 0.2684582 -0
vn 0.99686545 0.07911626 -0
vn 0.99686545 0.07911626 -0
vn 0.99686545 -0.07911632 -0
vn 0.99686545 -0.07911632 -0
vn 0.9632913 -0.26845825 -0
vn 0.9632913 -0.26845825 -0
vn 0.87027955 -0.4905212 -0.04474872
vn 0.87027955 -0.4905212 -0.04474872
vn 0.70710677 -0.70710677 -0
vn 0.70710677 -0.70710677 -0
vn -0.70710677 0.70710677 -0
vn -0.8702796 0.49052125 -0.04474672
vn -0.70710677 0.70710677 -0
vn -0.8702796 0.49052125 -0.04474672
vn -0.96329135 0.2684582 -0
vn -0.96329135 0.2684582 -0
vn -0.99686545 0.07911626 -0
vn -0.99686545 0.07911626 -0
vn -0.99686545 -0.07911632 -0
vn -0.99686545 -0.07911632 -0
vn -0.9547581 -0.29738364 -0
vn -0.9547581 -0.29738364 -0
vn -0.838633 -0.52216774 -0.155034
vn -0.838633 -0.52216774 -0.155034
vn -0.68040043 -0.7120469 -0.17333332
vn -0.68040043 -0.7120469 -0.17333332
vn -0.015823305 0.015823305 -0.99974954
vn -0.015823305 0.015823305 -0.99974954
vn -0.015823305 0.015823305 -0.99974954
vn -0.015823305 0.015823305 -0.99974954
vn -0.015823305 0.015823305 -0.99974954
vn -0.015823305 0.015823305 -0.99974954
vn -0.015823305 0.015823305 -0.99974954
vn -0.015823305 0.015823305 -0.99974954
vn -0.015823305 0.015823305 -0.99974954
vn -0.015823305 0.015823305 -0.99974954
vn -0.015823305 0.015823305 -0.99974954
vn -0.015823305 0.015823305 -0.99974954
vn -0.015823305 0.015823305 -0.99974954
vn -0.015823305 0.015823305 -0.99974954
vn -0.015823305 0.015823305 -0.99974954
vn -0.015823305 0.015823305 -0.99974954
vn -0.015823305 0.015823305 -0.99974954
vn -0.015823305 0.015823305 -0.99974954
vn -0.015823305 0.015823305 -0.99974954
vn -0.015823305 0.015823305 -0.99974954
vn -0.015823305 0.015823305 -0.99974954
vn -0.015823305 0.015823305 -0.99974954
vn -0.015823305 0.015823305 -0.99974954
vn -0.015823305 0.015823305 -0.99974954
vn -0.015823305 0.015823305 -0.99974954
vn -0.015823305 0.015823305 -0.99974954
vn -0.015823305 0.015823305 -0.99974954
vn -0.015823305 0.015823305 -0.99974954
vn -0.015823305 0.015823305 0.99974954
vn -0.015823305 0.015823305 0.99974954
vn -0.015823305 0.015823305 0.99974954
vn -0.015823305 0.015823305 0.99974954
vn -0.015823305 0.015823305 0.99974954
vn -0.015823305 0.015823305 0.99974954
vn -0.015823305 0.015823305 0.99974954
vn -0.015823305 0.015823305 0.99974954
vn -0.015823305 0.015823305 0.99974954
vn -0.015823305 0.015823305 0.99974954
vn -0.015823305 0.015823305 0.99974954
vn -0.015823305 0.015823305 0.99974954
vn -0.015823305 0.015823305 0.99974954
vn -0.015823305 0.015823305 0.99974954
vn -0.015823305 0.015823305 0.99974954
vn -0.015823305 0.015823305 0.99974954
vn -0.015823305 0.015823305 0.99974954
vn -0.015823305 0.015823305 0.99974954
vn -0.015823305 0.015823305 0.99974954
vn -0.015823305 0.015823305 0.99974954
vn -0.015823305 0.015823305 0.99974954
vn -0.015823305 0.015823305 0.99974954
vn -0.015823305 0.015823305 0.99974954
vn -0.015823305 0.015823305 0.99974954
vn -0.015823305 0.015823305 0.99974954
vn -0.015823305 0.015823305 0.99974954
vn -0.015823305 0.015823305 0.99974954
vn -0.015823305 0.015823305 0.99974954
vn 0.4905212 -0.87027955 -0.044748385
vn 0.70710677 -0.70710677 -0
vn 0.70710677 -0.70710677 -0
vn 0.4905212 -0.87027955 -0.044748385
vn 0.26845825 -0.9632913 -0
vn 0.26845825 -0.9632913 -0
vn 0.07911632 -0.99686545 -0
vn 0.07911632 -0.99686545 -0
vn -0.07911626 -0.99686545 -0
vn -0.07911626 -0.99686545 -0
vn -0.2684582 -0.9632913 -0
vn -0.2684582 -0.9632913 -0
vn -0.49052125 -0.87027955 -0.044748385
vn -0.49052125 -0.87027955 -0.044748385
vn -0.68040043 -0.7120469 -0.17333332
vn -0.68040043 -0.7120469 -0.17333332
g Cube_0
f 3/3/3 2/2/2 1/1/1
f 4/4/4 3/3/3 1/1/1
f 4/4/4 1/1/1 5/5/5
f 6/6/6 4/4/4 5/5/5
f 6/6/6 5/5/5 7/7/7
f 8/8/8 6/6/6 7/7/7
f 7/7/7 9/9/9 8/8/8
f 9/9/9 10/10/10 8/8/8
f 9/9/9 11/11/11 10/10/10
f 11/11/11 12/12/12 10/10/10
f 11/11/11 13/13/13 12/12/12
f 13/13/13 14/14/14 12/12/12
f 13/13/13 15/15/15 14/14/14
f 15/15/15 16/16/16 14/14/14
f 19/19/19 18/18/18 17/17/17
f 18/18/18 20/20/20 17/17/17
f 18/18/18 21/21/21 20/20/20
f 21/21/21 22/22/22 20/20/20
f 21/21/21 23/23/23 22/22/22
f 23/23/23 24/24/24 22/22/22
f 24/24/24 23/23/23 25/25/25
f 23/23/23 26/26/26 25/25/25
f 25/25/25 26/26/26 27/27/27
f 28/28/28 25/25/25 27/27/27
f 28/28/28 27/27/27 29/29/29
f 30/30/30 28/28/28 29/29/29
f 30/30/30 29/29/29 31/31/31
f 32/32/32 30/30/30 31/31/31
f 35/35/35 34/34/34 33/33/33
f 34/34/34 36/36/36 33/33/33
f 34/34/34 37/37/37 36/36/36
f 37/37/37 38/38/38 36/36/36
f 37/37/37 39/39/39 38/38/38
f 39/39/39 40/40/40 38/38/38
f 40/40/40 39/39/39 41/41/41
f 39/39/39 42/42/42 41/41/41
f 42/42/42 43/43/43 41/41/41
f 43/43/43 44/44/44 41/41/41
f 43/43/43 45/45/45 44/44/44
f 45/45/45 46/46/46 44/44/44
f 45/45/45 47/47/47 46/46/46
f 47/47/47 48/48/48 46/46/46
f 51/51/51 50/50/50 49/49/49
f 49/49/49 52/52/52 51/51/51
f 49/49/49 53/53/53 52/52/52
f 53/53/53 54/54/54 52/52/52
f 54/54/54 55/55/55 52/52/52
f 54/54/54 56/56/56 55/55/55
f 56/56/56 57/57/57 55/55/55
f 56/56/56 58/58/58 57/57/57
f 58/58/58 59/59/59 57/57/57
f 59/59/59 60/60/60 57/57/57
f 59/59/59 61/61/61 60/60/60
f 61/61/61 62/62/62 60/60/60
f 61/61/61 63/63/63 62/62/62
f 63/63/63 64/64/64 62/62/62
f 63/63/63 65/65/65 64/64/64
f 63/63/63 66/66/66 65/65/65
f 66/66/66 67/67/67 65/65/65
f 66/66/66 68/68/68 67/67/67
f 68/68/68 69/69/69 67/67/67
f 69/69/69 70/70/70 67/67/67
f 69/69/69 71/71/71 70/70/70
f 71/71/71 72/72/72 70/70/70
f 71/71/71 73/73/73 72/72/72
f 73/73/73 74/74/74 72/72/72
f 73/73/73 75/75/75 74/74/74
f 75/75/75 76/76/76 74/74/74
f 79/79/79 78/78/78 77/77/77
f 77/77/77 80/80/80 79/79/79
f 80/80/80 81/81/81 79/79/79
f 80/80/80 82/82/82 81/81/81
f 80/80/80 83/83/83 82/82/82
f 83/83/83 84/84/84 82/82/82
f 83/83/83 85/85/85 84/84/84
f 85/85/85 86/86/86 84/84/84
f 85/85/85 87/87/87 86/86/86
f 85/85/85 88/88/88 87/87/87
f 88/88/88 89/89/89 87/87/87
f 88/88/88 90/90/90 89/89/89
f 90/90/90 91/91/91 89/89/89
f 90/90/90 92/92/92 91/91/91
f 92/92/92 93/93/93 91/91/91
f 93/93/93 94/94/94 91/91/91
f 93/93/93 95/95/95 94/94/94
f 95/95/95 96/96/96 94/94/94
f 95/95/95 97/97/97 96/96/96
f 95/95/95 98/98/98 97/97/97
f 98/98/98 99/99/99 97/97/97
f 98/98/98 100/100/100 99/99/99
f 100/100/100 101/101/101 99/99/99
f 100/100/100 102/102/102 101/101/101
f 102/102/102 103/103/103 101/101/101
f 102/102/102 104/104/104 103/103/103
f 107/107/107 106/106/106 105/105/105
f 108/108/108 107/107/107 105/105/105
f 108/108/108 105/105/105 109/109/109
f 110/110/110 108/108/108 109/109/109
f 110/110/110 109/109/109 111/111/111
f 112/112/112 110/110/110 111/111/111
f 112/112/112 111/111/111 113/113/113
f 114/114/114 112/112/112 113/113/113
f 114/114/114 113/113/113 115/115/115
f 116/116/116 114/114/114 115/115/115
f 116/116/116 115/115/115 117/117/117
f 118/118/118 116/116/116 117/117/117
f 118/118/118 117/117/117 119/119/119
f 120/120/120 118/118/118 119/119/119
