g Diamond1
v 0.17227057 -0.012856066 0.32654256
v -0.00051414967 -0.51475465 0.024169207
v -0.17227042 -0.012856066 0.32654256
v -0.17227042 0.012855947 0.32654256
v 0.17227057 0.012855947 0.32654256
v -0.00051414967 0.5147545 0.024169207
v -0.17227042 -0.012856066 -0.32654268
v -0.00051414967 -0.51475465 -0.024169385
v 0.17227057 -0.012856066 -0.32654268
v 0.17227057 0.012855947 -0.32654268
v -0.17227042 0.012855947 -0.32654268
v -0.00051414967 0.5147545 -0.024169385
v 0.021083891 -0.51475465 0.011827469
v -0.00051414967 -0.5260679 0.00051414967
v -0.00051414967 -0.51475465 0.024169207
v 0.1969541 -0.012856066 0.3121438
v 0.17227057 -0.012856066 0.32654256
v 0.36871037 -0.012856066 0.013884425
v 0.17227057 0.012855947 0.32654256
v 0.1969541 0.012855947 0.3121438
v 0.36871037 0.012855947 0.013884425
v 0.021083891 0.5147545 0.011827469
v -0.00051414967 0.5147545 0.024169207
v -0.00051414967 0.5260678 0.00051414967
v -0.00051414967 -0.51475465 0.024169207
v -0.00051414967 -0.5260679 0.00051414967
v -0.021083772 -0.51475465 0.011827469
v -0.17227042 -0.012856066 0.32654256
v -0.19695395 -0.012856066 0.3121438
v -0.36871022 -0.012856066 0.013884425
v -0.36871022 0.012855947 0.013884425
v -0.19695395 0.012855947 0.3121438
v -0.17227042 0.012855947 0.32654256
v -0.021083772 0.5147545 0.011827469
v -0.00051414967 0.5147545 0.024169207
v -0.00051414967 0.5260678 0.00051414967
v 0.021083891 -0.51475465 -0.011827588
v -0.00051414967 -0.5260679 0.00051414967
v 0.021083891 -0.51475465 0.011827469
v -0.00051414967 -0.51475465 -0.024169385
v 0.17227057 -0.012856066 -0.32654268
v 0.36871037 -0.012856066 -0.013884544
v 0.36871037 -0.012856066 0.013884425
v 0.36871037 0.012855947 0.013884425
v 0.1969541 -0.012856066 -0.31214392
v 0.36871037 0.012855947 -0.013884544
v 0.1969541 0.012855947 -0.31214392
v 0.17227057 0.012855947 -0.32654268
v -0.00051414967 0.5147545 -0.024169385
v 0.021083891 0.5147545 -0.011827588
v 0.021083891 0.5147545 0.011827469
v -0.00051414967 0.5260678 0.00051414967
v -0.00051414967 0.5147545 -0.024169385
v -0.00051414967 0.5260678 0.00051414967
v -0.021083772 0.5147545 -0.011827588
v -0.021083772 0.5147545 0.011827469
v -0.17227042 0.012855947 -0.32654268
v -0.36871022 0.012855947 -0.013884544
v -0.36871022 0.012855947 0.013884425
v -0.36871022 -0.012856066 0.013884425
v -0.19695395 0.012855947 -0.31214392
v -0.36871022 -0.012856066 -0.013884544
v -0.19695395 -0.012856066 -0.31214392
v -0.17227042 -0.012856066 -0.32654268
v -0.00051414967 -0.51475465 -0.024169385
v -0.021083772 -0.51475465 -0.011827588
v -0.021083772 -0.51475465 0.011827469
v -0.00051414967 -0.5260679 0.00051414967
vt 0.74335545 0.2705147
vt 0.6726155 0.59070605
vt 0.90345114 0.35987043
vt 0.9108975 0.34497783
vt 0.7470786 0.25934523
vt 0.9779143 0.028509576
vt 0.76197124 0.6279376
vt 0.7470786 0.9518522
vt 0.93695956 0.6875081
vt 0.9406827 0.6763387
vt 0.7694175 0.6167682
vt 0.9592985 0.35242414
vt 0.047125354 0.5274124
vt 0.035955887 0.5274124
vt 0.0434022 0.5385819
vt 0.32636204 0.6986776
vt 0.31891572 0.71357024
vt 0.37476307 0.5199661
vt 0.3375315 0.7172934
vt 0.3375315 0.70240074
vt 0.38593253 0.52368927
vt 0.6651692 0.69495445
vt 0.6651692 0.70984703
vt 0.6763387 0.70240074
vt 0.047125354 0.7582481
vt 0.035955887 0.7656944
vt 0.047125354 0.7694175
vt 0.37476307 0.75080174
vt 0.37103993 0.7656944
vt 0.3226389 0.94440585
vt 0.3375315 0.948129
vt 0.38593253 0.7694175
vt 0.38965568 0.75452495
vt 0.66144603 0.9406827
vt 0.6688923 0.9295133
vt 0.6763387 0.9406827
vt 0.047125354 0.05084851
vt 0.035955887 0.047125354
vt 0.039679043 0.062017977
vt 0.047125354 0.039679043
vt 0.37476307 0.03223273
vt 0.32636204 0.22211367
vt 0.31891572 0.23700629
vt 0.33380836 0.24072945
vt 0.37476307 0.0434022
vt 0.3375315 0.22583683
vt 0.38593253 0.047125354
vt 0.39337885 0.035955887
vt 0.6688923 0.2109442
vt 0.66144603 0.22211367
vt 0.6651692 0.23328313
vt 0.6763387 0.22583683
vt 0.6651692 0.47901145
vt 0.6763387 0.46784195
vt 0.66144603 0.4641188
vt 0.6688923 0.4566725
vt 0.33380836 0.48645774
vt 0.38593253 0.29285365
vt 0.39337885 0.2816842
vt 0.37476307 0.27423787
vt 0.3375315 0.47156513
vt 0.37476307 0.28913048
vt 0.32636204 0.46784195
vt 0.31891572 0.4827346
vt 0.039679043 0.30774626
vt 0.047125354 0.2965768
vt 0.047125354 0.2816842
vt 0.035955887 0.29285365
vn 0.26980728 -0.26980728 0.9243419
vn -0.015871048 -0.7459377 0.66582656
vn -0.26980734 -0.26980728 0.9243419
vn -0.26980734 0.26980734 0.9243419
vn 0.26980728 0.26980734 0.9243419
vn -0.015871048 0.7459378 0.66582644
vn -0.26980734 -0.26980728 -0.9243419
vn -0.015871048 -0.7459377 -0.66582656
vn 0.26980728 -0.26980728 -0.9243419
vn 0.26980728 0.26980734 -0.9243419
vn -0.26980734 0.26980734 -0.9243419
vn -0.015871048 0.7459378 -0.66582644
vn 0.5872276 -0.7459377 0.31423032
vn -0.015871048 -0.999874 -0.00034526698
vn -0.015871048 -0.7459377 0.66582656
vn 0.68245363 -0.26980728 0.6793093
vn 0.26980728 -0.26980728 0.9243419
vn 0.9363899 -0.26980728 0.22445028
vn 0.26980728 0.26980734 0.9243419
vn 0.68245363 0.26980734 0.67930925
vn 0.9363899 0.26980734 0.2244502
vn 0.5872276 0.7459378 0.31423005
vn -0.015871048 0.7459378 0.66582644
vn -0.015871048 0.999874 -0.00034526698
vn -0.015871048 -0.7459377 0.66582656
vn -0.015871048 -0.999874 -0.00034526698
vn -0.5872276 -0.7459377 0.31423032
vn -0.26980734 -0.26980728 0.9243419
vn -0.68245375 -0.26980728 0.6793091
vn -0.9363899 -0.26980728 0.22445028
vn -0.9363899 0.26980734 0.2244502
vn -0.68245375 0.26980734 0.6793091
vn -0.26980734 0.26980734 0.9243419
vn -0.5872276 0.7459378 0.31423005
vn -0.015871048 0.7459378 0.66582644
vn -0.015871048 0.999874 -0.00034526698
vn 0.5872276 -0.7459377 -0.31423032
vn -0.015871048 -0.999874 -0.00034526698
vn 0.5872276 -0.7459377 0.31423032
vn -0.015871048 -0.7459377 -0.66582656
vn 0.26980728 -0.26980728 -0.9243419
vn 0.9363899 -0.26980728 -0.22445028
vn 0.9363899 -0.26980728 0.22445028
vn 0.9363899 0.26980734 0.2244502
vn 0.68245363 -0.26980728 -0.6793093
vn 0.9363899 0.26980734 -0.2244502
vn 0.68245363 0.26980734 -0.67930925
vn 0.26980728 0.26980734 -0.9243419
vn -0.015871048 0.7459378 -0.66582644
vn 0.5872276 0.7459378 -0.31423005
vn 0.5872276 0.7459378 0.31423005
vn -0.015871048 0.999874 -0.00034526698
vn -0.015871048 0.7459378 -0.66582644
vn -0.015871048 0.999874 -0.00034526698
vn -0.5872276 0.7459378 -0.31423005
vn -0.5872276 0.7459378 0.31423005
vn -0.26980734 0.26980734 -0.9243419
vn -0.9363899 0.26980734 -0.2244502
vn -0.9363899 0.26980734 0.2244502
vn -0.9363899 -0.26980728 0.22445028
vn -0.68245375 0.26980734 -0.6793091
vn -0.9363899 -0.26980728 -0.22445028
vn -0.68245375 -0.26980728 -0.6793091
vn -0.26980734 -0.26980728 -0.9243419
vn -0.015871048 -0.7459377 -0.66582656
vn -0.5872276 -0.7459377 -0.31423032
vn -0.5872276 -0.7459377 0.31423032
vn -0.015871048 -0.999874 -0.00034526698
g Diamond1_0
f 3/3/3 2/2/2 1/1/1
f 4/4/4 3/3/3 1/1/1
f 5/5/5 4/4/4 1/1/1
f 5/5/5 6/6/6 4/4/4
f 9/9/9 8/8/8 7/7/7
f 10/10/10 9/9/9 7/7/7
f 11/11/11 10/10/10 7/7/7
f 11/11/11 12/12/12 10/10/10
f 15/15/15 14/14/14 13/13/13
f 13/13/13 16/16/16 15/15/15
f 16/16/16 17/17/17 15/15/15
f 16/16/16 13/13/13 18/18/18
f 19/19/19 17/17/17 16/16/16
f 20/20/20 16/16/16 18/18/18
f 20/20/20 19/19/19 16/16/16
f 21/21/21 20/20/20 18/18/18
f 21/21/21 22/22/22 20/20/20
f 20/20/20 22/22/22 19/19/19
f 22/22/22 23/23/23 19/19/19
f 22/22/22 24/24/24 23/23/23
f 27/27/27 26/26/26 25/25/25
f 27/27/27 25/25/25 28/28/28
f 29/29/29 27/27/27 28/28/28
f 30/30/30 27/27/27 29/29/29
f 31/31/31 30/30/30 29/29/29
f 32/32/32 29/29/29 28/28/28
f 32/32/32 31/31/31 29/29/29
f 33/33/33 32/32/32 28/28/28
f 32/32/32 34/34/34 31/31/31
f 33/33/33 35/35/35 32/32/32
f 35/35/35 34/34/34 32/32/32
f 35/35/35 36/36/36 34/34/34
f 39/39/39 38/38/38 37/37/37
f 37/37/37 38/38/38 40/40/40
f 37/37/37 40/40/40 41/41/41
f 39/39/39 37/37/37 42/42/42
f 43/43/43 39/39/39 42/42/42
f 44/44/44 43/43/43 42/42/42
f 45/45/45 37/37/37 41/41/41
f 42/42/42 37/37/37 45/45/45
f 46/46/46 44/44/44 42/42/42
f 46/46/46 42/42/42 45/45/45
f 47/47/47 45/45/45 41/41/41
f 47/47/47 46/46/46 45/45/45
f 48/48/48 47/47/47 41/41/41
f 48/48/48 49/49/49 47/47/47
f 44/44/44 46/46/46 50/50/50
f 47/47/47 50/50/50 46/46/46
f 49/49/49 50/50/50 47/47/47
f 51/51/51 44/44/44 50/50/50
f 49/49/49 52/52/52 50/50/50
f 50/50/50 52/52/52 51/51/51
f 55/55/55 54/54/54 53/53/53
f 56/56/56 54/54/54 55/55/55
f 55/55/55 53/53/53 57/57/57
f 56/56/56 55/55/55 58/58/58
f 59/59/59 56/56/56 58/58/58
f 59/59/59 58/58/58 60/60/60
f 61/61/61 55/55/55 57/57/57
f 58/58/58 55/55/55 61/61/61
f 58/58/58 62/62/62 60/60/60
f 58/58/58 61/61/61 62/62/62
f 61/61/61 57/57/57 63/63/63
f 61/61/61 63/63/63 62/62/62
f 57/57/57 64/64/64 63/63/63
f 64/64/64 65/65/65 63/63/63
f 62/62/62 66/66/66 60/60/60
f 63/63/63 66/66/66 62/62/62
f 65/65/65 66/66/66 63/63/63
f 66/66/66 67/67/67 60/60/60
f 65/65/65 68/68/68 66/66/66
f 66/66/66 68/68/68 67/67/67
