g Drumstick_01
v 0.044665515 0.12684602 -0.14954668
v 0.29267865 -0.0027130246 -0.25566176
v 0.28897697 0.1725002 -0.1828619
v 0.04589939 -0.0027130246 -0.20383811
v -0.10093421 0.07749021 -0.10019088
v -0.10093421 -0.0027130246 -0.13350606
v 0.044665515 -0.13227212 -0.14954668
v -0.2045815 -0.0027130246 -0.095255256
v -0.2045815 0.056513965 -0.07057732
v -0.2045815 -0.06317395 -0.07057732
v -0.32550335 -0.058238387 -0.06810957
v -0.32550335 -0.0027130246 -0.09155357
v -0.47974038 -0.0607062 -0.07921463
v -0.47974038 -0.0027130246 -0.10265863
v -0.55994356 -0.075512946 -0.086618006
v -0.5624114 -0.0027130246 -0.1162315
v -0.6092994 -0.048367202 -0.053302824
v -0.6117672 -0.0027130246 -0.07181126
v -0.55994356 0.0688529 -0.086618006
v -0.6092994 0.042941093 -0.053302824
v -0.10093421 -0.08291632 -0.10019088
v -0.2045815 -0.08785188 -0.011350334
v -0.10093421 -0.1162315 -0.019987583
v 0.042197704 -0.18656358 -0.019987583
v 0.28897697 -0.17916021 -0.1828619
v 0.2803397 -0.25196007 -0.006414771
v 0.4962715 -0.123634875 -0.09772307
v 0.49997318 0.012093723 -0.16928902
v 0.49750543 0.1490562 -0.11376369
v 0.29267865 -0.0027130246 -0.25566176
v 0.49997318 0.012093723 -0.16928902
v 0.28897697 0.1725002 -0.1828619
v 0.2803397 0.24653399 -0.006414771
v 0.49133593 0.2045815 0.023198783
v 0.042197704 0.17990357 -0.019987583
v 0.044665515 0.12684602 -0.14954668
v 0.038496017 0.12684602 0.10957152
v 0.2729363 0.1725002 0.17003238
v -0.10093421 0.11080539 -0.019987583
v -0.10093421 0.07749021 -0.10019088
v -0.2045815 0.056513965 -0.07057732
v -0.2045815 0.0811919 -0.011350334
v -0.10093421 0.07749021 0.060215652
v -0.2045815 0.056513965 0.047876716
v -0.32550335 0.07378852 -0.013818145
v -0.32550335 0.051578403 0.040473282
v -0.32550335 0.051578403 -0.06810957
v -0.32550335 -0.0027130246 -0.09155357
v -0.2045815 -0.0027130246 -0.095255256
v -0.47974038 -0.0027130246 -0.10265863
v -0.47974038 0.054046154 -0.07921463
v -0.5624114 -0.0027130246 -0.1162315
v -0.4772725 0.07749021 -0.021221519
v -0.55994356 0.0688529 -0.086618006
v -0.55500805 0.098466456 -0.015052021
v -0.6092994 0.042941093 -0.053302824
v -0.60189605 0.061449528 -0.007648647
v 0.28897697 -0.17916021 -0.1828619
v 0.49133593 -0.18039408 0.03800553
v 0.4962715 -0.123634875 -0.09772307
v 0.2803397 -0.25196007 -0.006414771
v 0.2729363 -0.17916021 0.17003238
v 0.48640034 -0.123634875 0.174968
v 0.58757985 -0.09031969 0.07749021
v 0.5826442 -0.059472263 0.15275788
v 0.038496017 -0.13227212 0.10957152
v 0.042197704 -0.18656358 -0.019987583
v -0.10093421 -0.1162315 -0.019987583
v 0.03726214 -0.0027130246 0.16262901
v 0.26923463 -0.0027130246 0.2428323
v -0.10093421 -0.08291632 0.060215652
v -0.10093421 -0.0027130246 0.09353083
v -0.2045815 -0.0027130246 0.07255459
v -0.2045815 -0.06317395 0.047876716
v -0.32550335 -0.0027130246 0.06268346
v -0.2045815 -0.08785188 -0.011350334
v -0.32550335 -0.058238387 0.040473282
v -0.47480476 -0.0027130246 0.060215652
v -0.47480476 -0.0607062 0.03553772
v -0.32550335 -0.08044851 -0.013818145
v -0.2045815 -0.06317395 -0.07057732
v -0.32550335 -0.058238387 -0.06810957
v -0.4772725 -0.084150195 -0.021221519
v -0.47974038 -0.0607062 -0.07921463
v -0.5488385 -0.075512946 0.056513965
v -0.55500805 -0.10512644 -0.015052021
v -0.55994356 -0.075512946 -0.086618006
v -0.60189605 -0.06810957 -0.007648647
v -0.6092994 -0.048367202 -0.053302824
v -0.5944927 -0.048367202 0.036771595
v -0.5920249 -0.0027130246 0.05528009
v -0.54637074 -0.0027130246 0.08612746
v 0.48640034 -0.123634875 0.174968
v 0.2729363 -0.17916021 0.17003238
v 0.26923463 -0.0027130246 0.2428323
v 0.48393255 0.012093723 0.2304933
v 0.5826442 -0.059472263 0.15275788
v 0.5801765 0.01579541 0.18360525
v 0.48640034 0.1490562 0.174968
v 0.5826442 0.09106308 0.15275788
v 0.49133593 0.2045815 0.023198783
v 0.5888137 0.12191045 0.06638515
v 0.2729363 0.1725002 0.17003238
v 0.2803397 0.24653399 -0.006414771
v 0.038496017 0.12684602 0.10957152
v 0.03726214 -0.0027130246 0.16262901
v -0.10093421 -0.0027130246 0.09353083
v -0.10093421 0.07749021 0.060215652
v -0.2045815 0.056513965 0.047876716
v -0.2045815 -0.0027130246 0.07255459
v -0.32550335 0.051578403 0.040473282
v -0.32550335 -0.0027130246 0.06268346
v -0.47480476 0.054046154 0.03553772
v -0.47480476 -0.0027130246 0.060215652
v -0.4772725 0.07749021 -0.021221519
v -0.32550335 0.07378852 -0.013818145
v -0.55500805 0.098466456 -0.015052021
v -0.5488385 0.0688529 0.056513965
v -0.54637074 -0.0027130246 0.08612746
v -0.47480476 -0.0607062 0.03553772
v -0.5488385 -0.075512946 0.056513965
v -0.5944927 0.042941093 0.036771595
v -0.5920249 -0.0027130246 0.05528009
v -0.10093421 0.07749021 0.060215652
v -0.10093421 0.11080539 -0.019987583
v 0.042197704 0.17990357 -0.019987583
v 0.038496017 0.12684602 0.10957152
v 0.49750543 0.1490562 -0.11376369
v 0.5888137 0.12191045 0.06638515
v 0.49133593 0.2045815 0.023198783
v 0.5937493 0.09106308 -0.008882523
v 0.6357018 -0.015052021 0.09106308
v 0.5826442 0.09106308 0.15275788
v 0.5801765 0.01579541 0.18360525
v 0.5826442 -0.059472263 0.15275788
v 0.49997318 0.012093723 -0.16928902
v 0.58757985 -0.09031969 0.07749021
v 0.5962171 0.01579541 -0.039729953
v 0.4962715 -0.123634875 -0.09772307
v 0.5925154 -0.059472263 0.002222538
v 0.49133593 -0.18039408 0.03800553
v -0.5488385 0.0688529 0.056513965
v -0.60189605 0.061449528 -0.007648647
v -0.55500805 0.098466456 -0.015052021
v -0.5944927 0.042941093 0.036771595
v -0.62657404 -0.0027130246 -0.00394696
v -0.6092994 0.042941093 -0.053302824
v -0.5920249 -0.0027130246 0.05528009
v -0.6117672 -0.0027130246 -0.07181126
v -0.5944927 -0.048367202 0.036771595
v -0.6092994 -0.048367202 -0.053302824
v -0.60189605 -0.06810957 -0.007648647
vt 0.03125 0.15653913
vt 0.03125 0.15653913
vt 0.03125 0.15653913
vt 0.03125 0.15653913
vt 0.03125 0.15653913
vt 0.03125 0.15653913
vt 0.03125 0.15653913
vt 0.03125 0.15653913
vt 0.03125 0.15653913
vt 0.03125 0.15653913
vt 0.03125 0.15653913
vt 0.03125 0.15653913
vt 0.03125 0.15653913
vt 0.03125 0.15653913
vt 0.03125 0.15653913
vt 0.03125 0.15653913
vt 0.03125 0.15653913
vt 0.03125 0.15653913
vt 0.03125 0.15653913
vt 0.03125 0.15653913
vt 0.03125 0.15653913
vt 0.03125 0.15653913
vt 0.03125 0.15653913
vt 0.03125 0.15653913
vt 0.03125 0.15653913
vt 0.03125 0.15653913
vt 0.03125 0.15653913
vt 0.03125 0.15653913
vt 0.03125 0.15653913
vt 0.03125 0.15653913
vt 0.03125 0.15653913
vt 0.03125 0.15653913
vt 0.03125 0.15653913
vt 0.03125 0.15653913
vt 0.03125 0.15653913
vt 0.03125 0.15653913
vt 0.03125 0.15653913
vt 0.03125 0.15653913
vt 0.03125 0.15653913
vt 0.03125 0.15653913
vt 0.03125 0.15653913
vt 0.03125 0.15653913
vt 0.03125 0.15653913
vt 0.03125 0.15653913
vt 0.03125 0.15653913
vt 0.03125 0.15653913
vt 0.03125 0.15653913
vt 0.03125 0.15653913
vt 0.03125 0.15653913
vt 0.03125 0.15653913
vt 0.03125 0.15653913
vt 0.03125 0.15653913
vt 0.03125 0.15653913
vt 0.03125 0.15653913
vt 0.03125 0.15653913
vt 0.03125 0.15653913
vt 0.03125 0.15653913
vt 0.03125 0.15653913
vt 0.03125 0.15653913
vt 0.03125 0.15653913
vt 0.03125 0.15653913
vt 0.03125 0.15653913
vt 0.03125 0.15653913
vt 0.03125 0.15653913
vt 0.03125 0.15653913
vt 0.03125 0.15653913
vt 0.03125 0.15653913
vt 0.03125 0.15653913
vt 0.03125 0.15653913
vt 0.03125 0.15653913
vt 0.03125 0.15653913
vt 0.03125 0.15653913
vt 0.03125 0.15653913
vt 0.03125 0.15653913
vt 0.03125 0.15653913
vt 0.03125 0.15653913
vt 0.03125 0.15653913
vt 0.03125 0.15653913
vt 0.03125 0.15653913
vt 0.03125 0.15653913
vt 0.03125 0.15653913
vt 0.03125 0.15653913
vt 0.03125 0.15653913
vt 0.03125 0.15653913
vt 0.03125 0.15653913
vt 0.03125 0.15653913
vt 0.03125 0.15653913
vt 0.03125 0.15653913
vt 0.03125 0.15653913
vt 0.03125 0.15653913
vt 0.03125 0.15653913
vt 0.03125 0.15653913
vt 0.03125 0.15653913
vt 0.03125 0.15653913
vt 0.03125 0.15653913
vt 0.03125 0.15653913
vt 0.03125 0.15653913
vt 0.03125 0.15653913
vt 0.03125 0.15653913
vt 0.03125 0.15653913
vt 0.03125 0.15653913
vt 0.03125 0.15653913
vt 0.03125 0.15653913
vt 0.03125 0.15653913
vt 0.03125 0.15653913
vt 0.03125 0.15653913
vt 0.03125 0.15653913
vt 0.03125 0.15653913
vt 0.03125 0.15653913
vt 0.03125 0.15653913
vt 0.03125 0.15653913
vt 0.03125 0.15653913
vt 0.03125 0.15653913
vt 0.03125 0.15653913
vt 0.03125 0.15653913
vt 0.03125 0.15653913
vt 0.03125 0.15653913
vt 0.03125 0.15653913
vt 0.03125 0.15653913
vt 0.03125 0.15653913
vt 0.03125 0.15653913
vt 0.03125 0.15653913
vt 0.03125 0.15653913
vt 0.03125 0.15653913
vt 0.03125 0.15653913
vt 0.03125 0.15653913
vt 0.03125 0.15653913
vt 0.03125 0.15653913
vt 0.03125 0.15653913
vt 0.03125 0.15653913
vt 0.03125 0.15653913
vt 0.03125 0.15653913
vt 0.03125 0.15653913
vt 0.03125 0.15653913
vt 0.03125 0.15653913
vt 0.03125 0.15653913
vt 0.03125 0.15653913
vt 0.03125 0.15653913
vt 0.03125 0.15653913
vt 0.03125 0.15653913
vt 0.03125 0.15653913
vt 0.03125 0.15653913
vt 0.03125 0.15653913
vt 0.03125 0.15653913
vt 0.03125 0.15653913
vt 0.03125 0.15653913
vt 0.03125 0.15653913
vt 0.03125 0.15653913
vt 0.03125 0.15653913
vt 0.03125 0.15653913
vt 0.03125 0.15653913
vt 0.03125 0.15653913
vn -0.33328295 0.6506952 -0.68228894
vn 0.11109424 -0.015870571 -0.99368316
vn 0.047611773 0.7141776 -0.6983434
vn -0.3015417 0.01587069 -0.9533209
vn -0.39676535 0.6506952 -0.64743567
vn -0.39676535 0.01587069 -0.91778284
vn -0.33328295 -0.6506951 -0.68228906
vn -0.20631802 -0.015870571 -0.97835624
vn -0.20631802 0.7141776 -0.6688671
vn -0.20631802 -0.71417755 -0.6688672
vn 0.015870571 -0.71417755 -0.69978464
vn 0.015870571 0.01587069 -0.99974805
vn 0.1428355 -0.68243635 -0.7168533
vn 0.11109424 0.01587069 -0.99368316
vn -0.23805928 -0.68243635 -0.6910922
vn -0.26980042 0.01587069 -0.9627854
vn -0.8094013 -0.46024776 -0.36474863
vn -0.84114254 0.01587069 -0.5405806
vn -0.23805928 0.68243647 -0.6910921
vn -0.8094013 0.46024787 -0.36474848
vn -0.39676535 -0.6506951 -0.6474358
vn -0.17200105 -0.9850968 -0
vn -0.3632083 -0.9317079 -0
vn -0.33328295 -0.93636614 -0.110185884
vn 0.079353034 -0.71417755 -0.695452
vn 0.015870571 -0.9998486 -0.0071345894
vn 0.5872127 -0.6189539 -0.5216104
vn 0.5872127 -0.015870571 -0.80927706
vn 0.52373016 0.61895394 -0.58532274
vn 0.11109424 -0.015870571 -0.99368316
vn 0.5872127 -0.015870571 -0.80927706
vn 0.047611773 0.7141776 -0.6983434
vn -0.04756514 0.9988681 -0
vn 0.3967653 0.90462506 0.15566258
vn -0.33328295 0.9363662 -0.11018535
vn -0.33328295 0.6506952 -0.68228894
vn -0.3650242 0.6506952 0.66584766
vn -0.111094356 0.7141776 0.6910922
vn -0.3632083 0.931708 -0
vn -0.39676535 0.6506952 -0.64743567
vn -0.20631802 0.7141776 -0.6688671
vn -0.17200103 0.9850968 -0
vn -0.33328295 0.68243647 0.6505405
vn -0.14283562 0.68243647 0.71685314
vn -0.01587069 0.9998487 0.0071178614
vn -0.047611833 0.7141776 0.6983434
vn 0.015870571 0.7141776 -0.6997846
vn 0.015870571 0.01587069 -0.99974805
vn -0.20631802 -0.015870571 -0.97835624
vn 0.11109424 0.01587069 -0.99368316
vn 0.1428355 0.68243647 -0.7168532
vn -0.26980042 0.01587069 -0.9627854
vn 0.14142132 0.98994946 -0
vn -0.23805928 0.68243647 -0.6910921
vn -0.17457676 0.96810746 0.17969662
vn -0.8094013 0.46024787 -0.36474848
vn -0.7669368 0.6417226 -0
vn 0.079353034 -0.71417755 -0.695452
vn 0.49101302 -0.87115216 -0
vn 0.5872127 -0.6189539 -0.5216104
vn 0.015870571 -0.9998486 -0.0071345894
vn -0.079353094 -0.71417755 0.695452
vn 0.33328283 -0.6506951 0.6822891
vn 0.7378054 -0.67501354 -0
vn 0.6506951 -0.49198896 0.5783967
vn -0.3650242 -0.6506951 0.6658478
vn -0.33328295 -0.93636614 -0.110185884
vn -0.3632083 -0.9317079 -0
vn -0.3650242 0.01587069 0.9308627
vn -0.14283562 -0.015870571 0.9896192
vn -0.33328295 -0.68243635 0.6505406
vn -0.33328295 0.01587069 0.94269323
vn -0.14283562 -0.015870571 0.9896192
vn -0.14283562 -0.68243635 0.71685326
vn -0.047611833 0.01587069 0.99873984
vn -0.17200105 -0.9850968 -0
vn -0.047611833 -0.71417755 0.6983434
vn 0.1745767 0.01587069 0.98451567
vn 0.1745767 -0.71417755 0.67784464
vn -0.01587069 -0.9998486 0.0071345894
vn -0.20631802 -0.71417755 -0.6688672
vn 0.015870571 -0.71417755 -0.69978464
vn 0.14142133 -0.98994946 -0
vn 0.1428355 -0.68243635 -0.7168533
vn -0.111094356 -0.68243635 0.72245324
vn -0.17457676 -0.9681074 0.17969695
vn -0.23805928 -0.68243635 -0.6910922
vn -0.7669369 -0.64172256 -0
vn -0.8094013 -0.46024776 -0.36474863
vn -0.7141776 -0.4285065 0.5534732
vn -0.68243647 0.01587069 0.7307726
vn -0.111094356 0.01587069 0.9936831
vn 0.33328283 -0.6506951 0.6822891
vn -0.079353094 -0.71417755 0.695452
vn -0.14283562 -0.015870571 0.9896192
vn 0.23805916 0.01587069 0.97112095
vn 0.6506951 -0.49198896 0.5783967
vn 0.6506951 0.01587069 0.7591732
vn 0.26980036 0.68243647 0.6793293
vn 0.68243635 0.49198902 0.54058063
vn 0.3967653 0.90462506 0.15566258
vn 0.77766 0.61895394 0.11018575
vn -0.111094356 0.7141776 0.6910922
vn -0.04756514 0.9988681 -0
vn -0.3650242 0.6506952 0.66584766
vn -0.3650242 0.01587069 0.9308627
vn -0.33328295 0.01587069 0.94269323
vn -0.33328295 0.68243647 0.6505405
vn -0.14283562 0.68243647 0.71685314
vn -0.14283562 -0.015870571 0.9896192
vn -0.047611833 0.7141776 0.6983434
vn -0.047611833 0.01587069 0.99873984
vn 0.1745767 0.7141776 0.6778446
vn 0.1745767 0.01587069 0.98451567
vn 0.14142132 0.98994946 -0
vn -0.01587069 0.9998487 0.0071178614
vn -0.17457676 0.96810746 0.17969662
vn -0.111094356 0.68243647 0.7224531
vn -0.111094356 0.01587069 0.9936831
vn 0.1745767 -0.71417755 0.67784464
vn -0.111094356 -0.68243635 0.72245324
vn -0.7141776 0.4285066 0.55347306
vn -0.68243647 0.01587069 0.7307726
vn -0.33328295 0.68243647 0.6505405
vn -0.3632083 0.931708 -0
vn -0.33328295 0.9363662 -0.11018535
vn -0.3650242 0.6506952 0.66584766
vn 0.52373016 0.61895394 -0.58532274
vn 0.77766 0.61895394 0.11018575
vn 0.3967653 0.90462506 0.15566258
vn 0.8411425 0.39676535 -0.36750045
vn 0.98994946 -0.14142133 -0
vn 0.68243635 0.49198902 0.54058063
vn 0.6506951 0.01587069 0.7591732
vn 0.6506951 -0.49198896 0.5783967
vn 0.5872127 -0.015870571 -0.80927706
vn 0.7378054 -0.67501354 -0
vn 0.8728837 -0.015870571 -0.48767015
vn 0.5872127 -0.6189539 -0.5216104
vn 0.8094013 -0.46024776 -0.36474863
vn 0.49101302 -0.87115216 -0
vn -0.111094356 0.68243647 0.7224531
vn -0.7669368 0.6417226 -0
vn -0.17457676 0.96810746 0.17969662
vn -0.7141776 0.4285066 0.55347306
vn -0.9998487 0.01587069 0.007118593
vn -0.8094013 0.46024787 -0.36474848
vn -0.68243647 0.01587069 0.7307726
vn -0.84114254 0.01587069 -0.5405806
vn -0.7141776 -0.4285065 0.5534732
vn -0.8094013 -0.46024776 -0.36474863
vn -0.7669369 -0.64172256 -0
g Drumstick_01_0
f 3/3/3 2/2/2 1/1/1
f 2/2/2 4/4/4 1/1/1
f 1/1/1 4/4/4 5/5/5
f 4/4/4 6/6/6 5/5/5
f 7/7/7 4/4/4 2/2/2
f 4/4/4 7/7/7 6/6/6
f 6/6/6 8/8/8 5/5/5
f 8/8/8 9/9/9 5/5/5
f 10/10/10 8/8/8 6/6/6
f 10/10/10 11/11/11 8/8/8
f 11/11/11 12/12/12 8/8/8
f 11/11/11 13/13/13 12/12/12
f 13/13/13 14/14/14 12/12/12
f 13/13/13 15/15/15 14/14/14
f 15/15/15 16/16/16 14/14/14
f 15/15/15 17/17/17 16/16/16
f 17/17/17 18/18/18 16/16/16
f 16/16/16 18/18/18 19/19/19
f 18/18/18 20/20/20 19/19/19
f 21/21/21 10/10/10 6/6/6
f 22/22/22 10/10/10 21/21/21
f 23/23/23 22/22/22 21/21/21
f 7/7/7 21/21/21 6/6/6
f 24/24/24 23/23/23 21/21/21
f 7/7/7 24/24/24 21/21/21
f 24/24/24 7/7/7 25/25/25
f 26/26/26 24/24/24 25/25/25
f 25/25/25 7/7/7 2/2/2
f 27/27/27 25/25/25 2/2/2
f 28/28/28 27/27/27 2/2/2
f 31/31/31 30/30/30 29/29/29
f 30/30/30 32/32/32 29/29/29
f 29/29/29 32/32/32 33/33/33
f 34/34/34 29/29/29 33/33/33
f 33/33/33 32/32/32 35/35/35
f 32/32/32 36/36/36 35/35/35
f 33/33/33 35/35/35 37/37/37
f 38/38/38 33/33/33 37/37/37
f 35/35/35 36/36/36 39/39/39
f 36/36/36 40/40/40 39/39/39
f 40/40/40 41/41/41 39/39/39
f 41/41/41 42/42/42 39/39/39
f 39/39/39 42/42/42 43/43/43
f 42/42/42 44/44/44 43/43/43
f 42/42/42 45/45/45 44/44/44
f 45/45/45 46/46/46 44/44/44
f 41/41/41 47/47/47 42/42/42
f 47/47/47 45/45/45 42/42/42
f 48/48/48 47/47/47 41/41/41
f 49/49/49 48/48/48 41/41/41
f 48/48/48 50/50/50 47/47/47
f 47/47/47 51/51/51 45/45/45
f 50/50/50 51/51/51 47/47/47
f 50/50/50 52/52/52 51/51/51
f 51/51/51 53/53/53 45/45/45
f 52/52/52 54/54/54 51/51/51
f 51/51/51 54/54/54 53/53/53
f 54/54/54 55/55/55 53/53/53
f 54/54/54 56/56/56 55/55/55
f 56/56/56 57/57/57 55/55/55
f 60/60/60 59/59/59 58/58/58
f 59/59/59 61/61/61 58/58/58
f 62/62/62 61/61/61 59/59/59
f 63/63/63 62/62/62 59/59/59
f 59/59/59 64/64/64 63/63/63
f 64/64/64 65/65/65 63/63/63
f 62/62/62 66/66/66 61/61/61
f 66/66/66 67/67/67 61/61/61
f 67/67/67 66/66/66 68/68/68
f 69/69/69 66/66/66 62/62/62
f 70/70/70 69/69/69 62/62/62
f 66/66/66 69/69/69 71/71/71
f 66/66/66 71/71/71 68/68/68
f 69/69/69 72/72/72 71/71/71
f 72/72/72 73/73/73 71/71/71
f 71/71/71 74/74/74 68/68/68
f 73/73/73 74/74/74 71/71/71
f 73/73/73 75/75/75 74/74/74
f 74/74/74 76/76/76 68/68/68
f 75/75/75 77/77/77 74/74/74
f 74/74/74 77/77/77 76/76/76
f 75/75/75 78/78/78 77/77/77
f 78/78/78 79/79/79 77/77/77
f 77/77/77 80/80/80 76/76/76
f 77/77/77 79/79/79 80/80/80
f 76/76/76 80/80/80 81/81/81
f 80/80/80 82/82/82 81/81/81
f 79/79/79 83/83/83 80/80/80
f 80/80/80 83/83/83 82/82/82
f 83/83/83 84/84/84 82/82/82
f 79/79/79 85/85/85 83/83/83
f 83/83/83 86/86/86 84/84/84
f 85/85/85 86/86/86 83/83/83
f 86/86/86 87/87/87 84/84/84
f 86/86/86 88/88/88 87/87/87
f 88/88/88 89/89/89 87/87/87
f 90/90/90 88/88/88 86/86/86
f 85/85/85 90/90/90 86/86/86
f 91/91/91 90/90/90 85/85/85
f 92/92/92 91/91/91 85/85/85
f 95/95/95 94/94/94 93/93/93
f 96/96/96 95/95/95 93/93/93
f 93/93/93 97/97/97 96/96/96
f 97/97/97 98/98/98 96/96/96
f 96/96/96 98/98/98 99/99/99
f 96/96/96 99/99/99 95/95/95
f 98/98/98 100/100/100 99/99/99
f 99/99/99 100/100/100 101/101/101
f 100/100/100 102/102/102 101/101/101
f 99/99/99 101/101/101 103/103/103
f 99/99/99 103/103/103 95/95/95
f 101/101/101 104/104/104 103/103/103
f 103/103/103 105/105/105 95/95/95
f 105/105/105 106/106/106 95/95/95
f 106/106/106 105/105/105 107/107/107
f 105/105/105 108/108/108 107/107/107
f 108/108/108 109/109/109 107/107/107
f 109/109/109 110/110/110 107/107/107
f 109/109/109 111/111/111 110/110/110
f 111/111/111 112/112/112 110/110/110
f 111/111/111 113/113/113 112/112/112
f 113/113/113 114/114/114 112/112/112
f 115/115/115 113/113/113 111/111/111
f 116/116/116 115/115/115 111/111/111
f 115/115/115 117/117/117 113/113/113
f 117/117/117 118/118/118 113/113/113
f 113/113/113 118/118/118 114/114/114
f 118/118/118 119/119/119 114/114/114
f 114/114/114 119/119/119 120/120/120
f 119/119/119 121/121/121 120/120/120
f 118/118/118 122/122/122 119/119/119
f 122/122/122 123/123/123 119/119/119
f 126/126/126 125/125/125 124/124/124
f 127/127/127 126/126/126 124/124/124
f 130/130/130 129/129/129 128/128/128
f 129/129/129 131/131/131 128/128/128
f 129/129/129 132/132/132 131/131/131
f 133/133/133 132/132/132 129/129/129
f 134/134/134 132/132/132 133/133/133
f 135/135/135 132/132/132 134/134/134
f 128/128/128 131/131/131 136/136/136
f 137/137/137 132/132/132 135/135/135
f 131/131/131 138/138/138 136/136/136
f 131/131/131 132/132/132 138/138/138
f 136/136/136 138/138/138 139/139/139
f 140/140/140 132/132/132 137/137/137
f 138/138/138 132/132/132 140/140/140
f 138/138/138 140/140/140 139/139/139
f 140/140/140 137/137/137 141/141/141
f 139/139/139 140/140/140 141/141/141
f 144/144/144 143/143/143 142/142/142
f 143/143/143 145/145/145 142/142/142
f 145/145/145 143/143/143 146/146/146
f 143/143/143 147/147/147 146/146/146
f 148/148/148 145/145/145 146/146/146
f 147/147/147 149/149/149 146/146/146
f 150/150/150 148/148/148 146/146/146
f 149/149/149 151/151/151 146/146/146
f 152/152/152 150/150/150 146/146/146
f 151/151/151 152/152/152 146/146/146
