g easterEgg
v 5.751848E-06 0.4181722 -5.751848E-06
v 5.751848E-06 0.3905643 -0.10556522
v 0.10556522 0.3905643 -5.751848E-06
v 0.110437185 0.35808447 -0.110437185
v 0.20056875 0.31586072 -5.751848E-06
v 5.751848E-06 0.31586072 -0.20056875
v 0.21356069 0.26226893 -0.11612117
v 0.27608436 0.20705321 -5.751848E-06
v 0.11612117 0.26226893 -0.21356069
v 5.751848E-06 0.20705321 -0.27608436
v 0.2915123 0.115297705 -0.11774516
v 0.32480413 0.079569876 -5.751848E-06
v 0.11774516 0.115297705 -0.2915123
v 5.751848E-06 0.079569876 -0.32480413
v 0.21924466 0.12747762 -0.21924466
v 0.32480413 -0.050349504 -0.10556522
v 0.34185606 -0.050349504 -5.751848E-06
v 0.27608436 -0.050349504 -0.20056875
v 0.20056875 -0.050349504 -0.27608436
v 0.10556522 -0.050349504 -0.32480413
v 5.751848E-06 -0.050349504 -0.34185606
v 5.751848E-06 0.4181722 -5.751848E-06
v -0.10555372 0.3905643 -5.751848E-06
v 5.751848E-06 0.3905643 -0.10556522
v -0.11042568 0.35808447 -0.110437185
v 5.751848E-06 0.31586072 -0.20056875
v -0.20055726 0.31586072 -5.751848E-06
v -0.1161097 0.26226893 -0.21356069
v 5.751848E-06 0.20705321 -0.27608436
v -0.21354923 0.26226893 -0.11612117
v -0.2760729 0.20705321 -5.751848E-06
v -0.11773369 0.115297705 -0.2915123
v 5.751848E-06 0.079569876 -0.32480413
v -0.29150084 0.115297705 -0.11774516
v -0.32479265 0.079569876 -5.751848E-06
v -0.21923319 0.12747762 -0.21924466
v -0.10555372 -0.050349504 -0.32480413
v 5.751848E-06 -0.050349504 -0.34185606
v -0.20055726 -0.050349504 -0.27608436
v -0.2760729 -0.050349504 -0.20056875
v -0.32479265 -0.050349504 -0.10556522
v -0.3418446 -0.050349504 -5.751848E-06
v 5.751848E-06 0.4181722 -5.751848E-06
v 5.751848E-06 0.3905643 0.10555372
v -0.10555372 0.3905643 -5.751848E-06
v -0.11042568 0.35808447 0.11042568
v -0.20055726 0.31586072 -5.751848E-06
v 5.751848E-06 0.31586072 0.20055726
v -0.21354923 0.26226893 0.1161097
v -0.2760729 0.20705321 -5.751848E-06
v -0.1161097 0.26226893 0.21354923
v 5.751848E-06 0.20705321 0.2760729
v -0.29150084 0.115297705 0.11773369
v -0.32479265 0.079569876 -5.751848E-06
v -0.11773369 0.115297705 0.29150084
v 5.751848E-06 0.079569876 0.32479265
v -0.21923319 0.12747762 0.21923319
v -0.32479265 -0.050349504 0.10555372
v -0.3418446 -0.050349504 -5.751848E-06
v -0.2760729 -0.050349504 0.20055726
v -0.20055726 -0.050349504 0.2760729
v -0.10555372 -0.050349504 0.32479265
v 5.751848E-06 -0.050349504 0.3418446
v 5.751848E-06 0.4181722 -5.751848E-06
v 0.10556522 0.3905643 -5.751848E-06
v 5.751848E-06 0.3905643 0.10555372
v 0.110437185 0.35808447 0.11042568
v 5.751848E-06 0.31586072 0.20055726
v 0.20056875 0.31586072 -5.751848E-06
v 0.11612117 0.26226893 0.21354923
v 5.751848E-06 0.20705321 0.2760729
v 0.21356069 0.26226893 0.1161097
v 0.27608436 0.20705321 -5.751848E-06
v 0.11774516 0.115297705 0.29150084
v 5.751848E-06 0.079569876 0.32479265
v 0.2915123 0.115297705 0.11773369
v 0.32480413 0.079569876 -5.751848E-06
v 0.21924466 0.12747762 0.21923319
v 0.10556522 -0.050349504 0.32479265
v 5.751848E-06 -0.050349504 0.3418446
v 0.20056875 -0.050349504 0.2760729
v 0.27608436 -0.050349504 0.20055726
v 0.32480413 -0.050349504 0.10555372
v 0.34185606 -0.050349504 -5.751848E-06
v 5.751848E-06 -0.4124997 -5.751848E-06
v 0.10556522 -0.3954478 -5.751848E-06
v 5.751848E-06 -0.3954478 -0.10556522
v 0.110437185 -0.37514788 -0.110437185
v 5.751848E-06 -0.34754002 -0.20056875
v 0.20056875 -0.34754002 -5.751848E-06
v 0.11612117 -0.3101882 -0.21356069
v 5.751848E-06 -0.2704004 -0.27608436
v 0.21356069 -0.3101882 -0.11612117
v 0.27608436 -0.2704004 -5.751848E-06
v 0.11774516 -0.19894476 -0.2915123
v 5.751848E-06 -0.1697129 -0.32480413
v 0.2915123 -0.19894476 -0.11774516
v 0.32480413 -0.1697129 -5.751848E-06
v 0.21924466 -0.2095007 -0.21924466
v 0.10556522 -0.050349504 -0.32480413
v 5.751848E-06 -0.050349504 -0.34185606
v 0.20056875 -0.050349504 -0.27608436
v 0.27608436 -0.050349504 -0.20056875
v 0.32480413 -0.050349504 -0.10556522
v 0.34185606 -0.050349504 -5.751848E-06
v 5.751848E-06 -0.4124997 -5.751848E-06
v 5.751848E-06 -0.3954478 -0.10556522
v -0.10555372 -0.3954478 -5.751848E-06
v -0.11042568 -0.37514788 -0.110437185
v -0.20055726 -0.34754002 -5.751848E-06
v 5.751848E-06 -0.34754002 -0.20056875
v -0.21354923 -0.3101882 -0.11612117
v -0.2760729 -0.2704004 -5.751848E-06
v -0.1161097 -0.3101882 -0.21356069
v 5.751848E-06 -0.2704004 -0.27608436
v -0.29150084 -0.19894476 -0.11774516
v -0.32479265 -0.1697129 -5.751848E-06
v -0.11773369 -0.19894476 -0.2915123
v 5.751848E-06 -0.1697129 -0.32480413
v -0.21923319 -0.2095007 -0.21924466
v -0.32479265 -0.050349504 -0.10556522
v -0.3418446 -0.050349504 -5.751848E-06
v -0.2760729 -0.050349504 -0.20056875
v -0.20055726 -0.050349504 -0.27608436
v -0.10555372 -0.050349504 -0.32480413
v 5.751848E-06 -0.050349504 -0.34185606
v 5.751848E-06 -0.4124997 -5.751848E-06
v -0.10555372 -0.3954478 -5.751848E-06
v 5.751848E-06 -0.3954478 0.10555372
v -0.11042568 -0.37514788 0.11042568
v 5.751848E-06 -0.34754002 0.20055726
v -0.20055726 -0.34754002 -5.751848E-06
v -0.1161097 -0.3101882 0.21354923
v 5.751848E-06 -0.2704004 0.2760729
v -0.21354923 -0.3101882 0.1161097
v -0.2760729 -0.2704004 -5.751848E-06
v -0.11773369 -0.19894476 0.29150084
v 5.751848E-06 -0.1697129 0.32479265
v -0.29150084 -0.19894476 0.11773369
v -0.32479265 -0.1697129 -5.751848E-06
v -0.21923319 -0.2095007 0.21923319
v -0.10555372 -0.050349504 0.32479265
v 5.751848E-06 -0.050349504 0.3418446
v -0.20055726 -0.050349504 0.2760729
v -0.2760729 -0.050349504 0.20055726
v -0.32479265 -0.050349504 0.10555372
v -0.3418446 -0.050349504 -5.751848E-06
v 5.751848E-06 -0.4124997 -5.751848E-06
v 5.751848E-06 -0.3954478 0.10555372
v 0.10556522 -0.3954478 -5.751848E-06
v 0.110437185 -0.37514788 0.11042568
v 0.20056875 -0.34754002 -5.751848E-06
v 5.751848E-06 -0.34754002 0.20055726
v 0.21356069 -0.3101882 0.1161097
v 0.27608436 -0.2704004 -5.751848E-06
v 0.11612117 -0.3101882 0.21354923
v 5.751848E-06 -0.2704004 0.2760729
v 0.2915123 -0.19894476 0.11773369
v 0.32480413 -0.1697129 -5.751848E-06
v 0.11774516 -0.19894476 0.29150084
v 5.751848E-06 -0.1697129 0.32479265
v 0.21924466 -0.2095007 0.21923319
v 0.32480413 -0.050349504 0.10555372
v 0.34185606 -0.050349504 -5.751848E-06
v 0.27608436 -0.050349504 0.20055726
v 0.20056875 -0.050349504 0.2760729
v 0.10556522 -0.050349504 0.32479265
v 5.751848E-06 -0.050349504 0.3418446
vt 0.5836663 0.05457541
vt 0.6143383 0.115919285
vt 0.6488442 0.027737463
vt 0.67951614 0.08908134
vt 0.725524 0.008567503
vt 0.65651214 0.18109715
vt 0.763864 0.077579364
vt 0.81370586 0.0047335103
vt 0.733192 0.15809318
vt 0.71785605 0.24627501
vt 0.86738175 0.08141335
vt 0.90188766 0.012401495
vt 0.80987185 0.22327107
vt 0.7868679 0.2999509
vt 0.8367098 0.1542592
vt 0.9708995 0.092915334
vt 0.9824015 0.027737463
vt 0.9517296 0.1619272
vt 0.92489165 0.22710505
vt 0.8942197 0.28844893
vt 0.8558798 0.34212482
vt 0.40730268 0.86738175
vt 0.36512876 0.81370586
vt 0.3497928 0.90572166
vt 0.3076189 0.8520458
vt 0.28078094 0.94022757
vt 0.3076189 0.76003
vt 0.22710505 0.8827177
vt 0.19643313 0.9670655
vt 0.23860702 0.7983699
vt 0.23477304 0.7101881
vt 0.12742126 0.90188766
vt 0.108251296 0.97856754
vt 0.15042523 0.75236195
vt 0.1542592 0.6718481
vt 0.13892323 0.8252078
vt 0.02390347 0.91722363
vt 0.027737463 0.9824015
vt 0.02390347 0.8443778
vt 0.03540545 0.77536595
vt 0.05457541 0.7063541
vt 0.077579364 0.6450102
vt 0.108251296 0.3996347
vt 0.1619272 0.36129478
vt 0.069911376 0.34212482
vt 0.12742126 0.2999509
vt 0.03923944 0.26927897
vt 0.21943706 0.3076189
vt 0.100583315 0.21943706
vt 0.02006948 0.18493113
vt 0.18493113 0.23477304
vt 0.27311295 0.23860702
vt 0.08908134 0.11975328
vt 0.012401495 0.09674932
vt 0.23860702 0.15042523
vt 0.31528687 0.15809318
vt 0.1619272 0.13508925
vt 0.08141335 0.016235486
vt 0.012401495 0.012401495
vt 0.15042523 0.02006948
vt 0.21943706 0.03540545
vt 0.28461492 0.0584094
vt 0.3497928 0.085247345
vt 0.28078094 0.2922829
vt 0.22327107 0.33062282
vt 0.31528687 0.3497928
vt 0.25777698 0.3919667
vt 0.3459588 0.42263865
vt 0.16576117 0.38429874
vt 0.28461492 0.47248054
vt 0.36512876 0.5069865
vt 0.20410112 0.45331058
vt 0.115919285 0.45331058
vt 0.2999509 0.57216436
vt 0.37279674 0.5951683
vt 0.15042523 0.5414924
vt 0.07374537 0.53382444
vt 0.22327107 0.5568284
vt 0.3076189 0.6756821
vt 0.37279674 0.67951614
vt 0.23477304 0.6718481
vt 0.16576117 0.65651214
vt 0.100583315 0.6335082
vt 0.03923944 0.60667026
vt 0.85971373 0.8788837
vt 0.8252078 0.8213738
vt 0.8022039 0.9133896
vt 0.76769793 0.8558798
vt 0.74086 0.9440616
vt 0.7830339 0.763864
vt 0.69868606 0.8827177
vt 0.6718481 0.96323156
vt 0.71785605 0.7983699
vt 0.733192 0.71402204
vt 0.6143383 0.8942197
vt 0.5990023 0.9708995
vt 0.6526782 0.748528
vt 0.6718481 0.6756821
vt 0.6335082 0.8213738
vt 0.5223224 0.90188766
vt 0.5223224 0.9708995
vt 0.52999043 0.8328758
vt 0.5453264 0.763864
vt 0.57216436 0.69868606
vt 0.60667026 0.6373422
vt 0.92489165 0.4034687
vt 0.86354774 0.43030664
vt 0.9478956 0.46864656
vt 0.8865517 0.4954845
vt 0.9670655 0.53382444
vt 0.8022039 0.46097857
vt 0.8980537 0.56833035
vt 0.97473353 0.60667026
vt 0.8213738 0.52999043
vt 0.74086 0.5031525
vt 0.8980537 0.6488442
vt 0.9670655 0.67951614
vt 0.76003 0.58750033
vt 0.6910181 0.5529944
vt 0.82904184 0.6181722
vt 0.8865517 0.74086
vt 0.95556355 0.75619596
vt 0.8213738 0.725524
vt 0.75619596 0.6948521
vt 0.6948521 0.65651214
vt 0.6450102 0.6143383
vt 0.6756821 0.25777698
vt 0.6411762 0.2002671
vt 0.6181722 0.2922829
vt 0.5798323 0.23477304
vt 0.5529944 0.32295486
vt 0.5990023 0.14275724
vt 0.51082045 0.26161098
vt 0.48398253 0.34212482
vt 0.52999043 0.17726317
vt 0.5453264 0.092915334
vt 0.43030664 0.27311295
vt 0.4111367 0.3497928
vt 0.46481258 0.12742126
vt 0.48398253 0.05457541
vt 0.4456426 0.2002671
vt 0.33445683 0.28078094
vt 0.33445683 0.3497928
vt 0.34212482 0.21176907
vt 0.36129478 0.14275724
vt 0.38813272 0.077579364
vt 0.41880465 0.016235486
vt 0.47631454 0.71402204
vt 0.53382444 0.67951614
vt 0.4418086 0.65651214
vt 0.49931848 0.6181722
vt 0.4111367 0.5951683
vt 0.58750033 0.6373422
vt 0.47248054 0.54916036
vt 0.3919667 0.5223224
vt 0.5568284 0.57216436
vt 0.6373422 0.5836663
vt 0.46097857 0.46864656
vt 0.38429874 0.4494766
vt 0.60667026 0.5069865
vt 0.67951614 0.5261564
vt 0.53382444 0.48398253
vt 0.4494766 0.37663075
vt 0.38429874 0.37663075
vt 0.5223224 0.38046473
vt 0.5913343 0.3996347
vt 0.65651214 0.42647263
vt 0.71402204 0.4571446
vn -0.015871048 0.999874 -0.00034526698
vn -0.015871048 0.90464795 -0.42586404
vn 0.42808628 0.9037378 -0
vn 0.4285174 0.8094218 -0.40150875
vn 0.7141957 0.68245375 -0.15550359
vn -0.015871048 0.68245375 -0.73075646
vn 0.7141957 0.5554856 -0.42586413
vn 0.87290585 0.46025944 -0.16185373
vn 0.39677536 0.5554856 -0.73075646
vn -0.015871048 0.46025944 -0.8876426
vn 0.87290585 0.30154932 -0.3835406
vn 0.96813196 0.23806524 -0.07775266
vn 0.36503333 0.30154932 -0.8808057
vn -0.015871048 0.23806524 -0.97111946
vn 0.68245363 0.3332913 -0.65051824
vn 0.9363899 -0.015870988 -0.35060233
vn 0.999874 -0.015870988 -0.00034665503
vn 0.8094218 -0.015870988 -0.58701324
vn 0.5872276 -0.015870988 -0.80926627
vn 0.30154932 -0.015870988 -0.9533185
vn -0.015871048 -0.015870988 -0.99974805
vn -0.015871048 0.999874 -0.00034526698
vn -0.42808634 0.9037378 -0
vn -0.015871048 0.90464795 -0.42586404
vn -0.42851746 0.8094218 -0.4015086
vn -0.015871048 0.68245375 -0.73075646
vn -0.7141957 0.68245375 -0.15550359
vn -0.39677536 0.5554856 -0.73075646
vn -0.015871048 0.46025944 -0.8876426
vn -0.7141957 0.5554856 -0.42586413
vn -0.87290585 0.46025944 -0.16185373
vn -0.3650334 0.30154932 -0.8808057
vn -0.015871048 0.23806524 -0.97111946
vn -0.87290585 0.30154932 -0.3835406
vn -0.968132 0.23806524 -0.07775189
vn -0.68245375 0.3332913 -0.6505181
vn -0.30154932 -0.015870988 -0.9533185
vn -0.015871048 -0.015870988 -0.99974805
vn -0.5872276 -0.015870988 -0.80926627
vn -0.8094218 -0.015870988 -0.58701324
vn -0.9363899 -0.015870988 -0.35060233
vn -0.999874 -0.015870988 -0.00034665503
vn -0.015871048 0.999874 -0.00034526698
vn -0.015871048 0.90464795 0.42586404
vn -0.42808634 0.9037378 -0
vn -0.42851746 0.8094218 0.4015086
vn -0.7141957 0.68245375 -0.15550359
vn -0.015871048 0.68245375 0.73075646
vn -0.7141957 0.5554856 0.42586413
vn -0.87290585 0.46025944 -0.16185373
vn -0.39677536 0.5554856 0.73075646
vn -0.015871048 0.46025944 0.8876426
vn -0.87290585 0.30154932 0.3835406
vn -0.968132 0.23806524 -0.07775189
vn -0.3650334 0.30154932 0.8808057
vn -0.015871048 0.23806524 0.97111946
vn -0.68245375 0.3332913 0.6505181
vn -0.9363899 -0.015870988 0.35060233
vn -0.999874 -0.015870988 -0.00034665503
vn -0.8094218 -0.015870988 0.58701324
vn -0.5872276 -0.015870988 0.80926627
vn -0.30154932 -0.015870988 0.9533185
vn -0.015871048 -0.015870988 0.99974805
vn -0.015871048 0.999874 -0.00034526698
vn 0.42808628 0.9037378 -0
vn -0.015871048 0.90464795 0.42586404
vn 0.4285174 0.8094218 0.40150875
vn -0.015871048 0.68245375 0.73075646
vn 0.7141957 0.68245375 -0.15550359
vn 0.39677536 0.5554856 0.73075646
vn -0.015871048 0.46025944 0.8876426
vn 0.7141957 0.5554856 0.42586413
vn 0.87290585 0.46025944 -0.16185373
vn 0.36503333 0.30154932 0.8808057
vn -0.015871048 0.23806524 0.97111946
vn 0.87290585 0.30154932 0.3835406
vn 0.96813196 0.23806524 -0.07775266
vn 0.68245363 0.3332913 0.65051824
vn 0.30154932 -0.015870988 0.9533185
vn -0.015871048 -0.015870988 0.99974805
vn 0.5872276 -0.015870988 0.80926627
vn 0.8094218 -0.015870988 0.58701324
vn 0.9363899 -0.015870988 0.35060233
vn 0.999874 -0.015870988 -0.00034665503
vn -0.015871048 -0.999874 -0.00034526698
vn 0.30154932 -0.9363899 -0.17956024
vn -0.015871048 -0.9363899 -0.35060233
vn 0.33329135 -0.87290585 -0.35630357
vn -0.015871048 -0.8094218 -0.58701324
vn 0.5872276 -0.8094218 -0.00042286396
vn 0.36503333 -0.68245363 -0.6332517
vn -0.015871048 -0.5872276 -0.80926627
vn 0.65071166 -0.68245363 -0.33291346
vn 0.8094218 -0.5872276 -0.00042286396
vn 0.36503333 -0.36503333 -0.8564469
vn -0.015871048 -0.26980728 -0.9627835
vn 0.87290585 -0.36503333 -0.32370675
vn 0.9632913 -0.26845825 -0
vn 0.65071166 -0.39677536 -0.647413
vn 0.30154932 -0.015870988 -0.9533185
vn -0.015871048 -0.015870988 -0.99974805
vn 0.5872276 -0.015870988 -0.80926627
vn 0.8094218 -0.015870988 -0.58701324
vn 0.9363899 -0.015870988 -0.35060233
vn 0.999874 -0.015870988 -0.00034665503
vn -0.015871048 -0.999874 -0.00034526698
vn -0.015871048 -0.9363899 -0.35060233
vn -0.30154932 -0.9363899 -0.17956024
vn -0.3332913 -0.87290585 -0.35630366
vn -0.5872276 -0.8094218 -0.00042286396
vn -0.015871048 -0.8094218 -0.58701324
vn -0.65071166 -0.68245363 -0.33291346
vn -0.8094218 -0.5872276 -0.00042286396
vn -0.3650334 -0.68245363 -0.63325167
vn -0.015871048 -0.5872276 -0.80926627
vn -0.87290585 -0.36503333 -0.32370675
vn -0.96329135 -0.26845825 -0
vn -0.3650334 -0.36503333 -0.85644686
vn -0.015871048 -0.26980728 -0.9627835
vn -0.65071166 -0.39677536 -0.647413
vn -0.9363899 -0.015870988 -0.35060233
vn -0.999874 -0.015870988 -0.00034665503
vn -0.8094218 -0.015870988 -0.58701324
vn -0.5872276 -0.015870988 -0.80926627
vn -0.30154932 -0.015870988 -0.9533185
vn -0.015871048 -0.015870988 -0.99974805
vn -0.015871048 -0.999874 -0.00034526698
vn -0.30154932 -0.9363899 -0.17956024
vn -0.015871048 -0.9363899 0.35060233
vn -0.3332913 -0.87290585 0.35630366
vn -0.015871048 -0.8094218 0.58701324
vn -0.5872276 -0.8094218 -0.00042286396
vn -0.3650334 -0.68245363 0.63325167
vn -0.015871048 -0.5872276 0.80926627
vn -0.65071166 -0.68245363 0.33291346
vn -0.8094218 -0.5872276 -0.00042286396
vn -0.3650334 -0.36503333 0.85644686
vn -0.015871048 -0.26980728 0.9627835
vn -0.87290585 -0.36503333 0.32370675
vn -0.96329135 -0.26845825 -0
vn -0.65071166 -0.39677536 0.647413
vn -0.30154932 -0.015870988 0.9533185
vn -0.015871048 -0.015870988 0.99974805
vn -0.5872276 -0.015870988 0.80926627
vn -0.8094218 -0.015870988 0.58701324
vn -0.9363899 -0.015870988 0.35060233
vn -0.999874 -0.015870988 -0.00034665503
vn -0.015871048 -0.999874 -0.00034526698
vn -0.015871048 -0.9363899 0.35060233
vn 0.30154932 -0.9363899 -0.17956024
vn 0.33329135 -0.87290585 0.35630357
vn 0.5872276 -0.8094218 -0.00042286396
vn -0.015871048 -0.8094218 0.58701324
vn 0.65071166 -0.68245363 0.33291346
vn 0.8094218 -0.5872276 -0.00042286396
vn 0.36503333 -0.68245363 0.6332517
vn -0.015871048 -0.5872276 0.80926627
vn 0.87290585 -0.36503333 0.32370675
vn 0.9632913 -0.26845825 -0
vn 0.36503333 -0.36503333 0.8564469
vn -0.015871048 -0.26980728 0.9627835
vn 0.65071166 -0.39677536 0.647413
vn 0.9363899 -0.015870988 0.35060233
vn 0.999874 -0.015870988 -0.00034665503
vn 0.8094218 -0.015870988 0.58701324
vn 0.5872276 -0.015870988 0.80926627
vn 0.30154932 -0.015870988 0.9533185
vn -0.015871048 -0.015870988 0.99974805
g easterEgg_0
f 3/3/3 2/2/2 1/1/1
f 4/4/4 2/2/2 3/3/3
f 5/5/5 4/4/4 3/3/3
f 4/4/4 6/6/6 2/2/2
f 7/7/7 4/4/4 5/5/5
f 8/8/8 7/7/7 5/5/5
f 9/9/9 6/6/6 4/4/4
f 7/7/7 9/9/9 4/4/4
f 9/9/9 10/10/10 6/6/6
f 11/11/11 7/7/7 8/8/8
f 12/12/12 11/11/11 8/8/8
f 13/13/13 10/10/10 9/9/9
f 13/13/13 14/14/14 10/10/10
f 15/15/15 9/9/9 7/7/7
f 11/11/11 15/15/15 7/7/7
f 15/15/15 13/13/13 9/9/9
f 16/16/16 11/11/11 12/12/12
f 17/17/17 16/16/16 12/12/12
f 16/16/16 18/18/18 11/11/11
f 18/18/18 15/15/15 11/11/11
f 18/18/18 19/19/19 15/15/15
f 19/19/19 13/13/13 15/15/15
f 19/19/19 20/20/20 13/13/13
f 20/20/20 14/14/14 13/13/13
f 20/20/20 21/21/21 14/14/14
f 24/24/24 23/23/23 22/22/22
f 25/25/25 23/23/23 24/24/24
f 26/26/26 25/25/25 24/24/24
f 25/25/25 27/27/27 23/23/23
f 28/28/28 25/25/25 26/26/26
f 29/29/29 28/28/28 26/26/26
f 30/30/30 27/27/27 25/25/25
f 28/28/28 30/30/30 25/25/25
f 30/30/30 31/31/31 27/27/27
f 32/32/32 28/28/28 29/29/29
f 33/33/33 32/32/32 29/29/29
f 34/34/34 31/31/31 30/30/30
f 34/34/34 35/35/35 31/31/31
f 36/36/36 30/30/30 28/28/28
f 32/32/32 36/36/36 28/28/28
f 36/36/36 34/34/34 30/30/30
f 37/37/37 32/32/32 33/33/33
f 38/38/38 37/37/37 33/33/33
f 37/37/37 39/39/39 32/32/32
f 39/39/39 36/36/36 32/32/32
f 39/39/39 40/40/40 36/36/36
f 40/40/40 34/34/34 36/36/36
f 40/40/40 41/41/41 34/34/34
f 41/41/41 35/35/35 34/34/34
f 41/41/41 42/42/42 35/35/35
f 45/45/45 44/44/44 43/43/43
f 46/46/46 44/44/44 45/45/45
f 47/47/47 46/46/46 45/45/45
f 46/46/46 48/48/48 44/44/44
f 49/49/49 46/46/46 47/47/47
f 50/50/50 49/49/49 47/47/47
f 51/51/51 48/48/48 46/46/46
f 49/49/49 51/51/51 46/46/46
f 51/51/51 52/52/52 48/48/48
f 53/53/53 49/49/49 50/50/50
f 54/54/54 53/53/53 50/50/50
f 55/55/55 52/52/52 51/51/51
f 55/55/55 56/56/56 52/52/52
f 57/57/57 51/51/51 49/49/49
f 53/53/53 57/57/57 49/49/49
f 57/57/57 55/55/55 51/51/51
f 58/58/58 53/53/53 54/54/54
f 59/59/59 58/58/58 54/54/54
f 58/58/58 60/60/60 53/53/53
f 60/60/60 57/57/57 53/53/53
f 60/60/60 61/61/61 57/57/57
f 61/61/61 55/55/55 57/57/57
f 61/61/61 62/62/62 55/55/55
f 62/62/62 56/56/56 55/55/55
f 62/62/62 63/63/63 56/56/56
f 66/66/66 65/65/65 64/64/64
f 67/67/67 65/65/65 66/66/66
f 68/68/68 67/67/67 66/66/66
f 67/67/67 69/69/69 65/65/65
f 70/70/70 67/67/67 68/68/68
f 71/71/71 70/70/70 68/68/68
f 72/72/72 69/69/69 67/67/67
f 70/70/70 72/72/72 67/67/67
f 72/72/72 73/73/73 69/69/69
f 74/74/74 70/70/70 71/71/71
f 75/75/75 74/74/74 71/71/71
f 76/76/76 73/73/73 72/72/72
f 76/76/76 77/77/77 73/73/73
f 78/78/78 72/72/72 70/70/70
f 74/74/74 78/78/78 70/70/70
f 78/78/78 76/76/76 72/72/72
f 79/79/79 74/74/74 75/75/75
f 80/80/80 79/79/79 75/75/75
f 79/79/79 81/81/81 74/74/74
f 81/81/81 78/78/78 74/74/74
f 81/81/81 82/82/82 78/78/78
f 82/82/82 76/76/76 78/78/78
f 82/82/82 83/83/83 76/76/76
f 83/83/83 77/77/77 76/76/76
f 83/83/83 84/84/84 77/77/77
f 87/87/87 86/86/86 85/85/85
f 88/88/88 86/86/86 87/87/87
f 89/89/89 88/88/88 87/87/87
f 88/88/88 90/90/90 86/86/86
f 91/91/91 88/88/88 89/89/89
f 92/92/92 91/91/91 89/89/89
f 93/93/93 90/90/90 88/88/88
f 91/91/91 93/93/93 88/88/88
f 93/93/93 94/94/94 90/90/90
f 95/95/95 91/91/91 92/92/92
f 96/96/96 95/95/95 92/92/92
f 97/97/97 94/94/94 93/93/93
f 97/97/97 98/98/98 94/94/94
f 99/99/99 93/93/93 91/91/91
f 95/95/95 99/99/99 91/91/91
f 99/99/99 97/97/97 93/93/93
f 100/100/100 95/95/95 96/96/96
f 101/101/101 100/100/100 96/96/96
f 100/100/100 102/102/102 95/95/95
f 102/102/102 99/99/99 95/95/95
f 102/102/102 103/103/103 99/99/99
f 103/103/103 97/97/97 99/99/99
f 103/103/103 104/104/104 97/97/97
f 104/104/104 98/98/98 97/97/97
f 104/104/104 105/105/105 98/98/98
f 108/108/108 107/107/107 106/106/106
f 109/109/109 107/107/107 108/108/108
f 110/110/110 109/109/109 108/108/108
f 109/109/109 111/111/111 107/107/107
f 112/112/112 109/109/109 110/110/110
f 113/113/113 112/112/112 110/110/110
f 114/114/114 111/111/111 109/109/109
f 112/112/112 114/114/114 109/109/109
f 114/114/114 115/115/115 111/111/111
f 116/116/116 112/112/112 113/113/113
f 117/117/117 116/116/116 113/113/113
f 118/118/118 115/115/115 114/114/114
f 118/118/118 119/119/119 115/115/115
f 120/120/120 114/114/114 112/112/112
f 116/116/116 120/120/120 112/112/112
f 120/120/120 118/118/118 114/114/114
f 121/121/121 116/116/116 117/117/117
f 122/122/122 121/121/121 117/117/117
f 121/121/121 123/123/123 116/116/116
f 123/123/123 120/120/120 116/116/116
f 123/123/123 124/124/124 120/120/120
f 124/124/124 118/118/118 120/120/120
f 124/124/124 125/125/125 118/118/118
f 125/125/125 119/119/119 118/118/118
f 125/125/125 126/126/126 119/119/119
f 129/129/129 128/128/128 127/127/127
f 130/130/130 128/128/128 129/129/129
f 131/131/131 130/130/130 129/129/129
f 130/130/130 132/132/132 128/128/128
f 133/133/133 130/130/130 131/131/131
f 134/134/134 133/133/133 131/131/131
f 135/135/135 132/132/132 130/130/130
f 133/133/133 135/135/135 130/130/130
f 135/135/135 136/136/136 132/132/132
f 137/137/137 133/133/133 134/134/134
f 138/138/138 137/137/137 134/134/134
f 139/139/139 136/136/136 135/135/135
f 139/139/139 140/140/140 136/136/136
f 141/141/141 135/135/135 133/133/133
f 137/137/137 141/141/141 133/133/133
f 141/141/141 139/139/139 135/135/135
f 142/142/142 137/137/137 138/138/138
f 143/143/143 142/142/142 138/138/138
f 142/142/142 144/144/144 137/137/137
f 144/144/144 141/141/141 137/137/137
f 144/144/144 145/145/145 141/141/141
f 145/145/145 139/139/139 141/141/141
f 145/145/145 146/146/146 139/139/139
f 146/146/146 140/140/140 139/139/139
f 146/146/146 147/147/147 140/140/140
f 150/150/150 149/149/149 148/148/148
f 151/151/151 149/149/149 150/150/150
f 152/152/152 151/151/151 150/150/150
f 151/151/151 153/153/153 149/149/149
f 154/154/154 151/151/151 152/152/152
f 155/155/155 154/154/154 152/152/152
f 156/156/156 153/153/153 151/151/151
f 154/154/154 156/156/156 151/151/151
f 156/156/156 157/157/157 153/153/153
f 158/158/158 154/154/154 155/155/155
f 159/159/159 158/158/158 155/155/155
f 160/160/160 157/157/157 156/156/156
f 160/160/160 161/161/161 157/157/157
f 162/162/162 156/156/156 154/154/154
f 158/158/158 162/162/162 154/154/154
f 162/162/162 160/160/160 156/156/156
f 163/163/163 158/158/158 159/159/159
f 164/164/164 163/163/163 159/159/159
f 163/163/163 165/165/165 158/158/158
f 165/165/165 162/162/162 158/158/158
f 165/165/165 166/166/166 162/162/162
f 166/166/166 160/160/160 162/162/162
f 166/166/166 167/167/167 160/160/160
f 167/167/167 161/161/161 160/160/160
f 167/167/167 168/168/168 161/161/161
