g EighthNote3
v -0.17215475 0.4017776 0.06981352
v -0.19021502 0.2977163 0.06981352
v -0.20311514 0.35791704 0.06981352
v -0.12571421 0.30803642 0.06981352
v -0.0663735 0.42241785 0.06981352
v -0.14893451 0.21343526 0.06981352
v -0.04659322 0.3389968 0.06981352
v 0.09616852 0.42499784 0.06981352
v -0.07927361 0.21859536 0.06981352
v -0.113674074 0.1007739 0.06981352
v 0.09186846 0.34501687 0.06981352
v 0.2518304 0.37941733 0.06981352
v -0.044013202 0.10851398 0.06981352
v -0.10679397 -0.026507646 0.06981352
v -0.013912827 0.23321554 0.06981352
v 0.08412835 0.24697569 0.06981352
v 0.0084474385 0.113674074 0.06981352
v -0.03627312 -0.030807704 0.06981352
v -0.11453405 -0.0703682 0.06981352
v 0.018767565 -0.03510776 0.06981352
v 0.21742998 0.31061646 0.06981352
v 0.18130955 0.23579553 0.06981352
v 0.25785047 0.1798949 0.06981352
v -0.041433185 -0.11852878 0.06981352
v 0.0067273974 -0.17012942 0.06981352
v -0.13001427 -0.09702852 0.06981352
v 0.31031114 0.22461542 0.06981352
v 0.36277175 0.26847598 0.06981352
v 0.39459217 0.113674074 0.06981352
v -0.061213404 -0.16840938 0.06981352
v -0.019932926 -0.28107077 0.06981352
v 0.3498716 0.10851398 0.06981352
v 0.30429107 0.10335395 0.06981352
v 0.37051186 0.015632868 0.06981352
v 0.3240713 0.022512943 0.06981352
v 0.34557155 0.007892758 0.06981352
v -0.22805545 -0.26301056 0.06981352
v -0.22633544 -0.0703682 0.06981352
v -0.060353428 -0.36277175 0.06981352
v -0.3226566 -0.09530848 0.06981352
v -0.13431433 -0.42985258 0.06981352
v -0.39317748 -0.16496935 0.06981352
v -0.2306355 -0.4547929 0.06981352
v -0.42069784 -0.2604305 0.06981352
v -0.32609668 -0.42813256 0.06981352
v -0.39575753 -0.35675168 0.06981352
v -0.19021502 0.2977163 -0.0703682
v -0.17215475 0.4017776 -0.0703682
v -0.20311514 0.35791704 -0.0703682
v -0.12571421 0.30803642 -0.0703682
v -0.14893451 0.21343526 -0.0703682
v -0.0663735 0.42241785 -0.0703682
v -0.07927361 0.21859536 -0.0703682
v -0.113674074 0.1007739 -0.0703682
v -0.04659322 0.3389968 -0.0703682
v 0.09616852 0.42499784 -0.0703682
v -0.044013202 0.10851398 -0.0703682
v -0.10679397 -0.026507646 -0.0703682
v 0.09186846 0.34501687 -0.0703682
v 0.2518304 0.37941733 -0.0703682
v -0.013912827 0.23321554 -0.0703682
v 0.0084474385 0.113674074 -0.0703682
v 0.08412835 0.24697569 -0.0703682
v -0.03627312 -0.030807704 -0.0703682
v -0.11453405 -0.0703682 -0.0703682
v 0.018767565 -0.03510776 -0.0703682
v 0.21742998 0.31061646 -0.0703682
v 0.18130955 0.23579553 -0.0703682
v 0.25785047 0.1798949 -0.0703682
v -0.041433185 -0.11852878 -0.0703682
v 0.0067273974 -0.17012942 -0.0703682
v -0.13001427 -0.09702852 -0.0703682
v 0.31031114 0.22461542 -0.0703682
v 0.36277175 0.26847598 -0.0703682
v 0.39459217 0.113674074 -0.0703682
v -0.061213404 -0.16840938 -0.0703682
v -0.019932926 -0.28107077 -0.0703682
v 0.3498716 0.10851398 -0.0703682
v 0.30429107 0.10335395 -0.0703682
v 0.37051186 0.015632868 -0.0703682
v 0.3240713 0.022512943 -0.0703682
v 0.34557155 0.007892758 -0.0703682
v -0.22805545 -0.26301056 -0.0703682
v -0.22633544 -0.0703682 -0.0703682
v -0.060353428 -0.36277175 -0.0703682
v -0.3226566 -0.09530848 -0.0703682
v -0.13431433 -0.42985258 -0.0703682
v -0.39317748 -0.16496935 -0.0703682
v -0.2306355 -0.4547929 -0.0703682
v -0.42069784 -0.2604305 -0.0703682
v -0.32609668 -0.42813256 -0.0703682
v -0.39575753 -0.35675168 -0.0703682
v -0.22633544 -0.0703682 0.06981352
v -0.13001427 -0.09702852 -0.0703682
v -0.13001427 -0.09702852 0.06981352
v -0.22633544 -0.0703682 -0.0703682
v -0.3226566 -0.09530848 0.06981352
v -0.3226566 -0.09530848 -0.0703682
v -0.39317748 -0.16496935 0.06981352
v -0.39317748 -0.16496935 -0.0703682
v -0.42069784 -0.2604305 0.06981352
v -0.42069784 -0.2604305 -0.0703682
v -0.39575753 -0.35675168 0.06981352
v -0.39575753 -0.35675168 -0.0703682
v -0.32609668 -0.42813256 0.06981352
v -0.32609668 -0.42813256 -0.0703682
v -0.2306355 -0.4547929 0.06981352
v -0.2306355 -0.4547929 -0.0703682
v -0.13001427 -0.09702852 0.06981352
v -0.13001427 -0.09702852 -0.0703682
v -0.11453405 -0.0703682 -0.0703682
v -0.11453405 -0.0703682 0.06981352
v -0.10679397 -0.026507646 -0.0703682
v -0.10679397 -0.026507646 0.06981352
v -0.113674074 0.1007739 -0.0703682
v -0.113674074 0.1007739 0.06981352
v -0.14893451 0.21343526 -0.0703682
v -0.14893451 0.21343526 0.06981352
v -0.19021502 0.2977163 -0.0703682
v -0.19021502 0.2977163 0.06981352
v -0.20311514 0.35791704 -0.0703682
v -0.20311514 0.35791704 0.06981352
v -0.20311514 0.35791704 0.06981352
v -0.20311514 0.35791704 -0.0703682
v -0.17215475 0.4017776 -0.0703682
v -0.17215475 0.4017776 0.06981352
v -0.0663735 0.42241785 -0.0703682
v -0.0663735 0.42241785 0.06981352
v 0.09616852 0.42499784 -0.0703682
v 0.09616852 0.42499784 0.06981352
v 0.2518304 0.37941733 -0.0703682
v 0.2518304 0.37941733 0.06981352
v 0.36277175 0.26847598 -0.0703682
v 0.36277175 0.26847598 0.06981352
v 0.39459217 0.113674074 -0.0703682
v 0.39459217 0.113674074 0.06981352
v 0.37051186 0.015632868 -0.0703682
v 0.37051186 0.015632868 0.06981352
v 0.34557155 0.007892758 -0.0703682
v 0.34557155 0.007892758 0.06981352
v 0.34557155 0.007892758 0.06981352
v 0.34557155 0.007892758 -0.0703682
v 0.3240713 0.022512943 -0.0703682
v 0.3240713 0.022512943 0.06981352
v 0.30429107 0.10335395 -0.0703682
v 0.30429107 0.10335395 0.06981352
v 0.25785047 0.1798949 -0.0703682
v 0.25785047 0.1798949 0.06981352
v 0.18130955 0.23579553 -0.0703682
v 0.18130955 0.23579553 0.06981352
v 0.08412835 0.24697569 -0.0703682
v 0.08412835 0.24697569 0.06981352
v -0.013912827 0.23321554 -0.0703682
v -0.013912827 0.23321554 0.06981352
v -0.013912827 0.23321554 0.06981352
v -0.013912827 0.23321554 -0.0703682
v 0.0084474385 0.113674074 -0.0703682
v 0.0084474385 0.113674074 0.06981352
v 0.018767565 -0.03510776 -0.0703682
v 0.018767565 -0.03510776 0.06981352
v 0.0067273974 -0.17012942 -0.0703682
v 0.0067273974 -0.17012942 0.06981352
v -0.019932926 -0.28107077 -0.0703682
v -0.019932926 -0.28107077 0.06981352
v -0.060353428 -0.36277175 -0.0703682
v -0.060353428 -0.36277175 0.06981352
v -0.13431433 -0.42985258 -0.0703682
v -0.13431433 -0.42985258 0.06981352
v -0.2306355 -0.4547929 -0.0703682
v -0.2306355 -0.4547929 0.06981352
vt 0.5660246 0.93617177
vt 0.56392145 0.92145
vt 0.56181836 0.9298625
vt 0.57233393 0.92355317
vt 0.58074635 0.94037807
vt 0.57023084 0.9109345
vt 0.58284944 0.9277594
vt 0.6038805 0.94037807
vt 0.57864326 0.9109345
vt 0.574437 0.8941096
vt 0.60177743 0.9298625
vt 0.62491167 0.9340687
vt 0.5849526 0.8962127
vt 0.5765401 0.87728477
vt 0.5891588 0.9130376
vt 0.60177743 0.91514075
vt 0.5912619 0.8962127
vt 0.5849526 0.87728477
vt 0.574437 0.87097543
vt 0.593365 0.87728477
vt 0.6207054 0.92355317
vt 0.6143961 0.9130376
vt 0.62491167 0.90672827
vt 0.5849526 0.8646661
vt 0.5912619 0.8583568
vt 0.57233393 0.8667692
vt 0.6333241 0.9130376
vt 0.6396334 0.9193469
vt 0.6438396 0.89831585
vt 0.58284944 0.8583568
vt 0.5891588 0.8415319
vt 0.6375303 0.8962127
vt 0.631221 0.8962127
vt 0.6417365 0.8835941
vt 0.6354272 0.8856972
vt 0.6375303 0.8835941
vt 0.5597153 0.843635
vt 0.5597153 0.87097543
vt 0.58284944 0.83101636
vt 0.5470966 0.8667692
vt 0.57233393 0.82260394
vt 0.53658104 0.8583568
vt 0.5597153 0.8183977
vt 0.53237486 0.843635
vt 0.5470966 0.82260394
vt 0.53658104 0.83101636
vt 0.53658104 0.97192466
vt 0.53447795 0.9866464
vt 0.5386842 0.9803371
vt 0.5281686 0.97402775
vt 0.53237486 0.96140915
vt 0.5197562 0.99085265
vt 0.5218593 0.96140915
vt 0.5260655 0.94668734
vt 0.5176531 0.978234
vt 0.4987251 0.99085265
vt 0.5176531 0.94668734
vt 0.5260655 0.9277594
vt 0.4987251 0.9803371
vt 0.47559088 0.9845433
vt 0.51344687 0.96351224
vt 0.5092406 0.94879043
vt 0.4987251 0.96561533
vt 0.51554996 0.9277594
vt 0.5260655 0.92145
vt 0.5092406 0.9277594
vt 0.48190022 0.9761309
vt 0.48610646 0.96561533
vt 0.47559088 0.9572029
vt 0.51554996 0.91514075
vt 0.5092406 0.90883136
vt 0.5281686 0.9193469
vt 0.46928155 0.96351224
vt 0.46086913 0.9698216
vt 0.45666292 0.94879043
vt 0.5197562 0.90883136
vt 0.51344687 0.8941096
vt 0.46297225 0.94668734
vt 0.46928155 0.94668734
vt 0.458766 0.9340687
vt 0.46507534 0.93617177
vt 0.46297225 0.9340687
vt 0.54289037 0.8962127
vt 0.54289037 0.92145
vt 0.5176531 0.88149095
vt 0.55550903 0.9193469
vt 0.5281686 0.8730785
vt 0.56392145 0.90883136
vt 0.54289037 0.8688723
vt 0.5681277 0.8962127
vt 0.55550903 0.8730785
vt 0.56392145 0.88149095
vt 0.6207054 0.8835941
vt 0.60177743 0.89831585
vt 0.6207054 0.89831585
vt 0.60177743 0.8835941
vt 0.6207054 0.87097543
vt 0.60177743 0.87097543
vt 0.6207054 0.8562536
vt 0.60177743 0.8562536
vt 0.6207054 0.843635
vt 0.60177743 0.843635
vt 0.6207054 0.8289132
vt 0.60177743 0.8289132
vt 0.6207054 0.81419146
vt 0.60177743 0.81419146
vt 0.6207054 0.8015728
vt 0.60177743 0.8015728
vt 0.6438396 0.8015728
vt 0.62491167 0.8015728
vt 0.62491167 0.80577904
vt 0.6438396 0.80577904
vt 0.62491167 0.8120884
vt 0.6438396 0.8120884
vt 0.62491167 0.8289132
vt 0.6438396 0.8289132
vt 0.62491167 0.8457381
vt 0.6438396 0.8457381
vt 0.62491167 0.8583568
vt 0.6438396 0.8583568
vt 0.62491167 0.8667692
vt 0.6438396 0.8667692
vt 0.4545598 0.9298625
vt 0.4734878 0.9298625
vt 0.4734878 0.92145
vt 0.4545598 0.92145
vt 0.4734878 0.90672827
vt 0.4545598 0.90672827
vt 0.4734878 0.8856972
vt 0.4545598 0.8856972
vt 0.4734878 0.862563
vt 0.4545598 0.862563
vt 0.4734878 0.8415319
vt 0.4545598 0.8415319
vt 0.4734878 0.8183977
vt 0.4545598 0.8183977
vt 0.4734878 0.80577904
vt 0.4545598 0.80577904
vt 0.4734878 0.8015728
vt 0.4545598 0.8015728
vt 0.5239624 0.8015728
vt 0.50503445 0.8015728
vt 0.50503445 0.80577904
vt 0.5239624 0.80577904
vt 0.50503445 0.81629455
vt 0.5239624 0.81629455
vt 0.50503445 0.8289132
vt 0.5239624 0.8289132
vt 0.50503445 0.8415319
vt 0.5239624 0.8415319
vt 0.50503445 0.8562536
vt 0.5239624 0.8562536
vt 0.50503445 0.8688723
vt 0.5239624 0.8688723
vt 0.47979712 0.9130376
vt 0.4987251 0.9130376
vt 0.4987251 0.8962127
vt 0.47979712 0.8962127
vt 0.4987251 0.8751817
vt 0.47979712 0.8751817
vt 0.4987251 0.8583568
vt 0.47979712 0.8583568
vt 0.4987251 0.8415319
vt 0.47979712 0.8415319
vt 0.4987251 0.8289132
vt 0.47979712 0.8289132
vt 0.4987251 0.81419146
vt 0.47979712 0.81419146
vt 0.4987251 0.8015728
vt 0.47979712 0.8015728
vn -0.015871048 0.015871048 0.99974805
vn -0.015871048 0.015871048 0.99974805
vn -0.015871048 0.015871048 0.99974805
vn -0.015871048 0.015871048 0.99974805
vn -0.015871048 0.015871048 0.99974805
vn -0.015871048 0.015871048 0.99974805
vn -0.015871048 0.015871048 0.99974805
vn -0.015871048 0.015871048 0.99974805
vn -0.015871048 0.015871048 0.99974805
vn -0.015871048 0.015871048 0.99974805
vn -0.015871048 0.015871048 0.99974805
vn -0.015871048 0.015871048 0.99974805
vn -0.015871048 0.015871048 0.99974805
vn -0.015871048 0.015871048 0.99974805
vn -0.015871048 0.015871048 0.99974805
vn -0.015871048 0.015871048 0.99974805
vn -0.015871048 0.015871048 0.99974805
vn -0.015871048 0.015871048 0.99974805
vn -0.015871048 0.015871048 0.99974805
vn -0.015871048 0.015871048 0.99974805
vn -0.015871048 0.015871048 0.99974805
vn -0.015871048 0.015871048 0.99974805
vn -0.015871048 0.015871048 0.99974805
vn -0.015871048 0.015871048 0.99974805
vn -0.015871048 0.015871048 0.99974805
vn -0.015871048 0.015871048 0.99974805
vn -0.015871048 0.015871048 0.99974805
vn -0.015871048 0.015871048 0.99974805
vn -0.015871048 0.015871048 0.99974805
vn -0.015871048 0.015871048 0.99974805
vn -0.015871048 0.015871048 0.99974805
vn -0.015871048 0.015871048 0.99974805
vn -0.015871048 0.015871048 0.99974805
vn -0.015871048 0.015871048 0.99974805
vn -0.015871048 0.015871048 0.99974805
vn -0.015871048 0.015871048 0.99974805
vn -0.015871048 0.015871048 0.99974805
vn -0.015871048 0.015871048 0.99974805
vn -0.015871048 0.015871048 0.99974805
vn -0.015871048 0.015871048 0.99974805
vn -0.015871048 0.015871048 0.99974805
vn -0.015871048 0.015871048 0.99974805
vn -0.015871048 0.015871048 0.99974805
vn -0.015871048 0.015871048 0.99974805
vn -0.015871048 0.015871048 0.99974805
vn -0.015871048 0.015871048 0.99974805
vn -0.015871048 0.015871048 -0.99974805
vn -0.015871048 0.015871048 -0.99974805
vn -0.015871048 0.015871048 -0.99974805
vn -0.015871048 0.015871048 -0.99974805
vn -0.015871048 0.015871048 -0.99974805
vn -0.015871048 0.015871048 -0.99974805
vn -0.015871048 0.015871048 -0.99974805
vn -0.015871048 0.015871048 -0.99974805
vn -0.015871048 0.015871048 -0.99974805
vn -0.015871048 0.015871048 -0.99974805
vn -0.015871048 0.015871048 -0.99974805
vn -0.015871048 0.015871048 -0.99974805
vn -0.015871048 0.015871048 -0.99974805
vn -0.015871048 0.015871048 -0.99974805
vn -0.015871048 0.015871048 -0.99974805
vn -0.015871048 0.015871048 -0.99974805
vn -0.015871048 0.015871048 -0.99974805
vn -0.015871048 0.015871048 -0.99974805
vn -0.015871048 0.015871048 -0.99974805
vn -0.015871048 0.015871048 -0.99974805
vn -0.015871048 0.015871048 -0.99974805
vn -0.015871048 0.015871048 -0.99974805
vn -0.015871048 0.015871048 -0.99974805
vn -0.015871048 0.015871048 -0.99974805
vn -0.015871048 0.015871048 -0.99974805
vn -0.015871048 0.015871048 -0.99974805
vn -0.015871048 0.015871048 -0.99974805
vn -0.015871048 0.015871048 -0.99974805
vn -0.015871048 0.015871048 -0.99974805
vn -0.015871048 0.015871048 -0.99974805
vn -0.015871048 0.015871048 -0.99974805
vn -0.015871048 0.015871048 -0.99974805
vn -0.015871048 0.015871048 -0.99974805
vn -0.015871048 0.015871048 -0.99974805
vn -0.015871048 0.015871048 -0.99974805
vn -0.015871048 0.015871048 -0.99974805
vn -0.015871048 0.015871048 -0.99974805
vn -0.015871048 0.015871048 -0.99974805
vn -0.015871048 0.015871048 -0.99974805
vn -0.015871048 0.015871048 -0.99974805
vn -0.015871048 0.015871048 -0.99974805
vn -0.015871048 0.015871048 -0.99974805
vn -0.015871048 0.015871048 -0.99974805
vn -0.015871048 0.015871048 -0.99974805
vn -0.015871048 0.015871048 -0.99974805
vn -0.015871048 0.015871048 -0.99974805
vn 0.015870988 0.9998741 -0
vn 0.26845822 0.96329135 -0
vn 0.26845822 0.96329135 -0
vn 0.015870988 0.9998741 -0
vn -0.49101302 0.87115216 -0
vn -0.49101302 0.87115216 -0
vn -0.85749286 0.5144958 -0
vn -0.85749286 0.5144958 -0
vn -0.9998741 0.015871048 -0
vn -0.9998741 0.015871048 -0
vn -0.87115216 -0.49101302 -0
vn -0.87115216 -0.49101302 -0
vn -0.5144958 -0.85749286 -0
vn -0.5144958 -0.85749286 -0
vn -0.015871048 -0.9998741 -0
vn -0.015871048 -0.9998741 -0
vn -0.87115216 0.49101302 -0
vn -0.87115216 0.49101302 -0
vn -0.93639004 0.3332914 -0.10995703
vn -0.93639004 0.3332914 -0.10995703
vn -0.99886817 0.04756512 -0
vn -0.99886817 0.04756512 -0
vn -0.96813214 -0.17458117 -0.17955944
vn -0.96813214 -0.17458117 -0.17955944
vn -0.931708 -0.36320817 -0
vn -0.931708 -0.36320817 -0
vn -0.93639004 -0.33329135 -0.1099572
vn -0.93639004 -0.33329135 -0.1099572
vn -0.96813214 0.20632327 -0.14195383
vn -0.96813214 0.20632327 -0.14195383
vn -0.96813214 0.20632327 -0.14195383
vn -0.96813214 0.20632327 -0.14195383
vn -0.55106145 0.8344646 -0
vn -0.55106145 0.8344646 -0
vn -0.1104315 0.9938838 -0
vn -0.1104315 0.9938838 -0
vn 0.14142133 0.9899495 -0
vn 0.14142133 0.9899495 -0
vn 0.5144958 0.857493 -0
vn 0.5144958 0.857493 -0
vn 0.87290597 0.46025956 -0.16185267
vn 0.87290597 0.46025956 -0.16185267
vn 0.9998741 -0.015870988 -0
vn 0.9998741 -0.015870988 -0
vn 0.7141958 -0.68245375 0.1555032
vn 0.7141958 -0.68245375 0.1555032
vn -0.1414214 -0.9899495 -0
vn -0.1414214 -0.9899495 -0
vn -0.1414214 -0.9899495 -0
vn -0.1414214 -0.9899495 -0
vn -0.8094219 -0.58722764 -0
vn -0.8094219 -0.58722764 -0
vn -0.931708 -0.36320817 -0
vn -0.931708 -0.36320817 -0
vn -0.7378054 -0.6750134 -0
vn -0.7378054 -0.6750134 -0
vn -0.36320817 -0.931708 -0
vn -0.36320817 -0.931708 -0
vn 0.015870988 -0.9998741 -0
vn 0.015870988 -0.9998741 -0
vn 0.14142133 -0.9899495 -0
vn 0.14142133 -0.9899495 -0
vn 0.9681321 0.17458117 -0.17955978
vn 0.9681321 0.17458117 -0.17955978
vn 0.9938838 0.1104315 -0
vn 0.9938838 0.1104315 -0
vn 0.9998741 -0.015870988 -0
vn 0.9998741 -0.015870988 -0
vn 0.98509675 -0.172001 -0
vn 0.98509675 -0.172001 -0
vn 0.93639004 -0.33329135 -0.1099572
vn 0.93639004 -0.33329135 -0.1099572
vn 0.8094219 -0.58722764 -0
vn 0.8094219 -0.58722764 -0
vn 0.49101302 -0.87115216 -0
vn 0.49101302 -0.87115216 -0
vn -0.015871048 -0.9998741 -0
vn -0.015871048 -0.9998741 -0
g EighthNote3_0
f 3/3/3 2/2/2 1/1/1
f 2/2/2 4/4/4 1/1/1
f 1/1/1 4/4/4 5/5/5
f 4/4/4 2/2/2 6/6/6
f 4/4/4 7/7/7 5/5/5
f 8/8/8 5/5/5 7/7/7
f 9/9/9 4/4/4 6/6/6
f 7/7/7 4/4/4 9/9/9
f 9/9/9 6/6/6 10/10/10
f 11/11/11 8/8/8 7/7/7
f 12/12/12 8/8/8 11/11/11
f 13/13/13 9/9/9 10/10/10
f 13/13/13 10/10/10 14/14/14
f 15/15/15 7/7/7 9/9/9
f 11/11/11 7/7/7 15/15/15
f 15/15/15 9/9/9 13/13/13
f 16/16/16 11/11/11 15/15/15
f 17/17/17 15/15/15 13/13/13
f 18/18/18 13/13/13 14/14/14
f 17/17/17 13/13/13 18/18/18
f 14/14/14 19/19/19 18/18/18
f 20/20/20 17/17/17 18/18/18
f 21/21/21 11/11/11 16/16/16
f 21/21/21 12/12/12 11/11/11
f 22/22/22 21/21/21 16/16/16
f 21/21/21 22/22/22 23/23/23
f 19/19/19 24/24/24 18/18/18
f 18/18/18 24/24/24 20/20/20
f 24/24/24 25/25/25 20/20/20
f 24/24/24 19/19/19 26/26/26
f 12/12/12 21/21/21 27/27/27
f 27/27/27 21/21/21 23/23/23
f 28/28/28 12/12/12 27/27/27
f 29/29/29 28/28/28 27/27/27
f 25/25/25 24/24/24 30/30/30
f 30/30/30 24/24/24 26/26/26
f 31/31/31 25/25/25 30/30/30
f 32/32/32 27/27/27 23/23/23
f 32/32/32 29/29/29 27/27/27
f 33/33/33 32/32/32 23/23/23
f 34/34/34 29/29/29 32/32/32
f 33/33/33 35/35/35 32/32/32
f 36/36/36 34/34/34 32/32/32
f 35/35/35 36/36/36 32/32/32
f 30/30/30 26/26/26 37/37/37
f 31/31/31 30/30/30 37/37/37
f 26/26/26 38/38/38 37/37/37
f 39/39/39 31/31/31 37/37/37
f 38/38/38 40/40/40 37/37/37
f 41/41/41 39/39/39 37/37/37
f 40/40/40 42/42/42 37/37/37
f 43/43/43 41/41/41 37/37/37
f 42/42/42 44/44/44 37/37/37
f 45/45/45 43/43/43 37/37/37
f 44/44/44 46/46/46 37/37/37
f 46/46/46 45/45/45 37/37/37
f 49/49/49 48/48/48 47/47/47
f 48/48/48 50/50/50 47/47/47
f 47/47/47 50/50/50 51/51/51
f 48/48/48 52/52/52 50/50/50
f 50/50/50 53/53/53 51/51/51
f 51/51/51 53/53/53 54/54/54
f 52/52/52 55/55/55 50/50/50
f 50/50/50 55/55/55 53/53/53
f 55/55/55 52/52/52 56/56/56
f 53/53/53 57/57/57 54/54/54
f 54/54/54 57/57/57 58/58/58
f 59/59/59 55/55/55 56/56/56
f 59/59/59 56/56/56 60/60/60
f 55/55/55 61/61/61 53/53/53
f 53/53/53 61/61/61 57/57/57
f 61/61/61 55/55/55 59/59/59
f 61/61/61 62/62/62 57/57/57
f 63/63/63 61/61/61 59/59/59
f 57/57/57 64/64/64 58/58/58
f 57/57/57 62/62/62 64/64/64
f 58/58/58 64/64/64 65/65/65
f 62/62/62 66/66/66 64/64/64
f 63/63/63 59/59/59 67/67/67
f 67/67/67 59/59/59 60/60/60
f 68/68/68 63/63/63 67/67/67
f 69/69/69 68/68/68 67/67/67
f 64/64/64 70/70/70 65/65/65
f 64/64/64 66/66/66 70/70/70
f 66/66/66 71/71/71 70/70/70
f 65/65/65 70/70/70 72/72/72
f 73/73/73 67/67/67 60/60/60
f 73/73/73 69/69/69 67/67/67
f 74/74/74 73/73/73 60/60/60
f 73/73/73 74/74/74 75/75/75
f 70/70/70 71/71/71 76/76/76
f 70/70/70 76/76/76 72/72/72
f 71/71/71 77/77/77 76/76/76
f 69/69/69 73/73/73 78/78/78
f 78/78/78 73/73/73 75/75/75
f 79/79/79 69/69/69 78/78/78
f 78/78/78 75/75/75 80/80/80
f 81/81/81 79/79/79 78/78/78
f 82/82/82 78/78/78 80/80/80
f 82/82/82 81/81/81 78/78/78
f 72/72/72 76/76/76 83/83/83
f 76/76/76 77/77/77 83/83/83
f 84/84/84 72/72/72 83/83/83
f 77/77/77 85/85/85 83/83/83
f 86/86/86 84/84/84 83/83/83
f 85/85/85 87/87/87 83/83/83
f 88/88/88 86/86/86 83/83/83
f 87/87/87 89/89/89 83/83/83
f 90/90/90 88/88/88 83/83/83
f 89/89/89 91/91/91 83/83/83
f 92/92/92 90/90/90 83/83/83
f 91/91/91 92/92/92 83/83/83
f 95/95/95 94/94/94 93/93/93
f 94/94/94 96/96/96 93/93/93
f 93/93/93 96/96/96 97/97/97
f 96/96/96 98/98/98 97/97/97
f 97/97/97 98/98/98 99/99/99
f 98/98/98 100/100/100 99/99/99
f 99/99/99 100/100/100 101/101/101
f 100/100/100 102/102/102 101/101/101
f 101/101/101 102/102/102 103/103/103
f 102/102/102 104/104/104 103/103/103
f 103/103/103 104/104/104 105/105/105
f 104/104/104 106/106/106 105/105/105
f 105/105/105 106/106/106 107/107/107
f 106/106/106 108/108/108 107/107/107
f 111/111/111 110/110/110 109/109/109
f 112/112/112 111/111/111 109/109/109
f 113/113/113 111/111/111 112/112/112
f 114/114/114 113/113/113 112/112/112
f 115/115/115 113/113/113 114/114/114
f 116/116/116 115/115/115 114/114/114
f 117/117/117 115/115/115 116/116/116
f 118/118/118 117/117/117 116/116/116
f 119/119/119 117/117/117 118/118/118
f 120/120/120 119/119/119 118/118/118
f 121/121/121 119/119/119 120/120/120
f 122/122/122 121/121/121 120/120/120
f 125/125/125 124/124/124 123/123/123
f 126/126/126 125/125/125 123/123/123
f 127/127/127 125/125/125 126/126/126
f 128/128/128 127/127/127 126/126/126
f 129/129/129 127/127/127 128/128/128
f 130/130/130 129/129/129 128/128/128
f 131/131/131 129/129/129 130/130/130
f 132/132/132 131/131/131 130/130/130
f 133/133/133 131/131/131 132/132/132
f 134/134/134 133/133/133 132/132/132
f 135/135/135 133/133/133 134/134/134
f 136/136/136 135/135/135 134/134/134
f 137/137/137 135/135/135 136/136/136
f 138/138/138 137/137/137 136/136/136
f 139/139/139 137/137/137 138/138/138
f 140/140/140 139/139/139 138/138/138
f 143/143/143 142/142/142 141/141/141
f 144/144/144 143/143/143 141/141/141
f 145/145/145 143/143/143 144/144/144
f 146/146/146 145/145/145 144/144/144
f 147/147/147 145/145/145 146/146/146
f 148/148/148 147/147/147 146/146/146
f 149/149/149 147/147/147 148/148/148
f 150/150/150 149/149/149 148/148/148
f 151/151/151 149/149/149 150/150/150
f 152/152/152 151/151/151 150/150/150
f 153/153/153 151/151/151 152/152/152
f 154/154/154 153/153/153 152/152/152
f 157/157/157 156/156/156 155/155/155
f 158/158/158 157/157/157 155/155/155
f 159/159/159 157/157/157 158/158/158
f 160/160/160 159/159/159 158/158/158
f 161/161/161 159/159/159 160/160/160
f 162/162/162 161/161/161 160/160/160
f 163/163/163 161/161/161 162/162/162
f 164/164/164 163/163/163 162/162/162
f 165/165/165 163/163/163 164/164/164
f 166/166/166 165/165/165 164/164/164
f 167/167/167 165/165/165 166/166/166
f 168/168/168 167/167/167 166/166/166
f 169/169/169 167/167/167 168/168/168
f 170/170/170 169/169/169 168/168/168
