g FireAxe_A
v -0.09931922 0.27072495 0.035216212
v -0.33900857 0.16481572 0.00037765503
v -0.32786024 0.19965428 0.017100215
v -0.32786024 0.19965428 -0.017738402
v -0.33900857 0.16481572 0.00037765503
v -0.09931922 0.27072495 -0.034460902
v -0.4142598 0.6887877 0.017100215
v -0.43655646 0.7166586 0.00037765503
v -0.14669967 0.6246848 0.035216212
v 0.0107706785 -0.34800798 0.00037765503
v -0.028248549 -0.09438324 0.00037765503
v -0.0073453784 -0.09159613 0.04079044
v 0.030280232 -0.3494015 0.035216212
v 0.045609236 -0.08602196 0.05751294
v 0.0024093986 -0.66991633 0.04497105
v -0.022674382 -0.6629486 0.00037765503
v 0.06372529 -0.68663883 0.06448066
v 0.074873626 -0.35497567 0.050545216
v 0.09856385 -0.08044779 0.04079044
v 0.12364763 -0.7019678 0.04497105
v 0.12086052 -0.3619434 0.035216212
v 0.12086052 -0.07766068 0.00037765503
v 0.14873135 -0.7089355 0.00037765503
v 0.14037013 -0.36333695 0.00037765503
v 0.09856385 -0.08044779 -0.04003507
v 0.12364763 -0.7019678 -0.045609236
v 0.12086052 -0.3619434 -0.03585446
v 0.045609236 -0.08602196 -0.058151126
v 0.06372529 -0.68663883 -0.06511885
v 0.074873626 -0.35497567 -0.049789846
v -0.0073453784 -0.09159613 -0.041428626
v 0.0024093986 -0.66991633 -0.045609236
v 0.030280232 -0.3494015 -0.03585446
v -0.028248549 -0.09438324 0.00037765503
v -0.022674382 -0.6629486 0.00037765503
v 0.0107706785 -0.34800798 0.00037765503
v 0.14873135 -0.7089355 0.00037765503
v 0.06372529 -0.68663883 0.06448066
v 0.12364763 -0.7019678 0.04497105
v 0.0024093986 -0.66991633 0.04497105
v -0.022674382 -0.6629486 0.00037765503
v 0.0024093986 -0.66991633 -0.045609236
v 0.06372529 -0.68663883 -0.06511885
v 0.12364763 -0.7019678 -0.045609236
v 0.001015842 0.30835056 -0.041428626
v -0.022674382 0.306957 0.00037765503
v -0.03660977 0.11046755 0.00037765503
v -0.021280825 0.11046755 -0.028886735
v -0.012919545 -0.09159613 0.00037765503
v 0.058151126 0.31113768 -0.059544683
v 0.0051965117 -0.09020257 -0.03167379
v 0.016344845 0.11046755 -0.041428626
v 0.11528635 0.3139248 -0.041428626
v 0.045609236 -0.08602196 -0.04421568
v 0.055364013 0.11046755 -0.028886735
v 0.13897657 0.3139248 0.00037765503
v 0.08602196 -0.08184135 -0.03167379
v 0.070693016 0.11046755 0.00037765503
v 0.11528635 0.3139248 0.042183936
v 0.10274446 -0.07905424 0.00037765503
v 0.055364013 0.11046755 0.029642045
v 0.058151126 0.31113768 0.058906436
v 0.08602196 -0.08184135 0.031035602
v 0.016344845 0.11046755 0.04079044
v 0.001015842 0.30835056 0.042183936
v 0.045609236 -0.08602196 0.04497105
v -0.021280825 0.11046755 0.029642045
v -0.022674382 0.306957 0.00037765503
v 0.0051965117 -0.09020257 0.031035602
v -0.03660977 0.11046755 0.00037765503
v -0.012919545 -0.09159613 0.00037765503
v 0.20447308 0.46442735 0.079809606
v 0.20447308 0.46442735 -0.07905424
v 0.19611186 0.29162812 -0.066512346
v 0.19611186 0.29162812 0.06587416
v -0.4142598 0.6887877 -0.017738402
v -0.43655646 0.7166586 0.00037765503
v -0.45188546 0.53828514 0.00037765503
v -0.42819524 0.53131735 -0.017738402
v -0.14669967 0.6246848 -0.034460902
v -0.39196312 0.32089245 -0.017738402
v -0.4114728 0.30277646 0.00037765503
v -0.33900857 0.16481572 0.00037765503
v -0.32786024 0.19965428 -0.017738402
v -0.09931922 0.4504919 -0.038641512
v 0.034460902 0.6121429 -0.06093818
v -0.09931922 0.27072495 -0.034460902
v 0.042822123 0.4504919 -0.08602196
v -0.00037765503 0.29162812 -0.08044779
v 0.2114408 0.57730436 -0.042822123
v 0.08741552 0.29162812 -0.08184135
v 0.20447308 0.46442735 -0.07905424
v 0.19611186 0.29162812 -0.066512346
v 0.30062753 0.5271368 -0.019131899
v 0.2574277 0.44909835 -0.053970456
v 0.3452209 0.4449178 0.00037765503
v -0.43655646 0.7166586 0.00037765503
v -0.4142598 0.6887877 -0.017738402
v -0.14669967 0.6246848 -0.034460902
v -0.14669967 0.6246848 0.035216212
v 0.034460902 0.6121429 -0.06093818
v 0.034460902 0.6121429 0.060299993
v 0.2114408 0.57730436 -0.042822123
v 0.2114408 0.57730436 0.043577492
v 0.30062753 0.5271368 0.019887269
v 0.30062753 0.5271368 -0.019131899
v 0.3452209 0.4449178 0.00037765503
v 0.19611186 0.29162812 0.06587416
v 0.19611186 0.29162812 -0.066512346
v 0.08741552 0.29162812 -0.08184135
v 0.08741552 0.29162812 0.08120316
v -0.00037765503 0.29162812 -0.08044779
v -0.00037765503 0.29162812 0.079809606
v -0.09931922 0.27072495 -0.034460902
v -0.09931922 0.27072495 0.035216212
v -0.33900857 0.16481572 0.00037765503
v -0.4114728 0.30277646 0.00037765503
v -0.32786024 0.19965428 0.017100215
v -0.33900857 0.16481572 0.00037765503
v -0.39196312 0.32089245 0.017100215
v -0.09931922 0.4504919 0.039396882
v -0.09931922 0.27072495 0.035216212
v -0.45188546 0.53828514 0.00037765503
v -0.00037765503 0.29162812 0.079809606
v -0.42819524 0.53131735 0.017100215
v -0.43655646 0.7166586 0.00037765503
v -0.4142598 0.6887877 0.017100215
v -0.14669967 0.6246848 0.035216212
v 0.034460902 0.6121429 0.060299993
v 0.042822123 0.4504919 0.08677733
v 0.08741552 0.29162812 0.08120316
v 0.19611186 0.29162812 0.06587416
v 0.20447308 0.46442735 0.079809606
v 0.2114408 0.57730436 0.043577492
v 0.30062753 0.5271368 0.019887269
v 0.2574277 0.44909835 0.054725826
v 0.3452209 0.4449178 0.00037765503
v 0.0051965117 -0.09020257 0.031035602
v -0.028248549 -0.09438324 0.00037765503
v -0.012919545 -0.09159613 0.00037765503
v -0.0073453784 -0.09159613 0.04079044
v 0.045609236 -0.08602196 0.04497105
v 0.045609236 -0.08602196 0.05751294
v 0.08602196 -0.08184135 0.031035602
v 0.09856385 -0.08044779 0.04079044
v 0.10274446 -0.07905424 0.00037765503
v 0.12086052 -0.07766068 0.00037765503
v 0.08602196 -0.08184135 -0.03167379
v 0.09856385 -0.08044779 -0.04003507
v 0.045609236 -0.08602196 -0.04421568
v 0.045609236 -0.08602196 -0.058151126
v 0.0051965117 -0.09020257 -0.03167379
v -0.0073453784 -0.09159613 -0.041428626
v -0.012919545 -0.09159613 0.00037765503
v -0.028248549 -0.09438324 0.00037765503
v 0.20447308 0.46442735 0.079809606
v 0.2574277 0.44909835 -0.053970456
v 0.20447308 0.46442735 -0.07905424
v 0.2574277 0.44909835 0.054725826
v 0.3452209 0.4449178 0.00037765503
vt 0.15841234 0.086032405
vt 0.017271467 0.064318426
vt 0.028128456 0.086032405
vt 0.028128456 0.04622344
vt 0.017271467 0.064318426
vt 0.15841234 0.049842436
vt 0.042604446 0.40450412
vt 0.028128456 0.4189801
vt 0.19098333 0.4008851
vt 0.020890463 0.72297585
vt 0.020890463 0.93287766
vt 0.04622344 0.93287766
vt 0.04622344 0.72297585
vt 0.07517542 0.93287766
vt 0.04622344 0.47326505
vt 0.020890463 0.47326505
vt 0.07517542 0.47326505
vt 0.07517542 0.72297585
vt 0.10412739 0.93287766
vt 0.10412739 0.47326505
vt 0.10412739 0.72297585
vt 0.12946036 0.93287766
vt 0.12946036 0.47326505
vt 0.12946036 0.72297585
vt 0.15479335 0.93287766
vt 0.15479335 0.47326505
vt 0.15479335 0.72297585
vt 0.18374532 0.93287766
vt 0.18374532 0.47326505
vt 0.18374532 0.72297585
vt 0.2126973 0.93287766
vt 0.2126973 0.47326505
vt 0.2126973 0.72297585
vt 0.23803025 0.93287766
vt 0.23803025 0.47326505
vt 0.23803025 0.72297585
vt 0.2923152 0.83878374
vt 0.32488617 0.8858307
vt 0.3140292 0.85325974
vt 0.3140292 0.91840166
vt 0.28869623 0.93287766
vt 0.26698226 0.91840166
vt 0.25612524 0.8858307
vt 0.26698226 0.85325974
vt 0.45878905 0.82430774
vt 0.48412204 0.82430774
vt 0.48412204 0.6578339
vt 0.45878905 0.6578339
vt 0.48412204 0.47326505
vt 0.4262181 0.82430774
vt 0.45878905 0.47326505
vt 0.4262181 0.6578339
vt 0.39726612 0.82430774
vt 0.4262181 0.47326505
vt 0.39726612 0.6578339
vt 0.37193313 0.82430774
vt 0.39726612 0.47326505
vt 0.37193313 0.6578339
vt 0.34660017 0.82430774
vt 0.37193313 0.47326505
vt 0.34660017 0.6578339
vt 0.3176482 0.82430774
vt 0.34660017 0.47326505
vt 0.3176482 0.6578339
vt 0.2850772 0.82430774
vt 0.3176482 0.47326505
vt 0.2850772 0.6578339
vt 0.25974426 0.82430774
vt 0.2850772 0.47326505
vt 0.25974426 0.6578339
vt 0.25974426 0.47326505
vt 0.4081231 0.111365385
vt 0.4081231 0.028128456
vt 0.3140292 0.031747453
vt 0.3140292 0.10412739
vt 0.057080433 0.37555215
vt 0.038985446 0.39002812
vt 0.03536645 0.2923152
vt 0.049842436 0.28869623
vt 0.1982213 0.34298116
vt 0.07155642 0.18012631
vt 0.057080433 0.16926932
vt 0.0896514 0.0968894
vt 0.10050839 0.11498438
vt 0.22717327 0.24888727
vt 0.29955322 0.3357432
vt 0.22355428 0.15117434
vt 0.3067912 0.24888727
vt 0.28145823 0.16203132
vt 0.39364713 0.3212672
vt 0.3285052 0.16203132
vt 0.39002812 0.25612524
vt 0.39002812 0.16203132
vt 0.44431308 0.29955322
vt 0.4225991 0.25250626
vt 0.48050305 0.25974426
vt 0.028128456 0.4189801
vt 0.042604446 0.43707508
vt 0.19098333 0.43707508
vt 0.19098333 0.4008851
vt 0.28869623 0.44793206
vt 0.28869623 0.38640913
vt 0.38279012 0.43707508
vt 0.38279012 0.39364713
vt 0.43707508 0.40450412
vt 0.43707508 0.4262181
vt 0.48774105 0.4153611
vt 0.3140292 0.10412739
vt 0.3140292 0.031747453
vt 0.25612524 0.02450946
vt 0.25612524 0.111365385
vt 0.20907828 0.02450946
vt 0.20907828 0.107746385
vt 0.15841234 0.049842436
vt 0.15841234 0.086032405
vt 0.017271467 0.064318426
vt 0.057080433 0.16926932
vt 0.10050839 0.11498438
vt 0.0896514 0.0968894
vt 0.07155642 0.18012631
vt 0.22717327 0.24888727
vt 0.22355428 0.15117434
vt 0.03536645 0.2923152
vt 0.28145823 0.16203132
vt 0.049842436 0.28869623
vt 0.038985446 0.39002812
vt 0.057080433 0.37555215
vt 0.1982213 0.34298116
vt 0.29955322 0.3357432
vt 0.3067912 0.24888727
vt 0.3285052 0.16203132
vt 0.39002812 0.16203132
vt 0.39002812 0.25612524
vt 0.39364713 0.3212672
vt 0.44431308 0.29955322
vt 0.4225991 0.25250626
vt 0.48050305 0.25974426
vt 0.04622344 0.94011563
vt 0.020890463 0.93287766
vt 0.020890463 0.94011563
vt 0.04622344 0.93287766
vt 0.07517542 0.94011563
vt 0.07517542 0.93287766
vt 0.10412739 0.94011563
vt 0.10412739 0.93287766
vt 0.12946036 0.94011563
vt 0.12946036 0.93287766
vt 0.15479335 0.94011563
vt 0.15479335 0.93287766
vt 0.18374532 0.94011563
vt 0.18374532 0.93287766
vt 0.2126973 0.94011563
vt 0.2126973 0.93287766
vt 0.23803025 0.94011563
vt 0.23803025 0.93287766
vt 0.4081231 0.111365385
vt 0.43707508 0.038985446
vt 0.4081231 0.028128456
vt 0.43707508 0.0968894
vt 0.48412204 0.06793742
vn -0.17450202 -0.015937686 0.9845278
vn -0.23798192 -0.3968171 0.8865105
vn -0.17450202 -0.30159724 0.93733037
vn -0.17450202 -0.30159724 -0.93733037
vn -0.23798192 -0.3968171 -0.8865105
vn -0.17450202 -0.015937686 -0.9845278
vn -0.20624197 0.26972187 0.9405926
vn -0.33320177 0.30146182 0.89336294
vn -0.079282165 0.015802264 0.996727
vn -0.9997407 -0.015937686 0.01626318
vn -0.98993886 -0.14149646 -0
vn -0.65060127 -0.11115754 0.7512403
vn -0.6188613 -0.015937686 0.7853386
vn 0.015937686 -0.015937686 0.9997459
vn -0.58712137 0.079282165 0.8056071
vn -0.9938902 0.11037242 -0
vn 0.047677636 0.047542214 0.99773073
vn 0.015937686 0.015802264 0.9997481
vn 0.6507367 0.047542214 0.75781363
vn 0.68247664 0.015802264 0.7307366
vn 0.6507367 0.047542214 0.75781363
vn 0.9968711 0.07904389 -0
vn 0.9998752 0.01580225 -0
vn 0.9988715 0.047494445 -0
vn 0.6507367 0.047542214 -0.75781363
vn 0.68247664 0.015802264 -0.7307366
vn 0.6507367 0.047542214 -0.75781363
vn 0.015937686 -0.015937686 -0.9997459
vn 0.047677636 0.047542214 -0.99773073
vn 0.015937686 0.015802264 -0.9997481
vn -0.65060127 -0.11115754 -0.7512403
vn -0.58712137 0.079282165 -0.8056071
vn -0.6188613 -0.015937686 -0.7853386
vn -0.98993886 -0.14149646 -0
vn -0.9938902 0.11037242 -0
vn -0.9997407 -0.015937686 0.01626318
vn -0.26837832 -0.96331364 -0
vn -0.26837832 -0.96331364 -0
vn -0.26837832 -0.96331364 -0
vn -0.26837832 -0.96331364 -0
vn -0.26837832 -0.96331364 -0
vn -0.26837832 -0.96331364 -0
vn -0.26837832 -0.96331364 -0
vn -0.26837832 -0.96331364 -0
vn -0.58712137 0.015802264 -0.80934465
vn -0.99687034 0.079054534 -0
vn -0.9997407 -0.015937686 0.01626318
vn -0.65060127 -0.015937686 -0.75925225
vn -0.99387556 -0.11050541 -0
vn 0.047677636 -0.11115754 -0.9926585
vn -0.6188613 -0.07941759 -0.78147525
vn -0.047542214 -0.047677636 -0.99773073
vn 0.6507367 -0.23811734 -0.7210006
vn 0.015937686 0.015802264 -0.9997481
vn 0.5872568 -0.047677636 -0.8079952
vn 0.93639624 -0.30159724 -0.17944694
vn 0.6507367 0.111022115 -0.75114304
vn 0.99686044 -0.07917806 -0
vn 0.6507367 -0.23811734 0.7210006
vn 0.9851101 0.171925 -0
vn 0.5872568 -0.047677636 0.8079952
vn 0.047677636 -0.11115754 0.9926585
vn 0.6507367 0.111022115 0.75114304
vn -0.047542214 -0.047677636 0.99773073
vn -0.58712137 0.015802264 0.80934465
vn 0.015937686 0.015802264 0.9997481
vn -0.65060127 -0.015937686 0.75925225
vn -0.99687034 0.079054534 -0
vn -0.6188613 -0.07941759 0.78147525
vn -0.9997407 -0.015937686 0.01626318
vn -0.99387556 -0.11050541 -0
vn 0.99886507 -0.047629423 -0
vn 0.99886507 -0.047629423 -0
vn 0.99886507 -0.047629423 -0
vn 0.99886507 -0.047629423 -0
vn -0.20624197 0.26972187 -0.9405926
vn -0.26972187 0.46016157 -0.84587324
vn -0.58712137 -0.015937686 -0.80934197
vn -0.36494172 -0.015937686 -0.9308939
vn 0.047677636 0.6823412 -0.72947747
vn -0.36494172 -0.11115754 -0.9243709
vn -0.5553814 -0.20637739 -0.80558044
vn -0.23798192 -0.3968171 -0.8865105
vn -0.17450202 -0.30159724 -0.93733037
vn -0.17450202 0.015802264 -0.98453003
vn -0.079282165 0.14276206 -0.98657656
vn -0.17450202 -0.015937686 -0.9845278
vn -0.111022115 0.079282165 -0.99065053
vn -0.23798192 -0.015937686 -0.97113883
vn 0.20637739 0.23798192 -0.9490906
vn 0.047677636 -0.047677636 -0.9977243
vn 0.20637739 0.14276206 -0.9680017
vn 0.07941759 -0.047677636 -0.9957006
vn 0.460297 0.17450202 -0.8704457
vn 0.49203694 0.111022115 -0.86346614
vn 0.5237769 0.079282165 -0.84815806
vn -0.26972187 0.46016157 -0.84587324
vn -0.20624197 0.26972187 -0.9405926
vn 0.047677636 0.6823412 -0.72947747
vn 0.17207709 0.9850836 -0
vn 0.14149646 0.98993886 -0
vn 0.14149646 0.98993886 -0
vn 0.3333372 0.9362608 -0.1109143
vn 0.3333372 0.9362608 -0.1109143
vn 0.6750833 0.73774153 -0
vn 0.6750833 0.73774153 -0
vn 0.8711974 0.49093288 -0
vn -0.01580225 -0.9998752 -0
vn -0.01580225 -0.9998752 -0
vn -0.01580225 -0.9998752 -0
vn -0.01580225 -0.9998752 -0
vn 0.07917806 -0.99686044 -0
vn 0.07917806 -0.99686044 -0
vn 0.26850334 -0.9632788 -0
vn 0.26850334 -0.9632788 -0
vn 0.3968171 -0.9046563 -0.15534866
vn -0.5553814 -0.20637739 0.80558044
vn -0.17450202 -0.30159724 0.93733037
vn -0.23798192 -0.3968171 0.8865105
vn -0.36494172 -0.11115754 0.9243709
vn -0.17450202 0.015802264 0.98453003
vn -0.17450202 -0.015937686 0.9845278
vn -0.58712137 -0.015937686 0.80934197
vn -0.23798192 -0.015937686 0.97113883
vn -0.36494172 -0.015937686 0.9308939
vn -0.33320177 0.30146182 0.89336294
vn -0.20624197 0.26972187 0.9405926
vn -0.079282165 0.015802264 0.996727
vn -0.079282165 0.14276206 0.98657656
vn -0.111022115 0.079282165 0.99065053
vn 0.047677636 -0.047677636 0.9977243
vn 0.07941759 -0.047677636 0.9957006
vn 0.20637739 0.14276206 0.9680017
vn 0.20637739 0.23798192 0.9490906
vn 0.460297 0.17450202 0.8704457
vn 0.49203694 0.111022115 0.86346614
vn 0.5237769 0.079282165 0.84815806
vn -0.11037242 0.9938902 -0
vn -0.11037242 0.9938902 -0
vn -0.11037242 0.9938902 -0
vn -0.11037242 0.9938902 -0
vn -0.11037242 0.9938902 -0
vn -0.11037242 0.9938902 -0
vn -0.11037242 0.9938902 -0
vn -0.11037242 0.9938902 -0
vn -0.11037242 0.9938902 -0
vn -0.11037242 0.9938902 -0
vn -0.11037242 0.9938902 -0
vn -0.11037242 0.9938902 -0
vn -0.11037242 0.9938902 -0
vn -0.11037242 0.9938902 -0
vn -0.11037242 0.9938902 -0
vn -0.11037242 0.9938902 -0
vn -0.11037242 0.9938902 -0
vn -0.11037242 0.9938902 -0
vn -0.26837832 -0.96331364 -0
vn -0.20624197 -0.9681362 -0.14204432
vn -0.26837832 -0.96331364 -0
vn -0.20624197 -0.9681362 -0.14204432
vn -0.047494445 -0.9988715 -0
g FireAxe_A_0
f 3/3/3 2/2/2 1/1/1
f 6/6/6 5/5/5 4/4/4
f 9/9/9 8/8/8 7/7/7
f 12/12/12 11/11/11 10/10/10
f 13/13/13 12/12/12 10/10/10
f 14/14/14 12/12/12 13/13/13
f 15/15/15 13/13/13 10/10/10
f 16/16/16 15/15/15 10/10/10
f 15/15/15 17/17/17 13/13/13
f 18/18/18 14/14/14 13/13/13
f 17/17/17 18/18/18 13/13/13
f 19/19/19 14/14/14 18/18/18
f 17/17/17 20/20/20 18/18/18
f 21/21/21 19/19/19 18/18/18
f 20/20/20 21/21/21 18/18/18
f 22/22/22 19/19/19 21/21/21
f 20/20/20 23/23/23 21/21/21
f 24/24/24 22/22/22 21/21/21
f 23/23/23 24/24/24 21/21/21
f 25/25/25 22/22/22 24/24/24
f 23/23/23 26/26/26 24/24/24
f 27/27/27 25/25/25 24/24/24
f 26/26/26 27/27/27 24/24/24
f 28/28/28 25/25/25 27/27/27
f 26/26/26 29/29/29 27/27/27
f 30/30/30 28/28/28 27/27/27
f 29/29/29 30/30/30 27/27/27
f 31/31/31 28/28/28 30/30/30
f 29/29/29 32/32/32 30/30/30
f 33/33/33 31/31/31 30/30/30
f 32/32/32 33/33/33 30/30/30
f 34/34/34 31/31/31 33/33/33
f 32/32/32 35/35/35 33/33/33
f 36/36/36 34/34/34 33/33/33
f 35/35/35 36/36/36 33/33/33
f 39/39/39 38/38/38 37/37/37
f 38/38/38 40/40/40 37/37/37
f 37/37/37 40/40/40 41/41/41
f 41/41/41 42/42/42 37/37/37
f 37/37/37 42/42/42 43/43/43
f 37/37/37 43/43/43 44/44/44
f 47/47/47 46/46/46 45/45/45
f 48/48/48 47/47/47 45/45/45
f 49/49/49 47/47/47 48/48/48
f 48/48/48 45/45/45 50/50/50
f 51/51/51 49/49/49 48/48/48
f 52/52/52 48/48/48 50/50/50
f 51/51/51 48/48/48 52/52/52
f 52/52/52 50/50/50 53/53/53
f 54/54/54 51/51/51 52/52/52
f 55/55/55 52/52/52 53/53/53
f 54/54/54 52/52/52 55/55/55
f 55/55/55 53/53/53 56/56/56
f 57/57/57 54/54/54 55/55/55
f 58/58/58 55/55/55 56/56/56
f 57/57/57 55/55/55 58/58/58
f 58/58/58 56/56/56 59/59/59
f 60/60/60 57/57/57 58/58/58
f 61/61/61 58/58/58 59/59/59
f 60/60/60 58/58/58 61/61/61
f 61/61/61 59/59/59 62/62/62
f 63/63/63 60/60/60 61/61/61
f 64/64/64 61/61/61 62/62/62
f 63/63/63 61/61/61 64/64/64
f 64/64/64 62/62/62 65/65/65
f 66/66/66 63/63/63 64/64/64
f 67/67/67 64/64/64 65/65/65
f 66/66/66 64/64/64 67/67/67
f 67/67/67 65/65/65 68/68/68
f 69/69/69 66/66/66 67/67/67
f 70/70/70 67/67/67 68/68/68
f 69/69/69 67/67/67 70/70/70
f 71/71/71 69/69/69 70/70/70
f 74/74/74 73/73/73 72/72/72
f 75/75/75 74/74/74 72/72/72
f 78/78/78 77/77/77 76/76/76
f 79/79/79 78/78/78 76/76/76
f 79/79/79 76/76/76 80/80/80
f 78/78/78 79/79/79 81/81/81
f 82/82/82 78/78/78 81/81/81
f 83/83/83 82/82/82 81/81/81
f 84/84/84 83/83/83 81/81/81
f 85/85/85 79/79/79 80/80/80
f 79/79/79 85/85/85 81/81/81
f 84/84/84 81/81/81 85/85/85
f 86/86/86 85/85/85 80/80/80
f 87/87/87 84/84/84 85/85/85
f 88/88/88 85/85/85 86/86/86
f 87/87/87 85/85/85 88/88/88
f 89/89/89 87/87/87 88/88/88
f 88/88/88 86/86/86 90/90/90
f 91/91/91 89/89/89 88/88/88
f 92/92/92 88/88/88 90/90/90
f 91/91/91 88/88/88 92/92/92
f 93/93/93 91/91/91 92/92/92
f 90/90/90 94/94/94 92/92/92
f 92/92/92 94/94/94 95/95/95
f 96/96/96 95/95/95 94/94/94
f 99/99/99 98/98/98 97/97/97
f 99/99/99 97/97/97 100/100/100
f 101/101/101 99/99/99 100/100/100
f 102/102/102 101/101/101 100/100/100
f 103/103/103 101/101/101 102/102/102
f 104/104/104 103/103/103 102/102/102
f 104/104/104 105/105/105 103/103/103
f 105/105/105 106/106/106 103/103/103
f 105/105/105 107/107/107 106/106/106
f 110/110/110 109/109/109 108/108/108
f 111/111/111 110/110/110 108/108/108
f 112/112/112 110/110/110 111/111/111
f 113/113/113 112/112/112 111/111/111
f 114/114/114 112/112/112 113/113/113
f 115/115/115 114/114/114 113/113/113
f 115/115/115 116/116/116 114/114/114
f 119/119/119 118/118/118 117/117/117
f 118/118/118 120/120/120 117/117/117
f 120/120/120 118/118/118 121/121/121
f 118/118/118 122/122/122 121/121/121
f 117/117/117 120/120/120 123/123/123
f 122/122/122 124/124/124 121/121/121
f 120/120/120 125/125/125 123/123/123
f 120/120/120 121/121/121 125/125/125
f 123/123/123 125/125/125 126/126/126
f 125/125/125 127/127/127 126/126/126
f 125/125/125 121/121/121 127/127/127
f 121/121/121 128/128/128 127/127/127
f 121/121/121 129/129/129 128/128/128
f 124/124/124 130/130/130 121/121/121
f 130/130/130 129/129/129 121/121/121
f 124/124/124 131/131/131 130/130/130
f 131/131/131 132/132/132 130/130/130
f 132/132/132 133/133/133 130/130/130
f 130/130/130 133/133/133 129/129/129
f 133/133/133 134/134/134 129/129/129
f 133/133/133 135/135/135 134/134/134
f 136/136/136 135/135/135 133/133/133
f 136/136/136 137/137/137 135/135/135
f 140/140/140 139/139/139 138/138/138
f 139/139/139 141/141/141 138/138/138
f 138/138/138 141/141/141 142/142/142
f 141/141/141 143/143/143 142/142/142
f 142/142/142 143/143/143 144/144/144
f 143/143/143 145/145/145 144/144/144
f 144/144/144 145/145/145 146/146/146
f 145/145/145 147/147/147 146/146/146
f 146/146/146 147/147/147 148/148/148
f 147/147/147 149/149/149 148/148/148
f 148/148/148 149/149/149 150/150/150
f 149/149/149 151/151/151 150/150/150
f 150/150/150 151/151/151 152/152/152
f 151/151/151 153/153/153 152/152/152
f 152/152/152 153/153/153 154/154/154
f 153/153/153 155/155/155 154/154/154
f 158/158/158 157/157/157 156/156/156
f 157/157/157 159/159/159 156/156/156
f 157/157/157 160/160/160 159/159/159
