g FruitJuice_02
v -0.255652 0.5046989 0.17448938
v -0.29234195 0.29901284 0.0054932833
v -0.29234195 0.29901284 -0.0056248903
v -0.255652 0.5046989 -0.17462099
v 0.25133634 0.5046989 -0.17462099
v 0.28802627 0.29901284 -0.013407588
v 0.28802627 0.29901284 0.013275981
v 0.25133634 0.5046989 0.17448938
v -0.29234195 0.29901284 0.0054932833
v -0.2790001 0.29901284 0.018835068
v -0.2790001 0.29901284 -0.018966675
v -0.29234195 0.29901284 -0.0056248903
v 0.28802627 0.29901284 -0.013407588
v 0.2757963 0.29901284 -0.018966675
v 0.2757963 0.29901284 0.018835068
v 0.28802627 0.29901284 0.013275981
v -0.2790001 0.29901284 0.018835068
v -0.255652 0.4757917 0.17448938
v -0.255652 0.4757917 -0.17462099
v -0.2790001 0.29901284 -0.018966675
v 0.2757963 0.29901284 -0.018966675
v 0.25133634 0.4757917 -0.17462099
v 0.25133634 0.4757917 0.17448938
v 0.2757963 0.29901284 0.018835068
v -0.255652 0.40463537 0.17448938
v -0.255652 0.4757917 -0.17462099
v -0.255652 0.4757917 0.17448938
v -0.255652 0.40463537 -0.17462099
v -0.255652 -0.46925235 0.17448938
v -0.255652 -0.46925235 -0.17462099
v 0.25133634 0.40463537 -0.17462099
v 0.25133634 0.4757917 0.17448938
v 0.25133634 0.4757917 -0.17462099
v 0.25133634 0.40463537 0.17448938
v 0.25133634 -0.46925235 -0.17462099
v 0.25133634 -0.46925235 0.17448938
v -0.29234195 0.29901284 0.0054932833
v -0.255652 0.5046989 0.17448938
v -0.255652 0.4757917 0.17448938
v -0.2790001 0.29901284 0.018835068
v -0.255652 0.4757917 -0.17462099
v -0.255652 0.5046989 -0.17462099
v -0.29234195 0.29901284 -0.0056248903
v -0.2790001 0.29901284 -0.018966675
v 0.25133634 0.4757917 0.17448938
v 0.25133634 0.5046989 0.17448938
v 0.28802627 0.29901284 0.013275981
v 0.2757963 0.29901284 0.018835068
v 0.25133634 0.5046989 -0.17462099
v 0.25133634 0.4757917 -0.17462099
v 0.2757963 0.29901284 -0.018966675
v 0.28802627 0.29901284 -0.013407588
v 0.08678749 0.5614015 -0.045650303
v 0.12014198 0.5614015 -0.056768477
v 0.15349647 0.5614015 -0.045650303
v 0.066774786 0.5614015 -0.01785487
v 0.17350918 0.5614015 -0.01785487
v 0.17350918 0.5614015 0.017723262
v 0.066774786 0.5614015 0.017723262
v 0.08678749 0.5614015 0.045518696
v 0.15349647 0.5614015 0.045518696
v 0.12014198 0.5614015 0.05663681
v 0.25133634 -0.57598674 -0.17462099
v 0.25133634 -0.57598674 0.17448938
v 0.25133634 -0.46925235 0.17448938
v 0.25133634 -0.46925235 -0.17462099
v -0.255652 -0.57598674 0.17448938
v -0.255652 -0.57598674 -0.17462099
v -0.255652 -0.46925235 -0.17462099
v -0.255652 -0.46925235 0.17448938
v -0.255652 -0.46925235 0.17448938
v 0.25133634 -0.57598674 0.17448938
v -0.255652 -0.57598674 0.17448938
v -0.19005483 -0.46925235 0.17448938
v 0.18573916 -0.46925235 0.17448938
v 0.25133634 -0.46925235 0.17448938
v -0.255652 -0.57598674 0.17448938
v 0.25133634 -0.57598674 0.17448938
v 0.25133634 -0.57598674 -0.17462099
v -0.255652 -0.57598674 -0.17462099
v -0.255652 0.40463537 0.17448938
v -0.19005483 -0.46925235 0.17448938
v -0.255652 -0.46925235 0.17448938
v -0.19005483 0.40463537 0.17448938
v -0.255652 0.4757917 0.17448938
v -0.0021578074 0.4757917 0.17448938
v 0.18573916 0.40463537 0.17448938
v 0.25133634 0.40463537 0.17448938
v 0.25133634 0.4757917 0.17448938
v 0.25133634 -0.46925235 0.17448938
v 0.18573916 -0.46925235 0.17448938
v -0.255652 0.5046989 0.17448938
v -0.0021578074 0.4757917 0.17448938
v -0.255652 0.4757917 0.17448938
v -0.0021578074 0.5046989 0.17448938
v 0.25133634 0.4757917 0.17448938
v 0.25133634 0.5046989 0.17448938
v -0.0021578074 0.4757917 -0.17462099
v -0.255652 0.4757917 -0.17462099
v -0.255652 0.40463537 -0.17462099
v -0.19005483 0.40463537 -0.17462099
v -0.255652 -0.46925235 -0.17462099
v -0.19005483 -0.46925235 -0.17462099
v 0.18573916 0.40463537 -0.17462099
v 0.25133634 0.4757917 -0.17462099
v 0.25133634 0.40463537 -0.17462099
v 0.18573916 -0.46925235 -0.17462099
v 0.25133634 -0.46925235 -0.17462099
v 0.25133634 0.5046989 -0.17462099
v -0.0021578074 0.4757917 -0.17462099
v 0.25133634 0.4757917 -0.17462099
v -0.0021578074 0.5046989 -0.17462099
v -0.255652 0.4757917 -0.17462099
v -0.255652 0.5046989 -0.17462099
v -0.19005483 -0.46925235 -0.17462099
v -0.255652 -0.46925235 -0.17462099
v -0.255652 -0.57598674 -0.17462099
v 0.25133634 -0.57598674 -0.17462099
v 0.18573916 -0.46925235 -0.17462099
v 0.25133634 -0.46925235 -0.17462099
v 0.20575187 0.5046989 0.13557583
v -0.0021578074 0.5046989 -0.13570741
v 0.20575187 0.5046989 -0.13570741
v -0.0021578074 0.5046989 0.13557583
v -0.21006751 0.5046989 -0.13570741
v -0.21006751 0.5046989 0.13557583
v 0.18573916 0.40463537 -0.17462099
v -0.19005483 0.40463537 -0.17462099
v -0.19005483 -0.46925235 -0.17462099
v 0.18573916 -0.46925235 -0.17462099
v 0.18573916 -0.46925235 0.17448938
v -0.19005483 -0.46925235 0.17448938
v -0.19005483 0.40463537 0.17448938
v 0.18573916 0.40463537 0.17448938
v 0.20575187 0.5046989 -0.13570741
v 0.25133634 0.5046989 -0.17462099
v 0.25133634 0.5046989 0.17448938
v 0.20575187 0.5046989 0.13557583
v -0.0021578074 0.5046989 -0.13570741
v -0.0021578074 0.5046989 0.17448938
v -0.0021578074 0.5046989 -0.17462099
v -0.0021578074 0.5046989 0.13557583
v -0.21006751 0.5046989 -0.13570741
v -0.255652 0.5046989 0.17448938
v -0.255652 0.5046989 -0.17462099
v -0.21006751 0.5046989 0.13557583
v 0.1612792 0.5013634 0.05663681
v 0.12014198 0.5013634 0.069978654
v 0.12014198 0.54694796 0.069978654
v 0.1612792 0.54694796 0.05663681
v 0.079004765 0.54694796 0.05663681
v 0.18685097 0.5013634 0.021058679
v 0.079004765 0.5013634 0.05663681
v 0.18685097 0.54694796 0.021058679
v 0.053433 0.54694796 0.021058679
v 0.18685097 0.5013634 -0.021190345
v 0.053433 0.5013634 0.021058679
v 0.18685097 0.54694796 -0.021190345
v 0.053433 0.54694796 -0.021190345
v 0.1612792 0.5013634 -0.056768477
v 0.053433 0.5013634 -0.021190345
v 0.1612792 0.54694796 -0.056768477
v 0.079004765 0.54694796 -0.056768477
v 0.12014198 0.5013634 -0.07011026
v 0.079004765 0.5013634 -0.056768477
v 0.12014198 0.54694796 -0.07011026
v 0.079004765 0.54694796 0.05663681
v 0.08678749 0.5614015 0.045518696
v 0.12014198 0.5614015 0.05663681
v 0.12014198 0.54694796 0.069978654
v 0.053433 0.54694796 0.021058679
v 0.15349647 0.5614015 0.045518696
v 0.066774786 0.5614015 0.017723262
v 0.1612792 0.54694796 0.05663681
v 0.053433 0.54694796 -0.021190345
v 0.17350918 0.5614015 0.017723262
v 0.066774786 0.5614015 -0.01785487
v 0.18685097 0.54694796 0.021058679
v 0.079004765 0.54694796 -0.056768477
v 0.17350918 0.5614015 -0.01785487
v 0.08678749 0.5614015 -0.045650303
v 0.18685097 0.54694796 -0.021190345
v 0.12014198 0.54694796 -0.07011026
v 0.15349647 0.5614015 -0.045650303
v 0.12014198 0.5614015 -0.056768477
v 0.1612792 0.54694796 -0.056768477
vt 0.09375 0.21875
vt 0.09375 0.21875
vt 0.09375 0.21875
vt 0.09375 0.21875
vt 0.09375 0.21875
vt 0.09375 0.21875
vt 0.09375 0.21875
vt 0.09375 0.21875
vt 0.09375 0.21875
vt 0.09375 0.21875
vt 0.09375 0.21875
vt 0.09375 0.21875
vt 0.09375 0.21875
vt 0.09375 0.21875
vt 0.09375 0.21875
vt 0.09375 0.21875
vt 0.96875 0.21875
vt 0.96875 0.21875
vt 0.96875 0.21875
vt 0.96875 0.21875
vt 0.96875 0.21875
vt 0.96875 0.21875
vt 0.96875 0.21875
vt 0.96875 0.21875
vt 0.96875 0.21875
vt 0.96875 0.21875
vt 0.96875 0.21875
vt 0.96875 0.21875
vt 0.96875 0.21875
vt 0.96875 0.21875
vt 0.96875 0.21875
vt 0.96875 0.21875
vt 0.96875 0.21875
vt 0.96875 0.21875
vt 0.96875 0.21875
vt 0.96875 0.21875
vt 0.09375 0.21875
vt 0.09375 0.21875
vt 0.09375 0.21875
vt 0.09375 0.21875
vt 0.09375 0.21875
vt 0.09375 0.21875
vt 0.09375 0.21875
vt 0.09375 0.21875
vt 0.09375 0.21875
vt 0.09375 0.21875
vt 0.09375 0.21875
vt 0.09375 0.21875
vt 0.09375 0.21875
vt 0.09375 0.21875
vt 0.09375 0.21875
vt 0.09375 0.21875
vt 0.53125 0.34375
vt 0.53125 0.34375
vt 0.53125 0.34375
vt 0.53125 0.34375
vt 0.53125 0.34375
vt 0.53125 0.34375
vt 0.53125 0.34375
vt 0.53125 0.34375
vt 0.53125 0.34375
vt 0.53125 0.34375
vt 0.09375 0.21875
vt 0.09375 0.21875
vt 0.09375 0.21875
vt 0.09375 0.21875
vt 0.09375 0.21875
vt 0.09375 0.21875
vt 0.09375 0.21875
vt 0.09375 0.21875
vt 0.09375 0.21875
vt 0.09375 0.21875
vt 0.09375 0.21875
vt 0.09375 0.21875
vt 0.09375 0.21875
vt 0.09375 0.21875
vt 0.96875 0.21875
vt 0.96875 0.21875
vt 0.96875 0.21875
vt 0.96875 0.21875
vt 0.96875 0.21875
vt 0.96875 0.21875
vt 0.96875 0.21875
vt 0.96875 0.21875
vt 0.96875 0.21875
vt 0.96875 0.21875
vt 0.96875 0.21875
vt 0.96875 0.21875
vt 0.96875 0.21875
vt 0.96875 0.21875
vt 0.96875 0.21875
vt 0.09375 0.21875
vt 0.09375 0.21875
vt 0.09375 0.21875
vt 0.09375 0.21875
vt 0.09375 0.21875
vt 0.09375 0.21875
vt 0.96875 0.21875
vt 0.96875 0.21875
vt 0.96875 0.21875
vt 0.96875 0.21875
vt 0.96875 0.21875
vt 0.96875 0.21875
vt 0.96875 0.21875
vt 0.96875 0.21875
vt 0.96875 0.21875
vt 0.96875 0.21875
vt 0.96875 0.21875
vt 0.09375 0.21875
vt 0.09375 0.21875
vt 0.09375 0.21875
vt 0.09375 0.21875
vt 0.09375 0.21875
vt 0.09375 0.21875
vt 0.09375 0.21875
vt 0.09375 0.21875
vt 0.09375 0.21875
vt 0.09375 0.21875
vt 0.09375 0.21875
vt 0.09375 0.21875
vt 0.96875 0.21875
vt 0.96875 0.21875
vt 0.96875 0.21875
vt 0.96875 0.21875
vt 0.96875 0.21875
vt 0.96875 0.21875
vt 0.03125 0.34375
vt 0.03125 0.34375
vt 0.03125 0.34375
vt 0.03125 0.34375
vt 0.03125 0.34375
vt 0.03125 0.34375
vt 0.03125 0.34375
vt 0.03125 0.34375
vt 0.09375 0.21875
vt 0.09375 0.21875
vt 0.09375 0.21875
vt 0.09375 0.21875
vt 0.09375 0.21875
vt 0.09375 0.21875
vt 0.09375 0.21875
vt 0.09375 0.21875
vt 0.09375 0.21875
vt 0.09375 0.21875
vt 0.09375 0.21875
vt 0.09375 0.21875
vt 0.53125 0.34375
vt 0.53125 0.34375
vt 0.53125 0.34375
vt 0.53125 0.34375
vt 0.53125 0.34375
vt 0.53125 0.34375
vt 0.53125 0.34375
vt 0.53125 0.34375
vt 0.53125 0.34375
vt 0.53125 0.34375
vt 0.53125 0.34375
vt 0.53125 0.34375
vt 0.53125 0.34375
vt 0.53125 0.34375
vt 0.53125 0.34375
vt 0.53125 0.34375
vt 0.53125 0.34375
vt 0.53125 0.34375
vt 0.53125 0.34375
vt 0.53125 0.34375
vt 0.53125 0.34375
vt 0.53125 0.34375
vt 0.53125 0.34375
vt 0.53125 0.34375
vt 0.53125 0.34375
vt 0.53125 0.34375
vt 0.53125 0.34375
vt 0.53125 0.34375
vt 0.53125 0.34375
vt 0.53125 0.34375
vt 0.53125 0.34375
vt 0.53125 0.34375
vt 0.53125 0.34375
vt 0.53125 0.34375
vt 0.53125 0.34375
vt 0.53125 0.34375
vt 0.53125 0.34375
vt 0.53125 0.34375
vt 0.53125 0.34375
vt 0.53125 0.34375
vn -0.9850967 0.172001 -0
vn -0.9850967 0.172001 -0
vn -0.9850967 0.172001 -0
vn -0.9850967 0.172001 -0
vn 0.9850967 0.172001 -0
vn 0.9850967 0.172001 -0
vn 0.9850967 0.172001 -0
vn 0.9850967 0.172001 -0
vn -0.015871048 -0.999874 -0.00034526698
vn -0.015871048 -0.999874 -0.00034526698
vn -0.015871048 -0.999874 -0.00034526698
vn -0.015871048 -0.999874 -0.00034526698
vn -0.015871048 -0.999874 -0.00034526698
vn -0.015871048 -0.999874 -0.00034526698
vn -0.015871048 -0.999874 -0.00034526698
vn -0.015871048 -0.999874 -0.00034526698
vn 0.98994946 -0.14142135 -0
vn 0.98994946 -0.14142135 -0
vn 0.98994946 -0.14142135 -0
vn 0.98994946 -0.14142135 -0
vn -0.98994946 -0.14142135 -0
vn -0.98994946 -0.14142135 -0
vn -0.98994946 -0.14142135 -0
vn -0.98994946 -0.14142135 -0
vn -0.999874 0.015871048 -0.00034391563
vn -0.999874 0.015871048 -0.00034391563
vn -0.999874 0.015871048 -0.00034391563
vn -0.999874 0.015871048 -0.00034391563
vn -0.999874 0.015871048 -0.00034391563
vn -0.999874 0.015871048 -0.00034391563
vn 0.999874 -0.015870988 -0.00034665503
vn 0.999874 -0.015870988 -0.00034665503
vn 0.999874 -0.015870988 -0.00034665503
vn 0.999874 -0.015870988 -0.00034665503
vn 0.999874 -0.015870988 -0.00034665503
vn 0.999874 -0.015870988 -0.00034665503
vn -0.90464795 -0.2063232 0.37288445
vn -0.90464795 -0.2063232 0.37288445
vn -0.90464795 -0.2063232 0.37288445
vn -0.90464795 -0.2063232 0.37288445
vn -0.90464795 -0.2063232 -0.37288445
vn -0.90464795 -0.2063232 -0.37288445
vn -0.90464795 -0.2063232 -0.37288445
vn -0.90464795 -0.2063232 -0.37288445
vn 0.8411638 -0.26980728 0.46866566
vn 0.8411638 -0.26980728 0.46866566
vn 0.8411638 -0.26980728 0.46866566
vn 0.8411638 -0.26980728 0.46866566
vn 0.8411638 -0.26980728 -0.46866566
vn 0.8411638 -0.26980728 -0.46866566
vn 0.8411638 -0.26980728 -0.46866566
vn 0.8411638 -0.26980728 -0.46866566
vn -0.015871048 0.999874 -0.00034526698
vn -0.015871048 0.999874 -0.00034526698
vn -0.015871048 0.999874 -0.00034526698
vn -0.015871048 0.999874 -0.00034526698
vn -0.015871048 0.999874 -0.00034526698
vn -0.015871048 0.999874 -0.00034526698
vn -0.015871048 0.999874 -0.00034526698
vn -0.015871048 0.999874 -0.00034526698
vn -0.015871048 0.999874 -0.00034526698
vn -0.015871048 0.999874 -0.00034526698
vn 0.999874 -0.015870988 -0.00034665503
vn 0.999874 -0.015870988 -0.00034665503
vn 0.999874 -0.015870988 -0.00034665503
vn 0.999874 -0.015870988 -0.00034665503
vn -0.999874 0.015871048 -0.00034391563
vn -0.999874 0.015871048 -0.00034391563
vn -0.999874 0.015871048 -0.00034391563
vn -0.999874 0.015871048 -0.00034391563
vn -0.015871048 0.015871048 0.99974805
vn -0.015871048 0.015871048 0.99974805
vn -0.015871048 0.015871048 0.99974805
vn -0.015871048 0.015871048 0.99974805
vn -0.015871048 0.015871048 0.99974805
vn -0.015871048 0.015871048 0.99974805
vn -0.015871048 -0.999874 -0.00034526698
vn -0.015871048 -0.999874 -0.00034526698
vn -0.015871048 -0.999874 -0.00034526698
vn -0.015871048 -0.999874 -0.00034526698
vn -0.015871048 0.015871048 0.99974805
vn -0.015871048 0.015871048 0.99974805
vn -0.015871048 0.015871048 0.99974805
vn -0.015871048 0.015871048 0.99974805
vn -0.015871048 0.015871048 0.99974805
vn -0.015871048 0.015871048 0.99974805
vn -0.015871048 0.015871048 0.99974805
vn -0.015871048 0.015871048 0.99974805
vn -0.015871048 0.015871048 0.99974805
vn -0.015871048 0.015871048 0.99974805
vn -0.015871048 0.015871048 0.99974805
vn -0.015871048 0.015871048 0.99974805
vn -0.015871048 0.015871048 0.99974805
vn -0.015871048 0.015871048 0.99974805
vn -0.015871048 0.015871048 0.99974805
vn -0.015871048 0.015871048 0.99974805
vn -0.015871048 0.015871048 0.99974805
vn -0.015871048 0.015871048 -0.99974805
vn -0.015871048 0.015871048 -0.99974805
vn -0.015871048 0.015871048 -0.99974805
vn -0.015871048 0.015871048 -0.99974805
vn -0.015871048 0.015871048 -0.99974805
vn -0.015871048 0.015871048 -0.99974805
vn -0.015871048 0.015871048 -0.99974805
vn -0.015871048 0.015871048 -0.99974805
vn -0.015871048 0.015871048 -0.99974805
vn -0.015871048 0.015871048 -0.99974805
vn -0.015871048 -0.015870988 -0.99974805
vn -0.015871048 0.015871048 -0.99974805
vn -0.015871048 0.015871048 -0.99974805
vn -0.015871048 0.015871048 -0.99974805
vn -0.015871048 0.015871048 -0.99974805
vn -0.015871048 0.015871048 -0.99974805
vn -0.015871048 0.015871048 -0.99974805
vn -0.015871048 0.015871048 -0.99974805
vn -0.015871048 0.015871048 -0.99974805
vn -0.015871048 0.015871048 -0.99974805
vn -0.015871048 0.015871048 -0.99974805
vn -0.015871048 0.015871048 -0.99974805
vn -0.015871048 -0.015870988 -0.99974805
vn -0.015871048 0.999874 -0.00034526698
vn -0.015871048 0.999874 -0.00034526698
vn -0.015871048 0.999874 -0.00034526698
vn -0.015871048 0.999874 -0.00034526698
vn -0.015871048 0.999874 -0.00034526698
vn -0.015871048 0.999874 -0.00034526698
vn -0.015871048 0.015871048 -0.99974805
vn -0.015871048 0.015871048 -0.99974805
vn -0.015871048 0.015871048 -0.99974805
vn -0.015871048 0.015871048 -0.99974805
vn -0.015871048 0.015871048 0.99974805
vn -0.015871048 0.015871048 0.99974805
vn -0.015871048 0.015871048 0.99974805
vn -0.015871048 0.015871048 0.99974805
vn -0.015871048 0.999874 -0.00034526698
vn -0.015871048 0.999874 -0.00034526698
vn -0.015871048 0.999874 -0.00034526698
vn -0.015871048 0.999874 -0.00034526698
vn -0.015871048 0.999874 -0.00034526698
vn -0.015871048 0.999874 -0.00034526698
vn -0.015871048 0.999874 -0.00034526698
vn -0.015871048 0.999874 -0.00034526698
vn -0.015871048 0.999874 -0.00034526698
vn -0.015871048 0.999874 -0.00034526698
vn -0.015871048 0.999874 -0.00034526698
vn -0.015871048 0.999874 -0.00034526698
vn 0.5872276 -0.015870988 0.80926627
vn -0.015871048 0.015871048 0.99974805
vn -0.015871048 0.015871048 0.99974805
vn 0.5872276 -0.015870988 0.80926627
vn -0.5872276 0.015871048 0.80926627
vn 0.9363899 0.015871048 0.35060233
vn -0.5872276 0.015871048 0.80926627
vn 0.9363899 0.015871048 0.35060233
vn -0.9363899 0.015871048 0.35060233
vn 0.9363899 0.015871048 -0.35060233
vn -0.9363899 0.015871048 0.35060233
vn 0.9363899 0.015871048 -0.35060233
vn -0.9363899 0.015871048 -0.35060233
vn 0.5872276 0.015871048 -0.80926627
vn -0.9363899 0.015871048 -0.35060233
vn 0.5872276 0.015871048 -0.80926627
vn -0.5872276 0.015871048 -0.80926627
vn 0.015870988 0.015871048 -0.99974805
vn -0.5872276 0.015871048 -0.80926627
vn 0.015870988 0.015871048 -0.99974805
vn -0.42851746 0.68245375 0.5921399
vn -0.42851746 0.68245375 0.5921399
vn 0.015870988 0.68245375 0.73075646
vn 0.015870988 0.68245375 0.73075646
vn -0.68245375 0.68245375 0.26175132
vn 0.4285174 0.68245375 0.59213996
vn -0.68245375 0.68245375 0.26175132
vn 0.4285174 0.68245375 0.59213996
vn -0.68245375 0.68245375 -0.26175132
vn 0.68245363 0.68245375 0.26175165
vn -0.68245375 0.68245375 -0.26175132
vn 0.68245363 0.68245375 0.26175165
vn -0.42851746 0.68245375 -0.5921399
vn 0.68245363 0.68245375 -0.26175165
vn -0.42851746 0.68245375 -0.5921399
vn 0.68245363 0.68245375 -0.26175165
vn -0.015871048 0.68245375 -0.73075646
vn 0.4285174 0.68245375 -0.59213996
vn 0.015870988 0.68245375 -0.73075646
vn 0.4285174 0.68245375 -0.59213996
g FruitJuice_02_0
f 3/3/3 2/2/2 1/1/1
f 4/4/4 3/3/3 1/1/1
f 7/7/7 6/6/6 5/5/5
f 8/8/8 7/7/7 5/5/5
f 11/11/11 10/10/10 9/9/9
f 12/12/12 11/11/11 9/9/9
f 15/15/15 14/14/14 13/13/13
f 16/16/16 15/15/15 13/13/13
f 19/19/19 18/18/18 17/17/17
f 20/20/20 19/19/19 17/17/17
f 23/23/23 22/22/22 21/21/21
f 24/24/24 23/23/23 21/21/21
f 27/27/27 26/26/26 25/25/25
f 26/26/26 28/28/28 25/25/25
f 25/25/25 28/28/28 29/29/29
f 28/28/28 30/30/30 29/29/29
f 33/33/33 32/32/32 31/31/31
f 32/32/32 34/34/34 31/31/31
f 31/31/31 34/34/34 35/35/35
f 34/34/34 36/36/36 35/35/35
f 39/39/39 38/38/38 37/37/37
f 40/40/40 39/39/39 37/37/37
f 43/43/43 42/42/42 41/41/41
f 44/44/44 43/43/43 41/41/41
f 47/47/47 46/46/46 45/45/45
f 48/48/48 47/47/47 45/45/45
f 51/51/51 50/50/50 49/49/49
f 52/52/52 51/51/51 49/49/49
f 55/55/55 54/54/54 53/53/53
f 53/53/53 56/56/56 55/55/55
f 56/56/56 57/57/57 55/55/55
f 56/56/56 58/58/58 57/57/57
f 56/56/56 59/59/59 58/58/58
f 59/59/59 60/60/60 58/58/58
f 60/60/60 61/61/61 58/58/58
f 60/60/60 62/62/62 61/61/61
f 65/65/65 64/64/64 63/63/63
f 66/66/66 65/65/65 63/63/63
f 69/69/69 68/68/68 67/67/67
f 70/70/70 69/69/69 67/67/67
f 73/73/73 72/72/72 71/71/71
f 72/72/72 74/74/74 71/71/71
f 75/75/75 74/74/74 72/72/72
f 72/72/72 76/76/76 75/75/75
f 79/79/79 78/78/78 77/77/77
f 80/80/80 79/79/79 77/77/77
f 83/83/83 82/82/82 81/81/81
f 82/82/82 84/84/84 81/81/81
f 81/81/81 84/84/84 85/85/85
f 84/84/84 86/86/86 85/85/85
f 86/86/86 84/84/84 87/87/87
f 87/87/87 88/88/88 86/86/86
f 88/88/88 89/89/89 86/86/86
f 90/90/90 88/88/88 87/87/87
f 91/91/91 90/90/90 87/87/87
f 94/94/94 93/93/93 92/92/92
f 93/93/93 95/95/95 92/92/92
f 93/93/93 96/96/96 95/95/95
f 96/96/96 97/97/97 95/95/95
f 100/100/100 99/99/99 98/98/98
f 101/101/101 100/100/100 98/98/98
f 100/100/100 101/101/101 102/102/102
f 101/101/101 103/103/103 102/102/102
f 98/98/98 104/104/104 101/101/101
f 104/104/104 98/98/98 105/105/105
f 106/106/106 104/104/104 105/105/105
f 104/104/104 106/106/106 107/107/107
f 106/106/106 108/108/108 107/107/107
f 111/111/111 110/110/110 109/109/109
f 110/110/110 112/112/112 109/109/109
f 110/110/110 113/113/113 112/112/112
f 113/113/113 114/114/114 112/112/112
f 117/117/117 116/116/116 115/115/115
f 118/118/118 117/117/117 115/115/115
f 115/115/115 119/119/119 118/118/118
f 118/118/118 119/119/119 120/120/120
f 123/123/123 122/122/122 121/121/121
f 122/122/122 124/124/124 121/121/121
f 122/122/122 125/125/125 124/124/124
f 125/125/125 126/126/126 124/124/124
f 129/129/129 128/128/128 127/127/127
f 130/130/130 129/129/129 127/127/127
f 133/133/133 132/132/132 131/131/131
f 134/134/134 133/133/133 131/131/131
f 137/137/137 136/136/136 135/135/135
f 138/138/138 137/137/137 135/135/135
f 135/135/135 136/136/136 139/139/139
f 140/140/140 137/137/137 138/138/138
f 136/136/136 141/141/141 139/139/139
f 142/142/142 140/140/140 138/138/138
f 139/139/139 141/141/141 143/143/143
f 144/144/144 140/140/140 142/142/142
f 141/141/141 145/145/145 143/143/143
f 146/146/146 144/144/144 142/142/142
f 143/143/143 145/145/145 146/146/146
f 145/145/145 144/144/144 146/146/146
f 149/149/149 148/148/148 147/147/147
f 150/150/150 149/149/149 147/147/147
f 149/149/149 151/151/151 148/148/148
f 150/150/150 147/147/147 152/152/152
f 151/151/151 153/153/153 148/148/148
f 154/154/154 150/150/150 152/152/152
f 151/151/151 155/155/155 153/153/153
f 154/154/154 152/152/152 156/156/156
f 155/155/155 157/157/157 153/153/153
f 158/158/158 154/154/154 156/156/156
f 155/155/155 159/159/159 157/157/157
f 158/158/158 156/156/156 160/160/160
f 159/159/159 161/161/161 157/157/157
f 162/162/162 158/158/158 160/160/160
f 159/159/159 163/163/163 161/161/161
f 162/162/162 160/160/160 164/164/164
f 163/163/163 165/165/165 161/161/161
f 166/166/166 162/162/162 164/164/164
f 166/166/166 164/164/164 165/165/165
f 163/163/163 166/166/166 165/165/165
f 169/169/169 168/168/168 167/167/167
f 170/170/170 169/169/169 167/167/167
f 167/167/167 168/168/168 171/171/171
f 172/172/172 169/169/169 170/170/170
f 168/168/168 173/173/173 171/171/171
f 174/174/174 172/172/172 170/170/170
f 171/171/171 173/173/173 175/175/175
f 176/176/176 172/172/172 174/174/174
f 173/173/173 177/177/177 175/175/175
f 178/178/178 176/176/176 174/174/174
f 175/175/175 177/177/177 179/179/179
f 180/180/180 176/176/176 178/178/178
f 177/177/177 181/181/181 179/179/179
f 182/182/182 180/180/180 178/178/178
f 179/179/179 181/181/181 183/183/183
f 184/184/184 180/180/180 182/182/182
f 181/181/181 185/185/185 183/183/183
f 186/186/186 184/184/184 182/182/182
f 183/183/183 185/185/185 186/186/186
f 185/185/185 184/184/184 186/186/186
