g ham
v -0.3855517 -0.00041863322 -0.28926846
v -0.4056456 0.3679695 -0.27670977
v -0.4056456 -0.00041863322 -0.27670977
v -0.3855517 0.3855517 -0.28926846
v 0.38555172 0.00041860342 -0.28926846
v -0.3855517 0.41736704 -0.27838427
v -0.4056456 0.3989476 -0.26582557
v -0.3855517 0.4282512 -0.24656892
v -0.4056456 0.40899456 -0.23568472
v -0.3855517 0.4282512 0.09419012
v -0.4056456 0.40899456 0.09000391
v 0.38555172 0.4282512 -0.24656892
v 0.38555172 0.41736704 -0.27838427
v 0.38555172 0.3855517 -0.28926846
v 0.40564564 0.3679695 -0.27670977
v 0.40564564 0.00041860342 -0.27670977
v 0.40564564 0.3989476 -0.26582557
v 0.40564564 0.40899456 -0.23568472
v 0.38555172 0.4282512 0.09419012
v 0.40564564 0.40899456 0.09000391
v -0.3855517 0.40648282 0.20219487
v -0.4056456 0.38806343 0.19382238
v 0.38555172 0.40648282 0.20219487
v 0.40564564 0.38806343 0.19382238
v -0.3855517 0.34117764 0.26750004
v -0.4056456 0.3261072 0.25577855
v 0.38555172 0.34117764 0.26750004
v 0.40564564 0.3261072 0.25577855
v -0.3855517 0.23233569 0.28926843
v -0.4056456 0.22228873 0.27670974
v 0.38555172 0.23233569 0.28926843
v 0.40564564 0.22228873 0.27670974
v -0.3855517 -0.00041863322 0.28926843
v -0.4056456 -0.00041863322 0.27670974
v 0.38555172 0.00041860342 0.28926843
v 0.40564564 0.00041860342 0.27670974
v -0.4056456 -0.36796957 -0.27670977
v -0.3855517 -0.00041863322 -0.28926846
v -0.4056456 -0.00041863322 -0.27670977
v -0.3855517 -0.38555172 -0.28926846
v 0.38555172 0.00041860342 -0.28926846
v -0.3855517 -0.41736707 -0.27838427
v -0.4056456 -0.39894766 -0.26582557
v -0.3855517 -0.42825127 -0.24656892
v -0.4056456 -0.40899462 -0.23568472
v -0.3855517 -0.42825127 0.09419012
v -0.4056456 -0.40899462 0.09000391
v 0.38555172 -0.42825127 -0.24656892
v 0.38555172 -0.41736707 -0.27838427
v 0.38555172 -0.38555172 -0.28926846
v 0.40564564 -0.36796957 -0.27670977
v 0.40564564 0.00041860342 -0.27670977
v 0.40564564 -0.39894766 -0.26582557
v 0.40564564 -0.40899462 -0.23568472
v 0.38555172 -0.42825127 0.09419012
v 0.40564564 -0.40899462 0.09000391
v -0.3855517 -0.40648288 0.20219487
v -0.4056456 -0.38806346 0.19382238
v 0.38555172 -0.40648288 0.20219487
v 0.40564564 -0.38806346 0.19382238
v -0.3855517 -0.3411777 0.26750004
v -0.4056456 -0.32610726 0.25577855
v 0.38555172 -0.3411777 0.26750004
v 0.40564564 -0.32610726 0.25577855
v -0.3855517 -0.23233575 0.28926843
v -0.4056456 -0.22228879 0.27670974
v 0.38555172 -0.23233575 0.28926843
v 0.40564564 -0.22228879 0.27670974
v -0.3855517 -0.00041863322 0.28926843
v -0.4056456 -0.00041863322 0.27670974
v 0.38555172 0.00041860342 0.28926843
v 0.40564564 0.00041860342 0.27670974
v 0.41904157 0.3420149 -0.2557786
v 0.40564564 0.00041860342 -0.27670977
v 0.41904157 0.00041860342 -0.2557786
v 0.40564564 0.3679695 -0.27670977
v 0.41904157 0.00041860342 0.25745308
v 0.40564564 0.3989476 -0.26582557
v 0.41904157 0.20638108 0.25745308
v 0.40564564 0.00041860342 0.27670974
v 0.40564564 0.22228873 0.27670974
v 0.41904157 0.30266434 0.23819643
v 0.40564564 0.3261072 0.25577855
v 0.41904157 0.3604343 0.18042648
v 0.40564564 0.38806343 0.19382238
v 0.41904157 0.37048125 -0.24656892
v 0.40564564 0.40899456 -0.23568472
v 0.41904157 0.37969095 -0.21810256
v 0.40564564 0.40899456 0.09000391
v 0.41904157 0.37969095 0.08414316
v -0.4190415 0.20638108 0.25745308
v -0.4056456 -0.00041863322 0.27670974
v -0.4190415 -0.00041863322 0.25745308
v -0.4056456 0.22228873 0.27670974
v -0.4190415 -0.00041863322 -0.2557786
v -0.4190415 0.3420149 -0.2557786
v -0.4056456 -0.00041863322 -0.27670977
v -0.4056456 0.3679695 -0.27670977
v -0.4056456 0.3989476 -0.26582557
v -0.4190415 0.30266434 0.23819643
v -0.4056456 0.3261072 0.25577855
v -0.4190415 0.3604343 0.18042648
v -0.4056456 0.38806343 0.19382238
v -0.4190415 0.37048125 -0.24656892
v -0.4056456 0.40899456 -0.23568472
v -0.4190415 0.37969095 -0.21810256
v -0.4056456 0.40899456 0.09000391
v -0.4190415 0.37969095 0.08414316
v -0.4056456 -0.00041863322 -0.27670977
v -0.4190415 -0.34201494 -0.2557786
v -0.4056456 -0.36796957 -0.27670977
v -0.4190415 -0.00041863322 -0.2557786
v -0.4056456 -0.39894766 -0.26582557
v -0.4190415 -0.20638113 0.25745308
v -0.4190415 -0.00041863322 0.25745308
v -0.4056456 -0.00041863322 0.27670974
v -0.4056456 -0.22228879 0.27670974
v -0.4190415 -0.3026644 0.23819643
v -0.4056456 -0.32610726 0.25577855
v -0.4190415 -0.36043435 0.18042648
v -0.4056456 -0.38806346 0.19382238
v -0.4190415 -0.3704813 -0.24656892
v -0.4056456 -0.40899462 -0.23568472
v -0.4190415 -0.379691 -0.21810256
v -0.4056456 -0.40899462 0.09000391
v -0.4190415 -0.379691 0.08414316
v 0.41904157 -0.34201494 -0.2557786
v 0.40564564 0.00041860342 -0.27670977
v 0.40564564 -0.36796957 -0.27670977
v 0.41904157 0.00041860342 -0.2557786
v 0.40564564 -0.39894766 -0.26582557
v 0.41904157 0.00041860342 0.25745308
v 0.41904157 -0.3704813 -0.24656892
v 0.40564564 -0.40899462 -0.23568472
v 0.41904157 -0.379691 -0.21810256
v 0.40564564 -0.40899462 0.09000391
v 0.41904157 -0.20638113 0.25745308
v 0.40564564 0.00041860342 0.27670974
v 0.40564564 -0.22228879 0.27670974
v 0.41904157 -0.379691 0.08414316
v 0.40564564 -0.38806346 0.19382238
v 0.41904157 -0.36043435 0.18042648
v 0.40564564 -0.32610726 0.25577855
v 0.41904157 -0.3026644 0.23819643
vt 0.88363653 0.11795171
vt 0.87974983 0.086857915
vt 0.87974983 0.11795171
vt 0.88363653 0.086857915
vt 0.9497109 0.11795171
vt 0.88363653 0.082971185
vt 0.87974983 0.082971185
vt 0.88363653 0.082971185
vt 0.87974983 0.07908446
vt 0.88363653 0.051877387
vt 0.87974983 0.051877387
vt 0.9497109 0.082971185
vt 0.9497109 0.082971185
vt 0.9497109 0.086857915
vt 0.9535976 0.086857915
vt 0.9535976 0.11795171
vt 0.9535976 0.082971185
vt 0.9535976 0.07908446
vt 0.9497109 0.051877387
vt 0.9535976 0.051877387
vt 0.88363653 0.044103935
vt 0.87974983 0.044103935
vt 0.9497109 0.044103935
vt 0.9535976 0.044103935
vt 0.88363653 0.036330484
vt 0.87974983 0.03244376
vt 0.9497109 0.036330484
vt 0.9535976 0.03244376
vt 0.88363653 0.02467031
vt 0.87974983 0.02467031
vt 0.9497109 0.02467031
vt 0.9535976 0.02467031
vt 0.88363653 0.0052366853
vt 0.87974983 0.0052366853
vt 0.9497109 0.0052366853
vt 0.9535976 0.0052366853
vt 0.87974983 0.086857915
vt 0.88363653 0.11795171
vt 0.87974983 0.11795171
vt 0.88363653 0.086857915
vt 0.9497109 0.11795171
vt 0.88363653 0.082971185
vt 0.87974983 0.082971185
vt 0.88363653 0.082971185
vt 0.87974983 0.07908446
vt 0.88363653 0.051877387
vt 0.87974983 0.051877387
vt 0.9497109 0.082971185
vt 0.9497109 0.082971185
vt 0.9497109 0.086857915
vt 0.9535976 0.086857915
vt 0.9535976 0.11795171
vt 0.9535976 0.082971185
vt 0.9535976 0.07908446
vt 0.9497109 0.051877387
vt 0.9535976 0.051877387
vt 0.88363653 0.044103935
vt 0.87974983 0.044103935
vt 0.9497109 0.044103935
vt 0.9535976 0.044103935
vt 0.88363653 0.036330484
vt 0.87974983 0.03244376
vt 0.9497109 0.036330484
vt 0.9535976 0.03244376
vt 0.88363653 0.02467031
vt 0.87974983 0.02467031
vt 0.9497109 0.02467031
vt 0.9535976 0.02467031
vt 0.88363653 0.0052366853
vt 0.87974983 0.0052366853
vt 0.9497109 0.0052366853
vt 0.9535976 0.0052366853
vt 0.98857814 0.01689686
vt 0.96137106 0.013010135
vt 0.96137106 0.01689686
vt 0.99246484 0.013010135
vt 0.96137106 0.05965084
vt 0.9963516 0.013010135
vt 0.976918 0.05965084
vt 0.96137106 0.06353756
vt 0.9808047 0.06353756
vt 0.98857814 0.05965084
vt 0.98857814 0.05965084
vt 0.99246484 0.051877387
vt 0.9963516 0.055764113
vt 0.99246484 0.01689686
vt 0.9963516 0.01689686
vt 0.99246484 0.020783585
vt 0.9963516 0.044103935
vt 0.99246484 0.044103935
vt 0.976918 0.11406499
vt 0.9963516 0.11406499
vt 0.9963516 0.11406499
vt 0.976918 0.11795171
vt 0.9963516 0.06742428
vt 0.96525776 0.07131101
vt 0.99246484 0.06742428
vt 0.96137106 0.06742428
vt 0.96137106 0.06742428
vt 0.9691445 0.11406499
vt 0.96525776 0.11406499
vt 0.96525776 0.10629154
vt 0.96137106 0.11017826
vt 0.96137106 0.07131101
vt 0.95748436 0.07131101
vt 0.96137106 0.07131101
vt 0.95748436 0.09851809
vt 0.96137106 0.09851809
vt 0.99246484 0.06742428
vt 0.96525776 0.07131101
vt 0.96137106 0.06742428
vt 0.9963516 0.06742428
vt 0.96137106 0.06742428
vt 0.976918 0.11406499
vt 0.9963516 0.11406499
vt 0.9963516 0.11406499
vt 0.976918 0.11795171
vt 0.9691445 0.11406499
vt 0.96525776 0.11406499
vt 0.96525776 0.10629154
vt 0.96137106 0.11017826
vt 0.96137106 0.07131101
vt 0.95748436 0.07131101
vt 0.96137106 0.07131101
vt 0.95748436 0.09851809
vt 0.96137106 0.09851809
vt 0.98857814 0.01689686
vt 0.96137106 0.013010135
vt 0.99246484 0.013010135
vt 0.96137106 0.01689686
vt 0.9963516 0.013010135
vt 0.96137106 0.05965084
vt 0.99246484 0.01689686
vt 0.9963516 0.01689686
vt 0.99246484 0.020783585
vt 0.9963516 0.044103935
vt 0.976918 0.05965084
vt 0.96137106 0.06353756
vt 0.9808047 0.06353756
vt 0.99246484 0.044103935
vt 0.9963516 0.055764113
vt 0.99246484 0.051877387
vt 0.98857814 0.05965084
vt 0.98857814 0.05965084
vn -0.29417735 -0.015482962 -0.9556254
vn -0.75866765 0.10838121 -0.6423993
vn -0.6967357 -0.015482962 -0.7171608
vn -0.3251434 0.17031318 -0.93020165
vn 0.29417717 -0.015482962 -0.9556255
vn -0.35610932 0.66576964 -0.6556958
vn -0.82059973 0.38707536 -0.42046252
vn -0.38707536 0.91349787 -0.12527673
vn -0.8199581 0.5724236 -0
vn -0.35610932 0.91349787 0.19674297
vn -0.8199581 0.5724236 -0
vn 0.38707525 0.91349787 -0.1252772
vn 0.3561092 0.66576964 -0.65569586
vn 0.32514316 0.17031318 -0.93020177
vn 0.7586675 0.10838121 -0.6423995
vn 0.6967355 -0.015482962 -0.717161
vn 0.82059956 0.38707536 -0.42046285
vn 0.81995803 0.57242364 -0
vn 0.3561092 0.91349787 0.19674312
vn 0.81995803 0.57242364 -0
vn -0.35610932 0.82059973 0.44699243
vn -0.82059973 0.51093954 0.25604066
vn 0.3561092 0.82059973 0.4469925
vn 0.82059956 0.51093954 0.25604126
vn -0.3251434 0.44900745 0.8322704
vn -0.75866765 0.29417735 0.58127713
vn 0.32514316 0.44900745 0.8322705
vn 0.7586675 0.29417735 0.58127725
vn -0.29417735 0.10838121 0.9495858
vn -0.6967357 0.07741517 0.71313834
vn 0.29417717 0.10838121 0.94958586
vn 0.6967355 0.07741517 0.71313846
vn -0.2632113 -0.015482962 0.964614
vn -0.6967357 -0.015482962 0.7171608
vn 0.26321113 -0.015482962 0.96461403
vn 0.6967355 -0.015482962 0.717161
vn -0.75866765 -0.10838103 -0.6423994
vn -0.29417735 -0.015482962 -0.9556254
vn -0.6967357 -0.015482962 -0.7171608
vn -0.3251434 -0.17031306 -0.9302017
vn 0.29417717 -0.015482962 -0.9556255
vn -0.35610932 -0.66576946 -0.655696
vn -0.82059973 -0.38707525 -0.4204626
vn -0.38707536 -0.9134977 -0.12527816
vn -0.8199581 -0.57242346 -0
vn -0.35610932 -0.9134977 0.19674388
vn -0.8199581 -0.57242346 -0
vn 0.38707525 -0.9134977 -0.12527864
vn 0.3561092 -0.66576946 -0.65569603
vn 0.32514316 -0.17031306 -0.93020177
vn 0.7586675 -0.10838103 -0.6423995
vn 0.6967355 -0.015482962 -0.717161
vn 0.82059956 -0.38707525 -0.42046297
vn 0.81995815 -0.5724236 -0
vn 0.3561092 -0.9134977 0.19674402
vn 0.81995815 -0.5724236 -0
vn -0.35610932 -0.82059956 0.44699275
vn -0.82059973 -0.51093936 0.25604108
vn 0.3561092 -0.82059956 0.4469928
vn 0.82059956 -0.51093936 0.25604165
vn -0.3251434 -0.44900727 0.8322705
vn -0.75866765 -0.29417717 0.5812772
vn 0.32514316 -0.44900727 0.8322706
vn 0.7586675 -0.29417717 0.5812774
vn -0.29417735 -0.10838103 0.9495858
vn -0.6967357 -0.07741499 0.71313834
vn 0.29417717 -0.10838103 0.94958586
vn 0.6967355 -0.07741499 0.7131385
vn -0.2632113 -0.015482962 0.964614
vn -0.6967357 -0.015482962 0.7171608
vn 0.26321113 -0.015482962 0.96461403
vn 0.6967355 -0.015482962 0.717161
vn 0.9444637 0.015483081 -0.32825089
vn 0.6967355 -0.015482962 -0.717161
vn 0.9444637 -0.015482962 -0.32825089
vn 0.7586675 0.10838121 -0.6423995
vn 0.9444637 -0.015482962 0.32825089
vn 0.82059956 0.38707536 -0.42046285
vn 0.9444637 0.015483081 0.32825089
vn 0.6967355 -0.015482962 0.717161
vn 0.6967355 0.07741517 0.71313846
vn 0.9754297 0.10838121 0.19180825
vn 0.7586675 0.29417735 0.58127725
vn 0.9754297 0.20127922 0.08957439
vn 0.82059956 0.51093954 0.25604126
vn 0.9754297 0.17031318 -0.13975091
vn 0.81995803 0.57242364 -0
vn 0.9728062 0.23162062 -0
vn 0.81995803 0.57242364 -0
vn 0.9728062 0.23162062 -0
vn -0.9444638 0.015483081 0.3282506
vn -0.6967357 -0.015482962 0.7171608
vn -0.9444638 -0.015482962 0.3282506
vn -0.6967357 0.07741517 0.71313834
vn -0.9444638 -0.015482962 -0.3282506
vn -0.9444638 0.015483081 -0.3282506
vn -0.6967357 -0.015482962 -0.7171608
vn -0.75866765 0.10838121 -0.6423993
vn -0.82059973 0.38707536 -0.42046252
vn -0.97542983 0.10838121 0.19180764
vn -0.75866765 0.29417735 0.58127713
vn -0.97542983 0.20127922 0.089573056
vn -0.82059973 0.51093954 0.25604066
vn -0.97542983 0.17031318 -0.13975006
vn -0.8199581 0.5724236 -0
vn -0.9728062 0.2316206 -0
vn -0.8199581 0.5724236 -0
vn -0.9728062 0.2316206 -0
vn -0.6967357 -0.015482962 -0.7171608
vn -0.9444638 -0.015482962 -0.3282506
vn -0.75866765 -0.10838103 -0.6423994
vn -0.9444638 -0.015482962 -0.3282506
vn -0.82059973 -0.38707525 -0.4204626
vn -0.9444638 -0.015482962 0.3282506
vn -0.9444638 -0.015482962 0.3282506
vn -0.6967357 -0.015482962 0.7171608
vn -0.6967357 -0.07741499 0.71313834
vn -0.97542983 -0.10838103 0.19180775
vn -0.75866765 -0.29417717 0.5812772
vn -0.97542983 -0.2012791 0.08957333
vn -0.82059973 -0.51093936 0.25604108
vn -0.97542983 -0.17031306 -0.1397502
vn -0.8199581 -0.57242346 -0
vn -0.97280633 -0.23162045 -0
vn -0.8199581 -0.57242346 -0
vn -0.97280633 -0.23162045 -0
vn 0.9444637 -0.015482962 -0.32825089
vn 0.6967355 -0.015482962 -0.717161
vn 0.7586675 -0.10838103 -0.6423995
vn 0.9444637 -0.015482962 -0.32825089
vn 0.82059956 -0.38707525 -0.42046297
vn 0.9444637 -0.015482962 0.32825089
vn 0.9754297 -0.17031306 -0.13975106
vn 0.81995815 -0.5724236 -0
vn 0.97280633 -0.23162048 -0
vn 0.81995815 -0.5724236 -0
vn 0.9444637 -0.015482962 0.32825089
vn 0.6967355 -0.015482962 0.717161
vn 0.6967355 -0.07741499 0.7131385
vn 0.97280633 -0.23162048 -0
vn 0.82059956 -0.51093936 0.25604165
vn 0.9754297 -0.2012791 0.08957466
vn 0.7586675 -0.29417717 0.5812774
vn 0.9754297 -0.10838103 0.19180837
g ham_0
f 3/3/3 2/2/2 1/1/1
f 4/4/4 1/1/1 2/2/2
f 1/1/1 4/4/4 5/5/5
f 4/4/4 2/2/2 6/6/6
f 7/7/7 6/6/6 2/2/2
f 6/6/6 7/7/7 8/8/8
f 9/9/9 8/8/8 7/7/7
f 8/8/8 9/9/9 10/10/10
f 11/11/11 10/10/10 9/9/9
f 8/8/8 12/12/12 6/6/6
f 8/8/8 10/10/10 12/12/12
f 6/6/6 13/13/13 4/4/4
f 13/13/13 6/6/6 12/12/12
f 14/14/14 5/5/5 4/4/4
f 14/14/14 4/4/4 13/13/13
f 14/14/14 15/15/15 5/5/5
f 14/14/14 13/13/13 15/15/15
f 16/16/16 5/5/5 15/15/15
f 17/17/17 15/15/15 13/13/13
f 13/13/13 12/12/12 17/17/17
f 18/18/18 17/17/17 12/12/12
f 12/12/12 19/19/19 18/18/18
f 19/19/19 12/12/12 10/10/10
f 20/20/20 18/18/18 19/19/19
f 10/10/10 11/11/11 21/21/21
f 10/10/10 21/21/21 19/19/19
f 22/22/22 21/21/21 11/11/11
f 19/19/19 23/23/23 20/20/20
f 23/23/23 19/19/19 21/21/21
f 24/24/24 20/20/20 23/23/23
f 21/21/21 22/22/22 25/25/25
f 21/21/21 25/25/25 23/23/23
f 26/26/26 25/25/25 22/22/22
f 23/23/23 27/27/27 24/24/24
f 27/27/27 23/23/23 25/25/25
f 28/28/28 24/24/24 27/27/27
f 25/25/25 26/26/26 29/29/29
f 25/25/25 29/29/29 27/27/27
f 30/30/30 29/29/29 26/26/26
f 27/27/27 31/31/31 28/28/28
f 31/31/31 27/27/27 29/29/29
f 32/32/32 28/28/28 31/31/31
f 29/29/29 30/30/30 33/33/33
f 29/29/29 33/33/33 31/31/31
f 34/34/34 33/33/33 30/30/30
f 35/35/35 31/31/31 33/33/33
f 31/31/31 35/35/35 32/32/32
f 36/36/36 32/32/32 35/35/35
f 39/39/39 38/38/38 37/37/37
f 40/40/40 37/37/37 38/38/38
f 38/38/38 41/41/41 40/40/40
f 40/40/40 42/42/42 37/37/37
f 43/43/43 37/37/37 42/42/42
f 42/42/42 44/44/44 43/43/43
f 45/45/45 43/43/43 44/44/44
f 44/44/44 46/46/46 45/45/45
f 47/47/47 45/45/45 46/46/46
f 44/44/44 42/42/42 48/48/48
f 44/44/44 48/48/48 46/46/46
f 42/42/42 40/40/40 49/49/49
f 49/49/49 48/48/48 42/42/42
f 50/50/50 40/40/40 41/41/41
f 50/50/50 49/49/49 40/40/40
f 50/50/50 41/41/41 51/51/51
f 50/50/50 51/51/51 49/49/49
f 52/52/52 51/51/51 41/41/41
f 53/53/53 49/49/49 51/51/51
f 49/49/49 53/53/53 48/48/48
f 54/54/54 48/48/48 53/53/53
f 48/48/48 54/54/54 55/55/55
f 55/55/55 46/46/46 48/48/48
f 56/56/56 55/55/55 54/54/54
f 46/46/46 57/57/57 47/47/47
f 46/46/46 55/55/55 57/57/57
f 58/58/58 47/47/47 57/57/57
f 55/55/55 56/56/56 59/59/59
f 59/59/59 57/57/57 55/55/55
f 60/60/60 59/59/59 56/56/56
f 57/57/57 61/61/61 58/58/58
f 57/57/57 59/59/59 61/61/61
f 62/62/62 58/58/58 61/61/61
f 59/59/59 60/60/60 63/63/63
f 63/63/63 61/61/61 59/59/59
f 64/64/64 63/63/63 60/60/60
f 61/61/61 65/65/65 62/62/62
f 61/61/61 63/63/63 65/65/65
f 66/66/66 62/62/62 65/65/65
f 63/63/63 64/64/64 67/67/67
f 67/67/67 65/65/65 63/63/63
f 68/68/68 67/67/67 64/64/64
f 65/65/65 69/69/69 66/66/66
f 65/65/65 67/67/67 69/69/69
f 70/70/70 66/66/66 69/69/69
f 71/71/71 69/69/69 67/67/67
f 67/67/67 68/68/68 71/71/71
f 72/72/72 71/71/71 68/68/68
f 75/75/75 74/74/74 73/73/73
f 76/76/76 73/73/73 74/74/74
f 73/73/73 77/77/77 75/75/75
f 76/76/76 78/78/78 73/73/73
f 79/79/79 77/77/77 73/73/73
f 77/77/77 79/79/79 80/80/80
f 81/81/81 80/80/80 79/79/79
f 79/79/79 82/82/82 81/81/81
f 83/83/83 81/81/81 82/82/82
f 82/82/82 79/79/79 84/84/84
f 82/82/82 84/84/84 83/83/83
f 84/84/84 79/79/79 73/73/73
f 85/85/85 83/83/83 84/84/84
f 86/86/86 73/73/73 78/78/78
f 78/78/78 87/87/87 86/86/86
f 86/86/86 88/88/88 73/73/73
f 88/88/88 86/86/86 87/87/87
f 88/88/88 84/84/84 73/73/73
f 87/87/87 89/89/89 88/88/88
f 84/84/84 90/90/90 85/85/85
f 90/90/90 84/84/84 88/88/88
f 90/90/90 88/88/88 89/89/89
f 89/89/89 85/85/85 90/90/90
f 93/93/93 92/92/92 91/91/91
f 94/94/94 91/91/91 92/92/92
f 91/91/91 95/95/95 93/93/93
f 96/96/96 95/95/95 91/91/91
f 95/95/95 96/96/96 97/97/97
f 98/98/98 97/97/97 96/96/96
f 98/98/98 96/96/96 99/99/99
f 91/91/91 94/94/94 100/100/100
f 101/101/101 100/100/100 94/94/94
f 100/100/100 102/102/102 91/91/91
f 100/100/100 101/101/101 102/102/102
f 102/102/102 96/96/96 91/91/91
f 103/103/103 102/102/102 101/101/101
f 104/104/104 99/99/99 96/96/96
f 99/99/99 104/104/104 105/105/105
f 104/104/104 96/96/96 106/106/106
f 106/106/106 105/105/105 104/104/104
f 106/106/106 96/96/96 102/102/102
f 105/105/105 106/106/106 107/107/107
f 107/107/107 108/108/108 103/103/103
f 102/102/102 103/103/103 108/108/108
f 108/108/108 107/107/107 106/106/106
f 108/108/108 106/106/106 102/102/102
f 111/111/111 110/110/110 109/109/109
f 112/112/112 109/109/109 110/110/110
f 111/111/111 113/113/113 110/110/110
f 110/110/110 114/114/114 112/112/112
f 112/112/112 114/114/114 115/115/115
f 115/115/115 114/114/114 116/116/116
f 117/117/117 116/116/116 114/114/114
f 114/114/114 118/118/118 117/117/117
f 119/119/119 117/117/117 118/118/118
f 118/118/118 114/114/114 120/120/120
f 118/118/118 120/120/120 119/119/119
f 120/120/120 114/114/114 110/110/110
f 121/121/121 119/119/119 120/120/120
f 122/122/122 110/110/110 113/113/113
f 113/113/113 123/123/123 122/122/122
f 122/122/122 124/124/124 110/110/110
f 124/124/124 122/122/122 123/123/123
f 124/124/124 120/120/120 110/110/110
f 123/123/123 125/125/125 124/124/124
f 120/120/120 126/126/126 121/121/121
f 126/126/126 120/120/120 124/124/124
f 126/126/126 124/124/124 125/125/125
f 125/125/125 121/121/121 126/126/126
f 129/129/129 128/128/128 127/127/127
f 130/130/130 127/127/127 128/128/128
f 129/129/129 127/127/127 131/131/131
f 132/132/132 127/127/127 130/130/130
f 133/133/133 131/131/131 127/127/127
f 131/131/131 133/133/133 134/134/134
f 135/135/135 134/134/134 133/133/133
f 133/133/133 127/127/127 135/135/135
f 134/134/134 135/135/135 136/136/136
f 137/137/137 127/127/127 132/132/132
f 132/132/132 138/138/138 137/137/137
f 139/139/139 137/137/137 138/138/138
f 140/140/140 136/136/136 135/135/135
f 136/136/136 140/140/140 141/141/141
f 135/135/135 127/127/127 142/142/142
f 140/140/140 135/135/135 142/142/142
f 142/142/142 141/141/141 140/140/140
f 142/142/142 127/127/127 137/137/137
f 141/141/141 142/142/142 143/143/143
f 143/143/143 144/144/144 139/139/139
f 137/137/137 139/139/139 144/144/144
f 144/144/144 143/143/143 142/142/142
f 144/144/144 142/142/142 137/137/137
