g Hammer_C
v -0.05347246 -0.5976156 -0.06362969
v -0.073379815 -0.10812852 -0.00039452314
v -0.082747996 -0.6022997 -0.00039452314
v -0.051130414 -0.10812852 -0.046064377
v 0.01678884 -0.5870764 -0.089392185
v -0.07572186 0.30875522 -0.06362969
v -0.1038264 0.30172908 -0.00039452314
v -0.006631613 0.32514948 -0.09056318
v 0.00039452314 -0.10812852 -0.06597173
v 0.08587915 -0.5765372 -0.06362969
v 0.062458694 0.3415438 -0.06362969
v 0.05191952 -0.10812852 -0.046064377
v 0.115154654 -0.5718531 -0.00039452314
v 0.09173423 0.34739894 -0.00039452314
v 0.07299787 -0.10812852 -0.00039452314
v 0.08587915 -0.5765372 0.06401163
v 0.062458694 0.3415438 0.06401163
v 0.05191952 -0.10812852 0.046446323
v 0.01678884 -0.5870764 0.08977413
v -0.006631613 0.32514948 0.08977413
v 0.00039452314 -0.10812852 0.065182686
v -0.05347246 -0.5976156 0.06401163
v -0.07572186 0.30875522 0.06401163
v -0.051130414 -0.10812852 0.046446323
v -0.082747996 -0.6022997 -0.00039452314
v -0.1038264 0.30172908 -0.00039452314
v -0.073379815 -0.10812852 -0.00039452314
v -0.05347246 -0.5976156 -0.06362969
v -0.082747996 -0.6022997 -0.00039452314
v 0.01678884 -0.5870764 -0.089392185
v 0.08587915 -0.5765372 -0.06362969
v 0.115154654 -0.5718531 -0.00039452314
v 0.08587915 -0.5765372 0.06401163
v 0.01678884 -0.5870764 0.08977413
v -0.05347246 -0.5976156 0.06401163
v 0.00039452314 0.17760074 -0.15145633
v -0.26425636 0.2010212 -0.17487678
v -0.26425636 0.17642975 -0.15379837
v 0.00039452314 0.20453423 -0.17370576
v 0.26504543 0.2220996 -0.11632568
v 0.26504543 0.24669105 -0.13623306
v 0.26504543 0.5253942 -0.13623306
v 0.00039452314 0.567551 -0.17370576
v -0.26425636 0.571064 -0.17487678
v -0.26425636 0.59565556 -0.15379837
v 0.00039452314 0.59448445 -0.15145633
v 0.26504543 0.54998565 -0.11632568
v 0.00039452314 0.59448445 0.15066725
v 0.26504543 0.54998565 0.11670762
v -0.26425636 0.59565556 0.15418035
v -0.298216 0.5745771 -0.15731144
v -0.26425636 0.571064 -0.17487678
v -0.298216 0.19750816 -0.15731144
v -0.26425636 0.2010212 -0.17487678
v -0.26425636 0.17642975 -0.15379837
v -0.298216 0.19750816 0.1565224
v -0.26425636 0.17642975 0.15418035
v -0.26425636 0.2010212 0.1740877
v -0.298216 0.5745771 0.1565224
v -0.26425636 0.571064 0.1740877
v -0.26425636 0.571064 0.1740877
v 0.00039452314 0.567551 0.1740877
v 0.26504543 0.5253942 0.13661498
v 0.26504543 0.24669105 0.13661498
v 0.00039452314 0.20453423 0.1740877
v -0.26425636 0.2010212 0.1740877
v -0.26425636 0.17642975 0.15418035
v 0.00039452314 0.17760074 0.15066725
v 0.26504543 0.2220996 0.11670762
v 0.26504543 0.2220996 -0.11632568
v 0.00039452314 0.17760074 -0.15145633
v -0.26425636 0.17642975 -0.15379837
v 0.29900506 0.5230522 0.11436558
v 0.26504543 0.5253942 0.13661498
v 0.29900506 0.2490331 0.11436558
v 0.26504543 0.24669105 0.13661498
v 0.26504543 0.2220996 0.11670762
v 0.29900506 0.2490331 -0.11398363
v 0.26504543 0.2220996 -0.11632568
v 0.26504543 0.24669105 -0.13623306
v 0.29900506 0.5230522 -0.11398363
v 0.26504543 0.5253942 -0.13623306
vt 0.31408912 0.029852815
vt 0.35577714 0.3898855
vt 0.35577714 0.029852815
vt 0.31408912 0.3898855
vt 0.27240115 0.029852815
vt 0.31408912 0.71959966
vt 0.35577714 0.71959966
vt 0.27240115 0.71959966
vt 0.27240115 0.3898855
vt 0.23071316 0.029852815
vt 0.23071316 0.71959966
vt 0.23071316 0.3898855
vt 0.18902516 0.029852815
vt 0.18902516 0.71959966
vt 0.18902516 0.3898855
vt 0.14733717 0.029852815
vt 0.14733717 0.71959966
vt 0.14733717 0.3898855
vt 0.10564917 0.029852815
vt 0.10564917 0.71959966
vt 0.10564917 0.3898855
vt 0.06017136 0.029852815
vt 0.06017136 0.71959966
vt 0.06017136 0.3898855
vt 0.02227318 0.029852815
vt 0.02227318 0.71959966
vt 0.02227318 0.3898855
vt 0.12459826 0.753708
vt 0.07912044 0.7347589
vt 0.14354734 0.80297565
vt 0.12459826 0.8560331
vt 0.07912044 0.8749822
vt 0.033642635 0.8560331
vt 0.014693543 0.80297565
vt 0.033642635 0.753708
vt 0.6513829 0.03743245
vt 0.7688673 0.048801903
vt 0.7688673 0.03743245
vt 0.6513829 0.048801903
vt 0.53010875 0.03743245
vt 0.53010875 0.048801903
vt 0.53010875 0.20418443
vt 0.6513829 0.20418443
vt 0.7688673 0.20418443
vt 0.7688673 0.21555388
vt 0.6513829 0.21555388
vt 0.53010875 0.21555388
vt 0.6513829 0.34440768
vt 0.53010875 0.34440768
vt 0.7688673 0.34440768
vt 0.7916062 0.21176407
vt 0.7916062 0.19281498
vt 0.962148 0.21176407
vt 0.962148 0.19281498
vt 0.9810971 0.20797426
vt 0.962148 0.3519873
vt 0.9810971 0.359567
vt 0.962148 0.3709364
vt 0.7916062 0.3519873
vt 0.7916062 0.3709364
vt 0.7688673 0.359567
vt 0.6513829 0.359567
vt 0.53010875 0.359567
vt 0.53010875 0.51115966
vt 0.6513829 0.51115966
vt 0.7688673 0.51115966
vt 0.7688673 0.52631897
vt 0.6513829 0.52631897
vt 0.53010875 0.52631897
vt 0.53010875 0.6513829
vt 0.6513829 0.6513829
vt 0.7688673 0.6513829
vt 0.51115966 0.3330382
vt 0.51873934 0.3519873
vt 0.39367533 0.3330382
vt 0.3860957 0.3519873
vt 0.3709364 0.33682805
vt 0.39367533 0.23071316
vt 0.3709364 0.22313352
vt 0.3860957 0.21176407
vt 0.51115966 0.23071316
vt 0.51873934 0.21176407
vn -0.7141701 0.015931249 -0.6997909
vn -0.9998133 -0.015806913 0.011110597
vn -0.9998133 0.015931249 0.010931568
vn -0.68243194 -0.015806913 -0.73077816
vn -0.015931249 0.04766941 -0.99873614
vn -0.6506939 -0.07928318 -0.7551898
vn -0.9968707 -0.07904983 -0
vn 0.047545016 -0.047545016 -0.99773693
vn -0.015931249 -0.015806913 -0.9997481
vn 0.65056956 0.07940745 -0.75528383
vn 0.71404576 -0.047545016 -0.69848275
vn 0.68230766 0.015931249 -0.7308915
vn 0.99686015 0.07918275 -0
vn 0.9988709 -0.04750611 -0
vn 0.999689 0.015931249 -0.019186197
vn 0.65056956 0.07940745 0.75528383
vn 0.71404576 -0.047545016 0.69848275
vn 0.68230766 0.015931249 0.7308915
vn -0.015931249 0.04766941 0.99873614
vn 0.047545016 -0.047545016 0.99773693
vn -0.015931249 -0.015806913 0.9997481
vn -0.7141701 0.015931249 0.6997909
vn -0.6506939 -0.07928318 0.7551898
vn -0.68243194 -0.015806913 0.73077816
vn -0.9998133 0.015931249 0.010931568
vn -0.9968707 -0.07904983 -0
vn -0.9998133 -0.015806913 0.011110597
vn 0.14136967 -0.9899569 -0
vn 0.14136967 -0.9899569 -0
vn 0.14136967 -0.9899569 -0
vn 0.14136967 -0.9899569 -0
vn 0.14136967 -0.9899569 -0
vn 0.14136967 -0.9899569 -0
vn 0.14136967 -0.9899569 -0
vn 0.14136967 -0.9899569 -0
vn 0.11102128 -0.9044746 -0.41182515
vn -0.20635998 -0.30145007 -0.9308831
vn -0.23809814 -0.9044746 -0.35388544
vn 0.07928318 -0.33318824 -0.939521
vn 0.3966645 -0.8409983 -0.36793903
vn 0.36492634 -0.30145007 -0.880884
vn 0.36492634 0.30157435 -0.8808415
vn 0.07928318 0.3333125 -0.93947697
vn -0.20635998 0.30157435 -0.9308429
vn -0.23809814 0.90459895 -0.35356754
vn 0.11102128 0.90459895 -0.411552
vn 0.3966645 0.8411226 -0.3676547
vn 0.11102128 0.90459895 0.411552
vn 0.3966645 0.8411226 0.3676547
vn -0.23809814 0.90459895 0.35356754
vn -0.7776464 0.42852688 -0.46003345
vn -0.20635998 0.30157435 -0.9308429
vn -0.7776464 -0.4284026 -0.46014917
vn -0.20635998 -0.30145007 -0.9308831
vn -0.23809814 -0.9044746 -0.35388544
vn -0.7776464 -0.4284026 0.46014917
vn -0.23809814 -0.9044746 0.35388544
vn -0.20635998 -0.30145007 0.9308831
vn -0.7776464 0.42852688 0.46003345
vn -0.20635998 0.30157435 0.9308429
vn -0.20635998 0.30157435 0.9308429
vn 0.07928318 0.3333125 0.93947697
vn 0.36492634 0.30157435 0.8808415
vn 0.36492634 -0.30145007 0.880884
vn 0.07928318 -0.33318824 0.939521
vn -0.20635998 -0.30145007 0.9308831
vn -0.23809814 -0.9044746 0.35388544
vn 0.11102128 -0.9044746 0.41182515
vn 0.3966645 -0.8409983 0.36793903
vn 0.3966645 -0.8409983 -0.36793903
vn 0.11102128 -0.9044746 -0.41182515
vn -0.23809814 -0.9044746 -0.35388544
vn 0.8409983 0.36505067 0.39932427
vn 0.36492634 0.30157435 0.8808415
vn 0.8409983 -0.36492634 0.3994379
vn 0.36492634 -0.30145007 0.880884
vn 0.3966645 -0.8409983 0.36793903
vn 0.8409983 -0.36492634 -0.3994379
vn 0.3966645 -0.8409983 -0.36793903
vn 0.36492634 -0.30145007 -0.880884
vn 0.8409983 0.36505067 -0.39932427
vn 0.36492634 0.30157435 -0.8808415
g Hammer_C_0
f 3/3/3 2/2/2 1/1/1
f 2/2/2 4/4/4 1/1/1
f 1/1/1 4/4/4 5/5/5
f 4/4/4 2/2/2 6/6/6
f 2/2/2 7/7/7 6/6/6
f 4/4/4 6/6/6 8/8/8
f 4/4/4 9/9/9 5/5/5
f 9/9/9 4/4/4 8/8/8
f 5/5/5 9/9/9 10/10/10
f 9/9/9 8/8/8 11/11/11
f 9/9/9 12/12/12 10/10/10
f 12/12/12 9/9/9 11/11/11
f 10/10/10 12/12/12 13/13/13
f 12/12/12 11/11/11 14/14/14
f 12/12/12 15/15/15 13/13/13
f 15/15/15 12/12/12 14/14/14
f 13/13/13 15/15/15 16/16/16
f 15/15/15 14/14/14 17/17/17
f 15/15/15 18/18/18 16/16/16
f 18/18/18 15/15/15 17/17/17
f 16/16/16 18/18/18 19/19/19
f 18/18/18 17/17/17 20/20/20
f 18/18/18 21/21/21 19/19/19
f 21/21/21 18/18/18 20/20/20
f 19/19/19 21/21/21 22/22/22
f 21/21/21 20/20/20 23/23/23
f 21/21/21 24/24/24 22/22/22
f 24/24/24 21/21/21 23/23/23
f 22/22/22 24/24/24 25/25/25
f 24/24/24 23/23/23 26/26/26
f 24/24/24 27/27/27 25/25/25
f 27/27/27 24/24/24 26/26/26
f 30/30/30 29/29/29 28/28/28
f 31/31/31 29/29/29 30/30/30
f 32/32/32 29/29/29 31/31/31
f 33/33/33 29/29/29 32/32/32
f 34/34/34 29/29/29 33/33/33
f 35/35/35 29/29/29 34/34/34
f 38/38/38 37/37/37 36/36/36
f 37/37/37 39/39/39 36/36/36
f 36/36/36 39/39/39 40/40/40
f 39/39/39 41/41/41 40/40/40
f 42/42/42 41/41/41 39/39/39
f 43/43/43 39/39/39 37/37/37
f 43/43/43 42/42/42 39/39/39
f 44/44/44 43/43/43 37/37/37
f 43/43/43 44/44/44 45/45/45
f 42/42/42 43/43/43 46/46/46
f 46/46/46 43/43/43 45/45/45
f 47/47/47 42/42/42 46/46/46
f 46/46/46 45/45/45 48/48/48
f 47/47/47 46/46/46 49/49/49
f 46/46/46 48/48/48 49/49/49
f 45/45/45 50/50/50 48/48/48
f 45/45/45 51/51/51 50/50/50
f 45/45/45 52/52/52 51/51/51
f 51/51/51 52/52/52 53/53/53
f 52/52/52 54/54/54 53/53/53
f 53/53/53 54/54/54 55/55/55
f 56/56/56 53/53/53 55/55/55
f 51/51/51 53/53/53 56/56/56
f 57/57/57 56/56/56 55/55/55
f 58/58/58 56/56/56 57/57/57
f 59/59/59 51/51/51 56/56/56
f 56/56/56 58/58/58 59/59/59
f 51/51/51 59/59/59 50/50/50
f 58/58/58 60/60/60 59/59/59
f 59/59/59 60/60/60 50/50/50
f 50/50/50 61/61/61 48/48/48
f 61/61/61 62/62/62 48/48/48
f 48/48/48 62/62/62 49/49/49
f 62/62/62 63/63/63 49/49/49
f 63/63/63 62/62/62 64/64/64
f 62/62/62 61/61/61 65/65/65
f 62/62/62 65/65/65 64/64/64
f 61/61/61 66/66/66 65/65/65
f 65/65/65 66/66/66 67/67/67
f 64/64/64 65/65/65 68/68/68
f 68/68/68 65/65/65 67/67/67
f 69/69/69 64/64/64 68/68/68
f 69/69/69 68/68/68 70/70/70
f 68/68/68 71/71/71 70/70/70
f 68/68/68 67/67/67 71/71/71
f 67/67/67 72/72/72 71/71/71
f 74/74/74 73/73/73 49/49/49
f 49/49/49 73/73/73 47/47/47
f 75/75/75 73/73/73 74/74/74
f 76/76/76 75/75/75 74/74/74
f 75/75/75 76/76/76 77/77/77
f 78/78/78 75/75/75 77/77/77
f 73/73/73 75/75/75 78/78/78
f 79/79/79 78/78/78 77/77/77
f 80/80/80 78/78/78 79/79/79
f 73/73/73 81/81/81 47/47/47
f 81/81/81 73/73/73 78/78/78
f 78/78/78 80/80/80 81/81/81
f 81/81/81 82/82/82 47/47/47
f 80/80/80 82/82/82 81/81/81
