g ice
v 0.41959432 -0.3841124 -0.3841124
v 0.39071366 -0.00041249394 -0.412993
v 0.39483947 -0.3964898 -0.4220698
v 0.412993 -0.00041249394 -0.39071366
v 0.39483947 0.39483964 -0.42041945
v 0.37338528 0.00041267276 -0.00041249394
v 0.412993 -0.39071366 0.00041267276
v 0.42041945 -0.39483947 0.39483964
v 0.412993 0.00041267276 0.39071387
v 0.42041945 0.39483964 -0.39483947
v 0.412993 0.39071387 -0.00041249394
v 0.41959432 0.38411254 0.38411254
v 0.39483947 0.42041963 -0.39483947
v 0.00041249394 0.39071387 -0.412993
v 0.39071366 0.4129932 -0.00041249394
v 0.00041249394 0.4129932 -0.39071366
v 0.39483947 0.42206997 0.39648998
v -0.39483964 0.39483964 -0.42041945
v -0.39483964 0.42041963 -0.39483947
v 0.39483947 0.39648998 0.42206997
v -0.00041267276 0.4129932 0.39071387
v 0.39071366 0.00041267276 0.4129932
v -0.00041267276 0.39071387 0.4129932
v 0.412993 0.00041267276 0.39071387
v 0.39483947 -0.39483947 0.42041963
v 0.42041945 -0.39483947 0.39483964
v -0.39483964 0.42041963 0.39483964
v -0.39483964 0.39483964 0.42041963
v -0.42041963 0.39483964 -0.39483947
v -0.39071387 -0.00041249394 -0.412993
v -0.4129932 0.39071387 -0.00041249394
v -0.4129932 -0.00041249394 -0.39071366
v -0.39483964 -0.39483947 -0.42041945
v -0.42041963 -0.39483947 -0.39483947
v -0.39071387 0.4129932 -0.00041249394
v -0.42041963 0.39483964 0.39483964
v -0.4129932 -0.00041249394 0.39071387
v -0.39071387 -0.00041249394 0.4129932
v -0.42041963 -0.39483947 0.39483964
v -0.39483964 -0.39483947 0.42041963
v 0.39483947 -0.42041945 0.39483964
v 0.00041249394 -0.37338528 -0.00041249394
v 0.00041249394 -0.412993 0.39071387
v 0.39071366 -0.412993 0.00041267276
v -0.39483964 -0.42041945 0.39483964
v 0.39483947 -0.4220698 -0.3964898
v -0.39071387 -0.412993 -0.00041249394
v 0.00041249394 -0.412993 -0.39071366
v -0.39483964 -0.42041945 -0.39483947
v 0.39483947 -0.3964898 -0.4220698
v 0.00041249394 -0.00041249394 -0.37338528
v 0.00041249394 -0.39071366 -0.412993
v 0.39071366 -0.00041249394 -0.412993
v -0.39483964 -0.39483947 -0.42041945
v 0.39483947 0.39483964 -0.42041945
v -0.39071387 -0.00041249394 -0.412993
v 0.00041249394 0.39071387 -0.412993
v -0.39483964 0.39483964 -0.42041945
v -0.39483964 0.42041963 0.39483964
v -0.39071387 0.4129932 -0.00041249394
v -0.00041267276 0.3733855 -0.00041249394
v -0.00041267276 0.4129932 0.39071387
v -0.39483964 0.42041963 -0.39483947
v 0.39483947 0.42206997 0.39648998
v 0.00041249394 0.4129932 -0.39071366
v 0.39071366 0.4129932 -0.00041249394
v 0.39483947 0.42041963 -0.39483947
v 0.39483947 0.39648998 0.42206997
v -0.00041267276 0.00041267276 0.3733855
v -0.00041267276 0.39071387 0.4129932
v 0.39071366 0.00041267276 0.4129932
v -0.39483964 0.39483964 0.42041963
v 0.39483947 -0.39483947 0.42041963
v -0.39071387 -0.00041249394 0.4129932
v 0.00041249394 -0.39071366 0.4129932
v -0.39483964 -0.39483947 0.42041963
v -0.42041963 -0.39483947 0.39483964
v -0.3733855 -0.00041249394 -0.00041249394
v -0.4129932 -0.00041249394 0.39071387
v -0.4129932 -0.39071366 -0.00041249394
v -0.42041963 0.39483964 0.39483964
v -0.42041963 -0.39483947 -0.39483947
v -0.4129932 0.39071387 -0.00041249394
v -0.4129932 -0.00041249394 -0.39071366
v -0.42041963 0.39483964 -0.39483947
v 0.39483947 -0.42041945 0.39483964
v 0.39483947 -0.39483947 0.42041963
v 0.42041945 -0.39483947 0.39483964
v 0.00041249394 -0.39071366 0.4129932
v 0.39071366 -0.412993 0.00041267276
v 0.00041249394 -0.412993 0.39071387
v 0.412993 -0.39071366 0.00041267276
v -0.39483964 -0.39483947 0.42041963
v 0.39483947 -0.4220698 -0.3964898
v 0.41959432 -0.3841124 -0.3841124
v 0.39483947 -0.3964898 -0.4220698
v 0.00041249394 -0.412993 -0.39071366
v 0.00041249394 -0.39071366 -0.412993
v -0.39483964 -0.42041945 0.39483964
v -0.42041963 -0.39483947 0.39483964
v -0.4129932 -0.39071366 -0.00041249394
v -0.39071387 -0.412993 -0.00041249394
v -0.42041963 -0.39483947 -0.39483947
v -0.39483964 -0.42041945 -0.39483947
v -0.39483964 -0.39483947 -0.42041945
vt 0.79905117 0.48634338
vt 0.79712087 0.46897075
vt 0.79712087 0.48634338
vt 0.79905117 0.46897075
vt 0.79712087 0.44966778
vt 0.81642383 0.46897075
vt 0.81642383 0.48634338
vt 0.8337965 0.48634338
vt 0.8337965 0.46897075
vt 0.79905117 0.45159808
vt 0.81642383 0.45159808
vt 0.8337965 0.45159808
vt 0.79905117 0.44966778
vt 0.79712087 0.43229514
vt 0.81642383 0.44966778
vt 0.79905117 0.43229514
vt 0.8337965 0.44966778
vt 0.79712087 0.41492248
vt 0.79905117 0.41492248
vt 0.8337965 0.44966778
vt 0.8337965 0.43229514
vt 0.85309947 0.44966778
vt 0.83572674 0.43229514
vt 0.8511691 0.45159808
vt 0.8704721 0.44966778
vt 0.8704721 0.45159808
vt 0.8337965 0.41492248
vt 0.83572674 0.41492248
vt 0.79905117 0.41299218
vt 0.7797482 0.41492248
vt 0.81642383 0.41299218
vt 0.7797482 0.41299218
vt 0.7623756 0.41492248
vt 0.7623756 0.41299218
vt 0.81642383 0.41492248
vt 0.8337965 0.41299218
vt 0.8337965 0.39561954
vt 0.83572674 0.39561954
vt 0.8337965 0.37824687
vt 0.83572674 0.37824687
vt 0.79133 0.45738897
vt 0.7739574 0.4747616
vt 0.79133 0.4747616
vt 0.7739574 0.45738897
vt 0.79133 0.49406457
vt 0.75658464 0.45738897
vt 0.7739574 0.49213427
vt 0.75658464 0.4747616
vt 0.75658464 0.49406457
vt 0.7623756 0.44966778
vt 0.7797482 0.43229514
vt 0.7623756 0.43229514
vt 0.7797482 0.44966778
vt 0.7623756 0.41492248
vt 0.79712087 0.44966778
vt 0.7797482 0.41492248
vt 0.79712087 0.43229514
vt 0.79712087 0.41492248
vt 0.8337965 0.41492248
vt 0.81642383 0.41492248
vt 0.81642383 0.43229514
vt 0.8337965 0.43229514
vt 0.79905117 0.41492248
vt 0.8337965 0.44966778
vt 0.79905117 0.43229514
vt 0.81642383 0.44966778
vt 0.79905117 0.44966778
vt 0.8337965 0.44966778
vt 0.85309947 0.43229514
vt 0.83572674 0.43229514
vt 0.85309947 0.44966778
vt 0.83572674 0.41492248
vt 0.8704721 0.44966778
vt 0.85309947 0.41492248
vt 0.8704721 0.43229514
vt 0.8704721 0.41492248
vt 0.8337965 0.37824687
vt 0.81642383 0.39561954
vt 0.8337965 0.39561954
vt 0.81642383 0.37824687
vt 0.8337965 0.41299218
vt 0.79905117 0.37824687
vt 0.81642383 0.41299218
vt 0.79905117 0.39561954
vt 0.79905117 0.41299218
vt 0.79133 0.45738897
vt 0.7932603 0.45738897
vt 0.7932603 0.45545867
vt 0.7932603 0.4747616
vt 0.7739574 0.45738897
vt 0.79133 0.4747616
vt 0.7739574 0.45738897
vt 0.7932603 0.49406457
vt 0.75658464 0.45738897
vt 0.75658464 0.45545867
vt 0.7546544 0.45738897
vt 0.75658464 0.4747616
vt 0.75658464 0.4747616
vt 0.79133 0.49406457
vt 0.7932603 0.49406457
vt 0.7739574 0.49406457
vt 0.7739574 0.49213427
vt 0.75658464 0.49406457
vt 0.75658464 0.49406457
vt 0.7546544 0.49406457
vn 0.9363899 -0.2063232 -0.28390953
vn 0.7141957 -0.015870988 -0.6997661
vn 0.5872276 -0.46025944 -0.66582656
vn 0.9363899 -0.015870988 -0.35060233
vn 0.46025944 0.46025944 -0.7591591
vn 0.999874 -0.015870988 -0.00034665503
vn 0.9363899 -0.33329135 0.109958015
vn 0.9046479 -0.33329135 0.26557308
vn 0.9363899 -0.015870988 0.35060233
vn 0.9046479 0.3332913 -0.26557317
vn 0.9363899 0.3332913 -0.10995822
vn 0.9363899 0.23806524 0.25787368
vn 0.46025944 0.7776798 -0.42822355
vn -0.015871048 0.7141957 -0.6997661
vn 0.70710677 0.70710677 -0
vn -0.015871048 0.7141957 -0.6997661
vn 0.5872276 0.68245375 0.4352248
vn -0.46025944 0.46025944 -0.7591591
vn -0.46025944 0.7776798 -0.42822355
vn 0.5872276 0.46025944 0.66582656
vn -0.015871048 0.7141957 0.6997661
vn 0.7141957 0.015871048 0.6997661
vn -0.015871048 0.7141957 0.6997661
vn 0.9363899 -0.015870988 0.35060233
vn 0.46025944 -0.46025944 0.7591591
vn 0.9046479 -0.33329135 0.26557308
vn -0.46025944 0.7776798 0.42822355
vn -0.46025944 0.46025944 0.7591591
vn -0.7776798 0.46025944 -0.42822352
vn -0.7141957 0.015871048 -0.6997661
vn -0.70710677 0.70710677 -0
vn -0.7141957 0.015871048 -0.6997661
vn -0.46025944 -0.46025944 -0.7591591
vn -0.7776798 -0.46025944 -0.42822352
vn -0.70710677 0.70710677 -0
vn -0.7776798 0.46025944 0.42822352
vn -0.7141957 0.015871048 0.6997661
vn -0.7141957 0.015871048 0.6997661
vn -0.7776798 -0.46025944 0.42822352
vn -0.46025944 -0.46025944 0.7591591
vn -0.04756513 -0.99886817 -0
vn -0.015871048 -0.999874 -0.00034526698
vn -0.015871048 -0.999874 -0.00034526698
vn -0.110431515 -0.9938838 -0
vn 0.04756513 -0.99886817 -0
vn -0.04756513 -0.99886817 -0
vn 0.110431515 -0.9938838 -0
vn -0.015871048 -0.999874 -0.00034526698
vn 0.04756513 -0.99886817 -0
vn -0.047613025 0.047613025 -0.99773043
vn -0.015871048 0.015871048 -0.99974805
vn -0.015871048 0.1110971 -0.9936828
vn -0.1110971 0.015871048 -0.9936828
vn 0.047613025 0.047613025 -0.99773043
vn -0.047613025 -0.047613025 -0.99773043
vn 0.1110971 0.015871048 -0.9936828
vn -0.015871048 -0.1110971 -0.9936828
vn 0.047613025 -0.047613025 -0.99773043
vn 0.04756513 0.99886817 -0
vn 0.110431515 0.9938838 -0
vn -0.015871048 0.999874 -0.00034526698
vn -0.015871048 0.999874 -0.00034526698
vn 0.04756513 0.99886817 -0
vn -0.04756513 0.99886817 -0
vn -0.015871048 0.999874 -0.00034526698
vn -0.110431515 0.9938838 -0
vn -0.04756513 0.99886817 -0
vn -0.047613025 -0.047613025 0.99773043
vn -0.015871048 -0.015870988 0.99974805
vn -0.015871048 -0.1110971 0.9936828
vn -0.1110971 -0.015870988 0.9936828
vn 0.047613025 -0.047613025 0.99773043
vn -0.047613025 0.047613025 0.99773043
vn 0.1110971 0.015871048 0.9936828
vn -0.015871048 0.1110971 0.9936828
vn 0.047613025 0.047613025 0.99773043
vn -0.99886817 0.04756513 -0
vn -0.999874 0.015871048 -0.00034391563
vn -0.999874 0.015871048 -0.00034391563
vn -0.9938838 0.110431515 -0
vn -0.99886817 -0.04756513 -0
vn -0.99886817 0.04756513 -0
vn -0.9938838 -0.110431515 -0
vn -0.999874 0.015871048 -0.00034391563
vn -0.99886817 -0.04756513 -0
vn 0.46025944 -0.7776798 0.42822355
vn 0.46025944 -0.46025944 0.7591591
vn 0.9046479 -0.33329135 0.26557308
vn -0.015871048 -0.7141957 0.6997661
vn 0.70710677 -0.70710677 -0
vn -0.015871048 -0.7141957 0.6997661
vn 0.9363899 -0.33329135 0.109958015
vn -0.46025944 -0.46025944 0.7591591
vn 0.5872276 -0.68245363 -0.435225
vn 0.9363899 -0.2063232 -0.28390953
vn 0.5872276 -0.46025944 -0.66582656
vn -0.015871048 -0.7141957 -0.6997661
vn -0.015871048 -0.7141957 -0.6997661
vn -0.46025944 -0.7776798 0.42822355
vn -0.7776798 -0.46025944 0.42822352
vn -0.70710677 -0.70710677 -0
vn -0.70710677 -0.70710677 -0
vn -0.7776798 -0.46025944 -0.42822352
vn -0.46025944 -0.7776798 -0.42822355
vn -0.46025944 -0.46025944 -0.7591591
g ice_0
f 3/3/3 2/2/2 1/1/1
f 4/4/4 1/1/1 2/2/2
f 2/2/2 5/5/5 4/4/4
f 4/4/4 6/6/6 1/1/1
f 7/7/7 1/1/1 6/6/6
f 7/7/7 6/6/6 8/8/8
f 9/9/9 8/8/8 6/6/6
f 10/10/10 4/4/4 5/5/5
f 10/10/10 6/6/6 4/4/4
f 6/6/6 11/11/11 9/9/9
f 11/11/11 6/6/6 10/10/10
f 12/12/12 9/9/9 11/11/11
f 10/10/10 5/5/5 13/13/13
f 5/5/5 14/14/14 13/13/13
f 13/13/13 15/15/15 10/10/10
f 11/11/11 10/10/10 15/15/15
f 16/16/16 13/13/13 14/14/14
f 15/15/15 17/17/17 11/11/11
f 12/12/12 11/11/11 17/17/17
f 14/14/14 18/18/18 16/16/16
f 19/19/19 16/16/16 18/18/18
f 12/12/12 17/17/17 20/20/20
f 17/17/17 21/21/21 20/20/20
f 20/20/20 22/22/22 12/12/12
f 23/23/23 20/20/20 21/21/21
f 24/24/24 12/12/12 22/22/22
f 22/22/22 25/25/25 24/24/24
f 26/26/26 24/24/24 25/25/25
f 21/21/21 27/27/27 23/23/23
f 28/28/28 23/23/23 27/27/27
f 29/29/29 19/19/19 18/18/18
f 18/18/18 30/30/30 29/29/29
f 29/29/29 31/31/31 19/19/19
f 32/32/32 29/29/29 30/30/30
f 30/30/30 33/33/33 32/32/32
f 34/34/34 32/32/32 33/33/33
f 35/35/35 19/19/19 31/31/31
f 31/31/31 36/36/36 35/35/35
f 27/27/27 35/35/35 36/36/36
f 36/36/36 28/28/28 27/27/27
f 36/36/36 37/37/37 28/28/28
f 38/38/38 28/28/28 37/37/37
f 37/37/37 39/39/39 38/38/38
f 40/40/40 38/38/38 39/39/39
f 43/43/43 42/42/42 41/41/41
f 44/44/44 41/41/41 42/42/42
f 43/43/43 45/45/45 42/42/42
f 44/44/44 42/42/42 46/46/46
f 47/47/47 42/42/42 45/45/45
f 48/48/48 46/46/46 42/42/42
f 47/47/47 49/49/49 42/42/42
f 48/48/48 42/42/42 49/49/49
f 52/52/52 51/51/51 50/50/50
f 53/53/53 50/50/50 51/51/51
f 52/52/52 54/54/54 51/51/51
f 53/53/53 51/51/51 55/55/55
f 56/56/56 51/51/51 54/54/54
f 57/57/57 55/55/55 51/51/51
f 58/58/58 51/51/51 56/56/56
f 57/57/57 51/51/51 58/58/58
f 61/61/61 60/60/60 59/59/59
f 62/62/62 61/61/61 59/59/59
f 63/63/63 60/60/60 61/61/61
f 64/64/64 61/61/61 62/62/62
f 65/65/65 63/63/63 61/61/61
f 66/66/66 61/61/61 64/64/64
f 65/65/65 61/61/61 67/67/67
f 66/66/66 67/67/67 61/61/61
f 70/70/70 69/69/69 68/68/68
f 71/71/71 68/68/68 69/69/69
f 70/70/70 72/72/72 69/69/69
f 71/71/71 69/69/69 73/73/73
f 72/72/72 74/74/74 69/69/69
f 75/75/75 73/73/73 69/69/69
f 74/74/74 76/76/76 69/69/69
f 69/69/69 76/76/76 75/75/75
f 79/79/79 78/78/78 77/77/77
f 80/80/80 77/77/77 78/78/78
f 79/79/79 81/81/81 78/78/78
f 80/80/80 78/78/78 82/82/82
f 83/83/83 78/78/78 81/81/81
f 84/84/84 82/82/82 78/78/78
f 83/83/83 85/85/85 78/78/78
f 85/85/85 84/84/84 78/78/78
f 88/88/88 87/87/87 86/86/86
f 87/87/87 89/89/89 86/86/86
f 86/86/86 90/90/90 88/88/88
f 91/91/91 86/86/86 89/89/89
f 92/92/92 88/88/88 90/90/90
f 89/89/89 93/93/93 91/91/91
f 90/90/90 94/94/94 92/92/92
f 95/95/95 92/92/92 94/94/94
f 95/95/95 94/94/94 96/96/96
f 94/94/94 97/97/97 96/96/96
f 98/98/98 96/96/96 97/97/97
f 99/99/99 91/91/91 93/93/93
f 100/100/100 99/99/99 93/93/93
f 100/100/100 101/101/101 99/99/99
f 102/102/102 99/99/99 101/101/101
f 101/101/101 103/103/103 102/102/102
f 97/97/97 104/104/104 98/98/98
f 104/104/104 102/102/102 103/103/103
f 105/105/105 98/98/98 104/104/104
f 103/103/103 105/105/105 104/104/104
