g IceCreamCone_01
v -0.10829443 -0.1866185 -0.1497544
v -0.00043272972 -0.1866185 -0.1852532
v 0.10879427 -0.1866185 -0.1497544
v -0.1765613 -0.1866185 -0.05691141
v 0.17569584 -0.1866185 -0.05691141
v 0.17569584 -0.1866185 0.057776928
v -0.1765613 -0.1866185 0.057776928
v -0.10829443 -0.1866185 0.14925456
v 0.10879427 -0.1866185 0.14925456
v -0.00043272972 -0.1866185 0.18475336
v -0.00043272972 0.053680897 0.25165486
v -0.00043272972 0.053680897 0.2830577
v -0.16700393 0.053680897 0.2284441
v -0.14788926 0.053680897 0.20386803
v 0.14838904 0.053680897 0.20386803
v -0.2694043 0.053680897 0.08781439
v 0.16613847 0.053680897 0.2284441
v -0.23936689 0.053680897 0.078257024
v 0.23986667 0.053680897 0.078257024
v -0.2694043 0.053680897 -0.08694887
v 0.26990414 0.053680897 0.08781439
v -0.23936689 0.053680897 -0.077391505
v 0.23986667 0.053680897 -0.077391505
v -0.16700393 0.053680897 -0.228944
v 0.26990414 0.053680897 -0.08694887
v -0.14788926 0.053680897 -0.20436794
v 0.14838904 0.053680897 -0.20436794
v -0.00043272972 0.053680897 -0.28355753
v 0.16613847 0.053680897 -0.228944
v -0.00043272972 0.053680897 -0.25215477
v 0.14838904 0.053680897 0.20386803
v 0.17569584 -0.1866185 0.057776928
v 0.23986667 0.053680897 0.078257024
v 0.10879427 -0.1866185 0.14925456
v 0.17569584 -0.1866185 -0.05691141
v -0.00043272972 0.053680897 0.25165486
v 0.23986667 0.053680897 -0.077391505
v -0.00043272972 -0.1866185 0.18475336
v 0.10879427 -0.1866185 -0.1497544
v -0.14788926 0.053680897 0.20386803
v 0.14838904 0.053680897 -0.20436794
v -0.10829443 -0.1866185 0.14925456
v -0.00043272972 -0.1866185 -0.1852532
v -0.23936689 0.053680897 0.078257024
v -0.00043272972 0.053680897 -0.25215477
v -0.1765613 -0.1866185 0.057776928
v -0.10829443 -0.1866185 -0.1497544
v -0.23936689 0.053680897 -0.077391505
v -0.14788926 0.053680897 -0.20436794
v -0.1765613 -0.1866185 -0.05691141
v -0.00043272972 -0.80238587 0.018182158
v -0.009990096 -0.80238587 0.014086127
v -0.16700393 0.053680897 0.2284441
v -0.00043272972 0.053680897 0.2830577
v -0.2694043 0.053680897 0.08781439
v -0.00043272972 -0.8146739 0.00043272972
v 0.010489941 -0.80238587 0.014086127
v -0.016816795 -0.80238587 0.0058941245
v 0.16613847 0.053680897 0.2284441
v -0.2694043 0.053680897 -0.08694887
v 0.01731664 -0.80238587 0.0058941245
v 0.26990414 0.053680897 0.08781439
v -0.016816795 -0.80238587 -0.0050286055
v -0.16700393 0.053680897 -0.228944
v 0.01731664 -0.80238587 -0.0050286055
v 0.26990414 0.053680897 -0.08694887
v -0.009990096 -0.80238587 -0.014585972
v -0.00043272972 0.053680897 -0.28355753
v 0.010489941 -0.80238587 -0.014585972
v 0.16613847 0.053680897 -0.228944
v -0.00043272972 -0.80238587 -0.01731664
v -0.14106256 0.14925456 0.00043272972
v -0.100102425 0.14925456 -0.099236906
v -0.1615426 0.268039 -0.16067713
v -0.2270788 0.268039 0.00043272972
v -0.100102425 0.14925456 0.100102425
v -0.00043272972 0.268039 -0.22757864
v -0.00043272972 0.14925456 -0.14019704
v -0.1615426 0.268039 0.1615426
v -0.00043272972 0.14925456 0.14106256
v 0.16067713 0.268039 -0.16067713
v 0.099236906 0.14925456 -0.099236906
v -0.00043272972 0.268039 0.2270788
v 0.099236906 0.14925456 0.100102425
v 0.22757864 0.268039 0.00043272972
v 0.14019704 0.14925456 0.00043272972
v 0.16067713 0.268039 0.1615426
v -0.1615426 0.41686082 -0.16067713
v -0.00043272972 0.41686082 -0.22757864
v -0.2270788 0.41686082 0.00043272972
v 0.16067713 0.41686082 -0.16067713
v -0.1615426 0.41686082 0.1615426
v -0.00043272972 0.41686082 0.2270788
v 0.22757864 0.41686082 0.00043272972
v 0.16067713 0.41686082 0.1615426
v -0.100102425 0.53701055 -0.099236906
v -0.00043272972 0.53701055 -0.14019704
v -0.00043272972 0.58206666 0.00043272972
v -0.14106256 0.53701055 0.00043272972
v 0.099236906 0.53701055 -0.099236906
v -0.100102425 0.53701055 0.100102425
v 0.14019704 0.53701055 0.00043272972
v -0.00043272972 0.53701055 0.14106256
v 0.099236906 0.53701055 0.100102425
v -0.00043272972 0.11921716 0.2270788
v -0.100102425 0.23800147 0.100102425
v -0.00043272972 0.23800147 0.14106256
v -0.00043272972 0.284423 0.00043272972
v -0.1615426 0.11921716 0.1615426
v -0.14106256 0.23800147 0.00043272972
v 0.099236906 0.23800147 0.100102425
v 0.16067713 0.11921716 0.1615426
v -0.00043272972 -0.029604673 0.2270788
v 0.16067713 -0.029604673 0.1615426
v -0.2270788 0.11921716 0.00043272972
v -0.100102425 0.23800147 -0.099236906
v -0.1615426 -0.029604673 0.1615426
v 0.22757864 0.11921716 0.00043272972
v 0.22757864 -0.029604673 0.00043272972
v 0.14019704 0.23800147 0.00043272972
v -0.1615426 0.11921716 -0.16067713
v -0.00043272972 0.23800147 -0.14019704
v 0.099236906 0.23800147 -0.099236906
v 0.16067713 0.11921716 -0.16067713
v -0.00043272972 0.11921716 -0.22757864
v -0.2270788 -0.029604673 0.00043272972
v 0.16067713 -0.029604673 -0.16067713
v -0.1615426 -0.029604673 -0.16067713
v -0.00043272972 -0.029604673 -0.22757864
v -0.100102425 -0.14838904 0.100102425
v -0.14106256 -0.14838904 0.00043272972
v -0.00043272972 -0.19481057 0.00043272972
v -0.00043272972 -0.14838904 0.14106256
v -0.100102425 -0.14838904 -0.099236906
v 0.099236906 -0.14838904 0.100102425
v -0.00043272972 -0.14838904 -0.14019704
v 0.14019704 -0.14838904 0.00043272972
v 0.099236906 -0.14838904 -0.099236906
vt 0.8444852 0.1547794
vt 0.8444852 0.1547794
vt 0.8444852 0.1547794
vt 0.8444852 0.1547794
vt 0.8444852 0.1547794
vt 0.8444852 0.1547794
vt 0.8444852 0.1547794
vt 0.8444852 0.1547794
vt 0.8444852 0.1547794
vt 0.8444852 0.1547794
vt 0.8444852 0.1547794
vt 0.8444852 0.1547794
vt 0.8444852 0.1547794
vt 0.8444852 0.1547794
vt 0.8444852 0.1547794
vt 0.8444852 0.1547794
vt 0.8444852 0.1547794
vt 0.8444852 0.1547794
vt 0.8444852 0.1547794
vt 0.8444852 0.1547794
vt 0.8444852 0.1547794
vt 0.8444852 0.1547794
vt 0.8444852 0.1547794
vt 0.8444852 0.1547794
vt 0.8444852 0.1547794
vt 0.8444852 0.1547794
vt 0.8444852 0.1547794
vt 0.8444852 0.1547794
vt 0.8444852 0.1547794
vt 0.8444852 0.1547794
vt 0.8444852 0.1547794
vt 0.8444852 0.1547794
vt 0.8444852 0.1547794
vt 0.8444852 0.1547794
vt 0.8444852 0.1547794
vt 0.8444852 0.1547794
vt 0.8444852 0.1547794
vt 0.8444852 0.1547794
vt 0.8444852 0.1547794
vt 0.8444852 0.1547794
vt 0.8444852 0.1547794
vt 0.8444852 0.1547794
vt 0.8444852 0.1547794
vt 0.8444852 0.1547794
vt 0.8444852 0.1547794
vt 0.8444852 0.1547794
vt 0.8444852 0.1547794
vt 0.8444852 0.1547794
vt 0.8444852 0.1547794
vt 0.8444852 0.1547794
vt 0.8444852 0.1547794
vt 0.8444852 0.1547794
vt 0.8444852 0.1547794
vt 0.8444852 0.1547794
vt 0.8444852 0.1547794
vt 0.8444852 0.1547794
vt 0.8444852 0.1547794
vt 0.8444852 0.1547794
vt 0.8444852 0.1547794
vt 0.8444852 0.1547794
vt 0.8444852 0.1547794
vt 0.8444852 0.1547794
vt 0.8444852 0.1547794
vt 0.8444852 0.1547794
vt 0.8444852 0.1547794
vt 0.8444852 0.1547794
vt 0.8444852 0.1547794
vt 0.8444852 0.1547794
vt 0.8444852 0.1547794
vt 0.8444852 0.1547794
vt 0.8444852 0.1547794
vt 0.4052696 0.2817402
vt 0.4052696 0.2817402
vt 0.4052696 0.2817402
vt 0.4052696 0.2817402
vt 0.4052696 0.2817402
vt 0.4052696 0.2817402
vt 0.4052696 0.2817402
vt 0.4052696 0.2817402
vt 0.4052696 0.2817402
vt 0.4052696 0.2817402
vt 0.4052696 0.2817402
vt 0.4052696 0.2817402
vt 0.4052696 0.2817402
vt 0.4052696 0.2817402
vt 0.4052696 0.2817402
vt 0.4052696 0.2817402
vt 0.4052696 0.2817402
vt 0.4052696 0.2817402
vt 0.4052696 0.2817402
vt 0.4052696 0.2817402
vt 0.4052696 0.2817402
vt 0.4052696 0.2817402
vt 0.4052696 0.2817402
vt 0.4052696 0.2817402
vt 0.4052696 0.2817402
vt 0.4052696 0.2817402
vt 0.4052696 0.2817402
vt 0.4052696 0.2817402
vt 0.4052696 0.2817402
vt 0.4052696 0.2817402
vt 0.4052696 0.2817402
vt 0.4052696 0.2817402
vt 0.4052696 0.2817402
vt 0.90624994 0.03125
vt 0.90624994 0.03125
vt 0.90624994 0.03125
vt 0.90624994 0.03125
vt 0.90624994 0.03125
vt 0.90624994 0.03125
vt 0.90624994 0.03125
vt 0.90624994 0.03125
vt 0.90624994 0.03125
vt 0.90624994 0.03125
vt 0.90624994 0.03125
vt 0.90624994 0.03125
vt 0.90624994 0.03125
vt 0.90624994 0.03125
vt 0.90624994 0.03125
vt 0.90624994 0.03125
vt 0.90624994 0.03125
vt 0.90624994 0.03125
vt 0.90624994 0.03125
vt 0.90624994 0.03125
vt 0.90624994 0.03125
vt 0.90624994 0.03125
vt 0.90624994 0.03125
vt 0.90624994 0.03125
vt 0.90624994 0.03125
vt 0.90624994 0.03125
vt 0.90624994 0.03125
vt 0.90624994 0.03125
vt 0.90624994 0.03125
vt 0.90624994 0.03125
vt 0.90624994 0.03125
vt 0.90624994 0.03125
vt 0.90624994 0.03125
vt 0.90624994 0.03125
vn -0.015871048 0.999874 -0.00034526698
vn -0.015871048 0.999874 -0.00034526698
vn -0.015871048 0.999874 -0.00034526698
vn -0.015871048 0.999874 -0.00034526698
vn -0.015871048 0.999874 -0.00034526698
vn -0.015871048 0.999874 -0.00034526698
vn -0.015871048 0.999874 -0.00034526698
vn -0.015871048 0.999874 -0.00034526698
vn -0.015871048 0.999874 -0.00034526698
vn -0.015871048 0.999874 -0.00034526698
vn -0.015871048 0.999874 -0.00034526698
vn -0.015871048 0.999874 -0.00034526698
vn -0.015871048 0.999874 -0.00034526698
vn -0.015871048 0.999874 -0.00034526698
vn -0.015871048 0.999874 -0.00034526698
vn -0.015871048 0.999874 -0.00034526698
vn -0.015871048 0.999874 -0.00034526698
vn -0.015871048 0.999874 -0.00034526698
vn -0.015871048 0.999874 -0.00034526698
vn -0.015871048 0.999874 -0.00034526698
vn -0.015871048 0.999874 -0.00034526698
vn -0.015871048 0.999874 -0.00034526698
vn -0.015871048 0.999874 -0.00034526698
vn -0.015871048 0.999874 -0.00034526698
vn -0.015871048 0.999874 -0.00034526698
vn -0.015871048 0.999874 -0.00034526698
vn -0.015871048 0.999874 -0.00034526698
vn -0.015871048 0.999874 -0.00034526698
vn -0.015871048 0.999874 -0.00034526698
vn -0.015871048 0.999874 -0.00034526698
vn -0.5554856 0.26980734 -0.7865366
vn -0.90464795 0.26980734 -0.32987282
vn -0.90464795 0.26980734 -0.32987282
vn -0.5554856 0.26980734 -0.7865366
vn -0.90464795 0.26980734 0.32987282
vn -0.015871048 0.26980734 -0.9627835
vn -0.90464795 0.26980734 0.32987282
vn 0.015870988 0.26980734 -0.9627835
vn -0.5554856 0.26980734 0.7865366
vn 0.55548555 0.26980734 -0.7865366
vn -0.5554856 0.26980734 0.7865366
vn 0.55548555 0.26980734 -0.7865366
vn -0.015871048 0.26980734 0.9627835
vn 0.9046479 0.26980734 -0.329873
vn -0.015871048 0.26980734 0.9627835
vn 0.9046479 0.26980734 -0.329873
vn 0.55548555 0.26980734 0.7865366
vn 0.9046479 0.26980734 0.329873
vn 0.55548555 0.26980734 0.7865366
vn 0.9046479 0.26980734 0.329873
vn -0.015871048 -0.5872276 0.80926627
vn -0.49200153 -0.5872276 0.6427272
vn -0.5554856 -0.30154932 0.7749218
vn -0.015871048 -0.30154932 0.9533185
vn -0.90464795 -0.30154932 0.30113134
vn 0.015870988 -0.999874 -0.00034526698
vn 0.49200147 -0.5872276 0.64272726
vn -0.7776798 -0.5872276 0.22445023
vn 0.55548555 -0.30154932 0.7749218
vn -0.90464795 -0.30154932 -0.30113134
vn 0.7776798 -0.5872276 0.22445023
vn 0.9046479 -0.30154932 0.30113155
vn -0.7776798 -0.5872276 -0.22445023
vn -0.5554856 -0.30154932 -0.7749218
vn 0.7776798 -0.5872276 -0.22445023
vn 0.9046479 -0.30154932 -0.30113155
vn -0.49200153 -0.5872276 -0.6427272
vn -0.015871048 -0.30154932 -0.9533185
vn 0.49200147 -0.5872276 -0.64272726
vn 0.55548555 -0.30154932 -0.7749218
vn -0.015871048 -0.5872276 -0.80926627
vn -0.8094218 -0.5872276 -0.00042286396
vn -0.5872276 -0.5872276 -0.5570705
vn -0.68245375 -0.30154932 -0.6658265
vn -0.95475805 -0.29738364 -0
vn -0.5872276 -0.5872276 0.5570705
vn -0.015871048 -0.30154932 -0.9533185
vn -0.015871048 -0.5872276 -0.80926627
vn -0.68245375 -0.30154932 0.6658265
vn -0.015871048 -0.5872276 0.80926627
vn 0.68245363 -0.30154932 -0.6658266
vn 0.5872276 -0.5872276 -0.5570705
vn -0.015871048 -0.30154932 0.9533185
vn 0.5872276 -0.5872276 0.5570705
vn 0.954758 -0.29738364 -0
vn 0.8094218 -0.5872276 -0.00042286396
vn 0.68245363 -0.30154932 0.6658266
vn -0.68245375 0.30154932 -0.6658265
vn -0.015871048 0.30154932 -0.9533185
vn -0.95475805 0.29738364 -0
vn 0.68245363 0.30154932 -0.6658266
vn -0.68245375 0.30154932 0.6658265
vn -0.015871048 0.30154932 0.9533185
vn 0.954758 0.29738364 -0
vn 0.68245363 0.30154932 0.6658266
vn -0.46025944 0.7776798 -0.42822355
vn -0.015871048 0.7776798 -0.6284602
vn -0.015871048 0.999874 -0.00034526698
vn -0.6189697 0.7776798 -0.10995764
vn 0.46025944 0.7776798 -0.42822355
vn -0.46025944 0.7776798 0.42822355
vn 0.6189696 0.7776798 -0.10995791
vn -0.015871048 0.7776798 0.6284602
vn 0.46025944 0.7776798 0.42822355
vn -0.015871048 0.30154932 0.9533185
vn -0.46025944 0.7776798 0.42822355
vn -0.015871048 0.7776798 0.6284602
vn -0.015871048 0.999874 -0.00034526698
vn -0.68245375 0.30154932 0.6658265
vn -0.6189697 0.7776798 -0.10995764
vn 0.46025944 0.7776798 0.42822355
vn 0.68245363 0.30154932 0.6658266
vn -0.015871048 -0.30154932 0.9533185
vn 0.68245363 -0.30154932 0.6658266
vn -0.95475805 0.29738364 -0
vn -0.46025944 0.7776798 -0.42822355
vn -0.68245375 -0.30154932 0.6658265
vn 0.954758 0.29738364 -0
vn 0.954758 -0.29738364 -0
vn 0.6189696 0.7776798 -0.10995791
vn -0.68245375 0.30154932 -0.6658265
vn -0.015871048 0.7776798 -0.6284602
vn 0.46025944 0.7776798 -0.42822355
vn 0.68245363 0.30154932 -0.6658266
vn -0.015871048 0.30154932 -0.9533185
vn -0.95475805 -0.29738364 -0
vn 0.68245363 -0.30154932 -0.6658266
vn -0.68245375 -0.30154932 -0.6658265
vn -0.015871048 -0.30154932 -0.9533185
vn -0.46025944 -0.7776798 0.42822355
vn -0.6189697 -0.7776798 -0.10995764
vn -0.015871048 -0.999874 -0.00034526698
vn -0.015871048 -0.7776798 0.6284602
vn -0.46025944 -0.7776798 -0.42822355
vn 0.46025944 -0.7776798 0.42822355
vn -0.015871048 -0.7776798 -0.6284602
vn 0.6189696 -0.7776798 -0.10995791
vn 0.46025944 -0.7776798 -0.42822355
g IceCreamCone_01_0
f 3/3/3 2/2/2 1/1/1
f 1/1/1 4/4/4 3/3/3
f 4/4/4 5/5/5 3/3/3
f 4/4/4 6/6/6 5/5/5
f 4/4/4 7/7/7 6/6/6
f 7/7/7 8/8/8 6/6/6
f 8/8/8 9/9/9 6/6/6
f 8/8/8 10/10/10 9/9/9
f 13/13/13 12/12/12 11/11/11
f 14/14/14 13/13/13 11/11/11
f 11/11/11 12/12/12 15/15/15
f 16/16/16 13/13/13 14/14/14
f 12/12/12 17/17/17 15/15/15
f 18/18/18 16/16/16 14/14/14
f 15/15/15 17/17/17 19/19/19
f 20/20/20 16/16/16 18/18/18
f 17/17/17 21/21/21 19/19/19
f 22/22/22 20/20/20 18/18/18
f 19/19/19 21/21/21 23/23/23
f 24/24/24 20/20/20 22/22/22
f 21/21/21 25/25/25 23/23/23
f 26/26/26 24/24/24 22/22/22
f 23/23/23 25/25/25 27/27/27
f 28/28/28 24/24/24 26/26/26
f 25/25/25 29/29/29 27/27/27
f 30/30/30 28/28/28 26/26/26
f 27/27/27 29/29/29 30/30/30
f 29/29/29 28/28/28 30/30/30
f 33/33/33 32/32/32 31/31/31
f 32/32/32 34/34/34 31/31/31
f 35/35/35 32/32/32 33/33/33
f 31/31/31 34/34/34 36/36/36
f 37/37/37 35/35/35 33/33/33
f 34/34/34 38/38/38 36/36/36
f 39/39/39 35/35/35 37/37/37
f 36/36/36 38/38/38 40/40/40
f 41/41/41 39/39/39 37/37/37
f 38/38/38 42/42/42 40/40/40
f 43/43/43 39/39/39 41/41/41
f 40/40/40 42/42/42 44/44/44
f 45/45/45 43/43/43 41/41/41
f 42/42/42 46/46/46 44/44/44
f 47/47/47 43/43/43 45/45/45
f 44/44/44 46/46/46 48/48/48
f 49/49/49 47/47/47 45/45/45
f 46/46/46 50/50/50 48/48/48
f 50/50/50 47/47/47 49/49/49
f 48/48/48 50/50/50 49/49/49
f 53/53/53 52/52/52 51/51/51
f 54/54/54 53/53/53 51/51/51
f 53/53/53 55/55/55 52/52/52
f 52/52/52 56/56/56 51/51/51
f 51/51/51 56/56/56 57/57/57
f 54/54/54 51/51/51 57/57/57
f 58/58/58 56/56/56 52/52/52
f 55/55/55 58/58/58 52/52/52
f 59/59/59 54/54/54 57/57/57
f 55/55/55 60/60/60 58/58/58
f 59/59/59 57/57/57 61/61/61
f 57/57/57 56/56/56 61/61/61
f 62/62/62 59/59/59 61/61/61
f 60/60/60 63/63/63 58/58/58
f 63/63/63 56/56/56 58/58/58
f 60/60/60 64/64/64 63/63/63
f 62/62/62 61/61/61 65/65/65
f 61/61/61 56/56/56 65/65/65
f 66/66/66 62/62/62 65/65/65
f 64/64/64 67/67/67 63/63/63
f 67/67/67 56/56/56 63/63/63
f 64/64/64 68/68/68 67/67/67
f 66/66/66 65/65/65 69/69/69
f 65/65/65 56/56/56 69/69/69
f 70/70/70 66/66/66 69/69/69
f 68/68/68 71/71/71 67/67/67
f 71/71/71 56/56/56 67/67/67
f 69/69/69 56/56/56 71/71/71
f 70/70/70 69/69/69 71/71/71
f 68/68/68 70/70/70 71/71/71
f 74/74/74 73/73/73 72/72/72
f 75/75/75 74/74/74 72/72/72
f 75/75/75 72/72/72 76/76/76
f 74/74/74 77/77/77 73/73/73
f 77/77/77 78/78/78 73/73/73
f 79/79/79 75/75/75 76/76/76
f 79/79/79 76/76/76 80/80/80
f 77/77/77 81/81/81 78/78/78
f 81/81/81 82/82/82 78/78/78
f 83/83/83 79/79/79 80/80/80
f 83/83/83 80/80/80 84/84/84
f 81/81/81 85/85/85 82/82/82
f 85/85/85 86/86/86 82/82/82
f 87/87/87 84/84/84 86/86/86
f 87/87/87 83/83/83 84/84/84
f 85/85/85 87/87/87 86/86/86
f 88/88/88 74/74/74 75/75/75
f 89/89/89 77/77/77 74/74/74
f 88/88/88 89/89/89 74/74/74
f 90/90/90 75/75/75 79/79/79
f 90/90/90 88/88/88 75/75/75
f 91/91/91 81/81/81 77/77/77
f 89/89/89 91/91/91 77/77/77
f 92/92/92 79/79/79 83/83/83
f 92/92/92 90/90/90 79/79/79
f 93/93/93 83/83/83 87/87/87
f 93/93/93 92/92/92 83/83/83
f 94/94/94 85/85/85 81/81/81
f 91/91/91 94/94/94 81/81/81
f 95/95/95 87/87/87 85/85/85
f 95/95/95 93/93/93 87/87/87
f 94/94/94 95/95/95 85/85/85
f 96/96/96 88/88/88 90/90/90
f 97/97/97 89/89/89 88/88/88
f 96/96/96 97/97/97 88/88/88
f 98/98/98 97/97/97 96/96/96
f 99/99/99 96/96/96 90/90/90
f 99/99/99 90/90/90 92/92/92
f 98/98/98 96/96/96 99/99/99
f 97/97/97 100/100/100 89/89/89
f 100/100/100 91/91/91 89/89/89
f 98/98/98 100/100/100 97/97/97
f 101/101/101 99/99/99 92/92/92
f 101/101/101 92/92/92 93/93/93
f 98/98/98 99/99/99 101/101/101
f 100/100/100 102/102/102 91/91/91
f 102/102/102 94/94/94 91/91/91
f 98/98/98 102/102/102 100/100/100
f 103/103/103 101/101/101 93/93/93
f 103/103/103 93/93/93 95/95/95
f 98/98/98 101/101/101 103/103/103
f 104/104/104 95/95/95 94/94/94
f 102/102/102 104/104/104 94/94/94
f 104/104/104 103/103/103 95/95/95
f 98/98/98 104/104/104 102/102/102
f 98/98/98 103/103/103 104/104/104
f 107/107/107 106/106/106 105/105/105
f 108/108/108 106/106/106 107/107/107
f 106/106/106 109/109/109 105/105/105
f 108/108/108 110/110/110 106/106/106
f 106/106/106 110/110/110 109/109/109
f 108/108/108 107/107/107 111/111/111
f 107/107/107 105/105/105 112/112/112
f 111/111/111 107/107/107 112/112/112
f 105/105/105 109/109/109 113/113/113
f 112/112/112 105/105/105 114/114/114
f 105/105/105 113/113/113 114/114/114
f 110/110/110 115/115/115 109/109/109
f 108/108/108 116/116/116 110/110/110
f 110/110/110 116/116/116 115/115/115
f 109/109/109 117/117/117 113/113/113
f 109/109/109 115/115/115 117/117/117
f 111/111/111 112/112/112 118/118/118
f 112/112/112 114/114/114 119/119/119
f 118/118/118 112/112/112 119/119/119
f 108/108/108 111/111/111 120/120/120
f 120/120/120 111/111/111 118/118/118
f 116/116/116 121/121/121 115/115/115
f 108/108/108 122/122/122 116/116/116
f 116/116/116 122/122/122 121/121/121
f 108/108/108 120/120/120 123/123/123
f 108/108/108 123/123/123 122/122/122
f 120/120/120 118/118/118 124/124/124
f 123/123/123 120/120/120 124/124/124
f 122/122/122 123/123/123 125/125/125
f 122/122/122 125/125/125 121/121/121
f 123/123/123 124/124/124 125/125/125
f 115/115/115 121/121/121 126/126/126
f 115/115/115 126/126/126 117/117/117
f 124/124/124 118/118/118 127/127/127
f 118/118/118 119/119/119 127/127/127
f 121/121/121 125/125/125 128/128/128
f 121/121/121 128/128/128 126/126/126
f 125/125/125 124/124/124 129/129/129
f 124/124/124 127/127/127 129/129/129
f 125/125/125 129/129/129 128/128/128
f 117/117/117 126/126/126 130/130/130
f 126/126/126 128/128/128 131/131/131
f 126/126/126 131/131/131 130/130/130
f 130/130/130 131/131/131 132/132/132
f 117/117/117 130/130/130 133/133/133
f 133/133/133 130/130/130 132/132/132
f 113/113/113 117/117/117 133/133/133
f 128/128/128 134/134/134 131/131/131
f 128/128/128 129/129/129 134/134/134
f 131/131/131 134/134/134 132/132/132
f 113/113/113 133/133/133 135/135/135
f 135/135/135 133/133/133 132/132/132
f 114/114/114 113/113/113 135/135/135
f 129/129/129 136/136/136 134/134/134
f 129/129/129 127/127/127 136/136/136
f 134/134/134 136/136/136 132/132/132
f 114/114/114 135/135/135 137/137/137
f 137/137/137 135/135/135 132/132/132
f 119/119/119 114/114/114 137/137/137
f 127/127/127 138/138/138 136/136/136
f 136/136/136 138/138/138 132/132/132
f 138/138/138 137/137/137 132/132/132
f 119/119/119 137/137/137 138/138/138
f 127/127/127 119/119/119 138/138/138
