g IceCream_01
v -0.57225 0.07157636 0.010425389
v -0.19005638 0.07157636 0.010425389
v -0.19005638 -0.064739406 0.010425389
v -0.57225 -0.064739406 0.010425389
v -0.60919535 0.07157636 0.010425389
v -0.60919535 -0.064739406 0.010425389
v -0.6384969 0.044822812 0.010425389
v -0.6384969 -0.03925979 0.010425389
v -0.64996266 0.0027815104 0.010425389
v -0.57225 0.07157636 -0.009958327
v -0.19005638 0.07157636 -0.009958327
v -0.19005638 0.07157636 0.010425389
v -0.57225 0.07157636 0.010425389
v -0.60919535 0.07157636 -0.009958327
v -0.60919535 0.07157636 0.010425389
v -0.6384969 0.044822812 -0.009958327
v -0.6384969 0.044822812 0.010425389
v -0.64996266 0.0027815104 -0.009958327
v -0.64996266 0.0027815104 0.010425389
v -0.6384969 -0.03925979 -0.009958327
v -0.6384969 -0.03925979 0.010425389
v -0.60919535 -0.064739406 -0.009958327
v -0.60919535 -0.064739406 0.010425389
v -0.57225 -0.064739406 -0.009958327
v -0.57225 -0.064739406 0.010425389
v -0.19005638 -0.064739406 -0.009958327
v -0.19005638 -0.064739406 0.010425389
v -0.57225 -0.064739406 -0.009958327
v -0.19005638 -0.064739406 -0.009958327
v -0.19005638 0.07157636 -0.009958327
v -0.57225 0.07157636 -0.009958327
v -0.60919535 -0.064739406 -0.009958327
v -0.60919535 0.07157636 -0.009958327
v -0.6384969 -0.03925979 -0.009958327
v -0.6384969 0.044822812 -0.009958327
v -0.64996266 0.0027815104 -0.009958327
v -0.30471444 0.10215181 -0.10168475
v -0.3149063 0.0027815104 -0.10168475
v -0.30471444 -0.09658885 -0.10168475
v -0.29070067 0.15693289 -0.10168475
v -0.29070067 -0.15136993 -0.10168475
v -0.25375533 0.22063184 -0.10168475
v -0.25375533 -0.21506888 -0.10168475
v -0.21808392 0.24738538 -0.10168475
v -0.21808392 -0.24054846 -0.10168475
v 0.49407023 0.24738538 -0.10168475
v 0.49407023 -0.24054846 -0.10168475
v 0.54120743 0.2244538 -0.10168475
v 0.54120743 -0.21889082 -0.10168475
v 0.5908926 0.17349464 -0.10168475
v 0.5908926 -0.16793168 -0.10168475
v 0.62019414 0.09960389 -0.10168475
v 0.62019414 -0.09404087 -0.10168475
v 0.6316599 0.0027815104 -0.10168475
v 0.5908926 0.17349464 0.10087788
v 0.62019414 0.09960389 0.10087788
v 0.6316599 0.0027815104 0.10087788
v 0.5908926 0.0027815104 0.10087788
v 0.54120743 0.2244538 0.10087788
v 0.5908926 -0.16793168 0.10087788
v 0.62019414 -0.09404087 0.10087788
v 0.54120743 -0.21889082 0.10087788
v 0.54120743 0.0027815104 0.10087788
v 0.49407023 0.24738538 0.10087788
v 0.49407023 0.0027815104 0.10087788
v 0.49407023 -0.24054846 0.10087788
v -0.21808392 0.24738538 0.10087788
v -0.21808392 -0.24054846 0.10087788
v -0.25375533 0.22063184 0.10087788
v -0.25375533 -0.21506888 0.10087788
v -0.29070067 0.15693289 0.10087788
v -0.29070067 -0.15136993 0.10087788
v -0.30471444 0.10215181 0.10087788
v -0.30471444 -0.09658885 0.10087788
v -0.3149063 0.0027815104 0.10087788
v -0.25375533 -0.21506888 -0.10168475
v -0.29070067 -0.15136993 -0.10168475
v -0.31235832 -0.18958929 -0.073657215
v -0.30471444 -0.09658885 -0.10168475
v -0.2766869 -0.25328824 -0.073657215
v -0.21808392 -0.24054846 -0.10168475
v -0.331468 -0.09786284 -0.073657215
v -0.34038585 0.0027815104 -0.073657215
v -0.3149063 0.0027815104 -0.10168475
v -0.331468 0.1034258 -0.073657215
v -0.30471444 0.10215181 -0.10168475
v -0.29070067 0.15693289 -0.10168475
v -0.331468 -0.09786284 0.07412428
v -0.34038585 0.0027815104 0.07412428
v -0.31235832 -0.18958929 0.07412428
v -0.331468 0.1034258 0.07412428
v -0.23974156 -0.28004178 -0.073657215
v -0.2766869 -0.25328824 0.07412428
v 0.49661818 -0.28004178 -0.073657215
v 0.49407023 -0.24054846 -0.10168475
v -0.29070067 -0.15136993 0.10087788
v -0.30471444 -0.09658885 0.10087788
v -0.3149063 0.0027815104 0.10087788
v -0.30471444 0.10215181 0.10087788
v -0.25375533 -0.21506888 0.10087788
v -0.23974156 -0.28004178 0.07412428
v -0.21808392 -0.24054846 0.10087788
v 0.49407023 -0.24054846 0.10087788
v -0.31235832 0.19515228 0.07412428
v -0.29070067 0.15693289 0.10087788
v -0.25375533 0.22063184 0.10087788
v 0.49661818 -0.28004178 0.07412428
v 0.54120743 -0.21889082 0.10087788
v -0.31235832 0.19515228 -0.073657215
v -0.2766869 0.25885123 0.07412428
v -0.21808392 0.24738538 0.10087788
v -0.2766869 0.25885123 -0.073657215
v -0.25375533 0.22063184 -0.10168475
v 0.5526732 -0.25328824 -0.073657215
v 0.54120743 -0.21889082 -0.10168475
v 0.5526732 -0.25328824 0.07412428
v 0.5908926 -0.16793168 0.10087788
v 0.61127627 -0.18831533 -0.073657215
v 0.5908926 -0.16793168 -0.10168475
v 0.61127627 -0.18831533 0.07412428
v 0.62019414 -0.09404087 0.10087788
v 0.6418518 -0.10041082 -0.073657215
v 0.62019414 -0.09404087 -0.10168475
v 0.6418518 -0.10041082 0.07412428
v 0.6316599 0.0027815104 0.10087788
v 0.6533176 0.0027815104 -0.073657215
v 0.6316599 0.0027815104 -0.10168475
v 0.6533176 0.0027815104 0.07412428
v 0.62019414 0.09960389 0.10087788
v 0.6418518 0.10597378 -0.073657215
v 0.62019414 0.09960389 -0.10168475
v 0.6418518 0.10597378 0.07412428
v 0.5908926 0.17349464 0.10087788
v 0.61127627 0.19515228 -0.073657215
v 0.5908926 0.17349464 -0.10168475
v 0.61127627 0.19515228 0.07412428
v 0.54120743 0.2244538 0.10087788
v 0.5526732 0.25885123 -0.073657215
v 0.54120743 0.2244538 -0.10168475
v 0.5526732 0.25885123 0.07412428
v 0.49407023 0.24738538 0.10087788
v 0.49661818 0.28560477 -0.073657215
v 0.49407023 0.24738538 -0.10168475
v 0.49661818 0.28560477 0.07412428
v -0.23974156 0.28560477 -0.073657215
v -0.21808392 0.24738538 -0.10168475
v -0.23974156 0.28560477 0.07412428
vt 0.84375 0.1555147
vt 0.84375 0.1555147
vt 0.84375 0.1555147
vt 0.84375 0.1555147
vt 0.84375 0.1555147
vt 0.84375 0.1555147
vt 0.84375 0.1555147
vt 0.84375 0.1555147
vt 0.84375 0.1555147
vt 0.84375 0.1555147
vt 0.84375 0.1555147
vt 0.84375 0.1555147
vt 0.84375 0.1555147
vt 0.84375 0.1555147
vt 0.84375 0.1555147
vt 0.84375 0.1555147
vt 0.84375 0.1555147
vt 0.84375 0.1555147
vt 0.84375 0.1555147
vt 0.84375 0.1555147
vt 0.84375 0.1555147
vt 0.84375 0.1555147
vt 0.84375 0.1555147
vt 0.84375 0.1555147
vt 0.84375 0.1555147
vt 0.84375 0.1555147
vt 0.84375 0.1555147
vt 0.84375 0.1555147
vt 0.84375 0.1555147
vt 0.84375 0.1555147
vt 0.84375 0.1555147
vt 0.84375 0.1555147
vt 0.84375 0.1555147
vt 0.84375 0.1555147
vt 0.84375 0.1555147
vt 0.84375 0.1555147
vt 0.4677696 0.03125
vt 0.4677696 0.03125
vt 0.4677696 0.03125
vt 0.4677696 0.03125
vt 0.4677696 0.03125
vt 0.4677696 0.03125
vt 0.4677696 0.03125
vt 0.4677696 0.03125
vt 0.4677696 0.03125
vt 0.4677696 0.03125
vt 0.4677696 0.03125
vt 0.4677696 0.03125
vt 0.4677696 0.03125
vt 0.4677696 0.03125
vt 0.4677696 0.03125
vt 0.4677696 0.03125
vt 0.4677696 0.03125
vt 0.4677696 0.03125
vt 0.4677696 0.03125
vt 0.4677696 0.03125
vt 0.4677696 0.03125
vt 0.4677696 0.03125
vt 0.4677696 0.03125
vt 0.4677696 0.03125
vt 0.4677696 0.03125
vt 0.4677696 0.03125
vt 0.4677696 0.03125
vt 0.4677696 0.03125
vt 0.4677696 0.03125
vt 0.4677696 0.03125
vt 0.4677696 0.03125
vt 0.4677696 0.03125
vt 0.4677696 0.03125
vt 0.4677696 0.03125
vt 0.4677696 0.03125
vt 0.4677696 0.03125
vt 0.4677696 0.03125
vt 0.4677696 0.03125
vt 0.4677696 0.03125
vt 0.4677696 0.03125
vt 0.4677696 0.03125
vt 0.4677696 0.03125
vt 0.4677696 0.03125
vt 0.4677696 0.03125
vt 0.4677696 0.03125
vt 0.4677696 0.03125
vt 0.4677696 0.03125
vt 0.4677696 0.03125
vt 0.4677696 0.03125
vt 0.4677696 0.03125
vt 0.4677696 0.03125
vt 0.4677696 0.03125
vt 0.4677696 0.03125
vt 0.4677696 0.03125
vt 0.4677696 0.03125
vt 0.4677696 0.03125
vt 0.4677696 0.03125
vt 0.4677696 0.03125
vt 0.4677696 0.03125
vt 0.4677696 0.03125
vt 0.4677696 0.03125
vt 0.4677696 0.03125
vt 0.4677696 0.03125
vt 0.4677696 0.03125
vt 0.4677696 0.03125
vt 0.4677696 0.03125
vt 0.4677696 0.03125
vt 0.4677696 0.03125
vt 0.4677696 0.03125
vt 0.4677696 0.03125
vt 0.4677696 0.03125
vt 0.4677696 0.03125
vt 0.4677696 0.03125
vt 0.4677696 0.03125
vt 0.4677696 0.03125
vt 0.4677696 0.03125
vt 0.4677696 0.03125
vt 0.4677696 0.03125
vt 0.4677696 0.03125
vt 0.4677696 0.03125
vt 0.4677696 0.03125
vt 0.4677696 0.03125
vt 0.4677696 0.03125
vt 0.4677696 0.03125
vt 0.4677696 0.03125
vt 0.4677696 0.03125
vt 0.4677696 0.03125
vt 0.4677696 0.03125
vt 0.4677696 0.03125
vt 0.4677696 0.03125
vt 0.4677696 0.03125
vt 0.4677696 0.03125
vt 0.4677696 0.03125
vt 0.4677696 0.03125
vt 0.4677696 0.03125
vt 0.4677696 0.03125
vt 0.4677696 0.03125
vt 0.4677696 0.03125
vt 0.4677696 0.03125
vt 0.4677696 0.03125
vt 0.4677696 0.03125
vt 0.4677696 0.03125
vt 0.4677696 0.03125
vt 0.4677696 0.03125
vt 0.4677696 0.03125
vt 0.4677696 0.03125
vt 0.4677696 0.03125
vt 0.4677696 0.03125
vt 0.4677696 0.03125
vt 0.4677696 0.03125
vt 0.4677696 0.03125
vn -0.015871048 0.015871048 0.99974805
vn -0.015871048 0.015871048 0.99974805
vn -0.015871048 0.015871048 0.99974805
vn -0.015871048 0.015871048 0.99974805
vn -0.015871048 0.015871048 0.99974805
vn -0.015871048 0.015871048 0.99974805
vn -0.015871048 0.015871048 0.99974805
vn -0.015871048 0.015871048 0.99974805
vn -0.015871048 0.015871048 0.99974805
vn -0.015871048 0.999874 -0.00034526698
vn -0.015871048 0.999874 -0.00034526698
vn -0.015871048 0.999874 -0.00034526698
vn -0.015871048 0.999874 -0.00034526698
vn -0.36320823 0.931708 -0
vn -0.36320823 0.931708 -0
vn -0.8411639 0.5237435 -0.13467027
vn -0.8411639 0.5237435 -0.13467027
vn -0.999874 0.015871048 -0.00034391563
vn -0.999874 0.015871048 -0.00034391563
vn -0.8411639 -0.5237435 -0.13467027
vn -0.8411639 -0.5237435 -0.13467027
vn -0.36320823 -0.931708 -0
vn -0.36320823 -0.931708 -0
vn -0.015871048 -0.999874 -0.00034526698
vn -0.015871048 -0.999874 -0.00034526698
vn -0.015871048 -0.999874 -0.00034526698
vn -0.015871048 -0.999874 -0.00034526698
vn -0.015871048 0.015871048 -0.99974805
vn -0.015871048 0.015871048 -0.99974805
vn -0.015871048 0.015871048 -0.99974805
vn -0.015871048 0.015871048 -0.99974805
vn -0.015871048 0.015871048 -0.99974805
vn -0.015871048 0.015871048 -0.99974805
vn -0.015871048 0.015871048 -0.99974805
vn -0.015871048 0.015871048 -0.99974805
vn -0.015871048 0.015871048 -0.99974805
vn -0.015871048 0.015871048 -0.99974805
vn -0.015871048 0.015871048 -0.99974805
vn -0.015871048 0.015871048 -0.99974805
vn -0.015871048 0.015871048 -0.99974805
vn -0.015871048 0.015871048 -0.99974805
vn -0.015871048 0.015871048 -0.99974805
vn -0.015871048 0.015871048 -0.99974805
vn -0.015871048 0.015871048 -0.99974805
vn -0.015871048 0.015871048 -0.99974805
vn -0.015871048 0.015871048 -0.99974805
vn -0.015871048 0.015871048 -0.99974805
vn -0.015871048 0.015871048 -0.99974805
vn -0.015871048 0.015871048 -0.99974805
vn -0.015871048 0.015871048 -0.99974805
vn -0.015871048 0.015871048 -0.99974805
vn -0.015871048 0.015871048 -0.99974805
vn -0.015871048 0.015871048 -0.99974805
vn -0.015871048 0.015871048 -0.99974805
vn -0.015871048 0.015871048 0.99974805
vn -0.015871048 0.015871048 0.99974805
vn -0.015871048 0.015871048 0.99974805
vn -0.015871048 0.015871048 0.99974805
vn -0.015871048 0.015871048 0.99974805
vn -0.015871048 0.015871048 0.99974805
vn -0.015871048 0.015871048 0.99974805
vn -0.015871048 0.015871048 0.99974805
vn -0.015871048 0.015871048 0.99974805
vn -0.015871048 0.015871048 0.99974805
vn -0.015871048 0.015871048 0.99974805
vn -0.015871048 0.015871048 0.99974805
vn -0.015871048 0.015871048 0.99974805
vn -0.015871048 0.015871048 0.99974805
vn -0.015871048 0.015871048 0.99974805
vn -0.015871048 0.015871048 0.99974805
vn -0.015871048 0.015871048 0.99974805
vn -0.015871048 0.015871048 0.99974805
vn -0.015871048 0.015871048 0.99974805
vn -0.015871048 0.015871048 0.99974805
vn -0.015871048 0.015871048 0.99974805
vn -0.42851746 -0.36503333 -0.8265128
vn -0.6189697 -0.2063232 -0.7578306
vn -0.8411639 -0.33329135 -0.42586407
vn -0.7141957 -0.1110971 -0.691073
vn -0.65071166 -0.5872276 -0.48139182
vn -0.1428392 -0.5237435 -0.8398153
vn -0.90464795 -0.14283913 -0.40150848
vn -0.9363899 0.015871048 -0.35060233
vn -0.7141957 0.015871048 -0.6997661
vn -0.90464795 0.1428392 -0.40150845
vn -0.7141957 0.1110971 -0.691073
vn -0.6189697 0.20632327 -0.7578306
vn -0.90464795 -0.14283913 0.40150848
vn -0.9363899 0.015871048 0.35060233
vn -0.8411639 -0.33329135 0.42586407
vn -0.90464795 0.1428392 0.40150845
vn -0.26980734 -0.8411638 -0.46866563
vn -0.65071166 -0.5872276 0.48139182
vn 0.2063232 -0.87290585 -0.4421155
vn 0.14283913 -0.55548555 -0.8191659
vn -0.6189697 -0.2063232 0.7578306
vn -0.7141957 -0.1110971 0.691073
vn -0.7141957 0.015871048 0.6997661
vn -0.7141957 0.1110971 0.691073
vn -0.42851746 -0.36503333 0.8265128
vn -0.26980734 -0.8411638 0.46866563
vn -0.1428392 -0.5237435 0.8398153
vn 0.14283913 -0.55548555 0.8191659
vn -0.8411639 0.3332913 0.42586413
vn -0.6189697 0.20632327 0.7578306
vn -0.42851746 0.3650334 0.82651275
vn 0.2063232 -0.87290585 0.4421155
vn 0.39677536 -0.49200147 0.77492183
vn -0.8411639 0.3332913 -0.42586413
vn -0.65071166 0.5872276 0.48139182
vn -0.1428392 0.5237435 0.8398153
vn -0.65071166 0.5872276 -0.48139182
vn -0.42851746 0.3650334 -0.82651275
vn 0.5237435 -0.7459377 -0.41142398
vn 0.39677536 -0.49200147 -0.77492183
vn 0.5237435 -0.7459377 0.41142398
vn 0.6189696 -0.36503333 0.69543314
vn 0.7776798 -0.49200147 -0.39134216
vn 0.6189696 -0.36503333 -0.69543314
vn 0.7776798 -0.49200147 0.39134216
vn 0.7459377 -0.17458117 0.64272726
vn 0.9046479 -0.2063232 -0.3728846
vn 0.7459377 -0.17458117 -0.64272726
vn 0.9046479 -0.2063232 0.3728846
vn 0.7776798 -0.015870988 0.6284602
vn 0.9363899 0.015871048 -0.35060233
vn 0.7776798 0.015871048 -0.6284602
vn 0.9363899 0.015871048 0.35060233
vn 0.7459377 0.17458117 0.64272726
vn 0.9046479 0.20632327 -0.37288457
vn 0.7459377 0.17458117 -0.64272726
vn 0.9046479 0.20632327 0.37288457
vn 0.6189696 0.3650334 0.69543314
vn 0.7776798 0.49200153 -0.3913421
vn 0.6189696 0.3650334 -0.69543314
vn 0.7776798 0.49200153 0.3913421
vn 0.39677536 0.49200153 0.7749218
vn 0.5237435 0.7459378 -0.41142374
vn 0.39677536 0.49200153 -0.7749218
vn 0.5237435 0.7459378 0.41142374
vn 0.14283913 0.5554856 0.8191659
vn 0.2063232 0.87290585 -0.4421155
vn 0.14283913 0.5554856 -0.8191659
vn 0.2063232 0.87290585 0.4421155
vn -0.26980734 0.8411639 -0.4686655
vn -0.1428392 0.5237435 -0.8398153
vn -0.26980734 0.8411639 0.4686655
g IceCream_01_0
f 3/3/3 2/2/2 1/1/1
f 1/1/1 4/4/4 3/3/3
f 1/1/1 5/5/5 4/4/4
f 5/5/5 6/6/6 4/4/4
f 5/5/5 7/7/7 6/6/6
f 7/7/7 8/8/8 6/6/6
f 7/7/7 9/9/9 8/8/8
f 12/12/12 11/11/11 10/10/10
f 13/13/13 12/12/12 10/10/10
f 10/10/10 14/14/14 13/13/13
f 14/14/14 15/15/15 13/13/13
f 14/14/14 16/16/16 15/15/15
f 16/16/16 17/17/17 15/15/15
f 16/16/16 18/18/18 17/17/17
f 18/18/18 19/19/19 17/17/17
f 18/18/18 20/20/20 19/19/19
f 20/20/20 21/21/21 19/19/19
f 20/20/20 22/22/22 21/21/21
f 22/22/22 23/23/23 21/21/21
f 22/22/22 24/24/24 23/23/23
f 24/24/24 25/25/25 23/23/23
f 24/24/24 26/26/26 25/25/25
f 26/26/26 27/27/27 25/25/25
f 30/30/30 29/29/29 28/28/28
f 28/28/28 31/31/31 30/30/30
f 28/28/28 32/32/32 31/31/31
f 32/32/32 33/33/33 31/31/31
f 32/32/32 34/34/34 33/33/33
f 34/34/34 35/35/35 33/33/33
f 34/34/34 36/36/36 35/35/35
f 39/39/39 38/38/38 37/37/37
f 39/39/39 37/37/37 40/40/40
f 41/41/41 39/39/39 40/40/40
f 41/41/41 40/40/40 42/42/42
f 43/43/43 41/41/41 42/42/42
f 43/43/43 42/42/42 44/44/44
f 44/44/44 45/45/45 43/43/43
f 45/45/45 44/44/44 46/46/46
f 47/47/47 45/45/45 46/46/46
f 47/47/47 46/46/46 48/48/48
f 49/49/49 47/47/47 48/48/48
f 49/49/49 48/48/48 50/50/50
f 51/51/51 49/49/49 50/50/50
f 51/51/51 50/50/50 52/52/52
f 53/53/53 51/51/51 52/52/52
f 52/52/52 54/54/54 53/53/53
f 57/57/57 56/56/56 55/55/55
f 58/58/58 57/57/57 55/55/55
f 58/58/58 55/55/55 59/59/59
f 58/58/58 60/60/60 57/57/57
f 60/60/60 61/61/61 57/57/57
f 62/62/62 60/60/60 58/58/58
f 63/63/63 58/58/58 59/59/59
f 63/63/63 62/62/62 58/58/58
f 63/63/63 59/59/59 64/64/64
f 63/63/63 65/65/65 62/62/62
f 65/65/65 63/63/63 64/64/64
f 65/65/65 66/66/66 62/62/62
f 65/65/65 64/64/64 67/67/67
f 67/67/67 66/66/66 65/65/65
f 67/67/67 68/68/68 66/66/66
f 67/67/67 69/69/69 68/68/68
f 69/69/69 70/70/70 68/68/68
f 69/69/69 71/71/71 70/70/70
f 71/71/71 72/72/72 70/70/70
f 72/72/72 71/71/71 73/73/73
f 73/73/73 74/74/74 72/72/72
f 73/73/73 75/75/75 74/74/74
f 78/78/78 77/77/77 76/76/76
f 77/77/77 78/78/78 79/79/79
f 80/80/80 78/78/78 76/76/76
f 80/80/80 76/76/76 81/81/81
f 78/78/78 82/82/82 79/79/79
f 82/82/82 83/83/83 79/79/79
f 83/83/83 84/84/84 79/79/79
f 83/83/83 85/85/85 84/84/84
f 85/85/85 86/86/86 84/84/84
f 86/86/86 85/85/85 87/87/87
f 82/82/82 78/78/78 88/88/88
f 89/89/89 83/83/83 82/82/82
f 88/88/88 89/89/89 82/82/82
f 78/78/78 80/80/80 90/90/90
f 78/78/78 90/90/90 88/88/88
f 91/91/91 85/85/85 83/83/83
f 89/89/89 91/91/91 83/83/83
f 92/92/92 80/80/80 81/81/81
f 80/80/80 93/93/93 90/90/90
f 80/80/80 92/92/92 93/93/93
f 94/94/94 92/92/92 81/81/81
f 95/95/95 94/94/94 81/81/81
f 88/88/88 90/90/90 96/96/96
f 96/96/96 90/90/90 93/93/93
f 97/97/97 88/88/88 96/96/96
f 88/88/88 97/97/97 98/98/98
f 89/89/89 88/88/88 98/98/98
f 89/89/89 98/98/98 99/99/99
f 91/91/91 89/89/89 99/99/99
f 100/100/100 96/96/96 93/93/93
f 92/92/92 101/101/101 93/93/93
f 100/100/100 93/93/93 101/101/101
f 92/92/92 94/94/94 101/101/101
f 102/102/102 100/100/100 101/101/101
f 103/103/103 102/102/102 101/101/101
f 104/104/104 91/91/91 99/99/99
f 105/105/105 104/104/104 99/99/99
f 85/85/85 91/91/91 104/104/104
f 104/104/104 105/105/105 106/106/106
f 107/107/107 103/103/103 101/101/101
f 94/94/94 107/107/107 101/101/101
f 103/103/103 107/107/107 108/108/108
f 109/109/109 85/85/85 104/104/104
f 85/85/85 109/109/109 87/87/87
f 110/110/110 104/104/104 106/106/106
f 109/109/109 104/104/104 110/110/110
f 110/110/110 106/106/106 111/111/111
f 87/87/87 109/109/109 112/112/112
f 112/112/112 109/109/109 110/110/110
f 113/113/113 87/87/87 112/112/112
f 107/107/107 94/94/94 114/114/114
f 114/114/114 94/94/94 95/95/95
f 115/115/115 114/114/114 95/95/95
f 107/107/107 116/116/116 108/108/108
f 116/116/116 107/107/107 114/114/114
f 108/108/108 116/116/116 117/117/117
f 118/118/118 114/114/114 115/115/115
f 116/116/116 114/114/114 118/118/118
f 119/119/119 118/118/118 115/115/115
f 116/116/116 120/120/120 117/117/117
f 120/120/120 116/116/116 118/118/118
f 117/117/117 120/120/120 121/121/121
f 122/122/122 118/118/118 119/119/119
f 120/120/120 118/118/118 122/122/122
f 123/123/123 122/122/122 119/119/119
f 120/120/120 124/124/124 121/121/121
f 124/124/124 120/120/120 122/122/122
f 125/125/125 121/121/121 124/124/124
f 126/126/126 122/122/122 123/123/123
f 122/122/122 126/126/126 124/124/124
f 127/127/127 126/126/126 123/123/123
f 128/128/128 125/125/125 124/124/124
f 126/126/126 128/128/128 124/124/124
f 129/129/129 125/125/125 128/128/128
f 130/130/130 126/126/126 127/127/127
f 126/126/126 130/130/130 128/128/128
f 131/131/131 130/130/130 127/127/127
f 132/132/132 129/129/129 128/128/128
f 130/130/130 132/132/132 128/128/128
f 129/129/129 132/132/132 133/133/133
f 134/134/134 130/130/130 131/131/131
f 132/132/132 130/130/130 134/134/134
f 135/135/135 134/134/134 131/131/131
f 132/132/132 136/136/136 133/133/133
f 136/136/136 132/132/132 134/134/134
f 133/133/133 136/136/136 137/137/137
f 138/138/138 134/134/134 135/135/135
f 136/136/136 134/134/134 138/138/138
f 139/139/139 138/138/138 135/135/135
f 136/136/136 140/140/140 137/137/137
f 140/140/140 136/136/136 138/138/138
f 137/137/137 140/140/140 141/141/141
f 142/142/142 138/138/138 139/139/139
f 140/140/140 138/138/138 142/142/142
f 143/143/143 142/142/142 139/139/139
f 140/140/140 144/144/144 141/141/141
f 144/144/144 140/140/140 142/142/142
f 111/111/111 141/141/141 144/144/144
f 142/142/142 143/143/143 145/145/145
f 142/142/142 145/145/145 144/144/144
f 143/143/143 146/146/146 145/145/145
f 146/146/146 113/113/113 145/145/145
f 113/113/113 112/112/112 145/145/145
f 147/147/147 111/111/111 144/144/144
f 145/145/145 147/147/147 144/144/144
f 145/145/145 112/112/112 147/147/147
f 147/147/147 110/110/110 111/111/111
f 112/112/112 110/110/110 147/147/147
