g jewel
v 0.0004415214 -0.41020933 0.000441581
v 0.45171598 0.1638188 0.000441581
v 0.31924796 0.1638188 -0.31924796
v 0.0004415214 -0.41020933 0.000441581
v 0.31924796 0.1638188 -0.31924796
v 0.0004415214 0.1638188 -0.45171598
v 0.0004415214 -0.41020933 0.000441581
v 0.0004415214 0.1638188 -0.45171598
v -0.319248 0.1638188 -0.31924796
v 0.0004415214 -0.41020933 0.000441581
v -0.319248 0.1638188 -0.31924796
v -0.45171604 0.1638188 -0.0004415214
v 0.0004415214 -0.41020933 0.000441581
v -0.45171604 0.1638188 -0.0004415214
v -0.319248 0.1638188 0.319248
v 0.0004415214 -0.41020933 0.000441581
v -0.319248 0.1638188 0.319248
v -0.000441581 0.1638188 0.45171604
v 0.0004415214 -0.41020933 0.000441581
v -0.000441581 0.1638188 0.45171604
v 0.31924796 0.1638188 0.319248
v 0.0004415214 -0.41020933 0.000441581
v 0.31924796 0.1638188 0.319248
v 0.45171598 0.1638188 0.000441581
v -0.094052345 0.4102094 0.2282866
v -0.319248 0.1638188 0.319248
v -0.2282866 0.4102094 0.094052345
v 0.22828655 0.4102094 0.094052345
v 0.31924796 0.1638188 0.319248
v 0.094052285 0.4102094 0.2282866
v 0.22828655 0.4102094 -0.094052285
v 0.45171598 0.1638188 0.000441581
v 0.22828655 0.4102094 0.094052345
v 0.094052285 0.4102094 -0.22828655
v 0.31924796 0.1638188 -0.31924796
v 0.22828655 0.4102094 -0.094052285
v -0.094052345 0.4102094 -0.22828655
v 0.0004415214 0.1638188 -0.45171598
v 0.094052285 0.4102094 -0.22828655
v -0.2282866 0.4102094 -0.094052285
v -0.319248 0.1638188 -0.31924796
v -0.094052345 0.4102094 -0.22828655
v -0.2282866 0.4102094 0.094052345
v -0.45171604 0.1638188 -0.0004415214
v -0.2282866 0.4102094 -0.094052285
v 0.31924796 0.1638188 -0.31924796
v 0.45171598 0.1638188 0.000441581
v 0.22828655 0.4102094 -0.094052285
v 0.0004415214 0.1638188 -0.45171598
v 0.31924796 0.1638188 -0.31924796
v 0.094052285 0.4102094 -0.22828655
v -0.319248 0.1638188 -0.31924796
v 0.0004415214 0.1638188 -0.45171598
v -0.094052345 0.4102094 -0.22828655
v -0.45171604 0.1638188 -0.0004415214
v -0.319248 0.1638188 -0.31924796
v -0.2282866 0.4102094 -0.094052285
v -0.319248 0.1638188 0.319248
v -0.45171604 0.1638188 -0.0004415214
v -0.2282866 0.4102094 0.094052345
v -0.000441581 0.1638188 0.45171604
v -0.319248 0.1638188 0.319248
v -0.094052345 0.4102094 0.2282866
v 0.45171598 0.1638188 0.000441581
v 0.31924796 0.1638188 0.319248
v 0.22828655 0.4102094 0.094052345
v -0.000441581 0.1638188 0.45171604
v 0.094052285 0.4102094 0.2282866
v 0.31924796 0.1638188 0.319248
v -0.000441581 0.1638188 0.45171604
v -0.094052345 0.4102094 0.2282866
v 0.094052285 0.4102094 0.2282866
v 0.22828655 0.4102094 -0.094052285
v -0.094052345 0.4102094 -0.22828655
v 0.094052285 0.4102094 -0.22828655
v 0.094052285 0.4102094 0.2282866
v 0.22828655 0.4102094 0.094052345
v -0.2282866 0.4102094 0.094052345
v -0.2282866 0.4102094 -0.094052285
v -0.094052345 0.4102094 0.2282866
vt 0.68430495 0.29901463
vt 0.6489401 0.27295634
vt 0.64149487 0.2934307
vt 0.68430495 0.29901463
vt 0.64149487 0.2934307
vt 0.6433562 0.31390506
vt 0.68430495 0.29901463
vt 0.727115 0.31390506
vt 0.72897625 0.2934307
vt 0.68430495 0.29901463
vt 0.72897625 0.2934307
vt 0.72153103 0.27295634
vt 0.68430495 0.29901463
vt 0.72153103 0.27295634
vt 0.70477927 0.25992718
vt 0.68430495 0.29901463
vt 0.70477927 0.25992718
vt 0.68430495 0.25434327
vt 0.68430495 0.29901463
vt 0.68430495 0.25434327
vt 0.6638306 0.25992718
vt 0.68430495 0.29901463
vt 0.6638306 0.25992718
vt 0.6489401 0.27295634
vt 0.678721 0.32693422
vt 0.6638306 0.31204376
vt 0.6694145 0.3325181
vt 0.7010567 0.3325181
vt 0.70477927 0.31204376
vt 0.68988883 0.32693422
vt 0.7066406 0.34182465
vt 0.71966976 0.32693422
vt 0.7010567 0.3325181
vt 0.70850194 0.35299248
vt 0.727115 0.34554726
vt 0.7066406 0.34182465
vt 0.702918 0.36416033
vt 0.72339237 0.36602163
vt 0.70850194 0.35299248
vt 0.6619693 0.34182465
vt 0.64149487 0.34554726
vt 0.6619693 0.35299248
vt 0.6694145 0.3325181
vt 0.6489401 0.32693422
vt 0.6619693 0.34182465
vt 0.727115 0.34554726
vt 0.71966976 0.32693422
vt 0.7066406 0.34182465
vt 0.72339237 0.36602163
vt 0.727115 0.34554726
vt 0.70850194 0.35299248
vt 0.64149487 0.34554726
vt 0.64521754 0.36602163
vt 0.6619693 0.35299248
vt 0.6489401 0.32693422
vt 0.64149487 0.34554726
vt 0.6619693 0.34182465
vt 0.6638306 0.31204376
vt 0.6489401 0.32693422
vt 0.6694145 0.3325181
vt 0.68430495 0.30645984
vt 0.6638306 0.31204376
vt 0.678721 0.32693422
vt 0.71966976 0.32693422
vt 0.70477927 0.31204376
vt 0.7010567 0.3325181
vt 0.68430495 0.30645984
vt 0.68988883 0.32693422
vt 0.70477927 0.31204376
vt 0.68430495 0.30645984
vt 0.678721 0.32693422
vt 0.68988883 0.32693422
vt 0.68430495 0.33437943
vt 0.6991954 0.34926987
vt 0.6936115 0.33810204
vt 0.6694145 0.34926987
vt 0.67313707 0.33810204
vt 0.68430495 0.36416033
vt 0.6936115 0.3604377
vt 0.67313707 0.3604377
vn 0.76005006 -0.5924278 -0.26712018
vn 0.76005006 -0.5924278 -0.26712018
vn 0.76005006 -0.5924278 -0.26712018
vn 0.31305736 -0.5924278 -0.74231017
vn 0.31305736 -0.5924278 -0.74231017
vn 0.31305736 -0.5924278 -0.74231017
vn -0.30155754 -0.5924278 -0.74705577
vn -0.30155754 -0.5924278 -0.74705577
vn -0.30155754 -0.5924278 -0.74705577
vn -0.7485503 -0.5924278 -0.29782844
vn -0.7485503 -0.5924278 -0.29782844
vn -0.7485503 -0.5924278 -0.29782844
vn -0.7485503 -0.5924278 0.29782844
vn -0.7485503 -0.5924278 0.29782844
vn -0.7485503 -0.5924278 0.29782844
vn -0.30155754 -0.5924278 0.74705577
vn -0.30155754 -0.5924278 0.74705577
vn -0.30155754 -0.5924278 0.74705577
vn 0.31305736 -0.5924278 0.74231017
vn 0.31305736 -0.5924278 0.74231017
vn 0.31305736 -0.5924278 0.74231017
vn 0.76005006 -0.5924278 0.26712018
vn 0.76005006 -0.5924278 0.26712018
vn 0.76005006 -0.5924278 0.26712018
vn -0.52505386 0.66473913 0.53145117
vn -0.52505386 0.66473913 0.53145117
vn -0.52505386 0.66473913 0.53145117
vn 0.53655374 0.66473913 0.5198384
vn 0.53655374 0.66473913 0.5198384
vn 0.53655374 0.66473913 0.5198384
vn 0.732113 0.66473913 0.1487697
vn 0.732113 0.66473913 0.1487697
vn 0.732113 0.66473913 0.1487697
vn 0.53655374 0.66473913 -0.5198384
vn 0.53655374 0.66473913 -0.5198384
vn 0.53655374 0.66473913 -0.5198384
vn 0.0057498813 0.66473913 -0.7470534
vn 0.0057498813 0.66473913 -0.7470534
vn 0.0057498813 0.66473913 -0.7470534
vn -0.52505386 0.66473913 -0.53145117
vn -0.52505386 0.66473913 -0.53145117
vn -0.52505386 0.66473913 -0.53145117
vn -0.74772614 0.66400725 -0
vn -0.74772614 0.66400725 -0
vn -0.74772614 0.66400725 -0
vn 0.76005006 0.58092797 -0.29128438
vn 0.76005006 0.58092797 -0.29128438
vn 0.76005006 0.58092797 -0.29128438
vn 0.31305736 0.58092797 -0.75134397
vn 0.31305736 0.58092797 -0.75134397
vn 0.31305736 0.58092797 -0.75134397
vn -0.30155754 0.58092797 -0.75603294
vn -0.30155754 0.58092797 -0.75603294
vn -0.30155754 0.58092797 -0.75603294
vn -0.7485503 0.58092797 -0.3196798
vn -0.7485503 0.58092797 -0.3196798
vn -0.7485503 0.58092797 -0.3196798
vn -0.7485503 0.58092797 0.3196798
vn -0.7485503 0.58092797 0.3196798
vn -0.7485503 0.58092797 0.3196798
vn -0.30155754 0.58092797 0.75603294
vn -0.30155754 0.58092797 0.75603294
vn -0.30155754 0.58092797 0.75603294
vn 0.76005006 0.58092797 0.29128438
vn 0.76005006 0.58092797 0.29128438
vn 0.76005006 0.58092797 0.29128438
vn 0.31305736 0.58092797 0.75134397
vn 0.31305736 0.58092797 0.75134397
vn 0.31305736 0.58092797 0.75134397
vn 0.0057498813 0.66473913 0.7470534
vn 0.0057498813 0.66473913 0.7470534
vn 0.0057498813 0.66473913 0.7470534
vn 0.005749881 0.99998355 -0
vn 0.005749881 0.99998355 -0
vn 0.005749881 0.99998355 -0
vn 0.005749881 0.99998355 -0
vn 0.005749881 0.99998355 -0
vn 0.005749881 0.99998355 -0
vn 0.005749881 0.99998355 -0
vn 0.005749881 0.99998355 -0
g jewel_0
f 3/3/3 2/2/2 1/1/1
f 6/6/6 5/5/5 4/4/4
f 9/9/9 8/8/8 7/7/7
f 12/12/12 11/11/11 10/10/10
f 15/15/15 14/14/14 13/13/13
f 18/18/18 17/17/17 16/16/16
f 21/21/21 20/20/20 19/19/19
f 24/24/24 23/23/23 22/22/22
f 27/27/27 26/26/26 25/25/25
f 30/30/30 29/29/29 28/28/28
f 33/33/33 32/32/32 31/31/31
f 36/36/36 35/35/35 34/34/34
f 39/39/39 38/38/38 37/37/37
f 42/42/42 41/41/41 40/40/40
f 45/45/45 44/44/44 43/43/43
f 48/48/48 47/47/47 46/46/46
f 51/51/51 50/50/50 49/49/49
f 54/54/54 53/53/53 52/52/52
f 57/57/57 56/56/56 55/55/55
f 60/60/60 59/59/59 58/58/58
f 63/63/63 62/62/62 61/61/61
f 66/66/66 65/65/65 64/64/64
f 69/69/69 68/68/68 67/67/67
f 72/72/72 71/71/71 70/70/70
f 75/75/75 74/74/74 73/73/73
f 74/74/74 76/76/76 73/73/73
f 73/73/73 76/76/76 77/77/77
f 78/78/78 76/76/76 74/74/74
f 79/79/79 78/78/78 74/74/74
f 80/80/80 76/76/76 78/78/78
