g KetchupSauce_01
v 0.33803743 -0.31524748 -0.17379248
v 0.3568981 -0.26888168 -0.17379248
v 0.3568981 0.26314625 -0.17379248
v 0.33803743 0.30951205 -0.17379248
v 0.29088578 -0.33410814 -0.17379248
v 0.29088578 0.32915857 -0.17379248
v -0.29143724 -0.33410814 -0.17379248
v -0.29143724 0.32915857 -0.17379248
v -0.33858892 0.30951205 -0.17379248
v -0.33858892 -0.31524748 -0.17379248
v -0.35744956 0.26314625 -0.17379248
v -0.35744956 -0.26888168 -0.17379248
v 0.2869565 0.26314625 -0.09206295
v 0.306603 0.21678045 -0.09206295
v 0.306603 -0.22173001 -0.09206295
v 0.2869565 -0.2680958 -0.09206295
v 0.2398048 0.2820069 -0.09206295
v 0.2398048 -0.2869565 -0.09206295
v -0.2403563 0.2820069 -0.09206295
v -0.2403563 -0.2869565 -0.09206295
v -0.28750792 0.26314625 -0.09206295
v -0.28750792 -0.2680958 -0.09206295
v -0.30715445 0.21678045 -0.09206295
v -0.30715445 -0.22173001 -0.09206295
v 0.23430379 0.22856835 0.15233985
v -0.0006686747 0.3370172 0.017957598
v 0.3568981 0.32444343 0.017957598
v -0.0022403896 0.24664316 0.15233985
v -0.3346596 0.3205141 0.017957598
v -0.22306731 0.24114212 0.15233985
v 0.13292772 0.1594126 0.21992388
v -0.021101058 0.18613186 0.20577839
v 0.18007937 0.055678934 0.22856835
v 0.26259476 0.07611132 0.15233985
v 0.3568981 0.32444343 0.017957598
v 0.35454053 0.10283062 0.017957598
v 0.2563079 -0.078703314 0.15233985
v 0.35454053 -0.10778016 0.017957598
v 0.17693593 -0.059842646 0.22856835
v 0.15807526 -0.20208348 0.15233985
v 0.33410814 -0.30581713 0.017957598
v 0.10385084 -0.15178837 0.21992388
v -0.0006686747 -0.24844928 0.15233985
v -0.010098994 -0.32624954 0.017957598
v -0.014814168 -0.18715212 0.20577839
v -0.1594126 -0.20208348 0.15233985
v -0.3480192 -0.3183909 0.017957598
v -0.13269332 -0.15178837 0.1916329
v -0.25764522 -0.078703314 0.15233985
v -0.35509196 -0.10778016 0.017957598
v -0.20577839 -0.059842646 0.18298844
v -0.26236036 0.076897174 0.15233985
v -0.35509196 0.10283062 0.017957598
v -0.21206525 0.058822393 0.18298844
v -0.3346596 0.3205141 0.017957598
v -0.17827323 0.17827323 0.1916329
v -0.07218203 -0.10070741 0.24900076
v -0.11854783 -0.04019612 0.24821487
v -0.11854783 0.034460694 0.24821487
v -0.07532546 0.098115444 0.24900076
v 0.0056182146 0.12090543 0.2513583
v 0.0056182146 -0.12664083 0.2513583
v 0.090491205 0.10204473 0.2537159
v 0.08577606 -0.105422586 0.2537159
v 0.13842875 0.037604123 0.25528762
v 0.13842875 -0.042553693 0.25528762
v -0.028959662 0.05096376 0.270219
v 0.014262706 0.06353754 0.270219
v 0.056699187 0.05096376 0.270219
v 0.08341846 0.017957598 0.270219
v 0.08341846 -0.022907168 0.270219
v 0.056699187 -0.056699187 0.270219
v 0.014262706 -0.069272965 0.270219
v -0.028959662 -0.056699187 0.270219
v -0.055678934 0.017957598 0.270219
v -0.055678934 -0.022907168 0.270219
v -0.32915857 0.23642698 0.13662264
v -0.30715445 -0.22173001 -0.09206295
v -0.32915857 -0.24216239 0.13662264
v -0.30951205 -0.2885282 0.13662264
v -0.30715445 0.21678045 -0.09206295
v -0.28750792 -0.2680958 -0.09206295
v -0.28750792 0.26314625 -0.09206295
v -0.26236036 -0.30738884 0.13662264
v -0.30951205 0.2835786 0.13662264
v -0.2403563 -0.2869565 -0.09206295
v -0.2403563 0.2820069 -0.09206295
v 0.26180893 -0.30738884 0.13662264
v -0.26236036 0.3024393 0.13662264
v 0.2398048 -0.2869565 -0.09206295
v 0.2398048 0.2820069 -0.09206295
v 0.3089606 -0.2885282 0.13662264
v 0.26180893 0.3024393 0.13662264
v 0.2869565 -0.2680958 -0.09206295
v 0.2869565 0.26314625 -0.09206295
v 0.3089606 0.2835786 0.13662264
v 0.3286071 -0.24216239 0.13662264
v 0.306603 -0.22173001 -0.09206295
v 0.306603 0.21678045 -0.09206295
v 0.3286071 0.23642698 0.13662264
v -0.26236036 0.3024393 0.13662264
v 0.334894 0.37080923 0.13662264
v 0.26180893 0.3024393 0.13662264
v 0.3089606 0.2835786 0.13662264
v -0.33544543 0.37080923 0.13662264
v 0.38204566 0.3511627 0.13662264
v -0.38259712 0.3511627 0.13662264
v -0.30951205 0.2835786 0.13662264
v 0.3286071 0.23642698 0.13662264
v 0.40169218 0.3047969 0.13662264
v -0.40224364 0.3047969 0.13662264
v -0.32915857 0.23642698 0.13662264
v 0.40169218 -0.30974644 0.13662264
v 0.3286071 -0.24216239 0.13662264
v 0.3089606 -0.2885282 0.13662264
v 0.38204566 -0.35611224 0.13662264
v -0.32915857 -0.24216239 0.13662264
v -0.40224364 -0.30974644 0.13662264
v -0.38259712 -0.35611224 0.13662264
v -0.30951205 -0.2885282 0.13662264
v 0.26180893 -0.30738884 0.13662264
v 0.334894 -0.37575877 0.13662264
v -0.33544543 -0.37575877 0.13662264
v -0.26236036 -0.30738884 0.13662264
v -0.33544543 0.37080923 0.13662264
v -0.29143724 0.32915857 -0.17379248
v 0.29088578 0.32915857 -0.17379248
v -0.33858892 0.30951205 -0.17379248
v 0.334894 0.37080923 0.13662264
v -0.38259712 0.3511627 0.13662264
v 0.38204566 0.3511627 0.13662264
v -0.35744956 0.26314625 -0.17379248
v 0.33803743 0.30951205 -0.17379248
v -0.40224364 0.3047969 0.13662264
v 0.40169218 0.3047969 0.13662264
v -0.35744956 -0.26888168 -0.17379248
v 0.3568981 0.26314625 -0.17379248
v -0.40224364 -0.30974644 0.13662264
v 0.40169218 -0.30974644 0.13662264
v -0.33858892 -0.31524748 -0.17379248
v 0.3568981 -0.26888168 -0.17379248
v -0.38259712 -0.35611224 0.13662264
v 0.38204566 -0.35611224 0.13662264
v 0.33803743 -0.31524748 -0.17379248
v -0.29143724 -0.33410814 -0.17379248
v -0.33544543 -0.37575877 0.13662264
v 0.334894 -0.37575877 0.13662264
v 0.29088578 -0.33410814 -0.17379248
vt 0.0234375 0.35217524
vt 0.0234375 0.35217524
vt 0.0234375 0.35217524
vt 0.0234375 0.35217524
vt 0.0234375 0.35217524
vt 0.0234375 0.35217524
vt 0.0234375 0.35217524
vt 0.0234375 0.35217524
vt 0.0234375 0.35217524
vt 0.0234375 0.35217524
vt 0.0234375 0.35217524
vt 0.0234375 0.35217524
vt 0.0234375 0.35217524
vt 0.0234375 0.35217524
vt 0.0234375 0.35217524
vt 0.0234375 0.35217524
vt 0.0234375 0.35217524
vt 0.0234375 0.35217524
vt 0.0234375 0.35217524
vt 0.0234375 0.35217524
vt 0.0234375 0.35217524
vt 0.0234375 0.35217524
vt 0.0234375 0.35217524
vt 0.0234375 0.35217524
vt 0.58984375 0.40326285
vt 0.58984375 0.40326285
vt 0.58984375 0.40326285
vt 0.58984375 0.40326285
vt 0.58984375 0.40326285
vt 0.58984375 0.40326285
vt 0.58984375 0.40326285
vt 0.58984375 0.40326285
vt 0.58984375 0.40326285
vt 0.58984375 0.40326285
vt 0.58984375 0.40326285
vt 0.58984375 0.40326285
vt 0.58984375 0.40326285
vt 0.58984375 0.40326285
vt 0.58984375 0.40326285
vt 0.58984375 0.40326285
vt 0.58984375 0.40326285
vt 0.58984375 0.40326285
vt 0.58984375 0.40326285
vt 0.58984375 0.40326285
vt 0.58984375 0.40326285
vt 0.58984375 0.40326285
vt 0.58984375 0.40326285
vt 0.58984375 0.40326285
vt 0.58984375 0.40326285
vt 0.58984375 0.40326285
vt 0.58984375 0.40326285
vt 0.58984375 0.40326285
vt 0.58984375 0.40326285
vt 0.58984375 0.40326285
vt 0.58984375 0.40326285
vt 0.58984375 0.40326285
vt 0.58984375 0.40326285
vt 0.58984375 0.40326285
vt 0.58984375 0.40326285
vt 0.58984375 0.40326285
vt 0.58984375 0.40326285
vt 0.58984375 0.40326285
vt 0.58984375 0.40326285
vt 0.58984375 0.40326285
vt 0.58984375 0.40326285
vt 0.58984375 0.40326285
vt 0.58984375 0.40326285
vt 0.58984375 0.40326285
vt 0.58984375 0.40326285
vt 0.58984375 0.40326285
vt 0.58984375 0.40326285
vt 0.58984375 0.40326285
vt 0.58984375 0.40326285
vt 0.58984375 0.40326285
vt 0.58984375 0.40326285
vt 0.58984375 0.40326285
vt 0.0234375 0.35217524
vt 0.0234375 0.35217524
vt 0.0234375 0.35217524
vt 0.0234375 0.35217524
vt 0.0234375 0.35217524
vt 0.0234375 0.35217524
vt 0.0234375 0.35217524
vt 0.0234375 0.35217524
vt 0.0234375 0.35217524
vt 0.0234375 0.35217524
vt 0.0234375 0.35217524
vt 0.0234375 0.35217524
vt 0.0234375 0.35217524
vt 0.0234375 0.35217524
vt 0.0234375 0.35217524
vt 0.0234375 0.35217524
vt 0.0234375 0.35217524
vt 0.0234375 0.35217524
vt 0.0234375 0.35217524
vt 0.0234375 0.35217524
vt 0.0234375 0.35217524
vt 0.0234375 0.35217524
vt 0.0234375 0.35217524
vt 0.0234375 0.35217524
vt 0.0234375 0.35217524
vt 0.0234375 0.35217524
vt 0.0234375 0.35217524
vt 0.0234375 0.35217524
vt 0.0234375 0.35217524
vt 0.0234375 0.35217524
vt 0.0234375 0.35217524
vt 0.0234375 0.35217524
vt 0.0234375 0.35217524
vt 0.0234375 0.35217524
vt 0.0234375 0.35217524
vt 0.0234375 0.35217524
vt 0.0234375 0.35217524
vt 0.0234375 0.35217524
vt 0.0234375 0.35217524
vt 0.0234375 0.35217524
vt 0.0234375 0.35217524
vt 0.0234375 0.35217524
vt 0.0234375 0.35217524
vt 0.0234375 0.35217524
vt 0.0234375 0.35217524
vt 0.0234375 0.35217524
vt 0.0234375 0.35217524
vt 0.0234375 0.35217524
vt 0.0234375 0.35217524
vt 0.0234375 0.35217524
vt 0.0234375 0.35217524
vt 0.0234375 0.35217524
vt 0.0234375 0.35217524
vt 0.0234375 0.35217524
vt 0.0234375 0.35217524
vt 0.0234375 0.35217524
vt 0.0234375 0.35217524
vt 0.0234375 0.35217524
vt 0.0234375 0.35217524
vt 0.0234375 0.35217524
vt 0.0234375 0.35217524
vt 0.0234375 0.35217524
vt 0.0234375 0.35217524
vt 0.0234375 0.35217524
vt 0.0234375 0.35217524
vt 0.0234375 0.35217524
vt 0.0234375 0.35217524
vt 0.0234375 0.35217524
vt 0.0234375 0.35217524
vt 0.0234375 0.35217524
vt 0.0234375 0.35217524
vt 0.0234375 0.35217524
vn -0.015516579 0.015516579 -0.99975926
vn -0.015516579 0.015516579 -0.99975926
vn -0.015516579 0.015516579 -0.99975926
vn -0.015516579 0.015516579 -0.99975926
vn -0.015516579 0.015516579 -0.99975926
vn -0.015516579 0.015516579 -0.99975926
vn -0.015516579 0.015516579 -0.99975926
vn -0.015516579 0.015516579 -0.99975926
vn -0.015516579 0.015516579 -0.99975926
vn -0.015516579 0.015516579 -0.99975926
vn -0.015516579 0.015516579 -0.99975926
vn -0.015516579 0.015516579 -0.99975926
vn -0.015516579 0.015516579 0.99975926
vn -0.015516579 0.015516579 0.99975926
vn -0.015516579 0.015516579 0.99975926
vn -0.015516579 0.015516579 0.99975926
vn -0.015516579 0.015516579 0.99975926
vn -0.015516579 0.015516579 0.99975926
vn -0.015516579 0.015516579 0.99975926
vn -0.015516579 0.015516579 0.99975926
vn -0.015516579 0.015516579 0.99975926
vn -0.015516579 0.015516579 0.99975926
vn -0.015516579 0.015516579 0.99975926
vn -0.015516579 0.015516579 0.99975926
vn 0.4189477 0.481014 0.7701352
vn 0.015516579 0.8223789 0.5687286
vn 0.046549737 0.8223789 0.5670327
vn 0.015516579 0.7292794 0.68404007
vn -0.046549797 0.85341203 0.5191542
vn -0.38791454 0.5120473 0.76637447
vn 0.2637819 0.44998085 0.85319185
vn -0.046549797 0.5741136 0.81745136
vn 0.54308033 0.10861611 0.8326261
vn 0.72927934 0.046549797 0.6826307
vn 0.7603125 0.046549797 0.64788735
vn 0.79134566 0.015516579 0.611172
vn 0.6982462 -0.17068237 0.695212
vn 0.72927934 -0.13964921 0.6698132
vn 0.5741135 -0.23274869 0.78499794
vn 0.35688138 -0.60514665 0.7116412
vn 0.44998085 -0.48101404 0.7524246
vn 0.29481506 -0.5741135 0.7638572
vn 0.015516579 -0.72927934 0.6840401
vn 0.015516579 -0.79134566 0.6111721
vn -0.077582955 -0.63617986 0.76763016
vn -0.32584822 -0.54308033 0.7738777
vn -0.44998085 -0.48101404 0.7524246
vn -0.35688138 -0.44998085 0.81862867
vn -0.6361799 -0.13964921 0.75879717
vn -0.7292794 -0.108616054 0.67553985
vn -0.5120473 -0.17068237 0.8418284
vn -0.6672131 0.046549797 0.74341094
vn -0.7913457 0.046549797 0.60959417
vn -0.5120473 0.046549797 0.857695
vn -0.76031256 0.10861611 0.64041185
vn -0.32584822 0.35688138 0.8754762
vn -0.29481506 -0.38791454 0.8732734
vn -0.44998085 -0.13964921 0.88205177
vn -0.44998085 0.077582955 0.8896618
vn -0.23274875 0.32584822 0.91632473
vn -0.015516579 0.4189477 0.9078778
vn -0.046549797 -0.48101404 0.87547624
vn 0.17068237 0.35688138 0.9184243
vn 0.23274869 -0.38791454 0.8918242
vn 0.38791454 0.10861611 0.9152731
vn 0.38791454 -0.17068237 0.90575373
vn -0.10861611 0.13964927 0.98422587
vn -0.015516579 0.17068243 0.9852039
vn 0.077582896 0.13964927 0.987157
vn 0.13964921 0.046549797 0.98910624
vn 0.13964921 -0.046549737 0.98910624
vn 0.077582896 -0.13964921 0.987157
vn -0.015516579 -0.17068237 0.9852039
vn -0.10861611 -0.17068237 0.9793212
vn -0.17068243 0.046549797 0.9842259
vn -0.17068243 -0.077582896 0.98226696
vn 0.97754467 -0.20171553 0.060969327
vn 0.97754467 0.20171559 0.06096914
vn 0.97754467 0.20171559 0.06096914
vn 0.6982462 0.69824624 0.15781137
vn 0.97754467 -0.20171553 0.060969327
vn 0.6982462 0.69824624 0.15781137
vn 0.6982462 -0.6982462 0.15781166
vn 0.20171553 0.97754467 0.060969204
vn 0.6982462 -0.6982462 0.15781166
vn 0.17068237 0.97754467 0.123587735
vn 0.17068237 -0.97754467 0.123587735
vn -0.20171559 0.97754467 0.060969204
vn 0.20171553 -0.97754467 0.060969204
vn -0.17068243 0.97754467 0.123587735
vn -0.17068243 -0.97754467 0.123587735
vn -0.69824624 0.69824624 0.15781118
vn -0.20171559 -0.97754467 0.060969204
vn -0.69824624 0.69824624 0.15781118
vn -0.69824624 -0.6982462 0.15781146
vn -0.69824624 -0.6982462 0.15781146
vn -0.97754467 0.20171559 0.06096914
vn -0.97754467 0.20171559 0.06096914
vn -0.97754467 -0.20171553 0.060969327
vn -0.97754467 -0.20171553 0.060969327
vn -0.015516579 -0.015516579 0.99975926
vn -0.015516579 0.015516579 0.99975926
vn -0.015516579 -0.015516579 0.99975926
vn -0.015516579 0.015516579 0.99975926
vn -0.015516579 -0.015516579 0.99975926
vn -0.015516579 0.015516579 0.99975926
vn -0.015516579 -0.015516579 0.99975926
vn -0.015516579 -0.015516579 0.99975926
vn -0.015516579 0.015516579 0.99975926
vn -0.015516579 0.015516579 0.99975926
vn -0.015516579 0.015516579 0.99975926
vn -0.015516579 0.015516579 0.99975926
vn -0.015516579 0.015516579 0.99975926
vn -0.015516579 0.015516579 0.99975926
vn -0.015516579 0.015516579 0.99975926
vn -0.015516579 0.015516579 0.99975926
vn -0.015516579 0.015516579 0.99975926
vn -0.015516579 0.015516579 0.99975926
vn -0.015516579 0.015516579 0.99975926
vn -0.015516579 0.015516579 0.99975926
vn -0.015516579 0.015516579 0.99975926
vn -0.015516579 0.015516579 0.99975926
vn -0.015516579 0.015516579 0.99975926
vn -0.015516579 0.015516579 0.99975926
vn -0.20171559 0.97754467 -0.060969204
vn -0.17068243 0.97754467 -0.123587735
vn 0.17068237 0.97754467 -0.123587735
vn -0.69824624 0.69824624 -0.15781118
vn 0.20171553 0.97754467 -0.060969204
vn -0.69824624 0.69824624 -0.15781118
vn 0.6982462 0.69824624 -0.15781137
vn -0.97754467 0.17068243 -0.123587705
vn 0.6982462 0.69824624 -0.15781137
vn -0.97754467 0.20171559 -0.06096914
vn 0.97754467 0.20171559 -0.06096914
vn -0.97754467 -0.17068237 -0.12358779
vn 0.97754467 0.17068243 -0.123587705
vn -0.97754467 -0.20171553 -0.060969327
vn 0.97754467 -0.20171553 -0.060969327
vn -0.69824624 -0.6982462 -0.15781146
vn 0.97754467 -0.17068237 -0.12358779
vn -0.69824624 -0.6982462 -0.15781146
vn 0.6982462 -0.6982462 -0.15781166
vn 0.6982462 -0.6982462 -0.15781166
vn -0.17068243 -0.97754467 -0.123587735
vn -0.20171559 -0.97754467 -0.060969204
vn 0.20171553 -0.97754467 -0.060969204
vn 0.17068237 -0.97754467 -0.123587735
g KetchupSauce_01_0
f 3/3/3 2/2/2 1/1/1
f 1/1/1 4/4/4 3/3/3
f 1/1/1 5/5/5 4/4/4
f 5/5/5 6/6/6 4/4/4
f 5/5/5 7/7/7 6/6/6
f 7/7/7 8/8/8 6/6/6
f 7/7/7 9/9/9 8/8/8
f 7/7/7 10/10/10 9/9/9
f 10/10/10 11/11/11 9/9/9
f 10/10/10 12/12/12 11/11/11
f 15/15/15 14/14/14 13/13/13
f 13/13/13 16/16/16 15/15/15
f 13/13/13 17/17/17 16/16/16
f 17/17/17 18/18/18 16/16/16
f 17/17/17 19/19/19 18/18/18
f 19/19/19 20/20/20 18/18/18
f 19/19/19 21/21/21 20/20/20
f 21/21/21 22/22/22 20/20/20
f 21/21/21 23/23/23 22/22/22
f 23/23/23 24/24/24 22/22/22
f 27/27/27 26/26/26 25/25/25
f 26/26/26 28/28/28 25/25/25
f 26/26/26 29/29/29 28/28/28
f 29/29/29 30/30/30 28/28/28
f 25/25/25 28/28/28 31/31/31
f 28/28/28 30/30/30 32/32/32
f 28/28/28 32/32/32 31/31/31
f 25/25/25 31/31/31 33/33/33
f 34/34/34 25/25/25 33/33/33
f 35/35/35 25/25/25 34/34/34
f 36/36/36 35/35/35 34/34/34
f 36/36/36 34/34/34 37/37/37
f 38/38/38 36/36/36 37/37/37
f 34/34/34 33/33/33 39/39/39
f 37/37/37 34/34/34 39/39/39
f 38/38/38 37/37/37 40/40/40
f 41/41/41 38/38/38 40/40/40
f 37/37/37 39/39/39 42/42/42
f 40/40/40 37/37/37 42/42/42
f 41/41/41 40/40/40 43/43/43
f 44/44/44 41/41/41 43/43/43
f 40/40/40 42/42/42 45/45/45
f 43/43/43 40/40/40 45/45/45
f 44/44/44 43/43/43 46/46/46
f 47/47/47 44/44/44 46/46/46
f 43/43/43 45/45/45 48/48/48
f 46/46/46 43/43/43 48/48/48
f 47/47/47 46/46/46 49/49/49
f 50/50/50 47/47/47 49/49/49
f 46/46/46 48/48/48 51/51/51
f 49/49/49 46/46/46 51/51/51
f 50/50/50 49/49/49 52/52/52
f 53/53/53 50/50/50 52/52/52
f 49/49/49 51/51/51 54/54/54
f 52/52/52 49/49/49 54/54/54
f 53/53/53 52/52/52 30/30/30
f 55/55/55 53/53/53 30/30/30
f 30/30/30 52/52/52 56/56/56
f 52/52/52 54/54/54 56/56/56
f 30/30/30 56/56/56 32/32/32
f 48/48/48 45/45/45 57/57/57
f 51/51/51 48/48/48 58/58/58
f 48/48/48 57/57/57 58/58/58
f 54/54/54 51/51/51 59/59/59
f 51/51/51 58/58/58 59/59/59
f 56/56/56 54/54/54 60/60/60
f 54/54/54 59/59/59 60/60/60
f 32/32/32 56/56/56 61/61/61
f 56/56/56 60/60/60 61/61/61
f 45/45/45 62/62/62 57/57/57
f 45/45/45 42/42/42 62/62/62
f 32/32/32 61/61/61 63/63/63
f 31/31/31 32/32/32 63/63/63
f 42/42/42 64/64/64 62/62/62
f 42/42/42 39/39/39 64/64/64
f 31/31/31 63/63/63 65/65/65
f 33/33/33 31/31/31 65/65/65
f 39/39/39 33/33/33 66/66/66
f 39/39/39 66/66/66 64/64/64
f 33/33/33 65/65/65 66/66/66
f 60/60/60 67/67/67 61/61/61
f 61/61/61 68/68/68 63/63/63
f 67/67/67 68/68/68 61/61/61
f 63/63/63 69/69/69 65/65/65
f 68/68/68 69/69/69 63/63/63
f 65/65/65 70/70/70 66/66/66
f 69/69/69 70/70/70 65/65/65
f 70/70/70 71/71/71 66/66/66
f 66/66/66 71/71/71 64/64/64
f 71/71/71 70/70/70 69/69/69
f 71/71/71 72/72/72 64/64/64
f 69/69/69 72/72/72 71/71/71
f 69/69/69 68/68/68 72/72/72
f 64/64/64 72/72/72 62/62/62
f 72/72/72 73/73/73 62/62/62
f 68/68/68 73/73/73 72/72/72
f 62/62/62 73/73/73 57/57/57
f 68/68/68 74/74/74 73/73/73
f 73/73/73 74/74/74 57/57/57
f 68/68/68 67/67/67 74/74/74
f 57/57/57 74/74/74 58/58/58
f 67/67/67 75/75/75 74/74/74
f 75/75/75 67/67/67 60/60/60
f 59/59/59 75/75/75 60/60/60
f 74/74/74 76/76/76 58/58/58
f 75/75/75 76/76/76 74/74/74
f 76/76/76 75/75/75 59/59/59
f 58/58/58 76/76/76 59/59/59
f 79/79/79 78/78/78 77/77/77
f 79/79/79 80/80/80 78/78/78
f 78/78/78 81/81/81 77/77/77
f 80/80/80 82/82/82 78/78/78
f 81/81/81 83/83/83 77/77/77
f 80/80/80 84/84/84 82/82/82
f 83/83/83 85/85/85 77/77/77
f 84/84/84 86/86/86 82/82/82
f 83/83/83 87/87/87 85/85/85
f 86/86/86 84/84/84 88/88/88
f 87/87/87 89/89/89 85/85/85
f 90/90/90 86/86/86 88/88/88
f 87/87/87 91/91/91 89/89/89
f 88/88/88 92/92/92 90/90/90
f 91/91/91 93/93/93 89/89/89
f 92/92/92 94/94/94 90/90/90
f 93/93/93 91/91/91 95/95/95
f 96/96/96 93/93/93 95/95/95
f 92/92/92 97/97/97 94/94/94
f 97/97/97 98/98/98 94/94/94
f 96/96/96 95/95/95 99/99/99
f 99/99/99 98/98/98 97/97/97
f 100/100/100 96/96/96 99/99/99
f 100/100/100 99/99/99 97/97/97
f 103/103/103 102/102/102 101/101/101
f 102/102/102 103/103/103 104/104/104
f 102/102/102 105/105/105 101/101/101
f 106/106/106 102/102/102 104/104/104
f 105/105/105 107/107/107 101/101/101
f 107/107/107 108/108/108 101/101/101
f 106/106/106 104/104/104 109/109/109
f 110/110/110 106/106/106 109/109/109
f 107/107/107 111/111/111 108/108/108
f 111/111/111 112/112/112 108/108/108
f 113/113/113 110/110/110 109/109/109
f 114/114/114 113/113/113 109/109/109
f 113/113/113 114/114/114 115/115/115
f 116/116/116 113/113/113 115/115/115
f 112/112/112 111/111/111 117/117/117
f 111/111/111 118/118/118 117/117/117
f 118/118/118 119/119/119 117/117/117
f 119/119/119 120/120/120 117/117/117
f 116/116/116 115/115/115 121/121/121
f 122/122/122 116/116/116 121/121/121
f 119/119/119 123/123/123 120/120/120
f 123/123/123 122/122/122 121/121/121
f 123/123/123 124/124/124 120/120/120
f 124/124/124 123/123/123 121/121/121
f 127/127/127 126/126/126 125/125/125
f 126/126/126 128/128/128 125/125/125
f 129/129/129 127/127/127 125/125/125
f 128/128/128 130/130/130 125/125/125
f 127/127/127 129/129/129 131/131/131
f 128/128/128 132/132/132 130/130/130
f 133/133/133 127/127/127 131/131/131
f 132/132/132 134/134/134 130/130/130
f 133/133/133 131/131/131 135/135/135
f 134/134/134 132/132/132 136/136/136
f 137/137/137 133/133/133 135/135/135
f 138/138/138 134/134/134 136/136/136
f 135/135/135 139/139/139 137/137/137
f 136/136/136 140/140/140 138/138/138
f 139/139/139 141/141/141 137/137/137
f 140/140/140 142/142/142 138/138/138
f 141/141/141 139/139/139 143/143/143
f 144/144/144 141/141/141 143/143/143
f 140/140/140 145/145/145 142/142/142
f 145/145/145 146/146/146 142/142/142
f 144/144/144 143/143/143 147/147/147
f 146/146/146 145/145/145 147/147/147
f 148/148/148 144/144/144 147/147/147
f 145/145/145 148/148/148 147/147/147
