g Lock.001
v -0.46596235 0.23358059 -0.524565
v -0.46596235 -0.069483995 -0.524565
v -0.4485337 -0.1237064 -0.524565
v -0.40689868 -0.1605002 -0.524565
v -0.3739779 0.37107313 -0.524565
v -0.30523163 0.3943113 -0.524565
v -0.08156419 0.13191354 -0.524565
v -0.074786365 0.10092932 -0.524565
v -0.05735773 0.07381809 -0.524565
v -0.074786365 0.16289777 -0.524565
v -0.038960814 -0.33865955 -0.524565
v -0.031214774 0.05638945 -0.524565
v -0.031214774 -0.121769905 -0.524565
v -0.05735773 0.18904072 -0.524565
v -0.00023055077 -0.34156433 -0.524565
v -0.00023055077 -0.121769905 -0.524565
v 0.030753702 -0.121769905 -0.524565
v 0.038499743 -0.33865955 -0.524565
v -0.031214774 0.20646936 -0.524565
v -0.00023055077 0.21324718 -0.524565
v -0.00023055077 0.21324718 -0.524565
v -0.00023055077 0.4175495 -0.524565
v 0.030753702 0.05638945 -0.524565
v 0.057864904 0.07381809 -0.524565
v 0.07529354 0.10092932 -0.524565
v 0.08110309 0.13191354 -0.524565
v 0.30477053 0.3943113 -0.524565
v 0.07529354 0.16289777 -0.524565
v 0.37351683 0.37107313 -0.524565
v -0.00023055077 0.4175495 -0.524565
v 0.057864904 0.18904072 -0.524565
v 0.030753702 0.20646936 -0.524565
v -0.00023055077 0.21324718 -0.524565
v 0.40643758 -0.1605002 -0.524565
v 0.4490409 -0.1237064 -0.524565
v 0.46550128 -0.069483995 -0.524565
v 0.46550128 0.23358059 -0.524565
v -0.00023055077 0.21324718 -0.524565
v -0.031214774 0.20646936 -0.524565
v -0.031214774 0.20646936 -0.2670085
v -0.00023055077 0.21324718 -0.2670085
v -0.074786365 0.10092932 -0.2670085
v -0.074786365 0.10092932 -0.524565
v -0.05735773 0.07381809 -0.524565
v -0.05735773 0.07381809 -0.2670085
v -0.031214774 0.05638945 -0.2670085
v -0.031214774 0.05638945 -0.524565
v -0.031214774 -0.121769905 -0.524565
v -0.031214774 -0.121769905 -0.26797676
v -0.05735773 0.07381809 -0.2670085
v -0.05735773 0.07381809 -0.524565
v -0.031214774 0.05638945 -0.524565
v -0.031214774 0.05638945 -0.2670085
v 0.07529354 0.10092932 -0.524565
v 0.08110309 0.13191354 -0.524565
v 0.08110309 0.13191354 -0.2670085
v 0.07529354 0.10092932 -0.2670085
v 0.08110309 0.13191354 -0.524565
v 0.07529354 0.16289777 -0.524565
v 0.07529354 0.16289777 -0.2670085
v 0.08110309 0.13191354 -0.2670085
v 0.07529354 0.16289777 -0.524565
v 0.057864904 0.18904072 -0.524565
v 0.057864904 0.18904072 -0.2670085
v 0.07529354 0.16289777 -0.2670085
v -0.074786365 0.16289777 -0.2670085
v -0.074786365 0.16289777 -0.524565
v -0.08156419 0.13191354 -0.524565
v -0.08156419 0.13191354 -0.2670085
v 0.030753702 0.05638945 -0.2670085
v 0.030753702 0.05638945 -0.524565
v 0.057864904 0.07381809 -0.524565
v 0.057864904 0.07381809 -0.2670085
v -0.08156419 0.13191354 -0.2670085
v -0.08156419 0.13191354 -0.524565
v -0.074786365 0.10092932 -0.524565
v -0.074786365 0.10092932 -0.2670085
v 0.057864904 0.18904072 -0.524565
v 0.030753702 0.20646936 -0.524565
v 0.030753702 0.20646936 -0.2670085
v 0.057864904 0.18904072 -0.2670085
v 0.030753702 0.05638945 -0.2670085
v 0.030753702 0.05638945 -0.524565
v 0.030753702 -0.121769905 -0.524565
v 0.030753702 -0.121769905 -0.26797676
v -0.031214774 0.20646936 -0.524565
v -0.05735773 0.18904072 -0.524565
v -0.05735773 0.18904072 -0.2670085
v -0.031214774 0.20646936 -0.2670085
v 0.030753702 0.20646936 -0.2670085
v 0.030753702 0.20646936 -0.524565
v -0.00023055077 0.21324718 -0.524565
v -0.00023055077 0.21324718 -0.524565
v -0.00023055077 0.21324718 -0.2670085
v 0.057864904 0.07381809 -0.524565
v 0.07529354 0.10092932 -0.524565
v 0.07529354 0.10092932 -0.2670085
v 0.057864904 0.07381809 -0.2670085
v -0.031214774 -0.121769905 -0.26797676
v -0.031214774 -0.121769905 -0.524565
v -0.00023055077 -0.121769905 -0.524565
v 0.030753702 -0.121769905 -0.524565
v 0.030753702 -0.121769905 -0.26797676
v -0.05735773 0.18904072 -0.2670085
v -0.05735773 0.18904072 -0.524565
v -0.074786365 0.16289777 -0.524565
v -0.074786365 0.16289777 -0.2670085
v -0.40689868 -0.1605002 -0.524565
v -0.4485337 -0.1237064 -0.34156433
v -0.40689868 -0.1605002 -0.34156433
v -0.038960814 -0.33865955 -0.34156433
v -0.4485337 -0.1237064 -0.524565
v -0.038960814 -0.33865955 -0.524565
v -0.46596235 -0.069483995 -0.34156433
v -0.46596235 -0.069483995 -0.524565
v -0.46596235 0.23358059 -0.524565
v -0.46596235 0.23358059 -0.34156433
v -0.3739779 0.37107313 -0.524565
v -0.3739779 0.37107313 -0.34156433
v -0.30523163 0.3943113 -0.524565
v -0.30523163 0.3943113 -0.34156433
v -0.00023055077 -0.34156433 -0.34156433
v -0.00023055077 -0.34156433 -0.524565
v 0.038499743 -0.33865955 -0.524565
v 0.038499743 -0.33865955 -0.34156433
v -0.00023055077 0.4175495 -0.524565
v -0.00023055077 0.4175495 -0.34156433
v 0.30477053 0.3943113 -0.34156433
v 0.30477053 0.3943113 -0.524565
v 0.37351683 0.37107313 -0.34156433
v 0.37351683 0.37107313 -0.524565
v 0.46550128 0.23358059 -0.34156433
v 0.46550128 0.23358059 -0.524565
v 0.40643758 -0.1605002 -0.524565
v 0.40643758 -0.1605002 -0.34156433
v 0.4490409 -0.1237064 -0.34156433
v 0.4490409 -0.1237064 -0.524565
v 0.46550128 -0.069483995 -0.34156433
v 0.46550128 -0.069483995 -0.524565
vt 0.6797845 0.25365093
vt 0.6797845 0.2164488
vt 0.6797845 0.20968477
vt 0.6730205 0.20630276
vt 0.6662564 0.27056098
vt 0.6561104 0.27056098
vt 0.6358183 0.24012288
vt 0.6358183 0.23335886
vt 0.63243634 0.23335886
vt 0.63243634 0.2435049
vt 0.63243634 0.18262866
vt 0.6290543 0.22997685
vt 0.6290543 0.20968477
vt 0.63243634 0.2435049
vt 0.6256723 0.18262866
vt 0.6256723 0.20968477
vt 0.62229025 0.20968477
vt 0.62229025 0.18262866
vt 0.6290543 0.24688691
vt 0.6256723 0.24688691
vt 0.6256723 0.24688691
vt 0.6256723 0.26717898
vt 0.62229025 0.22997685
vt 0.6189083 0.22997685
vt 0.61552626 0.23335886
vt 0.61552626 0.23674087
vt 0.5918522 0.27056098
vt 0.61552626 0.24012288
vt 0.5817061 0.26717898
vt 0.6256723 0.26717898
vt 0.6189083 0.2435049
vt 0.62229025 0.24688691
vt 0.6256723 0.24688691
vt 0.57832414 0.20292075
vt 0.5715601 0.20630276
vt 0.5715601 0.21306679
vt 0.5715601 0.2502689
vt 0.83535707 0.273943
vt 0.83535707 0.277325
vt 0.86241317 0.277325
vt 0.86241317 0.273943
vt 0.86241317 0.29085305
vt 0.83535707 0.29085305
vt 0.83535707 0.29423508
vt 0.86241317 0.29423508
vt 0.86241317 0.29423508
vt 0.83535707 0.29423508
vt 0.83535707 0.31452715
vt 0.86241317 0.31452715
vt 0.86241317 0.29423508
vt 0.83535707 0.29423508
vt 0.83535707 0.29423508
vt 0.86241317 0.29423508
vt 0.83535707 0.34496525
vt 0.83535707 0.34834728
vt 0.86241317 0.34834728
vt 0.86241317 0.34496525
vt 0.83535707 0.34834728
vt 0.83535707 0.35172927
vt 0.86241317 0.35172927
vt 0.86241317 0.34834728
vt 0.83535707 0.35172927
vt 0.83535707 0.3551113
vt 0.86241317 0.3551113
vt 0.86241317 0.35172927
vt 0.86241317 0.28408903
vt 0.83535707 0.28408903
vt 0.83535707 0.28747106
vt 0.86241317 0.28747106
vt 0.86241317 0.33820122
vt 0.83535707 0.33820122
vt 0.83535707 0.34158325
vt 0.86241317 0.34158325
vt 0.86241317 0.28747106
vt 0.83535707 0.28747106
vt 0.83535707 0.29085305
vt 0.86241317 0.29085305
vt 0.83535707 0.3551113
vt 0.83535707 0.3584933
vt 0.86241317 0.3584933
vt 0.86241317 0.3551113
vt 0.86241317 0.33820122
vt 0.83535707 0.33820122
vt 0.83535707 0.32129118
vt 0.86241317 0.32129118
vt 0.83535707 0.277325
vt 0.83535707 0.28070703
vt 0.86241317 0.28070703
vt 0.86241317 0.277325
vt 0.86241317 0.3584933
vt 0.83535707 0.3584933
vt 0.83535707 0.36187533
vt 0.83535707 0.36187533
vt 0.86241317 0.36187533
vt 0.83535707 0.34158325
vt 0.83535707 0.34496525
vt 0.86241317 0.34496525
vt 0.86241317 0.34158325
vt 0.86241317 0.31452715
vt 0.83535707 0.31452715
vt 0.83535707 0.31790915
vt 0.83535707 0.32129118
vt 0.86241317 0.32129118
vt 0.86241317 0.28070703
vt 0.83535707 0.28070703
vt 0.83535707 0.28408903
vt 0.86241317 0.28408903
vt 0.6730205 0.34496525
vt 0.65949243 0.3280552
vt 0.6561104 0.3314372
vt 0.6256723 0.34496525
vt 0.67640245 0.33820122
vt 0.6290543 0.36525732
vt 0.6628744 0.32467318
vt 0.6797845 0.3314372
vt 0.6797845 0.29423508
vt 0.6628744 0.3009991
vt 0.6662564 0.277325
vt 0.6561104 0.29085305
vt 0.6561104 0.27056098
vt 0.64934635 0.28747106
vt 0.62229025 0.34834728
vt 0.62229025 0.36525732
vt 0.6189083 0.36525732
vt 0.6189083 0.34496525
vt 0.6256723 0.26717898
vt 0.6256723 0.28408903
vt 0.5986162 0.28747106
vt 0.5918522 0.27056098
vt 0.5918522 0.29085305
vt 0.5817061 0.273943
vt 0.58508813 0.3009991
vt 0.56817806 0.29085305
vt 0.5749421 0.34496525
vt 0.5918522 0.3314372
vt 0.58847016 0.3280552
vt 0.5715601 0.33820122
vt 0.58508813 0.32467318
vt 0.56817806 0.3314372
vn -0.015871048 -0.015870988 -0.99974805
vn -0.015871048 -0.015870988 -0.99974805
vn -0.015871048 -0.015870988 -0.99974805
vn -0.015871048 -0.015870988 -0.99974805
vn -0.015871048 -0.015870988 -0.99974805
vn -0.015871048 -0.015870988 -0.99974805
vn -0.015871048 -0.015870988 -0.99974805
vn -0.015871048 -0.015870988 -0.99974805
vn -0.015871048 -0.015870988 -0.99974805
vn -0.015871048 -0.015870988 -0.99974805
vn -0.015871048 -0.015870988 -0.99974805
vn -0.015871048 -0.015870988 -0.99974805
vn -0.015871048 -0.015870988 -0.99974805
vn -0.015871048 -0.015870988 -0.99974805
vn -0.015871048 -0.015870988 -0.99974805
vn -0.015871048 -0.015870988 -0.99974805
vn -0.015871048 -0.015870988 -0.99974805
vn -0.015871048 -0.015870988 -0.99974805
vn -0.015871048 -0.015870988 -0.99974805
vn -0.015871048 -0.015870988 -0.99974805
vn -0.015871048 -0.015870988 -0.99974805
vn -0.015871048 -0.015870988 -0.99974805
vn -0.015871048 -0.015870988 -0.99974805
vn -0.015871048 -0.015870988 -0.99974805
vn -0.015871048 -0.015870988 -0.99974805
vn -0.015871048 -0.015870988 -0.99974805
vn -0.015871048 -0.015870988 -0.99974805
vn -0.015871048 -0.015870988 -0.99974805
vn -0.015871048 -0.015870988 -0.99974805
vn -0.015871048 -0.015870988 -0.99974805
vn -0.015871048 -0.015870988 -0.99974805
vn -0.015871048 -0.015870988 -0.99974805
vn -0.015871048 -0.015870988 -0.99974805
vn -0.015871048 -0.015870988 -0.99974805
vn -0.015871048 -0.015870988 -0.99974805
vn -0.015871048 -0.015870988 -0.99974805
vn -0.015871048 -0.015870988 -0.99974805
vn 0.2063232 -0.96813196 -0.14195512
vn 0.2063232 -0.96813196 -0.14195512
vn 0.2063232 -0.96813196 -0.14195512
vn 0.2063232 -0.96813196 -0.14195512
vn 0.8344646 0.55106163 -0
vn 0.8344646 0.55106163 -0
vn 0.8344646 0.55106163 -0
vn 0.8344646 0.55106163 -0
vn 0.999874 0.015871048 -0.00034391563
vn 0.999874 0.015871048 -0.00034391563
vn 0.999874 0.015871048 -0.00034391563
vn 0.999874 0.015871048 -0.00034391563
vn 0.5510615 0.8344646 -0
vn 0.5510615 0.8344646 -0
vn 0.5510615 0.8344646 -0
vn 0.5510615 0.8344646 -0
vn -0.968132 0.20632327 0.14195466
vn -0.968132 0.20632327 0.14195466
vn -0.968132 0.20632327 0.14195466
vn -0.968132 0.20632327 0.14195466
vn -0.968132 -0.2063232 0.14195476
vn -0.968132 -0.2063232 0.14195476
vn -0.968132 -0.2063232 0.14195476
vn -0.968132 -0.2063232 0.14195476
vn -0.8344646 -0.5510615 -0
vn -0.8344646 -0.5510615 -0
vn -0.8344646 -0.5510615 -0
vn -0.8344646 -0.5510615 -0
vn 0.96813196 -0.2063232 -0.14195518
vn 0.96813196 -0.2063232 -0.14195518
vn 0.96813196 -0.2063232 -0.14195518
vn 0.96813196 -0.2063232 -0.14195518
vn -0.5510616 0.8344646 -0
vn -0.5510616 0.8344646 -0
vn -0.5510616 0.8344646 -0
vn -0.5510616 0.8344646 -0
vn 0.96813196 0.20632327 -0.14195509
vn 0.96813196 0.20632327 -0.14195509
vn 0.96813196 0.20632327 -0.14195509
vn 0.96813196 0.20632327 -0.14195509
vn -0.55106163 -0.8344646 -0
vn -0.55106163 -0.8344646 -0
vn -0.55106163 -0.8344646 -0
vn -0.55106163 -0.8344646 -0
vn 0.999874 -0.015870988 -0.00034665503
vn 0.999874 -0.015870988 -0.00034665503
vn 0.999874 -0.015870988 -0.00034665503
vn 0.999874 -0.015870988 -0.00034665503
vn 0.5510616 -0.8344646 -0
vn 0.5510616 -0.8344646 -0
vn 0.5510616 -0.8344646 -0
vn 0.5510616 -0.8344646 -0
vn -0.20632327 -0.96813196 -0.14195512
vn -0.20632327 -0.96813196 -0.14195512
vn -0.20632327 -0.96813196 -0.14195512
vn -0.20632327 -0.96813196 -0.14195512
vn -0.20632327 -0.96813196 -0.14195512
vn -0.8344646 0.5510616 -0
vn -0.8344646 0.5510616 -0
vn -0.8344646 0.5510616 -0
vn -0.8344646 0.5510616 -0
vn 0.015870988 0.999874 -0.00034526698
vn 0.015870988 0.999874 -0.00034526698
vn 0.015870988 0.999874 -0.00034526698
vn 0.015870988 0.999874 -0.00034526698
vn 0.015870988 0.999874 -0.00034526698
vn 0.8344646 -0.5510616 -0
vn 0.8344646 -0.5510616 -0
vn 0.8344646 -0.5510616 -0
vn 0.8344646 -0.5510616 -0
vn -0.39677536 -0.6189696 -0.6778244
vn -0.8344646 -0.5510615 -0
vn -0.55106163 -0.8344646 -0
vn -0.2684583 -0.9632913 -0
vn -0.65071166 -0.4285174 -0.62685496
vn -0.20632327 -0.7141957 -0.6688462
vn -0.98994946 -0.14142135 -0
vn -0.7141957 -0.1110971 -0.691073
vn -0.7141957 0.20632327 -0.6688462
vn -0.95475805 0.29738364 -0
vn -0.46025944 0.6189697 -0.6364258
vn -0.6074502 0.79435784 -0
vn -0.1428392 0.7141957 -0.68521637
vn -0.20632327 0.968132 -0.1419547
vn -0.015871048 -0.999874 -0.00034526698
vn -0.015871048 -0.7141957 -0.6997661
vn 0.2063232 -0.7141957 -0.6688462
vn 0.26845825 -0.9632913 -0
vn -0.015871048 0.7141957 -0.6997661
vn -0.015871048 0.999874 -0.00034526698
vn 0.2063232 0.968132 -0.1419547
vn 0.14283913 0.7141957 -0.68521637
vn 0.6074501 0.79435784 -0
vn 0.46025944 0.6189697 -0.6364258
vn 0.954758 0.29738364 -0
vn 0.7141957 0.20632327 -0.6688462
vn 0.39677536 -0.6189696 -0.6778244
vn 0.5510616 -0.8344646 -0
vn 0.8344646 -0.5510616 -0
vn 0.65071166 -0.4285174 -0.62685496
vn 0.98994946 -0.14142135 -0
vn 0.7141957 -0.1110971 -0.691073
g Lock.001_0
f 3/3/3 2/2/2 1/1/1
f 4/4/4 3/3/3 1/1/1
f 4/4/4 1/1/1 5/5/5
f 4/4/4 5/5/5 6/6/6
f 4/4/4 6/6/6 7/7/7
f 4/4/4 7/7/7 8/8/8
f 4/4/4 8/8/8 9/9/9
f 10/10/10 7/7/7 6/6/6
f 11/11/11 4/4/4 9/9/9
f 11/11/11 9/9/9 12/12/12
f 11/11/11 12/12/12 13/13/13
f 14/14/14 10/10/10 6/6/6
f 15/15/15 11/11/11 13/13/13
f 13/13/13 16/16/16 15/15/15
f 15/15/15 16/16/16 17/17/17
f 18/18/18 15/15/15 17/17/17
f 19/19/19 14/14/14 6/6/6
f 20/20/20 19/19/19 6/6/6
f 21/21/21 20/20/20 6/6/6
f 6/6/6 22/22/22 21/21/21
f 18/18/18 17/17/17 23/23/23
f 18/18/18 23/23/23 24/24/24
f 18/18/18 24/24/24 25/25/25
f 18/18/18 25/25/25 26/26/26
f 18/18/18 26/26/26 27/27/27
f 27/27/27 26/26/26 28/28/28
f 18/18/18 27/27/27 29/29/29
f 28/28/28 30/30/30 27/27/27
f 28/28/28 31/31/31 30/30/30
f 31/31/31 32/32/32 30/30/30
f 32/32/32 33/33/33 30/30/30
f 34/34/34 18/18/18 29/29/29
f 35/35/35 34/34/34 29/29/29
f 36/36/36 35/35/35 29/29/29
f 29/29/29 37/37/37 36/36/36
f 40/40/40 39/39/39 38/38/38
f 41/41/41 40/40/40 38/38/38
f 44/44/44 43/43/43 42/42/42
f 45/45/45 44/44/44 42/42/42
f 48/48/48 47/47/47 46/46/46
f 49/49/49 48/48/48 46/46/46
f 52/52/52 51/51/51 50/50/50
f 53/53/53 52/52/52 50/50/50
f 56/56/56 55/55/55 54/54/54
f 57/57/57 56/56/56 54/54/54
f 60/60/60 59/59/59 58/58/58
f 61/61/61 60/60/60 58/58/58
f 64/64/64 63/63/63 62/62/62
f 65/65/65 64/64/64 62/62/62
f 68/68/68 67/67/67 66/66/66
f 69/69/69 68/68/68 66/66/66
f 72/72/72 71/71/71 70/70/70
f 73/73/73 72/72/72 70/70/70
f 76/76/76 75/75/75 74/74/74
f 77/77/77 76/76/76 74/74/74
f 80/80/80 79/79/79 78/78/78
f 81/81/81 80/80/80 78/78/78
f 84/84/84 83/83/83 82/82/82
f 85/85/85 84/84/84 82/82/82
f 88/88/88 87/87/87 86/86/86
f 89/89/89 88/88/88 86/86/86
f 92/92/92 91/91/91 90/90/90
f 90/90/90 93/93/93 92/92/92
f 90/90/90 94/94/94 93/93/93
f 97/97/97 96/96/96 95/95/95
f 98/98/98 97/97/97 95/95/95
f 101/101/101 100/100/100 99/99/99
f 99/99/99 102/102/102 101/101/101
f 99/99/99 103/103/103 102/102/102
f 106/106/106 105/105/105 104/104/104
f 107/107/107 106/106/106 104/104/104
f 110/110/110 109/109/109 108/108/108
f 110/110/110 108/108/108 111/111/111
f 109/109/109 112/112/112 108/108/108
f 108/108/108 113/113/113 111/111/111
f 109/109/109 114/114/114 112/112/112
f 114/114/114 115/115/115 112/112/112
f 116/116/116 115/115/115 114/114/114
f 117/117/117 116/116/116 114/114/114
f 118/118/118 116/116/116 117/117/117
f 119/119/119 118/118/118 117/117/117
f 120/120/120 118/118/118 119/119/119
f 121/121/121 120/120/120 119/119/119
f 111/111/111 113/113/113 122/122/122
f 113/113/113 123/123/123 122/122/122
f 123/123/123 124/124/124 122/122/122
f 124/124/124 125/125/125 122/122/122
f 126/126/126 120/120/120 121/121/121
f 127/127/127 126/126/126 121/121/121
f 126/126/126 127/127/127 128/128/128
f 129/129/129 126/126/126 128/128/128
f 129/129/129 128/128/128 130/130/130
f 131/131/131 129/129/129 130/130/130
f 131/131/131 130/130/130 132/132/132
f 133/133/133 131/131/131 132/132/132
f 124/124/124 134/134/134 125/125/125
f 134/134/134 135/135/135 125/125/125
f 136/136/136 135/135/135 134/134/134
f 137/137/137 136/136/136 134/134/134
f 133/133/133 132/132/132 138/138/138
f 138/138/138 136/136/136 137/137/137
f 139/139/139 133/133/133 138/138/138
f 139/139/139 138/138/138 137/137/137
