g log
v 0.25417328 -0.5108433 0.27414745
v 0.0004994273 -0.5108433 0.37901264
v 0.13832223 -0.5108433 0.35204732
v 0.3800115 -0.5108433 0.016478717
v 0.3370667 -0.5108433 0.15729767
v -0.38800108 -0.5108433 0.03345692
v -0.28213716 -0.5108433 0.28713077
v -0.14231694 -0.5108433 0.35504347
v -0.37501776 -0.5108433 0.1782707
v 0.0004994273 -0.5108433 -0.37901276
v -0.25916672 -0.5108433 -0.24818099
v -0.339064 -0.5108433 -0.11934662
v -0.13932079 -0.5108433 -0.343059
v 0.2751463 -0.5108433 -0.24118999
v 0.14331582 -0.5108433 -0.33806542
v 0.36103588 -0.5108433 -0.1233415
v 0.33207312 0.51084316 -0.11635047
v 0.13832223 0.51084316 -0.32308468
v 0.25417328 0.51084316 -0.2371951
v 0.3440577 0.51084316 0.15729767
v 0.36602947 0.51084316 0.0204736
v -0.33107424 0.51084316 -0.11635047
v -0.13632464 0.51084316 -0.32308468
v 0.0004994273 0.51084316 -0.3550436
v -0.25317442 0.51084316 -0.2371951
v -0.13632464 0.51084316 0.35204732
v -0.33107424 0.51084316 0.15729767
v -0.35803962 0.51084316 0.0204736
v -0.25317442 0.51084316 0.27414745
v 0.13832223 0.51084316 0.35204732
v 0.0004994273 0.51084316 0.37901264
v 0.262163 0.51084316 0.27414745
v -0.38800108 -0.5108433 0.03345692
v -0.35404474 -0.25517198 0.16328996
v -0.37501776 -0.5108433 0.1782707
v -0.37401903 -0.25517198 0.019474864
v -0.36902547 0.0004993081 0.15330285
v -0.339064 -0.5108433 -0.11934662
v -0.38500494 -0.0004994273 0.0154800415
v -0.34006274 0.25517184 0.15729767
v -0.3470537 -0.25517198 -0.13832223
v -0.25916672 -0.5108433 -0.24818099
v -0.3640319 0.25517184 0.019474864
v -0.33107424 0.51084316 0.15729767
v -0.35803962 0.51084316 0.0204736
v -0.27814233 -0.25517198 -0.269154
v -0.13932079 -0.5108433 -0.343059
v -0.353046 -0.0004994273 -0.1303325
v -0.33506912 0.25517184 -0.11934662
v -0.33107424 0.51084316 -0.11635047
v -0.15230411 -0.25517198 -0.34006286
v 0.0004994273 -0.5108433 -0.37901276
v -0.27614486 -0.0004994273 -0.2611643
v -0.25916672 0.25517184 -0.23919255
v -0.25317442 0.51084316 -0.2371951
v -0.0014979839 -0.25517198 -0.35803974
v 0.14331582 -0.5108433 -0.33806542
v -0.15330285 -0.0004994273 -0.3490513
v -0.14031953 0.25517184 -0.32308468
v -0.13632464 0.51084316 -0.32308468
v 0.14131838 -0.25517198 -0.32008854
v 0.2751463 -0.5108433 -0.24118999
v -0.0024967194 -0.0004994273 -0.37202176
v 0.0004994273 0.25517184 -0.35304618
v 0.0004994273 0.51084316 -0.3550436
v 0.2731489 -0.25517198 -0.25017843
v 0.36103588 -0.5108433 -0.1233415
v 0.14331582 -0.0004994273 -0.33307183
v 0.13832223 0.25517184 -0.31908983
v 0.13832223 0.51084316 -0.32308468
v 0.36003715 -0.25517198 -0.14231709
v 0.3800115 -0.5108433 0.016478717
v 0.2751463 0.0004993081 -0.25117713
v 0.2611643 0.25517184 -0.2371951
v 0.25417328 0.51084316 -0.2371951
v 0.37901276 -0.25517198 0.0034954548
v 0.3370667 -0.5108433 0.15729767
v 0.36303332 0.0004993081 -0.14331582
v 0.34705386 0.25517184 -0.1233415
v 0.33207312 0.51084316 -0.11635047
v 0.3370667 -0.25517198 0.15430152
v 0.25417328 -0.5108433 0.27414745
v 0.3880012 0.0004993081 0.0034954548
v 0.38500506 0.25517184 0.017477453
v 0.36602947 0.51084316 0.0204736
v 0.25417328 -0.25517198 0.27414745
v 0.13832223 -0.5108433 0.35204732
v 0.34805256 0.0004993081 0.15530026
v 0.36103588 0.25517184 0.15729767
v 0.3440577 0.51084316 0.15729767
v 0.13832223 -0.25517198 0.35204732
v 0.0004994273 -0.5108433 0.37901264
v 0.262163 0.0004993081 0.27414745
v 0.2751463 0.25517184 0.27414745
v 0.262163 0.51084316 0.27414745
v 0.0004994273 -0.25517198 0.37901264
v -0.14231694 -0.5108433 0.35504347
v 0.13832223 0.0004993081 0.35204732
v 0.14431453 0.25517184 0.35204732
v 0.13832223 0.51084316 0.35204732
v -0.13632464 -0.25517198 0.35204732
v -0.28213716 -0.5108433 0.28713077
v 0.0004994273 0.0004993081 0.37901264
v 0.0004994273 0.25517184 0.37901264
v 0.0004994273 0.51084316 0.37901264
v -0.26615775 -0.25517198 0.2771436
v -0.37501776 -0.5108433 0.1782707
v -0.35404474 -0.25517198 0.16328996
v -0.14431441 0.0004993081 0.35204732
v -0.13632464 0.25517184 0.35204732
v -0.13632464 0.51084316 0.35204732
v -0.28613204 -0.0004994273 0.27314872
v -0.36902547 0.0004993081 0.15330285
v -0.25816798 0.25517184 0.27414745
v -0.25317442 0.51084316 0.27414745
v -0.34006274 0.25517184 0.15729767
v -0.33107424 0.51084316 0.15729767
vt 0.020855453 0.69436693
vt 0.03812498 0.68861043
vt 0.029490216 0.6914887
vt 0.01222069 0.7116365
vt 0.017977199 0.7030017
vt 0.06402926 0.7116365
vt 0.055394504 0.69436693
vt 0.04675974 0.6914887
vt 0.061151013 0.7030017
vt 0.03812498 0.7375408
vt 0.055394504 0.728906
vt 0.058272757 0.7202712
vt 0.04675974 0.7346625
vt 0.020855453 0.728906
vt 0.029490216 0.7346625
vt 0.015098944 0.7202712
vt 0.08129879 0.7317842
vt 0.06690752 0.7202712
vt 0.07554228 0.728906
vt 0.10144657 0.7346625
vt 0.08993355 0.7346625
vt 0.08129879 0.6914887
vt 0.06690752 0.7030017
vt 0.06402926 0.7116365
vt 0.07554228 0.69436693
vt 0.112959586 0.7030017
vt 0.10144657 0.6914887
vt 0.08993355 0.68861043
vt 0.10720308 0.69436693
vt 0.112959586 0.7202712
vt 0.112959586 0.7116365
vt 0.10720308 0.728906
vt 0.11583784 0.6281671
vt 0.12159435 0.64255834
vt 0.12159435 0.6281671
vt 0.112959586 0.64255834
vt 0.12159435 0.6540714
vt 0.10720308 0.6281671
vt 0.112959586 0.6540714
vt 0.12159435 0.6655844
vt 0.10720308 0.64255834
vt 0.09856831 0.6281671
vt 0.112959586 0.6655844
vt 0.1187161 0.6799757
vt 0.112959586 0.6799757
vt 0.09856831 0.64255834
vt 0.09281181 0.6281671
vt 0.10720308 0.6540714
vt 0.10720308 0.6655844
vt 0.10720308 0.67709744
vt 0.09281181 0.6396801
vt 0.08417705 0.6281671
vt 0.09856831 0.6540714
vt 0.09856831 0.6655844
vt 0.09856831 0.67709744
vt 0.08417705 0.6396801
vt 0.078420535 0.6281671
vt 0.09281181 0.6540714
vt 0.09281181 0.6655844
vt 0.08993355 0.67709744
vt 0.078420535 0.6396801
vt 0.069785774 0.6281671
vt 0.08417705 0.6540714
vt 0.08417705 0.6655844
vt 0.08417705 0.67709744
vt 0.069785774 0.6396801
vt 0.061151013 0.6281671
vt 0.078420535 0.6540714
vt 0.078420535 0.6655844
vt 0.078420535 0.67709744
vt 0.061151013 0.64255834
vt 0.055394504 0.6281671
vt 0.069785774 0.6540714
vt 0.069785774 0.6655844
vt 0.069785774 0.67709744
vt 0.055394504 0.64255834
vt 0.04675974 0.6281671
vt 0.061151013 0.6540714
vt 0.061151013 0.6655844
vt 0.061151013 0.67709744
vt 0.04675974 0.64255834
vt 0.04100323 0.6281671
vt 0.055394504 0.6540714
vt 0.055394504 0.6655844
vt 0.055394504 0.67709744
vt 0.04100323 0.6396801
vt 0.03236847 0.6281671
vt 0.04675974 0.6540714
vt 0.049637996 0.6655844
vt 0.04675974 0.67709744
vt 0.03236847 0.6396801
vt 0.026611961 0.6281671
vt 0.04100323 0.6540714
vt 0.04100323 0.6655844
vt 0.04100323 0.67709744
vt 0.026611961 0.6396801
vt 0.017977199 0.6281671
vt 0.03236847 0.6540714
vt 0.03236847 0.6655844
vt 0.03236847 0.67709744
vt 0.017977199 0.64255834
vt 0.01222069 0.6281671
vt 0.026611961 0.6540714
vt 0.026611961 0.6655844
vt 0.026611961 0.67709744
vt 0.01222069 0.64255834
vt 0.0035859272 0.6281671
vt 0.0035859272 0.64255834
vt 0.017977199 0.6540714
vt 0.017977199 0.6655844
vt 0.020855453 0.6799757
vt 0.01222069 0.6540714
vt 0.0064641815 0.6540714
vt 0.01222069 0.6655844
vt 0.01222069 0.6799757
vt 0.0064641815 0.6655844
vt 0.0064641815 0.6799757
vn -0.015871048 -0.999874 -0.00034526698
vn -0.015871048 -0.999874 -0.00034526698
vn -0.015871048 -0.999874 -0.00034526698
vn -0.015871048 -0.999874 -0.00034526698
vn -0.015871048 -0.999874 -0.00034526698
vn -0.015871048 -0.999874 -0.00034526698
vn -0.015871048 -0.999874 -0.00034526698
vn -0.015871048 -0.999874 -0.00034526698
vn -0.015871048 -0.999874 -0.00034526698
vn -0.015871048 -0.999874 -0.00034526698
vn -0.015871048 -0.999874 -0.00034526698
vn -0.015871048 -0.999874 -0.00034526698
vn -0.015871048 -0.999874 -0.00034526698
vn -0.015871048 -0.999874 -0.00034526698
vn -0.015871048 -0.999874 -0.00034526698
vn -0.015871048 -0.999874 -0.00034526698
vn 0.015870988 0.999874 -0.00034526698
vn -0.015871048 0.999874 -0.00034526698
vn 0.015870988 0.999874 -0.00034526698
vn -0.015871048 0.999874 -0.00034526698
vn -0.015871048 0.999874 -0.00034526698
vn -0.015871048 0.999874 -0.00034526698
vn -0.015871048 0.999874 -0.00034526698
vn -0.015871048 0.999874 -0.00034526698
vn -0.015871048 0.999874 -0.00034526698
vn -0.015871048 0.999874 -0.00034526698
vn -0.015871048 0.999874 -0.00034526698
vn -0.015871048 0.999874 -0.00034526698
vn -0.015871048 0.999874 -0.00034526698
vn -0.015871048 0.999874 -0.00034526698
vn -0.015871048 0.999874 -0.00034526698
vn -0.015871048 0.999874 -0.00034526698
vn -0.99886817 0.04756513 -0
vn -0.9363899 0.015871048 0.35060233
vn -0.9363899 0.07935512 0.34187227
vn -0.999874 -0.015870988 -0.00034665503
vn -0.9363899 0.047613025 0.3477167
vn -0.90464795 -0.015870988 -0.42586404
vn -0.999874 0.015871048 -0.00034391563
vn -0.9363899 0.047613025 0.3477167
vn -0.9363899 -0.047613025 -0.3477167
vn -0.7459378 -0.07935506 -0.66127115
vn -0.99886817 0.04756513 -0
vn -0.9363899 0.015871048 0.35060233
vn -0.999874 0.015871048 -0.00034391563
vn -0.7141957 -0.015870988 -0.6997661
vn -0.42851746 -0.047613025 -0.90227807
vn -0.9363899 0.047613025 -0.3477167
vn -0.9363899 0.047613025 -0.3477167
vn -0.9363899 0.015871048 -0.35060233
vn -0.3332913 0.015871048 -0.9426903
vn 0.047613025 0.047613025 -0.99773043
vn -0.7141957 0.047613025 -0.6983248
vn -0.7141957 0.07935512 -0.69543314
vn -0.7141957 0.015871048 -0.6997661
vn 0.07935506 0.015871048 -0.9967201
vn 0.4285174 0.07935512 -0.900042
vn -0.3650334 0.047613025 -0.9297761
vn -0.39677536 0.047613025 -0.91668004
vn -0.42851746 0.015871048 -0.9033941
vn 0.36503333 -0.015870988 -0.93085915
vn 0.68245363 0.015871048 -0.7307566
vn 0.047613025 0.015871048 -0.9987398
vn 0.015870988 0.047613025 -0.9987398
vn 0.015870988 -0.015870988 -0.99974805
vn 0.65071166 -0.015870988 -0.759159
vn 0.9363899 -0.015870988 -0.35060233
vn 0.39677536 0.015871048 -0.9177785
vn 0.39677536 0.015871048 -0.9177785
vn 0.39677536 -0.015870988 -0.9177785
vn 0.9046479 -0.015870988 -0.4258642
vn 0.999874 0.015871048 -0.00034391563
vn 0.65071166 0.015871048 -0.759159
vn 0.68245363 0.047613025 -0.7293765
vn 0.7141957 0.047613025 -0.6983248
vn 0.999874 -0.015870988 -0.00034665503
vn 0.9046479 0.015871048 0.4258642
vn 0.9046479 0.015871048 -0.4258642
vn 0.9046479 0.047613025 -0.42349166
vn 0.9046479 0.07935512 -0.4187063
vn 0.9046479 -0.015870988 0.4258642
vn 0.7141957 0.015871048 0.6997661
vn 0.999874 -0.015870988 -0.00034665503
vn 0.999874 0.015871048 -0.00034391563
vn 0.9968654 0.079116344 -0
vn 0.7141957 -0.015870988 0.6997661
vn 0.39677536 0.015871048 0.9177785
vn 0.9046479 -0.047613025 0.42349166
vn 0.9363899 0.015871048 0.35060233
vn 0.9363899 0.047613025 0.3477167
vn 0.36503333 -0.015870988 0.93085915
vn 0.015870988 0.015871048 0.99974805
vn 0.68245363 -0.015870988 0.7307566
vn 0.68245363 0.015871048 0.7307566
vn 0.68245363 0.015871048 0.7307566
vn 0.015870988 0.015871048 0.99974805
vn -0.30154932 0.015871048 0.9533185
vn 0.36503333 -0.015870988 0.93085915
vn 0.36503333 0.015871048 0.93085915
vn 0.36503333 0.015871048 0.93085915
vn -0.3332913 0.015871048 0.9426903
vn -0.6189697 0.047613025 0.78397036
vn 0.015870988 -0.015870988 0.99974805
vn -0.015871048 0.015871048 0.99974805
vn -0.015871048 0.015871048 0.99974805
vn -0.65071166 0.015871048 0.759159
vn -0.9363899 0.07935512 0.34187227
vn -0.9363899 0.015871048 0.35060233
vn -0.3332913 -0.015870988 0.9426903
vn -0.3650334 0.015871048 0.93085915
vn -0.3650334 0.015871048 0.93085915
vn -0.68245375 0.015871048 0.73075646
vn -0.9363899 0.047613025 0.3477167
vn -0.68245375 0.047613025 0.7293764
vn -0.7141957 0.015871048 0.6997661
vn -0.9363899 0.047613025 0.3477167
vn -0.9363899 0.015871048 0.35060233
g log_0
f 3/3/3 2/2/2 1/1/1
f 2/2/2 4/4/4 1/1/1
f 1/1/1 4/4/4 5/5/5
f 6/6/6 4/4/4 2/2/2
f 7/7/7 6/6/6 2/2/2
f 8/8/8 7/7/7 2/2/2
f 9/9/9 6/6/6 7/7/7
f 10/10/10 4/4/4 6/6/6
f 11/11/11 10/10/10 6/6/6
f 12/12/12 11/11/11 6/6/6
f 13/13/13 10/10/10 11/11/11
f 14/14/14 4/4/4 10/10/10
f 15/15/15 14/14/14 10/10/10
f 16/16/16 4/4/4 14/14/14
f 19/19/19 18/18/18 17/17/17
f 18/18/18 20/20/20 17/17/17
f 17/17/17 20/20/20 21/21/21
f 22/22/22 20/20/20 18/18/18
f 23/23/23 22/22/22 18/18/18
f 24/24/24 23/23/23 18/18/18
f 25/25/25 22/22/22 23/23/23
f 26/26/26 20/20/20 22/22/22
f 27/27/27 26/26/26 22/22/22
f 28/28/28 27/27/27 22/22/22
f 29/29/29 26/26/26 27/27/27
f 30/30/30 20/20/20 26/26/26
f 31/31/31 30/30/30 26/26/26
f 32/32/32 20/20/20 30/30/30
f 35/35/35 34/34/34 33/33/33
f 36/36/36 33/33/33 34/34/34
f 34/34/34 37/37/37 36/36/36
f 33/33/33 36/36/36 38/38/38
f 39/39/39 36/36/36 37/37/37
f 37/37/37 40/40/40 39/39/39
f 41/41/41 38/38/38 36/36/36
f 36/36/36 39/39/39 41/41/41
f 38/38/38 41/41/41 42/42/42
f 43/43/43 39/39/39 40/40/40
f 40/40/40 44/44/44 43/43/43
f 45/45/45 43/43/43 44/44/44
f 46/46/46 42/42/42 41/41/41
f 42/42/42 46/46/46 47/47/47
f 48/48/48 41/41/41 39/39/39
f 39/39/39 43/43/43 48/48/48
f 41/41/41 48/48/48 46/46/46
f 43/43/43 45/45/45 49/49/49
f 49/49/49 48/48/48 43/43/43
f 50/50/50 49/49/49 45/45/45
f 51/51/51 47/47/47 46/46/46
f 47/47/47 51/51/51 52/52/52
f 53/53/53 46/46/46 48/48/48
f 48/48/48 49/49/49 53/53/53
f 46/46/46 53/53/53 51/51/51
f 49/49/49 50/50/50 54/54/54
f 54/54/54 53/53/53 49/49/49
f 55/55/55 54/54/54 50/50/50
f 56/56/56 52/52/52 51/51/51
f 52/52/52 56/56/56 57/57/57
f 58/58/58 51/51/51 53/53/53
f 53/53/53 54/54/54 58/58/58
f 51/51/51 58/58/58 56/56/56
f 54/54/54 55/55/55 59/59/59
f 59/59/59 58/58/58 54/54/54
f 60/60/60 59/59/59 55/55/55
f 61/61/61 57/57/57 56/56/56
f 57/57/57 61/61/61 62/62/62
f 63/63/63 56/56/56 58/58/58
f 58/58/58 59/59/59 63/63/63
f 56/56/56 63/63/63 61/61/61
f 59/59/59 60/60/60 64/64/64
f 64/64/64 63/63/63 59/59/59
f 65/65/65 64/64/64 60/60/60
f 66/66/66 62/62/62 61/61/61
f 62/62/62 66/66/66 67/67/67
f 68/68/68 61/61/61 63/63/63
f 63/63/63 64/64/64 68/68/68
f 61/61/61 68/68/68 66/66/66
f 64/64/64 65/65/65 69/69/69
f 69/69/69 68/68/68 64/64/64
f 70/70/70 69/69/69 65/65/65
f 71/71/71 67/67/67 66/66/66
f 67/67/67 71/71/71 72/72/72
f 73/73/73 66/66/66 68/68/68
f 68/68/68 69/69/69 73/73/73
f 66/66/66 73/73/73 71/71/71
f 69/69/69 70/70/70 74/74/74
f 74/74/74 73/73/73 69/69/69
f 75/75/75 74/74/74 70/70/70
f 76/76/76 72/72/72 71/71/71
f 72/72/72 76/76/76 77/77/77
f 78/78/78 71/71/71 73/73/73
f 73/73/73 74/74/74 78/78/78
f 71/71/71 78/78/78 76/76/76
f 74/74/74 75/75/75 79/79/79
f 79/79/79 78/78/78 74/74/74
f 80/80/80 79/79/79 75/75/75
f 81/81/81 77/77/77 76/76/76
f 77/77/77 81/81/81 82/82/82
f 83/83/83 76/76/76 78/78/78
f 78/78/78 79/79/79 83/83/83
f 76/76/76 83/83/83 81/81/81
f 79/79/79 80/80/80 84/84/84
f 84/84/84 83/83/83 79/79/79
f 85/85/85 84/84/84 80/80/80
f 86/86/86 82/82/82 81/81/81
f 82/82/82 86/86/86 87/87/87
f 88/88/88 81/81/81 83/83/83
f 83/83/83 84/84/84 88/88/88
f 81/81/81 88/88/88 86/86/86
f 84/84/84 85/85/85 89/89/89
f 89/89/89 88/88/88 84/84/84
f 90/90/90 89/89/89 85/85/85
f 91/91/91 87/87/87 86/86/86
f 87/87/87 91/91/91 92/92/92
f 93/93/93 86/86/86 88/88/88
f 88/88/88 89/89/89 93/93/93
f 86/86/86 93/93/93 91/91/91
f 89/89/89 90/90/90 94/94/94
f 94/94/94 93/93/93 89/89/89
f 95/95/95 94/94/94 90/90/90
f 96/96/96 92/92/92 91/91/91
f 92/92/92 96/96/96 97/97/97
f 98/98/98 91/91/91 93/93/93
f 93/93/93 94/94/94 98/98/98
f 91/91/91 98/98/98 96/96/96
f 94/94/94 95/95/95 99/99/99
f 99/99/99 98/98/98 94/94/94
f 100/100/100 99/99/99 95/95/95
f 101/101/101 97/97/97 96/96/96
f 97/97/97 101/101/101 102/102/102
f 103/103/103 96/96/96 98/98/98
f 98/98/98 99/99/99 103/103/103
f 96/96/96 103/103/103 101/101/101
f 99/99/99 100/100/100 104/104/104
f 104/104/104 103/103/103 99/99/99
f 105/105/105 104/104/104 100/100/100
f 106/106/106 102/102/102 101/101/101
f 102/102/102 106/106/106 107/107/107
f 108/108/108 107/107/107 106/106/106
f 109/109/109 101/101/101 103/103/103
f 103/103/103 104/104/104 109/109/109
f 101/101/101 109/109/109 106/106/106
f 104/104/104 105/105/105 110/110/110
f 110/110/110 109/109/109 104/104/104
f 111/111/111 110/110/110 105/105/105
f 106/106/106 112/112/112 108/108/108
f 112/112/112 106/106/106 109/109/109
f 109/109/109 110/110/110 112/112/112
f 113/113/113 108/108/108 112/112/112
f 110/110/110 111/111/111 114/114/114
f 114/114/114 112/112/112 110/110/110
f 112/112/112 114/114/114 113/113/113
f 115/115/115 114/114/114 111/111/111
f 116/116/116 113/113/113 114/114/114
f 114/114/114 115/115/115 116/116/116
f 117/117/117 116/116/116 115/115/115
