g Log_A_01
v -0.062972665 -0.029312134 -0.37843785
v 0.1849733 0.36762375 -0.24279028
v -0.062972665 0.36762375 -0.34619376
v 0.20832247 -0.029312134 -0.26613945
v -0.062972665 -0.42735994 -0.34619376
v 0.2872649 0.36762375 0.0051556826
v 0.1849733 -0.42735994 -0.24279028
v 0.32062086 -0.029312134 0.0051556826
v 0.1849733 0.36762375 0.25310165
v 0.2872649 -0.42735994 0.0051556826
v 0.20832247 -0.029312134 0.2764508
v -0.062972665 0.36762375 0.35650516
v 0.1849733 -0.42735994 0.25310165
v -0.062972665 -0.029312134 0.3887493
v -0.3109187 0.36762375 0.25310165
v -0.062972665 -0.42735994 0.35650516
v -0.33426785 -0.029312134 0.2764508
v -0.4143222 0.36762375 0.0051556826
v -0.3109187 -0.42735994 0.25310165
v -0.44656628 -0.029312134 0.0051556826
v -0.3109187 0.36762375 -0.24279028
v -0.4143222 -0.42735994 0.0051556826
v -0.33426785 -0.029312134 -0.26613945
v -0.062972665 0.36762375 -0.34619376
v -0.3109187 -0.42735994 -0.24279028
v -0.062972665 -0.029312134 -0.37843785
v -0.062972665 -0.42735994 -0.34619376
v -0.3109187 0.36762375 -0.24279028
v -0.062972665 0.36762375 -0.34619376
v -0.4143222 0.36762375 0.0051556826
v -0.3109187 0.36762375 0.25310165
v -0.062972665 0.36762375 0.35650516
v 0.1849733 0.36762375 0.25310165
v 0.2872649 0.36762375 0.0051556826
v 0.1849733 0.36762375 -0.24279028
v -0.4143222 -0.42735994 0.0051556826
v -0.062972665 -0.42735994 -0.34619376
v -0.3109187 -0.42735994 -0.24279028
v -0.3109187 -0.42735994 0.25310165
v -0.062972665 -0.42735994 0.35650516
v 0.1849733 -0.42735994 0.25310165
v 0.2872649 -0.42735994 0.0051556826
v 0.1849733 -0.42735994 -0.24279028
v 0.61304146 0.18305415 -0.08601725
v 0.6375025 0.14747447 -0.004851103
v 0.55300075 0.24754232 -0.11381388
v 0.49407184 0.30313563 -0.071563005
v 0.4696108 0.31758988 0.015162468
v 0.49407184 0.2820102 0.096328676
v 0.55300075 0.21752197 0.1241253
v 0.61304146 0.16192871 0.08187443
v 0.24946147 -0.020417213 -0.055996895
v 0.261692 -0.042654514 0.0051556826
v 0.43291926 0.036287904 0.030728579
v 0.42068875 0.05741334 -0.027088404
v 0.6375025 0.14747447 -0.004851103
v 0.21944112 0.03295231 -0.08156979
v 0.61304146 0.18305415 -0.08601725
v 0.39289212 0.10855919 -0.05043757
v 0.19053262 0.087433755 -0.055996895
v 0.55300075 0.24754232 -0.11381388
v 0.36509547 0.15970498 -0.027088404
v 0.17830208 0.109671056 0.0051556826
v 0.49407184 0.30313563 -0.071563005
v 0.35397682 0.18083042 0.030728579
v 0.19053262 0.087433755 0.06630826
v 0.4696108 0.31758988 0.015162468
v 0.36509547 0.15970498 0.08854562
v 0.21944112 0.03295231 0.091881216
v 0.49407184 0.2820102 0.096328676
v 0.39289212 0.10855919 0.11300665
v 0.24946147 -0.020417213 0.06630826
v 0.55300075 0.21752197 0.1241253
v 0.42068875 0.05741334 0.08854562
v 0.261692 -0.042654514 0.0051556826
v 0.61304146 0.16192871 0.08187443
v 0.43291926 0.036287904 0.030728579
v 0.6375025 0.14747447 -0.004851103
v 0.40401077 0.2820102 -0.0971359
v 0.45626843 0.3954205 -0.15495291
v 0.45626843 0.24754232 -0.05933249
v 0.36175987 0.333156 -0.14828172
v 0.5107498 0.28645766 -0.091576576
v 0.36509547 0.40209168 -0.21388179
v 0.5552245 0.3387153 -0.13827494
v 0.39622772 0.45434934 -0.26058012
v 0.5541126 0.40876287 -0.203875
v 0.4607159 0.4999358 -0.29838356
v 0.5240922 0.45768493 -0.25279707
v 0.5107498 0.28645766 -0.091576576
v 0.5552245 0.3387153 -0.13827494
v 0.45849216 0.3787424 -0.17274275
v 0.45626843 0.24754232 -0.05933249
v 0.5541126 0.40876287 -0.203875
v 0.40401077 0.2820102 -0.0971359
v 0.5240922 0.45768493 -0.25279707
v 0.36175987 0.333156 -0.14828172
v 0.4607159 0.4999358 -0.29838356
v 0.36509547 0.40209168 -0.21388179
v 0.39622772 0.45434934 -0.26058012
vt 0.1877847 0.016538454
vt 0.35903096 0.13831356
vt 0.35903096 0.016538454
vt 0.1877847 0.13831356
vt 0.012732983 0.016538454
vt 0.35903096 0.26008868
vt 0.012732983 0.13831356
vt 0.1877847 0.26008868
vt 0.35903096 0.38186377
vt 0.012732983 0.26008868
vt 0.1877847 0.38186377
vt 0.35903096 0.49983343
vt 0.012732983 0.38186377
vt 0.1877847 0.49983343
vt 0.35903096 0.61780304
vt 0.012732983 0.49983343
vt 0.1877847 0.61780304
vt 0.35903096 0.7395782
vt 0.012732983 0.61780304
vt 0.1877847 0.7395782
vt 0.35903096 0.8613533
vt 0.012732983 0.7395782
vt 0.1877847 0.8613533
vt 0.35903096 0.98312837
vt 0.012732983 0.8613533
vt 0.1877847 0.98312837
vt 0.012732983 0.98312837
vt 0.42372397 0.9298518
vt 0.53408265 0.971712
vt 0.38186377 0.81949306
vt 0.42372397 0.71293986
vt 0.53408265 0.6710797
vt 0.6406359 0.71293986
vt 0.6863015 0.81949306
vt 0.6406359 0.9298518
vt 0.61780304 0.16875735
vt 0.770022 0.32097623
vt 0.6634687 0.27531058
vt 0.6634687 0.062204123
vt 0.770022 0.016538454
vt 0.88038063 0.062204123
vt 0.92224085 0.16875735
vt 0.88038063 0.27531058
vt 0.67488515 0.59116477
vt 0.6406359 0.5759429
vt 0.69010705 0.6292195
vt 0.67488515 0.6634687
vt 0.6406359 0.6786906
vt 0.60258114 0.6634687
vt 0.5873593 0.625414
vt 0.60258114 0.59116477
vt 0.39708567 0.60638666
vt 0.39708567 0.63683045
vt 0.4770006 0.63683045
vt 0.4770006 0.60638666
vt 0.5683319 0.63683045
vt 0.39708567 0.5759429
vt 0.5683319 0.60638666
vt 0.4770006 0.5759429
vt 0.39708567 0.5454991
vt 0.5683319 0.5759429
vt 0.4770006 0.5454991
vt 0.39708567 0.5150553
vt 0.5683319 0.5454991
vt 0.4770006 0.5150553
vt 0.39708567 0.48461154
vt 0.5683319 0.5150553
vt 0.4770006 0.48461154
vt 0.39708567 0.45416775
vt 0.5683319 0.48461154
vt 0.4770006 0.45416775
vt 0.39708567 0.42372397
vt 0.5683319 0.45416775
vt 0.4770006 0.42372397
vt 0.39708567 0.3932802
vt 0.5683319 0.42372397
vt 0.4770006 0.3932802
vt 0.5683319 0.3932802
vt 0.4351404 0.07362054
vt 0.48461154 0.19920112
vt 0.4922225 0.0241494
vt 0.38947472 0.14211904
vt 0.5454991 0.07742601
vt 0.38947472 0.24106131
vt 0.5873593 0.14972998
vt 0.41611302 0.31336528
vt 0.5835538 0.24486679
vt 0.48080605 0.37425283
vt 0.54930454 0.31717077
vt 0.5454991 0.07742601
vt 0.5873593 0.14972998
vt 0.48461154 0.19920112
vt 0.4922225 0.0241494
vt 0.5835538 0.24486679
vt 0.4351404 0.07362054
vt 0.54930454 0.31717077
vt 0.38947472 0.14211904
vt 0.48080605 0.37425283
vt 0.38947472 0.24106131
vt 0.41611302 0.31336528
vn -0.015871048 0.015871048 -0.99974805
vn 0.7141957 0.07935512 -0.69543314
vn -0.015871048 0.07935512 -0.9967201
vn 0.7141957 0.015871048 -0.6997661
vn -0.015871048 -0.07935506 -0.9967201
vn 0.9968654 0.079116344 -0
vn 0.7141957 -0.07935506 -0.69543314
vn 0.999874 0.015871048 -0.00034391563
vn 0.7141957 0.07935512 0.69543314
vn 0.9968654 -0.079116285 -0
vn 0.7141957 0.015871048 0.6997661
vn -0.015871048 0.07935512 0.9967201
vn 0.7141957 -0.07935506 0.69543314
vn -0.015871048 0.015871048 0.99974805
vn -0.7141957 0.07935512 0.69543314
vn -0.015871048 -0.07935506 0.9967201
vn -0.7141957 0.015871048 0.6997661
vn -0.9968654 0.079116344 -0
vn -0.7141957 -0.07935506 0.69543314
vn -0.999874 0.015871048 -0.00034391563
vn -0.7141957 0.07935512 -0.69543314
vn -0.9968654 -0.079116285 -0
vn -0.7141957 0.015871048 -0.6997661
vn -0.015871048 0.07935512 -0.9967201
vn -0.7141957 -0.07935506 -0.69543314
vn -0.015871048 0.015871048 -0.99974805
vn -0.015871048 -0.07935506 -0.9967201
vn -0.015871048 0.999874 -0.00034526698
vn -0.015871048 0.999874 -0.00034526698
vn -0.015871048 0.999874 -0.00034526698
vn -0.015871048 0.999874 -0.00034526698
vn -0.015871048 0.999874 -0.00034526698
vn -0.015871048 0.999874 -0.00034526698
vn -0.015871048 0.999874 -0.00034526698
vn -0.015871048 0.999874 -0.00034526698
vn 0.015870988 -0.999874 -0.00034526698
vn -0.015871048 -0.999874 -0.00034526698
vn -0.015871048 -0.999874 -0.00034526698
vn -0.015871048 -0.999874 -0.00034526698
vn -0.015871048 -0.999874 -0.00034526698
vn -0.015871048 -0.999874 -0.00034526698
vn -0.015871048 -0.999874 -0.00034526698
vn -0.015871048 -0.999874 -0.00034526698
vn 0.7141957 0.68245375 0.15550359
vn 0.7141957 0.68245375 0.15550359
vn 0.7141957 0.68245375 0.15550359
vn 0.7141957 0.68245375 0.15550359
vn 0.7141957 0.68245375 0.15550359
vn 0.7141957 0.68245375 0.15550359
vn 0.7141957 0.68245375 0.15550359
vn 0.7141957 0.68245375 0.15550359
vn 0.36503333 -0.55548555 -0.7471188
vn 0.42808634 -0.90373784 -0
vn 0.42808634 -0.90373784 -0
vn 0.30154932 -0.65071166 -0.69688046
vn 0.46025944 -0.87290585 -0.16185382
vn 0.14283913 0.1110971 -0.98349094
vn 0.2063232 -0.65071166 -0.73075646
vn -0.047613025 -0.047613025 -0.99773043
vn -0.17458117 0.68245375 -0.7097734
vn -0.23806524 -0.14283913 -0.96068823
vn -0.42851746 0.5554856 -0.71260685
vn -0.36320823 0.931708 -0
vn -0.65071166 0.3650334 -0.6658265
vn -0.5872276 0.8094218 -0.00042286396
vn -0.3650334 0.65071166 0.6658265
vn -0.7459378 0.65071166 0.1419546
vn -0.39677536 0.5237435 0.75383157
vn -0.1110971 -0.047613025 0.99266833
vn -0.49200153 0.46025944 0.7389829
vn -0.047613025 -0.07935506 0.9957087
vn 0.2063232 -0.68245363 0.70120454
vn 0.015870988 -0.1110971 0.9936828
vn 0.30154932 -0.65071166 0.69688046
vn 0.42808634 -0.90373784 -0
vn 0.39677536 -0.68245363 0.61386186
vn 0.42808634 -0.90373784 -0
vn 0.46025944 -0.87290585 -0.16185382
vn -0.26980734 0.5237435 0.8080203
vn -0.047613025 0.68245375 0.7293764
vn -0.047613025 0.5554856 0.83016187
vn -0.3332913 0.5872276 0.73761827
vn 0.14283913 0.5554856 0.8191659
vn -0.3332913 0.68245375 0.6505181
vn 0.2063232 0.6189697 0.7578306
vn -0.26980734 0.7776798 0.56781876
vn 0.23806524 0.7141957 0.65821683
vn -0.047613025 0.8094218 0.5852943
vn 0.14283913 0.7776798 0.6122182
vn 0.015870988 -0.65071166 -0.759159
vn -0.015871048 -0.68245363 -0.7307566
vn 0.047613025 -0.68245363 -0.7293765
vn 0.047613025 -0.65071166 -0.7578307
vn -0.015871048 -0.7141957 -0.6997661
vn 0.1110971 -0.65071166 -0.7511536
vn 0.015870988 -0.7141957 -0.6997661
vn 0.14283913 -0.65071166 -0.7457689
vn 0.047613025 -0.7141957 -0.6983248
vn 0.14283913 -0.68245363 -0.7168361
vn 0.1110971 -0.7141957 -0.691073
g Log_A_01_0
f 3/3/3 2/2/2 1/1/1
f 2/2/2 4/4/4 1/1/1
f 1/1/1 4/4/4 5/5/5
f 2/2/2 6/6/6 4/4/4
f 4/4/4 7/7/7 5/5/5
f 6/6/6 8/8/8 4/4/4
f 4/4/4 8/8/8 7/7/7
f 6/6/6 9/9/9 8/8/8
f 8/8/8 10/10/10 7/7/7
f 9/9/9 11/11/11 8/8/8
f 8/8/8 11/11/11 10/10/10
f 9/9/9 12/12/12 11/11/11
f 11/11/11 13/13/13 10/10/10
f 12/12/12 14/14/14 11/11/11
f 11/11/11 14/14/14 13/13/13
f 12/12/12 15/15/15 14/14/14
f 14/14/14 16/16/16 13/13/13
f 15/15/15 17/17/17 14/14/14
f 14/14/14 17/17/17 16/16/16
f 15/15/15 18/18/18 17/17/17
f 17/17/17 19/19/19 16/16/16
f 18/18/18 20/20/20 17/17/17
f 17/17/17 20/20/20 19/19/19
f 18/18/18 21/21/21 20/20/20
f 20/20/20 22/22/22 19/19/19
f 21/21/21 23/23/23 20/20/20
f 20/20/20 23/23/23 22/22/22
f 21/21/21 24/24/24 23/23/23
f 23/23/23 25/25/25 22/22/22
f 24/24/24 26/26/26 23/23/23
f 23/23/23 26/26/26 25/25/25
f 26/26/26 27/27/27 25/25/25
f 30/30/30 29/29/29 28/28/28
f 31/31/31 29/29/29 30/30/30
f 32/32/32 29/29/29 31/31/31
f 33/33/33 29/29/29 32/32/32
f 34/34/34 29/29/29 33/33/33
f 35/35/35 29/29/29 34/34/34
f 38/38/38 37/37/37 36/36/36
f 36/36/36 37/37/37 39/39/39
f 39/39/39 37/37/37 40/40/40
f 40/40/40 37/37/37 41/41/41
f 41/41/41 37/37/37 42/42/42
f 42/42/42 37/37/37 43/43/43
f 46/46/46 45/45/45 44/44/44
f 47/47/47 45/45/45 46/46/46
f 48/48/48 45/45/45 47/47/47
f 49/49/49 45/45/45 48/48/48
f 50/50/50 45/45/45 49/49/49
f 51/51/51 45/45/45 50/50/50
f 54/54/54 53/53/53 52/52/52
f 55/55/55 54/54/54 52/52/52
f 56/56/56 54/54/54 55/55/55
f 55/55/55 52/52/52 57/57/57
f 58/58/58 56/56/56 55/55/55
f 59/59/59 55/55/55 57/57/57
f 58/58/58 55/55/55 59/59/59
f 59/59/59 57/57/57 60/60/60
f 61/61/61 58/58/58 59/59/59
f 62/62/62 59/59/59 60/60/60
f 61/61/61 59/59/59 62/62/62
f 62/62/62 60/60/60 63/63/63
f 64/64/64 61/61/61 62/62/62
f 65/65/65 62/62/62 63/63/63
f 64/64/64 62/62/62 65/65/65
f 65/65/65 63/63/63 66/66/66
f 67/67/67 64/64/64 65/65/65
f 68/68/68 65/65/65 66/66/66
f 67/67/67 65/65/65 68/68/68
f 68/68/68 66/66/66 69/69/69
f 70/70/70 67/67/67 68/68/68
f 71/71/71 68/68/68 69/69/69
f 70/70/70 68/68/68 71/71/71
f 71/71/71 69/69/69 72/72/72
f 73/73/73 70/70/70 71/71/71
f 74/74/74 71/71/71 72/72/72
f 73/73/73 71/71/71 74/74/74
f 74/74/74 72/72/72 75/75/75
f 76/76/76 73/73/73 74/74/74
f 77/77/77 74/74/74 75/75/75
f 76/76/76 74/74/74 77/77/77
f 78/78/78 76/76/76 77/77/77
f 81/81/81 80/80/80 79/79/79
f 79/79/79 80/80/80 82/82/82
f 83/83/83 80/80/80 81/81/81
f 84/84/84 82/82/82 80/80/80
f 85/85/85 80/80/80 83/83/83
f 80/80/80 86/86/86 84/84/84
f 80/80/80 85/85/85 87/87/87
f 88/88/88 86/86/86 80/80/80
f 87/87/87 89/89/89 80/80/80
f 80/80/80 89/89/89 88/88/88
f 92/92/92 91/91/91 90/90/90
f 92/92/92 90/90/90 93/93/93
f 91/91/91 92/92/92 94/94/94
f 92/92/92 93/93/93 95/95/95
f 96/96/96 94/94/94 92/92/92
f 92/92/92 95/95/95 97/97/97
f 96/96/96 92/92/92 98/98/98
f 97/97/97 99/99/99 92/92/92
f 100/100/100 98/98/98 92/92/92
f 100/100/100 92/92/92 99/99/99
