g Lollipop_01
v 0.02005887 -0.87911564 -0.011810064
v 0.02005887 -0.87911564 0.011758029
v 0.02005887 -0.07190865 0.011758029
v 0.02005887 -0.07190865 -0.011810064
v 2.5987625E-05 -0.87911564 -0.023594081
v 2.5987625E-05 -0.07190865 -0.023594081
v -0.020006835 -0.87911564 -0.011810064
v -0.020006835 -0.07190865 -0.011810064
v 0.02005887 -0.87911564 0.011758029
v 2.5987625E-05 -0.87911564 0.023542106
v 2.5987625E-05 -0.07190865 0.023542106
v 0.02005887 -0.07190865 0.011758029
v 2.5987625E-05 -0.87911564 0.023542106
v -0.020006835 -0.07190865 0.011758029
v 2.5987625E-05 -0.07190865 0.023542106
v -0.020006835 -0.87911564 0.011758029
v -0.020006835 -0.07190865 -0.011810064
v -0.020006835 -0.87911564 -0.011810064
v 0.02005887 -0.87911564 -0.011810064
v 2.5987625E-05 -0.87911564 -0.023594081
v -0.020006835 -0.87911564 -0.011810064
v 0.02005887 -0.87911564 0.011758029
v -0.020006835 -0.87911564 0.011758029
v 2.5987625E-05 -0.87911564 0.023542106
v 2.5987625E-05 0.25568777 -0.17089462
v 0.120223224 0.25568777 -0.120223224
v 2.5987625E-05 0.326392 -2.5987625E-05
v 2.5987625E-05 0.08481908 -0.2415989
v 0.17089462 0.25568777 -2.5987625E-05
v 0.17089462 0.08481908 -0.17089462
v -0.12017125 0.25568777 -0.120223224
v -0.17084259 0.08481908 -0.17089462
v 2.5987625E-05 -0.0860495 -0.17089462
v -0.12017125 -0.0860495 -0.120223224
v 2.5987625E-05 -0.1555754 -2.5987625E-05
v 0.120223224 -0.0860495 -0.120223224
v 0.2415989 0.08481908 -2.5987625E-05
v -0.17084259 -0.0860495 -2.5987625E-05
v -0.24154693 0.08481908 -2.5987625E-05
v 0.120223224 0.25568777 0.12017125
v 0.17089462 -0.0860495 -2.5987625E-05
v 0.17089462 0.08481908 0.17084259
v -0.17084259 0.25568777 -2.5987625E-05
v -0.12017125 -0.0860495 0.12017125
v 2.5987625E-05 0.25568777 0.17084259
v 0.120223224 -0.0860495 0.12017125
v -0.12017125 0.25568777 0.12017125
v -0.17084259 0.08481908 0.17084259
v 2.5987625E-05 -0.0860495 0.17084259
v 2.5987625E-05 0.08481908 0.24154693
vt 0.03125 0.34448528
vt 0.03125 0.34448528
vt 0.03125 0.34448528
vt 0.03125 0.34448528
vt 0.03125 0.34448528
vt 0.03125 0.34448528
vt 0.03125 0.34448528
vt 0.03125 0.34448528
vt 0.03125 0.34448528
vt 0.03125 0.34448528
vt 0.03125 0.34448528
vt 0.03125 0.34448528
vt 0.03125 0.34448528
vt 0.03125 0.34448528
vt 0.03125 0.34448528
vt 0.03125 0.34448528
vt 0.03125 0.34448528
vt 0.03125 0.34448528
vt 0.03125 0.34448528
vt 0.03125 0.34448528
vt 0.03125 0.34448528
vt 0.03125 0.34448528
vt 0.03125 0.34448528
vt 0.03125 0.34448528
vt 0.40625 0.15625
vt 0.40625 0.15625
vt 0.40625 0.15625
vt 0.40625 0.15625
vt 0.40625 0.15625
vt 0.40625 0.15625
vt 0.40625 0.15625
vt 0.40625 0.15625
vt 0.40625 0.15625
vt 0.40625 0.15625
vt 0.40625 0.15625
vt 0.40625 0.15625
vt 0.40625 0.15625
vt 0.40625 0.15625
vt 0.40625 0.15625
vt 0.40625 0.15625
vt 0.40625 0.15625
vt 0.40625 0.15625
vt 0.40625 0.15625
vt 0.40625 0.15625
vt 0.40625 0.15625
vt 0.40625 0.15625
vt 0.40625 0.15625
vt 0.40625 0.15625
vt 0.40625 0.15625
vt 0.40625 0.15625
vn 0.87290585 0.015871048 -0.4876305
vn 0.999874 0.015871048 -0.00034391563
vn 0.999874 0.015871048 -0.00034391563
vn 0.87290585 0.015871048 -0.4876305
vn -0.015871048 0.015871048 -0.99974805
vn -0.015871048 0.015871048 -0.99974805
vn -0.49200153 0.015871048 -0.87044966
vn -0.49200153 0.015871048 -0.87044966
vn 0.49200147 0.015871048 0.8704497
vn 0.49200147 0.015871048 0.8704497
vn 0.49200147 0.015871048 0.8704497
vn 0.49200147 0.015871048 0.8704497
vn -0.49200153 0.015871048 0.87044966
vn -0.87290585 0.015871048 0.4876305
vn -0.49200153 0.015871048 0.87044966
vn -0.87290585 0.015871048 0.4876305
vn -0.999874 0.015871048 -0.00034391563
vn -0.999874 0.015871048 -0.00034391563
vn 0.015870988 -0.999874 -0.00034526698
vn 0.015870988 -0.999874 -0.00034526698
vn 0.015870988 -0.999874 -0.00034526698
vn 0.015870988 -0.999874 -0.00034526698
vn 0.015870988 -0.999874 -0.00034526698
vn 0.015870988 -0.999874 -0.00034526698
vn -0.015871048 0.65071166 -0.759159
vn 0.5237435 0.65071166 -0.54978824
vn -0.015871048 0.999874 -0.00034526698
vn -0.015871048 0.015871048 -0.99974805
vn 0.7459377 0.65071166 -0.14195523
vn 0.7141957 0.015871048 -0.6997661
vn -0.5237435 0.65071166 -0.54978824
vn -0.7141957 0.015871048 -0.6997661
vn -0.015871048 -0.65071166 -0.759159
vn -0.5237435 -0.65071166 -0.54978824
vn -0.015871048 -0.999874 -0.00034526698
vn 0.5237435 -0.65071166 -0.54978824
vn 0.999874 0.015871048 -0.00034391563
vn -0.7459378 -0.65071166 0.1419546
vn -0.999874 0.015871048 -0.00034391563
vn 0.5237435 0.65071166 0.54978824
vn 0.7459377 -0.65071166 -0.14195523
vn 0.7141957 -0.015870988 0.6997661
vn -0.7459378 0.65071166 0.1419546
vn -0.5237435 -0.65071166 0.54978824
vn 0.015870988 0.65071166 0.759159
vn 0.5237435 -0.65071166 0.54978824
vn -0.5237435 0.65071166 0.54978824
vn -0.7141957 0.015871048 0.6997661
vn 0.015870988 -0.65071166 0.759159
vn 0.015870988 0.015871048 0.99974805
g Lollipop_01_0
f 3/3/3 2/2/2 1/1/1
f 4/4/4 3/3/3 1/1/1
f 4/4/4 1/1/1 5/5/5
f 6/6/6 4/4/4 5/5/5
f 6/6/6 5/5/5 7/7/7
f 8/8/8 6/6/6 7/7/7
f 11/11/11 10/10/10 9/9/9
f 12/12/12 11/11/11 9/9/9
f 15/15/15 14/14/14 13/13/13
f 14/14/14 16/16/16 13/13/13
f 14/14/14 17/17/17 16/16/16
f 17/17/17 18/18/18 16/16/16
f 21/21/21 20/20/20 19/19/19
f 19/19/19 22/22/22 21/21/21
f 22/22/22 23/23/23 21/21/21
f 22/22/22 24/24/24 23/23/23
f 27/27/27 26/26/26 25/25/25
f 25/25/25 26/26/26 28/28/28
f 27/27/27 29/29/29 26/26/26
f 26/26/26 30/30/30 28/28/28
f 26/26/26 29/29/29 30/30/30
f 27/27/27 25/25/25 31/31/31
f 25/25/25 28/28/28 32/32/32
f 31/31/31 25/25/25 32/32/32
f 28/28/28 30/30/30 33/33/33
f 32/32/32 28/28/28 34/34/34
f 28/28/28 33/33/33 34/34/34
f 34/34/34 33/33/33 35/35/35
f 30/30/30 36/36/36 33/33/33
f 33/33/33 36/36/36 35/35/35
f 29/29/29 37/37/37 30/30/30
f 30/30/30 37/37/37 36/36/36
f 32/32/32 34/34/34 38/38/38
f 38/38/38 34/34/34 35/35/35
f 31/31/31 32/32/32 39/39/39
f 39/39/39 32/32/32 38/38/38
f 27/27/27 40/40/40 29/29/29
f 29/29/29 40/40/40 37/37/37
f 37/37/37 41/41/41 36/36/36
f 36/36/36 41/41/41 35/35/35
f 40/40/40 42/42/42 37/37/37
f 37/37/37 42/42/42 41/41/41
f 27/27/27 31/31/31 43/43/43
f 43/43/43 31/31/31 39/39/39
f 39/39/39 38/38/38 44/44/44
f 44/44/44 38/38/38 35/35/35
f 27/27/27 45/45/45 40/40/40
f 40/40/40 45/45/45 42/42/42
f 41/41/41 46/46/46 35/35/35
f 42/42/42 46/46/46 41/41/41
f 27/27/27 43/43/43 47/47/47
f 27/27/27 47/47/47 45/45/45
f 43/43/43 39/39/39 48/48/48
f 48/48/48 39/39/39 44/44/44
f 47/47/47 43/43/43 48/48/48
f 49/49/49 44/44/44 35/35/35
f 46/46/46 49/49/49 35/35/35
f 48/48/48 44/44/44 49/49/49
f 45/45/45 50/50/50 42/42/42
f 45/45/45 47/47/47 50/50/50
f 42/42/42 50/50/50 46/46/46
f 50/50/50 49/49/49 46/46/46
f 50/50/50 48/48/48 49/49/49
f 47/47/47 48/48/48 50/50/50
