g magnet
v -0.38011622 -0.01134038 0.07182312
v -0.2919125 0.32635397 -0.07182294
v -0.2919125 0.32635397 0.07182312
v -0.38011622 -0.01134038 -0.07182294
v -0.3910367 -0.09702402 0.07182312
v -0.3910367 -0.09702402 -0.07182294
v -0.38011622 -0.18354769 0.07182312
v -0.38011622 -0.18354769 -0.07182294
v -0.34651482 -0.26335108 0.07182312
v -0.34651482 -0.26335108 -0.07182294
v -0.29359257 -0.332234 0.07182312
v -0.29359257 -0.332234 -0.07182294
v -0.22470963 -0.38515624 0.07182312
v -0.22470963 -0.38515624 -0.07182294
v -0.14490622 -0.41875768 0.07182312
v -0.14490622 -0.41875768 -0.07182294
v -0.05838257 -0.42967814 0.07182312
v -0.05838257 -0.42967814 -0.07182294
v 0.00041991472 -0.42967814 0.07182312
v 0.00041991472 -0.42967814 -0.07182294
v 0.058382392 -0.42967814 -0.07182294
v 0.058382392 -0.42967814 0.07182312
v 0.14490604 -0.41875768 -0.07182294
v 0.14490604 -0.41875768 0.07182312
v 0.22470944 -0.38515624 -0.07182294
v 0.22470944 -0.38515624 0.07182312
v 0.29359236 -0.332234 -0.07182294
v 0.29359236 -0.332234 0.07182312
v 0.3465146 -0.26335108 -0.07182294
v 0.3465146 -0.26335108 0.07182312
v 0.38011605 -0.18354769 -0.07182294
v 0.38011605 -0.18354769 0.07182312
v 0.3910365 -0.09702402 -0.07182294
v 0.3910365 -0.09702402 0.07182312
v 0.38011605 -0.01134038 -0.07182294
v 0.38011605 -0.01134038 0.07182312
v 0.2919123 0.32635397 -0.07182294
v 0.2919123 0.32635397 0.07182312
v -0.38011622 -0.01134038 -0.07182294
v -0.1465863 0.28771234 -0.07182294
v -0.2919125 0.32635397 -0.07182294
v -0.23479009 -0.04998201 -0.07182294
v -0.3910367 -0.09702402 -0.07182294
v -0.24151033 -0.09702402 -0.07182294
v -0.38011622 -0.18354769 -0.07182294
v -0.23479009 -0.144066 -0.07182294
v -0.34651482 -0.26335108 -0.07182294
v -0.21714932 -0.1885879 -0.07182294
v -0.29359257 -0.332234 -0.07182294
v -0.18774807 -0.22638951 -0.07182294
v -0.22470963 -0.38515624 -0.07182294
v -0.14994645 -0.25495073 -0.07182294
v -0.14490622 -0.41875768 -0.07182294
v -0.10626459 -0.2734315 -0.07182294
v -0.05838257 -0.42967814 -0.07182294
v -0.05838257 -0.27931178 -0.07182294
v 0.00041991472 -0.27931178 -0.07182294
v 0.00041991472 -0.42967814 -0.07182294
v 0.058382392 -0.27931178 -0.07182294
v 0.058382392 -0.42967814 -0.07182294
v 0.10626441 -0.2734315 -0.07182294
v 0.14490604 -0.41875768 -0.07182294
v 0.14994627 -0.25495073 -0.07182294
v 0.22470944 -0.38515624 -0.07182294
v 0.18774787 -0.22638951 -0.07182294
v 0.29359236 -0.332234 -0.07182294
v 0.21714912 -0.1885879 -0.07182294
v 0.3465146 -0.26335108 -0.07182294
v 0.23478986 -0.144066 -0.07182294
v 0.38011605 -0.18354769 -0.07182294
v 0.24151015 -0.09702402 -0.07182294
v 0.3910365 -0.09702402 -0.07182294
v 0.23478986 -0.04998201 -0.07182294
v 0.38011605 -0.01134038 -0.07182294
v 0.14658612 0.28771234 -0.07182294
v 0.2919123 0.32635397 -0.07182294
v -0.23479009 -0.04998201 0.07182312
v -0.2919125 0.32635397 0.07182312
v -0.1465863 0.28771234 0.07182312
v -0.38011622 -0.01134038 0.07182312
v -0.24151033 -0.09702402 0.07182312
v -0.3910367 -0.09702402 0.07182312
v -0.23479009 -0.144066 0.07182312
v -0.38011622 -0.18354769 0.07182312
v -0.21714932 -0.1885879 0.07182312
v -0.34651482 -0.26335108 0.07182312
v -0.18774807 -0.22638951 0.07182312
v -0.29359257 -0.332234 0.07182312
v -0.14994645 -0.25495073 0.07182312
v -0.22470963 -0.38515624 0.07182312
v -0.10626459 -0.2734315 0.07182312
v -0.14490622 -0.41875768 0.07182312
v -0.05838257 -0.27931178 0.07182312
v -0.05838257 -0.42967814 0.07182312
v 0.00041991472 -0.42967814 0.07182312
v 0.00041991472 -0.27931178 0.07182312
v 0.058382392 -0.42967814 0.07182312
v 0.058382392 -0.27931178 0.07182312
v 0.14490604 -0.41875768 0.07182312
v 0.10626441 -0.2734315 0.07182312
v 0.22470944 -0.38515624 0.07182312
v 0.14994627 -0.25495073 0.07182312
v 0.29359236 -0.332234 0.07182312
v 0.18774787 -0.22638951 0.07182312
v 0.3465146 -0.26335108 0.07182312
v 0.21714912 -0.1885879 0.07182312
v 0.38011605 -0.18354769 0.07182312
v 0.23478986 -0.144066 0.07182312
v 0.3910365 -0.09702402 0.07182312
v 0.24151015 -0.09702402 0.07182312
v 0.38011605 -0.01134038 0.07182312
v 0.23478986 -0.04998201 0.07182312
v 0.2919123 0.32635397 0.07182312
v 0.14658612 0.28771234 0.07182312
v -0.23479009 -0.04998201 -0.07182294
v -0.1465863 0.28771234 0.07182312
v -0.1465863 0.28771234 -0.07182294
v -0.23479009 -0.04998201 0.07182312
v -0.24151033 -0.09702402 -0.07182294
v -0.24151033 -0.09702402 0.07182312
v -0.23479009 -0.144066 -0.07182294
v -0.23479009 -0.144066 0.07182312
v -0.21714932 -0.1885879 -0.07182294
v -0.21714932 -0.1885879 0.07182312
v -0.18774807 -0.22638951 -0.07182294
v -0.18774807 -0.22638951 0.07182312
v -0.14994645 -0.25495073 -0.07182294
v -0.14994645 -0.25495073 0.07182312
v -0.10626459 -0.2734315 -0.07182294
v -0.10626459 -0.2734315 0.07182312
v -0.05838257 -0.27931178 -0.07182294
v -0.05838257 -0.27931178 0.07182312
v 0.00041991472 -0.27931178 0.07182312
v 0.00041991472 -0.27931178 -0.07182294
v 0.058382392 -0.27931178 0.07182312
v 0.058382392 -0.27931178 -0.07182294
v 0.10626441 -0.2734315 0.07182312
v 0.10626441 -0.2734315 -0.07182294
v 0.14994627 -0.25495073 0.07182312
v 0.14994627 -0.25495073 -0.07182294
v 0.18774787 -0.22638951 0.07182312
v 0.18774787 -0.22638951 -0.07182294
v 0.21714912 -0.1885879 0.07182312
v 0.21714912 -0.1885879 -0.07182294
v 0.23478986 -0.144066 0.07182312
v 0.23478986 -0.144066 -0.07182294
v 0.24151015 -0.09702402 0.07182312
v 0.24151015 -0.09702402 -0.07182294
v 0.23478986 -0.04998201 0.07182312
v 0.23478986 -0.04998201 -0.07182294
v 0.14658612 0.28771234 0.07182312
v 0.14658612 0.28771234 -0.07182294
v -0.1197052 0.39187676 0.07182312
v -0.26503134 0.42967832 -0.07182294
v -0.1197052 0.39187676 -0.07182294
v -0.26503134 0.42967832 0.07182312
v 0.11970499 0.39187676 -0.07182294
v 0.26503116 0.42967832 0.07182312
v 0.11970499 0.39187676 0.07182312
v 0.26503116 0.42967832 -0.07182294
v -0.26503134 0.42967832 0.07182312
v -0.2919125 0.32635397 -0.07182294
v -0.26503134 0.42967832 -0.07182294
v -0.2919125 0.32635397 0.07182312
v -0.26503134 0.42967832 -0.07182294
v -0.1465863 0.28771234 -0.07182294
v -0.1197052 0.39187676 -0.07182294
v -0.2919125 0.32635397 -0.07182294
v -0.1197052 0.39187676 0.07182312
v -0.2919125 0.32635397 0.07182312
v -0.26503134 0.42967832 0.07182312
v -0.1465863 0.28771234 0.07182312
v -0.1197052 0.39187676 -0.07182294
v -0.1465863 0.28771234 0.07182312
v -0.1197052 0.39187676 0.07182312
v -0.1465863 0.28771234 -0.07182294
v 0.26503116 0.42967832 -0.07182294
v 0.2919123 0.32635397 0.07182312
v 0.26503116 0.42967832 0.07182312
v 0.2919123 0.32635397 -0.07182294
v 0.11970499 0.39187676 -0.07182294
v 0.2919123 0.32635397 -0.07182294
v 0.26503116 0.42967832 -0.07182294
v 0.14658612 0.28771234 -0.07182294
v 0.26503116 0.42967832 0.07182312
v 0.14658612 0.28771234 0.07182312
v 0.11970499 0.39187676 0.07182312
v 0.2919123 0.32635397 0.07182312
v 0.11970499 0.39187676 0.07182312
v 0.14658612 0.28771234 -0.07182294
v 0.11970499 0.39187676 -0.07182294
v 0.14658612 0.28771234 0.07182312
vt 0.22625807 0.6742017
vt 0.24793276 0.68142664
vt 0.24793276 0.6742017
vt 0.22625807 0.68142664
vt 0.22144146 0.6742017
vt 0.22144146 0.68142664
vt 0.21662486 0.6742017
vt 0.21662486 0.68142664
vt 0.21180826 0.6742017
vt 0.21180826 0.68142664
vt 0.20699167 0.6742017
vt 0.20699167 0.68142664
vt 0.20217507 0.6742017
vt 0.20217507 0.68142664
vt 0.19495016 0.6742017
vt 0.19495016 0.68142664
vt 0.19013357 0.6742017
vt 0.19013357 0.68142664
vt 0.18772528 0.6742017
vt 0.18772528 0.68142664
vt 0.18290867 0.68142664
vt 0.18290867 0.6742017
vt 0.17809208 0.68142664
vt 0.17809208 0.6742017
vt 0.17327547 0.68142664
vt 0.17327547 0.6742017
vt 0.16845888 0.68142664
vt 0.16845888 0.6742017
vt 0.16364229 0.68142664
vt 0.16364229 0.6742017
vt 0.15882568 0.68142664
vt 0.15882568 0.6742017
vt 0.15400909 0.68142664
vt 0.15400909 0.6742017
vt 0.14919248 0.68142664
vt 0.14919248 0.6742017
vt 0.12751779 0.68142664
vt 0.12751779 0.6742017
vt 0.21421656 0.68865156
vt 0.23348296 0.70550966
vt 0.23589125 0.6958765
vt 0.21180826 0.69828475
vt 0.20939997 0.68865156
vt 0.20939997 0.69828475
vt 0.20217507 0.68865156
vt 0.20458338 0.69828475
vt 0.19735847 0.6910598
vt 0.20217507 0.700693
vt 0.19254187 0.6958765
vt 0.19976677 0.7031013
vt 0.19013357 0.700693
vt 0.19735847 0.70550966
vt 0.18772528 0.70550966
vt 0.19735847 0.7079179
vt 0.18531698 0.7103262
vt 0.19495016 0.7103262
vt 0.19495016 0.71514285
vt 0.18531698 0.71514285
vt 0.19495016 0.7199594
vt 0.18531698 0.7199594
vt 0.19735847 0.72236776
vt 0.18772528 0.724776
vt 0.19735847 0.724776
vt 0.19013357 0.7295927
vt 0.19976677 0.7271843
vt 0.19254187 0.7344092
vt 0.20217507 0.7295927
vt 0.19735847 0.73922586
vt 0.20458338 0.73200095
vt 0.20217507 0.74163413
vt 0.20939997 0.73200095
vt 0.20939997 0.74163413
vt 0.21180826 0.73200095
vt 0.21421656 0.74163413
vt 0.23348296 0.724776
vt 0.23589125 0.7344092
vt 0.15400909 0.69828475
vt 0.18050037 0.6958765
vt 0.17809208 0.70550966
vt 0.15641738 0.68865156
vt 0.15160078 0.69828475
vt 0.15160078 0.68865156
vt 0.14919248 0.69828475
vt 0.14678419 0.68865156
vt 0.14437589 0.700693
vt 0.13955928 0.6910598
vt 0.14196758 0.7031013
vt 0.13474269 0.6958765
vt 0.13955928 0.70550966
vt 0.13233438 0.700693
vt 0.13955928 0.7079179
vt 0.12992609 0.70550966
vt 0.13955928 0.7103262
vt 0.12992609 0.7103262
vt 0.12992609 0.71514285
vt 0.13955928 0.71514285
vt 0.12992609 0.7199594
vt 0.13955928 0.7199594
vt 0.12992609 0.724776
vt 0.13955928 0.72236776
vt 0.13233438 0.7295927
vt 0.13955928 0.724776
vt 0.13474269 0.7344092
vt 0.14196758 0.7271843
vt 0.13955928 0.73922586
vt 0.14437589 0.7295927
vt 0.14678419 0.74163413
vt 0.14919248 0.73200095
vt 0.15160078 0.74163413
vt 0.15160078 0.73200095
vt 0.15641738 0.74163413
vt 0.15400909 0.73200095
vt 0.18050037 0.7344092
vt 0.17809208 0.724776
vt 0.20699167 0.65493536
vt 0.22866637 0.66456854
vt 0.22866637 0.65493536
vt 0.20699167 0.66456854
vt 0.20458338 0.65493536
vt 0.20458338 0.66456854
vt 0.20217507 0.65493536
vt 0.20217507 0.66456854
vt 0.19976677 0.65493536
vt 0.19976677 0.66456854
vt 0.19735847 0.65493536
vt 0.19735847 0.66456854
vt 0.19495016 0.65493536
vt 0.19495016 0.66456854
vt 0.19013357 0.65493536
vt 0.19013357 0.66456854
vt 0.18772528 0.65493536
vt 0.18772528 0.66456854
vt 0.18531698 0.66456854
vt 0.18531698 0.65493536
vt 0.18050037 0.66456854
vt 0.18050037 0.65493536
vt 0.17809208 0.66456854
vt 0.17809208 0.65493536
vt 0.17568378 0.66456854
vt 0.17568378 0.65493536
vt 0.17327547 0.66456854
vt 0.17327547 0.65493536
vt 0.17086717 0.66456854
vt 0.17086717 0.65493536
vt 0.16845888 0.66456854
vt 0.16845888 0.65493536
vt 0.16364229 0.66456854
vt 0.16364229 0.65493536
vt 0.16123398 0.66456854
vt 0.16123398 0.65493536
vt 0.14196758 0.66456854
vt 0.14196758 0.65493536
vt 0.24070786 0.64771044
vt 0.23107466 0.63807726
vt 0.24070786 0.63807726
vt 0.23107466 0.64771044
vt 0.24070786 0.63807726
vt 0.23107466 0.64771044
vt 0.24070786 0.64771044
vt 0.23107466 0.63807726
vt 0.22144146 0.63807726
vt 0.23107466 0.63085234
vt 0.23107466 0.63807726
vt 0.22144146 0.63085234
vt 0.23107466 0.63807726
vt 0.24070786 0.63085234
vt 0.24070786 0.63807726
vt 0.23107466 0.63085234
vt 0.21421656 0.63807726
vt 0.22144146 0.63085234
vt 0.22144146 0.63807726
vt 0.21421656 0.63085234
vt 0.20458338 0.63807726
vt 0.21421656 0.63085234
vt 0.21421656 0.63807726
vt 0.20458338 0.63085234
vt 0.23107466 0.63807726
vt 0.22144146 0.63085234
vt 0.22144146 0.63807726
vt 0.23107466 0.63085234
vt 0.24070786 0.63807726
vt 0.23107466 0.63085234
vt 0.23107466 0.63807726
vt 0.24070786 0.63085234
vt 0.22144146 0.63807726
vt 0.21421656 0.63085234
vt 0.21421656 0.63807726
vt 0.22144146 0.63085234
vt 0.21421656 0.63807726
vt 0.20458338 0.63085234
vt 0.20458338 0.63807726
vt 0.21421656 0.63085234
vn -0.968132 0.20632327 -0.14195466
vn -0.968132 0.23806524 -0.07775189
vn -0.968132 0.23806524 -0.07775189
vn -0.968132 0.20632327 -0.14195466
vn -0.999874 0.015871048 -0.00034391563
vn -0.999874 0.015871048 -0.00034391563
vn -0.96329135 -0.26845825 -0
vn -0.96329135 -0.26845825 -0
vn -0.87115216 -0.49101302 -0
vn -0.87115216 -0.49101302 -0
vn -0.70710677 -0.70710677 -0
vn -0.70710677 -0.70710677 -0
vn -0.49101308 -0.87115216 -0
vn -0.49101308 -0.87115216 -0
vn -0.2684583 -0.9632913 -0
vn -0.2684583 -0.9632913 -0
vn -0.079116344 -0.9968654 -0
vn -0.079116344 -0.9968654 -0
vn -0.015871048 -0.999874 -0.00034526698
vn -0.015871048 -0.999874 -0.00034526698
vn 0.079116285 -0.9968654 -0
vn 0.079116285 -0.9968654 -0
vn 0.26845825 -0.9632913 -0
vn 0.26845825 -0.9632913 -0
vn 0.49101302 -0.87115216 -0
vn 0.49101302 -0.87115216 -0
vn 0.70710677 -0.70710677 -0
vn 0.70710677 -0.70710677 -0
vn 0.87115216 -0.49101302 -0
vn 0.87115216 -0.49101302 -0
vn 0.9632913 -0.26845825 -0
vn 0.9632913 -0.26845825 -0
vn 0.999874 0.015871048 -0.00034391563
vn 0.999874 0.015871048 -0.00034391563
vn 0.96813196 0.20632327 0.14195509
vn 0.96813196 0.20632327 0.14195509
vn 0.96813196 0.23806524 0.07775266
vn 0.96813196 0.23806524 0.07775266
vn 0.015870988 0.015871048 -0.99974805
vn 0.015870988 0.015871048 -0.99974805
vn 0.015870988 0.015871048 -0.99974805
vn 0.015870988 0.015871048 -0.99974805
vn -0.015871048 0.015871048 -0.99974805
vn -0.015871048 0.015871048 -0.99974805
vn -0.015871048 0.015871048 -0.99974805
vn -0.015871048 0.015871048 -0.99974805
vn -0.015871048 0.015871048 -0.99974805
vn -0.015871048 0.015871048 -0.99974805
vn -0.015871048 0.015871048 -0.99974805
vn -0.015871048 0.015871048 -0.99974805
vn -0.015871048 0.015871048 -0.99974805
vn -0.015871048 0.015871048 -0.99974805
vn -0.015871048 0.015871048 -0.99974805
vn -0.015871048 0.015871048 -0.99974805
vn -0.015871048 0.015871048 -0.99974805
vn -0.015871048 0.015871048 -0.99974805
vn -0.015871048 0.015871048 -0.99974805
vn -0.015871048 0.015871048 -0.99974805
vn -0.015871048 0.015871048 -0.99974805
vn -0.015871048 0.015871048 -0.99974805
vn -0.015871048 0.015871048 -0.99974805
vn -0.015871048 0.015871048 -0.99974805
vn -0.015871048 0.015871048 -0.99974805
vn -0.015871048 0.015871048 -0.99974805
vn -0.015871048 0.015871048 -0.99974805
vn -0.015871048 0.015871048 -0.99974805
vn -0.015871048 0.015871048 -0.99974805
vn -0.015871048 0.015871048 -0.99974805
vn -0.015871048 0.015871048 -0.99974805
vn -0.015871048 0.015871048 -0.99974805
vn -0.015871048 0.015871048 -0.99974805
vn -0.015871048 0.015871048 -0.99974805
vn -0.015871048 0.015871048 -0.99974805
vn -0.015871048 0.015871048 -0.99974805
vn -0.015871048 0.015871048 -0.99974805
vn -0.015871048 0.015871048 -0.99974805
vn -0.015871048 -0.015870988 0.99974805
vn -0.015871048 -0.015870988 0.99974805
vn -0.015871048 -0.015870988 0.99974805
vn -0.015871048 -0.015870988 0.99974805
vn -0.015871048 0.015871048 0.99974805
vn -0.015871048 0.015871048 0.99974805
vn -0.015871048 0.015871048 0.99974805
vn -0.015871048 0.015871048 0.99974805
vn -0.015871048 0.015871048 0.99974805
vn -0.015871048 0.015871048 0.99974805
vn -0.015871048 0.015871048 0.99974805
vn -0.015871048 0.015871048 0.99974805
vn -0.015871048 0.015871048 0.99974805
vn -0.015871048 0.015871048 0.99974805
vn -0.015871048 0.015871048 0.99974805
vn -0.015871048 0.015871048 0.99974805
vn -0.015871048 0.015871048 0.99974805
vn -0.015871048 0.015871048 0.99974805
vn -0.015871048 0.015871048 0.99974805
vn -0.015871048 0.015871048 0.99974805
vn -0.015871048 0.015871048 0.99974805
vn -0.015871048 0.015871048 0.99974805
vn -0.015871048 0.015871048 0.99974805
vn -0.015871048 0.015871048 0.99974805
vn -0.015871048 0.015871048 0.99974805
vn -0.015871048 0.015871048 0.99974805
vn -0.015871048 0.015871048 0.99974805
vn -0.015871048 0.015871048 0.99974805
vn -0.015871048 0.015871048 0.99974805
vn -0.015871048 0.015871048 0.99974805
vn -0.015871048 0.015871048 0.99974805
vn -0.015871048 0.015871048 0.99974805
vn -0.015871048 0.015871048 0.99974805
vn -0.015871048 0.015871048 0.99974805
vn 0.015870988 -0.015870988 0.99974805
vn 0.015870988 -0.015870988 0.99974805
vn 0.015870988 -0.015870988 0.99974805
vn 0.015870988 -0.015870988 0.99974805
vn 0.96813196 -0.2063232 -0.14195518
vn 0.96813196 -0.23806524 -0.07775266
vn 0.96813196 -0.23806524 -0.07775266
vn 0.96813196 -0.2063232 -0.14195518
vn 0.999874 0.015871048 -0.00034391563
vn 0.999874 0.015871048 -0.00034391563
vn 0.9632913 0.2684583 -0
vn 0.9632913 0.2684583 -0
vn 0.87115216 0.49101308 -0
vn 0.87115216 0.49101308 -0
vn 0.70710677 0.70710677 -0
vn 0.70710677 0.70710677 -0
vn 0.49101302 0.87115216 -0
vn 0.49101302 0.87115216 -0
vn 0.26845825 0.96329135 -0
vn 0.26845825 0.96329135 -0
vn 0.079116285 0.9968654 -0
vn 0.079116285 0.9968654 -0
vn -0.015871048 0.999874 -0.00034526698
vn -0.015871048 0.999874 -0.00034526698
vn -0.079116344 0.9968654 -0
vn -0.079116344 0.9968654 -0
vn -0.2684583 0.96329135 -0
vn -0.2684583 0.96329135 -0
vn -0.49101308 0.87115216 -0
vn -0.49101308 0.87115216 -0
vn -0.70710677 0.70710677 -0
vn -0.70710677 0.70710677 -0
vn -0.87115216 0.49101308 -0
vn -0.87115216 0.49101308 -0
vn -0.96329135 0.2684583 -0
vn -0.96329135 0.2684583 -0
vn -0.999874 -0.015870988 -0.00034665503
vn -0.999874 -0.015870988 -0.00034665503
vn -0.968132 -0.2063232 -0.14195476
vn -0.968132 -0.2063232 -0.14195476
vn -0.968132 -0.23806524 -0.07775189
vn -0.968132 -0.23806524 -0.07775189
vn 0.23806524 0.968132 -0.07775179
vn 0.23806524 0.968132 -0.07775179
vn 0.23806524 0.968132 0.07775179
vn 0.23806524 0.968132 -0.07775179
vn -0.23806524 0.968132 -0.07775179
vn -0.23806524 0.968132 -0.07775179
vn -0.23806524 0.968132 0.07775179
vn -0.23806524 0.968132 -0.07775179
vn -0.968132 0.23806524 -0.07775189
vn -0.968132 0.23806524 -0.07775189
vn -0.968132 0.23806524 -0.07775189
vn -0.968132 0.23806524 -0.07775189
vn 0.015870988 0.015871048 -0.99974805
vn 0.015870988 0.015871048 -0.99974805
vn 0.015870988 0.015871048 -0.99974805
vn 0.015870988 0.015871048 -0.99974805
vn -0.015871048 -0.015870988 0.99974805
vn -0.015871048 -0.015870988 0.99974805
vn -0.015871048 -0.015870988 0.99974805
vn -0.015871048 -0.015870988 0.99974805
vn 0.96813196 -0.23806524 0.07775266
vn 0.96813196 -0.23806524 0.07775266
vn 0.96813196 -0.23806524 0.07775266
vn 0.96813196 -0.23806524 0.07775266
vn 0.96813196 0.23806524 0.07775266
vn 0.96813196 0.23806524 0.07775266
vn 0.96813196 0.23806524 0.07775266
vn 0.96813196 0.23806524 0.07775266
vn -0.015871048 0.015871048 -0.99974805
vn -0.015871048 0.015871048 -0.99974805
vn -0.015871048 0.015871048 -0.99974805
vn -0.015871048 0.015871048 -0.99974805
vn 0.015870988 -0.015870988 0.99974805
vn 0.015870988 -0.015870988 0.99974805
vn 0.015870988 -0.015870988 0.99974805
vn 0.015870988 -0.015870988 0.99974805
vn -0.968132 -0.23806524 -0.07775189
vn -0.968132 -0.23806524 -0.07775189
vn -0.968132 -0.23806524 -0.07775189
vn -0.968132 -0.23806524 -0.07775189
g magnet_0
f 3/3/3 2/2/2 1/1/1
f 4/4/4 1/1/1 2/2/2
f 1/1/1 4/4/4 5/5/5
f 6/6/6 5/5/5 4/4/4
f 5/5/5 6/6/6 7/7/7
f 8/8/8 7/7/7 6/6/6
f 7/7/7 8/8/8 9/9/9
f 10/10/10 9/9/9 8/8/8
f 9/9/9 10/10/10 11/11/11
f 12/12/12 11/11/11 10/10/10
f 11/11/11 12/12/12 13/13/13
f 14/14/14 13/13/13 12/12/12
f 13/13/13 14/14/14 15/15/15
f 16/16/16 15/15/15 14/14/14
f 15/15/15 16/16/16 17/17/17
f 18/18/18 17/17/17 16/16/16
f 17/17/17 18/18/18 19/19/19
f 20/20/20 19/19/19 18/18/18
f 20/20/20 21/21/21 19/19/19
f 22/22/22 19/19/19 21/21/21
f 21/21/21 23/23/23 22/22/22
f 24/24/24 22/22/22 23/23/23
f 23/23/23 25/25/25 24/24/24
f 26/26/26 24/24/24 25/25/25
f 25/25/25 27/27/27 26/26/26
f 28/28/28 26/26/26 27/27/27
f 27/27/27 29/29/29 28/28/28
f 30/30/30 28/28/28 29/29/29
f 29/29/29 31/31/31 30/30/30
f 32/32/32 30/30/30 31/31/31
f 31/31/31 33/33/33 32/32/32
f 34/34/34 32/32/32 33/33/33
f 33/33/33 35/35/35 34/34/34
f 36/36/36 34/34/34 35/35/35
f 35/35/35 37/37/37 36/36/36
f 38/38/38 36/36/36 37/37/37
f 41/41/41 40/40/40 39/39/39
f 42/42/42 39/39/39 40/40/40
f 39/39/39 42/42/42 43/43/43
f 44/44/44 43/43/43 42/42/42
f 43/43/43 44/44/44 45/45/45
f 46/46/46 45/45/45 44/44/44
f 45/45/45 46/46/46 47/47/47
f 48/48/48 47/47/47 46/46/46
f 47/47/47 48/48/48 49/49/49
f 50/50/50 49/49/49 48/48/48
f 49/49/49 50/50/50 51/51/51
f 52/52/52 51/51/51 50/50/50
f 51/51/51 52/52/52 53/53/53
f 54/54/54 53/53/53 52/52/52
f 53/53/53 54/54/54 55/55/55
f 56/56/56 55/55/55 54/54/54
f 56/56/56 57/57/57 55/55/55
f 58/58/58 55/55/55 57/57/57
f 57/57/57 59/59/59 58/58/58
f 60/60/60 58/58/58 59/59/59
f 59/59/59 61/61/61 60/60/60
f 62/62/62 60/60/60 61/61/61
f 61/61/61 63/63/63 62/62/62
f 64/64/64 62/62/62 63/63/63
f 63/63/63 65/65/65 64/64/64
f 66/66/66 64/64/64 65/65/65
f 65/65/65 67/67/67 66/66/66
f 68/68/68 66/66/66 67/67/67
f 67/67/67 69/69/69 68/68/68
f 70/70/70 68/68/68 69/69/69
f 69/69/69 71/71/71 70/70/70
f 72/72/72 70/70/70 71/71/71
f 71/71/71 73/73/73 72/72/72
f 74/74/74 72/72/72 73/73/73
f 73/73/73 75/75/75 74/74/74
f 76/76/76 74/74/74 75/75/75
f 79/79/79 78/78/78 77/77/77
f 80/80/80 77/77/77 78/78/78
f 77/77/77 80/80/80 81/81/81
f 82/82/82 81/81/81 80/80/80
f 81/81/81 82/82/82 83/83/83
f 84/84/84 83/83/83 82/82/82
f 83/83/83 84/84/84 85/85/85
f 86/86/86 85/85/85 84/84/84
f 85/85/85 86/86/86 87/87/87
f 88/88/88 87/87/87 86/86/86
f 87/87/87 88/88/88 89/89/89
f 90/90/90 89/89/89 88/88/88
f 89/89/89 90/90/90 91/91/91
f 92/92/92 91/91/91 90/90/90
f 91/91/91 92/92/92 93/93/93
f 94/94/94 93/93/93 92/92/92
f 94/94/94 95/95/95 93/93/93
f 96/96/96 93/93/93 95/95/95
f 95/95/95 97/97/97 96/96/96
f 98/98/98 96/96/96 97/97/97
f 97/97/97 99/99/99 98/98/98
f 100/100/100 98/98/98 99/99/99
f 99/99/99 101/101/101 100/100/100
f 102/102/102 100/100/100 101/101/101
f 101/101/101 103/103/103 102/102/102
f 104/104/104 102/102/102 103/103/103
f 103/103/103 105/105/105 104/104/104
f 106/106/106 104/104/104 105/105/105
f 105/105/105 107/107/107 106/106/106
f 108/108/108 106/106/106 107/107/107
f 107/107/107 109/109/109 108/108/108
f 110/110/110 108/108/108 109/109/109
f 109/109/109 111/111/111 110/110/110
f 112/112/112 110/110/110 111/111/111
f 111/111/111 113/113/113 112/112/112
f 114/114/114 112/112/112 113/113/113
f 117/117/117 116/116/116 115/115/115
f 118/118/118 115/115/115 116/116/116
f 115/115/115 118/118/118 119/119/119
f 120/120/120 119/119/119 118/118/118
f 119/119/119 120/120/120 121/121/121
f 122/122/122 121/121/121 120/120/120
f 121/121/121 122/122/122 123/123/123
f 124/124/124 123/123/123 122/122/122
f 123/123/123 124/124/124 125/125/125
f 126/126/126 125/125/125 124/124/124
f 125/125/125 126/126/126 127/127/127
f 128/128/128 127/127/127 126/126/126
f 127/127/127 128/128/128 129/129/129
f 130/130/130 129/129/129 128/128/128
f 129/129/129 130/130/130 131/131/131
f 132/132/132 131/131/131 130/130/130
f 132/132/132 133/133/133 131/131/131
f 134/134/134 131/131/131 133/133/133
f 133/133/133 135/135/135 134/134/134
f 136/136/136 134/134/134 135/135/135
f 135/135/135 137/137/137 136/136/136
f 138/138/138 136/136/136 137/137/137
f 137/137/137 139/139/139 138/138/138
f 140/140/140 138/138/138 139/139/139
f 139/139/139 141/141/141 140/140/140
f 142/142/142 140/140/140 141/141/141
f 141/141/141 143/143/143 142/142/142
f 144/144/144 142/142/142 143/143/143
f 143/143/143 145/145/145 144/144/144
f 146/146/146 144/144/144 145/145/145
f 145/145/145 147/147/147 146/146/146
f 148/148/148 146/146/146 147/147/147
f 147/147/147 149/149/149 148/148/148
f 150/150/150 148/148/148 149/149/149
f 149/149/149 151/151/151 150/150/150
f 152/152/152 150/150/150 151/151/151
f 155/155/155 154/154/154 153/153/153
f 156/156/156 153/153/153 154/154/154
f 159/159/159 158/158/158 157/157/157
f 160/160/160 157/157/157 158/158/158
f 163/163/163 162/162/162 161/161/161
f 164/164/164 161/161/161 162/162/162
f 167/167/167 166/166/166 165/165/165
f 168/168/168 165/165/165 166/166/166
f 171/171/171 170/170/170 169/169/169
f 172/172/172 169/169/169 170/170/170
f 175/175/175 174/174/174 173/173/173
f 176/176/176 173/173/173 174/174/174
f 179/179/179 178/178/178 177/177/177
f 180/180/180 177/177/177 178/178/178
f 183/183/183 182/182/182 181/181/181
f 184/184/184 181/181/181 182/182/182
f 187/187/187 186/186/186 185/185/185
f 188/188/188 185/185/185 186/186/186
f 191/191/191 190/190/190 189/189/189
f 192/192/192 189/189/189 190/190/190
