g Matchbox_A_01
v 0.004091203 0.34594688 -0.14427042
v 0.4180707 0.30823788 -0.13033447
v 0.4180707 0.30823788 0.12871012
v 0.004091203 0.34594688 0.1426461
v -0.41972545 0.30823788 -0.13279375
v -0.41972545 0.30823788 0.13116941
v 0.0032714605 -0.30494362 -0.078689486
v 0.0032714605 -0.30494362 0.07788491
v -0.4205452 -0.2713334 0.0959197
v -0.4205452 -0.2713334 -0.09672424
v 0.004091203 -0.3459317 -0.14427042
v -0.41972545 -0.30822268 -0.13279375
v -0.41972545 -0.30822268 0.13116941
v 0.004091203 -0.3459317 0.1426461
v 0.4180707 -0.30822268 -0.13033447
v 0.4180707 -0.30822268 0.12871012
v 0.0032714605 0.30495885 -0.078689486
v 0.0032714605 0.30495885 0.07788491
v 0.41725093 0.27052882 0.08772209
v 0.41725093 0.27052882 -0.08852664
v 0.004091203 0.34594688 -0.14427042
v -0.41972545 0.30823788 -0.13279375
v -0.41972545 -0.30822268 -0.13279375
v 0.004091203 -0.3459317 -0.14427042
v 0.4180707 0.30823788 -0.13033447
v 0.4180707 -0.30822268 -0.13033447
v 0.004091203 -0.3459317 0.1426461
v -0.41972545 -0.30822268 0.13116941
v -0.41972545 0.30823788 0.13116941
v 0.004091203 0.34594688 0.1426461
v 0.4180707 -0.30822268 0.12871012
v 0.4180707 0.30823788 0.12871012
v 0.0032714605 0.30495885 -0.078689486
v 0.0032714605 -0.30494362 -0.078689486
v -0.4205452 -0.2713334 -0.09672424
v -0.4205452 0.27134863 -0.09672424
v 0.0032714605 -0.30494362 0.07788491
v 0.0032714605 0.30495885 0.07788491
v -0.4205452 0.27134863 0.0959197
v -0.4205452 -0.2713334 0.0959197
v 0.41725093 -0.27051365 0.08772209
v 0.41725093 0.27052882 0.08772209
v 0.0032714605 0.30495885 0.07788491
v 0.0032714605 -0.30494362 0.07788491
v 0.41725093 0.27052882 -0.08852664
v 0.41725093 -0.27051365 -0.08852664
v 0.0032714605 -0.30494362 -0.078689486
v 0.0032714605 0.30495885 -0.078689486
v 0.41725093 -0.27051365 -0.08852664
v 0.41725093 -0.27051365 0.08772209
v 0.0032714605 -0.30494362 0.07788491
v 0.0032714605 -0.30494362 -0.078689486
v -0.4205452 0.27134863 -0.09672424
v -0.4205452 0.27134863 0.0959197
v 0.0032714605 0.30495885 0.07788491
v 0.0032714605 0.30495885 -0.078689486
v -0.41972545 -0.30822268 -0.13279375
v -0.4205452 -0.2713334 -0.09672424
v -0.4205452 -0.2713334 0.0959197
v -0.41972545 -0.30822268 0.13116941
v -0.41972545 0.30823788 0.13116941
v -0.4205452 -0.2713334 0.0959197
v -0.4205452 0.27134863 0.0959197
v -0.41972545 0.30823788 0.13116941
v -0.4205452 0.27134863 0.0959197
v -0.4205452 0.27134863 -0.09672424
v -0.41972545 0.30823788 -0.13279375
v -0.41972545 -0.30822268 -0.13279375
v -0.41972545 0.30823788 -0.13279375
v -0.4205452 0.27134863 -0.09672424
v -0.4205452 -0.2713334 -0.09672424
v 0.4180707 -0.30822268 0.12871012
v 0.4180707 0.30823788 0.12871012
v 0.41725093 0.27052882 0.08772209
v 0.41725093 -0.27051365 0.08772209
v 0.4180707 0.30823788 -0.13033447
v 0.41725093 -0.27051365 -0.08852664
v 0.41725093 0.27052882 -0.08852664
v 0.4180707 -0.30822268 -0.13033447
v 0.4180707 -0.30822268 0.12871012
v 0.41725093 -0.27051365 0.08772209
v 0.41725093 -0.27051365 -0.08852664
v 0.4180707 0.30823788 -0.13033447
v 0.41725093 0.27052882 -0.08852664
v 0.41725093 0.27052882 0.08772209
v 0.4180707 0.30823788 0.12871012
v -0.41398707 -0.27871126 -0.120497316
v -0.41398707 0.2787265 -0.120497316
v -0.41398707 0.2787265 0.11805323
v -0.41398707 -0.27871126 0.11805323
v 0.4115126 -0.27051365 -0.08606735
v 0.4115126 -0.27051365 0.0959197
v 0.4115126 0.27052882 0.0959197
v 0.4115126 0.27052882 -0.08606735
vt 0.23724025 0.30598545
vt 0.43201834 0.30598545
vt 0.43201834 0.41674164
vt 0.23724025 0.41674164
vt 0.038642973 0.30598545
vt 0.038642973 0.41674164
vt 0.7948403 0.98961836
vt 0.7069992 0.98961836
vt 0.7069992 0.79102105
vt 0.7948403 0.79102105
vt 0.23724025 0.30598545
vt 0.038642973 0.30598545
vt 0.038642973 0.41674164
vt 0.23724025 0.41674164
vt 0.43201834 0.30598545
vt 0.43201834 0.41674164
vt 0.4052841 0.79102105
vt 0.31362382 0.79102105
vt 0.31362382 0.9857992
vt 0.4052841 0.9857992
vt 0.23724025 0.015727904
vt 0.038642973 0.015727904
vt 0.038642973 0.30598545
vt 0.23724025 0.30598545
vt 0.43201834 0.015727904
vt 0.43201834 0.30598545
vt 0.23724025 0.41674164
vt 0.038642973 0.41674164
vt 0.038642973 0.7069992
vt 0.23724025 0.7069992
vt 0.43201834 0.41674164
vt 0.43201834 0.7069992
vt 0.7069992 0.98961836
vt 0.43583754 0.98961836
vt 0.43583754 0.79102105
vt 0.7069992 0.79102105
vt 0.43583754 0.98961836
vt 0.7069992 0.98961836
vt 0.7069992 0.79102105
vt 0.43583754 0.79102105
vt 0.04628133 0.9857992
vt 0.31362382 0.9857992
vt 0.31362382 0.79102105
vt 0.04628133 0.79102105
vt 0.31362382 0.9857992
vt 0.04628133 0.9857992
vt 0.04628133 0.79102105
vt 0.31362382 0.79102105
vt 0.4052841 0.9857992
vt 0.31362382 0.9857992
vt 0.31362382 0.79102105
vt 0.4052841 0.79102105
vt 0.7948403 0.79102105
vt 0.7069992 0.79102105
vt 0.7069992 0.98961836
vt 0.7948403 0.98961836
vt 0.038642973 0.30598545
vt 0.019547082 0.30598545
vt 0.019547082 0.41674164
vt 0.038642973 0.41674164
vt 0.038642973 0.7069992
vt 0.019547082 0.41674164
vt 0.019547082 0.7069992
vt 0.038642973 0.41674164
vt 0.019547082 0.41674164
vt 0.019547082 0.30598545
vt 0.038642973 0.30598545
vt 0.038642973 0.30598545
vt 0.038642973 0.015727904
vt 0.019547082 0.015727904
vt 0.019547082 0.30598545
vt 0.43201834 0.41674164
vt 0.43201834 0.7069992
vt 0.45111424 0.7069992
vt 0.45111424 0.41674164
vt 0.43201834 0.015727904
vt 0.45111424 0.30598545
vt 0.45111424 0.015727904
vt 0.43201834 0.30598545
vt 0.43201834 0.41674164
vt 0.45111424 0.41674164
vt 0.45111424 0.30598545
vt 0.43201834 0.30598545
vt 0.45111424 0.30598545
vt 0.45111424 0.41674164
vt 0.43201834 0.41674164
vt 0.7490101 0.3861882
vt 0.7490101 0.619158
vt 0.8597663 0.619158
vt 0.8597663 0.3861882
vt 0.7490101 0.619158
vt 0.8597663 0.619158
vt 0.8597663 0.3861882
vt 0.7490101 0.3861882
vn 0.015870988 0.999874 -0.00034526698
vn 0.079116285 0.9968654 -0
vn 0.079116285 0.9968654 -0
vn 0.015870988 0.999874 -0.00034526698
vn -0.079116344 0.9968654 -0
vn -0.079116344 0.9968654 -0
vn -0.015871048 0.999874 -0.00034526698
vn -0.015871048 0.999874 -0.00034526698
vn 0.079116285 0.9968654 -0
vn 0.079116285 0.9968654 -0
vn 0.015870988 -0.999874 -0.00034526698
vn -0.079116344 -0.9968654 -0
vn -0.079116344 -0.9968654 -0
vn 0.015870988 -0.999874 -0.00034526698
vn 0.079116285 -0.9968654 -0
vn 0.079116285 -0.9968654 -0
vn -0.015871048 -0.999874 -0.00034526698
vn -0.015871048 -0.999874 -0.00034526698
vn -0.079116344 -0.9968654 -0
vn -0.079116344 -0.9968654 -0
vn 0.015870988 0.015871048 -0.99974805
vn -0.015871048 0.015871048 -0.99974805
vn -0.015871048 0.015871048 -0.99974805
vn 0.015870988 0.015871048 -0.99974805
vn 0.047613025 0.015871048 -0.9987398
vn 0.047613025 0.015871048 -0.9987398
vn 0.015870988 0.015871048 0.99974805
vn -0.015871048 0.015871048 0.99974805
vn -0.015871048 0.015871048 0.99974805
vn 0.015870988 0.015871048 0.99974805
vn 0.047613025 0.015871048 0.9987398
vn 0.047613025 0.015871048 0.9987398
vn -0.015871048 0.015871048 0.99974805
vn -0.015871048 0.015871048 0.99974805
vn -0.047613025 0.015871048 0.9987398
vn -0.047613025 0.015871048 0.9987398
vn -0.047613025 0.015871048 -0.9987398
vn -0.047613025 0.015871048 -0.9987398
vn -0.047613025 0.015871048 -0.9987398
vn -0.047613025 0.015871048 -0.9987398
vn 0.015870988 0.015871048 -0.99974805
vn 0.015870988 0.015871048 -0.99974805
vn 0.015870988 0.015871048 -0.99974805
vn 0.015870988 0.015871048 -0.99974805
vn 0.015870988 0.015871048 0.99974805
vn 0.015870988 0.015871048 0.99974805
vn -0.015871048 0.015871048 0.99974805
vn -0.015871048 0.015871048 0.99974805
vn -0.079116344 0.9968654 -0
vn -0.079116344 0.9968654 -0
vn -0.015871048 0.999874 -0.00034526698
vn -0.015871048 0.999874 -0.00034526698
vn 0.079116285 -0.9968654 -0
vn 0.079116285 -0.9968654 -0
vn -0.015871048 -0.999874 -0.00034526698
vn -0.015871048 -0.999874 -0.00034526698
vn -0.999874 -0.015870988 -0.00034665503
vn -0.999874 -0.015870988 -0.00034665503
vn -0.999874 -0.015870988 -0.00034665503
vn -0.999874 -0.015870988 -0.00034665503
vn -0.999874 0.015871048 -0.00034391563
vn -0.999874 -0.015870988 -0.00034665503
vn -0.999874 0.015871048 -0.00034391563
vn -0.999874 0.015871048 -0.00034391563
vn -0.999874 0.015871048 -0.00034391563
vn -0.999874 0.015871048 -0.00034391563
vn -0.999874 0.015871048 -0.00034391563
vn -0.999874 -0.015870988 -0.00034665503
vn -0.999874 0.015871048 -0.00034391563
vn -0.999874 0.015871048 -0.00034391563
vn -0.999874 -0.015870988 -0.00034665503
vn 0.999874 0.015871048 -0.00034391563
vn 0.999874 -0.015870988 -0.00034665503
vn 0.999874 -0.015870988 -0.00034665503
vn 0.999874 0.015871048 -0.00034391563
vn 0.999874 -0.015870988 -0.00034665503
vn 0.999874 0.015871048 -0.00034391563
vn 0.999874 -0.015870988 -0.00034665503
vn 0.999874 0.015871048 -0.00034391563
vn 0.999874 0.015871048 -0.00034391563
vn 0.999874 0.015871048 -0.00034391563
vn 0.999874 0.015871048 -0.00034391563
vn 0.999874 -0.015870988 -0.00034665503
vn 0.999874 -0.015870988 -0.00034665503
vn 0.999874 -0.015870988 -0.00034665503
vn 0.999874 -0.015870988 -0.00034665503
vn -0.999874 0.015871048 -0.00034391563
vn -0.999874 0.015871048 -0.00034391563
vn -0.999874 0.015871048 -0.00034391563
vn -0.999874 0.015871048 -0.00034391563
vn 0.999874 0.015871048 -0.00034391563
vn 0.999874 0.015871048 -0.00034391563
vn 0.999874 0.015871048 -0.00034391563
vn 0.999874 0.015871048 -0.00034391563
g Matchbox_A_01_0
f 3/3/3 2/2/2 1/1/1
f 4/4/4 3/3/3 1/1/1
f 4/4/4 1/1/1 5/5/5
f 6/6/6 4/4/4 5/5/5
f 9/9/9 8/8/8 7/7/7
f 10/10/10 9/9/9 7/7/7
f 13/13/13 12/12/12 11/11/11
f 14/14/14 13/13/13 11/11/11
f 14/14/14 11/11/11 15/15/15
f 16/16/16 14/14/14 15/15/15
f 19/19/19 18/18/18 17/17/17
f 20/20/20 19/19/19 17/17/17
f 23/23/23 22/22/22 21/21/21
f 24/24/24 23/23/23 21/21/21
f 24/24/24 21/21/21 25/25/25
f 26/26/26 24/24/24 25/25/25
f 29/29/29 28/28/28 27/27/27
f 30/30/30 29/29/29 27/27/27
f 30/30/30 27/27/27 31/31/31
f 32/32/32 30/30/30 31/31/31
f 35/35/35 34/34/34 33/33/33
f 36/36/36 35/35/35 33/33/33
f 39/39/39 38/38/38 37/37/37
f 40/40/40 39/39/39 37/37/37
f 43/43/43 42/42/42 41/41/41
f 44/44/44 43/43/43 41/41/41
f 47/47/47 46/46/46 45/45/45
f 48/48/48 47/47/47 45/45/45
f 51/51/51 50/50/50 49/49/49
f 52/52/52 51/51/51 49/49/49
f 55/55/55 54/54/54 53/53/53
f 56/56/56 55/55/55 53/53/53
f 59/59/59 58/58/58 57/57/57
f 60/60/60 59/59/59 57/57/57
f 62/62/62 60/60/60 61/61/61
f 63/63/63 62/62/62 61/61/61
f 66/66/66 65/65/65 64/64/64
f 67/67/67 66/66/66 64/64/64
f 70/70/70 69/69/69 68/68/68
f 71/71/71 70/70/70 68/68/68
f 74/74/74 73/73/73 72/72/72
f 75/75/75 74/74/74 72/72/72
f 78/78/78 77/77/77 76/76/76
f 77/77/77 79/79/79 76/76/76
f 81/81/81 80/80/80 79/79/79
f 82/82/82 81/81/81 79/79/79
f 85/85/85 84/84/84 83/83/83
f 86/86/86 85/85/85 83/83/83
f 89/89/89 88/88/88 87/87/87
f 90/90/90 89/89/89 87/87/87
f 93/93/93 92/92/92 91/91/91
f 94/94/94 93/93/93 91/91/91
