g Meteor
v -0.0004312992 0.4477882 -0.000444144
v -0.0004312992 0.42590186 -0.13876587
v 0.13876587 0.42590186 -0.000444144
v 0.14489403 0.39788738 -0.14489403
v 0.2630803 0.36199376 -0.000444144
v -0.0004312992 0.36199376 -0.2630803
v 0.27971393 0.31471923 -0.15277314
v 0.3620066 0.26306745 -0.000444144
v 0.15277314 0.31471923 -0.27971393
v -0.0004312992 0.26306745 -0.3620066
v 0.38214204 0.17464659 -0.15452403
v 0.42591473 0.13875303 -0.000444144
v 0.15452403 0.17464659 -0.38214204
v -0.0004312992 0.13875303 -0.42591473
v 0.287593 0.18690297 -0.287593
v 0.42591473 -0.000444144 -0.13876587
v 0.44780108 -0.000444144 -0.000444144
v 0.42591473 -0.13876587 -0.000444144
v 0.13876587 -0.000444144 -0.42591473
v -0.0004312992 -0.000444144 -0.44780108
v -0.0004312992 -0.13876587 -0.42591473
v 0.3620066 -0.000444144 -0.2630803
v 0.38214204 -0.17465949 -0.15452403
v 0.3620066 -0.2630803 -0.000444144
v 0.2630803 -0.000444144 -0.3620066
v 0.15452403 -0.17465949 -0.38214204
v -0.0004312992 -0.2630803 -0.3620066
v 0.287593 -0.18691584 -0.287593
v 0.27971393 -0.31473207 -0.15277314
v 0.2630803 -0.3620066 -0.000444144
v 0.15277314 -0.31473207 -0.27971393
v -0.0004312992 -0.3620066 -0.2630803
v 0.14489403 -0.39790022 -0.14489403
v 0.13876587 -0.42591473 -0.000444144
v -0.0004312992 -0.42591473 -0.13876587
v -0.0004312992 -0.44780108 -0.000444144
v -0.0004312992 0.4477882 -0.000444144
v -0.13875303 0.42590186 -0.000444144
v -0.0004312992 0.42590186 -0.13876587
v -0.14488116 0.39788738 -0.14489403
v -0.0004312992 0.36199376 -0.2630803
v -0.26306745 0.36199376 -0.000444144
v -0.1527603 0.31471923 -0.27971393
v -0.0004312992 0.26306745 -0.3620066
v -0.28057656 0.31471923 -0.15277314
v -0.36199376 0.26306745 -0.000444144
v -0.15451118 0.17464659 -0.38214204
v -0.0004312992 0.13875303 -0.42591473
v -0.38212916 0.17464659 -0.15452403
v -0.42590186 0.13875303 -0.000444144
v -0.28758016 0.18690297 -0.287593
v -0.13875303 -0.000444144 -0.42591473
v -0.0004312992 -0.000444144 -0.44780108
v -0.0004312992 -0.13876587 -0.42591473
v -0.42590186 -0.000444144 -0.13876587
v -0.4477882 -0.000444144 -0.000444144
v -0.42590186 -0.13876587 -0.000444144
v -0.26306745 -0.000444144 -0.3620066
v -0.15451118 -0.17465949 -0.38214204
v -0.0004312992 -0.2630803 -0.3620066
v -0.36199376 -0.000444144 -0.2630803
v -0.38212916 -0.17465949 -0.15452403
v -0.36199376 -0.2630803 -0.000444144
v -0.28758016 -0.18691584 -0.287593
v -0.1527603 -0.31473207 -0.27971393
v -0.0004312992 -0.3620066 -0.2630803
v -0.28057656 -0.31473207 -0.15277314
v -0.26306745 -0.3620066 -0.000444144
v -0.14488116 -0.39790022 -0.14489403
v -0.0004312992 -0.42591473 -0.13876587
v -0.13875303 -0.42591473 -0.000444144
v -0.0004312992 -0.44780108 -0.000444144
v -0.0004312992 0.4477882 -0.000444144
v -0.0004312992 0.42590186 0.13875303
v -0.13875303 0.42590186 -0.000444144
v -0.14488116 0.39788738 0.14488116
v -0.26306745 0.36199376 -0.000444144
v -0.0004312992 0.36199376 0.26306745
v -0.27444836 0.30333832 0.1527603
v -0.36199376 0.26306745 -0.000444144
v -0.1527603 0.31471923 0.27970108
v -0.0004312992 0.26306745 0.36199376
v -0.38212916 0.17464659 0.15451118
v -0.42590186 0.13875303 -0.000444144
v -0.15451118 0.17464659 0.38212916
v -0.0004312992 0.13875303 0.42590186
v -0.28758016 0.18690297 0.28758016
v -0.42590186 -0.000444144 0.13875303
v -0.4477882 -0.000444144 -0.000444144
v -0.42590186 -0.13876587 -0.000444144
v -0.13875303 -0.000444144 0.42590186
v -0.0004312992 -0.000444144 0.4477882
v -0.0004312992 -0.13701496 0.41889825
v -0.36199376 -0.000444144 0.26306745
v -0.38212916 -0.17465949 0.15451118
v -0.36199376 -0.2630803 -0.000444144
v -0.26306745 -0.000444144 0.36199376
v -0.15451118 -0.17465949 0.38212916
v -0.0004312992 -0.2622049 0.35586557
v -0.28758016 -0.18691584 0.28758016
v -0.28057656 -0.31473207 0.1527603
v -0.26306745 -0.3620066 -0.000444144
v -0.1527603 -0.31473207 0.27970108
v -0.0004312992 -0.3620066 0.26306745
v -0.14488116 -0.39790022 0.14488116
v -0.13875303 -0.42591473 -0.000444144
v -0.0004312992 -0.42591473 0.13875303
v -0.0004312992 -0.44780108 -0.000444144
v -0.0004312992 0.4477882 -0.000444144
v 0.13876587 0.42590186 -0.000444144
v -0.0004312992 0.42590186 0.13875303
v 0.14489403 0.39788738 0.14488116
v -0.0004312992 0.36199376 0.26306745
v 0.2630803 0.36199376 -0.000444144
v 0.15277314 0.31471923 0.27970108
v -0.0004312992 0.26306745 0.36199376
v 0.27008396 0.29896107 0.1527603
v 0.3620066 0.26306745 -0.000444144
v 0.15452403 0.17464659 0.38212916
v -0.0004312992 0.13875303 0.42590186
v 0.38214204 0.17464659 0.15451118
v 0.42591473 0.13875303 -0.000444144
v 0.287593 0.18690297 0.28758016
v 0.13876587 -0.000444144 0.42590186
v -0.0004312992 -0.000444144 0.4477882
v -0.0004312992 -0.13701496 0.41889825
v 0.42591473 -0.000444144 0.13875303
v 0.44780108 -0.000444144 -0.000444144
v 0.42591473 -0.13876587 -0.000444144
v 0.2630803 -0.000444144 0.36199376
v 0.15452403 -0.17465949 0.38212916
v -0.0004312992 -0.2622049 0.35586557
v 0.3620066 -0.000444144 0.26306745
v 0.38214204 -0.17465949 0.15451118
v 0.3620066 -0.2630803 -0.000444144
v 0.287593 -0.18691584 0.28758016
v 0.15277314 -0.31473207 0.27970108
v -0.0004312992 -0.3620066 0.26306745
v 0.27971393 -0.31473207 0.1527603
v 0.2630803 -0.3620066 -0.000444144
v 0.14489403 -0.39790022 0.14488116
v -0.0004312992 -0.42591473 0.13875303
v 0.13876587 -0.42591473 -0.000444144
v -0.0004312992 -0.44780108 -0.000444144
vt 0.88384265 0.49443564
vt 0.8133785 0.49443564
vt 0.8875513 0.5648998
vt 0.8133785 0.5686084
vt 0.880134 0.63907254
vt 0.7392058 0.5018529
vt 0.8022526 0.6464898
vt 0.8615908 0.71695393
vt 0.7354971 0.583443
vt 0.665033 0.5241048
vt 0.7725835 0.7243712
vt 0.82450444 0.78741807
vt 0.6576157 0.6131121
vt 0.59086025 0.5648998
vt 0.71695393 0.66874164
vt 0.72807986 0.8022526
vt 0.77629215 0.8504649
vt 0.71695393 0.90238583
vt 0.5797343 0.665033
vt 0.53152204 0.6168207
vt 0.48330972 0.6761589
vt 0.6761589 0.75774896
vt 0.65019846 0.85417354
vt 0.6427812 0.94318086
vt 0.6316553 0.7095367
vt 0.5352307 0.7392058
vt 0.44622335 0.7503317
vt 0.59086025 0.798544
vt 0.57231706 0.88384265
vt 0.5686084 0.96172404
vt 0.5055616 0.8207958
vt 0.42768016 0.8282131
vt 0.49443564 0.8986772
vt 0.49443564 0.97284997
vt 0.42026287 0.90238583
vt 0.4239715 0.97284997
vt 0.02714727 0.9283463
vt 0.09761139 0.9283463
vt 0.02714727 0.8578822
vt 0.10132003 0.85417354
vt 0.030855909 0.7837094
vt 0.17178416 0.920929
vt 0.11244594 0.77629215
vt 0.0493991 0.705828
vt 0.1754928 0.8430476
vt 0.24966553 0.8986772
vt 0.1384064 0.69841075
vt 0.086485475 0.6353639
vt 0.25708282 0.8096699
vt 0.32012966 0.8578822
vt 0.19774461 0.7540403
vt 0.18661869 0.62052935
vt 0.1384064 0.57231706
vt 0.19774461 0.5203961
vt 0.33125556 0.76145756
vt 0.37946787 0.80596125
vt 0.4313888 0.74662304
vt 0.234831 0.665033
vt 0.26079145 0.57231706
vt 0.26820874 0.4796011
vt 0.28304327 0.7132453
vt 0.37946787 0.6835762
vt 0.46847516 0.6724503
vt 0.3238383 0.624238
vt 0.34238148 0.5389393
vt 0.3460901 0.4610579
vt 0.40913695 0.60198617
vt 0.48701835 0.5945689
vt 0.42026287 0.5241048
vt 0.42026287 0.4536406
vt 0.490727 0.5203961
vt 0.490727 0.44993198
vt 0.490727 0.02714727
vt 0.42026287 0.02714727
vt 0.490727 0.09761139
vt 0.42026287 0.10132003
vt 0.48701835 0.17178416
vt 0.3460901 0.034564547
vt 0.40913695 0.17920142
vt 0.46847516 0.24966553
vt 0.34238148 0.11615458
vt 0.26820874 0.056816373
vt 0.37946787 0.26079145
vt 0.4313888 0.3238383
vt 0.26079145 0.14582369
vt 0.19774461 0.09761139
vt 0.3238383 0.20145324
vt 0.33125556 0.33496422
vt 0.37946787 0.3831765
vt 0.32012966 0.43509743
vt 0.18661869 0.19774461
vt 0.1384064 0.14953232
vt 0.086485475 0.21257916
vt 0.28304327 0.29046056
vt 0.25708282 0.38688514
vt 0.24966553 0.47589245
vt 0.234831 0.24224827
vt 0.1384064 0.275626
vt 0.0493991 0.28304327
vt 0.19774461 0.33125556
vt 0.1754928 0.41655424
vt 0.17178416 0.49814427
vt 0.11244594 0.3535074
vt 0.030855909 0.36092466
vt 0.10132003 0.4313888
vt 0.09761139 0.5055616
vt 0.02714727 0.43509743
vt 0.02714727 0.5055616
vt 0.5092702 0.51668745
vt 0.5797343 0.51297885
vt 0.5092702 0.44622335
vt 0.5797343 0.44251472
vt 0.51297885 0.37205058
vt 0.6539071 0.5055616
vt 0.59086025 0.36463332
vt 0.53152204 0.2941692
vt 0.6576157 0.42768016
vt 0.7317885 0.48330972
vt 0.62052935 0.28304327
vt 0.5686084 0.21999645
vt 0.7354971 0.3943024
vt 0.8022526 0.44622335
vt 0.6761589 0.34238148
vt 0.66874164 0.2051619
vt 0.62052935 0.15694961
vt 0.67986757 0.10502867
vt 0.8133785 0.3460901
vt 0.8615908 0.3943024
vt 0.91351175 0.33125556
vt 0.71695393 0.2533742
vt 0.7429144 0.15694961
vt 0.7503317 0.06794229
vt 0.7651662 0.29787782
vt 0.8578822 0.26820874
vt 0.94688946 0.25708282
vt 0.8022526 0.21257916
vt 0.82450444 0.12357186
vt 0.8282131 0.045690462
vt 0.8875513 0.19032735
vt 0.9691413 0.18291005
vt 0.8986772 0.11244594
vt 0.90238583 0.038273185
vt 0.97284997 0.108737305
vt 0.97284997 0.038273185
vn -0.015871048 0.999874 -0.00034526698
vn -0.015871048 0.9363899 -0.35060233
vn 0.30154932 0.9363899 -0.17956024
vn 0.33329135 0.87290585 -0.35630357
vn 0.5872276 0.8094218 -0.00042286396
vn -0.015871048 0.8094218 -0.58701324
vn 0.6189696 0.68245375 -0.3887589
vn 0.8094218 0.5872276 -0.00042286396
vn 0.33329135 0.68245375 -0.65051806
vn -0.015871048 0.5872276 -0.80926627
vn 0.8411638 0.39677536 -0.36744082
vn 0.954758 0.29738364 -0
vn 0.36503333 0.39677536 -0.84221137
vn -0.015871048 0.30154932 -0.9533185
vn 0.65071166 0.39677536 -0.647413
vn 0.9363899 0.015871048 -0.35060233
vn 0.999874 0.015871048 -0.00034391563
vn 0.954758 -0.29738364 -0
vn 0.30154932 -0.015870988 -0.9533185
vn -0.015871048 -0.015870988 -0.99974805
vn -0.015871048 -0.30154932 -0.9533185
vn 0.8094218 -0.015870988 -0.58701324
vn 0.8411638 -0.39677536 -0.36744082
vn 0.8094218 -0.5872276 -0.00042286396
vn 0.5872276 -0.015870988 -0.80926627
vn 0.36503333 -0.39677536 -0.84221137
vn -0.015871048 -0.5872276 -0.80926627
vn 0.65071166 -0.39677536 -0.647413
vn 0.6189696 -0.68245363 -0.38875914
vn 0.5872276 -0.8094218 -0.00042286396
vn 0.33329135 -0.68245363 -0.6505182
vn -0.015871048 -0.8094218 -0.58701324
vn 0.33329135 -0.87290585 -0.35630357
vn 0.30154932 -0.9363899 0.17956024
vn -0.015871048 -0.9363899 -0.35060233
vn -0.015871048 -0.999874 -0.00034526698
vn -0.015871048 0.999874 -0.00034526698
vn -0.30154932 0.9363899 -0.17956024
vn -0.015871048 0.9363899 -0.35060233
vn -0.3332913 0.87290585 -0.35630366
vn -0.015871048 0.8094218 -0.58701324
vn -0.5872276 0.8094218 -0.00042286396
vn -0.3332913 0.68245375 -0.6505181
vn -0.015871048 0.5872276 -0.80926627
vn -0.6189697 0.68245375 -0.3887588
vn -0.8094218 0.5872276 -0.00042286396
vn -0.3650334 0.39677536 -0.8422113
vn -0.015871048 0.30154932 -0.9533185
vn -0.8411639 0.39677536 -0.36744067
vn -0.95475805 0.29738364 -0
vn -0.65071166 0.39677536 -0.647413
vn -0.30154932 -0.015870988 -0.9533185
vn -0.015871048 -0.015870988 -0.99974805
vn -0.015871048 -0.30154932 -0.9533185
vn -0.9363899 0.015871048 -0.35060233
vn -0.999874 0.015871048 -0.00034391563
vn -0.95475805 -0.29738364 -0
vn -0.5872276 -0.015870988 -0.80926627
vn -0.3650334 -0.39677536 -0.8422113
vn -0.015871048 -0.5872276 -0.80926627
vn -0.8094218 -0.015870988 -0.58701324
vn -0.8411639 -0.39677536 -0.36744067
vn -0.8094218 -0.5872276 -0.00042286396
vn -0.65071166 -0.39677536 -0.647413
vn -0.3332913 -0.68245363 -0.65051824
vn -0.015871048 -0.8094218 -0.58701324
vn -0.6189697 -0.68245363 -0.38875905
vn -0.5872276 -0.8094218 -0.00042286396
vn -0.3332913 -0.87290585 -0.35630366
vn -0.015871048 -0.9363899 -0.35060233
vn -0.30154932 -0.9363899 0.17956024
vn -0.015871048 -0.999874 -0.00034526698
vn -0.015871048 0.999874 -0.00034526698
vn -0.015871048 0.9363899 0.35060233
vn -0.30154932 0.9363899 -0.17956024
vn -0.3332913 0.87290585 0.35630366
vn -0.5872276 0.8094218 -0.00042286396
vn -0.015871048 0.8094218 0.58701324
vn -0.6189697 0.68245375 0.3887588
vn -0.8094218 0.5872276 -0.00042286396
vn -0.3650334 0.68245375 0.6332515
vn -0.015871048 0.5872276 0.80926627
vn -0.8411639 0.39677536 0.36744067
vn -0.95475805 0.29738364 -0
vn -0.3650334 0.39677536 0.8422113
vn -0.015871048 0.30154932 0.9533185
vn -0.65071166 0.42851746 0.62685496
vn -0.9363899 0.015871048 0.35060233
vn -0.999874 0.015871048 -0.00034391563
vn -0.95475805 -0.29738364 -0
vn -0.30154932 -0.015870988 0.9533185
vn -0.015871048 -0.015870988 0.99974805
vn -0.015871048 -0.30154932 0.9533185
vn -0.8094218 0.015871048 0.58701324
vn -0.8411639 -0.39677536 0.36744067
vn -0.8094218 -0.5872276 -0.00042286396
vn -0.5872276 0.015871048 0.80926627
vn -0.3332913 -0.39677536 0.8552697
vn -0.015871048 -0.5872276 0.80926627
vn -0.65071166 -0.39677536 0.647413
vn -0.6189697 -0.68245363 0.38875905
vn -0.5872276 -0.8094218 -0.00042286396
vn -0.3332913 -0.68245363 0.65051824
vn -0.015871048 -0.8094218 0.58701324
vn -0.3332913 -0.87290585 0.35630366
vn -0.30154932 -0.9363899 0.17956024
vn -0.015871048 -0.9363899 0.35060233
vn -0.015871048 -0.999874 -0.00034526698
vn -0.015871048 0.999874 -0.00034526698
vn 0.30154932 0.9363899 -0.17956024
vn -0.015871048 0.9363899 0.35060233
vn 0.36503333 0.87290585 0.32370672
vn -0.015871048 0.8094218 0.58701324
vn 0.5872276 0.8094218 -0.00042286396
vn 0.36503333 0.7141957 0.59722286
vn -0.015871048 0.5872276 0.80926627
vn 0.6189696 0.68245375 0.3887589
vn 0.8094218 0.5872276 -0.00042286396
vn 0.36503333 0.39677536 0.84221137
vn -0.015871048 0.30154932 0.9533185
vn 0.8411638 0.42851746 0.32987306
vn 0.954758 0.29738364 -0
vn 0.65071166 0.42851746 0.62685496
vn 0.30154932 -0.015870988 0.9533185
vn -0.015871048 -0.015870988 0.99974805
vn -0.015871048 -0.30154932 0.9533185
vn 0.9363899 0.015871048 0.35060233
vn 0.999874 0.015871048 -0.00034391563
vn 0.954758 -0.29738364 -0
vn 0.5872276 0.015871048 0.80926627
vn 0.33329135 -0.39677536 0.8552696
vn -0.015871048 -0.5872276 0.80926627
vn 0.8094218 0.015871048 0.58701324
vn 0.8411638 -0.39677536 0.36744082
vn 0.8094218 -0.5872276 -0.00042286396
vn 0.65071166 -0.39677536 0.647413
vn 0.33329135 -0.68245363 0.6505182
vn -0.015871048 -0.8094218 0.58701324
vn 0.6189696 -0.68245363 0.38875914
vn 0.5872276 -0.8094218 -0.00042286396
vn 0.33329135 -0.87290585 0.35630357
vn -0.015871048 -0.9363899 0.35060233
vn 0.30154932 -0.9363899 0.17956024
vn -0.015871048 -0.999874 -0.00034526698
g Meteor_0
f 3/3/3 2/2/2 1/1/1
f 4/4/4 2/2/2 3/3/3
f 5/5/5 4/4/4 3/3/3
f 4/4/4 6/6/6 2/2/2
f 7/7/7 4/4/4 5/5/5
f 8/8/8 7/7/7 5/5/5
f 9/9/9 6/6/6 4/4/4
f 7/7/7 9/9/9 4/4/4
f 9/9/9 10/10/10 6/6/6
f 11/11/11 7/7/7 8/8/8
f 12/12/12 11/11/11 8/8/8
f 13/13/13 10/10/10 9/9/9
f 13/13/13 14/14/14 10/10/10
f 15/15/15 9/9/9 7/7/7
f 11/11/11 15/15/15 7/7/7
f 15/15/15 13/13/13 9/9/9
f 16/16/16 11/11/11 12/12/12
f 17/17/17 16/16/16 12/12/12
f 16/16/16 17/17/17 18/18/18
f 19/19/19 14/14/14 13/13/13
f 19/19/19 20/20/20 14/14/14
f 20/20/20 19/19/19 21/21/21
f 22/22/22 15/15/15 11/11/11
f 16/16/16 22/22/22 11/11/11
f 16/16/16 18/18/18 23/23/23
f 22/22/22 16/16/16 23/23/23
f 23/23/23 18/18/18 24/24/24
f 25/25/25 13/13/13 15/15/15
f 25/25/25 19/19/19 13/13/13
f 22/22/22 25/25/25 15/15/15
f 19/19/19 26/26/26 21/21/21
f 19/19/19 25/25/25 26/26/26
f 21/21/21 26/26/26 27/27/27
f 25/25/25 22/22/22 28/28/28
f 22/22/22 23/23/23 28/28/28
f 25/25/25 28/28/28 26/26/26
f 23/23/23 24/24/24 29/29/29
f 28/28/28 23/23/23 29/29/29
f 29/29/29 24/24/24 30/30/30
f 26/26/26 31/31/31 27/27/27
f 26/26/26 28/28/28 31/31/31
f 28/28/28 29/29/29 31/31/31
f 27/27/27 31/31/31 32/32/32
f 29/29/29 30/30/30 33/33/33
f 31/31/31 29/29/29 33/33/33
f 31/31/31 33/33/33 32/32/32
f 33/33/33 30/30/30 34/34/34
f 32/32/32 33/33/33 35/35/35
f 33/33/33 34/34/34 35/35/35
f 35/35/35 34/34/34 36/36/36
f 39/39/39 38/38/38 37/37/37
f 40/40/40 38/38/38 39/39/39
f 41/41/41 40/40/40 39/39/39
f 40/40/40 42/42/42 38/38/38
f 43/43/43 40/40/40 41/41/41
f 44/44/44 43/43/43 41/41/41
f 45/45/45 42/42/42 40/40/40
f 43/43/43 45/45/45 40/40/40
f 45/45/45 46/46/46 42/42/42
f 47/47/47 43/43/43 44/44/44
f 48/48/48 47/47/47 44/44/44
f 49/49/49 46/46/46 45/45/45
f 49/49/49 50/50/50 46/46/46
f 51/51/51 45/45/45 43/43/43
f 47/47/47 51/51/51 43/43/43
f 51/51/51 49/49/49 45/45/45
f 52/52/52 47/47/47 48/48/48
f 53/53/53 52/52/52 48/48/48
f 52/52/52 53/53/53 54/54/54
f 55/55/55 50/50/50 49/49/49
f 55/55/55 56/56/56 50/50/50
f 56/56/56 55/55/55 57/57/57
f 58/58/58 51/51/51 47/47/47
f 52/52/52 58/58/58 47/47/47
f 52/52/52 54/54/54 59/59/59
f 58/58/58 52/52/52 59/59/59
f 59/59/59 54/54/54 60/60/60
f 61/61/61 49/49/49 51/51/51
f 61/61/61 55/55/55 49/49/49
f 58/58/58 61/61/61 51/51/51
f 55/55/55 62/62/62 57/57/57
f 55/55/55 61/61/61 62/62/62
f 57/57/57 62/62/62 63/63/63
f 61/61/61 58/58/58 64/64/64
f 58/58/58 59/59/59 64/64/64
f 61/61/61 64/64/64 62/62/62
f 59/59/59 60/60/60 65/65/65
f 64/64/64 59/59/59 65/65/65
f 65/65/65 60/60/60 66/66/66
f 62/62/62 67/67/67 63/63/63
f 62/62/62 64/64/64 67/67/67
f 64/64/64 65/65/65 67/67/67
f 63/63/63 67/67/67 68/68/68
f 65/65/65 66/66/66 69/69/69
f 67/67/67 65/65/65 69/69/69
f 67/67/67 69/69/69 68/68/68
f 69/69/69 66/66/66 70/70/70
f 68/68/68 69/69/69 71/71/71
f 69/69/69 70/70/70 71/71/71
f 71/71/71 70/70/70 72/72/72
f 75/75/75 74/74/74 73/73/73
f 76/76/76 74/74/74 75/75/75
f 77/77/77 76/76/76 75/75/75
f 76/76/76 78/78/78 74/74/74
f 79/79/79 76/76/76 77/77/77
f 80/80/80 79/79/79 77/77/77
f 81/81/81 78/78/78 76/76/76
f 79/79/79 81/81/81 76/76/76
f 81/81/81 82/82/82 78/78/78
f 83/83/83 79/79/79 80/80/80
f 84/84/84 83/83/83 80/80/80
f 85/85/85 82/82/82 81/81/81
f 85/85/85 86/86/86 82/82/82
f 87/87/87 81/81/81 79/79/79
f 83/83/83 87/87/87 79/79/79
f 87/87/87 85/85/85 81/81/81
f 88/88/88 83/83/83 84/84/84
f 89/89/89 88/88/88 84/84/84
f 88/88/88 89/89/89 90/90/90
f 91/91/91 86/86/86 85/85/85
f 91/91/91 92/92/92 86/86/86
f 92/92/92 91/91/91 93/93/93
f 94/94/94 87/87/87 83/83/83
f 88/88/88 94/94/94 83/83/83
f 88/88/88 90/90/90 95/95/95
f 94/94/94 88/88/88 95/95/95
f 95/95/95 90/90/90 96/96/96
f 97/97/97 85/85/85 87/87/87
f 97/97/97 91/91/91 85/85/85
f 94/94/94 97/97/97 87/87/87
f 91/91/91 98/98/98 93/93/93
f 91/91/91 97/97/97 98/98/98
f 93/93/93 98/98/98 99/99/99
f 97/97/97 94/94/94 100/100/100
f 94/94/94 95/95/95 100/100/100
f 97/97/97 100/100/100 98/98/98
f 95/95/95 96/96/96 101/101/101
f 100/100/100 95/95/95 101/101/101
f 101/101/101 96/96/96 102/102/102
f 98/98/98 103/103/103 99/99/99
f 98/98/98 100/100/100 103/103/103
f 100/100/100 101/101/101 103/103/103
f 99/99/99 103/103/103 104/104/104
f 101/101/101 102/102/102 105/105/105
f 103/103/103 101/101/101 105/105/105
f 103/103/103 105/105/105 104/104/104
f 105/105/105 102/102/102 106/106/106
f 104/104/104 105/105/105 107/107/107
f 105/105/105 106/106/106 107/107/107
f 107/107/107 106/106/106 108/108/108
f 111/111/111 110/110/110 109/109/109
f 112/112/112 110/110/110 111/111/111
f 113/113/113 112/112/112 111/111/111
f 112/112/112 114/114/114 110/110/110
f 115/115/115 112/112/112 113/113/113
f 116/116/116 115/115/115 113/113/113
f 117/117/117 114/114/114 112/112/112
f 115/115/115 117/117/117 112/112/112
f 117/117/117 118/118/118 114/114/114
f 119/119/119 115/115/115 116/116/116
f 120/120/120 119/119/119 116/116/116
f 121/121/121 118/118/118 117/117/117
f 121/121/121 122/122/122 118/118/118
f 123/123/123 117/117/117 115/115/115
f 119/119/119 123/123/123 115/115/115
f 123/123/123 121/121/121 117/117/117
f 124/124/124 119/119/119 120/120/120
f 125/125/125 124/124/124 120/120/120
f 124/124/124 125/125/125 126/126/126
f 127/127/127 122/122/122 121/121/121
f 127/127/127 128/128/128 122/122/122
f 128/128/128 127/127/127 129/129/129
f 130/130/130 123/123/123 119/119/119
f 124/124/124 130/130/130 119/119/119
f 124/124/124 126/126/126 131/131/131
f 130/130/130 124/124/124 131/131/131
f 131/131/131 126/126/126 132/132/132
f 133/133/133 121/121/121 123/123/123
f 133/133/133 127/127/127 121/121/121
f 130/130/130 133/133/133 123/123/123
f 127/127/127 134/134/134 129/129/129
f 127/127/127 133/133/133 134/134/134
f 129/129/129 134/134/134 135/135/135
f 133/133/133 130/130/130 136/136/136
f 130/130/130 131/131/131 136/136/136
f 133/133/133 136/136/136 134/134/134
f 131/131/131 132/132/132 137/137/137
f 136/136/136 131/131/131 137/137/137
f 137/137/137 132/132/132 138/138/138
f 134/134/134 139/139/139 135/135/135
f 134/134/134 136/136/136 139/139/139
f 136/136/136 137/137/137 139/139/139
f 135/135/135 139/139/139 140/140/140
f 137/137/137 138/138/138 141/141/141
f 139/139/139 137/137/137 141/141/141
f 139/139/139 141/141/141 140/140/140
f 141/141/141 138/138/138 142/142/142
f 140/140/140 141/141/141 143/143/143
f 141/141/141 142/142/142 143/143/143
f 143/143/143 142/142/142 144/144/144
