g OnionRing_01
v -0.42371753 0.0071055293 0.00041294098
v -0.38607183 0.0054323673 0.06817517
v -0.36515757 -0.18195936 0.06817517
v -0.4011301 -0.19701764 0.00041294098
v -0.292376 -0.14933312 0.06901172
v -0.22043094 -0.3275226 0.06817517
v -0.17692927 -0.260597 0.06901172
v -0.38607183 0.0054323673 -0.068185806
v -0.35428217 0.20620927 0.00041294098
v -0.32081935 0.18529502 -0.068185806
v -0.30994394 -0.0012601912 0.06901172
v -0.32081935 0.18529502 0.06817517
v -0.1543419 -0.22713417 0.00041294098
v -0.2530572 -0.13260171 0.00041294098
v -0.23799893 -0.36014885 0.00041294098
v -0.36515757 -0.18195936 -0.068185806
v 0.0062796175 -0.2907135 0.06901172
v 0.0054430366 -0.25223127 0.00041294098
v 0.010462463 -0.3668414 0.06817517
v -0.20537266 0.35511878 0.00041294098
v -0.18529502 0.32165596 -0.068185806
v -0.25556687 0.1434665 -0.06902239
v -0.30994394 -0.0012601912 -0.06902239
v -0.1434665 0.2547303 -0.06902239
v -0.22043094 -0.3275226 -0.068185806
v 0.011299044 -0.40532362 0.00041294098
v -0.292376 -0.14933312 -0.06902239
v 0.18279594 -0.2346633 0.06901172
v 0.22295131 -0.30409864 0.06817517
v 0.16188169 -0.19952735 0.00041294098
v -0.2221041 0.121715635 0.00041294098
v -0.122552246 0.22126749 0.00041294098
v -0.27062514 -0.0046064556 0.00041294098
v -0.17692927 -0.260597 -0.06902239
v 0.010462463 -0.3668414 -0.068185806
v 0.243029 -0.338398 0.00041294098
v -0.25556687 0.1434665 0.06901172
v 0.0062796175 -0.2907135 -0.06902239
v -0.1434665 0.2547303 0.06901172
v -0.18529502 0.32165596 0.06817517
v 0.22295131 -0.30409864 -0.068185806
v 0.18279594 -0.2346633 -0.06902239
v 0.011299044 0.30576113 0.06901172
v 0.0062796175 0.3793793 0.06817517
v 0.0046064556 0.41702494 0.00041294098
v 0.013808727 0.26895204 0.00041294098
v 0.0062796175 0.3793793 -0.068185806
v 0.011299044 0.30576113 -0.06902239
v 0.3526197 -0.16606453 -0.068185806
v 0.2907135 -0.12005317 -0.06902239
v 0.38189965 -0.18865193 0.00041294098
v 0.2597604 -0.0966292 0.00041294098
v 0.3526197 -0.16606453 0.06817517
v 0.2907135 -0.12005317 0.06901172
v 0.16857424 0.28150055 -0.06902239
v 0.15100628 0.24887434 0.00041294098
v 0.20538335 0.34675303 -0.068185806
v 0.16857424 0.28150055 0.06901172
v 0.22211474 0.37854275 0.00041294098
v 0.20538335 0.34675303 0.06817517
v 0.2890404 0.036385477 0.00041294098
v 0.3241763 0.033039182 0.06901172
v 0.3241763 0.033039182 -0.06902239
v 0.39695793 0.028019786 0.06817517
v 0.39695793 0.028019786 -0.068185806
v 0.4320939 0.024673492 0.00041294098
v 0.38440937 0.24301836 0.00041294098
v 0.35094658 0.2237772 -0.068185806
v 0.35094658 0.2237772 0.06817517
v 0.28318438 0.1844584 -0.06902239
v 0.28318438 0.1844584 0.06901172
v 0.25055814 0.16438076 0.00041294098
vt 0.03125 0.15625
vt 0.03125 0.15625
vt 0.03125 0.15625
vt 0.03125 0.15625
vt 0.03125 0.15625
vt 0.03125 0.15625
vt 0.03125 0.15625
vt 0.03125 0.15625
vt 0.03125 0.15625
vt 0.03125 0.15625
vt 0.03125 0.15625
vt 0.03125 0.15625
vt 0.03125 0.15625
vt 0.03125 0.15625
vt 0.03125 0.15625
vt 0.03125 0.15625
vt 0.03125 0.15625
vt 0.03125 0.15625
vt 0.03125 0.15625
vt 0.03125 0.15625
vt 0.03125 0.15625
vt 0.03125 0.15625
vt 0.03125 0.15625
vt 0.03125 0.15625
vt 0.03125 0.15625
vt 0.03125 0.15625
vt 0.03125 0.15625
vt 0.03125 0.15625
vt 0.03125 0.15625
vt 0.03125 0.15625
vt 0.03125 0.15625
vt 0.03125 0.15625
vt 0.03125 0.15625
vt 0.03125 0.15625
vt 0.03125 0.15625
vt 0.03125 0.15625
vt 0.03125 0.15625
vt 0.03125 0.15625
vt 0.03125 0.15625
vt 0.03125 0.15625
vt 0.03125 0.15625
vt 0.03125 0.15625
vt 0.03125 0.15625
vt 0.03125 0.15625
vt 0.03125 0.15625
vt 0.03125 0.15625
vt 0.03125 0.15625
vt 0.03125 0.15625
vt 0.03125 0.15625
vt 0.03125 0.15625
vt 0.03125 0.15625
vt 0.03125 0.15625
vt 0.03125 0.15625
vt 0.03125 0.15625
vt 0.03125 0.15625
vt 0.03125 0.15625
vt 0.03125 0.15625
vt 0.03125 0.15625
vt 0.03125 0.15625
vt 0.03125 0.15625
vt 0.03125 0.15625
vt 0.03125 0.15625
vt 0.03125 0.15625
vt 0.03125 0.15625
vt 0.03125 0.15625
vt 0.03125 0.15625
vt 0.03125 0.15625
vt 0.03125 0.15625
vt 0.03125 0.15625
vt 0.03125 0.15625
vt 0.03125 0.15625
vt 0.03125 0.15625
vn -0.9939314 0.11000165 -0
vn -0.55471706 0.07882357 0.82829696
vn -0.5229908 -0.23843879 0.81830776
vn -0.9034571 -0.42867827 -0
vn 0.36534375 0.17400229 0.91446555
vn -0.2691809 -0.5239749 0.8080791
vn 0.1749863 0.36435962 0.91467035
vn -0.55471706 0.07882357 -0.82829696
vn -0.8402531 0.5229908 -0.14302203
vn -0.45953834 0.30090714 -0.83563113
vn 0.42879617 -0.048081398 0.9021208
vn -0.45953834 0.30090714 0.83563113
vn 0.42867827 0.9034571 -0
vn 0.8915735 0.45287594 -0
vn -0.45953834 -0.8729634 -0.16358279
vn -0.5229908 -0.23843879 -0.81830776
vn -0.047097325 0.4278121 0.9026398
vn -0.07866706 0.996901 -0
vn 0.016355157 -0.55570114 0.8312212
vn -0.51435345 0.85757834 -0
vn -0.30090714 0.49126458 -0.8173824
vn 0.36534375 -0.23843879 -0.89981717
vn 0.42879617 -0.048081398 -0.9021208
vn 0.23843879 -0.36534375 -0.89981717
vn -0.2691809 -0.5239749 -0.8080791
vn 0.048032224 -0.9988458 -0
vn 0.36534375 0.17400229 -0.91446555
vn -0.23745465 0.36435962 0.9004762
vn 0.30189127 -0.49224865 0.81642693
vn -0.5229908 0.8402531 -0.14302203
vn 0.8343884 -0.5511769 -0
vn 0.5239749 -0.84123725 -0.1333048
vn 0.99383587 -0.110860966 -0
vn 0.1749863 0.36435962 -0.91467035
vn 0.016355157 -0.55570114 -0.8312212
vn 0.5239749 -0.84123725 -0.1333048
vn 0.36534375 -0.23843879 0.89981717
vn -0.047097325 0.4278121 -0.9026398
vn 0.23843879 -0.36534375 0.89981717
vn -0.30090714 0.49126458 0.8173824
vn 0.30189127 -0.49224865 -0.81642693
vn -0.23745465 0.36435962 -0.9004762
vn 0.048081398 -0.4605224 0.8863449
vn -0.047097325 0.55471706 0.830705
vn -0.047097325 0.9988843 -0.0034526698
vn 0.07956509 -0.9968296 -0
vn -0.047097325 0.55471706 -0.830705
vn 0.048081398 -0.4605224 -0.8863449
vn 0.49224865 -0.27016503 -0.82746726
vn -0.36435962 0.20572853 -0.90824986
vn 0.8710606 -0.49117568 -0
vn -0.89137435 0.45326784 -0
vn 0.49224865 -0.27016503 0.82746726
vn -0.36435962 0.20572853 0.90824986
vn -0.17400229 -0.39706993 -0.901143
vn -0.39608586 -0.90468967 -0.15701146
vn 0.23843879 0.5229908 -0.81830776
vn -0.17400229 -0.39706993 0.901143
vn 0.42867827 0.9034571 -0
vn 0.23843879 0.5229908 0.81830776
vn -0.9988436 -0.04807944 -0
vn -0.45953834 -0.016355157 0.88800734
vn -0.45953834 -0.016355157 -0.88800734
vn 0.55570114 0.015371084 0.83124
vn 0.55570114 0.015371084 -0.83124
vn 0.99986625 -0.016355122 -0
vn 0.84123725 0.5229908 -0.1371149
vn 0.49224865 0.30090714 -0.81679016
vn 0.49224865 0.30090714 0.81679016
vn -0.36435962 -0.23843879 -0.9002161
vn -0.36435962 -0.23843879 0.9002161
vn -0.8340914 -0.55162615 -0
g OnionRing_01_0
f 3/3/3 2/2/2 1/1/1
f 4/4/4 3/3/3 1/1/1
f 3/3/3 5/5/5 2/2/2
f 6/6/6 3/3/3 4/4/4
f 7/7/7 5/5/5 3/3/3
f 6/6/6 7/7/7 3/3/3
f 4/4/4 1/1/1 8/8/8
f 1/1/1 2/2/2 9/9/9
f 8/8/8 1/1/1 10/10/10
f 1/1/1 9/9/9 10/10/10
f 5/5/5 11/11/11 2/2/2
f 2/2/2 12/12/12 9/9/9
f 2/2/2 11/11/11 12/12/12
f 7/7/7 13/13/13 5/5/5
f 5/5/5 14/14/14 11/11/11
f 13/13/13 14/14/14 5/5/5
f 15/15/15 6/6/6 4/4/4
f 16/16/16 4/4/4 8/8/8
f 15/15/15 4/4/4 16/16/16
f 17/17/17 7/7/7 6/6/6
f 18/18/18 13/13/13 7/7/7
f 17/17/17 18/18/18 7/7/7
f 19/19/19 6/6/6 15/15/15
f 19/19/19 17/17/17 6/6/6
f 9/9/9 12/12/12 20/20/20
f 9/9/9 20/20/20 21/21/21
f 10/10/10 9/9/9 21/21/21
f 8/8/8 10/10/10 22/22/22
f 16/16/16 8/8/8 23/23/23
f 23/23/23 8/8/8 22/22/22
f 10/10/10 21/21/21 24/24/24
f 22/22/22 10/10/10 24/24/24
f 25/25/25 15/15/15 16/16/16
f 26/26/26 19/19/19 15/15/15
f 26/26/26 15/15/15 25/25/25
f 27/27/27 16/16/16 23/23/23
f 25/25/25 16/16/16 27/27/27
f 28/28/28 17/17/17 19/19/19
f 29/29/29 19/19/19 26/26/26
f 29/29/29 28/28/28 19/19/19
f 28/28/28 30/30/30 17/17/17
f 30/30/30 18/18/18 17/17/17
f 23/23/23 22/22/22 31/31/31
f 22/22/22 24/24/24 32/32/32
f 31/31/31 22/22/22 32/32/32
f 27/27/27 23/23/23 33/33/33
f 33/33/33 23/23/23 31/31/31
f 34/34/34 25/25/25 27/27/27
f 35/35/35 26/26/26 25/25/25
f 35/35/35 25/25/25 34/34/34
f 36/36/36 29/29/29 26/26/26
f 36/36/36 26/26/26 35/35/35
f 14/14/14 27/27/27 33/33/33
f 34/34/34 27/27/27 14/14/14
f 14/14/14 33/33/33 11/11/11
f 13/13/13 34/34/34 14/14/14
f 11/11/11 33/33/33 37/37/37
f 33/33/33 31/31/31 37/37/37
f 11/11/11 37/37/37 12/12/12
f 38/38/38 34/34/34 13/13/13
f 38/38/38 35/35/35 34/34/34
f 18/18/18 38/38/38 13/13/13
f 37/37/37 31/31/31 39/39/39
f 31/31/31 32/32/32 39/39/39
f 12/12/12 37/37/37 40/40/40
f 37/37/37 39/39/39 40/40/40
f 12/12/12 40/40/40 20/20/20
f 41/41/41 35/35/35 38/38/38
f 41/41/41 36/36/36 35/35/35
f 42/42/42 38/38/38 18/18/18
f 42/42/42 41/41/41 38/38/38
f 30/30/30 42/42/42 18/18/18
f 39/39/39 32/32/32 43/43/43
f 40/40/40 39/39/39 44/44/44
f 39/39/39 43/43/43 44/44/44
f 20/20/20 40/40/40 45/45/45
f 40/40/40 44/44/44 45/45/45
f 32/32/32 46/46/46 43/43/43
f 32/32/32 24/24/24 46/46/46
f 20/20/20 45/45/45 47/47/47
f 21/21/21 20/20/20 47/47/47
f 24/24/24 21/21/21 48/48/48
f 24/24/24 48/48/48 46/46/46
f 21/21/21 47/47/47 48/48/48
f 49/49/49 41/41/41 42/42/42
f 50/50/50 42/42/42 30/30/30
f 50/50/50 49/49/49 42/42/42
f 49/49/49 51/51/51 41/41/41
f 51/51/51 36/36/36 41/41/41
f 52/52/52 50/50/50 30/30/30
f 52/52/52 30/30/30 28/28/28
f 51/51/51 53/53/53 36/36/36
f 53/53/53 29/29/29 36/36/36
f 54/54/54 28/28/28 29/29/29
f 54/54/54 52/52/52 28/28/28
f 53/53/53 54/54/54 29/29/29
f 48/48/48 47/47/47 55/55/55
f 48/48/48 55/55/55 56/56/56
f 46/46/46 48/48/48 56/56/56
f 47/47/47 57/57/57 55/55/55
f 47/47/47 45/45/45 57/57/57
f 46/46/46 56/56/56 58/58/58
f 43/43/43 46/46/46 58/58/58
f 45/45/45 59/59/59 57/57/57
f 45/45/45 44/44/44 59/59/59
f 44/44/44 43/43/43 60/60/60
f 43/43/43 58/58/58 60/60/60
f 44/44/44 60/60/60 59/59/59
f 61/61/61 52/52/52 54/54/54
f 62/62/62 54/54/54 53/53/53
f 62/62/62 61/61/61 54/54/54
f 61/61/61 63/63/63 52/52/52
f 63/63/63 50/50/50 52/52/52
f 64/64/64 62/62/62 53/53/53
f 64/64/64 53/53/53 51/51/51
f 63/63/63 65/65/65 50/50/50
f 65/65/65 49/49/49 50/50/50
f 66/66/66 51/51/51 49/49/49
f 66/66/66 64/64/64 51/51/51
f 65/65/65 66/66/66 49/49/49
f 59/59/59 60/60/60 67/67/67
f 67/67/67 66/66/66 65/65/65
f 68/68/68 65/65/65 63/63/63
f 68/68/68 67/67/67 65/65/65
f 59/59/59 67/67/67 68/68/68
f 57/57/57 59/59/59 68/68/68
f 60/60/60 69/69/69 67/67/67
f 67/67/67 69/69/69 66/66/66
f 69/69/69 64/64/64 66/66/66
f 60/60/60 58/58/58 69/69/69
f 70/70/70 68/68/68 63/63/63
f 57/57/57 68/68/68 70/70/70
f 70/70/70 63/63/63 61/61/61
f 55/55/55 57/57/57 70/70/70
f 69/69/69 71/71/71 64/64/64
f 58/58/58 71/71/71 69/69/69
f 71/71/71 62/62/62 64/64/64
f 58/58/58 56/56/56 71/71/71
f 72/72/72 61/61/61 62/62/62
f 72/72/72 70/70/70 61/61/61
f 55/55/55 70/70/70 72/72/72
f 71/71/71 72/72/72 62/62/62
f 56/56/56 72/72/72 71/71/71
f 56/56/56 55/55/55 72/72/72
