g orange
v -0.0004209578 0.43062246 -0.000420928
v -0.1721648 0.3961053 -0.000420928
v -0.15953654 0.3961053 -0.06608769
v -0.30434018 0.30349833 -0.000420928
v -0.2807675 0.30349833 -0.11660057
v -0.39694715 0.163746 -0.000420928
v -0.12165189 0.3961053 -0.12165186
v -0.36663944 0.163746 -0.1519596
v -0.42978054 -0.000420928 -0.000420928
v -0.21510077 0.30349833 -0.21510072
v -0.39694715 -0.000420928 -0.16458783
v -0.39694715 -0.16542971 -0.000420928
v -0.06608772 0.3961053 -0.15953654
v -0.2807675 0.163746 -0.2807675
v -0.36663944 -0.16542971 -0.1519596
v -0.30434018 -0.30434018 0.0004209578
v -0.11660063 0.30349833 -0.2807675
v -0.30434018 -0.000420928 -0.30434018
v -0.2807675 -0.30434018 -0.11660057
v -0.16458786 -0.39778903 0.0004209578
v -0.0004209578 0.3961053 -0.17216477
v -0.15195966 0.163746 -0.3666394
v -0.2807675 -0.16542971 -0.2807675
v -0.15195966 -0.39778903 -0.06272015
v 0.000420928 -0.4306224 0.0004209578
v -0.0004209578 0.30349833 -0.30434018
v -0.16458786 -0.000420928 -0.39694715
v -0.21510077 -0.30434018 -0.21510072
v 0.06608769 0.3961053 -0.15953654
v 0.000420928 0.163746 -0.39694715
v -0.15195966 -0.16542971 -0.3666394
v -0.11660063 -0.39778903 -0.11660057
v 0.11660057 0.30349833 -0.2807675
v 0.12165186 0.3961053 -0.12165186
v 0.000420928 -0.000420928 -0.4297805
v -0.11660063 -0.30434018 -0.2807675
v 0.15953654 0.3961053 -0.06608769
v 0.17216477 0.3961053 -0.000420928
v 0.21510072 0.30349833 -0.21510072
v 0.1519596 0.163746 -0.3666394
v 0.2807675 0.30349833 -0.11660057
v 0.30434018 0.30349833 0.0004209578
v 0.000420928 -0.16542971 -0.39694715
v -0.06272018 -0.39778903 -0.1519596
v 0.2807675 0.163746 -0.2807675
v 0.3666394 0.163746 -0.1519596
v 0.39694715 0.163746 0.0004209578
v 0.16458783 -0.000420928 -0.39694715
v 0.000420928 -0.30434018 -0.30434018
v 0.39694715 -0.000420928 -0.16458783
v 0.4297805 -0.000420928 0.0004209578
v 0.30434018 -0.000420928 -0.30434018
v 0.1519596 -0.16542971 -0.3666394
v 0.000420928 -0.39778903 -0.16458783
v 0.3666394 -0.16542971 -0.1519596
v 0.39694715 -0.16542971 0.0004209578
v 0.2807675 -0.16542971 -0.2807675
v 0.11660057 -0.30434018 -0.2807675
v 0.2807675 -0.30434018 -0.11660057
v 0.30434018 -0.30434018 0.0004209578
v 0.21510072 -0.30434018 -0.21510072
v 0.06272015 -0.39778903 -0.1519596
v 0.11660057 -0.39778903 -0.11660057
v 0.1519596 -0.39778903 -0.06272015
v 0.16458783 -0.39778903 0.0004209578
v -0.0004209578 0.43062246 -0.000420928
v -0.15953654 0.3961053 0.06608772
v -0.1721648 0.3961053 -0.000420928
v -0.30434018 0.30349833 -0.000420928
v -0.2807675 0.30349833 0.11660063
v -0.39694715 0.163746 -0.000420928
v -0.12165189 0.3961053 0.12165189
v -0.36663944 0.163746 0.15195966
v -0.42978054 -0.000420928 -0.000420928
v -0.21510077 0.30349833 0.21510077
v -0.39694715 -0.000420928 0.16458786
v -0.39694715 -0.16542971 -0.000420928
v -0.06608772 0.3961053 0.15953654
v -0.2807675 0.163746 0.2807675
v -0.36663944 -0.16542971 0.15195966
v -0.30434018 -0.30434018 0.0004209578
v -0.11660063 0.30349833 0.2807675
v -0.30434018 -0.000420928 0.30434018
v -0.2807675 -0.30434018 0.11660063
v -0.16458786 -0.39778903 0.0004209578
v -0.0004209578 0.3961053 0.1721648
v -0.15195966 0.163746 0.36663944
v -0.2807675 -0.16542971 0.2807675
v -0.15195966 -0.39778903 0.06272018
v 0.000420928 -0.4306224 0.0004209578
v -0.0004209578 0.30349833 0.30434018
v -0.16458786 -0.000420928 0.39694715
v -0.21510077 -0.30434018 0.21510077
v 0.06608769 0.3961053 0.15953654
v -0.0004209578 0.163746 0.39694715
v -0.15195966 -0.16542971 0.36663944
v -0.11660063 -0.39778903 0.11660063
v 0.11660057 0.30349833 0.2807675
v 0.12165186 0.3961053 0.12165189
v -0.0004209578 -0.000420928 0.42978054
v -0.11660063 -0.30434018 0.2807675
v 0.15953654 0.3961053 0.06608772
v 0.17216477 0.3961053 -0.000420928
v 0.21510072 0.30349833 0.21510077
v 0.1519596 0.163746 0.36663944
v 0.2807675 0.30349833 0.11660063
v 0.30434018 0.30349833 0.0004209578
v -0.0004209578 -0.16542971 0.39694715
v -0.06272018 -0.39778903 0.15195966
v 0.2807675 0.163746 0.2807675
v 0.3666394 0.163746 0.15195966
v 0.39694715 0.163746 0.0004209578
v 0.16458783 -0.000420928 0.39694715
v -0.0004209578 -0.30434018 0.30434018
v 0.39694715 -0.000420928 0.16458786
v 0.4297805 -0.000420928 0.0004209578
v 0.30434018 -0.000420928 0.30434018
v 0.1519596 -0.16542971 0.36663944
v 0.000420928 -0.39778903 0.16458786
v 0.3666394 -0.16542971 0.15195966
v 0.39694715 -0.16542971 0.0004209578
v 0.2807675 -0.16542971 0.2807675
v 0.11660057 -0.30434018 0.2807675
v 0.2807675 -0.30434018 0.11660063
v 0.30434018 -0.30434018 0.0004209578
v 0.21510072 -0.30434018 0.21510077
v 0.06272015 -0.39778903 0.15195966
v 0.11660057 -0.39778903 0.11660063
v 0.11660057 -0.39778903 0.11660063
v 0.1519596 -0.39778903 0.06272018
v 0.16458783 -0.39778903 0.0004209578
vt 0.8115058 0.6207148
vt 0.83589256 0.61641127
vt 0.831589 0.6092386
vt 0.8531068 0.60206604
vt 0.84163064 0.59489346
vt 0.86458296 0.5834173
vt 0.82585096 0.6049351
vt 0.8488033 0.5791138
vt 0.87032104 0.56189954
vt 0.831589 0.5891554
vt 0.8516723 0.56189954
vt 0.86458296 0.5418163
vt 0.8186784 0.60206604
vt 0.83589256 0.5762447
vt 0.8488033 0.54611987
vt 0.8531068 0.52316755
vt 0.8215474 0.5877209
vt 0.83589256 0.56189954
vt 0.84306514 0.53177464
vt 0.83589256 0.5102569
vt 0.81294024 0.60063154
vt 0.82298195 0.5748102
vt 0.83589256 0.5489889
vt 0.831589 0.5174295
vt 0.81294024 0.5045188
vt 0.81294024 0.58628637
vt 0.8244164 0.56189954
vt 0.831589 0.5360782
vt 0.80576766 0.60063154
vt 0.81294024 0.5733757
vt 0.82298195 0.5504234
vt 0.82585096 0.52173305
vt 0.80289865 0.58628637
vt 0.80002964 0.6035006
vt 0.81294024 0.56189954
vt 0.8215474 0.5375127
vt 0.79285705 0.6078041
vt 0.7885535 0.61497676
vt 0.79285705 0.5891554
vt 0.80146414 0.5748102
vt 0.7828154 0.59345895
vt 0.77133924 0.60206604
vt 0.81294024 0.5504234
vt 0.8186784 0.52316755
vt 0.789988 0.5762447
vt 0.7756428 0.5776793
vt 0.75986314 0.5834173
vt 0.80146414 0.56189954
vt 0.81294024 0.5389472
vt 0.7742083 0.56189954
vt 0.754125 0.56189954
vt 0.7885535 0.56189954
vt 0.80146414 0.5504234
vt 0.81294024 0.52460206
vt 0.7756428 0.54611987
vt 0.75986314 0.5403818
vt 0.789988 0.5489889
vt 0.80289865 0.5375127
vt 0.7828154 0.53034014
vt 0.77133924 0.52316755
vt 0.79285705 0.5360782
vt 0.80576766 0.52316755
vt 0.80002964 0.5202985
vt 0.79429156 0.51599497
vt 0.789988 0.5088224
vt 0.8115058 0.6207148
vt 0.831589 0.6092386
vt 0.83589256 0.61641127
vt 0.8531068 0.60206604
vt 0.84163064 0.59489346
vt 0.86458296 0.5834173
vt 0.82585096 0.6049351
vt 0.8488033 0.5791138
vt 0.87032104 0.56189954
vt 0.831589 0.5891554
vt 0.8516723 0.56189954
vt 0.86458296 0.5418163
vt 0.8186784 0.60206604
vt 0.83589256 0.5762447
vt 0.8488033 0.54611987
vt 0.8531068 0.52316755
vt 0.8215474 0.5877209
vt 0.83589256 0.56189954
vt 0.84306514 0.53177464
vt 0.83589256 0.5102569
vt 0.81294024 0.60063154
vt 0.82298195 0.5748102
vt 0.83589256 0.5489889
vt 0.831589 0.5174295
vt 0.81294024 0.5045188
vt 0.81294024 0.58628637
vt 0.8244164 0.56189954
vt 0.831589 0.5360782
vt 0.80576766 0.60063154
vt 0.81294024 0.5733757
vt 0.82298195 0.5504234
vt 0.82585096 0.52173305
vt 0.80289865 0.58628637
vt 0.80002964 0.6035006
vt 0.81294024 0.56189954
vt 0.8215474 0.5375127
vt 0.79285705 0.6078041
vt 0.7885535 0.61497676
vt 0.79285705 0.5891554
vt 0.80146414 0.5748102
vt 0.7828154 0.59345895
vt 0.77133924 0.60206604
vt 0.81294024 0.5504234
vt 0.8186784 0.52316755
vt 0.789988 0.5762447
vt 0.7756428 0.5776793
vt 0.75986314 0.5834173
vt 0.80146414 0.56189954
vt 0.81294024 0.5389472
vt 0.7742083 0.56189954
vt 0.754125 0.56189954
vt 0.7885535 0.56189954
vt 0.80146414 0.5504234
vt 0.81294024 0.52460206
vt 0.7756428 0.54611987
vt 0.75986314 0.5403818
vt 0.789988 0.5489889
vt 0.80289865 0.5375127
vt 0.7828154 0.53034014
vt 0.77133924 0.52316755
vt 0.79285705 0.5360782
vt 0.80576766 0.52316755
vt 0.80002964 0.5202985
vt 0.80002964 0.5202985
vt 0.79429156 0.51599497
vt 0.789988 0.5088224
vn -0.015871048 0.999874 -0.00034526698
vn -0.42808634 0.9037378 -0
vn -0.39677536 0.90464795 -0.15550359
vn -0.7141957 0.68245375 -0.15550359
vn -0.68245375 0.68245375 -0.26175132
vn -0.931708 0.36320823 -0
vn -0.30154932 0.90464795 -0.3011313
vn -0.8411639 0.3650334 -0.39899117
vn -0.999874 0.015871048 -0.00034391563
vn -0.5237435 0.68245375 -0.5098525
vn -0.9363899 0.015871048 -0.35060233
vn -0.931708 -0.36320817 -0
vn -0.17458117 0.90464795 -0.3887589
vn -0.65071166 0.3650334 -0.6658265
vn -0.8411639 -0.36503333 -0.39899123
vn -0.7141957 -0.68245363 -0.15550417
vn -0.26980734 0.68245375 -0.6793091
vn -0.7141957 0.015871048 -0.6997661
vn -0.65071166 -0.68245363 -0.33291346
vn -0.39677536 -0.9046479 -0.15550397
vn -0.015871048 0.90464795 -0.42586404
vn -0.3650334 0.3650334 -0.85644686
vn -0.65071166 -0.36503333 -0.66582656
vn -0.3650334 -0.9046479 -0.21991542
vn -0.015871048 -0.999874 -0.00034526698
vn -0.015871048 0.68245375 -0.73075646
vn -0.39677536 0.015871048 -0.9177785
vn -0.5237435 -0.68245363 -0.5098527
vn 0.17458117 0.90464795 -0.3887589
vn -0.015871048 0.3650334 -0.93085915
vn -0.3650334 -0.36503333 -0.85644686
vn -0.26980734 -0.9046479 -0.32987303
vn 0.26980728 0.68245375 -0.6793091
vn 0.30154932 0.90464795 -0.3011313
vn -0.015871048 0.015871048 -0.99974805
vn -0.26980734 -0.68245363 -0.67930925
vn 0.39677536 0.90464795 -0.15550359
vn 0.42808628 0.9037378 -0
vn 0.5237435 0.68245375 -0.5098525
vn 0.36503333 0.3650334 -0.8564469
vn 0.68245363 0.68245375 -0.26175165
vn 0.7141957 0.68245375 -0.15550359
vn -0.015871048 -0.36503333 -0.93085915
vn -0.1428392 -0.9046479 -0.4015086
vn 0.65071166 0.3650334 -0.6658265
vn 0.8411638 0.3650334 -0.39899132
vn 0.931708 0.36320823 -0
vn 0.39677536 0.015871048 -0.9177785
vn -0.015871048 -0.68245363 -0.7307566
vn 0.9363899 0.015871048 -0.35060233
vn 0.999874 0.015871048 -0.00034391563
vn 0.7141957 0.015871048 -0.6997661
vn 0.36503333 -0.36503333 -0.8564469
vn -0.015871048 -0.9046479 -0.4258642
vn 0.8411638 -0.36503333 -0.39899138
vn 0.931708 -0.36320817 -0
vn 0.65071166 -0.36503333 -0.66582656
vn 0.26980728 -0.68245363 -0.67930925
vn 0.65071166 -0.68245363 -0.33291346
vn 0.7141957 -0.68245363 -0.15550417
vn 0.5237435 -0.68245363 -0.5098527
vn 0.14283913 -0.9046479 -0.4015086
vn 0.26980728 -0.9046479 -0.32987303
vn 0.36503333 -0.9046479 -0.21991555
vn 0.39677536 -0.9046479 -0.15550397
vn -0.015871048 0.999874 -0.00034526698
vn -0.39677536 0.90464795 0.15550359
vn -0.42808634 0.9037378 -0
vn -0.7141957 0.68245375 -0.15550359
vn -0.68245375 0.68245375 0.26175132
vn -0.931708 0.36320823 -0
vn -0.30154932 0.90464795 0.3011313
vn -0.8411639 0.3650334 0.39899117
vn -0.999874 0.015871048 -0.00034391563
vn -0.5237435 0.68245375 0.5098525
vn -0.9363899 0.015871048 0.35060233
vn -0.931708 -0.36320817 -0
vn -0.17458117 0.90464795 0.3887589
vn -0.65071166 0.3650334 0.6658265
vn -0.8411639 -0.36503333 0.39899123
vn -0.7141957 -0.68245363 -0.15550417
vn -0.26980734 0.68245375 0.6793091
vn -0.7141957 0.015871048 0.6997661
vn -0.65071166 -0.68245363 0.33291346
vn -0.39677536 -0.9046479 -0.15550397
vn -0.015871048 0.90464795 0.42586404
vn -0.3650334 0.3650334 0.85644686
vn -0.65071166 -0.36503333 0.66582656
vn -0.3650334 -0.9046479 0.21991542
vn -0.015871048 -0.999874 -0.00034526698
vn -0.015871048 0.68245375 0.73075646
vn -0.39677536 0.015871048 0.9177785
vn -0.5237435 -0.68245363 0.5098527
vn 0.17458117 0.90464795 0.3887589
vn -0.015871048 0.3650334 0.93085915
vn -0.3650334 -0.36503333 0.85644686
vn -0.26980734 -0.9046479 0.32987303
vn 0.26980728 0.68245375 0.6793091
vn 0.30154932 0.90464795 0.3011313
vn -0.015871048 0.015871048 0.99974805
vn -0.26980734 -0.68245363 0.67930925
vn 0.39677536 0.90464795 0.15550359
vn 0.42808628 0.9037378 -0
vn 0.5237435 0.68245375 0.5098525
vn 0.36503333 0.3650334 0.8564469
vn 0.68245363 0.68245375 0.26175165
vn 0.7141957 0.68245375 -0.15550359
vn -0.015871048 -0.36503333 0.93085915
vn -0.1428392 -0.9046479 0.4015086
vn 0.65071166 0.3650334 0.6658265
vn 0.8411638 0.3650334 0.39899132
vn 0.931708 0.36320823 -0
vn 0.39677536 0.015871048 0.9177785
vn -0.015871048 -0.68245363 0.7307566
vn 0.9363899 0.015871048 0.35060233
vn 0.999874 0.015871048 -0.00034391563
vn 0.7141957 0.015871048 0.6997661
vn 0.36503333 -0.36503333 0.8564469
vn -0.015871048 -0.9046479 0.4258642
vn 0.8411638 -0.36503333 0.39899138
vn 0.931708 -0.36320817 -0
vn 0.65071166 -0.36503333 0.66582656
vn 0.26980728 -0.68245363 0.67930925
vn 0.65071166 -0.68245363 0.33291346
vn 0.7141957 -0.68245363 -0.15550417
vn 0.5237435 -0.68245363 0.5098527
vn 0.14283913 -0.9046479 0.4015086
vn 0.26980728 -0.9046479 0.32987303
vn 0.26980728 -0.9046479 0.32987303
vn 0.36503333 -0.9046479 0.21991555
vn 0.39677536 -0.9046479 -0.15550397
g orange_0
f 3/3/3 2/2/2 1/1/1
f 2/2/2 3/3/3 4/4/4
f 5/5/5 4/4/4 3/3/3
f 4/4/4 5/5/5 6/6/6
f 7/7/7 3/3/3 1/1/1
f 3/3/3 7/7/7 5/5/5
f 8/8/8 6/6/6 5/5/5
f 6/6/6 8/8/8 9/9/9
f 10/10/10 5/5/5 7/7/7
f 5/5/5 10/10/10 8/8/8
f 11/11/11 9/9/9 8/8/8
f 9/9/9 11/11/11 12/12/12
f 13/13/13 7/7/7 1/1/1
f 7/7/7 13/13/13 10/10/10
f 14/14/14 8/8/8 10/10/10
f 8/8/8 14/14/14 11/11/11
f 15/15/15 12/12/12 11/11/11
f 12/12/12 15/15/15 16/16/16
f 17/17/17 10/10/10 13/13/13
f 10/10/10 17/17/17 14/14/14
f 18/18/18 11/11/11 14/14/14
f 11/11/11 18/18/18 15/15/15
f 19/19/19 16/16/16 15/15/15
f 16/16/16 19/19/19 20/20/20
f 21/21/21 13/13/13 1/1/1
f 13/13/13 21/21/21 17/17/17
f 22/22/22 14/14/14 17/17/17
f 14/14/14 22/22/22 18/18/18
f 23/23/23 15/15/15 18/18/18
f 15/15/15 23/23/23 19/19/19
f 24/24/24 20/20/20 19/19/19
f 20/20/20 24/24/24 25/25/25
f 26/26/26 17/17/17 21/21/21
f 17/17/17 26/26/26 22/22/22
f 27/27/27 18/18/18 22/22/22
f 18/18/18 27/27/27 23/23/23
f 28/28/28 19/19/19 23/23/23
f 19/19/19 28/28/28 24/24/24
f 29/29/29 21/21/21 1/1/1
f 21/21/21 29/29/29 26/26/26
f 30/30/30 22/22/22 26/26/26
f 22/22/22 30/30/30 27/27/27
f 31/31/31 23/23/23 27/27/27
f 23/23/23 31/31/31 28/28/28
f 32/32/32 24/24/24 28/28/28
f 24/24/24 32/32/32 25/25/25
f 33/33/33 26/26/26 29/29/29
f 26/26/26 33/33/33 30/30/30
f 34/34/34 29/29/29 1/1/1
f 29/29/29 34/34/34 33/33/33
f 35/35/35 27/27/27 30/30/30
f 27/27/27 35/35/35 31/31/31
f 36/36/36 28/28/28 31/31/31
f 28/28/28 36/36/36 32/32/32
f 37/37/37 34/34/34 1/1/1
f 38/38/38 37/37/37 1/1/1
f 39/39/39 33/33/33 34/34/34
f 34/34/34 37/37/37 39/39/39
f 40/40/40 30/30/30 33/33/33
f 30/30/30 40/40/40 35/35/35
f 33/33/33 39/39/39 40/40/40
f 37/37/37 38/38/38 41/41/41
f 41/41/41 39/39/39 37/37/37
f 42/42/42 41/41/41 38/38/38
f 43/43/43 31/31/31 35/35/35
f 31/31/31 43/43/43 36/36/36
f 44/44/44 32/32/32 36/36/36
f 32/32/32 44/44/44 25/25/25
f 45/45/45 40/40/40 39/39/39
f 39/39/39 41/41/41 45/45/45
f 41/41/41 42/42/42 46/46/46
f 46/46/46 45/45/45 41/41/41
f 47/47/47 46/46/46 42/42/42
f 48/48/48 35/35/35 40/40/40
f 40/40/40 45/45/45 48/48/48
f 35/35/35 48/48/48 43/43/43
f 49/49/49 36/36/36 43/43/43
f 36/36/36 49/49/49 44/44/44
f 46/46/46 47/47/47 50/50/50
f 51/51/51 50/50/50 47/47/47
f 45/45/45 46/46/46 52/52/52
f 52/52/52 48/48/48 45/45/45
f 50/50/50 52/52/52 46/46/46
f 53/53/53 43/43/43 48/48/48
f 48/48/48 52/52/52 53/53/53
f 43/43/43 53/53/53 49/49/49
f 54/54/54 44/44/44 49/49/49
f 44/44/44 54/54/54 25/25/25
f 50/50/50 51/51/51 55/55/55
f 56/56/56 55/55/55 51/51/51
f 52/52/52 50/50/50 57/57/57
f 57/57/57 53/53/53 52/52/52
f 55/55/55 57/57/57 50/50/50
f 58/58/58 49/49/49 53/53/53
f 49/49/49 58/58/58 54/54/54
f 53/53/53 57/57/57 58/58/58
f 55/55/55 56/56/56 59/59/59
f 60/60/60 59/59/59 56/56/56
f 57/57/57 55/55/55 61/61/61
f 61/61/61 58/58/58 57/57/57
f 59/59/59 61/61/61 55/55/55
f 62/62/62 54/54/54 58/58/58
f 58/58/58 61/61/61 62/62/62
f 54/54/54 62/62/62 25/25/25
f 63/63/63 62/62/62 61/61/61
f 61/61/61 59/59/59 63/63/63
f 62/62/62 63/63/63 25/25/25
f 59/59/59 60/60/60 64/64/64
f 64/64/64 63/63/63 59/59/59
f 63/63/63 64/64/64 25/25/25
f 65/65/65 64/64/64 60/60/60
f 64/64/64 65/65/65 25/25/25
f 68/68/68 67/67/67 66/66/66
f 68/68/68 69/69/69 67/67/67
f 70/70/70 67/67/67 69/69/69
f 69/69/69 71/71/71 70/70/70
f 67/67/67 72/72/72 66/66/66
f 67/67/67 70/70/70 72/72/72
f 73/73/73 70/70/70 71/71/71
f 71/71/71 74/74/74 73/73/73
f 75/75/75 72/72/72 70/70/70
f 70/70/70 73/73/73 75/75/75
f 76/76/76 73/73/73 74/74/74
f 74/74/74 77/77/77 76/76/76
f 72/72/72 78/78/78 66/66/66
f 72/72/72 75/75/75 78/78/78
f 79/79/79 75/75/75 73/73/73
f 73/73/73 76/76/76 79/79/79
f 80/80/80 76/76/76 77/77/77
f 77/77/77 81/81/81 80/80/80
f 82/82/82 78/78/78 75/75/75
f 75/75/75 79/79/79 82/82/82
f 83/83/83 79/79/79 76/76/76
f 76/76/76 80/80/80 83/83/83
f 84/84/84 80/80/80 81/81/81
f 81/81/81 85/85/85 84/84/84
f 78/78/78 86/86/86 66/66/66
f 78/78/78 82/82/82 86/86/86
f 87/87/87 82/82/82 79/79/79
f 79/79/79 83/83/83 87/87/87
f 88/88/88 83/83/83 80/80/80
f 80/80/80 84/84/84 88/88/88
f 89/89/89 84/84/84 85/85/85
f 89/89/89 85/85/85 90/90/90
f 91/91/91 86/86/86 82/82/82
f 82/82/82 87/87/87 91/91/91
f 92/92/92 87/87/87 83/83/83
f 83/83/83 88/88/88 92/92/92
f 93/93/93 88/88/88 84/84/84
f 84/84/84 89/89/89 93/93/93
f 86/86/86 94/94/94 66/66/66
f 86/86/86 91/91/91 94/94/94
f 95/95/95 91/91/91 87/87/87
f 87/87/87 92/92/92 95/95/95
f 96/96/96 92/92/92 88/88/88
f 88/88/88 93/93/93 96/96/96
f 97/97/97 93/93/93 89/89/89
f 97/97/97 89/89/89 90/90/90
f 98/98/98 94/94/94 91/91/91
f 91/91/91 95/95/95 98/98/98
f 94/94/94 99/99/99 66/66/66
f 94/94/94 98/98/98 99/99/99
f 100/100/100 95/95/95 92/92/92
f 92/92/92 96/96/96 100/100/100
f 101/101/101 96/96/96 93/93/93
f 93/93/93 97/97/97 101/101/101
f 99/99/99 102/102/102 66/66/66
f 102/102/102 103/103/103 66/66/66
f 104/104/104 99/99/99 98/98/98
f 99/99/99 104/104/104 102/102/102
f 105/105/105 98/98/98 95/95/95
f 95/95/95 100/100/100 105/105/105
f 98/98/98 105/105/105 104/104/104
f 102/102/102 106/106/106 103/103/103
f 106/106/106 102/102/102 104/104/104
f 107/107/107 103/103/103 106/106/106
f 108/108/108 100/100/100 96/96/96
f 96/96/96 101/101/101 108/108/108
f 109/109/109 101/101/101 97/97/97
f 109/109/109 97/97/97 90/90/90
f 110/110/110 104/104/104 105/105/105
f 104/104/104 110/110/110 106/106/106
f 106/106/106 111/111/111 107/107/107
f 111/111/111 106/106/106 110/110/110
f 112/112/112 107/107/107 111/111/111
f 113/113/113 105/105/105 100/100/100
f 105/105/105 113/113/113 110/110/110
f 100/100/100 108/108/108 113/113/113
f 114/114/114 108/108/108 101/101/101
f 101/101/101 109/109/109 114/114/114
f 111/111/111 115/115/115 112/112/112
f 116/116/116 112/112/112 115/115/115
f 110/110/110 117/117/117 111/111/111
f 117/117/117 110/110/110 113/113/113
f 115/115/115 111/111/111 117/117/117
f 118/118/118 113/113/113 108/108/108
f 113/113/113 118/118/118 117/117/117
f 108/108/108 114/114/114 118/118/118
f 119/119/119 114/114/114 109/109/109
f 119/119/119 109/109/109 90/90/90
f 115/115/115 120/120/120 116/116/116
f 121/121/121 116/116/116 120/120/120
f 117/117/117 122/122/122 115/115/115
f 122/122/122 117/117/117 118/118/118
f 120/120/120 115/115/115 122/122/122
f 123/123/123 118/118/118 114/114/114
f 114/114/114 119/119/119 123/123/123
f 118/118/118 123/123/123 122/122/122
f 120/120/120 124/124/124 121/121/121
f 125/125/125 121/121/121 124/124/124
f 122/122/122 126/126/126 120/120/120
f 126/126/126 122/122/122 123/123/123
f 124/124/124 120/120/120 126/126/126
f 127/127/127 123/123/123 119/119/119
f 123/123/123 127/127/127 126/126/126
f 127/127/127 119/119/119 90/90/90
f 128/128/128 126/126/126 127/127/127
f 126/126/126 128/128/128 124/124/124
f 129/129/129 127/127/127 90/90/90
f 130/130/130 124/124/124 128/128/128
f 124/124/124 130/130/130 125/125/125
f 130/130/130 129/129/129 90/90/90
f 131/131/131 125/125/125 130/130/130
f 131/131/131 130/130/130 90/90/90
