g Pan_A
v -0.14265472 -0.0004943609 -0.027236462
v -0.26220775 0.04197848 -0.025663435
v -0.26220775 -0.0004943609 -0.03510183
v -0.148947 0.04197848 -0.019371152
v -0.26220775 0.057709098 -0.002067387
v -0.1631046 0.057709098 -0.002067387
v -0.26220775 0.04197848 0.019955516
v -0.17883527 0.04197848 0.015236318
v -0.26220775 -0.0004943609 0.029393911
v -0.18355447 -0.0004943609 0.023101628
v -0.26220775 -0.041394055 0.019955516
v -0.17883527 -0.041394055 0.015236318
v -0.26220775 -0.05869782 -0.002067387
v -0.1631046 -0.05869782 -0.002067387
v -0.26220775 -0.041394055 -0.025663435
v -0.148947 -0.041394055 -0.019371152
v -0.26220775 -0.0004943609 -0.03510183
v -0.14265472 -0.0004943609 -0.027236462
v -0.26220775 0.04197848 -0.025663435
v -0.27007318 -0.0004943609 -0.04768634
v -0.26220775 -0.0004943609 -0.03510183
v -0.27007318 0.057709098 -0.033528745
v -0.26220775 0.057709098 -0.002067387
v -0.41794145 -0.0004943609 -0.0052135587
v -0.27007318 0.081305146 -0.002067387
v -0.26220775 0.04197848 0.019955516
v -0.41794145 0.06714755 0.0073710084
v -0.6161479 -0.0004943609 0.013663232
v -0.27007318 0.057709098 0.029393911
v -0.26220775 -0.0004943609 0.029393911
v -0.6161479 0.070293665 0.027820885
v -0.77188146 -0.0004943609 0.004224837
v -0.41794145 0.09388965 0.040405393
v -0.27007318 -0.0004943609 0.043551505
v -0.26220775 -0.041394055 0.019955516
v -0.77188146 0.057709098 0.01838243
v -0.82536566 -0.0004943609 0.01051712
v -0.41794145 0.06714755 0.07186675
v -0.6161479 0.09860885 0.059282184
v -0.27007318 -0.057124734 0.029393911
v -0.26220775 -0.05869782 -0.002067387
v -0.82536566 0.035686195 0.01838243
v -0.8410964 -0.0004943609 0.03411311
v -0.77345455 0.081305146 0.04984379
v -0.41794145 -0.0004943609 0.08445126
v -0.6161479 0.070293665 0.09074354
v -0.27007318 -0.08229381 -0.002067387
v -0.26220775 -0.041394055 -0.025663435
v -0.82693875 0.051416874 0.038832307
v -0.7750275 0.057709098 0.081305146
v -0.41794145 -0.06656313 0.07186675
v -0.6161479 -0.0004943609 0.104901135
v -0.27007318 -0.057124734 -0.033528745
v -0.26220775 -0.0004943609 -0.03510183
v -0.27007318 -0.0004943609 -0.04768634
v -0.82693875 0.035686195 0.059282184
v -0.7766006 -0.0004943609 0.09546274
v -0.41794145 -0.094878376 0.040405393
v -0.41794145 -0.06656313 0.0073710084
v -0.41794145 -0.0004943609 -0.0052135587
v -0.6161479 -0.0697093 0.09074354
v -0.82693875 -0.0004943609 0.06714755
v -0.6161479 -0.0697093 0.027820885
v -0.6161479 -0.0004943609 0.013663232
v -0.6161479 -0.09959757 0.059282184
v -0.7750275 -0.057124734 0.081305146
v -0.77188146 -0.057124734 0.01838243
v -0.77188146 -0.0004943609 0.004224837
v -0.77345455 -0.08229381 0.04984379
v -0.82693875 -0.036674857 0.059282184
v -0.82693875 -0.05083251 0.038832307
v -0.82536566 -0.036674857 0.01838243
v -0.82536566 -0.0004943609 0.01051712
v -0.18670058 -0.0004943609 0.04512459
v -0.21344274 -0.0004943609 0.04512459
v -0.120631814 0.28894997 0.04512459
v -0.09860885 0.27321923 0.04512459
v 0.12476665 0.4667065 0.04512459
v -0.09860885 -0.2726349 0.04512459
v -0.120631814 -0.28836557 0.04512459
v 0.13420504 0.44153738 0.04512459
v 0.4283685 0.4667065 0.04512459
v 0.13420504 -0.44095305 0.04512459
v 0.12476665 -0.46769518 0.04512459
v 0.42050317 0.44153738 0.04512459
v 0.6737669 0.28894997 0.04512459
v 0.42050317 -0.44095305 0.04512459
v 0.4283685 -0.46769518 0.04512459
v 0.651744 0.27321923 0.04512459
v 0.7681509 -0.0004943609 0.04512459
v 0.651744 -0.2726349 0.04512459
v 0.6737669 -0.28836557 0.04512459
v 0.73983574 -0.0004943609 0.04512459
v 0.16252023 -0.35286132 -0.0744285
v 0.39218798 -0.35286132 -0.0744285
v 0.2773541 -0.0004943609 -0.0744285
v -0.023101628 -0.21757758 -0.0744285
v 0.5762368 -0.21757758 -0.0744285
v 0.6470248 -0.0004943609 -0.0744285
v -0.09388965 -0.0004943609 -0.0744285
v 0.5762368 0.21816194 -0.0744285
v -0.023101628 0.21816194 -0.0744285
v 0.39218798 0.35187256 -0.0744285
v 0.16252023 0.35187256 -0.0744285
v -0.08445126 -0.26319647 -0.038247943
v -0.16939688 -0.0004943609 -0.038247943
v -0.21344274 -0.0004943609 0.04512459
v -0.120631814 -0.28836557 0.04512459
v -0.120631814 0.28894997 0.04512459
v 0.13892424 -0.42522237 -0.038247943
v 0.12476665 -0.46769518 0.04512459
v -0.08445126 0.26220775 -0.038247943
v 0.12476665 0.4667065 0.04512459
v 0.41421092 -0.42522237 -0.038247943
v 0.4283685 -0.46769518 0.04512459
v 0.13892424 0.42423368 -0.038247943
v 0.4283685 0.4667065 0.04512459
v 0.63758636 -0.26319647 -0.038247943
v 0.6737669 -0.28836557 0.04512459
v 0.41421092 0.42423368 -0.038247943
v 0.6737669 0.28894997 0.04512459
v 0.72410506 -0.0004943609 -0.038247943
v 0.7681509 -0.0004943609 0.04512459
v 0.63758636 0.26220775 -0.038247943
v 0.16723943 -0.33713064 -0.10903597
v 0.3858957 -0.33713064 -0.10903597
v 0.2773541 -0.0004943609 -0.10903597
v 0.5636523 -0.20813918 -0.10903597
v -0.01051712 -0.20813918 -0.10903597
v 0.63129413 -0.0004943609 -0.10903597
v -0.078158975 -0.0004943609 -0.10903597
v 0.5636523 0.20872355 -0.10903597
v -0.01051712 0.20872355 -0.10903597
v 0.3858957 0.33771503 -0.10903597
v 0.16723943 0.33771503 -0.10903597
vt 0.5823292 0.060773164
vt 0.6461166 0.07202977
vt 0.6461166 0.04951656
vt 0.5823292 0.08703858
vt 0.6461166 0.09079078
vt 0.5823292 0.102047384
vt 0.6461166 0.10955179
vt 0.5823292 0.11705619
vt 0.6461166 0.1395694
vt 0.5823292 0.1395694
vt 0.6461166 0.16583481
vt 0.5823292 0.16208261
vt 0.6461166 0.18834803
vt 0.5823292 0.18084362
vt 0.6461166 0.20710903
vt 0.5823292 0.19210023
vt 0.6461166 0.22962224
vt 0.5823292 0.21461344
vt 0.6461166 0.07202977
vt 0.653621 0.042012155
vt 0.6461166 0.04951656
vt 0.653621 0.07202977
vt 0.6461166 0.09079078
vt 0.72866505 0.027003348
vt 0.653621 0.08703858
vt 0.6461166 0.10955179
vt 0.72866505 0.064525366
vt 0.82997453 0.03075555
vt 0.653621 0.105799586
vt 0.6461166 0.1395694
vt 0.82997453 0.07202977
vt 0.950045 0.07202977
vt 0.72866505 0.08703858
vt 0.653621 0.1395694
vt 0.6461166 0.16583481
vt 0.91627514 0.09079078
vt 0.9575494 0.11705619
vt 0.72866505 0.105799586
vt 0.82997453 0.09079078
vt 0.653621 0.17333922
vt 0.6461166 0.18834803
vt 0.93128395 0.11330399
vt 0.94629276 0.1395694
vt 0.90126634 0.105799586
vt 0.72866505 0.1395694
vt 0.82997453 0.10955179
vt 0.653621 0.18834803
vt 0.6461166 0.20710903
vt 0.92377955 0.11705619
vt 0.89751416 0.11705619
vt 0.72866505 0.16958702
vt 0.82997453 0.1395694
vt 0.653621 0.20335683
vt 0.6461166 0.22962224
vt 0.653621 0.23337445
vt 0.9200274 0.124560595
vt 0.89751416 0.1395694
vt 0.72866505 0.18834803
vt 0.72866505 0.21086124
vt 0.72866505 0.24838325
vt 0.82997453 0.16583481
vt 0.9200274 0.1395694
vt 0.82997453 0.20710903
vt 0.82997453 0.24463105
vt 0.82997453 0.18459582
vt 0.89751416 0.15833041
vt 0.91627514 0.18459582
vt 0.950045 0.20710903
vt 0.90126634 0.17333922
vt 0.9200274 0.150826
vt 0.92377955 0.16208261
vt 0.93128395 0.16583481
vt 0.9575494 0.16208261
vt 0.7099041 0.89376193
vt 0.7099041 0.92377955
vt 0.86749655 0.87500095
vt 0.85248774 0.8487355
vt 0.96880597 0.7399217
vt 0.5673204 0.8487355
vt 0.54855937 0.8712487
vt 0.93878835 0.72866505
vt 0.96880597 0.5710726
vt 0.48101977 0.72866505
vt 0.45100215 0.73616946
vt 0.93878835 0.5823292
vt 0.8712487 0.43599334
vt 0.48101977 0.578577
vt 0.45100215 0.5673204
vt 0.85248774 0.45850655
vt 0.71365625 0.38346252
vt 0.5710726 0.45850655
vt 0.5523116 0.43224114
vt 0.7099041 0.41348013
vt 0.5448072 0.70615184
vt 0.5448072 0.6010902
vt 0.7099041 0.653621
vt 0.6085946 0.7924525
vt 0.6085946 0.51103735
vt 0.7099041 0.48101977
vt 0.7099041 0.8262223
vt 0.8112135 0.5147896
vt 0.8112135 0.7962047
vt 0.87500095 0.6010902
vt 0.87500095 0.7099041
vt 0.1470738 0.124560595
vt 0.27840087 0.083286375
vt 0.27840087 0.03075555
vt 0.11705619 0.07953417
vt 0.43974555 0.08703858
vt 0.064525366 0.23337445
vt 0.015746742 0.21461344
vt 0.40597573 0.1283128
vt 0.5373028 0.22587004
vt 0.060773164 0.3722059
vt 0.011994541 0.38721472
vt 0.48477197 0.24087885
vt 0.53355056 0.39471912
vt 0.1395694 0.48101977
vt 0.10955179 0.52604616
vt 0.48477197 0.3759581
vt 0.43224114 0.5297984
vt 0.27089646 0.52604616
vt 0.27089646 0.578577
vt 0.40222353 0.48852417
vt 0.11330399 0.24838325
vt 0.10955179 0.3571971
vt 0.27464867 0.30466628
vt 0.16958702 0.44349775
vt 0.17709142 0.16583481
vt 0.27089646 0.47726756
vt 0.27840087 0.132065
vt 0.3722059 0.44724995
vt 0.3759581 0.16958702
vt 0.43599334 0.3609493
vt 0.43974555 0.25588766
vn 0.047606647 0.015868843 -0.9987401
vn 0.047606647 0.5236731 -0.8505881
vn 0.047606647 0.015868843 -0.9987401
vn 0.047606647 0.42845982 -0.9023058
vn 0.015868902 0.9997397 0.016392002
vn 0.015868902 0.9680019 -0.25044057
vn 0.047606647 0.49193543 0.86932915
vn 0.047606647 0.5554109 0.8302122
vn 0.07934445 0.015868843 0.9967209
vn 0.07934445 0.015868843 0.9967209
vn 0.047606647 -0.49193543 0.86932915
vn 0.047606647 -0.555411 0.8302122
vn 0.015868902 -0.9997397 0.016392002
vn 0.015868902 -0.96800196 -0.25044033
vn 0.047606647 -0.5236732 -0.850588
vn 0.047606647 -0.42845988 -0.9023058
vn 0.047606647 0.015868843 -0.9987401
vn 0.047606647 0.015868843 -0.9987401
vn 0.87278867 0.20629543 -0.44235975
vn 0.3332466 0.015868843 -0.94270617
vn 0.84105086 0.015868843 -0.54072326
vn 0.39672214 0.49193543 -0.77499104
vn 0.93626416 0.33324653 -0.111158445
vn -0.17455775 0.015868843 -0.98451906
vn 0.5236732 0.8410508 -0.13564643
vn 0.87278867 0.20629543 0.44235975
vn -0.14281994 0.5236731 -0.83986247
vn -0.015868843 0.015868843 -0.9997481
vn 0.5871487 0.46019763 0.66593885
vn 0.84105086 0.015868843 0.54072326
vn -0.047606647 0.5236731 -0.8505881
vn -0.015868843 0.015868843 -0.9997481
vn 0.047565147 0.9988682 -0
vn 0.5871487 0.015868843 0.80932355
vn 0.87278867 -0.20629549 0.44235972
vn -0.11108214 0.5236731 -0.8446462
vn -0.49193543 0.015868843 -0.87048703
vn 0.17455775 0.49193543 0.8529532
vn -0.047565147 0.9988682 -0
vn 0.5871487 -0.46019763 0.66593885
vn 0.93626416 -0.3332466 -0.111158274
vn -0.5871487 0.42845982 -0.68678856
vn -0.9997397 0.015868843 -0.01639229
vn -0.2973837 0.95475805 -0
vn 0.17455775 0.015868843 0.98451906
vn 0.015868902 0.49193543 0.87048703
vn 0.5236732 -0.84105086 -0.13564621
vn 0.87278867 -0.20629549 -0.44235972
vn -0.7140998 0.682362 -0.1563443
vn -0.30150884 0.5236731 0.79678035
vn 0.17455775 -0.49193543 0.8529532
vn 0.015868902 0.015868843 0.9997481
vn 0.39672214 -0.49193543 -0.77499104
vn 0.84105086 0.015868843 -0.54072326
vn 0.3332466 0.015868843 -0.94270617
vn -0.7458375 0.36498433 0.5572368
vn -0.26977104 0.015868843 0.9627937
vn 0.047565147 -0.9988682 -0
vn -0.14281994 -0.5236732 -0.8398624
vn -0.17455775 0.015868843 -0.98451906
vn 0.015868902 -0.49193543 0.87048703
vn -0.7140998 0.015868843 0.69986403
vn -0.047606647 -0.5236732 -0.850588
vn -0.015868843 0.015868843 -0.9997481
vn -0.047565147 -0.9988682 -0
vn -0.30150884 -0.5236732 0.7967803
vn -0.11108214 -0.5236732 -0.8446462
vn -0.015868843 0.015868843 -0.9997481
vn -0.2973837 -0.9547581 -0
vn -0.7458375 -0.36498433 0.5572368
vn -0.7140998 -0.682362 -0.1563443
vn -0.5871487 -0.42845988 -0.68678856
vn -0.49193543 0.015868843 -0.87048703
vn 0.36498433 0.015868843 0.9308784
vn -0.015868843 0.015868843 0.9997481
vn -0.015868843 0.015868843 0.9997481
vn 0.30150878 -0.20629549 0.9308784
vn -0.015868843 0.015868843 0.9997481
vn 0.30150878 0.20629543 0.9308784
vn -0.015868843 0.015868843 0.9997481
vn 0.111082196 -0.3332466 0.93627316
vn -0.015868843 0.015868843 0.9997481
vn 0.111082196 0.33324653 0.9362732
vn -0.015868843 0.015868843 0.9997481
vn -0.11108214 -0.3332466 0.93627316
vn -0.015868843 0.015868843 0.9997481
vn -0.11108214 0.33324653 0.9362732
vn -0.015868843 0.015868843 0.9997481
vn -0.30150884 -0.20629549 0.9308784
vn -0.015868843 0.015868843 0.9997481
vn -0.30150884 0.20629543 0.9308784
vn -0.015868843 0.015868843 0.9997481
vn -0.36498433 0.015868843 0.9308784
vn 0.14281994 0.49193543 0.8588376
vn -0.14281994 0.49193543 0.8588376
vn -0.015868843 0.015868843 0.9997481
vn 0.39672214 0.30150884 0.8670086
vn -0.39672214 0.30150884 0.8670086
vn -0.49193543 0.015868843 0.87048703
vn 0.49193543 0.015868843 0.87048703
vn -0.39672214 -0.30150878 0.8670086
vn 0.39672214 -0.30150878 0.8670086
vn -0.14281994 -0.49193543 0.8588376
vn 0.14281994 -0.49193543 0.8588376
vn -0.61888653 -0.46019763 -0.6365513
vn -0.7775753 0.015868843 -0.6285895
vn -0.8727886 0.015868843 -0.48784038
vn -0.7140998 -0.5236732 -0.46457276
vn -0.7140998 0.5236731 -0.46457285
vn -0.23803324 -0.74583757 -0.62214667
vn -0.26977104 -0.84105086 -0.46888915
vn -0.61888653 0.46019763 -0.6365513
vn -0.26977104 0.8410508 -0.4688892
vn 0.2380333 -0.74583757 -0.6221466
vn 0.26977104 -0.84105086 -0.46888915
vn -0.23803324 0.7458375 -0.6221468
vn 0.26977104 0.8410508 -0.4688892
vn 0.6188865 -0.46019763 -0.6365514
vn 0.71409976 -0.5236732 -0.46457282
vn 0.2380333 0.7458375 -0.6221467
vn 0.71409976 0.5236731 -0.46457294
vn 0.7775753 -0.015868902 -0.6285895
vn 0.87278867 -0.015868902 -0.48784027
vn 0.6188865 0.46019763 -0.6365514
vn -0.11108214 -0.36498433 -0.92436314
vn 0.111082196 -0.36498433 -0.92436314
vn -0.015868843 0.015868843 -0.9997481
vn 0.30150878 -0.20629549 -0.9308784
vn -0.30150884 -0.20629549 -0.9308784
vn 0.36498433 0.015868843 -0.9308784
vn -0.36498433 0.015868843 -0.9308784
vn 0.30150878 0.20629543 -0.9308784
vn -0.30150884 0.20629543 -0.9308784
vn 0.111082196 0.36498433 -0.92436314
vn -0.11108214 0.36498433 -0.92436314
g Pan_A_0
f 3/3/3 2/2/2 1/1/1
f 2/2/2 4/4/4 1/1/1
f 2/2/2 5/5/5 4/4/4
f 5/5/5 6/6/6 4/4/4
f 5/5/5 7/7/7 6/6/6
f 7/7/7 8/8/8 6/6/6
f 7/7/7 9/9/9 8/8/8
f 9/9/9 10/10/10 8/8/8
f 9/9/9 11/11/11 10/10/10
f 11/11/11 12/12/12 10/10/10
f 11/11/11 13/13/13 12/12/12
f 13/13/13 14/14/14 12/12/12
f 13/13/13 15/15/15 14/14/14
f 15/15/15 16/16/16 14/14/14
f 15/15/15 17/17/17 16/16/16
f 17/17/17 18/18/18 16/16/16
f 21/21/21 20/20/20 19/19/19
f 20/20/20 22/22/22 19/19/19
f 19/19/19 22/22/22 23/23/23
f 20/20/20 24/24/24 22/22/22
f 22/22/22 25/25/25 23/23/23
f 23/23/23 25/25/25 26/26/26
f 24/24/24 27/27/27 22/22/22
f 22/22/22 27/27/27 25/25/25
f 27/27/27 24/24/24 28/28/28
f 25/25/25 29/29/29 26/26/26
f 26/26/26 29/29/29 30/30/30
f 31/31/31 27/27/27 28/28/28
f 28/28/28 32/32/32 31/31/31
f 27/27/27 33/33/33 25/25/25
f 25/25/25 33/33/33 29/29/29
f 33/33/33 27/27/27 31/31/31
f 29/29/29 34/34/34 30/30/30
f 30/30/30 34/34/34 35/35/35
f 32/32/32 36/36/36 31/31/31
f 32/32/32 37/37/37 36/36/36
f 33/33/33 38/38/38 29/29/29
f 29/29/29 38/38/38 34/34/34
f 39/39/39 33/33/33 31/31/31
f 31/31/31 36/36/36 39/39/39
f 38/38/38 33/33/33 39/39/39
f 34/34/34 40/40/40 35/35/35
f 35/35/35 40/40/40 41/41/41
f 37/37/37 42/42/42 36/36/36
f 37/37/37 43/43/43 42/42/42
f 36/36/36 44/44/44 39/39/39
f 36/36/36 42/42/42 44/44/44
f 38/38/38 45/45/45 34/34/34
f 34/34/34 45/45/45 40/40/40
f 46/46/46 38/38/38 39/39/39
f 39/39/39 44/44/44 46/46/46
f 45/45/45 38/38/38 46/46/46
f 40/40/40 47/47/47 41/41/41
f 41/41/41 47/47/47 48/48/48
f 42/42/42 49/49/49 44/44/44
f 42/42/42 43/43/43 49/49/49
f 44/44/44 50/50/50 46/46/46
f 44/44/44 49/49/49 50/50/50
f 45/45/45 51/51/51 40/40/40
f 40/40/40 51/51/51 47/47/47
f 52/52/52 45/45/45 46/46/46
f 46/46/46 50/50/50 52/52/52
f 51/51/51 45/45/45 52/52/52
f 47/47/47 53/53/53 48/48/48
f 48/48/48 53/53/53 54/54/54
f 53/53/53 55/55/55 54/54/54
f 49/49/49 56/56/56 50/50/50
f 49/49/49 43/43/43 56/56/56
f 50/50/50 57/57/57 52/52/52
f 50/50/50 56/56/56 57/57/57
f 51/51/51 58/58/58 47/47/47
f 47/47/47 58/58/58 53/53/53
f 53/53/53 59/59/59 55/55/55
f 58/58/58 59/59/59 53/53/53
f 59/59/59 60/60/60 55/55/55
f 61/61/61 51/51/51 52/52/52
f 58/58/58 51/51/51 61/61/61
f 52/52/52 57/57/57 61/61/61
f 56/56/56 62/62/62 57/57/57
f 56/56/56 43/43/43 62/62/62
f 60/60/60 59/59/59 63/63/63
f 64/64/64 60/60/60 63/63/63
f 59/59/59 58/58/58 65/65/65
f 65/65/65 58/58/58 61/61/61
f 63/63/63 59/59/59 65/65/65
f 57/57/57 66/66/66 61/61/61
f 57/57/57 62/62/62 66/66/66
f 61/61/61 66/66/66 65/65/65
f 63/63/63 67/67/67 64/64/64
f 67/67/67 68/68/68 64/64/64
f 65/65/65 69/69/69 63/63/63
f 66/66/66 69/69/69 65/65/65
f 69/69/69 67/67/67 63/63/63
f 62/62/62 70/70/70 66/66/66
f 66/66/66 70/70/70 69/69/69
f 62/62/62 43/43/43 70/70/70
f 70/70/70 71/71/71 69/69/69
f 69/69/69 71/71/71 67/67/67
f 70/70/70 43/43/43 71/71/71
f 67/67/67 72/72/72 68/68/68
f 71/71/71 72/72/72 67/67/67
f 71/71/71 43/43/43 72/72/72
f 72/72/72 73/73/73 68/68/68
f 72/72/72 43/43/43 73/73/73
f 76/76/76 75/75/75 74/74/74
f 77/77/77 76/76/76 74/74/74
f 78/78/78 76/76/76 77/77/77
f 74/74/74 75/75/75 79/79/79
f 75/75/75 80/80/80 79/79/79
f 81/81/81 78/78/78 77/77/77
f 82/82/82 78/78/78 81/81/81
f 79/79/79 80/80/80 83/83/83
f 80/80/80 84/84/84 83/83/83
f 85/85/85 82/82/82 81/81/81
f 86/86/86 82/82/82 85/85/85
f 83/83/83 84/84/84 87/87/87
f 84/84/84 88/88/88 87/87/87
f 89/89/89 86/86/86 85/85/85
f 90/90/90 86/86/86 89/89/89
f 87/87/87 88/88/88 91/91/91
f 88/88/88 92/92/92 91/91/91
f 92/92/92 90/90/90 93/93/93
f 93/93/93 90/90/90 89/89/89
f 91/91/91 92/92/92 93/93/93
f 83/83/83 94/94/94 79/79/79
f 87/87/87 95/95/95 83/83/83
f 95/95/95 94/94/94 83/83/83
f 95/95/95 96/96/96 94/94/94
f 94/94/94 96/96/96 97/97/97
f 94/94/94 97/97/97 79/79/79
f 98/98/98 96/96/96 95/95/95
f 98/98/98 95/95/95 87/87/87
f 91/91/91 98/98/98 87/87/87
f 79/79/79 97/97/97 74/74/74
f 99/99/99 98/98/98 91/91/91
f 93/93/93 99/99/99 91/91/91
f 99/99/99 96/96/96 98/98/98
f 97/97/97 100/100/100 74/74/74
f 97/97/97 96/96/96 100/100/100
f 74/74/74 100/100/100 77/77/77
f 101/101/101 99/99/99 93/93/93
f 101/101/101 96/96/96 99/99/99
f 89/89/89 101/101/101 93/93/93
f 100/100/100 102/102/102 77/77/77
f 100/100/100 96/96/96 102/102/102
f 77/77/77 102/102/102 81/81/81
f 103/103/103 101/101/101 89/89/89
f 103/103/103 96/96/96 101/101/101
f 85/85/85 103/103/103 89/89/89
f 102/102/102 104/104/104 81/81/81
f 102/102/102 96/96/96 104/104/104
f 104/104/104 96/96/96 103/103/103
f 104/104/104 103/103/103 85/85/85
f 81/81/81 104/104/104 85/85/85
f 107/107/107 106/106/106 105/105/105
f 108/108/108 107/107/107 105/105/105
f 107/107/107 109/109/109 106/106/106
f 108/108/108 105/105/105 110/110/110
f 111/111/111 108/108/108 110/110/110
f 109/109/109 112/112/112 106/106/106
f 109/109/109 113/113/113 112/112/112
f 111/111/111 110/110/110 114/114/114
f 115/115/115 111/111/111 114/114/114
f 113/113/113 116/116/116 112/112/112
f 113/113/113 117/117/117 116/116/116
f 115/115/115 114/114/114 118/118/118
f 119/119/119 115/115/115 118/118/118
f 117/117/117 120/120/120 116/116/116
f 117/117/117 121/121/121 120/120/120
f 119/119/119 118/118/118 122/122/122
f 123/123/123 119/119/119 122/122/122
f 121/121/121 123/123/123 124/124/124
f 121/121/121 124/124/124 120/120/120
f 123/123/123 122/122/122 124/124/124
f 110/110/110 125/125/125 114/114/114
f 114/114/114 126/126/126 118/118/118
f 125/125/125 126/126/126 114/114/114
f 125/125/125 127/127/127 126/126/126
f 126/126/126 127/127/127 128/128/128
f 126/126/126 128/128/128 118/118/118
f 118/118/118 128/128/128 122/122/122
f 129/129/129 127/127/127 125/125/125
f 129/129/129 125/125/125 110/110/110
f 105/105/105 129/129/129 110/110/110
f 128/128/128 130/130/130 122/122/122
f 122/122/122 130/130/130 124/124/124
f 128/128/128 127/127/127 130/130/130
f 131/131/131 129/129/129 105/105/105
f 131/131/131 127/127/127 129/129/129
f 106/106/106 131/131/131 105/105/105
f 130/130/130 132/132/132 124/124/124
f 130/130/130 127/127/127 132/132/132
f 124/124/124 132/132/132 120/120/120
f 133/133/133 131/131/131 106/106/106
f 133/133/133 127/127/127 131/131/131
f 112/112/112 133/133/133 106/106/106
f 132/132/132 134/134/134 120/120/120
f 132/132/132 127/127/127 134/134/134
f 120/120/120 134/134/134 116/116/116
f 135/135/135 127/127/127 133/133/133
f 135/135/135 133/133/133 112/112/112
f 116/116/116 135/135/135 112/112/112
f 134/134/134 127/127/127 135/135/135
f 134/134/134 135/135/135 116/116/116
