g PaperPlane_01
v 0.5806641 0.00014418364 0.08109307
v -0.45446986 -0.13038588 0.08109307
v -0.45446986 0.00014418364 -0.14252824
v -0.453458 0.00014418364 -0.14657566
v -0.45446986 -0.1324096 0.07805753
v 0.5806641 0.00014418364 0.07704562
v -0.45446986 0.13168615 0.07805753
v 0.5806641 0.00014418364 0.07704562
v -0.45446986 -0.41876632 0.09728289
v 0.5806641 0.00014418364 0.08109307
v -0.45446986 -0.41876632 0.09323543
v 0.5806641 0.00014418364 0.07704562
v -0.45446986 0.12966245 0.08109307
v 0.5806641 0.00014418364 0.08109307
v -0.45446986 0.4190547 0.09728289
v -0.45446986 0.4190547 0.09323543
vt 0.017088138 0.9896958
vt 0.017088138 0.9896958
vt 0.017088138 0.9896958
vt 0.017088138 0.9896958
vt 0.017088138 0.9896958
vt 0.017088138 0.9896958
vt 0.017088138 0.9896958
vt 0.017088138 0.9896958
vt 0.017088138 0.9896958
vt 0.017088138 0.9896958
vt 0.017088138 0.9896958
vt 0.017088138 0.9896958
vt 0.017088138 0.9896958
vt 0.017088138 0.9896958
vt 0.017088138 0.9896958
vt 0.017088138 0.9896958
vn -0.09805328 0.8643859 0.49317595
vn -0.64981276 0.34327978 0.678161
vn -0.9869991 0.006093383 0.16061021
vn -0.46589297 0.006093383 -0.8848201
vn -0.77242595 -0.331093 -0.54197377
vn 0.11651987 -0.8521992 -0.5100781
vn -0.77242595 0.34327978 -0.53433806
vn 0.11651987 0.8643859 -0.48914224
vn -0.46589297 -0.66827935 0.57995385
vn 0.8828525 0.006093383 0.4696108
vn -0.4352396 -0.69893265 -0.567503
vn 0.9441591 0.006093383 -0.32943356
vn -0.64981276 -0.3617463 0.6684931
vn -0.09805328 -0.8521992 0.5139475
vn -0.46589297 0.6804661 0.5656055
vn -0.4352396 0.71111935 -0.55215555
g PaperPlane_01_0
f 3/3/3 2/2/2 1/1/1
f 3/3/3 4/4/4 2/2/2
f 4/4/4 5/5/5 2/2/2
f 5/5/5 4/4/4 6/6/6
f 7/7/7 4/4/4 3/3/3
f 4/4/4 7/7/7 8/8/8
f 2/2/2 5/5/5 9/9/9
f 2/2/2 9/9/9 10/10/10
f 5/5/5 11/11/11 9/9/9
f 9/9/9 11/11/11 10/10/10
f 11/11/11 5/5/5 12/12/12
f 11/11/11 12/12/12 10/10/10
f 13/13/13 7/7/7 3/3/3
f 13/13/13 3/3/3 14/14/14
f 15/15/15 13/13/13 10/10/10
f 10/10/10 12/12/12 15/15/15
f 7/7/7 16/16/16 12/12/12
f 16/16/16 7/7/7 13/13/13
f 12/12/12 16/16/16 15/15/15
f 15/15/15 16/16/16 13/13/13
