g pen
v 0.07371169 0.5319807 0.09542507
v 0.09771079 0.48969656 0.10571039
v 0.07371169 0.48969656 0.09542507
v 0.114853054 0.48969656 0.112567306
v 0.09771079 0.14342332 0.10571039
v 0.114853054 0.14342332 0.112567306
v 0.114853054 0.5319807 0.112567306
v 0.15599442 0.48969656 0.011999488
v 0.15599442 0.14342332 0.011999488
v 0.15599442 0.5319807 0.011999488
v 0.13885218 0.48969656 0.005142629
v 0.13885218 0.14342332 0.005142629
v 0.114853054 0.48969656 -0.0051427484
v 0.114853054 0.5319807 -0.0051427484
v 0.114853054 0.5319807 -0.0051427484
v 0.07371169 0.5319807 0.09542507
v 0.09771079 0.48969656 0.10571039
v 0.114853054 0.48969656 -0.0051427484
v 0.07371169 0.48969656 0.09542507
v 0.13885218 0.48969656 0.005142629
v 0.13885218 0.14342332 0.005142629
v 0.09771079 0.14342332 0.10571039
v 0.15599442 0.14342332 0.011999488
v 0.114853054 0.14342332 0.112567306
v 0.072568834 -0.5845503 0.08742535
v -0.015427947 0.0634262 0.12399548
v 0.072568834 0.0634262 0.08742535
v -0.015427947 -0.5845503 0.12399548
v -0.10228193 0.0634262 0.08742535
v -0.10228193 -0.5845503 0.08742535
v -0.13885206 0.0634262 0.0005713701
v -0.13885206 -0.5845503 0.0005713701
v -0.10228193 0.0634262 -0.08742547
v -0.10228193 -0.5845503 -0.08742547
v -0.015427947 0.0634262 -0.12399557
v -0.015427947 -0.5845503 -0.12399557
v 0.072568834 0.0634262 -0.08742547
v 0.072568834 -0.5845503 -0.08742547
v 0.109138966 0.0634262 0.0005713701
v 0.109138966 -0.5845503 0.0005713701
v 0.072568834 0.0634262 0.08742535
v 0.072568834 -0.5845503 0.08742535
v -0.13885206 -0.5845503 0.0005713701
v -0.015427947 -0.5845503 -0.12399557
v -0.10228193 -0.5845503 -0.08742547
v -0.015427947 -0.5845503 0.12399548
v -0.10228193 -0.5845503 0.08742535
v 0.109138966 -0.5845503 0.0005713701
v 0.072568834 -0.5845503 -0.08742547
v 0.072568834 -0.5845503 0.08742535
v -0.015427947 0.0634262 0.12399548
v 0.08513984 0.0634262 0.09999633
v 0.072568834 0.0634262 0.08742535
v -0.015427947 0.0634262 0.14113772
v 0.08513984 0.48969656 0.09999633
v 0.08513984 0.5319807 0.09999633
v 0.08513984 0.5845502 0.09999633
v -0.10228193 0.0634262 0.08742535
v -0.015427947 0.5845502 0.14113772
v -0.114852905 0.0634262 0.09999633
v -0.13885206 0.0634262 0.0005713701
v -0.114852905 0.5845502 0.09999633
v -0.1559943 0.0634262 0.0005713701
v -0.10228193 0.0634262 -0.08742547
v -0.1559943 0.5845502 -0.00057148933
v -0.114852905 0.0634262 -0.09999645
v -0.015427947 0.0634262 -0.12399557
v -0.114852905 0.5845502 -0.09999645
v -0.015427947 0.0634262 -0.14113781
v 0.072568834 0.0634262 -0.08742547
v -0.015427947 0.5845502 -0.14113781
v 0.08513984 0.0634262 -0.09999645
v 0.109138966 0.0634262 0.0005713701
v 0.1262812 0.0634262 0.0005713701
v 0.072568834 0.0634262 0.08742535
v 0.08513984 0.5845502 -0.09999645
v 0.08513984 0.0634262 0.09999633
v 0.08513984 0.48969656 0.09999633
v 0.08513984 0.5319807 0.09999633
v 0.08513984 0.5845502 0.09999633
v 0.1262812 0.48969656 0.0005713701
v 0.1262812 0.5319807 0.0005713701
v 0.1262812 0.5845502 0.0005713701
v 0.1262812 0.5845502 0.0005713701
v -0.015427947 0.5845502 -0.14113781
v 0.08513984 0.5845502 -0.09999645
v -0.015427947 0.5845502 0.14113772
v 0.08513984 0.5845502 0.09999633
v -0.1559943 0.5845502 -0.00057148933
v -0.114852905 0.5845502 -0.09999645
v -0.114852905 0.5845502 0.09999633
vt 0.48580542 0.39705783
vt 0.48212677 0.39475867
vt 0.48212677 0.39705783
vt 0.48212677 0.39337918
vt 0.45131803 0.39475867
vt 0.45131803 0.39337918
vt 0.48580542 0.39337918
vt 0.48212677 0.3837227
vt 0.45131803 0.3837227
vt 0.48580542 0.3837227
vt 0.48212677 0.38188335
vt 0.45131803 0.38188335
vt 0.48212677 0.3795842
vt 0.48580542 0.3795842
vt 0.48994392 0.3837227
vt 0.48994392 0.39337918
vt 0.4641933 0.48166692
vt 0.46189415 0.47201046
vt 0.46189415 0.48166692
vt 0.4641933 0.47201046
vt 0.49454224 0.47201046
vt 0.49454224 0.48166692
vt 0.49638155 0.47201046
vt 0.49638155 0.48166692
vt 0.44625986 0.3795842
vt 0.4379829 0.43706322
vt 0.44625986 0.43706322
vt 0.4379829 0.3795842
vt 0.42970592 0.43706322
vt 0.42970592 0.3795842
vt 0.42142892 0.43706322
vt 0.42142892 0.3795842
vt 0.41269213 0.43706322
vt 0.41269213 0.3795842
vt 0.40441513 0.43706322
vt 0.40441513 0.3795842
vt 0.39613816 0.43706322
vt 0.39613816 0.3795842
vt 0.38740134 0.43706322
vt 0.38740134 0.3795842
vt 0.37912437 0.43706322
vt 0.37912437 0.3795842
vt 0.47338995 0.41315195
vt 0.46235397 0.42418793
vt 0.47017112 0.4209691
vt 0.46235397 0.40211597
vt 0.47017112 0.4053348
vt 0.45131803 0.41315195
vt 0.45453686 0.4209691
vt 0.45453686 0.4053348
vt 0.4467197 0.4421214
vt 0.45637617 0.44350088
vt 0.45637617 0.4421214
vt 0.4467197 0.44350088
vt 0.45637617 0.4812071
vt 0.45637617 0.4853456
vt 0.45637617 0.48994392
vt 0.43706322 0.4421214
vt 0.4467197 0.48994392
vt 0.43706322 0.44350088
vt 0.42786658 0.4421214
vt 0.43706322 0.48994392
vt 0.42786658 0.44350088
vt 0.4182101 0.4421214
vt 0.42786658 0.48994392
vt 0.4182101 0.44350088
vt 0.40855363 0.4421214
vt 0.4182101 0.48994392
vt 0.40855363 0.44350088
vt 0.39889714 0.4421214
vt 0.40855363 0.48994392
vt 0.39889714 0.44350088
vt 0.38924068 0.4421214
vt 0.38924068 0.44350088
vt 0.3795842 0.4421214
vt 0.39889714 0.48994392
vt 0.3795842 0.44350088
vt 0.3795842 0.4812071
vt 0.3795842 0.4853456
vt 0.3795842 0.48994392
vt 0.38924068 0.4812071
vt 0.38924068 0.4853456
vt 0.38924068 0.48994392
vt 0.46189415 0.45453686
vt 0.47430962 0.4421214
vt 0.4655728 0.44580004
vt 0.47430962 0.4669523
vt 0.4655728 0.46327364
vt 0.4867251 0.45453686
vt 0.4830464 0.44580004
vt 0.4830464 0.46327364
vn -0.26778555 0.71852326 0.6418841
vn -0.63400996 -0.2956367 0.714584
vn -0.26778555 -0.7182034 0.64224195
vn 0.38015008 -0.013925612 0.92482
vn -0.74669445 -0.5773479 0.3303284
vn 0.32380784 -0.5773479 0.74954516
vn 0.32380784 0.5776677 0.7492987
vn 0.9154012 -0.013925612 -0.4023017
vn 0.7463745 -0.5773479 -0.33105063
vn 0.7463745 0.5776677 -0.3304922
vn 0.070267856 -0.2956367 -0.9527126
vn -0.32412767 -0.5773479 -0.7494069
vn 0.2674656 -0.7182034 -0.6423753
vn 0.2674656 0.71852326 -0.6420175
vn 0.2674656 0.71852326 -0.6420175
vn -0.26778555 0.71852326 0.6418841
vn -0.63400996 -0.2956367 0.714584
vn 0.2674656 -0.7182034 -0.6423753
vn -0.26778555 -0.7182034 0.64224195
vn 0.070267856 -0.2956367 -0.9527126
vn -0.32412767 -0.5773479 -0.7494069
vn -0.74669445 -0.5773479 0.3303284
vn 0.7463745 -0.5773479 -0.33105063
vn 0.32380784 -0.5773479 0.74954516
vn 0.5491767 -0.63369006 0.544832
vn 0.013925612 -0.80271673 0.5961979
vn 0.4083212 -0.80271673 0.43464884
vn 0.013925612 -0.63369006 0.7734617
vn -0.4086411 -0.80271673 0.43434814
vn -0.54949665 -0.63369006 0.5445093
vn -0.60241634 -0.79818195 -0
vn -0.77409965 -0.63306373 -0
vn -0.4086411 -0.80271673 -0.43434814
vn -0.54949665 -0.63369006 -0.5445093
vn 0.013925612 -0.80271673 -0.5961979
vn 0.013925612 -0.63369006 -0.7734617
vn 0.4083212 -0.80271673 -0.43464884
vn 0.5491767 -0.63369006 -0.544832
vn 0.6022136 -0.79833496 -0
vn 0.77397156 -0.6332204 -0
vn 0.4083212 -0.80271673 0.43464884
vn 0.5491767 -0.63369006 0.544832
vn -0.77409965 -0.63306373 -0
vn 0.013925612 -0.63369006 -0.7734617
vn -0.54949665 -0.63369006 -0.5445093
vn 0.013925612 -0.63369006 0.7734617
vn -0.54949665 -0.63369006 0.5445093
vn 0.77397156 -0.6332204 -0
vn 0.5491767 -0.63369006 -0.544832
vn 0.5491767 -0.63369006 0.544832
vn 0.013925612 -0.80271673 0.5961979
vn 0.5491767 -0.63369006 0.544832
vn 0.4083212 -0.80271673 0.43464884
vn 0.013925612 -0.63369006 0.7734617
vn 0.7182034 -0.013925612 0.69569385
vn 0.7182034 -0.013925612 0.69569385
vn 0.5491767 0.63400996 0.5444597
vn -0.4086411 -0.80271673 0.43434814
vn 0.013925612 0.63400996 0.7731995
vn -0.54949665 -0.63369006 0.5445093
vn -0.60241634 -0.79818195 -0
vn -0.54949665 0.63400996 0.54413676
vn -0.77409965 -0.63306373 -0
vn -0.4086411 -0.80271673 -0.43434814
vn -0.77394307 0.63325524 -0
vn -0.54949665 -0.63369006 -0.5445093
vn 0.013925612 -0.80271673 -0.5961979
vn -0.54949665 0.63400996 -0.54413676
vn 0.013925612 -0.63369006 -0.7734617
vn 0.4083212 -0.80271673 -0.43464884
vn 0.013925612 0.63400996 -0.7731995
vn 0.5491767 -0.63369006 -0.544832
vn 0.6022136 -0.79833496 -0
vn 0.77397156 -0.6332204 -0
vn 0.4083212 -0.80271673 0.43464884
vn 0.5491767 0.63400996 -0.5444597
vn 0.5491767 -0.63369006 0.544832
vn 0.7182034 -0.013925612 0.69569385
vn 0.7182034 -0.013925612 0.69569385
vn 0.5491767 0.63400996 0.5444597
vn 0.9999031 -0.013925453 -0
vn 0.9999031 -0.013925453 -0
vn 0.77381486 0.63341177 -0
vn 0.77381486 0.63341177 -0
vn 0.013925612 0.63400996 -0.7731995
vn 0.5491767 0.63400996 -0.5444597
vn 0.013925612 0.63400996 0.7731995
vn 0.5491767 0.63400996 0.5444597
vn -0.77394307 0.63325524 -0
vn -0.54949665 0.63400996 -0.54413676
vn -0.54949665 0.63400996 0.54413676
g pen_0
f 3/3/3 2/2/2 1/1/1
f 2/2/2 4/4/4 1/1/1
f 2/2/2 5/5/5 4/4/4
f 6/6/6 4/4/4 5/5/5
f 4/4/4 7/7/7 1/1/1
f 4/4/4 6/6/6 8/8/8
f 9/9/9 8/8/8 6/6/6
f 7/7/7 4/4/4 10/10/10
f 8/8/8 10/10/10 4/4/4
f 8/8/8 9/9/9 11/11/11
f 8/8/8 11/11/11 10/10/10
f 12/12/12 11/11/11 9/9/9
f 11/11/11 13/13/13 10/10/10
f 13/13/13 14/14/14 10/10/10
f 10/10/10 15/15/15 7/7/7
f 16/16/16 7/7/7 15/15/15
f 19/19/19 18/18/18 17/17/17
f 20/20/20 17/17/17 18/18/18
f 20/20/20 21/21/21 17/17/17
f 22/22/22 17/17/17 21/21/21
f 21/21/21 23/23/23 22/22/22
f 24/24/24 22/22/22 23/23/23
f 27/27/27 26/26/26 25/25/25
f 28/28/28 25/25/25 26/26/26
f 26/26/26 29/29/29 28/28/28
f 30/30/30 28/28/28 29/29/29
f 29/29/29 31/31/31 30/30/30
f 32/32/32 30/30/30 31/31/31
f 31/31/31 33/33/33 32/32/32
f 34/34/34 32/32/32 33/33/33
f 33/33/33 35/35/35 34/34/34
f 36/36/36 34/34/34 35/35/35
f 35/35/35 37/37/37 36/36/36
f 38/38/38 36/36/36 37/37/37
f 37/37/37 39/39/39 38/38/38
f 40/40/40 38/38/38 39/39/39
f 39/39/39 41/41/41 40/40/40
f 42/42/42 40/40/40 41/41/41
f 45/45/45 44/44/44 43/43/43
f 44/44/44 46/46/46 43/43/43
f 46/46/46 47/47/47 43/43/43
f 48/48/48 46/46/46 44/44/44
f 49/49/49 48/48/48 44/44/44
f 50/50/50 46/46/46 48/48/48
f 53/53/53 52/52/52 51/51/51
f 54/54/54 51/51/51 52/52/52
f 52/52/52 55/55/55 54/54/54
f 55/55/55 56/56/56 54/54/54
f 54/54/54 56/56/56 57/57/57
f 51/51/51 54/54/54 58/58/58
f 59/59/59 54/54/54 57/57/57
f 60/60/60 58/58/58 54/54/54
f 54/54/54 59/59/59 60/60/60
f 58/58/58 60/60/60 61/61/61
f 62/62/62 60/60/60 59/59/59
f 63/63/63 61/61/61 60/60/60
f 60/60/60 62/62/62 63/63/63
f 61/61/61 63/63/63 64/64/64
f 65/65/65 63/63/63 62/62/62
f 66/66/66 64/64/64 63/63/63
f 63/63/63 65/65/65 66/66/66
f 64/64/64 66/66/66 67/67/67
f 68/68/68 66/66/66 65/65/65
f 69/69/69 67/67/67 66/66/66
f 66/66/66 68/68/68 69/69/69
f 67/67/67 69/69/69 70/70/70
f 71/71/71 69/69/69 68/68/68
f 72/72/72 70/70/70 69/69/69
f 69/69/69 71/71/71 72/72/72
f 70/70/70 72/72/72 73/73/73
f 74/74/74 73/73/73 72/72/72
f 73/73/73 74/74/74 75/75/75
f 76/76/76 72/72/72 71/71/71
f 74/74/74 72/72/72 76/76/76
f 77/77/77 75/75/75 74/74/74
f 77/77/77 74/74/74 78/78/78
f 78/78/78 74/74/74 79/79/79
f 79/79/79 74/74/74 80/80/80
f 81/81/81 74/74/74 76/76/76
f 74/74/74 81/81/81 80/80/80
f 82/82/82 81/81/81 76/76/76
f 80/80/80 81/81/81 82/82/82
f 83/83/83 82/82/82 76/76/76
f 83/83/83 80/80/80 82/82/82
f 86/86/86 85/85/85 84/84/84
f 85/85/85 87/87/87 84/84/84
f 87/87/87 88/88/88 84/84/84
f 89/89/89 87/87/87 85/85/85
f 90/90/90 89/89/89 85/85/85
f 91/91/91 87/87/87 89/89/89
