g Pickaxe_A
v 0.07194644 0.57276326 -0.0005763769
v 0.05172491 0.5763318 0.054140687
v 0.004144907 0.58822685 0.07674122
v -0.043435156 0.5989323 0.054140687
v -0.062467217 0.6036903 -0.0005763769
v -0.043435156 0.5989323 -0.05410391
v 0.004144907 0.58822685 -0.07670444
v 0.05172491 0.5763318 -0.05410391
v -0.06960422 -0.6131696 -0.0005763769
v 0.008902907 -0.5917586 -0.08978897
v -0.045814157 -0.6072221 -0.06361997
v 0.06480944 -0.57748455 -0.06361997
v 0.0885995 -0.5715371 -0.0005763769
v 0.06480944 -0.57748455 0.06365669
v 0.008902907 -0.5917586 0.08982575
v -0.045814157 -0.6072221 0.06365669
v -0.060088217 -0.22777113 -0.0005763769
v -0.045814157 -0.6072221 0.06365669
v -0.06960422 -0.6131696 -0.0005763769
v -0.043435156 -0.22658163 0.045814157
v 0.008902907 -0.5917586 0.08982575
v -0.036298156 0.17190135 0.039866686
v -0.051761687 0.17190135 -0.0005763769
v -0.062467217 0.6036903 -0.0005763769
v -0.043435156 0.5989323 0.054140687
v 0.0005763769 0.17190135 0.057709217
v 0.004144907 0.58822685 0.07674122
v -0.0018026233 -0.22063413 0.06484622
v 0.06480944 -0.57748455 0.06365669
v 0.03626144 0.17190135 0.039866686
v 0.05172491 0.5763318 0.054140687
v 0.03982991 -0.21587613 0.045814157
v 0.0885995 -0.5715371 -0.0005763769
v 0.05172491 0.17190135 -0.0005763769
v 0.07194644 0.57276326 -0.0005763769
v 0.05648297 -0.21349713 -0.0005763769
v 0.06480944 -0.57748455 -0.06361997
v 0.03626144 0.17190135 -0.03982991
v 0.05172491 0.5763318 -0.05410391
v 0.03982991 -0.21587613 -0.04577744
v 0.008902907 -0.5917586 -0.08978897
v 0.0005763769 0.17190135 -0.05767244
v 0.004144907 0.58822685 -0.07670444
v -0.0018026233 -0.22063413 -0.06480944
v -0.045814157 -0.6072221 -0.06361997
v -0.036298156 0.17190135 -0.03982991
v -0.043435156 0.5989323 -0.05410391
v -0.043435156 -0.22658163 -0.04577744
v -0.06960422 -0.6131696 -0.0005763769
v -0.060088217 -0.22777113 -0.0005763769
v -0.051761687 0.17190135 -0.0005763769
v -0.062467217 0.6036903 -0.0005763769
v -0.09101522 0.37530607 -0.0005763769
v -0.06484622 0.5572998 -0.07075697
v -0.09101522 0.5572998 -0.0005763769
v -0.06484622 0.37530607 -0.07075697
v 0.0005763769 0.5572998 -0.100494504
v 0.0005763769 0.37530607 -0.100494504
v 0.06480944 0.5572998 -0.07075697
v 0.06480944 0.37530607 -0.07075697
v 0.0909785 0.5572998 -0.0005763769
v 0.0909785 0.37530607 -0.0005763769
v 0.06480944 0.5572998 0.07079369
v 0.06480944 0.37530607 0.07079369
v 0.0005763769 0.5572998 0.10053122
v 0.0005763769 0.37530607 0.10053122
v -0.06484622 0.5572998 0.07079369
v -0.06484622 0.37530607 0.07079369
v -0.09101522 0.5572998 -0.0005763769
v -0.09101522 0.37530607 -0.0005763769
v 0.29319373 0.4371602 0.07912022
v 0.02912438 0.4074226 0.08030975
v 0.02912438 0.54540473 0.08030975
v 0.30389923 0.52637273 0.06603569
v 0.54655755 0.44310766 0.10053122
v 0.50254595 0.48592967 0.07198322
v 0.30389923 0.52637273 -0.06599897
v 0.54655755 0.44310766 -0.100494504
v 0.50254595 0.48592967 -0.07194644
v 0.29319373 0.4371602 -0.07908344
v 0.02912438 0.4074226 -0.08027297
v 0.02912438 0.54540473 -0.08027297
v 0.54655755 0.44310766 -0.100494504
v 0.54655755 0.44310766 0.10053122
v 0.50254595 0.48592967 0.07198322
v 0.50254595 0.48592967 -0.07194644
v 0.30389923 0.52637273 -0.06599897
v 0.30389923 0.52637273 0.06603569
v 0.02912438 0.54540473 -0.08027297
v 0.02912438 0.54540473 0.08030975
v 0.29319373 0.4371602 0.07912022
v 0.54655755 0.44310766 0.10053122
v 0.54655755 0.44310766 -0.100494504
v 0.29319373 0.4371602 -0.07908344
v 0.02912438 0.4074226 0.08030975
v 0.02912438 0.4074226 -0.08027297
v -0.28728294 0.4371602 0.033919156
v -0.032729685 0.54540473 0.07793075
v -0.032729685 0.4074226 0.07793075
v -0.299178 0.52637273 0.039866686
v -0.5418363 0.44310766 0.014887154
v -0.49663526 0.48592967 0.012508154
v -0.28728294 0.4371602 -0.03388244
v -0.49663526 0.48592967 -0.012471378
v -0.5418363 0.44310766 -0.014850378
v -0.299178 0.52637273 -0.03982991
v -0.032729685 0.4074226 -0.07789397
v -0.032729685 0.54540473 -0.07789397
v -0.5418363 0.44310766 -0.014850378
v -0.49663526 0.48592967 0.012508154
v -0.5418363 0.44310766 0.014887154
v -0.49663526 0.48592967 -0.012471378
v -0.299178 0.52637273 -0.03982991
v -0.299178 0.52637273 0.039866686
v -0.032729685 0.54540473 -0.07789397
v -0.032729685 0.54540473 0.07793075
v -0.28728294 0.4371602 0.033919156
v -0.5418363 0.44310766 -0.014850378
v -0.5418363 0.44310766 0.014887154
v -0.28728294 0.4371602 -0.03388244
v -0.032729685 0.4074226 0.07793075
v -0.032729685 0.4074226 -0.07789397
v -0.06484622 0.5572998 0.07079369
v -0.09101522 0.5572998 -0.0005763769
v 0.0005763769 0.5572998 0.10053122
v 0.06480944 0.5572998 0.07079369
v 0.0909785 0.5572998 -0.0005763769
v 0.06480944 0.5572998 -0.07075697
v 0.0005763769 0.5572998 -0.100494504
v -0.06484622 0.5572998 -0.07075697
v 0.0005763769 0.37530607 0.10053122
v -0.09101522 0.37530607 -0.0005763769
v -0.06484622 0.37530607 0.07079369
v 0.06480944 0.37530607 0.07079369
v 0.0909785 0.37530607 -0.0005763769
v 0.06480944 0.37530607 -0.07075697
v 0.0005763769 0.37530607 -0.100494504
v -0.06484622 0.37530607 -0.07075697
vt 0.96360344 0.3175825
vt 0.93715817 0.2911372
vt 0.89937913 0.2911372
vt 0.86915594 0.3175825
vt 0.86915594 0.35913938
vt 0.89937913 0.38558468
vt 0.93715817 0.38558468
vt 0.96360344 0.35913938
vt 0.96738136 0.3175825
vt 0.93715817 0.38558468
vt 0.96738136 0.35913938
vt 0.89937913 0.38558468
vt 0.86915594 0.35913938
vt 0.86915594 0.3175825
vt 0.89937913 0.2873593
vt 0.93715817 0.2873593
vt 0.71048415 0.015350461
vt 0.94471395 0.049351566
vt 0.94471395 0.015350461
vt 0.71048415 0.049351566
vt 0.94471395 0.079574764
vt 0.29491508 0.049351566
vt 0.29491508 0.015350461
vt 0.030462062 0.015350461
vt 0.030462062 0.049351566
vt 0.29491508 0.079574764
vt 0.030462062 0.079574764
vt 0.71048415 0.079574764
vt 0.94471395 0.11357587
vt 0.29491508 0.11357587
vt 0.030462062 0.11357587
vt 0.71048415 0.11357587
vt 0.94471395 0.14379907
vt 0.29491508 0.14379907
vt 0.030462062 0.14379907
vt 0.71048415 0.14379907
vt 0.94471395 0.17780018
vt 0.29491508 0.17780018
vt 0.030462062 0.17780018
vt 0.71048415 0.17780018
vt 0.94471395 0.20802338
vt 0.29491508 0.20802338
vt 0.030462062 0.20802338
vt 0.71048415 0.20802338
vt 0.94471395 0.24202448
vt 0.29491508 0.24202448
vt 0.030462062 0.24202448
vt 0.71048415 0.24202448
vt 0.94471395 0.27224767
vt 0.71048415 0.27224767
vt 0.29491508 0.27224767
vt 0.030462062 0.27224767
vt 0.74070734 0.2873593
vt 0.85782224 0.33269408
vt 0.85782224 0.2873593
vt 0.74070734 0.33269408
vt 0.85782224 0.3780289
vt 0.74070734 0.3780289
vt 0.85782224 0.4195858
vt 0.74070734 0.4195858
vt 0.85782224 0.4649206
vt 0.74070734 0.4649206
vt 0.85782224 0.5102554
vt 0.74070734 0.5102554
vt 0.85782224 0.5555902
vt 0.74070734 0.5555902
vt 0.85782224 0.5971471
vt 0.74070734 0.5971471
vt 0.85782224 0.6424819
vt 0.74070734 0.6424819
vt 0.15135488 0.57070184
vt 0.31002668 0.6500377
vt 0.3440278 0.5669239
vt 0.17402227 0.5140333
vt 0.019128362 0.4838101
vt 0.060685266 0.4762543
vt 0.19291177 0.4384753
vt 0.041795764 0.3931405
vt 0.072018966 0.4195858
vt 0.20046757 0.3818068
vt 0.37425098 0.3818068
vt 0.3666952 0.4686985
vt 0.041795764 0.3931405
vt 0.019128362 0.4838101
vt 0.060685266 0.4762543
vt 0.072018966 0.4195858
vt 0.19291177 0.4384753
vt 0.17402227 0.5140333
vt 0.3666952 0.4686985
vt 0.3440278 0.5669239
vt 0.20046757 0.2911372
vt 0.03801786 0.29869297
vt 0.041795764 0.3931405
vt 0.20046757 0.3818068
vt 0.3666952 0.28358138
vt 0.37425098 0.3818068
vt 0.6575935 0.4611427
vt 0.4913659 0.5404786
vt 0.55936813 0.600925
vt 0.6160366 0.4195858
vt 0.72937363 0.32136038
vt 0.6915946 0.3440278
vt 0.563146 0.3289162
vt 0.6840388 0.33269408
vt 0.714262 0.30624878
vt 0.5895913 0.3818068
vt 0.3969184 0.3780289
vt 0.4346974 0.4611427
vt 0.714262 0.30624878
vt 0.6915946 0.3440278
vt 0.72937363 0.32136038
vt 0.6840388 0.33269408
vt 0.5895913 0.3818068
vt 0.6160366 0.4195858
vt 0.4346974 0.4611427
vt 0.4913659 0.5404786
vt 0.5555902 0.29491508
vt 0.714262 0.30624878
vt 0.71803993 0.2873593
vt 0.563146 0.3289162
vt 0.3893626 0.2873593
vt 0.3969184 0.3780289
vt 0.90315706 0.6311482
vt 0.9484918 0.6311482
vt 0.8729338 0.600925
vt 0.8729338 0.5555902
vt 0.90315706 0.525367
vt 0.9484918 0.525367
vt 0.97871506 0.5555902
vt 0.97871506 0.600925
vt 0.8729338 0.4346974
vt 0.9484918 0.4044742
vt 0.90315706 0.4044742
vt 0.8729338 0.4800322
vt 0.90315706 0.5102554
vt 0.9484918 0.5102554
vt 0.97871506 0.4800322
vt 0.97871506 0.4346974
vn 0.23806524 0.968132 -0.07775179
vn 0.23806524 0.968132 -0.07775179
vn 0.23806524 0.968132 -0.07775179
vn 0.23806524 0.968132 -0.07775179
vn 0.23806524 0.968132 -0.07775179
vn 0.23806524 0.968132 0.07775179
vn 0.23806524 0.968132 0.07775179
vn 0.23806524 0.968132 0.07775179
vn 0.26845825 -0.9632913 -0
vn 0.26845825 -0.9632913 -0
vn 0.26845825 -0.9632913 -0
vn 0.26845825 -0.9632913 -0
vn 0.26845825 -0.9632913 -0
vn 0.26845825 -0.9632913 -0
vn 0.26845825 -0.9632913 -0
vn 0.26845825 -0.9632913 -0
vn -0.999874 0.015871048 -0.00034391563
vn -0.7776798 0.047613025 0.62685496
vn -0.999874 0.015871048 -0.00034391563
vn -0.7459378 0.015871048 0.66582644
vn -0.07935512 0.047613025 0.9957087
vn -0.7459378 -0.015870988 0.66582644
vn -0.999874 -0.015870988 -0.00034665503
vn -0.999874 -0.015870988 -0.00034665503
vn -0.7459378 -0.047613025 0.66431147
vn -0.015871048 -0.015870988 0.99974805
vn -0.07935512 -0.047613025 0.9957087
vn -0.015871048 0.047613025 0.9987398
vn 0.7141957 0.07935512 0.69543314
vn 0.7459377 -0.015870988 0.66582656
vn 0.7141957 -0.047613025 0.6983248
vn 0.7141957 0.047613025 0.6983248
vn 0.9968654 0.079116344 -0
vn 0.999874 -0.015870988 -0.00034665503
vn 0.99886817 -0.04756513 -0
vn 0.99886817 0.04756513 -0
vn 0.7141957 0.07935512 -0.69543314
vn 0.7459377 -0.015870988 -0.66582656
vn 0.7141957 -0.047613025 -0.6983248
vn 0.7141957 0.047613025 -0.6983248
vn -0.07935512 0.047613025 -0.9957087
vn -0.015871048 -0.015870988 -0.99974805
vn -0.07935512 -0.047613025 -0.9957087
vn -0.015871048 0.047613025 -0.9987398
vn -0.7776798 0.047613025 -0.62685496
vn -0.7459378 -0.015870988 -0.66582644
vn -0.7459378 -0.047613025 -0.66431147
vn -0.7459378 0.015871048 -0.66582644
vn -0.999874 0.015871048 -0.00034391563
vn -0.999874 0.015871048 -0.00034391563
vn -0.999874 -0.015870988 -0.00034665503
vn -0.999874 -0.015870988 -0.00034665503
vn -0.999874 0.015871048 -0.00034391563
vn -0.7459378 0.015871048 -0.66582644
vn -0.999874 0.015871048 -0.00034391563
vn -0.7459378 0.015871048 -0.66582644
vn -0.015871048 0.015871048 -0.99974805
vn -0.015871048 0.015871048 -0.99974805
vn 0.7459377 -0.015870988 -0.66582656
vn 0.7459377 -0.015870988 -0.66582656
vn 0.999874 -0.015870988 -0.00034665503
vn 0.999874 -0.015870988 -0.00034665503
vn 0.7459377 0.015871048 0.66582656
vn 0.7459377 0.015871048 0.66582656
vn -0.015871048 0.015871048 0.99974805
vn -0.015871048 0.015871048 0.99974805
vn -0.7459378 0.015871048 0.66582644
vn -0.7459378 0.015871048 0.66582644
vn -0.999874 0.015871048 -0.00034391563
vn -0.999874 0.015871048 -0.00034391563
vn -0.015871048 0.1110971 0.9936828
vn 0.015870988 0.047613025 0.9987398
vn 0.015870988 0.047613025 0.9987398
vn -0.015871048 0.1428392 0.98961866
vn 0.015870988 0.46025944 0.8876426
vn 0.1110971 0.6189697 0.77751786
vn -0.015871048 0.1428392 -0.98961866
vn 0.015870988 0.46025944 -0.8876426
vn 0.1110971 0.6189697 -0.77751786
vn -0.015871048 0.1110971 -0.9936828
vn 0.015870988 0.047613025 -0.9987398
vn 0.015870988 0.047613025 -0.9987398
vn 0.68245363 0.7141957 -0.15550417
vn 0.68245363 0.7141957 -0.15550417
vn 0.49101302 0.87115216 -0
vn 0.49101302 0.87115216 -0
vn 0.14142135 0.98994946 -0
vn 0.14142135 0.98994946 -0
vn 0.079116285 0.9968654 -0
vn 0.079116285 0.9968654 -0
vn 0.079116285 -0.9968654 -0
vn 0.015870988 -0.999874 -0.00034526698
vn 0.015870988 -0.999874 -0.00034526698
vn 0.079116285 -0.9968654 -0
vn 0.110431515 -0.9938838 -0
vn 0.110431515 -0.9938838 -0
vn -0.1428392 -0.015870988 0.98961866
vn -0.1428392 -0.015870988 0.98961866
vn -0.1428392 -0.015870988 0.98961866
vn -0.1428392 -0.015870988 0.98961866
vn -0.1110971 -0.015870988 0.9936828
vn -0.1110971 -0.015870988 0.9936828
vn -0.1428392 -0.015870988 -0.98961866
vn -0.1110971 -0.015870988 -0.9936828
vn -0.1110971 -0.015870988 -0.9936828
vn -0.1428392 -0.015870988 -0.98961866
vn -0.1428392 -0.015870988 -0.98961866
vn -0.1428392 -0.015870988 -0.98961866
vn -0.68245375 0.7141957 -0.15550359
vn -0.46025944 0.87290585 -0.16185382
vn -0.68245375 0.7141957 -0.15550359
vn -0.46025944 0.87290585 -0.16185382
vn -0.14142141 0.98994946 -0
vn -0.14142141 0.98994946 -0
vn -0.079116344 0.9968654 -0
vn -0.079116344 0.9968654 -0
vn -0.079116344 -0.9968654 -0
vn -0.015871048 -0.999874 -0.00034526698
vn -0.015871048 -0.999874 -0.00034526698
vn -0.079116344 -0.9968654 -0
vn -0.110431515 -0.9938838 -0
vn -0.110431515 -0.9938838 -0
vn -0.015871048 0.999874 -0.00034526698
vn -0.015871048 0.999874 -0.00034526698
vn -0.015871048 0.999874 -0.00034526698
vn 0.015870988 0.999874 -0.00034526698
vn -0.015871048 0.999874 -0.00034526698
vn 0.015870988 0.999874 -0.00034526698
vn 0.015870988 0.999874 -0.00034526698
vn -0.015871048 0.999874 -0.00034526698
vn -0.015871048 -0.999874 -0.00034526698
vn -0.015871048 -0.999874 -0.00034526698
vn -0.015871048 -0.999874 -0.00034526698
vn -0.015871048 -0.999874 -0.00034526698
vn -0.015871048 -0.999874 -0.00034526698
vn 0.015870988 -0.999874 -0.00034526698
vn -0.015871048 -0.999874 -0.00034526698
vn -0.015871048 -0.999874 -0.00034526698
g Pickaxe_A_0
f 3/3/3 2/2/2 1/1/1
f 3/3/3 1/1/1 4/4/4
f 4/4/4 1/1/1 5/5/5
f 5/5/5 1/1/1 6/6/6
f 6/6/6 1/1/1 7/7/7
f 1/1/1 8/8/8 7/7/7
f 11/11/11 10/10/10 9/9/9
f 10/10/10 12/12/12 9/9/9
f 9/9/9 12/12/12 13/13/13
f 13/13/13 14/14/14 9/9/9
f 9/9/9 14/14/14 15/15/15
f 9/9/9 15/15/15 16/16/16
f 19/19/19 18/18/18 17/17/17
f 18/18/18 20/20/20 17/17/17
f 18/18/18 21/21/21 20/20/20
f 20/20/20 22/22/22 17/17/17
f 22/22/22 23/23/23 17/17/17
f 23/23/23 22/22/22 24/24/24
f 22/22/22 25/25/25 24/24/24
f 22/22/22 26/26/26 25/25/25
f 26/26/26 22/22/22 20/20/20
f 26/26/26 27/27/27 25/25/25
f 21/21/21 28/28/28 20/20/20
f 28/28/28 26/26/26 20/20/20
f 21/21/21 29/29/29 28/28/28
f 26/26/26 30/30/30 27/27/27
f 30/30/30 26/26/26 28/28/28
f 30/30/30 31/31/31 27/27/27
f 29/29/29 32/32/32 28/28/28
f 32/32/32 30/30/30 28/28/28
f 29/29/29 33/33/33 32/32/32
f 30/30/30 34/34/34 31/31/31
f 34/34/34 30/30/30 32/32/32
f 34/34/34 35/35/35 31/31/31
f 33/33/33 36/36/36 32/32/32
f 36/36/36 34/34/34 32/32/32
f 33/33/33 37/37/37 36/36/36
f 34/34/34 38/38/38 35/35/35
f 38/38/38 34/34/34 36/36/36
f 38/38/38 39/39/39 35/35/35
f 37/37/37 40/40/40 36/36/36
f 40/40/40 38/38/38 36/36/36
f 37/37/37 41/41/41 40/40/40
f 38/38/38 42/42/42 39/39/39
f 42/42/42 38/38/38 40/40/40
f 42/42/42 43/43/43 39/39/39
f 41/41/41 44/44/44 40/40/40
f 44/44/44 42/42/42 40/40/40
f 41/41/41 45/45/45 44/44/44
f 42/42/42 46/46/46 43/43/43
f 46/46/46 42/42/42 44/44/44
f 46/46/46 47/47/47 43/43/43
f 45/45/45 48/48/48 44/44/44
f 48/48/48 46/46/46 44/44/44
f 45/45/45 49/49/49 48/48/48
f 49/49/49 50/50/50 48/48/48
f 50/50/50 51/51/51 48/48/48
f 51/51/51 46/46/46 48/48/48
f 46/46/46 51/51/51 47/47/47
f 51/51/51 52/52/52 47/47/47
f 55/55/55 54/54/54 53/53/53
f 54/54/54 56/56/56 53/53/53
f 54/54/54 57/57/57 56/56/56
f 57/57/57 58/58/58 56/56/56
f 57/57/57 59/59/59 58/58/58
f 59/59/59 60/60/60 58/58/58
f 59/59/59 61/61/61 60/60/60
f 61/61/61 62/62/62 60/60/60
f 61/61/61 63/63/63 62/62/62
f 63/63/63 64/64/64 62/62/62
f 63/63/63 65/65/65 64/64/64
f 65/65/65 66/66/66 64/64/64
f 65/65/65 67/67/67 66/66/66
f 67/67/67 68/68/68 66/66/66
f 67/67/67 69/69/69 68/68/68
f 69/69/69 70/70/70 68/68/68
f 73/73/73 72/72/72 71/71/71
f 74/74/74 73/73/73 71/71/71
f 75/75/75 74/74/74 71/71/71
f 76/76/76 74/74/74 75/75/75
f 79/79/79 78/78/78 77/77/77
f 77/77/77 78/78/78 80/80/80
f 77/77/77 80/80/80 81/81/81
f 82/82/82 77/77/77 81/81/81
f 85/85/85 84/84/84 83/83/83
f 86/86/86 85/85/85 83/83/83
f 85/85/85 86/86/86 87/87/87
f 88/88/88 85/85/85 87/87/87
f 88/88/88 87/87/87 89/89/89
f 90/90/90 88/88/88 89/89/89
f 93/93/93 92/92/92 91/91/91
f 94/94/94 93/93/93 91/91/91
f 94/94/94 91/91/91 95/95/95
f 96/96/96 94/94/94 95/95/95
f 99/99/99 98/98/98 97/97/97
f 98/98/98 100/100/100 97/97/97
f 97/97/97 100/100/100 101/101/101
f 100/100/100 102/102/102 101/101/101
f 105/105/105 104/104/104 103/103/103
f 104/104/104 106/106/106 103/103/103
f 103/103/103 106/106/106 107/107/107
f 106/106/106 108/108/108 107/107/107
f 111/111/111 110/110/110 109/109/109
f 110/110/110 112/112/112 109/109/109
f 112/112/112 110/110/110 113/113/113
f 110/110/110 114/114/114 113/113/113
f 113/113/113 114/114/114 115/115/115
f 114/114/114 116/116/116 115/115/115
f 119/119/119 118/118/118 117/117/117
f 118/118/118 120/120/120 117/117/117
f 117/117/117 120/120/120 121/121/121
f 120/120/120 122/122/122 121/121/121
f 125/125/125 124/124/124 123/123/123
f 126/126/126 124/124/124 125/125/125
f 127/127/127 124/124/124 126/126/126
f 128/128/128 124/124/124 127/127/127
f 129/129/129 124/124/124 128/128/128
f 130/130/130 124/124/124 129/129/129
f 133/133/133 132/132/132 131/131/131
f 131/131/131 132/132/132 134/134/134
f 134/134/134 132/132/132 135/135/135
f 135/135/135 132/132/132 136/136/136
f 136/136/136 132/132/132 137/137/137
f 137/137/137 132/132/132 138/138/138
