g pictureEvent05Item09
v 0.2921171 0.49930573 0.06644589
v 0.36964422 0.4433139 0.06644589
v 0.20274553 0.5326854 0.06644589
v 0.43101984 0.37009382 0.06644589
v 0.107990146 0.5412996 0.06644589
v 0.47086018 0.28395253 0.06644589
v 0.014311552 0.52622485 0.06644589
v 0.48701167 0.1913507 0.06644589
v -0.071829736 0.48746133 0.06644589
v 0.47839755 0.09659535 0.06644589
v -0.14504981 0.4271624 0.06644589
v 0.4450178 0.008300543 0.06644589
v -0.19996482 0.35071206 0.06644589
v 0.39117953 -0.068149835 0.06644589
v -0.23334455 0.26241726 0.06644589
v 0.31795946 -0.1284487 0.06644589
v -0.24195868 0.16766185 0.06644589
v 0.2318182 -0.16721228 0.06644589
v -0.22473043 0.07506001 0.06644589
v 0.1381396 -0.18228698 0.06644589
v -0.18489009 -0.011081219 0.06644589
v 0.043384194 -0.1725961 0.06644589
v -0.12459123 -0.08430129 0.06644589
v -0.045987368 -0.13921636 0.06644589
v 0.2921171 0.49930573 -0.06599629
v 0.20274553 0.5326854 -0.06599629
v 0.36964422 0.4433139 -0.06599629
v 0.43101984 0.37009382 -0.06599629
v 0.107990146 0.5412996 -0.06599629
v 0.47086018 0.28395253 -0.06599629
v 0.014311552 0.52622485 -0.06599629
v 0.48701167 0.1913507 -0.06599629
v -0.071829736 0.48746133 -0.06599629
v 0.47839755 0.09659535 -0.06599629
v -0.14504981 0.4271624 -0.06599629
v 0.4450178 0.008300543 -0.06599629
v -0.19996482 0.35071206 -0.06599629
v 0.39117953 -0.068149835 -0.06599629
v -0.23334455 0.26241726 -0.06599629
v 0.31795946 -0.1284487 -0.06599629
v -0.24195868 0.16766185 -0.06599629
v 0.2318182 -0.16721228 -0.06599629
v -0.22473043 0.07506001 -0.06599629
v 0.1381396 -0.18228698 -0.06599629
v -0.18489009 -0.011081219 -0.06599629
v 0.043384194 -0.1725961 -0.06599629
v -0.12459123 -0.08430129 -0.06599629
v -0.045987368 -0.13921636 -0.06599629
v -0.21719307 -0.53761965 -0.033693314
v -0.20427191 -0.54408026 0.0007631779
v 0.02077216 -0.11983457 0.0007631779
v 0.007850945 -0.11229721 -0.033693314
v -0.24841928 -0.52146816 -0.048768044
v -0.023375273 -0.09614572 -0.048768044
v -0.2796455 -0.5042399 -0.033693314
v -0.05460149 -0.07999423 -0.033693314
v -0.2914899 -0.49777934 0.0007631779
v -0.06644589 -0.073533654 0.0007631779
v -0.2796455 -0.5042399 0.036296427
v -0.05460149 -0.07999423 0.036296427
v -0.24841928 -0.52146816 0.0502944
v -0.023375273 -0.09614572 0.0502944
v -0.21719307 -0.53761965 0.036296427
v 0.007850945 -0.11229721 0.036296427
v -0.20427191 -0.54408026 0.0007631779
v 0.02077216 -0.11983457 0.0007631779
v -0.21719307 -0.53761965 -0.033693314
v -0.24841928 -0.52146816 -0.048768044
v -0.2796455 -0.5042399 -0.033693314
v -0.2914899 -0.49777934 0.0007631779
v -0.20427191 -0.54408026 0.0007631779
v -0.2796455 -0.5042399 0.036296427
v -0.21719307 -0.53761965 0.036296427
v -0.24841928 -0.52146816 0.0502944
v 0.29965442 0.51330364 -0.00031358004
v 0.36964422 0.4433139 0.06644589
v 0.2921171 0.49930573 0.06644589
v 0.38041186 0.4551583 -0.00031358004
v 0.20597583 0.5477601 -0.00031358004
v 0.43101984 0.37009382 0.06644589
v 0.20274553 0.5326854 0.06644589
v 0.44394106 0.37870795 -0.00031358004
v 0.10691339 0.557451 -0.00031358004
v 0.47086018 0.28395253 0.06644589
v 0.107990146 0.5412996 0.06644589
v 0.4859349 0.28933638 -0.00031358004
v 0.008927703 0.5412996 -0.00031358004
v 0.48701167 0.1913507 0.06644589
v 0.014311552 0.52622485 0.06644589
v 0.50316316 0.1913507 -0.00031358004
v -0.08044386 0.5003824 -0.00031358004
v 0.47839755 0.09659535 0.06644589
v -0.071829736 0.48746133 0.06644589
v 0.49347228 0.09336501 -0.00031358004
v -0.1568942 0.43793005 -0.00031358004
v 0.4450178 0.008300543 0.06644589
v -0.14504981 0.4271624 0.06644589
v 0.46009254 0.0007631779 -0.00031358004
v -0.2139628 0.35824937 -0.00031358004
v 0.39117953 -0.068149835 0.06644589
v -0.19996482 0.35071206 0.06644589
v 0.40302396 -0.07891747 -0.00031358004
v -0.24841928 0.26564753 -0.00031358004
v 0.31795946 -0.1284487 0.06644589
v -0.23334455 0.26241726 0.06644589
v 0.32657358 -0.14136988 -0.00031358004
v -0.2570334 0.16766185 -0.00031358004
v 0.2318182 -0.16721228 0.06644589
v -0.24195868 0.16766185 0.06644589
v 0.23612526 -0.18228698 -0.00031358004
v -0.24088192 0.06967616 -0.00031358004
v 0.1381396 -0.18228698 0.06644589
v -0.22473043 0.07506001 0.06644589
v 0.1381396 -0.19843847 -0.00031358004
v -0.19888806 -0.019695342 -0.00031358004
v 0.043384194 -0.1725961 0.06644589
v -0.18489009 -0.011081219 0.06644589
v 0.039077163 -0.18874758 -0.00031358004
v -0.13535887 -0.09614572 -0.00031358004
v -0.045987368 -0.13921636 0.06644589
v -0.12459123 -0.08430129 0.06644589
v -0.053524673 -0.1532143 -0.00031358004
v 0.29965442 0.51330364 -0.00031358004
v 0.2921171 0.49930573 -0.06599629
v 0.36964422 0.4433139 -0.06599629
v 0.38041186 0.4551583 -0.00031358004
v 0.20597583 0.5477601 -0.00031358004
v 0.43101984 0.37009382 -0.06599629
v 0.20274553 0.5326854 -0.06599629
v 0.44394106 0.37870795 -0.00031358004
v 0.10691339 0.557451 -0.00031358004
v 0.47086018 0.28395253 -0.06599629
v 0.107990146 0.5412996 -0.06599629
v 0.4859349 0.28933638 -0.00031358004
v 0.008927703 0.5412996 -0.00031358004
v 0.48701167 0.1913507 -0.06599629
v 0.014311552 0.52622485 -0.06599629
v 0.50316316 0.1913507 -0.00031358004
v -0.08044386 0.5003824 -0.00031358004
v 0.47839755 0.09659535 -0.06599629
v -0.071829736 0.48746133 -0.06599629
v 0.49347228 0.09336501 -0.00031358004
v -0.1568942 0.43793005 -0.00031358004
v 0.4450178 0.008300543 -0.06599629
v -0.14504981 0.4271624 -0.06599629
v 0.46009254 0.0007631779 -0.00031358004
v -0.2139628 0.35824937 -0.00031358004
v 0.39117953 -0.068149835 -0.06599629
v -0.19996482 0.35071206 -0.06599629
v 0.40302396 -0.07891747 -0.00031358004
v -0.24841928 0.26564753 -0.00031358004
v 0.31795946 -0.1284487 -0.06599629
v -0.23334455 0.26241726 -0.06599629
v 0.32657358 -0.14136988 -0.00031358004
v -0.2570334 0.16766185 -0.00031358004
v 0.2318182 -0.16721228 -0.06599629
v -0.24195868 0.16766185 -0.06599629
v 0.23612526 -0.18228698 -0.00031358004
v -0.24088192 0.06967616 -0.00031358004
v 0.1381396 -0.18228698 -0.06599629
v -0.22473043 0.07506001 -0.06599629
v 0.1381396 -0.19843847 -0.00031358004
v -0.19888806 -0.019695342 -0.00031358004
v 0.043384194 -0.1725961 -0.06599629
v -0.18489009 -0.011081219 -0.06599629
v 0.039077163 -0.18874758 -0.00031358004
v -0.13535887 -0.09614572 -0.00031358004
v -0.045987368 -0.13921636 -0.06599629
v -0.12459123 -0.08430129 -0.06599629
v -0.053524673 -0.1532143 -0.00031358004
vt 0.27682108 0.051134497
vt 0.21944313 0.058784887
vt 0.334199 0.058784887
vt 0.16589038 0.08173607
vt 0.38392657 0.08173607
vt 0.12381323 0.11616284
vt 0.4298289 0.11616284
vt 0.08556127 0.16206518
vt 0.4642557 0.16206518
vt 0.066435285 0.21561792
vt 0.48720685 0.21561792
vt 0.058784887 0.26917067
vt 0.49485725 0.26917067
vt 0.066435285 0.3265486
vt 0.48720685 0.3265486
vt 0.08556127 0.38010135
vt 0.4642557 0.38010135
vt 0.12381323 0.42600372
vt 0.4298289 0.42600372
vt 0.16589038 0.46043047
vt 0.38392657 0.46043047
vt 0.21944313 0.48338166
vt 0.334199 0.48338166
vt 0.27682108 0.49103206
vt 0.72436905 0.3456746
vt 0.781747 0.35332498
vt 0.66699106 0.35332498
vt 0.6134383 0.37627617
vt 0.83147454 0.37627617
vt 0.5713612 0.41070294
vt 0.87737685 0.41070294
vt 0.53693444 0.4566053
vt 0.91180366 0.4527801
vt 0.51398325 0.5063329
vt 0.9347548 0.5063329
vt 0.5063329 0.5637108
vt 0.9424052 0.5637108
vt 0.51398325 0.62108874
vt 0.9347548 0.62108874
vt 0.53693444 0.6746415
vt 0.91180366 0.6746415
vt 0.5713612 0.7205438
vt 0.87737685 0.7205438
vt 0.61726356 0.7549706
vt 0.83147454 0.7549706
vt 0.66699106 0.77409655
vt 0.781747 0.77409655
vt 0.72436905 0.781747
vt 0.6478651 0.8506005
vt 0.6478651 0.83147454
vt 0.016707733 0.83147454
vt 0.016707733 0.8506005
vt 0.6478651 0.8697265
vt 0.016707733 0.8697265
vt 0.6478651 0.8888525
vt 0.016707733 0.8888525
vt 0.6478651 0.9079784
vt 0.016707733 0.9079784
vt 0.6478651 0.9309296
vt 0.016707733 0.9309296
vt 0.6478651 0.9500556
vt 0.016707733 0.9500556
vt 0.6478651 0.9691816
vt 0.016707733 0.9691816
vt 0.6478651 0.98830754
vt 0.016707733 0.98830754
vt 0.2538699 0.6555155
vt 0.23474391 0.6478651
vt 0.21561792 0.6555155
vt 0.20796753 0.6746415
vt 0.2615203 0.6746415
vt 0.21561792 0.6937674
vt 0.2538699 0.6937674
vt 0.23474391 0.70141786
vt 0.27682108 0.012882536
vt 0.21944313 0.058784887
vt 0.27682108 0.051134497
vt 0.20796753 0.020532928
vt 0.34184942 0.020532928
vt 0.16589038 0.08173607
vt 0.334199 0.058784887
vt 0.1467644 0.0473093
vt 0.40687773 0.0473093
vt 0.12381323 0.11616284
vt 0.38392657 0.08173607
vt 0.09321166 0.08938646
vt 0.46043047 0.08938646
vt 0.08556127 0.16206518
vt 0.4298289 0.11616284
vt 0.051134497 0.1429392
vt 0.49868244 0.1429392
vt 0.066435285 0.21561792
vt 0.4642557 0.16206518
vt 0.024358124 0.20414235
vt 0.5254588 0.20414235
vt 0.058784887 0.26917067
vt 0.48720685 0.21561792
vt 0.016707733 0.26917067
vt 0.5331092 0.26917067
vt 0.066435285 0.3265486
vt 0.49485725 0.26917067
vt 0.024358124 0.3380242
vt 0.5254588 0.3380242
vt 0.08556127 0.38010135
vt 0.48720685 0.3265486
vt 0.051134497 0.39922735
vt 0.49868244 0.39922735
vt 0.12381323 0.42600372
vt 0.4642557 0.38010135
vt 0.09321166 0.4527801
vt 0.46043047 0.4527801
vt 0.16589038 0.46043047
vt 0.4298289 0.42600372
vt 0.1467644 0.49485725
vt 0.40687773 0.49485725
vt 0.21944313 0.48338166
vt 0.38392657 0.46043047
vt 0.20796753 0.51780844
vt 0.34184942 0.51780844
vt 0.27682108 0.49103206
vt 0.334199 0.48338166
vt 0.27682108 0.529284
vt 0.72436905 0.30742264
vt 0.72436905 0.3456746
vt 0.66699106 0.35332498
vt 0.6555155 0.31507304
vt 0.78939736 0.31507304
vt 0.6134383 0.37627617
vt 0.781747 0.35332498
vt 0.59431237 0.34184942
vt 0.85442567 0.34184942
vt 0.5713612 0.41070294
vt 0.83147454 0.37627617
vt 0.5407596 0.38392657
vt 0.9079784 0.38392657
vt 0.53693444 0.4566053
vt 0.87737685 0.41070294
vt 0.49868244 0.4336541
vt 0.9500556 0.4336541
vt 0.51398325 0.5063329
vt 0.91180366 0.4527801
vt 0.47573128 0.49868244
vt 0.9730068 0.49868244
vt 0.5063329 0.5637108
vt 0.9347548 0.5063329
vt 0.46808088 0.5637108
vt 0.98065716 0.5637108
vt 0.51398325 0.62108874
vt 0.9424052 0.5637108
vt 0.47573128 0.6325643
vt 0.9730068 0.6325643
vt 0.53693444 0.6746415
vt 0.9347548 0.62108874
vt 0.49868244 0.6937674
vt 0.9500556 0.6937674
vt 0.5713612 0.7205438
vt 0.91180366 0.6746415
vt 0.5407596 0.7473202
vt 0.9079784 0.7473202
vt 0.61726356 0.7549706
vt 0.87737685 0.7205438
vt 0.59431237 0.7855722
vt 0.85442567 0.78939736
vt 0.66699106 0.77409655
vt 0.83147454 0.7549706
vt 0.6593407 0.81234854
vt 0.78939736 0.81234854
vt 0.72436905 0.781747
vt 0.781747 0.77409655
vt 0.72436905 0.8238241
vn -0.015855074 0.015855074 0.9997485
vn -0.015855074 -0.015855074 0.9997485
vn -0.015855074 -0.015855074 0.9997485
vn -0.015855074 -0.015855074 0.9997485
vn -0.015855074 -0.015855074 0.9997485
vn -0.015855074 0.015855074 0.9997485
vn -0.015855074 0.015855074 0.9997485
vn -0.015855074 -0.015855074 0.9997485
vn -0.015855074 -0.015855074 0.9997485
vn -0.015855074 -0.015855074 0.9997485
vn -0.015855074 -0.015855074 0.9997485
vn -0.015855074 -0.015855074 0.9997485
vn -0.015855074 -0.015855074 0.9997485
vn -0.015855074 -0.015855074 0.9997485
vn -0.015855074 -0.015855074 0.9997485
vn -0.015855074 -0.015855074 0.9997485
vn -0.015855074 -0.015855074 0.9997485
vn -0.015855074 -0.015855074 0.9997485
vn -0.015855074 -0.015855074 0.9997485
vn -0.015855074 0.015855074 0.9997485
vn -0.015855074 0.015855074 0.9997485
vn -0.015855074 -0.015855074 0.9997485
vn -0.015855074 -0.015855074 0.9997485
vn -0.015855074 -0.015855074 0.9997485
vn -0.015855074 0.015855074 -0.9997485
vn -0.015855074 0.015855074 -0.9997485
vn -0.015855074 0.015855074 -0.9997485
vn 0.015855074 0.015855074 -0.9997485
vn 0.015855074 0.015855074 -0.9997485
vn -0.015855074 0.015855074 -0.9997485
vn -0.015855074 0.015855074 -0.9997485
vn -0.015855074 0.015855074 -0.9997485
vn -0.015855074 0.015855074 -0.9997485
vn -0.015855074 0.015855074 -0.9997485
vn -0.015855074 0.015855074 -0.9997485
vn -0.015855074 0.015855074 -0.9997485
vn -0.015855074 0.015855074 -0.9997485
vn -0.015855074 0.015855074 -0.9997485
vn -0.015855074 0.015855074 -0.9997485
vn 0.015855074 0.015855074 -0.9997485
vn 0.015855074 0.015855074 -0.9997485
vn -0.015855074 0.015855074 -0.9997485
vn -0.015855074 0.015855074 -0.9997485
vn -0.015855074 0.015855074 -0.9997485
vn -0.015855074 0.015855074 -0.9997485
vn -0.015855074 0.015855074 -0.9997485
vn -0.015855074 0.015855074 -0.9997485
vn -0.015855074 -0.015855074 -0.9997485
vn 0.61834705 -0.33295608 -0.71188986
vn 0.8720278 -0.4597965 -0.16779363
vn 0.8720278 -0.4597965 0.16779363
vn 0.61834705 -0.33295608 -0.71188986
vn -0.015855074 0.015855074 -0.9997485
vn -0.015855074 0.015855074 -0.9997485
vn -0.6183469 0.33295608 -0.7118899
vn -0.6183469 0.33295608 -0.7118899
vn -0.87202775 0.45979643 -0.16779397
vn -0.87202775 0.45979643 0.16779397
vn -0.6183469 0.33295608 0.7118899
vn -0.6183469 0.33295608 0.7118899
vn -0.015855074 0.015855074 0.9997485
vn -0.015855074 0.015855074 0.9997485
vn 0.61834705 -0.33295608 0.71188986
vn 0.61834705 -0.33295608 0.71188986
vn 0.8720278 -0.4597965 -0.16779363
vn 0.8720278 -0.4597965 0.16779363
vn -0.45979643 -0.8720278 -0.16779372
vn -0.45979643 -0.8720278 0.16779372
vn -0.45979643 -0.8720278 -0.16779372
vn -0.45979643 -0.8720278 -0.16779372
vn -0.45979643 -0.8720278 -0.16779372
vn -0.45979643 -0.8720278 0.16779372
vn -0.45979643 -0.8720278 0.16779372
vn -0.45979643 -0.8720278 -0.16779372
vn 0.4597965 0.87202775 -0.1677939
vn 0.6500571 0.71347725 0.26148817
vn 0.4597965 0.87202775 0.1677939
vn 0.6750135 0.7378054 -0
vn 0.23782581 0.9671581 -0.08968904
vn 0.80860764 0.5232166 0.2690689
vn 0.20611566 0.93544793 0.28714716
vn 0.8403177 0.5232166 -0.14181145
vn -0.047565103 0.9988681 -0.00034526698
vn 0.93544805 0.30124593 0.18489951
vn -0.015855074 0.9671581 0.25368056
vn 0.954758 0.2973836 -0
vn -0.29738364 0.95475805 -0
vn 0.96715814 0.047565103 0.24968515
vn -0.26953578 0.93544793 0.2286649
vn 0.9988682 0.047565103 -0
vn -0.5232166 0.8403176 -0.1418123
vn 0.93544805 -0.20611566 0.28714678
vn -0.5232166 0.8403176 0.1418123
vn 0.96715814 -0.20611566 -0.14873283
vn -0.7378055 0.6750134 -0
vn 0.8720278 -0.4597965 0.16779363
vn -0.71347725 0.6500571 0.2614881
vn 0.8720278 -0.4597965 -0.16779363
vn -0.87202775 0.45979643 -0.16779397
vn 0.7134773 -0.6500571 0.2614879
vn -0.87202775 0.45979643 0.16779397
vn 0.7378054 -0.6750135 -0
vn -0.9671581 0.2061156 -0.1487333
vn 0.5232167 -0.8403177 0.14181103
vn -0.93544793 0.2061156 0.28714722
vn 0.5232167 -0.8403177 -0.14181103
vn -0.9988681 -0.047565162 -0.00029666477
vn 0.2695359 -0.93544805 0.22866425
vn -0.9671581 -0.047565162 0.24968539
vn 0.29738367 -0.954758 -0
vn -0.95475805 -0.2973837 -0
vn 0.015855074 -0.96715814 0.25368032
vn -0.93544793 -0.301246 0.18490006
vn 0.047565162 -0.9988682 -0
vn -0.8403176 -0.5232167 -0.14181188
vn -0.2061156 -0.93544805 0.28714684
vn -0.8086076 -0.5232167 0.2690689
vn -0.23782575 -0.96715814 -0.089688376
vn -0.6750134 -0.7378055 -0
vn -0.45979643 -0.8720278 0.16779372
vn -0.6500571 -0.7134773 0.26148793
vn -0.45979643 -0.8720278 -0.16779372
vn 0.4597965 0.87202775 -0.1677939
vn 0.4597965 0.87202775 -0.1677939
vn 0.6500571 0.71347725 -0.26148817
vn 0.6750135 0.7378054 -0
vn 0.23782581 0.9671581 -0.08968904
vn 0.80860764 0.5232166 -0.2690689
vn 0.20611566 0.93544793 -0.28714716
vn 0.8403177 0.5232166 -0.14181145
vn -0.047565103 0.9988681 -0.00034526698
vn 0.93544805 0.30124593 -0.18489951
vn -0.015855074 0.9671581 -0.25368056
vn 0.954758 0.2973836 -0
vn -0.29738364 0.95475805 -0
vn 0.96715814 0.047565103 -0.24968515
vn -0.26953578 0.93544793 -0.2286649
vn 0.9988682 0.047565103 -0
vn -0.5232166 0.8403176 -0.1418123
vn 0.93544805 -0.20611566 -0.28714678
vn -0.5232166 0.8403176 -0.1418123
vn 0.96715814 -0.20611566 -0.14873283
vn -0.7378055 0.6750134 -0
vn 0.8720278 -0.4597965 -0.16779363
vn -0.71347725 0.6500571 -0.2614881
vn 0.8720278 -0.4597965 -0.16779363
vn -0.87202775 0.45979643 -0.16779397
vn 0.7134773 -0.6500571 -0.2614879
vn -0.87202775 0.45979643 -0.16779397
vn 0.7378054 -0.6750135 -0
vn -0.9671581 0.2061156 -0.1487333
vn 0.5232167 -0.8403177 -0.14181103
vn -0.93544793 0.2061156 -0.28714722
vn 0.5232167 -0.8403177 -0.14181103
vn -0.9988681 -0.047565162 -0.00029666477
vn 0.2695359 -0.93544805 -0.22866425
vn -0.9671581 -0.047565162 -0.24968539
vn 0.29738367 -0.954758 -0
vn -0.95475805 -0.2973837 -0
vn 0.015855074 -0.96715814 -0.25368032
vn -0.93544793 -0.301246 -0.18490006
vn 0.047565162 -0.9988682 -0
vn -0.8403176 -0.5232167 -0.14181188
vn -0.2061156 -0.93544805 -0.28714684
vn -0.8086076 -0.5232167 -0.2690689
vn -0.23782575 -0.96715814 -0.089688376
vn -0.6750134 -0.7378055 -0
vn -0.45979643 -0.8720278 -0.16779372
vn -0.6500571 -0.7134773 -0.26148793
vn -0.45979643 -0.8720278 -0.16779372
g pictureEvent05Item09_0
f 3/3/3 2/2/2 1/1/1
f 2/2/2 3/3/3 4/4/4
f 3/3/3 5/5/5 4/4/4
f 4/4/4 5/5/5 6/6/6
f 5/5/5 7/7/7 6/6/6
f 6/6/6 7/7/7 8/8/8
f 7/7/7 9/9/9 8/8/8
f 8/8/8 9/9/9 10/10/10
f 9/9/9 11/11/11 10/10/10
f 10/10/10 11/11/11 12/12/12
f 11/11/11 13/13/13 12/12/12
f 12/12/12 13/13/13 14/14/14
f 13/13/13 15/15/15 14/14/14
f 14/14/14 15/15/15 16/16/16
f 15/15/15 17/17/17 16/16/16
f 16/16/16 17/17/17 18/18/18
f 17/17/17 19/19/19 18/18/18
f 18/18/18 19/19/19 20/20/20
f 19/19/19 21/21/21 20/20/20
f 20/20/20 21/21/21 22/22/22
f 21/21/21 23/23/23 22/22/22
f 23/23/23 24/24/24 22/22/22
f 27/27/27 26/26/26 25/25/25
f 26/26/26 27/27/27 28/28/28
f 29/29/29 26/26/26 28/28/28
f 29/29/29 28/28/28 30/30/30
f 31/31/31 29/29/29 30/30/30
f 31/31/31 30/30/30 32/32/32
f 33/33/33 31/31/31 32/32/32
f 33/33/33 32/32/32 34/34/34
f 35/35/35 33/33/33 34/34/34
f 35/35/35 34/34/34 36/36/36
f 37/37/37 35/35/35 36/36/36
f 37/37/37 36/36/36 38/38/38
f 39/39/39 37/37/37 38/38/38
f 39/39/39 38/38/38 40/40/40
f 41/41/41 39/39/39 40/40/40
f 41/41/41 40/40/40 42/42/42
f 43/43/43 41/41/41 42/42/42
f 43/43/43 42/42/42 44/44/44
f 45/45/45 43/43/43 44/44/44
f 45/45/45 44/44/44 46/46/46
f 47/47/47 45/45/45 46/46/46
f 48/48/48 47/47/47 46/46/46
f 51/51/51 50/50/50 49/49/49
f 52/52/52 51/51/51 49/49/49
f 52/52/52 49/49/49 53/53/53
f 54/54/54 52/52/52 53/53/53
f 54/54/54 53/53/53 55/55/55
f 56/56/56 54/54/54 55/55/55
f 56/56/56 55/55/55 57/57/57
f 58/58/58 56/56/56 57/57/57
f 58/58/58 57/57/57 59/59/59
f 60/60/60 58/58/58 59/59/59
f 60/60/60 59/59/59 61/61/61
f 62/62/62 60/60/60 61/61/61
f 62/62/62 61/61/61 63/63/63
f 64/64/64 62/62/62 63/63/63
f 64/64/64 63/63/63 65/65/65
f 66/66/66 64/64/64 65/65/65
f 69/69/69 68/68/68 67/67/67
f 70/70/70 69/69/69 67/67/67
f 71/71/71 70/70/70 67/67/67
f 72/72/72 70/70/70 71/71/71
f 73/73/73 72/72/72 71/71/71
f 72/72/72 73/73/73 74/74/74
f 77/77/77 76/76/76 75/75/75
f 76/76/76 78/78/78 75/75/75
f 77/77/77 75/75/75 79/79/79
f 76/76/76 80/80/80 78/78/78
f 81/81/81 77/77/77 79/79/79
f 80/80/80 82/82/82 78/78/78
f 81/81/81 79/79/79 83/83/83
f 80/80/80 84/84/84 82/82/82
f 85/85/85 81/81/81 83/83/83
f 84/84/84 86/86/86 82/82/82
f 85/85/85 83/83/83 87/87/87
f 84/84/84 88/88/88 86/86/86
f 89/89/89 85/85/85 87/87/87
f 88/88/88 90/90/90 86/86/86
f 89/89/89 87/87/87 91/91/91
f 88/88/88 92/92/92 90/90/90
f 93/93/93 89/89/89 91/91/91
f 92/92/92 94/94/94 90/90/90
f 93/93/93 91/91/91 95/95/95
f 92/92/92 96/96/96 94/94/94
f 97/97/97 93/93/93 95/95/95
f 96/96/96 98/98/98 94/94/94
f 97/97/97 95/95/95 99/99/99
f 96/96/96 100/100/100 98/98/98
f 101/101/101 97/97/97 99/99/99
f 100/100/100 102/102/102 98/98/98
f 101/101/101 99/99/99 103/103/103
f 100/100/100 104/104/104 102/102/102
f 105/105/105 101/101/101 103/103/103
f 104/104/104 106/106/106 102/102/102
f 105/105/105 103/103/103 107/107/107
f 104/104/104 108/108/108 106/106/106
f 109/109/109 105/105/105 107/107/107
f 108/108/108 110/110/110 106/106/106
f 109/109/109 107/107/107 111/111/111
f 108/108/108 112/112/112 110/110/110
f 113/113/113 109/109/109 111/111/111
f 112/112/112 114/114/114 110/110/110
f 113/113/113 111/111/111 115/115/115
f 112/112/112 116/116/116 114/114/114
f 117/117/117 113/113/113 115/115/115
f 116/116/116 118/118/118 114/114/114
f 117/117/117 115/115/115 119/119/119
f 116/116/116 120/120/120 118/118/118
f 121/121/121 117/117/117 119/119/119
f 120/120/120 122/122/122 118/118/118
f 121/121/121 119/119/119 122/122/122
f 120/120/120 121/121/121 122/122/122
f 125/125/125 124/124/124 123/123/123
f 126/126/126 125/125/125 123/123/123
f 123/123/123 124/124/124 127/127/127
f 128/128/128 125/125/125 126/126/126
f 124/124/124 129/129/129 127/127/127
f 130/130/130 128/128/128 126/126/126
f 127/127/127 129/129/129 131/131/131
f 132/132/132 128/128/128 130/130/130
f 129/129/129 133/133/133 131/131/131
f 134/134/134 132/132/132 130/130/130
f 131/131/131 133/133/133 135/135/135
f 136/136/136 132/132/132 134/134/134
f 133/133/133 137/137/137 135/135/135
f 138/138/138 136/136/136 134/134/134
f 135/135/135 137/137/137 139/139/139
f 140/140/140 136/136/136 138/138/138
f 137/137/137 141/141/141 139/139/139
f 142/142/142 140/140/140 138/138/138
f 139/139/139 141/141/141 143/143/143
f 144/144/144 140/140/140 142/142/142
f 141/141/141 145/145/145 143/143/143
f 146/146/146 144/144/144 142/142/142
f 143/143/143 145/145/145 147/147/147
f 148/148/148 144/144/144 146/146/146
f 145/145/145 149/149/149 147/147/147
f 150/150/150 148/148/148 146/146/146
f 147/147/147 149/149/149 151/151/151
f 152/152/152 148/148/148 150/150/150
f 149/149/149 153/153/153 151/151/151
f 154/154/154 152/152/152 150/150/150
f 151/151/151 153/153/153 155/155/155
f 156/156/156 152/152/152 154/154/154
f 153/153/153 157/157/157 155/155/155
f 158/158/158 156/156/156 154/154/154
f 155/155/155 157/157/157 159/159/159
f 160/160/160 156/156/156 158/158/158
f 157/157/157 161/161/161 159/159/159
f 162/162/162 160/160/160 158/158/158
f 159/159/159 161/161/161 163/163/163
f 164/164/164 160/160/160 162/162/162
f 161/161/161 165/165/165 163/163/163
f 166/166/166 164/164/164 162/162/162
f 163/163/163 165/165/165 167/167/167
f 168/168/168 164/164/164 166/166/166
f 165/165/165 169/169/169 167/167/167
f 170/170/170 168/168/168 166/166/166
f 167/167/167 169/169/169 170/170/170
f 169/169/169 168/168/168 170/170/170
