g pictureEvent05Item08
v 0.13953122 -0.4050402 -0.53126574
v 0.0035122633 0.38604593 -0.55629325
v 0.0035122633 -0.4050402 -0.55629325
v 0.13953122 0.38604593 -0.53126574
v 0.2592279 -0.4050402 -0.4605359
v 0.2592279 0.38604593 -0.4605359
v 0.34736818 -0.4050402 -0.35389706
v 0.34736818 0.38604593 -0.35389706
v 0.39307052 -0.4050402 -0.2233189
v 0.39307052 0.38604593 -0.2233189
v 0.39198238 -0.4050402 -0.08512366
v 0.39198238 0.38604593 -0.08512366
v 0.34301555 -0.4050402 0.04436636
v 0.34301555 0.38604593 0.04436636
v 0.252699 -0.19285065 0.14991707
v 0.29840136 -0.4050402 0.09006876
v 0.252699 -0.3234288 0.14991707
v 0.252699 0.38604593 0.14991707
v 0.19285065 -0.0862118 0.18364978
v 0.13191417 0.38604593 0.21738249
v 0.11015114 -0.015481949 0.21738249
v -0.004104793 0.009545505 0.24023366
v -0.004104793 0.38604593 0.24023366
v -0.117272556 -0.015481949 0.21520615
v -0.14012372 0.38604593 0.21520615
v -0.19997203 -0.0862118 0.17929715
v -0.2587322 0.38604593 0.1444763
v -0.2587322 -0.19285065 0.1444763
v -0.3468725 0.38604593 0.037837446
v -0.3468725 -0.4050402 0.037837446
v -0.2587322 -0.32778144 0.1444763
v -0.3044346 -0.4050402 0.08571613
v -0.39257485 -0.4050402 -0.092740715
v -0.39257485 0.38604593 -0.092740715
v -0.3914867 -0.4050402 -0.23093596
v -0.3914867 0.38604593 -0.23093596
v -0.34251988 -0.4050402 -0.36042598
v -0.34251988 0.38604593 -0.36042598
v -0.2532915 -0.4050402 -0.4659767
v -0.2532915 0.38604593 -0.4659767
v -0.13250667 -0.4050402 -0.5334421
v -0.13250667 0.38604593 -0.5334421
v 0.0035122633 -0.4050402 -0.55629325
v 0.0035122633 0.38604593 -0.55629325
v 0.13953122 -0.4050402 -0.53126574
v 0.0035122633 -0.4050402 -0.55629325
v 0.2592279 -0.4050402 -0.4605359
v -0.13250667 -0.4050402 -0.5334421
v 0.34736818 -0.4050402 -0.35389706
v -0.2532915 -0.4050402 -0.4659767
v 0.39307052 -0.4050402 -0.2233189
v -0.34251988 -0.4050402 -0.36042598
v 0.39198238 -0.4050402 -0.08512366
v -0.3914867 -0.4050402 -0.23093596
v 0.34301555 -0.4050402 0.04436636
v -0.39257485 -0.4050402 -0.092740715
v 0.29840136 -0.4050402 0.09006876
v -0.3468725 -0.4050402 0.037837446
v -0.3044346 -0.4050402 0.08571613
v 0.13953122 0.38604593 -0.53126574
v 0.2592279 0.38604593 -0.4605359
v 0.0035122633 0.38604593 -0.55629325
v 0.34736818 0.38604593 -0.35389706
v -0.13250667 0.38604593 -0.5334421
v 0.39307052 0.38604593 -0.2233189
v -0.2532915 0.38604593 -0.4659767
v 0.39198238 0.38604593 -0.08512366
v -0.34251988 0.38604593 -0.36042598
v 0.34301555 0.38604593 0.04436636
v -0.3914867 0.38604593 -0.23093596
v 0.252699 0.38604593 0.14991707
v -0.39257485 0.38604593 -0.092740715
v 0.13191417 0.38604593 0.21738249
v -0.3468725 0.38604593 0.037837446
v -0.004104793 0.38604593 0.24023366
v -0.2587322 0.38604593 0.1444763
v -0.14012372 0.38604593 0.21520615
v 0.13191417 -0.32560515 0.21738249
v 0.1580298 -0.29840136 -0.031804204
v 0.252699 -0.3234288 0.14991707
v 0.08512366 -0.2994895 0.012809992
v -0.07157016 -0.32451698 0.22717583
v 0.1580298 -0.22984779 -0.031804204
v 0.252699 -0.3234288 0.14991707
v 0.252699 -0.19285065 0.14991707
v 0.19285065 -0.0862118 0.18364978
v 0.08512366 -0.12538525 0.012809992
v 0.11015114 -0.015481949 0.21738249
v 0.0035122633 -0.29840136 0.028044105
v 0.0035122633 -0.10471037 0.028044105
v -0.004104793 0.009545505 0.24023366
v -0.07809907 -0.2994895 0.012809992
v -0.2587322 -0.32778144 0.1444763
v -0.07809907 -0.12538525 0.012809992
v -0.117272556 -0.015481949 0.21520615
v -0.19997203 -0.0862118 0.17929715
v -0.14991707 -0.30057764 -0.031804204
v -0.2587322 -0.19285065 0.1444763
v -0.14991707 -0.22984779 -0.031804204
v -0.2598204 -0.40395206 0.2652611
v -0.32075685 -0.40395206 0.017162561
v -0.3664592 -0.35389706 -0.019834578
v -0.29681754 -0.35389706 0.26417297
v -0.29681754 -0.28969613 0.26417297
v -0.3664592 -0.28969613 -0.019834578
v -0.27940708 -0.28969613 0.36537105
v -0.27940708 -0.35389706 0.36537105
v -0.24349809 -0.40395206 0.35340142
v -0.22717583 -0.28969613 0.45568764
v -0.22717583 -0.35389706 0.45568764
v -0.19888389 -0.40395206 0.43174833
v -0.14882892 -0.28969613 0.5220649
v -0.14882892 -0.35389706 0.5220649
v -0.13033032 -0.40395206 0.4894203
v -0.051983416 -0.28969613 0.5568857
v -0.051983416 -0.35389706 0.5568857
v -0.045454502 -0.40395206 0.5209768
v 0.051390946 -0.28969613 0.5568857
v 0.051390946 -0.35389706 0.5568857
v 0.044862032 -0.40395206 0.5209768
v 0.14823642 -0.28969613 0.5220649
v 0.14823642 -0.35389706 0.5220649
v 0.12973785 -0.40395206 0.4894203
v 0.2276715 -0.28969613 0.45568764
v 0.2276715 -0.35389706 0.45568764
v 0.19937956 -0.40395206 0.43174833
v 0.2788146 -0.28969613 0.36537105
v 0.2788146 -0.35389706 0.36537105
v 0.24399376 -0.40395206 0.35340142
v 0.29731318 -0.28969613 0.26417297
v 0.29731318 -0.35389706 0.26417297
v 0.2592279 -0.40395206 0.2652611
v 0.3669549 -0.35389706 -0.019834578
v 0.3669549 -0.28969613 -0.019834578
v 0.32016438 -0.40395206 0.017162561
v -0.29681754 -0.28969613 0.26417297
v -0.3664592 -0.28969613 -0.019834578
v -0.29137677 -0.25813973 -0.05356723
v -0.23479289 -0.28969613 0.26417297
v -0.16950381 -0.28969613 0.4001919
v -0.27940708 -0.28969613 0.36537105
v -0.22717583 -0.28969613 0.45568764
v -0.06721753 -0.28969613 0.48615587
v -0.14882892 -0.28969613 0.5220649
v -0.051983416 -0.28969613 0.5568857
v 0.06662509 -0.28969613 0.48615587
v 0.051390946 -0.28969613 0.5568857
v 0.14823642 -0.28969613 0.5220649
v 0.16891131 -0.28969613 0.4001919
v 0.2276715 -0.28969613 0.45568764
v 0.2788146 -0.28969613 0.36537105
v 0.23528856 -0.28969613 0.26417297
v 0.29731318 -0.28969613 0.26417297
v 0.29404873 -0.25813973 -0.05356723
v 0.3669549 -0.28969613 -0.019834578
v 0.21787813 -0.31254733 0.22064692
v 0.15585351 -0.34954447 0.35340142
v 0.061184317 -0.36586672 0.42848384
v -0.061776817 -0.36586672 0.42848384
v -0.15535784 -0.34954447 0.35340142
v -0.21738249 -0.31254733 0.22064692
v 0.2592279 -0.40395206 0.2652611
v 0.32016438 -0.40395206 0.017162561
v -0.32075685 -0.40395206 0.017162561
v -0.2598204 -0.40395206 0.2652611
v -0.24349809 -0.40395206 0.35340142
v 0.24399376 -0.40395206 0.35340142
v -0.19888389 -0.40395206 0.43174833
v 0.19937956 -0.40395206 0.43174833
v -0.13033032 -0.40395206 0.4894203
v 0.12973785 -0.40395206 0.4894203
v -0.045454502 -0.40395206 0.5209768
v 0.044862032 -0.40395206 0.5209768
vt 0.933583 0.01312449
vt 0.98705363 0.31485158
vt 0.98705363 0.01312449
vt 0.933583 0.31485158
vt 0.8801124 0.01312449
vt 0.8801124 0.31485158
vt 0.8266418 0.01312449
vt 0.82282245 0.31485158
vt 0.76935184 0.01312449
vt 0.76935184 0.31485158
vt 0.7158812 0.01312449
vt 0.7158812 0.31485158
vt 0.66241056 0.01312449
vt 0.66241056 0.31485158
vt 0.60893995 0.09714975
vt 0.6394946 0.01312449
vt 0.60893995 0.043679133
vt 0.60893995 0.31485158
vt 0.58220464 0.13916239
vt 0.55546933 0.31485158
vt 0.55546933 0.16207837
vt 0.4981794 0.17353636
vt 0.4981794 0.31485158
vt 0.4447088 0.15825903
vt 0.4447088 0.31485158
vt 0.4179735 0.13916239
vt 0.39123818 0.31485158
vt 0.39123818 0.09714975
vt 0.33776754 0.31485158
vt 0.33776754 0.01312449
vt 0.39123818 0.043679133
vt 0.36068353 0.01312449
vt 0.28429693 0.01312449
vt 0.28429693 0.31485158
vt 0.23082632 0.01312449
vt 0.23082632 0.31485158
vt 0.17353636 0.01312449
vt 0.17353636 0.31485158
vt 0.120065734 0.01312449
vt 0.120065734 0.31485158
vt 0.066595115 0.01312449
vt 0.066595115 0.31485158
vt 0.01312449 0.01312449
vt 0.01312449 0.31485158
vt 0.23082632 0.64331394
vt 0.17735569 0.6547719
vt 0.28429693 0.6547719
vt 0.13152373 0.68150723
vt 0.3301289 0.68150723
vt 0.09333042 0.72351986
vt 0.36450288 0.72351986
vt 0.0780531 0.7731712
vt 0.38359952 0.7731712
vt 0.0780531 0.8266418
vt 0.38359952 0.8266418
vt 0.09333042 0.87629306
vt 0.37214154 0.84955776
vt 0.13152373 0.9183057
vt 0.15062039 0.9297637
vt 0.7922678 0.6547719
vt 0.8457384 0.64331394
vt 0.7387972 0.64331394
vt 0.89538974 0.61657864
vt 0.6929652 0.61657864
vt 0.9297637 0.574566
vt 0.6585913 0.574566
vt 0.94886035 0.5249147
vt 0.6394946 0.5249147
vt 0.94886035 0.4714441
vt 0.6394946 0.4714441
vt 0.9297637 0.4179735
vt 0.6585913 0.4179735
vt 0.89538974 0.37978017
vt 0.6929652 0.37978017
vt 0.8457384 0.34922555
vt 0.74261653 0.34922555
vt 0.7922678 0.3415869
vt 0.61657864 0.61657864
vt 0.6013013 0.7006039
vt 0.66241056 0.67004925
vt 0.5783853 0.6853266
vt 0.5134567 0.60512066
vt 0.60512066 0.72351986
vt 0.66241056 0.67004925
vt 0.6662299 0.74261653
vt 0.64331394 0.8037258
vt 0.5783853 0.75789386
vt 0.61657864 0.83428043
vt 0.5478307 0.6853266
vt 0.5478307 0.7731712
vt 0.5478307 0.8648351
vt 0.51727605 0.6853266
vt 0.42943147 0.67004925
vt 0.5210954 0.75789386
vt 0.4829021 0.8380998
vt 0.45234746 0.8037258
vt 0.4943601 0.7006039
vt 0.42943147 0.74261653
vt 0.4943601 0.72351986
vt 0.5096374 0.89538974
vt 0.4065155 0.89538974
vt 0.4065155 0.92212504
vt 0.5096374 0.92212504
vt 0.5096374 0.94886035
vt 0.4065155 0.94886035
vt 0.5478307 0.94886035
vt 0.5478307 0.92212504
vt 0.5478307 0.89538974
vt 0.58984333 0.94886035
vt 0.58984333 0.92212504
vt 0.58984333 0.89538974
vt 0.6280366 0.94886035
vt 0.6280366 0.92212504
vt 0.6280366 0.89538974
vt 0.67004925 0.94886035
vt 0.67004925 0.92212504
vt 0.67004925 0.89538974
vt 0.7120619 0.94886035
vt 0.7120619 0.92212504
vt 0.7120619 0.89538974
vt 0.75025517 0.94886035
vt 0.75025517 0.92212504
vt 0.75025517 0.89538974
vt 0.7922678 0.94886035
vt 0.7922678 0.92212504
vt 0.7922678 0.89538974
vt 0.8304611 0.94886035
vt 0.8304611 0.92212504
vt 0.8304611 0.89538974
vt 0.8724737 0.94886035
vt 0.8724737 0.92212504
vt 0.8724737 0.89538974
vt 0.97559565 0.92212504
vt 0.97559565 0.94886035
vt 0.97559565 0.89538974
vt 0.2919356 0.47526345
vt 0.3186709 0.36450288
vt 0.28811628 0.34922555
vt 0.2690196 0.47526345
vt 0.24610363 0.5363727
vt 0.28811628 0.51727605
vt 0.2690196 0.55546933
vt 0.20027167 0.57074666
vt 0.23464563 0.586024
vt 0.19263302 0.6013013
vt 0.14298172 0.57074666
vt 0.14680105 0.6013013
vt 0.10860774 0.586024
vt 0.09714975 0.5363727
vt 0.07423377 0.55546933
vt 0.05513712 0.51727605
vt 0.07423377 0.47526345
vt 0.05131779 0.47526345
vt 0.05513712 0.34922555
vt 0.02458248 0.36450288
vt 0.08569176 0.45998612
vt 0.11242707 0.5096374
vt 0.15062039 0.5363727
vt 0.19263302 0.540192
vt 0.22700699 0.5096374
vt 0.25756162 0.45998612
vt 0.58220464 0.4447088
vt 0.60893995 0.34922555
vt 0.3568642 0.34922555
vt 0.37978017 0.4447088
vt 0.38741884 0.47908276
vt 0.5783853 0.47908276
vt 0.4065155 0.5096374
vt 0.5592887 0.5096374
vt 0.4332508 0.5325534
vt 0.5325534 0.5325534
vt 0.46380544 0.54401135
vt 0.5019987 0.54401135
vn 0.36503333 0.015871048 -0.93085915
vn 0.015870988 0.015871048 -0.99974805
vn 0.015870988 0.015871048 -0.99974805
vn 0.36503333 0.015871048 -0.93085915
vn 0.65071166 0.015871048 -0.759159
vn 0.65071166 0.015871048 -0.759159
vn 0.87290585 0.015871048 -0.4876305
vn 0.87290585 0.015871048 -0.4876305
vn 0.999874 0.015871048 -0.00034391563
vn 0.999874 0.015871048 -0.00034391563
vn 0.96813196 0.015871048 0.24993728
vn 0.96813196 0.015871048 0.24993728
vn 0.9046479 -0.015870988 0.4258642
vn 0.9046479 -0.015870988 0.4258642
vn 0.7459377 -0.015870988 0.66582656
vn 0.7459377 -0.015870988 0.66582656
vn 0.7459377 -0.015870988 0.66582656
vn 0.65071166 0.015871048 0.759159
vn 0.46025944 -0.015870988 0.8876426
vn 0.30154932 -0.015870988 0.9533185
vn 0.23806524 -0.015870988 0.97111946
vn -0.015871048 -0.015870988 0.99974805
vn -0.015871048 -0.015870988 0.99974805
vn -0.26980734 -0.015870988 0.9627835
vn -0.3332913 -0.015870988 0.9426903
vn -0.49200153 -0.015870988 0.87044966
vn -0.65071166 -0.015870988 0.759159
vn -0.7459378 -0.015870988 0.66582644
vn -0.90464795 0.015871048 0.42586404
vn -0.90464795 -0.015870988 0.42586404
vn -0.7776798 -0.015870988 0.6284602
vn -0.7776798 -0.015870988 0.6284602
vn -0.999874 0.015871048 -0.00034391563
vn -0.999874 0.015871048 -0.00034391563
vn -0.968132 0.015871048 -0.24993704
vn -0.968132 0.015871048 -0.24993704
vn -0.87290585 0.015871048 -0.4876305
vn -0.87290585 0.015871048 -0.4876305
vn -0.65071166 0.015871048 -0.759159
vn -0.65071166 0.015871048 -0.759159
vn -0.3332913 0.015871048 -0.9426903
vn -0.3332913 0.015871048 -0.9426903
vn 0.015870988 0.015871048 -0.99974805
vn 0.015870988 0.015871048 -0.99974805
vn -0.015871048 -0.999874 -0.00034526698
vn -0.015871048 -0.999874 -0.00034526698
vn -0.015871048 -0.999874 -0.00034526698
vn -0.015871048 -0.999874 -0.00034526698
vn -0.015871048 -0.999874 -0.00034526698
vn -0.015871048 -0.999874 -0.00034526698
vn -0.015871048 -0.999874 -0.00034526698
vn -0.015871048 -0.999874 -0.00034526698
vn -0.015871048 -0.999874 -0.00034526698
vn -0.015871048 -0.999874 -0.00034526698
vn -0.015871048 -0.999874 -0.00034526698
vn -0.015871048 -0.999874 -0.00034526698
vn -0.015871048 -0.999874 -0.00034526698
vn -0.015871048 -0.999874 -0.00034526698
vn -0.015871048 -0.999874 -0.00034526698
vn -0.015871048 0.999874 -0.00034526698
vn -0.015871048 0.999874 -0.00034526698
vn -0.015871048 0.999874 -0.00034526698
vn -0.015871048 0.999874 -0.00034526698
vn -0.015871048 0.999874 -0.00034526698
vn -0.015871048 0.999874 -0.00034526698
vn -0.015871048 0.999874 -0.00034526698
vn -0.015871048 0.999874 -0.00034526698
vn -0.015871048 0.999874 -0.00034526698
vn -0.015871048 0.999874 -0.00034526698
vn -0.015871048 0.999874 -0.00034526698
vn -0.015871048 0.999874 -0.00034526698
vn -0.015871048 0.999874 -0.00034526698
vn -0.015871048 0.999874 -0.00034526698
vn -0.015871048 0.999874 -0.00034526698
vn -0.015871048 0.999874 -0.00034526698
vn -0.015871048 0.999874 -0.00034526698
vn -0.015871048 0.999874 -0.00034526698
vn 0.015870988 0.999874 -0.00034526698
vn -0.39677536 0.65071166 0.647413
vn -0.5237435 0.7776798 0.3477167
vn 0.14283913 0.87290585 0.46651083
vn -0.015871048 0.999874 -0.00034526698
vn -0.5237435 -0.2063232 0.8265128
vn -0.5237435 0.7776798 0.3477167
vn -0.8411639 -0.23806524 0.48555976
vn -0.5554856 -0.68245363 0.47507137
vn -0.1428392 -0.5872276 0.7967187
vn -0.20632327 -0.8411638 0.49987414
vn 0.015870988 0.7776798 0.6284602
vn -0.015871048 -0.68245363 0.7307566
vn -0.015871048 -0.87290585 0.4876305
vn -0.20632327 0.8411639 0.49987403
vn 0.46025944 0.8094218 0.3646885
vn 0.14283913 -0.5872276 0.7967187
vn 0.17458117 -0.8411638 0.511825
vn 0.5237435 -0.65071166 0.54978824
vn 0.30154932 0.7141957 0.6316585
vn 0.8094218 -0.23806524 0.5368066
vn 0.49200147 -0.2063232 0.8457927
vn -0.7776798 -0.5872276 0.22445023
vn -0.7776798 -0.5872276 0.22445023
vn -0.9363899 -0.2063232 0.28390953
vn -0.9363899 -0.30154932 0.1795603
vn -0.968132 0.015871048 0.24993704
vn -0.968132 0.015871048 0.24993704
vn -0.9363899 0.015871048 0.35060233
vn -0.90464795 -0.30154932 0.30113134
vn -0.7459378 -0.6189696 0.24587265
vn -0.7776798 0.015871048 0.6284602
vn -0.7459378 -0.30154932 0.593839
vn -0.6189697 -0.6189696 0.48348024
vn -0.49200153 0.015871048 0.87044966
vn -0.49200153 -0.30154932 0.8167022
vn -0.39677536 -0.6189696 0.6778244
vn -0.17458117 0.015871048 0.98451483
vn -0.17458117 -0.30154932 0.937331
vn -0.1428392 -0.5872276 0.7967187
vn 0.17458117 0.015871048 0.98451483
vn 0.17458117 -0.30154932 0.937331
vn 0.14283913 -0.5872276 0.7967187
vn 0.49200147 0.015871048 0.8704497
vn 0.49200147 -0.30154932 0.81670225
vn 0.39677536 -0.5872276 0.705502
vn 0.7776798 0.015871048 0.6284602
vn 0.7459377 -0.30154932 0.59383917
vn 0.6189696 -0.6189696 0.4834803
vn 0.9363899 0.015871048 0.35060233
vn 0.9046479 -0.30154932 0.30113155
vn 0.7459377 -0.6189696 0.245873
vn 0.96813196 0.015871048 0.24993728
vn 0.9363899 -0.30154932 0.1795603
vn 0.7776798 -0.5872276 0.22445023
vn 0.9363899 -0.2063232 0.28390953
vn 0.96813196 0.015871048 0.24993728
vn 0.7776798 -0.5872276 0.22445023
vn -0.14142141 0.98994946 -0
vn -0.20632327 0.968132 0.1419547
vn -0.015871048 0.968132 0.24993704
vn 0.172001 0.9850967 -0
vn 0.36503333 0.87290585 -0.32370672
vn 0.015870988 0.999874 -0.00034526698
vn 0.015870988 0.999874 -0.00034526698
vn 0.14283913 0.87290585 -0.46651083
vn -0.015871048 0.999874 -0.00034526698
vn -0.015871048 0.999874 -0.00034526698
vn -0.1428392 0.87290585 -0.46651083
vn 0.015870988 0.999874 -0.00034526698
vn -0.015871048 0.999874 -0.00034526698
vn -0.3650334 0.87290585 -0.32370663
vn -0.015871048 0.999874 -0.00034526698
vn -0.015871048 0.999874 -0.00034526698
vn -0.17458117 0.968132 -0.17956008
vn 0.14142135 0.98994946 -0
vn 0.015870988 0.968132 0.24993704
vn 0.2063232 0.968132 0.1419547
vn -0.047613025 0.968132 0.24587277
vn -0.1428392 0.968132 0.20571192
vn -0.17458117 0.9363899 -0.30445904
vn 0.17458117 0.9363899 -0.30445904
vn 0.14283913 0.968132 0.20571192
vn 0.047613025 0.968132 0.24587277
vn -0.015871048 -0.999874 -0.00034526698
vn -0.015871048 -0.999874 -0.00034526698
vn -0.015871048 -0.999874 -0.00034526698
vn -0.015871048 -0.999874 -0.00034526698
vn -0.015871048 -0.999874 -0.00034526698
vn -0.015871048 -0.999874 -0.00034526698
vn -0.015871048 -0.999874 -0.00034526698
vn -0.015871048 -0.999874 -0.00034526698
vn -0.015871048 -0.999874 -0.00034526698
vn -0.015871048 -0.999874 -0.00034526698
vn -0.015871048 -0.999874 -0.00034526698
vn -0.015871048 -0.999874 -0.00034526698
g pictureEvent05Item08_0
f 3/3/3 2/2/2 1/1/1
f 2/2/2 4/4/4 1/1/1
f 1/1/1 4/4/4 5/5/5
f 4/4/4 6/6/6 5/5/5
f 5/5/5 6/6/6 7/7/7
f 6/6/6 8/8/8 7/7/7
f 7/7/7 8/8/8 9/9/9
f 8/8/8 10/10/10 9/9/9
f 9/9/9 10/10/10 11/11/11
f 10/10/10 12/12/12 11/11/11
f 11/11/11 12/12/12 13/13/13
f 12/12/12 14/14/14 13/13/13
f 13/13/13 14/14/14 15/15/15
f 13/13/13 15/15/15 16/16/16
f 15/15/15 17/17/17 16/16/16
f 14/14/14 18/18/18 15/15/15
f 19/19/19 15/15/15 18/18/18
f 19/19/19 18/18/18 20/20/20
f 19/19/19 20/20/20 21/21/21
f 21/21/21 20/20/20 22/22/22
f 20/20/20 23/23/23 22/22/22
f 22/22/22 23/23/23 24/24/24
f 23/23/23 25/25/25 24/24/24
f 26/26/26 24/24/24 25/25/25
f 26/26/26 25/25/25 27/27/27
f 26/26/26 27/27/27 28/28/28
f 28/28/28 27/27/27 29/29/29
f 28/28/28 29/29/29 30/30/30
f 28/28/28 30/30/30 31/31/31
f 30/30/30 32/32/32 31/31/31
f 30/30/30 29/29/29 33/33/33
f 29/29/29 34/34/34 33/33/33
f 33/33/33 34/34/34 35/35/35
f 34/34/34 36/36/36 35/35/35
f 35/35/35 36/36/36 37/37/37
f 36/36/36 38/38/38 37/37/37
f 37/37/37 38/38/38 39/39/39
f 38/38/38 40/40/40 39/39/39
f 39/39/39 40/40/40 41/41/41
f 40/40/40 42/42/42 41/41/41
f 41/41/41 42/42/42 43/43/43
f 42/42/42 44/44/44 43/43/43
f 47/47/47 46/46/46 45/45/45
f 48/48/48 46/46/46 47/47/47
f 49/49/49 48/48/48 47/47/47
f 50/50/50 48/48/48 49/49/49
f 51/51/51 50/50/50 49/49/49
f 52/52/52 50/50/50 51/51/51
f 53/53/53 52/52/52 51/51/51
f 54/54/54 52/52/52 53/53/53
f 55/55/55 54/54/54 53/53/53
f 56/56/56 54/54/54 55/55/55
f 57/57/57 56/56/56 55/55/55
f 58/58/58 56/56/56 57/57/57
f 59/59/59 58/58/58 57/57/57
f 62/62/62 61/61/61 60/60/60
f 61/61/61 62/62/62 63/63/63
f 62/62/62 64/64/64 63/63/63
f 63/63/63 64/64/64 65/65/65
f 64/64/64 66/66/66 65/65/65
f 65/65/65 66/66/66 67/67/67
f 66/66/66 68/68/68 67/67/67
f 67/67/67 68/68/68 69/69/69
f 68/68/68 70/70/70 69/69/69
f 69/69/69 70/70/70 71/71/71
f 70/70/70 72/72/72 71/71/71
f 71/71/71 72/72/72 73/73/73
f 72/72/72 74/74/74 73/73/73
f 73/73/73 74/74/74 75/75/75
f 74/74/74 76/76/76 75/75/75
f 75/75/75 76/76/76 77/77/77
f 80/80/80 79/79/79 78/78/78
f 79/79/79 81/81/81 78/78/78
f 78/78/78 81/81/81 82/82/82
f 79/79/79 83/83/83 81/81/81
f 83/83/83 79/79/79 84/84/84
f 85/85/85 83/83/83 84/84/84
f 86/86/86 83/83/83 85/85/85
f 86/86/86 87/87/87 83/83/83
f 83/83/83 87/87/87 81/81/81
f 86/86/86 88/88/88 87/87/87
f 81/81/81 89/89/89 82/82/82
f 81/81/81 87/87/87 89/89/89
f 90/90/90 87/87/87 88/88/88
f 87/87/87 90/90/90 89/89/89
f 91/91/91 90/90/90 88/88/88
f 89/89/89 92/92/92 82/82/82
f 89/89/89 90/90/90 92/92/92
f 82/82/82 92/92/92 93/93/93
f 94/94/94 90/90/90 91/91/91
f 90/90/90 94/94/94 92/92/92
f 95/95/95 94/94/94 91/91/91
f 96/96/96 94/94/94 95/95/95
f 92/92/92 97/97/97 93/93/93
f 92/92/92 94/94/94 97/97/97
f 93/93/93 97/97/97 98/98/98
f 96/96/96 98/98/98 99/99/99
f 96/96/96 99/99/99 94/94/94
f 94/94/94 99/99/99 97/97/97
f 97/97/97 99/99/99 98/98/98
f 102/102/102 101/101/101 100/100/100
f 103/103/103 102/102/102 100/100/100
f 103/103/103 104/104/104 102/102/102
f 104/104/104 105/105/105 102/102/102
f 106/106/106 104/104/104 103/103/103
f 107/107/107 103/103/103 100/100/100
f 107/107/107 106/106/106 103/103/103
f 108/108/108 107/107/107 100/100/100
f 109/109/109 106/106/106 107/107/107
f 110/110/110 107/107/107 108/108/108
f 110/110/110 109/109/109 107/107/107
f 111/111/111 110/110/110 108/108/108
f 112/112/112 109/109/109 110/110/110
f 113/113/113 110/110/110 111/111/111
f 113/113/113 112/112/112 110/110/110
f 114/114/114 113/113/113 111/111/111
f 115/115/115 112/112/112 113/113/113
f 116/116/116 113/113/113 114/114/114
f 116/116/116 115/115/115 113/113/113
f 117/117/117 116/116/116 114/114/114
f 118/118/118 115/115/115 116/116/116
f 119/119/119 116/116/116 117/117/117
f 119/119/119 118/118/118 116/116/116
f 120/120/120 119/119/119 117/117/117
f 121/121/121 118/118/118 119/119/119
f 122/122/122 119/119/119 120/120/120
f 122/122/122 121/121/121 119/119/119
f 123/123/123 122/122/122 120/120/120
f 124/124/124 121/121/121 122/122/122
f 125/125/125 122/122/122 123/123/123
f 125/125/125 124/124/124 122/122/122
f 126/126/126 125/125/125 123/123/123
f 127/127/127 124/124/124 125/125/125
f 128/128/128 125/125/125 126/126/126
f 128/128/128 127/127/127 125/125/125
f 129/129/129 128/128/128 126/126/126
f 130/130/130 127/127/127 128/128/128
f 131/131/131 128/128/128 129/129/129
f 131/131/131 130/130/130 128/128/128
f 132/132/132 131/131/131 129/129/129
f 131/131/131 133/133/133 130/130/130
f 131/131/131 132/132/132 133/133/133
f 133/133/133 134/134/134 130/130/130
f 132/132/132 135/135/135 133/133/133
f 138/138/138 137/137/137 136/136/136
f 139/139/139 138/138/138 136/136/136
f 140/140/140 139/139/139 136/136/136
f 141/141/141 140/140/140 136/136/136
f 142/142/142 140/140/140 141/141/141
f 143/143/143 140/140/140 142/142/142
f 144/144/144 143/143/143 142/142/142
f 145/145/145 143/143/143 144/144/144
f 146/146/146 143/143/143 145/145/145
f 147/147/147 146/146/146 145/145/145
f 148/148/148 146/146/146 147/147/147
f 149/149/149 146/146/146 148/148/148
f 150/150/150 149/149/149 148/148/148
f 151/151/151 149/149/149 150/150/150
f 152/152/152 149/149/149 151/151/151
f 153/153/153 152/152/152 151/151/151
f 152/152/152 153/153/153 154/154/154
f 153/153/153 155/155/155 154/154/154
f 154/154/154 156/156/156 152/152/152
f 152/152/152 156/156/156 149/149/149
f 156/156/156 154/154/154 138/138/138
f 149/149/149 157/157/157 146/146/146
f 156/156/156 157/157/157 149/149/149
f 146/146/146 158/158/158 143/143/143
f 157/157/157 158/158/158 146/146/146
f 158/158/158 159/159/159 143/143/143
f 159/159/159 158/158/158 157/157/157
f 143/143/143 159/159/159 140/140/140
f 160/160/160 159/159/159 157/157/157
f 159/159/159 160/160/160 140/140/140
f 160/160/160 157/157/157 156/156/156
f 140/140/140 160/160/160 139/139/139
f 161/161/161 156/156/156 138/138/138
f 139/139/139 161/161/161 138/138/138
f 161/161/161 160/160/160 156/156/156
f 160/160/160 161/161/161 139/139/139
f 164/164/164 163/163/163 162/162/162
f 165/165/165 164/164/164 162/162/162
f 165/165/165 162/162/162 166/166/166
f 162/162/162 167/167/167 166/166/166
f 166/166/166 167/167/167 168/168/168
f 167/167/167 169/169/169 168/168/168
f 168/168/168 169/169/169 170/170/170
f 169/169/169 171/171/171 170/170/170
f 170/170/170 171/171/171 172/172/172
f 171/171/171 173/173/173 172/172/172
