g Popsicle_01
v -0.6104089 -0.041517377 -0.006673038
v -0.19789693 -0.041517377 -0.006673038
v -0.19789693 0.041659445 -0.006673038
v -0.6104089 0.041659445 -0.006673038
v -0.63738513 -0.041517377 -0.006673038
v -0.63738513 0.041659445 -0.006673038
v -0.6598654 -0.025781244 -0.006673038
v -0.6598654 0.025923282 -0.006673038
v -0.66773343 7.1018934E-05 -0.006673038
v -0.6104089 -0.041517377 0.0056910813
v -0.19789693 -0.041517377 0.0056910813
v -0.19789693 -0.041517377 -0.006673038
v -0.6104089 -0.041517377 -0.006673038
v -0.63738513 -0.041517377 0.0056910813
v -0.63738513 -0.041517377 -0.006673038
v -0.6598654 -0.025781244 0.0056910813
v -0.6598654 -0.025781244 -0.006673038
v -0.66773343 7.1018934E-05 0.0056910813
v -0.66773343 7.1018934E-05 -0.006673038
v -0.6598654 0.025923282 0.0056910813
v -0.6598654 0.025923282 -0.006673038
v -0.63738513 0.041659445 0.0056910813
v -0.63738513 0.041659445 -0.006673038
v -0.6104089 0.041659445 0.0056910813
v -0.6104089 0.041659445 -0.006673038
v -0.19789693 0.041659445 0.0056910813
v -0.19789693 0.041659445 -0.006673038
v -0.6104089 0.041659445 0.0056910813
v -0.19789693 0.041659445 0.0056910813
v -0.19789693 -0.041517377 0.0056910813
v -0.6104089 -0.041517377 0.0056910813
v -0.63738513 0.041659445 0.0056910813
v -0.63738513 -0.041517377 0.0056910813
v -0.6598654 0.025923282 0.0056910813
v -0.6598654 -0.025781244 0.0056910813
v -0.66773343 7.1018934E-05 0.0056910813
v 0.4562774 0.0697597 0.04053542
v 0.4652695 0.034915358 0.04053542
v 0.4652695 -0.03477332 0.04053542
v 0.4562774 -0.06961766 0.04053542
v 0.4326732 0.094487935 0.04053542
v 0.4326732 -0.0943459 0.04053542
v 0.39670485 0.10348001 0.04053542
v 0.39670485 -0.10333797 0.04053542
v -0.26308957 0.10348001 0.04053542
v -0.26308957 -0.10333797 0.04053542
v -0.29006585 0.09223989 0.04053542
v -0.29006585 -0.09209788 0.04053542
v -0.30130592 0.06526366 0.04053542
v -0.30130592 -0.06512162 0.04053542
v -0.29006585 0.09223989 -0.041517377
v -0.30130592 0.06526366 -0.041517377
v -0.30130592 -0.06512162 -0.041517377
v -0.29006585 -0.09209788 -0.041517377
v -0.26308957 0.10348001 -0.041517377
v -0.26308957 -0.10333797 -0.041517377
v 0.39670485 0.10348001 -0.041517377
v 0.39670485 -0.10333797 -0.041517377
v 0.4326732 0.094487935 -0.041517377
v 0.4326732 -0.0943459 -0.041517377
v 0.4562774 0.0697597 -0.041517377
v 0.4562774 -0.06961766 -0.041517377
v 0.4652695 0.034915358 -0.041517377
v 0.4652695 -0.03477332 -0.041517377
v -0.30130592 -0.06512162 0.04053542
v -0.31704208 0.082123786 0.024799258
v -0.30130592 0.06526366 0.04053542
v -0.29006585 0.09223989 0.04053542
v -0.30692598 0.10910007 0.024799258
v -0.26308957 0.10348001 0.04053542
v -0.31704208 -0.08198178 0.024799258
v -0.30692598 -0.108958036 0.024799258
v -0.29006585 -0.09209788 0.04053542
v -0.27994975 -0.12019816 0.024799258
v -0.26308957 -0.10333797 0.04053542
v 0.39670485 -0.10333797 0.04053542
v 0.39895284 -0.12019816 0.024799258
v 0.4326732 -0.0943459 0.04053542
v 0.44054127 -0.108958036 0.024799258
v 0.4562774 -0.06961766 0.04053542
v 0.47088957 -0.078609735 0.024799258
v 0.4652695 -0.03477332 0.04053542
v 0.48212966 -0.03702134 0.024799258
v 0.4652695 0.034915358 0.04053542
v 0.48212966 0.037163347 0.024799258
v 0.4562774 0.0697597 0.04053542
v 0.47088957 0.07875177 0.024799258
v 0.4326732 0.094487935 0.04053542
v 0.44054127 0.10910007 0.024799258
v 0.39670485 0.10348001 0.04053542
v 0.39895284 0.1203402 0.024799258
v -0.27994975 0.1203402 0.024799258
v 0.47088957 -0.078609735 -0.02465722
v 0.48212966 -0.03702134 -0.02465722
v 0.48212966 0.037163347 -0.02465722
v 0.47088957 0.07875177 -0.02465722
v 0.44054127 0.10910007 -0.02465722
v 0.39895284 0.1203402 -0.02465722
v -0.27994975 0.1203402 -0.02465722
v -0.30692598 0.10910007 -0.02465722
v -0.31704208 0.082123786 -0.02465722
v -0.31704208 -0.08198178 -0.02465722
v -0.30130592 0.06526366 -0.041517377
v -0.29006585 0.09223989 -0.041517377
v -0.26308957 0.10348001 -0.041517377
v 0.39670485 0.10348001 -0.041517377
v 0.4326732 0.094487935 -0.041517377
v 0.4562774 0.0697597 -0.041517377
v 0.4652695 0.034915358 -0.041517377
v 0.4652695 -0.03477332 -0.041517377
v 0.4562774 -0.06961766 -0.041517377
v 0.4326732 -0.0943459 -0.041517377
v 0.44054127 -0.108958036 -0.02465722
v 0.39670485 -0.10333797 -0.041517377
v 0.39895284 -0.12019816 -0.02465722
v -0.26308957 -0.10333797 -0.041517377
v -0.27994975 -0.12019816 -0.02465722
v -0.30692598 -0.108958036 -0.02465722
v -0.29006585 -0.09209788 -0.041517377
v -0.30130592 -0.06512162 -0.041517377
vt 0.84375 0.15625
vt 0.84375 0.15625
vt 0.84375 0.15625
vt 0.84375 0.15625
vt 0.84375 0.15625
vt 0.84375 0.15625
vt 0.84375 0.15625
vt 0.84375 0.15625
vt 0.84375 0.15625
vt 0.84375 0.15625
vt 0.84375 0.15625
vt 0.84375 0.15625
vt 0.84375 0.15625
vt 0.84375 0.15625
vt 0.84375 0.15625
vt 0.84375 0.15625
vt 0.84375 0.15625
vt 0.84375 0.15625
vt 0.84375 0.15625
vt 0.84375 0.15625
vt 0.84375 0.15625
vt 0.84375 0.15625
vt 0.84375 0.15625
vt 0.84375 0.15625
vt 0.84375 0.15625
vt 0.84375 0.15625
vt 0.84375 0.15625
vt 0.84375 0.15625
vt 0.84375 0.15625
vt 0.84375 0.15625
vt 0.84375 0.15625
vt 0.84375 0.15625
vt 0.84375 0.15625
vt 0.84375 0.15625
vt 0.84375 0.15625
vt 0.84375 0.15625
vt 0.40698528 0.15625
vt 0.40698528 0.15625
vt 0.40698528 0.15625
vt 0.40698528 0.15625
vt 0.40698528 0.15625
vt 0.40698528 0.15625
vt 0.40698528 0.15625
vt 0.40698528 0.15625
vt 0.40698528 0.15625
vt 0.40698528 0.15625
vt 0.40698528 0.15625
vt 0.40698528 0.15625
vt 0.40698528 0.15625
vt 0.40698528 0.15625
vt 0.40698528 0.15625
vt 0.40698528 0.15625
vt 0.40698528 0.15625
vt 0.40698528 0.15625
vt 0.40698528 0.15625
vt 0.40698528 0.15625
vt 0.40698528 0.15625
vt 0.40698528 0.15625
vt 0.40698528 0.15625
vt 0.40698528 0.15625
vt 0.40698528 0.15625
vt 0.40698528 0.15625
vt 0.40698528 0.15625
vt 0.40698528 0.15625
vt 0.40698528 0.15625
vt 0.40698528 0.15625
vt 0.40698528 0.15625
vt 0.40698528 0.15625
vt 0.40698528 0.15625
vt 0.40698528 0.15625
vt 0.40698528 0.15625
vt 0.40698528 0.15625
vt 0.40698528 0.15625
vt 0.40698528 0.15625
vt 0.40698528 0.15625
vt 0.40698528 0.15625
vt 0.40698528 0.15625
vt 0.40698528 0.15625
vt 0.40698528 0.15625
vt 0.40698528 0.15625
vt 0.40698528 0.15625
vt 0.40698528 0.15625
vt 0.40698528 0.15625
vt 0.40698528 0.15625
vt 0.40698528 0.15625
vt 0.40698528 0.15625
vt 0.40698528 0.15625
vt 0.40698528 0.15625
vt 0.40698528 0.15625
vt 0.40698528 0.15625
vt 0.40698528 0.15625
vt 0.40698528 0.15625
vt 0.40698528 0.15625
vt 0.40698528 0.15625
vt 0.40698528 0.15625
vt 0.40698528 0.15625
vt 0.40698528 0.15625
vt 0.40698528 0.15625
vt 0.40698528 0.15625
vt 0.40698528 0.15625
vt 0.40698528 0.15625
vt 0.40698528 0.15625
vt 0.40698528 0.15625
vt 0.40698528 0.15625
vt 0.40698528 0.15625
vt 0.40698528 0.15625
vt 0.40698528 0.15625
vt 0.40698528 0.15625
vt 0.40698528 0.15625
vt 0.40698528 0.15625
vt 0.40698528 0.15625
vt 0.40698528 0.15625
vt 0.40698528 0.15625
vt 0.40698528 0.15625
vt 0.40698528 0.15625
vt 0.40698528 0.15625
vt 0.40698528 0.15625
vt 0.40698528 0.15625
vt 0.40698528 0.15625
vt 0.40698528 0.15625
vn -0.015871048 0.015871048 -0.99974805
vn -0.015871048 0.015871048 -0.99974805
vn -0.015871048 0.015871048 -0.99974805
vn -0.015871048 0.015871048 -0.99974805
vn -0.015871048 0.015871048 -0.99974805
vn -0.015871048 0.015871048 -0.99974805
vn -0.015871048 0.015871048 -0.99974805
vn -0.015871048 0.015871048 -0.99974805
vn -0.015871048 0.015871048 -0.99974805
vn -0.015871048 -0.999874 -0.00034526698
vn -0.015871048 -0.999874 -0.00034526698
vn -0.015871048 -0.999874 -0.00034526698
vn -0.015871048 -0.999874 -0.00034526698
vn -0.30154932 -0.9363899 -0.17956024
vn -0.30154932 -0.9363899 -0.17956024
vn -0.8094218 -0.5872276 -0.00042286396
vn -0.8094218 -0.5872276 -0.00042286396
vn -0.999874 0.015871048 -0.00034391563
vn -0.999874 0.015871048 -0.00034391563
vn -0.8094218 0.5872276 -0.00042286396
vn -0.8094218 0.5872276 -0.00042286396
vn -0.30154932 0.9363899 -0.17956024
vn -0.30154932 0.9363899 -0.17956024
vn -0.015871048 0.999874 -0.00034526698
vn -0.015871048 0.999874 -0.00034526698
vn -0.015871048 0.999874 -0.00034526698
vn -0.015871048 0.999874 -0.00034526698
vn -0.015871048 0.015871048 0.99974805
vn -0.015871048 0.015871048 0.99974805
vn -0.015871048 0.015871048 0.99974805
vn -0.015871048 0.015871048 0.99974805
vn -0.015871048 0.015871048 0.99974805
vn -0.015871048 0.015871048 0.99974805
vn -0.015871048 0.015871048 0.99974805
vn -0.015871048 0.015871048 0.99974805
vn -0.015871048 0.015871048 0.99974805
vn -0.015871048 0.015871048 0.99974805
vn -0.015871048 0.015871048 0.99974805
vn -0.015871048 0.015871048 0.99974805
vn -0.015871048 0.015871048 0.99974805
vn -0.015871048 0.015871048 0.99974805
vn -0.015871048 0.015871048 0.99974805
vn -0.015871048 0.015871048 0.99974805
vn -0.015871048 0.015871048 0.99974805
vn -0.015871048 0.015871048 0.99974805
vn -0.015871048 0.015871048 0.99974805
vn -0.015871048 0.015871048 0.99974805
vn -0.015871048 0.015871048 0.99974805
vn -0.015871048 0.015871048 0.99974805
vn -0.015871048 0.015871048 0.99974805
vn -0.015871048 0.015871048 -0.99974805
vn -0.015871048 0.015871048 -0.99974805
vn -0.015871048 0.015871048 -0.99974805
vn -0.015871048 0.015871048 -0.99974805
vn -0.015871048 0.015871048 -0.99974805
vn -0.015871048 0.015871048 -0.99974805
vn -0.015871048 0.015871048 -0.99974805
vn -0.015871048 0.015871048 -0.99974805
vn -0.015871048 0.015871048 -0.99974805
vn -0.015871048 0.015871048 -0.99974805
vn -0.015871048 0.015871048 -0.99974805
vn -0.015871048 0.015871048 -0.99974805
vn -0.015871048 0.015871048 -0.99974805
vn -0.015871048 0.015871048 -0.99974805
vn -0.65071166 -0.07935506 0.75516695
vn -0.90464795 0.20632327 0.3728844
vn -0.65071166 0.07935512 0.75516695
vn -0.39677536 0.39677536 0.827731
vn -0.65071166 0.65071166 0.39134216
vn -0.07935512 0.65071166 0.75516695
vn -0.90464795 -0.2063232 0.37288445
vn -0.65071166 -0.65071166 0.39134216
vn -0.39677536 -0.39677536 0.827731
vn -0.20632327 -0.9046479 0.37288457
vn -0.07935512 -0.65071166 0.75516695
vn 0.07935506 -0.68245363 0.72660846
vn 0.1110971 -0.9046479 0.4114239
vn 0.33329135 -0.5872276 0.7376182
vn 0.46025944 -0.8094218 0.3646885
vn 0.5872276 -0.33329135 0.7376182
vn 0.8094218 -0.46025944 0.36468846
vn 0.68245363 -0.07935506 0.72660846
vn 0.9046479 -0.1110971 0.4114239
vn 0.68245363 0.07935512 0.72660846
vn 0.9046479 0.1110971 0.4114239
vn 0.5872276 0.3332913 0.73761827
vn 0.8094218 0.46025944 0.36468846
vn 0.33329135 0.5872276 0.7376182
vn 0.46025944 0.8094218 0.3646885
vn 0.07935506 0.68245375 0.72660834
vn 0.1110971 0.90464795 0.41142374
vn -0.20632327 0.90464795 0.37288442
vn 0.8094218 -0.46025944 -0.36468846
vn 0.9046479 -0.1110971 -0.4114239
vn 0.9046479 0.1110971 -0.4114239
vn 0.8094218 0.46025944 -0.36468846
vn 0.46025944 0.8094218 -0.3646885
vn 0.1110971 0.90464795 -0.41142374
vn -0.20632327 0.90464795 -0.37288442
vn -0.65071166 0.65071166 -0.39134216
vn -0.90464795 0.20632327 -0.3728844
vn -0.90464795 -0.2063232 -0.37288445
vn -0.65071166 0.07935512 -0.75516695
vn -0.39677536 0.39677536 -0.827731
vn -0.07935512 0.65071166 -0.75516695
vn 0.07935506 0.68245375 -0.72660834
vn 0.33329135 0.5872276 -0.7376182
vn 0.5872276 0.3332913 -0.73761827
vn 0.68245363 0.07935512 -0.72660846
vn 0.68245363 -0.07935506 -0.72660846
vn 0.5872276 -0.33329135 -0.7376182
vn 0.33329135 -0.5872276 -0.7376182
vn 0.46025944 -0.8094218 -0.3646885
vn 0.07935506 -0.68245363 -0.72660846
vn 0.1110971 -0.9046479 -0.4114239
vn -0.07935512 -0.65071166 -0.75516695
vn -0.20632327 -0.9046479 -0.37288457
vn -0.65071166 -0.65071166 -0.39134216
vn -0.39677536 -0.39677536 -0.827731
vn -0.65071166 -0.07935506 -0.75516695
g Popsicle_01_0
f 3/3/3 2/2/2 1/1/1
f 1/1/1 4/4/4 3/3/3
f 1/1/1 5/5/5 4/4/4
f 5/5/5 6/6/6 4/4/4
f 5/5/5 7/7/7 6/6/6
f 7/7/7 8/8/8 6/6/6
f 7/7/7 9/9/9 8/8/8
f 12/12/12 11/11/11 10/10/10
f 13/13/13 12/12/12 10/10/10
f 10/10/10 14/14/14 13/13/13
f 14/14/14 15/15/15 13/13/13
f 14/14/14 16/16/16 15/15/15
f 16/16/16 17/17/17 15/15/15
f 16/16/16 18/18/18 17/17/17
f 18/18/18 19/19/19 17/17/17
f 18/18/18 20/20/20 19/19/19
f 20/20/20 21/21/21 19/19/19
f 20/20/20 22/22/22 21/21/21
f 22/22/22 23/23/23 21/21/21
f 22/22/22 24/24/24 23/23/23
f 24/24/24 25/25/25 23/23/23
f 24/24/24 26/26/26 25/25/25
f 26/26/26 27/27/27 25/25/25
f 30/30/30 29/29/29 28/28/28
f 28/28/28 31/31/31 30/30/30
f 28/28/28 32/32/32 31/31/31
f 32/32/32 33/33/33 31/31/31
f 32/32/32 34/34/34 33/33/33
f 34/34/34 35/35/35 33/33/33
f 34/34/34 36/36/36 35/35/35
f 39/39/39 38/38/38 37/37/37
f 37/37/37 40/40/40 39/39/39
f 37/37/37 41/41/41 40/40/40
f 41/41/41 42/42/42 40/40/40
f 41/41/41 43/43/43 42/42/42
f 43/43/43 44/44/44 42/42/42
f 43/43/43 45/45/45 44/44/44
f 45/45/45 46/46/46 44/44/44
f 46/46/46 45/45/45 47/47/47
f 47/47/47 48/48/48 46/46/46
f 47/47/47 49/49/49 48/48/48
f 49/49/49 50/50/50 48/48/48
f 53/53/53 52/52/52 51/51/51
f 54/54/54 53/53/53 51/51/51
f 54/54/54 51/51/51 55/55/55
f 55/55/55 56/56/56 54/54/54
f 56/56/56 55/55/55 57/57/57
f 58/58/58 56/56/56 57/57/57
f 58/58/58 57/57/57 59/59/59
f 60/60/60 58/58/58 59/59/59
f 60/60/60 59/59/59 61/61/61
f 62/62/62 60/60/60 61/61/61
f 62/62/62 61/61/61 63/63/63
f 63/63/63 64/64/64 62/62/62
f 67/67/67 66/66/66 65/65/65
f 66/66/66 67/67/67 68/68/68
f 69/69/69 66/66/66 68/68/68
f 69/69/69 68/68/68 70/70/70
f 66/66/66 71/71/71 65/65/65
f 65/65/65 71/71/71 72/72/72
f 73/73/73 65/65/65 72/72/72
f 73/73/73 72/72/72 74/74/74
f 75/75/75 73/73/73 74/74/74
f 76/76/76 75/75/75 74/74/74
f 77/77/77 76/76/76 74/74/74
f 76/76/76 77/77/77 78/78/78
f 77/77/77 79/79/79 78/78/78
f 78/78/78 79/79/79 80/80/80
f 79/79/79 81/81/81 80/80/80
f 80/80/80 81/81/81 82/82/82
f 81/81/81 83/83/83 82/82/82
f 82/82/82 83/83/83 84/84/84
f 83/83/83 85/85/85 84/84/84
f 84/84/84 85/85/85 86/86/86
f 85/85/85 87/87/87 86/86/86
f 86/86/86 87/87/87 88/88/88
f 87/87/87 89/89/89 88/88/88
f 88/88/88 89/89/89 90/90/90
f 89/89/89 91/91/91 90/90/90
f 90/90/90 91/91/91 70/70/70
f 91/91/91 92/92/92 70/70/70
f 92/92/92 69/69/69 70/70/70
f 93/93/93 81/81/81 79/79/79
f 94/94/94 83/83/83 81/81/81
f 93/93/93 94/94/94 81/81/81
f 85/85/85 83/83/83 95/95/95
f 83/83/83 94/94/94 95/95/95
f 96/96/96 87/87/87 85/85/85
f 95/95/95 96/96/96 85/85/85
f 97/97/97 89/89/89 87/87/87
f 96/96/96 97/97/97 87/87/87
f 98/98/98 91/91/91 89/89/89
f 97/97/97 98/98/98 89/89/89
f 92/92/92 91/91/91 99/99/99
f 91/91/91 98/98/98 99/99/99
f 69/69/69 92/92/92 100/100/100
f 92/92/92 99/99/99 100/100/100
f 69/69/69 100/100/100 101/101/101
f 66/66/66 69/69/69 101/101/101
f 66/66/66 101/101/101 102/102/102
f 71/71/71 66/66/66 102/102/102
f 103/103/103 101/101/101 100/100/100
f 102/102/102 101/101/101 103/103/103
f 104/104/104 103/103/103 100/100/100
f 104/104/104 100/100/100 99/99/99
f 105/105/105 104/104/104 99/99/99
f 106/106/106 105/105/105 99/99/99
f 98/98/98 106/106/106 99/99/99
f 106/106/106 98/98/98 107/107/107
f 98/98/98 97/97/97 107/107/107
f 107/107/107 97/97/97 108/108/108
f 97/97/97 96/96/96 108/108/108
f 108/108/108 96/96/96 109/109/109
f 96/96/96 95/95/95 109/109/109
f 110/110/110 109/109/109 95/95/95
f 94/94/94 110/110/110 95/95/95
f 110/110/110 94/94/94 111/111/111
f 94/94/94 93/93/93 111/111/111
f 111/111/111 93/93/93 112/112/112
f 93/93/93 113/113/113 112/112/112
f 113/113/113 93/93/93 79/79/79
f 112/112/112 113/113/113 114/114/114
f 113/113/113 79/79/79 77/77/77
f 113/113/113 115/115/115 114/114/114
f 115/115/115 113/113/113 77/77/77
f 77/77/77 74/74/74 115/115/115
f 116/116/116 114/114/114 115/115/115
f 74/74/74 117/117/117 115/115/115
f 117/117/117 116/116/116 115/115/115
f 74/74/74 72/72/72 117/117/117
f 117/117/117 118/118/118 116/116/116
f 72/72/72 118/118/118 117/117/117
f 72/72/72 71/71/71 118/118/118
f 118/118/118 119/119/119 116/116/116
f 71/71/71 102/102/102 118/118/118
f 118/118/118 102/102/102 119/119/119
f 102/102/102 120/120/120 119/119/119
f 120/120/120 102/102/102 103/103/103
