g Popsicle_02
v -0.15666139 -0.006483674 0.04201889
v -0.15666139 -0.006483674 -0.0417583
v -0.56893337 -0.006483674 -0.0417583
v -0.5964916 -0.006483674 -0.0417583
v -0.61743593 -0.006483674 -0.025223315
v -0.62625456 -0.006483674 0.00013029575
v -0.61743593 -0.006483674 0.025483906
v -0.5964916 -0.006483674 0.04201889
v -0.56893337 -0.006483674 0.04201889
v -0.56893337 0.0067442656 0.04201889
v -0.15666139 0.0067442656 0.04201889
v -0.15666139 -0.006483674 0.04201889
v -0.56893337 -0.006483674 0.04201889
v -0.5964916 0.0067442656 0.04201889
v -0.5964916 -0.006483674 0.04201889
v -0.61743593 0.0067442656 0.025483906
v -0.61743593 -0.006483674 0.025483906
v -0.62625456 0.0067442656 0.00013029575
v -0.62625456 -0.006483674 0.00013029575
v -0.61743593 0.0067442656 -0.025223315
v -0.61743593 -0.006483674 -0.025223315
v -0.5964916 0.0067442656 -0.0417583
v -0.5964916 -0.006483674 -0.0417583
v -0.56893337 0.0067442656 -0.0417583
v -0.56893337 -0.006483674 -0.0417583
v -0.15666139 0.0067442656 -0.0417583
v -0.15666139 -0.006483674 -0.0417583
v -0.61743593 0.0067442656 -0.025223315
v -0.5964916 0.0067442656 -0.0417583
v -0.56893337 0.0067442656 -0.0417583
v -0.15666139 0.0067442656 0.04201889
v -0.15666139 0.0067442656 -0.0417583
v -0.62625456 0.0067442656 0.00013029575
v -0.61743593 0.0067442656 0.025483906
v -0.5964916 0.0067442656 0.04201889
v -0.56893337 0.0067442656 0.04201889
v 0.44741628 0.10044247 0.00013029575
v 0.31844348 0.070679545 0.070679545
v 0.31844348 0.10044247 0.00013029575
v 0.44741628 0.070679545 0.070679545
v 0.31844348 0.00013029575 0.10044247
v 0.44741628 0.070679545 -0.070418894
v 0.31844348 0.070679545 -0.070418894
v 0.44741628 0.00013029575 0.10044247
v 0.31844348 -0.070418894 0.070679545
v 0.44741628 0.00013029575 -0.10018185
v 0.31844348 0.00013029575 -0.10018185
v 0.44741628 -0.070418894 0.070679545
v 0.31844348 -0.10018185 0.00013029575
v 0.44741628 -0.070418894 -0.070418894
v 0.31844348 -0.070418894 -0.070418894
v 0.44741628 -0.10018185 0.00013029575
v 0.48820254 0.058553874 0.058553874
v 0.48820254 0.08280516 0.00013029575
v 0.48820254 0.00013029575 0.08280516
v 0.48820254 0.058553874 -0.05939558
v 0.48820254 -0.05939558 0.058553874
v 0.48820254 -0.08364689 0.00013029575
v 0.48820254 -0.05939558 -0.05939558
v 0.48820254 0.00013029575 -0.08364689
v 0.5014305 0.027688622 0.027688622
v 0.5014305 0.00013029575 0.038711905
v 0.5014305 -0.027427971 0.027688622
v 0.5014305 -0.038451284 0.00013029575
v 0.5014305 -0.027427971 -0.027427971
v 0.5014305 0.00013029575 -0.038451284
v 0.5014305 0.027688622 -0.027427971
v 0.5014305 0.038711905 0.00013029575
v 0.31844348 0.10044247 0.00013029575
v 0.14317277 0.070679545 0.070679545
v 0.14317277 0.10044247 0.00013029575
v 0.31844348 0.070679545 0.070679545
v 0.31844348 0.070679545 -0.070418894
v 0.14317277 0.00013029575 0.10044247
v 0.14317277 0.070679545 -0.070418894
v 0.31844348 0.00013029575 0.10044247
v 0.31844348 0.00013029575 -0.10018185
v 0.14317277 -0.070418894 0.070679545
v 0.14317277 0.00013029575 -0.10018185
v 0.31844348 -0.070418894 0.070679545
v 0.31844348 -0.070418894 -0.070418894
v 0.14317277 -0.10018185 0.00013029575
v 0.14317277 -0.070418894 -0.070418894
v 0.31844348 -0.10018185 0.00013029575
v 0.14317277 0.10044247 0.00013029575
v -0.030995607 0.070679545 0.070679545
v -0.030995607 0.10044247 0.00013029575
v 0.14317277 0.070679545 0.070679545
v 0.14317277 0.070679545 -0.070418894
v -0.030995607 0.00013029575 0.10044247
v -0.030995607 0.070679545 -0.070418894
v 0.14317277 0.00013029575 0.10044247
v 0.14317277 0.00013029575 -0.10018185
v -0.030995607 -0.070418894 0.070679545
v -0.030995607 0.00013029575 -0.10018185
v 0.14317277 -0.070418894 0.070679545
v 0.14317277 -0.070418894 -0.070418894
v -0.030995607 -0.10018185 0.00013029575
v -0.030995607 -0.070418894 -0.070418894
v 0.14317277 -0.10018185 0.00013029575
v -0.21177793 0.070679545 -0.070418894
v -0.21177793 0.10044247 0.00013029575
v -0.3253181 0.10044247 0.00013029575
v -0.3253181 0.070679545 -0.070418894
v -0.21177793 0.00013029575 -0.10018185
v -0.3253181 0.070679545 0.070679545
v -0.21177793 0.070679545 0.070679545
v -0.3253181 0.00013029575 -0.10018185
v -0.21177793 -0.070418894 -0.070418894
v -0.3253181 0.00013029575 0.10044247
v -0.21177793 0.00013029575 0.10044247
v -0.3253181 -0.070418894 -0.070418894
v -0.21177793 -0.10018185 0.00013029575
v -0.3253181 -0.070418894 0.070679545
v -0.21177793 -0.070418894 0.070679545
v -0.3253181 -0.10018185 0.00013029575
v -0.36610436 0.08280516 0.00013029575
v -0.36610436 0.058553874 -0.05939558
v -0.36610436 0.00013029575 -0.08364689
v -0.36610436 0.058553874 0.058553874
v -0.36610436 -0.05939558 -0.05939558
v -0.36610436 -0.08364689 0.00013029575
v -0.36610436 0.00013029575 0.08280516
v -0.36610436 -0.05939558 0.058553874
v -0.3793323 0.00013029575 -0.038451284
v -0.3793323 0.027688622 -0.027427971
v -0.3793323 -0.027427971 -0.027427971
v -0.3793323 0.038711905 0.00013029575
v -0.3793323 0.027688622 0.027688622
v -0.3793323 0.00013029575 0.038711905
v -0.3793323 -0.027427971 0.027688622
v -0.3793323 -0.038451284 0.00013029575
v -0.030995607 0.10044247 0.00013029575
v -0.030995607 0.070679545 0.070679545
v -0.21177793 0.070679545 0.070679545
v -0.21177793 0.10044247 0.00013029575
v -0.21177793 0.00013029575 0.10044247
v -0.030995607 0.070679545 -0.070418894
v -0.030995607 0.00013029575 0.10044247
v -0.21177793 0.070679545 -0.070418894
v -0.21177793 -0.070418894 0.070679545
v -0.030995607 0.00013029575 -0.10018185
v -0.030995607 -0.070418894 0.070679545
v -0.21177793 0.00013029575 -0.10018185
v -0.21177793 -0.10018185 0.00013029575
v -0.030995607 -0.070418894 -0.070418894
v -0.030995607 -0.10018185 0.00013029575
v -0.21177793 -0.070418894 -0.070418894
vt 0.84522057 0.1555147
vt 0.84522057 0.1555147
vt 0.84522057 0.1555147
vt 0.84522057 0.1555147
vt 0.84522057 0.1555147
vt 0.84522057 0.1555147
vt 0.84522057 0.1555147
vt 0.84522057 0.1555147
vt 0.84522057 0.1555147
vt 0.84522057 0.1555147
vt 0.84522057 0.1555147
vt 0.84522057 0.1555147
vt 0.84522057 0.1555147
vt 0.84522057 0.1555147
vt 0.84522057 0.1555147
vt 0.84522057 0.1555147
vt 0.84522057 0.1555147
vt 0.84522057 0.1555147
vt 0.84522057 0.1555147
vt 0.84522057 0.1555147
vt 0.84522057 0.1555147
vt 0.84522057 0.1555147
vt 0.84522057 0.1555147
vt 0.84522057 0.1555147
vt 0.84522057 0.1555147
vt 0.84522057 0.1555147
vt 0.84522057 0.1555147
vt 0.84522057 0.1555147
vt 0.84522057 0.1555147
vt 0.84522057 0.1555147
vt 0.84522057 0.1555147
vt 0.84522057 0.1555147
vt 0.84522057 0.1555147
vt 0.84522057 0.1555147
vt 0.84522057 0.1555147
vt 0.84522057 0.1555147
vt 0.78002447 0.09375
vt 0.78002447 0.09375
vt 0.78002447 0.09375
vt 0.78002447 0.09375
vt 0.78002447 0.09375
vt 0.78002447 0.09375
vt 0.78002447 0.09375
vt 0.78002447 0.09375
vt 0.78002447 0.09375
vt 0.78002447 0.09375
vt 0.78002447 0.09375
vt 0.78002447 0.09375
vt 0.78002447 0.09375
vt 0.78002447 0.09375
vt 0.78002447 0.09375
vt 0.78002447 0.09375
vt 0.78002447 0.09375
vt 0.78002447 0.09375
vt 0.78002447 0.09375
vt 0.78002447 0.09375
vt 0.78002447 0.09375
vt 0.78002447 0.09375
vt 0.78002447 0.09375
vt 0.78002447 0.09375
vt 0.78002447 0.09375
vt 0.78002447 0.09375
vt 0.78002447 0.09375
vt 0.78002447 0.09375
vt 0.78002447 0.09375
vt 0.78002447 0.09375
vt 0.78002447 0.09375
vt 0.78002447 0.09375
vt 0.96874994 0.1555147
vt 0.96874994 0.1555147
vt 0.96874994 0.1555147
vt 0.96874994 0.1555147
vt 0.96874994 0.1555147
vt 0.96874994 0.1555147
vt 0.96874994 0.1555147
vt 0.96874994 0.1555147
vt 0.96874994 0.1555147
vt 0.96874994 0.1555147
vt 0.96874994 0.1555147
vt 0.96874994 0.1555147
vt 0.96874994 0.1555147
vt 0.96874994 0.1555147
vt 0.96874994 0.1555147
vt 0.96874994 0.1555147
vt 0.40600488 0.3442402
vt 0.40600488 0.3442402
vt 0.40600488 0.3442402
vt 0.40600488 0.3442402
vt 0.40600488 0.3442402
vt 0.40600488 0.3442402
vt 0.40600488 0.3442402
vt 0.40600488 0.3442402
vt 0.40600488 0.3442402
vt 0.40600488 0.3442402
vt 0.40600488 0.3442402
vt 0.40600488 0.3442402
vt 0.40600488 0.3442402
vt 0.40600488 0.3442402
vt 0.40600488 0.3442402
vt 0.40600488 0.3442402
vt 0.09375 0.3442402
vt 0.09375 0.3442402
vt 0.09375 0.3442402
vt 0.09375 0.3442402
vt 0.09375 0.3442402
vt 0.09375 0.3442402
vt 0.09375 0.3442402
vt 0.09375 0.3442402
vt 0.09375 0.3442402
vt 0.09375 0.3442402
vt 0.09375 0.3442402
vt 0.09375 0.3442402
vt 0.09375 0.3442402
vt 0.09375 0.3442402
vt 0.09375 0.3442402
vt 0.09375 0.3442402
vt 0.09375 0.3442402
vt 0.09375 0.3442402
vt 0.09375 0.3442402
vt 0.09375 0.3442402
vt 0.09375 0.3442402
vt 0.09375 0.3442402
vt 0.09375 0.3442402
vt 0.09375 0.3442402
vt 0.09375 0.3442402
vt 0.09375 0.3442402
vt 0.09375 0.3442402
vt 0.09375 0.3442402
vt 0.09375 0.3442402
vt 0.09375 0.3442402
vt 0.09375 0.3442402
vt 0.09375 0.3442402
vt 0.71825975 0.28247547
vt 0.71825975 0.28247547
vt 0.71825975 0.28247547
vt 0.71825975 0.28247547
vt 0.71825975 0.28247547
vt 0.71825975 0.28247547
vt 0.71825975 0.28247547
vt 0.71825975 0.28247547
vt 0.71825975 0.28247547
vt 0.71825975 0.28247547
vt 0.71825975 0.28247547
vt 0.71825975 0.28247547
vt 0.71825975 0.28247547
vt 0.71825975 0.28247547
vt 0.71825975 0.28247547
vt 0.71825975 0.28247547
vn -0.015871048 -0.999874 -0.00034526698
vn -0.015871048 -0.999874 -0.00034526698
vn -0.015871048 -0.999874 -0.00034526698
vn -0.015871048 -0.999874 -0.00034526698
vn -0.015871048 -0.999874 -0.00034526698
vn -0.015871048 -0.999874 -0.00034526698
vn -0.015871048 -0.999874 -0.00034526698
vn -0.015871048 -0.999874 -0.00034526698
vn -0.015871048 -0.999874 -0.00034526698
vn -0.015871048 0.015871048 0.99974805
vn -0.015871048 0.015871048 0.99974805
vn -0.015871048 0.015871048 0.99974805
vn -0.015871048 0.015871048 0.99974805
vn -0.30154932 0.015871048 0.9533185
vn -0.30154932 0.015871048 0.9533185
vn -0.8094218 0.015871048 0.58701324
vn -0.8094218 0.015871048 0.58701324
vn -0.999874 0.015871048 -0.00034391563
vn -0.999874 0.015871048 -0.00034391563
vn -0.8094218 0.015871048 -0.58701324
vn -0.8094218 0.015871048 -0.58701324
vn -0.30154932 0.015871048 -0.9533185
vn -0.30154932 0.015871048 -0.9533185
vn -0.015871048 0.015871048 -0.99974805
vn -0.015871048 0.015871048 -0.99974805
vn -0.015871048 0.015871048 -0.99974805
vn -0.015871048 0.015871048 -0.99974805
vn -0.015871048 0.999874 -0.00034526698
vn -0.015871048 0.999874 -0.00034526698
vn -0.015871048 0.999874 -0.00034526698
vn -0.015871048 0.999874 -0.00034526698
vn -0.015871048 0.999874 -0.00034526698
vn -0.015871048 0.999874 -0.00034526698
vn -0.015871048 0.999874 -0.00034526698
vn -0.015871048 0.999874 -0.00034526698
vn -0.015871048 0.999874 -0.00034526698
vn 0.17458117 0.968132 -0.17956008
vn -0.015871048 0.7141957 0.6997661
vn -0.015871048 0.999874 -0.00034526698
vn 0.17458117 0.68245375 0.7097734
vn -0.015871048 0.015871048 0.99974805
vn 0.17458117 0.68245375 -0.7097734
vn -0.015871048 0.7141957 -0.6997661
vn 0.17458117 0.015871048 0.98451483
vn -0.015871048 -0.7141957 0.6997661
vn 0.17458117 0.015871048 -0.98451483
vn -0.015871048 0.015871048 -0.99974805
vn 0.17458117 -0.68245363 0.70977354
vn -0.015871048 -0.999874 -0.00034526698
vn 0.17458117 -0.68245363 -0.70977354
vn -0.015871048 -0.7141957 -0.6997661
vn 0.17458117 -0.96813196 -0.17956041
vn 0.68245363 0.5237435 0.5098527
vn 0.68245363 0.7141957 -0.15550417
vn 0.68245363 0.015871048 0.7307566
vn 0.68245363 0.5237435 -0.5098527
vn 0.68245363 -0.5237435 0.5098527
vn 0.68245363 -0.7141957 -0.15550417
vn 0.68245363 -0.5237435 -0.5098527
vn 0.68245363 0.015871048 -0.7307566
vn 0.96813196 0.1428392 0.20571218
vn 0.96813196 0.015871048 0.24993728
vn 0.96813196 -0.14283913 0.20571221
vn 0.96813196 -0.17458117 0.17956044
vn 0.96813196 -0.14283913 -0.20571221
vn 0.96813196 0.015871048 -0.24993728
vn 0.96813196 0.1428392 -0.20571218
vn 0.96813196 0.17458117 0.17956044
vn -0.015871048 0.999874 -0.00034526698
vn -0.015871048 0.7141957 0.6997661
vn -0.015871048 0.999874 -0.00034526698
vn -0.015871048 0.7141957 0.6997661
vn -0.015871048 0.7141957 -0.6997661
vn -0.015871048 0.015871048 0.99974805
vn -0.015871048 0.7141957 -0.6997661
vn -0.015871048 0.015871048 0.99974805
vn -0.015871048 0.015871048 -0.99974805
vn -0.015871048 -0.7141957 0.6997661
vn -0.015871048 0.015871048 -0.99974805
vn -0.015871048 -0.7141957 0.6997661
vn -0.015871048 -0.7141957 -0.6997661
vn -0.015871048 -0.999874 -0.00034526698
vn -0.015871048 -0.7141957 -0.6997661
vn -0.015871048 -0.999874 -0.00034526698
vn -0.015871048 0.999874 -0.00034526698
vn -0.015871048 0.7141957 0.6997661
vn -0.015871048 0.999874 -0.00034526698
vn -0.015871048 0.7141957 0.6997661
vn -0.015871048 0.7141957 -0.6997661
vn -0.015871048 0.015871048 0.99974805
vn -0.015871048 0.7141957 -0.6997661
vn -0.015871048 0.015871048 0.99974805
vn -0.015871048 0.015871048 -0.99974805
vn -0.015871048 -0.7141957 0.6997661
vn -0.015871048 0.015871048 -0.99974805
vn -0.015871048 -0.7141957 0.6997661
vn -0.015871048 -0.7141957 -0.6997661
vn -0.015871048 -0.999874 -0.00034526698
vn -0.015871048 -0.7141957 -0.6997661
vn -0.015871048 -0.999874 -0.00034526698
vn -0.015871048 0.7141957 -0.6997661
vn -0.015871048 0.999874 -0.00034526698
vn -0.17458117 0.968132 -0.17956008
vn -0.17458117 0.68245375 -0.7097734
vn -0.015871048 0.015871048 -0.99974805
vn -0.17458117 0.68245375 0.7097734
vn -0.015871048 0.7141957 0.6997661
vn -0.17458117 0.015871048 -0.98451483
vn -0.015871048 -0.7141957 -0.6997661
vn -0.17458117 0.015871048 0.98451483
vn -0.015871048 0.015871048 0.99974805
vn -0.17458117 -0.68245363 -0.70977354
vn -0.015871048 -0.999874 -0.00034526698
vn -0.17458117 -0.68245363 0.70977354
vn -0.015871048 -0.7141957 0.6997661
vn -0.17458117 -0.96813196 -0.17956041
vn -0.68245375 0.7141957 -0.15550359
vn -0.68245375 0.5237435 -0.5098525
vn -0.68245375 0.015871048 -0.73075646
vn -0.68245375 0.5237435 0.5098525
vn -0.68245375 -0.5237435 -0.5098525
vn -0.68245375 -0.7141957 -0.15550359
vn -0.68245375 0.015871048 0.73075646
vn -0.68245375 -0.5237435 0.5098525
vn -0.968132 0.015871048 -0.24993704
vn -0.968132 0.1428392 -0.20571189
vn -0.968132 -0.14283913 -0.20571193
vn -0.968132 0.17458117 -0.17956011
vn -0.968132 0.1428392 0.20571189
vn -0.968132 0.015871048 0.24993704
vn -0.968132 -0.14283913 0.20571193
vn -0.968132 -0.17458117 -0.17956011
vn -0.015871048 0.999874 -0.00034526698
vn -0.015871048 0.7141957 0.6997661
vn -0.015871048 0.7141957 0.6997661
vn -0.015871048 0.999874 -0.00034526698
vn -0.015871048 0.015871048 0.99974805
vn -0.015871048 0.7141957 -0.6997661
vn -0.015871048 0.015871048 0.99974805
vn -0.015871048 0.7141957 -0.6997661
vn -0.015871048 -0.7141957 0.6997661
vn -0.015871048 0.015871048 -0.99974805
vn -0.015871048 -0.7141957 0.6997661
vn -0.015871048 0.015871048 -0.99974805
vn -0.015871048 -0.999874 -0.00034526698
vn -0.015871048 -0.7141957 -0.6997661
vn -0.015871048 -0.999874 -0.00034526698
vn -0.015871048 -0.7141957 -0.6997661
g Popsicle_02_0
f 3/3/3 2/2/2 1/1/1
f 1/1/1 4/4/4 3/3/3
f 1/1/1 5/5/5 4/4/4
f 1/1/1 6/6/6 5/5/5
f 1/1/1 7/7/7 6/6/6
f 1/1/1 8/8/8 7/7/7
f 1/1/1 9/9/9 8/8/8
f 12/12/12 11/11/11 10/10/10
f 13/13/13 12/12/12 10/10/10
f 10/10/10 14/14/14 13/13/13
f 14/14/14 15/15/15 13/13/13
f 14/14/14 16/16/16 15/15/15
f 16/16/16 17/17/17 15/15/15
f 16/16/16 18/18/18 17/17/17
f 18/18/18 19/19/19 17/17/17
f 18/18/18 20/20/20 19/19/19
f 20/20/20 21/21/21 19/19/19
f 20/20/20 22/22/22 21/21/21
f 22/22/22 23/23/23 21/21/21
f 22/22/22 24/24/24 23/23/23
f 24/24/24 25/25/25 23/23/23
f 24/24/24 26/26/26 25/25/25
f 26/26/26 27/27/27 25/25/25
f 30/30/30 29/29/29 28/28/28
f 30/30/30 28/28/28 31/31/31
f 31/31/31 32/32/32 30/30/30
f 28/28/28 33/33/33 31/31/31
f 33/33/33 34/34/34 31/31/31
f 34/34/34 35/35/35 31/31/31
f 35/35/35 36/36/36 31/31/31
f 39/39/39 38/38/38 37/37/37
f 38/38/38 40/40/40 37/37/37
f 38/38/38 41/41/41 40/40/40
f 39/39/39 37/37/37 42/42/42
f 43/43/43 39/39/39 42/42/42
f 41/41/41 44/44/44 40/40/40
f 41/41/41 45/45/45 44/44/44
f 43/43/43 42/42/42 46/46/46
f 47/47/47 43/43/43 46/46/46
f 45/45/45 48/48/48 44/44/44
f 45/45/45 49/49/49 48/48/48
f 47/47/47 46/46/46 50/50/50
f 51/51/51 47/47/47 50/50/50
f 49/49/49 51/51/51 52/52/52
f 49/49/49 52/52/52 48/48/48
f 51/51/51 50/50/50 52/52/52
f 40/40/40 53/53/53 37/37/37
f 37/37/37 54/54/54 42/42/42
f 53/53/53 54/54/54 37/37/37
f 44/44/44 55/55/55 40/40/40
f 55/55/55 53/53/53 40/40/40
f 42/42/42 56/56/56 46/46/46
f 54/54/54 56/56/56 42/42/42
f 48/48/48 57/57/57 44/44/44
f 57/57/57 55/55/55 44/44/44
f 52/52/52 58/58/58 48/48/48
f 58/58/58 57/57/57 48/48/48
f 50/50/50 59/59/59 52/52/52
f 59/59/59 58/58/58 52/52/52
f 46/46/46 60/60/60 50/50/50
f 56/56/56 60/60/60 46/46/46
f 60/60/60 59/59/59 50/50/50
f 53/53/53 61/61/61 54/54/54
f 55/55/55 62/62/62 53/53/53
f 62/62/62 61/61/61 53/53/53
f 57/57/57 63/63/63 55/55/55
f 63/63/63 62/62/62 55/55/55
f 58/58/58 64/64/64 57/57/57
f 64/64/64 63/63/63 57/57/57
f 65/65/65 64/64/64 58/58/58
f 59/59/59 65/65/65 58/58/58
f 63/63/63 64/64/64 65/65/65
f 66/66/66 65/65/65 59/59/59
f 65/65/65 66/66/66 63/63/63
f 60/60/60 66/66/66 59/59/59
f 66/66/66 62/62/62 63/63/63
f 67/67/67 66/66/66 60/60/60
f 66/66/66 67/67/67 62/62/62
f 56/56/56 67/67/67 60/60/60
f 67/67/67 61/61/61 62/62/62
f 61/61/61 68/68/68 54/54/54
f 54/54/54 68/68/68 56/56/56
f 68/68/68 67/67/67 56/56/56
f 67/67/67 68/68/68 61/61/61
f 71/71/71 70/70/70 69/69/69
f 70/70/70 72/72/72 69/69/69
f 71/71/71 69/69/69 73/73/73
f 70/70/70 74/74/74 72/72/72
f 75/75/75 71/71/71 73/73/73
f 74/74/74 76/76/76 72/72/72
f 75/75/75 73/73/73 77/77/77
f 74/74/74 78/78/78 76/76/76
f 79/79/79 75/75/75 77/77/77
f 78/78/78 80/80/80 76/76/76
f 79/79/79 77/77/77 81/81/81
f 78/78/78 82/82/82 80/80/80
f 83/83/83 79/79/79 81/81/81
f 82/82/82 84/84/84 80/80/80
f 83/83/83 81/81/81 84/84/84
f 82/82/82 83/83/83 84/84/84
f 87/87/87 86/86/86 85/85/85
f 86/86/86 88/88/88 85/85/85
f 87/87/87 85/85/85 89/89/89
f 86/86/86 90/90/90 88/88/88
f 91/91/91 87/87/87 89/89/89
f 90/90/90 92/92/92 88/88/88
f 91/91/91 89/89/89 93/93/93
f 90/90/90 94/94/94 92/92/92
f 95/95/95 91/91/91 93/93/93
f 94/94/94 96/96/96 92/92/92
f 95/95/95 93/93/93 97/97/97
f 94/94/94 98/98/98 96/96/96
f 99/99/99 95/95/95 97/97/97
f 98/98/98 100/100/100 96/96/96
f 99/99/99 97/97/97 100/100/100
f 98/98/98 99/99/99 100/100/100
f 103/103/103 102/102/102 101/101/101
f 104/104/104 103/103/103 101/101/101
f 104/104/104 101/101/101 105/105/105
f 103/103/103 106/106/106 102/102/102
f 106/106/106 107/107/107 102/102/102
f 108/108/108 104/104/104 105/105/105
f 108/108/108 105/105/105 109/109/109
f 106/106/106 110/110/110 107/107/107
f 110/110/110 111/111/111 107/107/107
f 112/112/112 108/108/108 109/109/109
f 112/112/112 109/109/109 113/113/113
f 110/110/110 114/114/114 111/111/111
f 114/114/114 115/115/115 111/111/111
f 116/116/116 113/113/113 115/115/115
f 116/116/116 112/112/112 113/113/113
f 114/114/114 116/116/116 115/115/115
f 103/103/103 117/117/117 106/106/106
f 104/104/104 118/118/118 103/103/103
f 118/118/118 117/117/117 103/103/103
f 108/108/108 119/119/119 104/104/104
f 119/119/119 118/118/118 104/104/104
f 106/106/106 120/120/120 110/110/110
f 117/117/117 120/120/120 106/106/106
f 112/112/112 121/121/121 108/108/108
f 121/121/121 119/119/119 108/108/108
f 116/116/116 122/122/122 112/112/112
f 122/122/122 121/121/121 112/112/112
f 110/110/110 123/123/123 114/114/114
f 120/120/120 123/123/123 110/110/110
f 114/114/114 124/124/124 116/116/116
f 124/124/124 122/122/122 116/116/116
f 123/123/123 124/124/124 114/114/114
f 119/119/119 125/125/125 118/118/118
f 118/118/118 126/126/126 117/117/117
f 125/125/125 126/126/126 118/118/118
f 121/121/121 127/127/127 119/119/119
f 127/127/127 125/125/125 119/119/119
f 117/117/117 128/128/128 120/120/120
f 126/126/126 128/128/128 117/117/117
f 128/128/128 129/129/129 120/120/120
f 129/129/129 128/128/128 126/126/126
f 120/120/120 129/129/129 123/123/123
f 129/129/129 126/126/126 125/125/125
f 129/129/129 130/130/130 123/123/123
f 123/123/123 130/130/130 124/124/124
f 130/130/130 129/129/129 125/125/125
f 130/130/130 131/131/131 124/124/124
f 131/131/131 130/130/130 125/125/125
f 124/124/124 131/131/131 122/122/122
f 131/131/131 125/125/125 127/127/127
f 132/132/132 127/127/127 121/121/121
f 122/122/122 132/132/132 121/121/121
f 127/127/127 132/132/132 131/131/131
f 131/131/131 132/132/132 122/122/122
f 135/135/135 134/134/134 133/133/133
f 136/136/136 135/135/135 133/133/133
f 135/135/135 137/137/137 134/134/134
f 136/136/136 133/133/133 138/138/138
f 137/137/137 139/139/139 134/134/134
f 140/140/140 136/136/136 138/138/138
f 137/137/137 141/141/141 139/139/139
f 140/140/140 138/138/138 142/142/142
f 141/141/141 143/143/143 139/139/139
f 144/144/144 140/140/140 142/142/142
f 141/141/141 145/145/145 143/143/143
f 144/144/144 142/142/142 146/146/146
f 145/145/145 147/147/147 143/143/143
f 148/148/148 144/144/144 146/146/146
f 148/148/148 146/146/146 147/147/147
f 145/145/145 148/148/148 147/147/147
