g SoupLadle_A
v -0.046402156 0.051014245 0.06600356
v -0.06369752 0.34964824 0.08099294
v 0.012402236 0.07061571 0.06600356
v -0.1305731 0.30352712 0.08099294
v -0.16055179 0.44880855 0.05332029
v -0.2078259 0.4153707 0.05332029
v -0.06369752 0.34964824 0.08099294
v -0.16055179 0.44880855 0.05332029
v -0.16055179 0.44880855 -0.05391121
v -0.06369752 0.34964824 -0.08158386
v 0.012402236 0.07061571 0.06600356
v 0.012402236 0.07061571 -0.06544149
v -0.038330913 0.049861193 -0.05506426
v 0.07581872 -0.28912872 -0.041227937
v 0.011249244 0.06600356 -0.05506426
v 0.045840025 -0.2879757 -0.041227937
v 0.10579741 -0.56354916 -0.034309745
v 0.0838899 -0.56354916 -0.034309745
v -0.038330913 0.049861193 0.055626333
v 0.045840025 -0.2879757 -0.041227937
v -0.038330913 0.049861193 -0.05506426
v 0.045840025 -0.2879757 0.040637016
v 0.0838899 -0.56354916 -0.034309745
v 0.0838899 -0.56354916 0.034871876
v 0.011249244 0.06600356 -0.05506426
v 0.07581872 -0.28912872 0.040637016
v 0.011249244 0.06600356 0.055626333
v 0.07581872 -0.28912872 -0.041227937
v 0.10579741 -0.56354916 0.034871876
v 0.10579741 -0.56354916 -0.034309745
v 0.012402236 0.07061571 -0.06544149
v 0.011249244 0.06600356 -0.05506426
v 0.011249244 0.06600356 0.055626333
v 0.012402236 0.07061571 0.06600356
v -0.046402156 0.051014245 0.06600356
v -0.038330913 0.049861193 0.055626333
v -0.038330913 0.049861193 -0.05506426
v -0.046402156 0.051014245 -0.06544149
v -0.046402156 0.051014245 -0.06544149
v -0.038330913 0.049861193 -0.05506426
v 0.011249244 0.06600356 -0.05506426
v 0.012402236 0.07061571 -0.06544149
v 0.045840025 -0.2879757 0.040637016
v -0.038330913 0.049861193 0.055626333
v 0.011249244 0.06600356 0.055626333
v 0.07581872 -0.28912872 0.040637016
v 0.0838899 -0.56354916 0.034871876
v 0.10579741 -0.56354916 0.034871876
v -0.2078259 0.4153707 0.05332029
v -0.2078259 0.4153707 -0.05391121
v -0.16055179 0.44880855 -0.05391121
v -0.16055179 0.44880855 0.05332029
v -0.06369752 0.34964824 -0.08158386
v -0.16055179 0.44880855 -0.05391121
v -0.2078259 0.4153707 -0.05391121
v -0.1305731 0.30352712 -0.08158386
v 0.012402236 0.07061571 -0.06544149
v -0.046402156 0.051014245 -0.06544149
v -0.1305731 0.30352712 -0.08158386
v -0.2078259 0.4153707 -0.05391121
v -0.2078259 0.4153707 0.05332029
v -0.1305731 0.30352712 0.08099294
v -0.046402156 0.051014245 -0.06544149
v -0.046402156 0.051014245 0.06600356
v 0.0838899 -0.56354916 0.034871876
v 0.10579741 -0.56354916 0.034871876
v 0.10579741 -0.56354916 -0.034309745
v 0.0838899 -0.56354916 -0.034309745
v -0.038330913 0.049861193 0.055626333
v -0.046402156 0.051014245 0.06600356
v 0.012402236 0.07061571 0.06600356
v 0.011249244 0.06600356 0.055626333
v 0.09657323 -0.56816125 0.0002810359
v 0.14500034 -0.56816125 -0.14845943
v 0.12770492 -0.46784788 -0.1611427
v 0.07581872 -0.46784788 0.0002810359
v 0.2660682 -0.46784788 -0.26030305
v 0.14500034 -0.56816125 0.1490215
v 0.12770492 -0.46784788 0.16055179
v 0.27298635 -0.56816125 -0.24070159
v 0.43671617 -0.46784788 -0.26030305
v 0.27298635 -0.56816125 0.24011064
v 0.2660682 -0.46784788 0.2597121
v 0.43095103 -0.56816125 -0.24070159
v 0.57507944 -0.46784788 -0.1611427
v 0.43095103 -0.56816125 0.24011064
v 0.43671617 -0.46784788 0.2597121
v 0.558937 -0.56816125 -0.14845943
v 0.62811863 -0.46784788 0.0002810359
v 0.558937 -0.56816125 0.1490215
v 0.57507944 -0.46784788 0.16055179
v 0.6073642 -0.56816125 0.0002810359
v 0.29143476 -0.65348524 0.18361235
v 0.41250262 -0.65348524 0.18361235
v 0.50935686 -0.65348524 0.11327767
v 0.5474068 -0.65348524 0.0002810359
v 0.50935686 -0.65348524 -0.113868594
v 0.41250262 -0.65348524 -0.18420327
v 0.1934275 -0.65348524 0.11327767
v 0.29143476 -0.65348524 -0.18420327
v 0.15653062 -0.65348524 0.0002810359
v 0.1934275 -0.65348524 -0.113868594
v 0.4378692 -0.7111366 -0.061982393
v 0.38482997 -0.7111366 -0.10003227
v 0.35139218 -0.73073804 0.0002810359
v 0.3191074 -0.7111366 -0.10003227
v 0.45747066 -0.7111366 0.0002810359
v 0.2660682 -0.7111366 -0.061982393
v 0.4378692 -0.7111366 0.061391473
v 0.24646673 -0.7111366 0.0002810359
v 0.38482997 -0.7111366 0.09944135
v 0.2660682 -0.7111366 0.061391473
v 0.3191074 -0.7111366 0.09944135
v 0.13001102 -0.558937 0.0002810359
v 0.10579741 -0.4632358 0.0002810359
v 0.15307152 -0.4632358 -0.1426943
v 0.17267299 -0.558937 -0.12885797
v 0.2752924 -0.4632358 -0.23147738
v 0.17267299 -0.558937 0.12942004
v 0.15307152 -0.4632358 0.14325637
v 0.28336358 -0.558937 -0.20841682
v 0.42749196 -0.4632358 -0.23147738
v 0.28336358 -0.558937 0.20897895
v 0.2752924 -0.4632358 0.23203945
v 0.4205738 -0.558937 -0.20841682
v 0.5508658 -0.4632358 -0.1426943
v 0.4205738 -0.558937 0.20897895
v 0.42749196 -0.4632358 0.23203945
v 0.53126436 -0.558937 -0.12885797
v 0.59813994 -0.4632358 0.0002810359
v 0.53126436 -0.558937 0.12942004
v 0.5508658 -0.4632358 0.14325637
v 0.5739264 -0.558937 0.0002810359
v 0.2971999 -0.6361898 0.16631693
v 0.40673748 -0.6361898 0.16631693
v 0.4943675 -0.6361898 0.102900445
v 0.5289583 -0.6361898 0.0002810359
v 0.4943675 -0.6361898 -0.10233837
v 0.40673748 -0.6361898 -0.16575485
v 0.20841682 -0.6361898 0.102900445
v 0.2971999 -0.6361898 -0.16575485
v 0.17497903 -0.6361898 0.0002810359
v 0.20841682 -0.6361898 -0.10233837
v 0.4470934 -0.688076 0.0002810359
v 0.42864498 -0.688076 -0.05506426
v 0.35139218 -0.7065245 0.0002810359
v 0.38137087 -0.688076 -0.08965504
v 0.42864498 -0.688076 0.055626333
v 0.3225665 -0.688076 -0.08965504
v 0.38137087 -0.688076 0.08906412
v 0.2752924 -0.688076 -0.05506426
v 0.3225665 -0.688076 0.08906412
v 0.25684395 -0.688076 0.0002810359
v 0.2752924 -0.688076 0.055626333
v 0.2660682 -0.46784788 -0.26030305
v 0.2752924 -0.4632358 -0.23147738
v 0.15307152 -0.4632358 -0.1426943
v 0.12770492 -0.46784788 -0.1611427
v 0.43671617 -0.46784788 -0.26030305
v 0.10579741 -0.4632358 0.0002810359
v 0.42749196 -0.4632358 -0.23147738
v 0.07581872 -0.46784788 0.0002810359
v 0.57507944 -0.46784788 -0.1611427
v 0.15307152 -0.4632358 0.14325637
v 0.5508658 -0.4632358 -0.1426943
v 0.12770492 -0.46784788 0.16055179
v 0.62811863 -0.46784788 0.0002810359
v 0.2752924 -0.4632358 0.23203945
v 0.59813994 -0.4632358 0.0002810359
v 0.2660682 -0.46784788 0.2597121
v 0.57507944 -0.46784788 0.16055179
v 0.42749196 -0.4632358 0.23203945
v 0.5508658 -0.4632358 0.14325637
v 0.43671617 -0.46784788 0.2597121
vt 0.52812034 0.46364284
vt 0.5546699 0.645697
vt 0.56604826 0.46364284
vt 0.5053635 0.645697
vt 0.5698411 0.7367241
vt 0.5357059 0.7367241
vt 0.5546699 0.645697
vt 0.5698411 0.7367241
vt 0.6381114 0.7367241
vt 0.6532826 0.645697
vt 0.56604826 0.46364284
vt 0.6419042 0.46364284
vt 0.67983216 0.45605722
vt 0.6343186 0.22469674
vt 0.6419042 0.45605722
vt 0.66466093 0.22469674
vt 0.6343186 0.031264193
vt 0.66466093 0.031264193
vt 0.6419042 0.45605722
vt 0.57363385 0.22469674
vt 0.56604826 0.45605722
vt 0.6343186 0.22469674
vt 0.57363385 0.031264193
vt 0.6343186 0.031264193
vt 0.6419042 0.45605722
vt 0.57363385 0.22469674
vt 0.56604826 0.45605722
vt 0.6343186 0.22469674
vt 0.57363385 0.031264193
vt 0.6343186 0.031264193
vt 0.6419042 0.46364284
vt 0.6419042 0.45605722
vt 0.56604826 0.45605722
vt 0.56604826 0.46364284
vt 0.6419042 0.46364284
vt 0.6419042 0.45605722
vt 0.56604826 0.45605722
vt 0.56604826 0.46364284
vt 0.67983216 0.46364284
vt 0.67983216 0.45605722
vt 0.6419042 0.45605722
vt 0.6419042 0.46364284
vt 0.54708433 0.22469674
vt 0.52812034 0.45605722
vt 0.56604826 0.45605722
vt 0.57363385 0.22469674
vt 0.54708433 0.031264193
vt 0.57363385 0.031264193
vt 0.5698411 0.7784448
vt 0.6381114 0.7784448
vt 0.6381114 0.7367241
vt 0.5698411 0.7367241
vt 0.6532826 0.645697
vt 0.6381114 0.7367241
vt 0.6722465 0.7367241
vt 0.7025889 0.645697
vt 0.6419042 0.46364284
vt 0.67983216 0.46364284
vt 0.5546699 0.645697
vt 0.5698411 0.7367241
vt 0.6381114 0.7367241
vt 0.6532826 0.645697
vt 0.56604826 0.46364284
vt 0.6419042 0.46364284
vt 0.57363385 0.016093012
vt 0.57363385 0.031264193
vt 0.6343186 0.031264193
vt 0.6343186 0.016093012
vt 0.52812034 0.45605722
vt 0.52812034 0.46364284
vt 0.56604826 0.46364284
vt 0.56604826 0.45605722
vt 0.27400306 0.12987687
vt 0.36123735 0.16021922
vt 0.4029581 0.11091289
vt 0.27400306 0.06539935
vt 0.47122842 0.21711116
vt 0.18676879 0.16021922
vt 0.14504804 0.11091289
vt 0.4067509 0.23228233
vt 0.46743563 0.330895
vt 0.13746245 0.22848953
vt 0.07677773 0.21331835
vt 0.4067509 0.311931
vt 0.3953725 0.42571488
vt 0.14125524 0.311931
vt 0.08057052 0.3271022
vt 0.35744455 0.37640855
vt 0.27400306 0.46743563
vt 0.18676879 0.37640855
vt 0.14884084 0.42571488
vt 0.27400306 0.4067509
vt 0.18676879 0.24366072
vt 0.19056158 0.29675984
vt 0.22090395 0.3384806
vt 0.27400306 0.35365176
vt 0.3271022 0.3384806
vt 0.35744455 0.29675984
vt 0.21711116 0.20193997
vt 0.35744455 0.24366072
vt 0.27400306 0.182976
vt 0.3271022 0.20193997
vt 0.30055264 0.30434543
vt 0.3157238 0.28158867
vt 0.27400306 0.27021027
vt 0.3157238 0.2588319
vt 0.27400306 0.311931
vt 0.30055264 0.23607512
vt 0.24745351 0.30434543
vt 0.27400306 0.22848953
vt 0.23228233 0.28158867
vt 0.24745351 0.23607512
vt 0.23228233 0.2588319
vt 0.2588319 0.90739983
vt 0.2588319 0.98325574
vt 0.39157972 0.94532776
vt 0.34606618 0.8770575
vt 0.4826068 0.8315439
vt 0.1753904 0.8770575
vt 0.12987687 0.94532776
vt 0.3991653 0.8012016
vt 0.478814 0.67983216
vt 0.12229127 0.8012016
vt 0.035056986 0.82775116
vt 0.3991653 0.7101745
vt 0.38778692 0.5698411
vt 0.12229127 0.7101745
vt 0.04643537 0.67983216
vt 0.34606618 0.6381114
vt 0.26262468 0.5357059
vt 0.1791832 0.6381114
vt 0.13366966 0.5698411
vt 0.26262468 0.61156183
vt 0.1753904 0.7860304
vt 0.1753904 0.7291385
vt 0.20952556 0.6836249
vt 0.26262468 0.66466093
vt 0.3157238 0.6836249
vt 0.34606618 0.7291385
vt 0.20573276 0.8315439
vt 0.34606618 0.7860304
vt 0.2588319 0.8505079
vt 0.3157238 0.8315439
vt 0.26262468 0.7101745
vt 0.28917426 0.7215529
vt 0.26262468 0.755688
vt 0.30434543 0.74430966
vt 0.23607512 0.7215529
vt 0.30055264 0.77085924
vt 0.22090395 0.74430966
vt 0.28538147 0.793616
vt 0.21711116 0.77085924
vt 0.2588319 0.8012016
vt 0.23228233 0.793616
vt 0.47122842 0.21711116
vt 0.5053635 0.20952556
vt 0.42571488 0.08815612
vt 0.4029581 0.11091289
vt 0.46743563 0.330895
vt 0.27400306 0.027471397
vt 0.49398518 0.3384806
vt 0.27400306 0.06539935
vt 0.3953725 0.42571488
vt 0.12229127 0.08436333
vt 0.4181293 0.44847164
vt 0.14504804 0.11091289
vt 0.27400306 0.46743563
vt 0.04264258 0.20573276
vt 0.27021027 0.5053635
vt 0.07677773 0.21331835
vt 0.14884084 0.42571488
vt 0.050228167 0.3346878
vt 0.12608406 0.44847164
vt 0.08057052 0.3271022
vn 0.015870988 -0.047613025 0.9987398
vn -0.047613025 0.07935512 0.9957087
vn 0.015870988 -0.047613025 0.9987398
vn -0.047613025 0.047613025 0.99773043
vn -0.1110971 0.17458117 0.97835517
vn -0.1110971 0.17458117 0.97835517
vn 0.87115216 0.49101308 -0
vn 0.7141957 0.68245375 -0.15550359
vn 0.7141957 0.68245375 -0.15550359
vn 0.87115216 0.49101308 -0
vn 0.9632913 0.2684583 -0
vn 0.9632913 0.2684583 -0
vn 0.015870988 -0.047613025 -0.9987398
vn 0.015870988 -0.015870988 -0.99974805
vn 0.015870988 -0.047613025 -0.9987398
vn 0.015870988 -0.047613025 -0.9987398
vn 0.015870988 -0.015870988 -0.99974805
vn 0.015870988 -0.015870988 -0.99974805
vn -0.968132 -0.23806524 -0.07775189
vn -0.968132 -0.2063232 -0.14195476
vn -0.968132 -0.23806524 -0.07775189
vn -0.968132 -0.2063232 -0.14195476
vn -0.98994946 -0.14142135 -0
vn -0.98994946 -0.14142135 -0
vn 0.96813196 0.17458117 -0.17956044
vn 0.98994946 0.14142141 -0
vn 0.96813196 0.17458117 -0.17956044
vn 0.98994946 0.14142141 -0
vn 0.9938838 0.110431515 -0
vn 0.9938838 0.110431515 -0
vn 0.96813196 -0.23806524 -0.07775266
vn 0.96813196 -0.23806524 -0.07775266
vn 0.96813196 -0.23806524 -0.07775266
vn 0.96813196 -0.23806524 -0.07775266
vn -0.110431515 -0.9938838 -0
vn -0.110431515 -0.9938838 -0
vn -0.110431515 -0.9938838 -0
vn -0.110431515 -0.9938838 -0
vn 0.30154932 -0.9046479 -0.30113152
vn 0.30154932 -0.9046479 -0.30113152
vn 0.30154932 -0.9046479 -0.30113152
vn 0.30154932 -0.9046479 -0.30113152
vn 0.015870988 -0.047613025 0.9987398
vn 0.015870988 -0.047613025 0.9987398
vn 0.015870988 -0.047613025 0.9987398
vn 0.015870988 -0.015870988 0.99974805
vn 0.015870988 -0.015870988 0.99974805
vn 0.015870988 -0.015870988 0.99974805
vn -0.5554856 0.8094218 -0.19045253
vn -0.5554856 0.8094218 -0.19045253
vn -0.5554856 0.8094218 -0.19045253
vn -0.5554856 0.8094218 -0.19045253
vn -0.047613025 0.07935512 -0.9957087
vn -0.1110971 0.17458117 -0.97835517
vn -0.1110971 0.17458117 -0.97835517
vn -0.047613025 0.047613025 -0.99773043
vn 0.015870988 -0.047613025 -0.9987398
vn 0.015870988 -0.047613025 -0.9987398
vn -0.9037378 -0.42808628 -0
vn -0.8344646 -0.5510615 -0
vn -0.8344646 -0.5510615 -0
vn -0.9037378 -0.42808628 -0
vn -0.9363899 -0.33329135 -0.109958015
vn -0.9363899 -0.33329135 -0.109958015
vn -0.015871048 -0.999874 -0.00034526698
vn -0.015871048 -0.999874 -0.00034526698
vn -0.015871048 -0.999874 -0.00034526698
vn -0.015871048 -0.999874 -0.00034526698
vn 0.30154932 -0.9046479 0.30113152
vn 0.30154932 -0.9046479 0.30113152
vn 0.30154932 -0.9046479 0.30113152
vn 0.30154932 -0.9046479 0.30113152
vn -0.9207517 -0.390149 -0
vn -0.7459378 -0.39677536 -0.5349262
vn -0.7776798 -0.2063232 -0.5938391
vn -0.968132 -0.2063232 -0.14195476
vn -0.30154932 -0.2063232 -0.93085915
vn -0.7459378 -0.39677536 0.5349262
vn -0.7776798 -0.2063232 0.5938391
vn -0.26980734 -0.39677536 -0.87736726
vn 0.30154932 -0.2063232 -0.93085915
vn -0.26980734 -0.39677536 0.87736726
vn -0.30154932 -0.2063232 0.93085915
vn 0.26980728 -0.39677536 -0.87736726
vn 0.7776798 -0.2063232 -0.5938391
vn 0.26980728 -0.39677536 0.87736726
vn 0.30154932 -0.2063232 0.93085915
vn 0.7459377 -0.39677536 -0.53492635
vn 0.96813196 -0.2063232 -0.14195518
vn 0.7459377 -0.39677536 0.53492635
vn 0.7776798 -0.2063232 0.5938391
vn 0.9207517 -0.390149 -0
vn -0.20632327 -0.7141957 0.6688462
vn 0.2063232 -0.7141957 0.6688462
vn 0.5872276 -0.7141957 0.38090453
vn 0.70710677 -0.70710677 -0
vn 0.5872276 -0.7141957 -0.38090453
vn 0.2063232 -0.7141957 -0.6688462
vn -0.5872276 -0.7141957 0.38090453
vn -0.20632327 -0.7141957 -0.6688462
vn -0.70710677 -0.70710677 -0
vn -0.5872276 -0.7141957 -0.38090453
vn 0.33329135 -0.9046479 -0.26557305
vn 0.1110971 -0.9046479 -0.4114239
vn -0.015871048 -0.999874 -0.00034526698
vn -0.1110971 -0.9046479 -0.4114239
vn 0.39677536 -0.9046479 -0.15550397
vn -0.3332913 -0.9046479 -0.26557317
vn 0.33329135 -0.9046479 0.26557305
vn -0.39677536 -0.9046479 -0.15550397
vn 0.1110971 -0.9046479 0.4114239
vn -0.3332913 -0.9046479 0.26557317
vn -0.1110971 -0.9046479 0.4114239
vn 0.931708 0.36320823 -0
vn 0.96813196 0.23806524 -0.07775266
vn 0.7776798 0.23806524 0.5818411
vn 0.7459377 0.3650334 0.5570705
vn 0.30154932 0.23806524 0.9232513
vn 0.7459377 0.3650334 -0.5570705
vn 0.7776798 0.23806524 -0.5818411
vn 0.26980728 0.3650334 0.8910413
vn -0.30154932 0.23806524 0.9232513
vn 0.26980728 0.3650334 -0.8910413
vn 0.30154932 0.23806524 -0.9232513
vn -0.26980734 0.3650334 0.8910413
vn -0.7776798 0.23806524 0.5818411
vn -0.26980734 0.3650334 -0.8910413
vn -0.30154932 0.23806524 -0.9232513
vn -0.7459378 0.3650334 0.5570704
vn -0.968132 0.23806524 -0.07775189
vn -0.7459378 0.3650334 -0.5570704
vn -0.7776798 0.23806524 -0.5818411
vn -0.931708 0.36320823 -0
vn 0.23806524 0.68245375 -0.69107294
vn -0.23806524 0.68245375 -0.69107294
vn -0.5872276 0.68245375 -0.4352248
vn -0.7378054 0.6750134 -0
vn -0.5872276 0.68245375 0.4352248
vn -0.23806524 0.68245375 0.69107294
vn 0.5872276 0.68245375 -0.4352248
vn 0.23806524 0.68245375 0.69107294
vn 0.73780537 0.67501354 -0
vn 0.5872276 0.68245375 0.4352248
vn -0.39677536 0.90464795 -0.15550359
vn -0.3332913 0.90464795 0.26557294
vn -0.015871048 0.999874 -0.00034526698
vn -0.1110971 0.90464795 0.41142374
vn -0.3332913 0.90464795 -0.26557294
vn 0.1110971 0.90464795 0.41142374
vn -0.1110971 0.90464795 -0.41142374
vn 0.33329135 0.90464795 0.26557282
vn 0.1110971 0.90464795 -0.41142374
vn 0.39677536 0.90464795 -0.15550359
vn 0.33329135 0.90464795 -0.26557282
vn -0.04756513 0.99886817 -0
vn -0.04756513 0.99886817 -0
vn -0.14142141 0.98994946 -0
vn -0.14142141 0.98994946 -0
vn 0.04756513 0.99886817 -0
vn -0.14142141 0.98994946 -0
vn 0.04756513 0.99886817 -0
vn -0.14142141 0.98994946 -0
vn 0.14142135 0.98994946 -0
vn -0.14142141 0.98994946 -0
vn 0.14142135 0.98994946 -0
vn -0.14142141 0.98994946 -0
vn 0.14142135 0.98994946 -0
vn -0.04756513 0.99886817 -0
vn 0.14142135 0.98994946 -0
vn -0.04756513 0.99886817 -0
vn 0.14142135 0.98994946 -0
vn 0.04756513 0.99886817 -0
vn 0.14142135 0.98994946 -0
vn 0.04756513 0.99886817 -0
g SoupLadle_A_0
f 3/3/3 2/2/2 1/1/1
f 2/2/2 4/4/4 1/1/1
f 2/2/2 5/5/5 4/4/4
f 5/5/5 6/6/6 4/4/4
f 9/9/9 8/8/8 7/7/7
f 10/10/10 9/9/9 7/7/7
f 7/7/7 11/11/11 10/10/10
f 11/11/11 12/12/12 10/10/10
f 15/15/15 14/14/14 13/13/13
f 14/14/14 16/16/16 13/13/13
f 14/14/14 17/17/17 16/16/16
f 17/17/17 18/18/18 16/16/16
f 21/21/21 20/20/20 19/19/19
f 20/20/20 22/22/22 19/19/19
f 20/20/20 23/23/23 22/22/22
f 23/23/23 24/24/24 22/22/22
f 27/27/27 26/26/26 25/25/25
f 26/26/26 28/28/28 25/25/25
f 26/26/26 29/29/29 28/28/28
f 29/29/29 30/30/30 28/28/28
f 33/33/33 32/32/32 31/31/31
f 34/34/34 33/33/33 31/31/31
f 37/37/37 36/36/36 35/35/35
f 38/38/38 37/37/37 35/35/35
f 41/41/41 40/40/40 39/39/39
f 42/42/42 41/41/41 39/39/39
f 45/45/45 44/44/44 43/43/43
f 46/46/46 45/45/45 43/43/43
f 43/43/43 47/47/47 46/46/46
f 47/47/47 48/48/48 46/46/46
f 51/51/51 50/50/50 49/49/49
f 52/52/52 51/51/51 49/49/49
f 55/55/55 54/54/54 53/53/53
f 56/56/56 55/55/55 53/53/53
f 53/53/53 57/57/57 56/56/56
f 57/57/57 58/58/58 56/56/56
f 61/61/61 60/60/60 59/59/59
f 62/62/62 61/61/61 59/59/59
f 59/59/59 63/63/63 62/62/62
f 63/63/63 64/64/64 62/62/62
f 67/67/67 66/66/66 65/65/65
f 68/68/68 67/67/67 65/65/65
f 71/71/71 70/70/70 69/69/69
f 72/72/72 71/71/71 69/69/69
f 75/75/75 74/74/74 73/73/73
f 76/76/76 75/75/75 73/73/73
f 75/75/75 77/77/77 74/74/74
f 76/76/76 73/73/73 78/78/78
f 79/79/79 76/76/76 78/78/78
f 77/77/77 80/80/80 74/74/74
f 77/77/77 81/81/81 80/80/80
f 79/79/79 78/78/78 82/82/82
f 83/83/83 79/79/79 82/82/82
f 81/81/81 84/84/84 80/80/80
f 81/81/81 85/85/85 84/84/84
f 83/83/83 82/82/82 86/86/86
f 87/87/87 83/83/83 86/86/86
f 85/85/85 88/88/88 84/84/84
f 85/85/85 89/89/89 88/88/88
f 87/87/87 86/86/86 90/90/90
f 91/91/91 87/87/87 90/90/90
f 89/89/89 91/91/91 92/92/92
f 89/89/89 92/92/92 88/88/88
f 91/91/91 90/90/90 92/92/92
f 82/82/82 78/78/78 93/93/93
f 86/86/86 82/82/82 94/94/94
f 82/82/82 93/93/93 94/94/94
f 90/90/90 86/86/86 95/95/95
f 86/86/86 94/94/94 95/95/95
f 92/92/92 90/90/90 96/96/96
f 90/90/90 95/95/95 96/96/96
f 88/88/88 92/92/92 97/97/97
f 92/92/92 96/96/96 97/97/97
f 84/84/84 88/88/88 98/98/98
f 88/88/88 97/97/97 98/98/98
f 78/78/78 99/99/99 93/93/93
f 78/78/78 73/73/73 99/99/99
f 84/84/84 98/98/98 100/100/100
f 80/80/80 84/84/84 100/100/100
f 73/73/73 101/101/101 99/99/99
f 73/73/73 74/74/74 101/101/101
f 74/74/74 80/80/80 102/102/102
f 80/80/80 100/100/100 102/102/102
f 74/74/74 102/102/102 101/101/101
f 97/97/97 96/96/96 103/103/103
f 98/98/98 97/97/97 104/104/104
f 97/97/97 103/103/103 104/104/104
f 104/104/104 103/103/103 105/105/105
f 106/106/106 104/104/104 105/105/105
f 98/98/98 104/104/104 106/106/106
f 100/100/100 98/98/98 106/106/106
f 103/103/103 107/107/107 105/105/105
f 96/96/96 107/107/107 103/103/103
f 96/96/96 95/95/95 107/107/107
f 100/100/100 106/106/106 108/108/108
f 102/102/102 100/100/100 108/108/108
f 108/108/108 106/106/106 105/105/105
f 95/95/95 109/109/109 107/107/107
f 107/107/107 109/109/109 105/105/105
f 95/95/95 94/94/94 109/109/109
f 102/102/102 108/108/108 110/110/110
f 110/110/110 108/108/108 105/105/105
f 101/101/101 102/102/102 110/110/110
f 94/94/94 111/111/111 109/109/109
f 109/109/109 111/111/111 105/105/105
f 94/94/94 93/93/93 111/111/111
f 101/101/101 110/110/110 112/112/112
f 112/112/112 110/110/110 105/105/105
f 99/99/99 101/101/101 112/112/112
f 111/111/111 113/113/113 105/105/105
f 93/93/93 113/113/113 111/111/111
f 113/113/113 112/112/112 105/105/105
f 99/99/99 112/112/112 113/113/113
f 93/93/93 99/99/99 113/113/113
f 116/116/116 115/115/115 114/114/114
f 117/117/117 116/116/116 114/114/114
f 118/118/118 116/116/116 117/117/117
f 114/114/114 115/115/115 119/119/119
f 115/115/115 120/120/120 119/119/119
f 121/121/121 118/118/118 117/117/117
f 122/122/122 118/118/118 121/121/121
f 119/119/119 120/120/120 123/123/123
f 120/120/120 124/124/124 123/123/123
f 125/125/125 122/122/122 121/121/121
f 126/126/126 122/122/122 125/125/125
f 123/123/123 124/124/124 127/127/127
f 124/124/124 128/128/128 127/127/127
f 129/129/129 126/126/126 125/125/125
f 130/130/130 126/126/126 129/129/129
f 127/127/127 128/128/128 131/131/131
f 128/128/128 132/132/132 131/131/131
f 132/132/132 130/130/130 133/133/133
f 133/133/133 130/130/130 129/129/129
f 131/131/131 132/132/132 133/133/133
f 119/119/119 123/123/123 134/134/134
f 123/123/123 127/127/127 135/135/135
f 134/134/134 123/123/123 135/135/135
f 127/127/127 131/131/131 136/136/136
f 135/135/135 127/127/127 136/136/136
f 131/131/131 133/133/133 137/137/137
f 136/136/136 131/131/131 137/137/137
f 133/133/133 129/129/129 138/138/138
f 137/137/137 133/133/133 138/138/138
f 129/129/129 125/125/125 139/139/139
f 138/138/138 129/129/129 139/139/139
f 140/140/140 119/119/119 134/134/134
f 114/114/114 119/119/119 140/140/140
f 139/139/139 125/125/125 141/141/141
f 125/125/125 121/121/121 141/141/141
f 142/142/142 114/114/114 140/140/140
f 117/117/117 114/114/114 142/142/142
f 121/121/121 117/117/117 143/143/143
f 141/141/141 121/121/121 143/143/143
f 143/143/143 117/117/117 142/142/142
f 136/136/136 137/137/137 144/144/144
f 137/137/137 138/138/138 145/145/145
f 144/144/144 137/137/137 145/145/145
f 144/144/144 145/145/145 146/146/146
f 145/145/145 147/147/147 146/146/146
f 145/145/145 138/138/138 147/147/147
f 138/138/138 139/139/139 147/147/147
f 148/148/148 144/144/144 146/146/146
f 148/148/148 136/136/136 144/144/144
f 135/135/135 136/136/136 148/148/148
f 147/147/147 139/139/139 149/149/149
f 139/139/139 141/141/141 149/149/149
f 147/147/147 149/149/149 146/146/146
f 150/150/150 135/135/135 148/148/148
f 150/150/150 148/148/148 146/146/146
f 134/134/134 135/135/135 150/150/150
f 149/149/149 141/141/141 151/151/151
f 141/141/141 143/143/143 151/151/151
f 149/149/149 151/151/151 146/146/146
f 152/152/152 134/134/134 150/150/150
f 152/152/152 150/150/150 146/146/146
f 140/140/140 134/134/134 152/152/152
f 151/151/151 143/143/143 153/153/153
f 151/151/151 153/153/153 146/146/146
f 143/143/143 142/142/142 153/153/153
f 154/154/154 140/140/140 152/152/152
f 154/154/154 152/152/152 146/146/146
f 153/153/153 154/154/154 146/146/146
f 142/142/142 140/140/140 154/154/154
f 153/153/153 142/142/142 154/154/154
f 157/157/157 156/156/156 155/155/155
f 158/158/158 157/157/157 155/155/155
f 155/155/155 156/156/156 159/159/159
f 160/160/160 157/157/157 158/158/158
f 156/156/156 161/161/161 159/159/159
f 162/162/162 160/160/160 158/158/158
f 159/159/159 161/161/161 163/163/163
f 164/164/164 160/160/160 162/162/162
f 161/161/161 165/165/165 163/163/163
f 166/166/166 164/164/164 162/162/162
f 163/163/163 165/165/165 167/167/167
f 168/168/168 164/164/164 166/166/166
f 165/165/165 169/169/169 167/167/167
f 170/170/170 168/168/168 166/166/166
f 167/167/167 169/169/169 171/171/171
f 172/172/172 168/168/168 170/170/170
f 169/169/169 173/173/173 171/171/171
f 174/174/174 172/172/172 170/170/170
f 171/171/171 173/173/173 174/174/174
f 173/173/173 172/172/172 174/174/174
