g starFish
v -0.45948988 0.10735744 0.05296302
v -0.48143852 0.113083184 0.028151512
v -0.47380424 0.13980323 0.00047713518
v -0.44612986 0.15602612 0.00047713518
v -0.4022326 0.09208882 0.06727731
v -0.45948988 0.10735744 -0.05296302
v -0.48143852 0.113083184 -0.028151542
v -0.4022326 0.09208882 -0.06727734
v -0.38505542 0.15411758 0.00047713518
v -0.23618639 0.13503182 0.00047713518
v -0.25813502 0.05391729 0.08827168
v -0.25813502 0.05391729 -0.08827171
v -0.41845548 0.031014383 0.00047713518
v -0.47189564 0.05964303 0.00047713518
v -0.45948988 0.10735744 0.05296302
v -0.4022326 0.09208882 0.06727731
v -0.25813502 0.05391729 0.08827168
v -0.28008366 -0.027197242 0.00047713518
v -0.13026035 0.02051717 0.09972316
v -0.16556907 -0.074911654 0.00047713518
v -0.10735744 0.12548894 0.00047713518
v -0.23618639 0.13503182 0.00047713518
v -0.00047713518 -0.014791489 0.10544884
v -0.00047713518 0.120717466 0.09972316
v -0.08445454 0.251455 0.00047713518
v -0.00047713518 0.251455 0.08827168
v 0.08445454 0.251455 0.00047713518
v 0.10735747 0.12548894 0.00047713518
v -0.077774525 -0.12548897 0.09972316
v -0.15316331 -0.23427784 0.08827168
v -0.22187209 -0.18560913 0.00047713518
v -0.23904926 -0.35642678 0.06727731
v -0.2905808 -0.32016382 0.00047713518
v -0.31348377 -0.37646684 -0.00047716498
v -0.27244937 -0.4050955 0.05296302
v -0.18656337 -0.39268973 -0.00047716498
v -0.23141497 -0.43372414 -0.00047716498
v -0.08445454 -0.28199226 0.00047713518
v -0.00047713518 -0.19133487 0.00047713518
v 0.077774525 -0.12548897 0.09972316
v 0.08445454 -0.28199226 0.00047713518
v 0.15316331 -0.23427784 0.08827168
v 0.18656343 -0.39268973 -0.00047716498
v 0.16556907 -0.074911654 0.00047713518
v 0.13026041 0.02051717 0.09972316
v 0.22187209 -0.18560913 0.00047713518
v 0.28008372 -0.027197242 0.00047713518
v 0.25813508 0.05391729 0.08827168
v 0.23618641 0.13503182 0.00047713518
v 0.41845554 0.031014383 0.00047713518
v 0.40223262 0.09208882 0.06727731
v 0.45948994 0.10735744 0.05296302
v 0.4718957 0.05964303 0.00047713518
v 0.23904929 -0.35642678 0.06727731
v 0.29058087 -0.32016382 0.00047713518
v 0.31348377 -0.37646684 -0.00047716498
v 0.27244937 -0.4050955 0.05296302
v 0.23141497 -0.43372414 -0.00047716498
v -0.47189564 0.05964303 0.00047713518
v -0.48143852 0.113083184 0.028151512
v -0.45948988 0.10735744 0.05296302
v -0.48811853 0.08731741 0.00047713518
v -0.48143852 0.113083184 -0.028151542
v -0.45948988 0.10735744 -0.05296302
v -0.47380424 0.13980323 0.00047713518
v -0.27244937 -0.4050955 0.05296302
v -0.2858094 -0.42322695 0.028151512
v -0.30775803 -0.40795836 -0.00047716498
v -0.31348377 -0.37646684 -0.00047716498
v -0.27244937 -0.4050955 -0.05296302
v -0.2858094 -0.42322695 -0.028151542
v -0.23141497 -0.43372414 -0.00047716498
v -0.2858094 -0.42322695 0.028151512
v -0.27244937 -0.4050955 0.05296302
v -0.26386076 -0.43849558 -0.00047716498
v -0.2858094 -0.42322695 -0.028151542
v -0.27244937 -0.4050955 -0.05296302
v -0.30775803 -0.40795836 -0.00047716498
v 0.45948994 0.10735744 0.05296302
v 0.47380427 0.13980323 0.00047713518
v 0.48143858 0.113083184 0.028151512
v 0.4461299 0.15602612 0.00047713518
v 0.40223262 0.09208882 0.06727731
v 0.45948994 0.10735744 -0.05296302
v 0.48143858 0.113083184 -0.028151542
v 0.40223262 0.09208882 -0.06727734
v 0.38505542 0.15411758 0.00047713518
v 0.23618641 0.13503182 0.00047713518
v 0.25813508 0.05391729 0.08827168
v 0.25813508 0.05391729 -0.08827171
v 0.4718957 0.05964303 0.00047713518
v 0.45948994 0.10735744 0.05296302
v 0.48143858 0.113083184 0.028151512
v 0.4881186 0.08731741 0.00047713518
v 0.48143858 0.113083184 -0.028151542
v 0.45948994 0.10735744 -0.05296302
v 0.47380427 0.13980323 0.00047713518
v 0.27244937 -0.4050955 0.05296302
v 0.30775806 -0.40795836 -0.00047716498
v 0.28580943 -0.42322695 0.028151512
v 0.31348377 -0.37646684 -0.00047716498
v 0.27244937 -0.4050955 -0.05296302
v 0.28580943 -0.42322695 -0.028151542
v 0.23141497 -0.43372414 -0.00047716498
v 0.27244937 -0.4050955 0.05296302
v 0.28580943 -0.42322695 0.028151512
v 0.2638608 -0.43849558 -0.00047716498
v 0.28580943 -0.42322695 -0.028151542
v 0.27244937 -0.4050955 -0.05296302
v 0.30775806 -0.40795836 -0.00047716498
v -0.41845548 0.031014383 0.00047713518
v -0.45948988 0.10735744 -0.05296302
v -0.47189564 0.05964303 0.00047713518
v -0.4022326 0.09208882 -0.06727734
v -0.25813502 0.05391729 -0.08827171
v -0.28008366 -0.027197242 0.00047713518
v -0.13026035 0.02051717 -0.09972316
v -0.16556907 -0.074911654 0.00047713518
v -0.10735744 0.12548894 0.00047713518
v -0.23618639 0.13503182 0.00047713518
v -0.00047713518 -0.014791489 -0.1054489
v -0.00047713518 0.120717466 -0.09972316
v -0.08445454 0.251455 0.00047713518
v -0.00047713518 0.251455 -0.08827171
v 0.08445454 0.251455 0.00047713518
v 0.10735747 0.12548894 0.00047713518
v -0.077774525 -0.12548897 -0.09972316
v -0.15316331 -0.23427784 -0.08827171
v -0.22187209 -0.18560913 0.00047713518
v -0.23904926 -0.35642678 -0.06727734
v -0.2905808 -0.32016382 0.00047713518
v -0.31348377 -0.37646684 -0.00047716498
v -0.27244937 -0.4050955 -0.05296302
v -0.18656337 -0.39268973 -0.00047716498
v -0.23141497 -0.43372414 -0.00047716498
v -0.08445454 -0.28199226 0.00047713518
v -0.00047713518 -0.19133487 0.00047713518
v 0.077774525 -0.12548897 -0.09972316
v 0.08445454 -0.28199226 0.00047713518
v 0.15316331 -0.23427784 -0.08827171
v 0.18656343 -0.39268973 -0.00047716498
v 0.16556907 -0.074911654 0.00047713518
v 0.13026041 0.02051717 -0.09972316
v 0.22187209 -0.18560913 0.00047713518
v 0.28008372 -0.027197242 0.00047713518
v 0.25813508 0.05391729 -0.08827171
v 0.23618641 0.13503182 0.00047713518
v 0.41845554 0.031014383 0.00047713518
v 0.40223262 0.09208882 -0.06727734
v 0.45948994 0.10735744 -0.05296302
v 0.4718957 0.05964303 0.00047713518
v 0.23904929 -0.35642678 -0.06727734
v 0.29058087 -0.32016382 0.00047713518
v 0.31348377 -0.37646684 -0.00047716498
v 0.27244937 -0.4050955 -0.05296302
v 0.23141497 -0.43372414 -0.00047716498
v -0.06346017 0.400324 0.00047713518
v -0.00047713518 0.4604442 0.05296302
v -0.00047713518 0.400324 0.06727731
v -0.050100148 0.4604442 0.00047713518
v -0.00047713518 0.251455 0.08827168
v -0.00047713518 0.4604442 -0.05296302
v -0.08445454 0.251455 0.00047713518
v -0.00047713518 0.400324 -0.06727734
v -0.00047713518 0.251455 -0.08827171
v 0.0634602 0.400324 0.00047713518
v -0.00047713518 0.4604442 0.05296302
v 0.050100178 0.4604442 0.00047713518
v -0.00047713518 0.400324 0.06727731
v -0.00047713518 0.4604442 -0.05296302
v -0.00047713518 0.251455 0.08827168
v -0.00047713518 0.400324 -0.06727734
v 0.08445454 0.251455 0.00047713518
v -0.00047713518 0.251455 -0.08827171
v -0.050100148 0.4604442 0.00047713518
v -0.00047713518 0.48239285 0.028151512
v -0.00047713518 0.4604442 0.05296302
v 0.050100178 0.4604442 0.00047713518
v -0.027197182 0.48239285 0.00047713518
v -0.00047713518 0.48239285 -0.028151542
v -0.00047713518 0.4604442 -0.05296302
v 0.027197242 0.48239285 0.00047713518
vt 0.27133334 0.96309805
vt 0.28670588 0.9438824
vt 0.27901962 0.9246667
vt 0.25980392 0.9246667
vt 0.2252157 0.9746275
vt 0.27133334 0.88239217
vt 0.28670588 0.9016079
vt 0.2252157 0.8708628
vt 0.21368629 0.9246667
vt 0.09839216 0.9246667
vt 0.11760785 0.99
vt 0.11760785 0.8554902
vt 0.63258827 0.7901569
vt 0.60952944 0.82858825
vt 0.571098 0.820902
vt 0.5826275 0.7747843
vt 0.61337256 0.66333336
vt 0.67486274 0.68254906
vt 0.6402745 0.5672549
vt 0.71329415 0.59415686
vt 0.55956864 0.54803926
vt 0.5518824 0.6479608
vt 0.6671765 0.46733335
vt 0.5634118 0.46733335
vt 0.45964706 0.52882355
vt 0.45964706 0.46733335
vt 0.45964706 0.402
vt 0.55956864 0.3827843
vt 0.7517255 0.5249804
vt 0.8362745 0.5826275
vt 0.79784316 0.6364314
vt 0.92850983 0.6518039
vt 0.9016079 0.6902353
vt 0.9438824 0.709451
vt 0.9669412 0.67486274
vt 0.9592549 0.60952944
vt 0.99 0.64411765
vt 0.8747059 0.5326667
vt 0.8016863 0.46733335
vt 0.7517255 0.40584314
vt 0.8747059 0.402
vt 0.8362745 0.3481961
vt 0.9592549 0.32129413
vt 0.71329415 0.33666667
vt 0.6402745 0.36356863
vt 0.79784316 0.29439217
vt 0.67486274 0.24827452
vt 0.61337256 0.2674902
vt 0.5518824 0.28286275
vt 0.63258827 0.14450982
vt 0.5826275 0.15603922
vt 0.571098 0.10992157
vt 0.60952944 0.102235295
vt 0.92850983 0.28286275
vt 0.9016079 0.24058825
vt 0.9438824 0.2252157
vt 0.9669412 0.2559608
vt 0.99 0.28670588
vt 0.10992157 0.6863922
vt 0.09070589 0.6479608
vt 0.0714902 0.6518039
vt 0.10992157 0.66333336
vt 0.12913726 0.6479608
vt 0.14835295 0.6518039
vt 0.10992157 0.62874514
vt 0.01 0.62490195
vt 0.029215686 0.6402745
vt 0.048431374 0.62874514
vt 0.048431374 0.6056863
vt 0.08686274 0.62490195
vt 0.06764706 0.6402745
vt 0.27901962 0.8247451
vt 0.24058825 0.8016863
vt 0.25211766 0.7863138
vt 0.25980392 0.8247451
vt 0.24058825 0.8439608
vt 0.25211766 0.85933334
vt 0.2252157 0.8247451
vt 0.4519608 0.96309805
vt 0.4404314 0.9246667
vt 0.43658826 0.9438824
vt 0.46349022 0.9246667
vt 0.4942353 0.9746275
vt 0.4519608 0.88239217
vt 0.43658826 0.9016079
vt 0.4942353 0.8708628
vt 0.50960785 0.9246667
vt 0.6210588 0.9246667
vt 0.6056863 0.99
vt 0.6056863 0.8554902
vt 0.048431374 0.6787059
vt 0.08686274 0.71329415
vt 0.06764706 0.7171373
vt 0.048431374 0.6979216
vt 0.029215686 0.7171373
vt 0.01 0.71329415
vt 0.048431374 0.736353
vt 0.10607843 0.57878435
vt 0.06764706 0.57878435
vt 0.08686274 0.5672549
vt 0.06764706 0.6018432
vt 0.029215686 0.57878435
vt 0.048431374 0.5672549
vt 0.29439217 0.95156866
vt 0.32513726 0.91313726
vt 0.33666667 0.93235296
vt 0.31745097 0.95156866
vt 0.33666667 0.97078437
vt 0.32513726 0.99
vt 0.35203922 0.95156866
vt 0.36741176 0.30207843
vt 0.42890197 0.27133334
vt 0.3904706 0.25980392
vt 0.41737255 0.31745097
vt 0.38662747 0.42505884
vt 0.32513726 0.40968627
vt 0.3597255 0.5249804
vt 0.28670588 0.49807844
vt 0.4404314 0.54419607
vt 0.44811764 0.44427451
vt 0.33282354 0.62490195
vt 0.43658826 0.62490195
vt 0.54035294 0.55956864
vt 0.54035294 0.62490195
vt 0.54035294 0.6902353
vt 0.4404314 0.709451
vt 0.24827452 0.5672549
vt 0.1637255 0.5057647
vt 0.20215687 0.45580393
vt 0.0714902 0.4404314
vt 0.09839216 0.402
vt 0.056117646 0.3827843
vt 0.033058822 0.41352943
vt 0.0407451 0.4827059
vt 0.01 0.44811764
vt 0.12529412 0.55956864
vt 0.19831374 0.62490195
vt 0.24827452 0.6863922
vt 0.12529412 0.6902353
vt 0.1637255 0.74403924
vt 0.0407451 0.7709412
vt 0.28670588 0.7517255
vt 0.3597255 0.72482353
vt 0.20215687 0.79784316
vt 0.32513726 0.8401177
vt 0.38662747 0.8247451
vt 0.44811764 0.80937254
vt 0.36741176 0.94772553
vt 0.41737255 0.9361961
vt 0.42890197 0.9784706
vt 0.3904706 0.99
vt 0.0714902 0.80937254
vt 0.09839216 0.8516471
vt 0.056117646 0.86701965
vt 0.033058822 0.8362745
vt 0.01 0.8055294
vt 0.23290198 0.31360784
vt 0.1944706 0.2674902
vt 0.18294118 0.31360784
vt 0.23290198 0.2674902
vt 0.16756864 0.42505884
vt 0.27517647 0.2674902
vt 0.23290198 0.42505884
vt 0.28670588 0.31360784
vt 0.30207843 0.42505884
vt 0.6902353 0.9438824
vt 0.73250985 0.99
vt 0.6902353 0.99
vt 0.7401961 0.9438824
vt 0.6518039 0.99
vt 0.7594118 0.8324314
vt 0.6402745 0.9438824
vt 0.6902353 0.8324314
vt 0.62490195 0.8324314
vt 0.08686274 0.9361961
vt 0.048431374 0.9592549
vt 0.048431374 0.9784706
vt 0.01 0.9361961
vt 0.0714902 0.9361961
vt 0.048431374 0.91313726
vt 0.048431374 0.8939216
vt 0.029215686 0.9361961
vn -0.4259926 0.109127164 0.8981212
vn -0.8379177 0.23587334 0.49219683
vn -0.70710677 0.70710677 -0
vn -0.2041868 0.96466386 -0.16652735
vn -0.17250025 0.045754075 0.98394626
vn -0.4259926 0.109127164 -0.8981212
vn -0.8379177 0.23587334 -0.49219683
vn -0.17250025 0.045754075 -0.98394626
vn 0.08099204 0.9963504 -0.026947418
vn 0.11237499 0.9936659 -0
vn -0.14081371 0.014067531 0.9899362
vn -0.14081371 0.014067531 -0.9899362
vn -0.4259481 -0.90474766 -0
vn -0.6477984 -0.7464094 -0.15241455
vn -0.4259926 0.109127164 0.8981212
vn -0.17250025 0.045754075 0.98394626
vn -0.14081371 0.014067531 0.9899362
vn -0.361074 -0.93253714 -0
vn -0.07744062 0.014067531 0.9968977
vn -0.9329773 -0.3344844 -0.13294174
vn -0.6071903 0.79455656 -0
vn 0.11237499 0.9936659 -0
vn -0.014067531 0.014067531 0.9998021
vn -0.014067531 0.07744062 0.9968977
vn -0.9901601 0.13993885 -0
vn -0.014067531 0.14081371 0.9899362
vn 0.99022883 0.13945149 -0
vn 0.60939276 0.79286844 -0
vn -0.045754075 -0.0493055 0.9977352
vn -0.07744062 -0.11267859 0.99060917
vn -0.86960423 0.45767915 -0.1852519
vn -0.109127164 -0.14436513 0.9834887
vn -0.9012908 0.4259926 -0.07877329
vn -0.9901601 0.13993885 -0
vn -0.2675599 -0.36617094 0.8912523
vn 0.70710677 -0.70710677 -0
vn 0.4915994 -0.8708214 -0
vn 0.737731 -0.6750947 -0
vn -0.01406752 -0.99990106 -0
vn 0.0493055 -0.0493055 0.997566
vn -0.73612505 -0.6768455 -0
vn 0.08099204 -0.11267859 0.9903251
vn -0.7053434 -0.7088657 -0
vn 0.9365287 -0.3344844 -0.10504383
vn 0.08099204 0.014067531 0.99661547
vn 0.8731556 0.45767915 -0.16771732
vn 0.36414337 -0.9313429 -0
vn 0.14436513 0.014067531 0.98942447
vn -0.108875796 0.9940554 -0
vn 0.4288483 -0.9033766 -0
vn 0.17605168 0.045754075 0.983317
vn 0.42954403 0.109127164 0.89642805
vn 0.6513498 -0.7464094 -0.13644207
vn 0.11267859 -0.14436513 0.98308814
vn 0.90474766 0.4259481 -0
vn 0.99022883 0.13945149 -0
vn 0.2711113 -0.36617094 0.8901784
vn -0.4889065 -0.87233627 -0
vn -0.6477984 -0.7464094 -0.15241455
vn -0.8379177 0.23587334 0.49219683
vn -0.4259926 0.109127164 0.8981212
vn -0.962703 -0.27056023 -0
vn -0.8379177 0.23587334 -0.49219683
vn -0.4259926 0.109127164 -0.8981212
vn -0.70710677 0.70710677 -0
vn -0.2675599 -0.36617094 0.8912523
vn -0.4893657 -0.7147229 0.49969235
vn -0.9012908 -0.42954403 0.056274943
vn -0.9901601 0.13993885 -0
vn -0.2675599 -0.36617094 -0.8912523
vn -0.4893657 -0.7147229 -0.49969235
vn 0.4915994 -0.8708214 -0
vn -0.4893657 -0.7147229 0.49969235
vn -0.2675599 -0.36617094 0.8912523
vn -0.07721699 -0.99701434 -0
vn -0.4893657 -0.7147229 -0.49969235
vn -0.2675599 -0.36617094 -0.8912523
vn -0.9012908 -0.42954403 0.056274943
vn 0.42954403 0.109127164 0.89642805
vn 0.7088657 0.7053434 -0
vn 0.84146905 0.23587334 0.4861004
vn 0.20773822 0.96466386 -0.16207536
vn 0.17605168 0.045754075 0.983317
vn 0.42954403 0.109127164 -0.89642805
vn 0.84146905 0.23587334 -0.4861004
vn 0.17605168 0.045754075 -0.983317
vn -0.07744062 0.9963504 -0.035900295
vn -0.108875796 0.9940554 -0
vn 0.14436513 0.014067531 0.98942447
vn 0.14436513 0.014067531 -0.98942447
vn 0.6513498 -0.7464094 -0.13644207
vn 0.42954403 0.109127164 0.89642805
vn 0.84146905 0.23587334 0.4861004
vn 0.96296114 -0.2696401 -0
vn 0.84146905 0.23587334 -0.4861004
vn 0.42954403 0.109127164 -0.89642805
vn 0.7088657 0.7053434 -0
vn 0.2711113 -0.36617094 0.8901784
vn 0.9033766 -0.4288483 -0
vn 0.49291712 -0.7147229 0.4961894
vn 0.99022883 0.13945149 -0
vn 0.2711113 -0.36617094 -0.8901784
vn 0.49291712 -0.7147229 -0.4961894
vn -0.4889065 -0.87233627 -0
vn 0.2711113 -0.36617094 0.8901784
vn 0.49291712 -0.7147229 0.4961894
vn 0.08073558 -0.9967356 -0
vn 0.49291712 -0.7147229 -0.4961894
vn 0.2711113 -0.36617094 -0.8901784
vn 0.9033766 -0.4288483 -0
vn -0.4259481 -0.90474766 -0
vn -0.4259926 0.109127164 -0.8981212
vn -0.6477984 -0.7464094 -0.15241455
vn -0.17250025 0.045754075 -0.98394626
vn -0.14081371 0.014067531 -0.9899362
vn -0.361074 -0.93253714 -0
vn -0.07744062 0.014067531 -0.9968977
vn -0.9329773 -0.3344844 -0.13294174
vn -0.6071903 0.79455656 -0
vn 0.11237499 0.9936659 -0
vn -0.014067531 0.014067531 -0.9998021
vn -0.014067531 0.07744062 -0.9968977
vn -0.9901601 0.13993885 -0
vn -0.014067531 0.14081371 -0.9899362
vn 0.99022883 0.13945149 -0
vn 0.60939276 0.79286844 -0
vn -0.045754075 -0.0493055 -0.9977352
vn -0.07744062 -0.11267859 -0.99060917
vn -0.86960423 0.45767915 -0.1852519
vn -0.109127164 -0.14436513 -0.9834887
vn -0.9012908 0.4259926 -0.07877329
vn -0.9901601 0.13993885 -0
vn -0.2675599 -0.36617094 -0.8912523
vn 0.70710677 -0.70710677 -0
vn 0.4915994 -0.8708214 -0
vn 0.737731 -0.6750947 -0
vn -0.01406752 -0.99990106 -0
vn 0.0493055 -0.0493055 -0.997566
vn -0.73612505 -0.6768455 -0
vn 0.08099204 -0.11267859 -0.9903251
vn -0.7053434 -0.7088657 -0
vn 0.9365287 -0.3344844 -0.10504383
vn 0.08099204 0.014067531 -0.99661547
vn 0.8731556 0.45767915 -0.16771732
vn 0.36414337 -0.9313429 -0
vn 0.14436513 0.014067531 -0.98942447
vn -0.108875796 0.9940554 -0
vn 0.4288483 -0.9033766 -0
vn 0.17605168 0.045754075 -0.983317
vn 0.42954403 0.109127164 -0.89642805
vn 0.6513498 -0.7464094 -0.13644207
vn 0.11267859 -0.14436513 -0.98308814
vn 0.90474766 0.4259481 -0
vn 0.99022883 0.13945149 -0
vn 0.2711113 -0.36617094 -0.8901784
vn -0.4889065 -0.87233627 -0
vn -0.9853414 0.17059425 -0
vn -0.014067531 0.45767915 0.88900614
vn -0.014067531 0.17250025 0.98490906
vn -0.89162654 0.45277163 -0
vn -0.014067531 0.14081371 0.9899362
vn -0.014067531 0.45767915 -0.88900614
vn -0.9901601 0.13993885 -0
vn -0.014067531 0.17250025 -0.98490906
vn -0.014067531 0.14081371 -0.9899362
vn 0.9854431 0.17000589 -0
vn -0.014067531 0.45767915 0.88900614
vn 0.8923434 0.45135716 -0
vn -0.014067531 0.17250025 0.98490906
vn -0.014067531 0.45767915 -0.88900614
vn -0.014067531 0.14081371 0.9899362
vn -0.014067531 0.17250025 -0.98490906
vn 0.99022883 0.13945149 -0
vn -0.014067531 0.14081371 -0.9899362
vn -0.89162654 0.45277163 -0
vn -0.014067531 0.86960423 0.493549
vn -0.014067531 0.45767915 0.88900614
vn 0.8923434 0.45135716 -0
vn -0.5139805 0.8578019 -0
vn -0.014067531 0.86960423 -0.493549
vn -0.014067531 0.45767915 -0.88900614
vn 0.49291712 0.86960423 0.02865612
g starFish_0
f 3/3/3 2/2/2 1/1/1
f 4/4/4 3/3/3 1/1/1
f 4/4/4 1/1/1 5/5/5
f 3/3/3 4/4/4 6/6/6
f 7/7/7 3/3/3 6/6/6
f 6/6/6 4/4/4 8/8/8
f 9/9/9 4/4/4 5/5/5
f 4/4/4 9/9/9 8/8/8
f 10/10/10 9/9/9 5/5/5
f 9/9/9 10/10/10 8/8/8
f 11/11/11 10/10/10 5/5/5
f 10/10/10 12/12/12 8/8/8
f 15/15/15 14/14/14 13/13/13
f 16/16/16 15/15/15 13/13/13
f 17/17/17 16/16/16 13/13/13
f 18/18/18 17/17/17 13/13/13
f 19/19/19 17/17/17 18/18/18
f 20/20/20 19/19/19 18/18/18
f 19/19/19 21/21/21 17/17/17
f 21/21/21 22/22/22 17/17/17
f 23/23/23 21/21/21 19/19/19
f 23/23/23 19/19/19 20/20/20
f 21/21/21 23/23/23 24/24/24
f 21/21/21 24/24/24 25/25/25
f 24/24/24 26/26/26 25/25/25
f 26/26/26 24/24/24 27/27/27
f 24/24/24 28/28/28 27/27/27
f 23/23/23 28/28/28 24/24/24
f 29/29/29 23/23/23 20/20/20
f 29/29/29 20/20/20 30/30/30
f 20/20/20 31/31/31 30/30/30
f 30/30/30 31/31/31 32/32/32
f 31/31/31 33/33/33 32/32/32
f 33/33/33 34/34/34 32/32/32
f 34/34/34 35/35/35 32/32/32
f 32/32/32 35/35/35 36/36/36
f 30/30/30 32/32/32 36/36/36
f 35/35/35 37/37/37 36/36/36
f 38/38/38 30/30/30 36/36/36
f 29/29/29 30/30/30 38/38/38
f 39/39/39 29/29/29 38/38/38
f 23/23/23 29/29/29 39/39/39
f 40/40/40 23/23/23 39/39/39
f 40/40/40 39/39/39 41/41/41
f 42/42/42 40/40/40 41/41/41
f 42/42/42 41/41/41 43/43/43
f 23/23/23 40/40/40 44/44/44
f 44/44/44 40/40/40 42/42/42
f 45/45/45 23/23/23 44/44/44
f 28/28/28 23/23/23 45/45/45
f 46/46/46 44/44/44 42/42/42
f 45/45/45 44/44/44 47/47/47
f 28/28/28 45/45/45 48/48/48
f 48/48/48 45/45/45 47/47/47
f 49/49/49 28/28/28 48/48/48
f 48/48/48 47/47/47 50/50/50
f 51/51/51 48/48/48 50/50/50
f 52/52/52 51/51/51 50/50/50
f 53/53/53 52/52/52 50/50/50
f 46/46/46 42/42/42 54/54/54
f 55/55/55 46/46/46 54/54/54
f 56/56/56 55/55/55 54/54/54
f 54/54/54 42/42/42 43/43/43
f 57/57/57 56/56/56 54/54/54
f 57/57/57 54/54/54 43/43/43
f 58/58/58 57/57/57 43/43/43
f 61/61/61 60/60/60 59/59/59
f 60/60/60 62/62/62 59/59/59
f 62/62/62 63/63/63 59/59/59
f 63/63/63 62/62/62 60/60/60
f 63/63/63 64/64/64 59/59/59
f 65/65/65 63/63/63 60/60/60
f 68/68/68 67/67/67 66/66/66
f 69/69/69 68/68/68 66/66/66
f 68/68/68 69/69/69 70/70/70
f 71/71/71 68/68/68 70/70/70
f 74/74/74 73/73/73 72/72/72
f 73/73/73 75/75/75 72/72/72
f 75/75/75 76/76/76 72/72/72
f 76/76/76 75/75/75 73/73/73
f 76/76/76 77/77/77 72/72/72
f 78/78/78 76/76/76 73/73/73
f 81/81/81 80/80/80 79/79/79
f 80/80/80 82/82/82 79/79/79
f 79/79/79 82/82/82 83/83/83
f 82/82/82 80/80/80 84/84/84
f 80/80/80 85/85/85 84/84/84
f 82/82/82 84/84/84 86/86/86
f 82/82/82 87/87/87 83/83/83
f 87/87/87 82/82/82 86/86/86
f 87/87/87 88/88/88 83/83/83
f 88/88/88 87/87/87 86/86/86
f 88/88/88 89/89/89 83/83/83
f 90/90/90 88/88/88 86/86/86
f 93/93/93 92/92/92 91/91/91
f 94/94/94 93/93/93 91/91/91
f 95/95/95 94/94/94 91/91/91
f 94/94/94 95/95/95 93/93/93
f 96/96/96 95/95/95 91/91/91
f 95/95/95 97/97/97 93/93/93
f 100/100/100 99/99/99 98/98/98
f 99/99/99 101/101/101 98/98/98
f 101/101/101 99/99/99 102/102/102
f 99/99/99 103/103/103 102/102/102
f 106/106/106 105/105/105 104/104/104
f 107/107/107 106/106/106 104/104/104
f 108/108/108 107/107/107 104/104/104
f 107/107/107 108/108/108 106/106/106
f 109/109/109 108/108/108 104/104/104
f 108/108/108 110/110/110 106/106/106
f 113/113/113 112/112/112 111/111/111
f 112/112/112 114/114/114 111/111/111
f 114/114/114 115/115/115 111/111/111
f 115/115/115 116/116/116 111/111/111
f 115/115/115 117/117/117 116/116/116
f 117/117/117 118/118/118 116/116/116
f 119/119/119 117/117/117 115/115/115
f 120/120/120 119/119/119 115/115/115
f 119/119/119 121/121/121 117/117/117
f 117/117/117 121/121/121 118/118/118
f 121/121/121 119/119/119 122/122/122
f 122/122/122 119/119/119 123/123/123
f 124/124/124 122/122/122 123/123/123
f 122/122/122 124/124/124 125/125/125
f 126/126/126 122/122/122 125/125/125
f 126/126/126 121/121/121 122/122/122
f 121/121/121 127/127/127 118/118/118
f 118/118/118 127/127/127 128/128/128
f 129/129/129 118/118/118 128/128/128
f 129/129/129 128/128/128 130/130/130
f 131/131/131 129/129/129 130/130/130
f 132/132/132 131/131/131 130/130/130
f 133/133/133 132/132/132 130/130/130
f 133/133/133 130/130/130 134/134/134
f 130/130/130 128/128/128 134/134/134
f 135/135/135 133/133/133 134/134/134
f 128/128/128 136/136/136 134/134/134
f 128/128/128 127/127/127 136/136/136
f 127/127/127 137/137/137 136/136/136
f 127/127/127 121/121/121 137/137/137
f 121/121/121 138/138/138 137/137/137
f 137/137/137 138/138/138 139/139/139
f 138/138/138 140/140/140 139/139/139
f 139/139/139 140/140/140 141/141/141
f 138/138/138 121/121/121 142/142/142
f 138/138/138 142/142/142 140/140/140
f 121/121/121 143/143/143 142/142/142
f 121/121/121 126/126/126 143/143/143
f 142/142/142 144/144/144 140/140/140
f 142/142/142 143/143/143 145/145/145
f 143/143/143 126/126/126 146/146/146
f 143/143/143 146/146/146 145/145/145
f 126/126/126 147/147/147 146/146/146
f 145/145/145 146/146/146 148/148/148
f 146/146/146 149/149/149 148/148/148
f 149/149/149 150/150/150 148/148/148
f 150/150/150 151/151/151 148/148/148
f 140/140/140 144/144/144 152/152/152
f 144/144/144 153/153/153 152/152/152
f 153/153/153 154/154/154 152/152/152
f 140/140/140 152/152/152 141/141/141
f 154/154/154 155/155/155 152/152/152
f 152/152/152 155/155/155 141/141/141
f 155/155/155 156/156/156 141/141/141
f 159/159/159 158/158/158 157/157/157
f 158/158/158 160/160/160 157/157/157
f 161/161/161 159/159/159 157/157/157
f 160/160/160 162/162/162 157/157/157
f 163/163/163 161/161/161 157/157/157
f 162/162/162 164/164/164 157/157/157
f 165/165/165 163/163/163 157/157/157
f 164/164/164 165/165/165 157/157/157
f 168/168/168 167/167/167 166/166/166
f 167/167/167 169/169/169 166/166/166
f 170/170/170 168/168/168 166/166/166
f 169/169/169 171/171/171 166/166/166
f 172/172/172 170/170/170 166/166/166
f 171/171/171 173/173/173 166/166/166
f 174/174/174 172/172/172 166/166/166
f 173/173/173 174/174/174 166/166/166
f 177/177/177 176/176/176 175/175/175
f 176/176/176 177/177/177 178/178/178
f 176/176/176 179/179/179 175/175/175
f 179/179/179 180/180/180 175/175/175
f 180/180/180 179/179/179 176/176/176
f 180/180/180 181/181/181 175/175/175
f 181/181/181 180/180/180 178/178/178
f 182/182/182 176/176/176 178/178/178
f 180/180/180 182/182/182 178/178/178
f 182/182/182 180/180/180 176/176/176
