g SteakKnife_A
v 0.49527597 0.06438863 -0.029369593
v 0.76501125 0.06438863 -0.0005209446
v 0.49527597 0.0629462 0.028327763
v 0.19380713 0.06438863 -0.029369593
v 0.19380713 0.0629462 0.028327763
v -0.013903439 0.06438863 -0.02215743
v -0.013903439 0.0629462 0.021115601
v -0.013903439 0.0629462 0.021115601
v 0.19380713 -0.13034004 0.015345871
v -0.013903439 -0.055333436 0.021115601
v 0.19380713 0.0629462 0.028327763
v 0.49527597 -0.1332249 0.011018574
v 0.49527597 0.0629462 0.028327763
v 0.59768885 -0.1000489 0.0038064122
v 0.7087563 -0.020714998 -0.001963377
v 0.76501125 0.06438863 -0.0005209446
v -0.013903439 -0.055333436 0.021115601
v 0.19380713 -0.13178247 -0.016387701
v -0.013903439 -0.056775868 -0.016387701
v 0.19380713 -0.13034004 0.015345871
v 0.49527597 -0.1332249 -0.014945269
v 0.49527597 -0.1332249 0.011018574
v 0.59768885 -0.1000489 -0.009175539
v 0.59768885 -0.1000489 0.0038064122
v 0.7087563 -0.020714998 -0.001963377
v -0.013903439 -0.056775868 -0.016387701
v 0.19380713 0.06438863 -0.029369593
v -0.013903439 0.06438863 -0.02215743
v 0.19380713 -0.13178247 -0.016387701
v 0.49527597 0.06438863 -0.029369593
v 0.49527597 -0.1332249 -0.014945269
v 0.59768885 -0.1000489 -0.009175539
v 0.7087563 -0.020714998 -0.001963377
v 0.76501125 0.06438863 -0.0005209446
v -0.008133709 0.08314031 0.03265506
v -0.008133709 0.08314031 -0.03369689
v -0.008133709 -0.07552749 -0.025042295
v -0.008133709 -0.07552749 0.03265506
v -0.5764529 -0.12457031 -0.048121274
v -0.71059936 -0.07552749 -0.026484728
v -0.71059936 -0.07408506 0.034097493
v -0.5764529 -0.12312788 0.05717647
v -0.29229325 0.101891935 0.04563701
v -0.5764529 0.13074064 0.05717647
v -0.5764529 0.13218307 -0.06398803
v -0.29229325 0.101891935 -0.049563706
v -0.008133709 0.08314031 0.03265506
v -0.008133709 0.08314031 -0.03369689
v -0.29229325 -0.048121274 -0.036581755
v -0.5764529 -0.12457031 -0.048121274
v -0.5764529 -0.12312788 0.05717647
v -0.29229325 -0.04667884 0.04563701
v -0.008133709 -0.07552749 -0.025042295
v -0.008133709 -0.07552749 0.03265506
v -0.71059936 0.08169788 0.034097493
v -0.71059936 -0.07408506 0.034097493
v -0.71059936 -0.07552749 -0.026484728
v -0.71059936 0.08314031 -0.036581755
v -0.5764529 -0.12312788 0.05717647
v -0.71059936 -0.07408506 0.034097493
v -0.71059936 0.08169788 0.034097493
v -0.5764529 0.13074064 0.05717647
v -0.29229325 -0.04667884 0.04563701
v -0.29229325 0.101891935 0.04563701
v -0.008133709 -0.07552749 0.03265506
v -0.008133709 0.08314031 0.03265506
v -0.5764529 0.13074064 0.05717647
v -0.71059936 0.08169788 0.034097493
v -0.71059936 0.08314031 -0.036581755
v -0.5764529 0.13218307 -0.06398803
v -0.5764529 0.13218307 -0.06398803
v -0.71059936 0.08314031 -0.036581755
v -0.71059936 -0.07552749 -0.026484728
v -0.5764529 -0.12457031 -0.048121274
v -0.29229325 0.101891935 -0.049563706
v -0.29229325 -0.048121274 -0.036581755
v -0.008133709 0.08314031 -0.03369689
v -0.008133709 -0.07552749 -0.025042295
vt 0.32543755 0.554857
vt 0.020798516 0.5360522
vt 0.32167655 0.5999887
vt 0.7015351 0.55861807
vt 0.7015351 0.60374975
vt 0.96480334 0.554857
vt 0.96480334 0.5887058
vt 0.96480334 0.554857
vt 0.7015351 0.4232229
vt 0.96480334 0.4570717
vt 0.7015351 0.55861807
vt 0.3291985 0.4232229
vt 0.32543755 0.554857
vt 0.21260828 0.43450582
vt 0.09601803 0.47587657
vt 0.020798516 0.5360522
vt 0.96480334 0.43074486
vt 0.7015351 0.4232229
vt 0.96480334 0.4570717
vt 0.70529604 0.40065706
vt 0.3291985 0.4232229
vt 0.3291985 0.40065706
vt 0.21260828 0.43450582
vt 0.2088473 0.4232229
vt 0.09601803 0.47587657
vt 0.96480334 0.4570717
vt 0.7015351 0.55861807
vt 0.96480334 0.554857
vt 0.7015351 0.4232229
vt 0.32543755 0.554857
vt 0.3291985 0.4232229
vt 0.21260828 0.43450582
vt 0.09601803 0.47587657
vt 0.020798516 0.5360522
vt 0.01703754 0.24645706
vt 0.065930225 0.25021803
vt 0.065930225 0.14867169
vt 0.024559492 0.14491071
vt 0.76923263 0.3780912
vt 0.93847656 0.30287167
vt 0.9234327 0.25773996
vt 0.7579497 0.29534975
vt 0.41570094 0.34048143
vt 0.76923263 0.3780912
vt 0.7579497 0.29534975
vt 0.41193998 0.27278388
vt 0.062169246 0.2991107
vt 0.065930225 0.25021803
vt 0.41193998 0.12610583
vt 0.7579497 0.10353998
vt 0.76923263 0.020798516
vt 0.41570094 0.062169246
vt 0.065930225 0.14867169
vt 0.062169246 0.10353998
vt 0.9234327 0.14114973
vt 0.9234327 0.25773996
vt 0.9685644 0.25773996
vt 0.97608626 0.14114973
vt 0.7579497 0.29534975
vt 0.9234327 0.25773996
vt 0.9234327 0.14114973
vt 0.7579497 0.10353998
vt 0.41193998 0.27278388
vt 0.41193998 0.12610583
vt 0.065930225 0.25021803
vt 0.065930225 0.14867169
vt 0.7579497 0.10353998
vt 0.9234327 0.14114973
vt 0.93847656 0.088496074
vt 0.76923263 0.020798516
vt 0.7579497 0.29534975
vt 0.9234327 0.25773996
vt 0.9234327 0.14114973
vt 0.7579497 0.10353998
vt 0.41193998 0.27278388
vt 0.41193998 0.12610583
vt 0.065930225 0.25021803
vt 0.065930225 0.14867169
vn -0.015871039 0.9998741 -0
vn -0.015871039 0.9998741 -0
vn -0.015871039 0.9998741 -0
vn -0.015871039 0.9998741 -0
vn -0.015871039 0.9998741 -0
vn -0.015871039 0.9998741 -0
vn -0.015871039 0.9998741 -0
vn -0.015871048 -0.047613084 0.9987398
vn 0.015870988 -0.047613084 0.9987398
vn -0.015871048 -0.047613084 0.9987398
vn -0.015871048 -0.047613084 0.9987398
vn 0.047613084 -0.07935512 0.9957087
vn 0.047613084 -0.07935512 0.9957087
vn 0.11109716 -0.07935512 0.9906362
vn 0.11109716 -0.07935512 0.9906362
vn 0.11109716 -0.07935512 0.9906362
vn -0.33329165 -0.9363906 0.10995168
vn -0.17200102 -0.98509675 -0
vn -0.33329165 -0.9363906 0.10995168
vn -0.17458129 -0.9681327 0.17955643
vn 0.1414213 -0.9899495 -0
vn 0.1414213 -0.9899495 -0
vn 0.45345724 -0.891278 -0
vn 0.45345724 -0.891278 -0
vn 0.58722764 -0.8094219 -0
vn -0.015871048 -0.047613084 -0.9987398
vn -0.015871048 -0.07935512 -0.9967201
vn -0.015871048 -0.047613084 -0.9987398
vn -0.015871048 -0.07935512 -0.9967201
vn 0.047613084 -0.07935512 -0.9957087
vn 0.047613084 -0.07935512 -0.9957087
vn 0.07935512 -0.07935512 -0.9936828
vn 0.11109716 -0.047613084 -0.99266833
vn 0.11109716 -0.047613084 -0.99266833
vn 0.9998741 0.015871039 -0
vn 0.9998741 0.015871039 -0
vn 0.9998741 0.015871039 -0
vn 0.9998741 0.015871039 -0
vn -0.047565214 -0.99886817 -0
vn -0.8094219 -0.58722764 -0
vn -0.8094219 -0.58722764 -0
vn -0.015871039 -0.9998741 -0
vn 0.079116285 0.9968654 -0
vn -0.11043156 0.9938838 -0
vn -0.11043156 0.9938838 -0
vn 0.079116285 0.9968654 -0
vn 0.079116285 0.9968654 -0
vn 0.079116285 0.9968654 -0
vn 0.079116285 -0.9968654 -0
vn -0.047565214 -0.99886817 -0
vn -0.015871039 -0.9998741 -0
vn 0.079116285 -0.9968654 -0
vn -0.11043156 -0.9938838 -0
vn -0.11043156 -0.9938838 -0
vn -0.8094218 0.58722764 -0
vn -0.8094219 -0.58722764 -0
vn -0.8094219 -0.58722764 -0
vn -0.7776804 0.61897016 0.109950595
vn -0.047613144 0.015871048 0.9987398
vn -0.17458129 0.015871048 0.98451483
vn -0.17458129 0.015871048 0.98451483
vn -0.047613144 0.015871048 0.9987398
vn 0.047613084 0.015871048 0.9987398
vn 0.047613084 0.015871048 0.9987398
vn 0.047613084 0.015871048 0.9987398
vn 0.047613084 0.015871048 0.9987398
vn -0.11043156 0.9938838 -0
vn -0.8094218 0.58722764 -0
vn -0.7776804 0.61897016 0.109950595
vn -0.11043156 0.9938838 -0
vn -0.047613144 -0.07935512 -0.9957087
vn -0.17458129 -0.047613084 -0.98349094
vn -0.17458129 -0.047613084 -0.98349094
vn -0.047613144 -0.07935512 -0.9957087
vn 0.047613084 -0.07935512 -0.9957087
vn 0.047613084 -0.07935512 -0.9957087
vn 0.047613084 -0.07935512 -0.9957087
vn 0.047613084 -0.07935512 -0.9957087
g SteakKnife_A_0
f 3/3/3 2/2/2 1/1/1
f 1/1/1 4/4/4 3/3/3
f 4/4/4 5/5/5 3/3/3
f 5/5/5 4/4/4 6/6/6
f 7/7/7 5/5/5 6/6/6
f 10/10/10 9/9/9 8/8/8
f 9/9/9 11/11/11 8/8/8
f 11/11/11 9/9/9 12/12/12
f 13/13/13 11/11/11 12/12/12
f 12/12/12 14/14/14 13/13/13
f 13/13/13 14/14/14 15/15/15
f 13/13/13 15/15/15 16/16/16
f 19/19/19 18/18/18 17/17/17
f 18/18/18 20/20/20 17/17/17
f 20/20/20 18/18/18 21/21/21
f 22/22/22 20/20/20 21/21/21
f 21/21/21 23/23/23 22/22/22
f 23/23/23 24/24/24 22/22/22
f 23/23/23 25/25/25 24/24/24
f 28/28/28 27/27/27 26/26/26
f 27/27/27 29/29/29 26/26/26
f 29/29/29 27/27/27 30/30/30
f 31/31/31 29/29/29 30/30/30
f 30/30/30 32/32/32 31/31/31
f 30/30/30 33/33/33 32/32/32
f 34/34/34 33/33/33 30/30/30
f 37/37/37 36/36/36 35/35/35
f 38/38/38 37/37/37 35/35/35
f 41/41/41 40/40/40 39/39/39
f 42/42/42 41/41/41 39/39/39
f 45/45/45 44/44/44 43/43/43
f 46/46/46 45/45/45 43/43/43
f 46/46/46 43/43/43 47/47/47
f 48/48/48 46/46/46 47/47/47
f 51/51/51 50/50/50 49/49/49
f 52/52/52 51/51/51 49/49/49
f 52/52/52 49/49/49 53/53/53
f 54/54/54 52/52/52 53/53/53
f 57/57/57 56/56/56 55/55/55
f 58/58/58 57/57/57 55/55/55
f 61/61/61 60/60/60 59/59/59
f 62/62/62 61/61/61 59/59/59
f 62/62/62 59/59/59 63/63/63
f 64/64/64 62/62/62 63/63/63
f 64/64/64 63/63/63 65/65/65
f 66/66/66 64/64/64 65/65/65
f 69/69/69 68/68/68 67/67/67
f 70/70/70 69/69/69 67/67/67
f 73/73/73 72/72/72 71/71/71
f 74/74/74 73/73/73 71/71/71
f 74/74/74 71/71/71 75/75/75
f 76/76/76 74/74/74 75/75/75
f 76/76/76 75/75/75 77/77/77
f 78/78/78 76/76/76 77/77/77
