g Sword_01
v 0.53693914 -0.10270095 0.0005544424
v -0.3626554 -0.056023836 0.0005544424
v -0.3626554 -0.056023836 0.0047978163
v 0.68828607 0.040159225 0.0005544424
v 0.6826282 0.0019688606 -0.012175679
v 0.72789085 0.0019688606 0.0005544424
v 0.72789085 0.0019688606 0.0005544424
v 0.6826282 0.0019688606 -0.012175679
v 0.68828607 -0.037635922 0.0005544424
v 0.68828607 -0.037635922 0.0005544424
v 0.6826282 0.0019688606 0.014698982
v 0.72789085 0.0019688606 0.0005544424
v 0.72789085 0.0019688606 0.0005544424
v 0.6826282 0.0019688606 0.014698982
v 0.68828607 0.040159225 0.0005544424
v 0.68828607 -0.037635922 0.0005544424
v 0.53693914 -0.10270095 0.0005544424
v 0.53693914 0.0019688606 0.028843582
v 0.6826282 0.0019688606 0.014698982
v 0.53693914 0.0019688606 0.028843582
v 0.53693914 -0.10270095 0.0005544424
v -0.3626554 -0.056023836 0.0047978163
v -0.3626554 0.0019688606 0.028843582
v 0.53693914 0.10522425 0.0005544424
v 0.53693914 0.0019688606 0.028843582
v -0.3626554 0.0019688606 0.028843582
v -0.3626554 0.059961617 0.0005544424
v 0.53693914 0.0019688606 -0.026320279
v 0.53693914 -0.10270095 0.0005544424
v 0.68828607 -0.037635922 0.0005544424
v 0.6826282 0.0019688606 -0.012175679
v -0.3626554 0.059961617 0.0005544424
v -0.3626554 0.0019688606 -0.026320279
v 0.53693914 0.0019688606 -0.026320279
v 0.53693914 0.10522425 0.0005544424
v -0.3626554 0.0019688606 -0.026320279
v -0.3626554 -0.056023836 0.0005544424
v 0.53693914 -0.10270095 0.0005544424
v 0.53693914 0.0019688606 -0.026320279
v 0.68828607 0.040159225 0.0005544424
v 0.6826282 0.0019688606 0.014698982
v 0.53693914 0.0019688606 0.028843582
v 0.53693914 0.10522425 0.0005544424
v -0.38387227 -0.13523346 -0.04753709
v -0.38387227 0.1377567 -0.04753709
v -0.38387227 0.1377567 0.05147487
v -0.38387227 -0.13523346 0.05147487
v -0.38387227 0.1377567 -0.04753709
v -0.38387227 -0.13523346 -0.04753709
v -0.3400241 -0.13523346 -0.04753709
v -0.3400241 0.1377567 -0.04753709
v -0.3400241 0.1377567 -0.04753709
v -0.3400241 -0.13523346 -0.04753709
v -0.3400241 -0.13523346 0.05147487
v -0.3400241 0.1377567 0.05147487
v -0.35841203 0.045817018 -0.03197807
v -0.35841203 0.045817018 0.034501374
v -0.6639347 0.045817018 0.034501374
v -0.6639347 0.045817018 -0.03197807
v -0.6639347 -0.043293715 -0.03197807
v -0.6639347 -0.043293715 0.034501374
v -0.35841203 -0.043293715 0.034501374
v -0.35841203 -0.043293715 -0.03197807
v -0.35841203 0.045817018 0.034501374
v -0.35841203 -0.043293715 0.034501374
v -0.6639347 -0.043293715 0.034501374
v -0.6639347 0.045817018 0.034501374
v -0.3400241 0.1377567 0.05147487
v -0.3400241 -0.13523346 0.05147487
v -0.38387227 -0.13523346 0.05147487
v -0.38387227 0.1377567 0.05147487
v 0.53693914 0.10522425 0.0005544424
v 0.53693914 0.0019688606 -0.026320279
v 0.6826282 0.0019688606 -0.012175679
v 0.68828607 0.040159225 0.0005544424
v -0.38387227 -0.13523346 -0.04753709
v -0.38387227 -0.13523346 0.05147487
v -0.3400241 -0.13523346 0.05147487
v -0.3400241 -0.13523346 -0.04753709
v -0.3400241 0.1377567 -0.04753709
v -0.3400241 0.1377567 0.05147487
v -0.38387227 0.1377567 0.05147487
v -0.38387227 0.1377567 -0.04753709
v -0.6639347 0.045817018 -0.03197807
v -0.6639347 -0.043293715 -0.03197807
v -0.35841203 -0.043293715 -0.03197807
v -0.35841203 0.045817018 -0.03197807
v -0.6639347 -0.043293715 -0.03197807
v -0.6639347 0.045817018 -0.03197807
v -0.6639347 0.045817018 0.034501374
v -0.6639347 -0.043293715 0.034501374
v -0.71909845 -0.054609418 -0.0390504
v -0.71909845 0.05713272 -0.0390504
v -0.71909845 0.05713272 0.041573644
v -0.71909845 -0.054609418 0.041573644
v -0.71909845 0.05713272 -0.0390504
v -0.71909845 -0.054609418 -0.0390504
v -0.62008655 -0.054609418 -0.0390504
v -0.62008655 0.05713272 -0.0390504
v -0.62008655 0.05713272 -0.0390504
v -0.62008655 -0.054609418 -0.0390504
v -0.62008655 -0.054609418 0.041573644
v -0.62008655 0.05713272 0.041573644
v -0.62008655 0.05713272 0.041573644
v -0.62008655 -0.054609418 0.041573644
v -0.71909845 -0.054609418 0.041573644
v -0.71909845 0.05713272 0.041573644
v -0.71909845 -0.054609418 -0.0390504
v -0.71909845 -0.054609418 0.041573644
v -0.62008655 -0.054609418 0.041573644
v -0.62008655 -0.054609418 -0.0390504
v -0.62008655 0.05713272 -0.0390504
v -0.62008655 0.05713272 0.041573644
v -0.71909845 0.05713272 0.041573644
v -0.71909845 0.05713272 -0.0390504
vt 0.03794409 0.031472936
vt 0.03794409 0.031472936
vt 0.03794409 0.031472936
vt 0.03794409 0.031472936
vt 0.03794409 0.031472936
vt 0.03794409 0.031472936
vt 0.03794409 0.031472936
vt 0.03794409 0.031472936
vt 0.03794409 0.031472936
vt 0.03794409 0.031472936
vt 0.03794409 0.031472936
vt 0.03794409 0.031472936
vt 0.03794409 0.031472936
vt 0.03794409 0.031472936
vt 0.03794409 0.031472936
vt 0.03794409 0.031472936
vt 0.03794409 0.031472936
vt 0.03794409 0.031472936
vt 0.03794409 0.031472936
vt 0.03794409 0.031472936
vt 0.03794409 0.031472936
vt 0.03794409 0.031472936
vt 0.03794409 0.031472936
vt 0.03794409 0.031472936
vt 0.03794409 0.031472936
vt 0.03794409 0.031472936
vt 0.03794409 0.031472936
vt 0.03794409 0.031472936
vt 0.03794409 0.031472936
vt 0.03794409 0.031472936
vt 0.03794409 0.031472936
vt 0.03794409 0.031472936
vt 0.03794409 0.031472936
vt 0.03794409 0.031472936
vt 0.03794409 0.031472936
vt 0.03794409 0.031472936
vt 0.03794409 0.031472936
vt 0.03794409 0.031472936
vt 0.03794409 0.031472936
vt 0.03794409 0.031472936
vt 0.03794409 0.031472936
vt 0.03794409 0.031472936
vt 0.03794409 0.031472936
vt 0.85654503 0.031472936
vt 0.85654503 0.031472936
vt 0.85654503 0.031472936
vt 0.85654503 0.031472936
vt 0.85654503 0.031472936
vt 0.85654503 0.031472936
vt 0.85654503 0.031472936
vt 0.85654503 0.031472936
vt 0.85654503 0.031472936
vt 0.85654503 0.031472936
vt 0.85654503 0.031472936
vt 0.85654503 0.031472936
vt 0.26443446 0.034708515
vt 0.26443446 0.034708515
vt 0.26443446 0.034708515
vt 0.26443446 0.034708515
vt 0.26443446 0.034708515
vt 0.26443446 0.034708515
vt 0.26443446 0.034708515
vt 0.26443446 0.034708515
vt 0.26443446 0.034708515
vt 0.26443446 0.034708515
vt 0.26443446 0.034708515
vt 0.26443446 0.034708515
vt 0.85654503 0.031472936
vt 0.85654503 0.031472936
vt 0.85654503 0.031472936
vt 0.85654503 0.031472936
vt 0.03794409 0.031472936
vt 0.03794409 0.031472936
vt 0.03794409 0.031472936
vt 0.03794409 0.031472936
vt 0.85654503 0.031472936
vt 0.85654503 0.031472936
vt 0.85654503 0.031472936
vt 0.85654503 0.031472936
vt 0.85654503 0.031472936
vt 0.85654503 0.031472936
vt 0.85654503 0.031472936
vt 0.85654503 0.031472936
vt 0.26443446 0.034708515
vt 0.26443446 0.034708515
vt 0.26443446 0.034708515
vt 0.26443446 0.034708515
vt 0.26443446 0.034708515
vt 0.26443446 0.034708515
vt 0.26443446 0.034708515
vt 0.26443446 0.034708515
vt 0.85654503 0.031472936
vt 0.85654503 0.031472936
vt 0.85654503 0.031472936
vt 0.85654503 0.031472936
vt 0.85654503 0.031472936
vt 0.85654503 0.031472936
vt 0.85654503 0.031472936
vt 0.85654503 0.031472936
vt 0.85654503 0.031472936
vt 0.85654503 0.031472936
vt 0.85654503 0.031472936
vt 0.85654503 0.031472936
vt 0.85654503 0.031472936
vt 0.85654503 0.031472936
vt 0.85654503 0.031472936
vt 0.85654503 0.031472936
vt 0.85654503 0.031472936
vt 0.85654503 0.031472936
vt 0.85654503 0.031472936
vt 0.85654503 0.031472936
vt 0.85654503 0.031472936
vt 0.85654503 0.031472936
vt 0.85654503 0.031472936
vt 0.85654503 0.031472936
vn -0.04756513 -0.99886817 -0
vn -0.04756513 -0.99886817 -0
vn -0.04756513 -0.99886817 -0
vn 0.26980728 0.26980734 -0.9243419
vn 0.26980728 0.26980734 -0.9243419
vn 0.26980728 0.26980734 -0.9243419
vn 0.26980728 -0.26980728 -0.9243419
vn 0.26980728 -0.26980728 -0.9243419
vn 0.26980728 -0.26980728 -0.9243419
vn 0.26980728 -0.26980728 0.9243419
vn 0.26980728 -0.26980728 0.9243419
vn 0.26980728 -0.26980728 0.9243419
vn 0.26980728 0.26980734 0.9243419
vn 0.26980728 0.26980734 0.9243419
vn 0.26980728 0.26980734 0.9243419
vn 0.1110971 -0.26980728 0.9564839
vn 0.1110971 -0.26980728 0.9564839
vn 0.1110971 -0.26980728 0.9564839
vn 0.1110971 -0.26980728 0.9564839
vn -0.015871048 -0.30154932 0.9533185
vn -0.015871048 -0.30154932 0.9533185
vn -0.015871048 -0.30154932 0.9533185
vn -0.015871048 -0.30154932 0.9533185
vn -0.015871048 0.3332913 0.9426903
vn -0.015871048 0.3332913 0.9426903
vn -0.015871048 0.3332913 0.9426903
vn -0.015871048 0.3332913 0.9426903
vn 0.1110971 -0.26980728 -0.9564839
vn 0.1110971 -0.26980728 -0.9564839
vn 0.1110971 -0.26980728 -0.9564839
vn 0.1110971 -0.26980728 -0.9564839
vn -0.015871048 0.3332913 -0.9426903
vn -0.015871048 0.3332913 -0.9426903
vn -0.015871048 0.3332913 -0.9426903
vn -0.015871048 0.3332913 -0.9426903
vn -0.015871048 -0.33329135 -0.94269025
vn -0.015871048 -0.33329135 -0.94269025
vn -0.015871048 -0.33329135 -0.94269025
vn -0.015871048 -0.33329135 -0.94269025
vn 0.1110971 0.26980734 0.9564839
vn 0.1110971 0.26980734 0.9564839
vn 0.1110971 0.26980734 0.9564839
vn 0.1110971 0.26980734 0.9564839
vn -0.999874 0.015871048 -0.00034391563
vn -0.999874 0.015871048 -0.00034391563
vn -0.999874 0.015871048 -0.00034391563
vn -0.999874 0.015871048 -0.00034391563
vn -0.015871048 -0.015870988 -0.99974805
vn -0.015871048 -0.015870988 -0.99974805
vn -0.015871048 -0.015870988 -0.99974805
vn -0.015871048 -0.015870988 -0.99974805
vn 0.999874 -0.015870988 -0.00034665503
vn 0.999874 -0.015870988 -0.00034665503
vn 0.999874 -0.015870988 -0.00034665503
vn 0.999874 -0.015870988 -0.00034665503
vn 0.015870988 0.999874 -0.00034526698
vn 0.015870988 0.999874 -0.00034526698
vn 0.015870988 0.999874 -0.00034526698
vn 0.015870988 0.999874 -0.00034526698
vn -0.015871048 -0.999874 -0.00034526698
vn -0.015871048 -0.999874 -0.00034526698
vn -0.015871048 -0.999874 -0.00034526698
vn -0.015871048 -0.999874 -0.00034526698
vn -0.015871048 0.015871048 0.99974805
vn -0.015871048 0.015871048 0.99974805
vn -0.015871048 0.015871048 0.99974805
vn -0.015871048 0.015871048 0.99974805
vn -0.015871048 0.015871048 0.99974805
vn -0.015871048 0.015871048 0.99974805
vn -0.015871048 0.015871048 0.99974805
vn -0.015871048 0.015871048 0.99974805
vn 0.1110971 0.26980734 -0.9564839
vn 0.1110971 0.26980734 -0.9564839
vn 0.1110971 0.26980734 -0.9564839
vn 0.1110971 0.26980734 -0.9564839
vn -0.015871048 -0.999874 -0.00034526698
vn -0.015871048 -0.999874 -0.00034526698
vn -0.015871048 -0.999874 -0.00034526698
vn -0.015871048 -0.999874 -0.00034526698
vn 0.015870988 0.999874 -0.00034526698
vn 0.015870988 0.999874 -0.00034526698
vn 0.015870988 0.999874 -0.00034526698
vn 0.015870988 0.999874 -0.00034526698
vn -0.015871048 -0.015870988 -0.99974805
vn -0.015871048 -0.015870988 -0.99974805
vn -0.015871048 -0.015870988 -0.99974805
vn -0.015871048 -0.015870988 -0.99974805
vn -0.999874 0.015871048 -0.00034391563
vn -0.999874 0.015871048 -0.00034391563
vn -0.999874 0.015871048 -0.00034391563
vn -0.999874 0.015871048 -0.00034391563
vn -0.999874 0.015871048 -0.00034391563
vn -0.999874 0.015871048 -0.00034391563
vn -0.999874 0.015871048 -0.00034391563
vn -0.999874 0.015871048 -0.00034391563
vn -0.015871048 -0.015870988 -0.99974805
vn -0.015871048 -0.015870988 -0.99974805
vn -0.015871048 -0.015870988 -0.99974805
vn -0.015871048 -0.015870988 -0.99974805
vn 0.999874 -0.015870988 -0.00034665503
vn 0.999874 -0.015870988 -0.00034665503
vn 0.999874 -0.015870988 -0.00034665503
vn 0.999874 -0.015870988 -0.00034665503
vn -0.015871048 0.015871048 0.99974805
vn -0.015871048 0.015871048 0.99974805
vn -0.015871048 0.015871048 0.99974805
vn -0.015871048 0.015871048 0.99974805
vn -0.015871048 -0.999874 -0.00034526698
vn -0.015871048 -0.999874 -0.00034526698
vn -0.015871048 -0.999874 -0.00034526698
vn -0.015871048 -0.999874 -0.00034526698
vn 0.015870988 0.999874 -0.00034526698
vn 0.015870988 0.999874 -0.00034526698
vn 0.015870988 0.999874 -0.00034526698
vn 0.015870988 0.999874 -0.00034526698
g Sword_01_0
f 3/3/3 2/2/2 1/1/1
f 6/6/6 5/5/5 4/4/4
f 9/9/9 8/8/8 7/7/7
f 12/12/12 11/11/11 10/10/10
f 15/15/15 14/14/14 13/13/13
f 18/18/18 17/17/17 16/16/16
f 19/19/19 18/18/18 16/16/16
f 22/22/22 21/21/21 20/20/20
f 23/23/23 22/22/22 20/20/20
f 26/26/26 25/25/25 24/24/24
f 27/27/27 26/26/26 24/24/24
f 30/30/30 29/29/29 28/28/28
f 31/31/31 30/30/30 28/28/28
f 34/34/34 33/33/33 32/32/32
f 35/35/35 34/34/34 32/32/32
f 38/38/38 37/37/37 36/36/36
f 39/39/39 38/38/38 36/36/36
f 42/42/42 41/41/41 40/40/40
f 43/43/43 42/42/42 40/40/40
f 46/46/46 45/45/45 44/44/44
f 47/47/47 46/46/46 44/44/44
f 50/50/50 49/49/49 48/48/48
f 51/51/51 50/50/50 48/48/48
f 54/54/54 53/53/53 52/52/52
f 55/55/55 54/54/54 52/52/52
f 58/58/58 57/57/57 56/56/56
f 59/59/59 58/58/58 56/56/56
f 62/62/62 61/61/61 60/60/60
f 63/63/63 62/62/62 60/60/60
f 66/66/66 65/65/65 64/64/64
f 67/67/67 66/66/66 64/64/64
f 70/70/70 69/69/69 68/68/68
f 71/71/71 70/70/70 68/68/68
f 74/74/74 73/73/73 72/72/72
f 75/75/75 74/74/74 72/72/72
f 78/78/78 77/77/77 76/76/76
f 79/79/79 78/78/78 76/76/76
f 82/82/82 81/81/81 80/80/80
f 83/83/83 82/82/82 80/80/80
f 86/86/86 85/85/85 84/84/84
f 87/87/87 86/86/86 84/84/84
f 90/90/90 89/89/89 88/88/88
f 91/91/91 90/90/90 88/88/88
f 94/94/94 93/93/93 92/92/92
f 95/95/95 94/94/94 92/92/92
f 98/98/98 97/97/97 96/96/96
f 99/99/99 98/98/98 96/96/96
f 102/102/102 101/101/101 100/100/100
f 103/103/103 102/102/102 100/100/100
f 106/106/106 105/105/105 104/104/104
f 107/107/107 106/106/106 104/104/104
f 110/110/110 109/109/109 108/108/108
f 111/111/111 110/110/110 108/108/108
f 114/114/114 113/113/113 112/112/112
f 115/115/115 114/114/114 112/112/112
