g Text_J
v 0.10178447 0.4568896 0.085353106
v 0.14925352 0.46693113 0.085353106
v 0.19763544 0.4568896 0.085353106
v 0.06800842 0.434068 0.085353106
v 0.23141147 0.434068 0.085353106
v 0.047925383 0.40303054 0.085353106
v 0.25058168 0.40303054 0.085353106
v 0.041535318 0.35647437 0.085353106
v 0.2578846 0.35647437 0.085353106
v 0.041535318 -0.14377633 0.085353106
v 0.25697172 -0.20219976 0.085353106
v 0.25149453 -0.25697172 0.085353106
v 0.038796723 -0.21406701 0.085353106
v 0.24236587 -0.3007893 0.085353106
v 0.22045709 -0.35373557 0.085353106
v 0.031493783 -0.23871441 0.085353106
v 0.018713653 -0.25423312 0.085353106
v 0.18485531 -0.398466 0.085353106
v 0.13738626 -0.4340678 0.085353106
v 0.008672118 -0.26062322 0.085353106
v 0.0853529 -0.45688942 0.085353106
v -0.0068466067 -0.2633618 0.085353106
v 0.034232378 -0.46693096 0.085353106
v -0.016888112 -0.46693096 0.085353106
v -0.032406837 -0.26244894 0.085353106
v -0.07531157 -0.46145377 0.085353106
v -0.04975131 -0.25605887 0.085353106
v -0.11912915 -0.4495865 0.085353106
v -0.06983438 -0.23962727 0.085353106
v -0.16294673 -0.4313292 0.085353106
v -0.10087183 -0.21589276 0.085353106
v -0.19307128 -0.41124612 0.085353106
v -0.1437765 -0.2040255 0.085353106
v -0.20037422 -0.21315417 0.085353106
v -0.2387146 -0.3692543 0.085353106
v -0.25788477 -0.3217852 0.085353106
v -0.23597601 -0.23688868 0.085353106
v -0.25605908 -0.2743162 0.085353106
v 0.041535318 -0.14377633 0.085353106
v 0.041535318 0.35647437 -0.0853529
v 0.041535318 0.35647437 0.085353106
v 0.041535318 -0.14377633 -0.0853529
v 0.038796723 -0.21406701 0.085353106
v 0.038796723 -0.21406701 -0.0853529
v 0.031493783 -0.23871441 0.085353106
v 0.031493783 -0.23871441 -0.0853529
v 0.018713653 -0.25423312 0.085353106
v 0.018713653 -0.25423312 -0.0853529
v 0.008672118 -0.26062322 0.085353106
v 0.008672118 -0.26062322 -0.0853529
v -0.0068466067 -0.2633618 0.085353106
v -0.0068466067 -0.2633618 -0.0853529
v -0.032406837 -0.26244894 0.085353106
v -0.032406837 -0.26244894 -0.0853529
v -0.04975131 -0.25605887 0.085353106
v -0.04975131 -0.25605887 -0.0853529
v -0.06983438 -0.23962727 0.085353106
v -0.06983438 -0.23962727 -0.0853529
v -0.10087183 -0.21589276 0.085353106
v -0.10087183 -0.21589276 -0.0853529
v -0.1437765 -0.2040255 0.085353106
v -0.1437765 -0.2040255 -0.0853529
v -0.20037422 -0.21315417 0.085353106
v -0.20037422 -0.21315417 -0.0853529
v 0.041535318 0.35647437 -0.0853529
v 0.047925383 0.40303054 0.085353106
v 0.041535318 0.35647437 0.085353106
v 0.047925383 0.40303054 -0.0853529
v 0.06800842 0.434068 0.085353106
v 0.06800842 0.434068 -0.0853529
v 0.23141147 0.434068 -0.0853529
v 0.25058168 0.40303054 0.085353106
v 0.23141147 0.434068 0.085353106
v 0.25058168 0.40303054 -0.0853529
v 0.2578846 0.35647437 0.085353106
v 0.2578846 0.35647437 -0.0853529
v 0.25697172 -0.20219976 0.085353106
v 0.25697172 -0.20219976 -0.0853529
v 0.25149453 -0.25697172 -0.0853529
v 0.25149453 -0.25697172 0.085353106
v 0.24236587 -0.3007893 -0.0853529
v 0.24236587 -0.3007893 0.085353106
v 0.22045709 -0.35373557 -0.0853529
v 0.22045709 -0.35373557 0.085353106
v 0.18485531 -0.398466 -0.0853529
v 0.18485531 -0.398466 0.085353106
v 0.06800842 0.434068 -0.0853529
v 0.10178447 0.4568896 0.085353106
v 0.06800842 0.434068 0.085353106
v 0.10178447 0.4568896 -0.0853529
v 0.14925352 0.46693113 0.085353106
v 0.14925352 0.46693113 -0.0853529
v 0.19763544 0.4568896 0.085353106
v 0.19763544 0.4568896 -0.0853529
v 0.23141147 0.434068 0.085353106
v 0.23141147 0.434068 -0.0853529
v 0.10178447 0.4568896 -0.0853529
v 0.19763544 0.4568896 -0.0853529
v 0.14925352 0.46693113 -0.0853529
v 0.06800842 0.434068 -0.0853529
v 0.23141147 0.434068 -0.0853529
v 0.047925383 0.40303054 -0.0853529
v 0.25058168 0.40303054 -0.0853529
v 0.041535318 0.35647437 -0.0853529
v 0.2578846 0.35647437 -0.0853529
v 0.041535318 -0.14377633 -0.0853529
v 0.25697172 -0.20219976 -0.0853529
v 0.25149453 -0.25697172 -0.0853529
v 0.038796723 -0.21406701 -0.0853529
v 0.24236587 -0.3007893 -0.0853529
v 0.22045709 -0.35373557 -0.0853529
v 0.031493783 -0.23871441 -0.0853529
v 0.018713653 -0.25423312 -0.0853529
v 0.18485531 -0.398466 -0.0853529
v 0.13738626 -0.4340678 -0.0853529
v 0.008672118 -0.26062322 -0.0853529
v 0.0853529 -0.45688942 -0.0853529
v -0.0068466067 -0.2633618 -0.0853529
v 0.034232378 -0.46693096 -0.0853529
v -0.016888112 -0.46693096 -0.0853529
v -0.032406837 -0.26244894 -0.0853529
v -0.07531157 -0.46145377 -0.0853529
v -0.04975131 -0.25605887 -0.0853529
v -0.11912915 -0.4495865 -0.0853529
v -0.06983438 -0.23962727 -0.0853529
v -0.16294673 -0.4313292 -0.0853529
v -0.10087183 -0.21589276 -0.0853529
v -0.19307128 -0.41124612 -0.0853529
v -0.1437765 -0.2040255 -0.0853529
v -0.20037422 -0.21315417 -0.0853529
v -0.2387146 -0.3692543 -0.0853529
v -0.25788477 -0.3217852 -0.0853529
v -0.23597601 -0.23688868 -0.0853529
v -0.25605908 -0.2743162 -0.0853529
v -0.23597601 -0.23688868 0.085353106
v -0.20037422 -0.21315417 -0.0853529
v -0.20037422 -0.21315417 0.085353106
v -0.23597601 -0.23688868 -0.0853529
v -0.19307128 -0.41124612 0.085353106
v -0.2387146 -0.3692543 -0.0853529
v -0.2387146 -0.3692543 0.085353106
v -0.19307128 -0.41124612 -0.0853529
v -0.16294673 -0.4313292 0.085353106
v -0.16294673 -0.4313292 -0.0853529
v -0.11912915 -0.4495865 0.085353106
v -0.11912915 -0.4495865 -0.0853529
v -0.07531157 -0.46145377 0.085353106
v -0.07531157 -0.46145377 -0.0853529
v -0.016888112 -0.46693096 0.085353106
v -0.016888112 -0.46693096 -0.0853529
v 0.034232378 -0.46693096 0.085353106
v 0.034232378 -0.46693096 -0.0853529
v 0.0853529 -0.45688942 0.085353106
v 0.0853529 -0.45688942 -0.0853529
v 0.13738626 -0.4340678 0.085353106
v 0.13738626 -0.4340678 -0.0853529
v 0.18485531 -0.398466 0.085353106
v 0.18485531 -0.398466 -0.0853529
v -0.25788477 -0.3217852 -0.0853529
v -0.2387146 -0.3692543 0.085353106
v -0.2387146 -0.3692543 -0.0853529
v -0.25788477 -0.3217852 0.085353106
v -0.25605908 -0.2743162 -0.0853529
v -0.25605908 -0.2743162 0.085353106
v -0.23597601 -0.23688868 -0.0853529
v -0.23597601 -0.23688868 0.085353106
vt 0.1505292 0.8698095
vt 0.14472856 0.8698095
vt 0.1389279 0.8698095
vt 0.15342954 0.86690927
vt 0.13312726 0.86690927
vt 0.15632986 0.86110854
vt 0.13022694 0.86110854
vt 0.15632986 0.85530794
vt 0.13022694 0.85530794
vt 0.15632986 0.79440117
vt 0.13022694 0.78860044
vt 0.13022694 0.7798995
vt 0.15632986 0.7857002
vt 0.13312726 0.77699924
vt 0.13602759 0.76829827
vt 0.15923017 0.78279984
vt 0.15923017 0.7798995
vt 0.1389279 0.76249754
vt 0.14472856 0.7595973
vt 0.15923017 0.7798995
vt 0.1505292 0.75669694
vt 0.1621305 0.7798995
vt 0.15632986 0.7537966
vt 0.16503084 0.7537966
vt 0.16503084 0.7798995
vt 0.17083147 0.75669694
vt 0.16793115 0.7798995
vt 0.17663212 0.75669694
vt 0.17083147 0.78279984
vt 0.18243277 0.7595973
vt 0.1737318 0.7857002
vt 0.1853331 0.76249754
vt 0.17953245 0.78860044
vt 0.1853331 0.7857002
vt 0.19113374 0.76829827
vt 0.19403407 0.7740989
vt 0.19113374 0.78279984
vt 0.19403407 0.7798995
vt 0.19983472 0.8321054
vt 0.1853331 0.8698095
vt 0.19983472 0.8698095
vt 0.1853331 0.8321054
vt 0.19983472 0.82920504
vt 0.1853331 0.82920504
vt 0.19983472 0.8263047
vt 0.1853331 0.8263047
vt 0.19983472 0.8263047
vt 0.1853331 0.8263047
vt 0.19983472 0.82340443
vt 0.1853331 0.82340443
vt 0.19983472 0.82340443
vt 0.1853331 0.82340443
vt 0.19983472 0.82050407
vt 0.1853331 0.82050407
vt 0.19983472 0.82050407
vt 0.1853331 0.82050407
vt 0.19983472 0.8176037
vt 0.1853331 0.8176037
vt 0.19983472 0.8176037
vt 0.1853331 0.8176037
vt 0.19983472 0.8118031
vt 0.1853331 0.8118031
vt 0.19983472 0.80890274
vt 0.1853331 0.80890274
vt 0.22013699 0.8582083
vt 0.24333957 0.8640089
vt 0.24333957 0.8582083
vt 0.22013699 0.8640089
vt 0.24333957 0.8698095
vt 0.22013699 0.8698095
vt 0.24333957 0.8698095
vt 0.22013699 0.86690927
vt 0.22013699 0.8698095
vt 0.24333957 0.86690927
vt 0.22013699 0.8582083
vt 0.24333957 0.8582083
vt 0.22013699 0.78279984
vt 0.24333957 0.78279984
vt 0.24333957 0.7740989
vt 0.22013699 0.7740989
vt 0.24333957 0.76829827
vt 0.22013699 0.76829827
vt 0.24333957 0.76249754
vt 0.22013699 0.76249754
vt 0.24333957 0.75669694
vt 0.22013699 0.75669694
vt 0.24333957 0.8640089
vt 0.22013699 0.8582083
vt 0.22013699 0.8640089
vt 0.24333957 0.8582083
vt 0.22013699 0.8524076
vt 0.24333957 0.8524076
vt 0.22013699 0.84660697
vt 0.24333957 0.84660697
vt 0.22013699 0.84080637
vt 0.24333957 0.84080637
vt 0.1505292 0.8698095
vt 0.1389279 0.8698095
vt 0.14472856 0.8698095
vt 0.15342954 0.86690927
vt 0.13312726 0.86690927
vt 0.15632986 0.86110854
vt 0.13022694 0.86110854
vt 0.15632986 0.85530794
vt 0.13022694 0.85530794
vt 0.15632986 0.79440117
vt 0.13022694 0.78860044
vt 0.13022694 0.7798995
vt 0.15632986 0.7857002
vt 0.13312726 0.77699924
vt 0.13602759 0.76829827
vt 0.15923017 0.78279984
vt 0.15923017 0.7798995
vt 0.1389279 0.76249754
vt 0.14472856 0.7595973
vt 0.1621305 0.7798995
vt 0.1505292 0.75669694
vt 0.1621305 0.7798995
vt 0.15923017 0.7537966
vt 0.16503084 0.7537966
vt 0.16503084 0.7798995
vt 0.17083147 0.75669694
vt 0.16793115 0.7798995
vt 0.17663212 0.75669694
vt 0.17083147 0.78279984
vt 0.18243277 0.7595973
vt 0.1737318 0.7857002
vt 0.1853331 0.76249754
vt 0.17953245 0.78860044
vt 0.1853331 0.7857002
vt 0.19113374 0.76829827
vt 0.19403407 0.7740989
vt 0.19113374 0.78279984
vt 0.19403407 0.7798995
vt 0.22013699 0.86110854
vt 0.24333957 0.85530794
vt 0.22013699 0.85530794
vt 0.24333957 0.86110854
vt 0.24333957 0.8321054
vt 0.22013699 0.837906
vt 0.24333957 0.837906
vt 0.22013699 0.8321054
vt 0.24333957 0.82920504
vt 0.22013699 0.82920504
vt 0.24333957 0.82340443
vt 0.22013699 0.82340443
vt 0.24333957 0.8176037
vt 0.22013699 0.8176037
vt 0.24333957 0.80890274
vt 0.22013699 0.80890274
vt 0.24333957 0.80310214
vt 0.22013699 0.80310214
vt 0.24333957 0.79440117
vt 0.22013699 0.79440117
vt 0.24333957 0.78860044
vt 0.22013699 0.78860044
vt 0.24333957 0.7798995
vt 0.22013699 0.7798995
vt 0.22013699 0.7653979
vt 0.24333957 0.75669694
vt 0.22013699 0.75669694
vt 0.24333957 0.7653979
vt 0.22013699 0.7711985
vt 0.24333957 0.7711985
vt 0.22013699 0.77699924
vt 0.24333957 0.77699924
vn 0.015367627 -0.015367627 0.99976385
vn 0.015367627 -0.015367627 0.99976385
vn 0.015367627 -0.015367627 0.99976385
vn 0.015367627 -0.015367627 0.99976385
vn 0.015367627 -0.015367627 0.99976385
vn 0.015367627 -0.015367627 0.99976385
vn 0.015367627 -0.015367627 0.99976385
vn 0.015367627 -0.015367627 0.99976385
vn 0.015367627 -0.015367627 0.99976385
vn 0.015367627 -0.015367627 0.99976385
vn 0.015367627 -0.015367627 0.99976385
vn 0.015367627 -0.015367627 0.99976385
vn 0.015367627 -0.015367627 0.99976385
vn 0.015367627 -0.015367627 0.99976385
vn 0.015367627 -0.015367627 0.99976385
vn 0.015367627 -0.015367627 0.99976385
vn 0.015367627 -0.015367627 0.99976385
vn 0.015367627 -0.015367627 0.99976385
vn 0.015367627 -0.015367627 0.99976385
vn 0.015367627 -0.015367627 0.99976385
vn 0.015367627 -0.015367627 0.99976385
vn 0.015367627 -0.015367627 0.99976385
vn 0.015367627 -0.015367627 0.99976385
vn 0.015367627 -0.015367627 0.99976385
vn 0.015367627 -0.015367627 0.99976385
vn 0.015367627 -0.015367627 0.99976385
vn 0.015367627 -0.015367627 0.99976385
vn 0.015367627 -0.015367627 0.99976385
vn 0.015367627 -0.015367627 0.99976385
vn 0.015367627 -0.015367627 0.99976385
vn 0.015367627 -0.015367627 0.99976385
vn 0.015367627 -0.015367627 0.99976385
vn 0.015367627 -0.015367627 0.99976385
vn 0.015367627 -0.015367627 0.99976385
vn 0.015367627 -0.015367627 0.99976385
vn 0.015367627 -0.015367627 0.99976385
vn 0.015367627 -0.015367627 0.99976385
vn 0.015367627 -0.015367627 0.99976385
vn -0.9998662 0.016358636 -0
vn -0.9968294 0.079568364 -0
vn -0.9968294 0.079568364 -0
vn -0.9998662 0.016358636 -0
vn -0.9898906 0.14183357 -0
vn -0.9898906 0.14183357 -0
vn -0.8729766 0.46053106 -0.16069545
vn -0.8729766 0.46053106 -0.16069545
vn -0.6508905 0.7460703 -0.14042988
vn -0.6508905 0.7460703 -0.14042988
vn -0.36346936 0.93160605 -0
vn -0.36346936 0.93160605 -0
vn -0.079568364 0.9968294 -0
vn -0.079568364 0.9968294 -0
vn 0.2057271 0.9681564 -0.14265189
vn 0.2057271 0.9681564 -0.14265189
vn 0.49042583 0.87148297 -0
vn 0.49042583 0.87148297 -0
vn 0.61817265 0.7777969 -0.113554
vn 0.61817265 0.7777969 -0.113554
vn 0.4274901 0.90401995 -0
vn 0.4274901 0.90401995 -0
vn 0.047047578 0.9988926 -0
vn 0.047047578 0.9988926 -0
vn -0.36346936 0.93160605 -0
vn -0.36346936 0.93160605 -0
vn -0.9968294 0.079568364 -0
vn -0.93160605 0.36346936 -0
vn -0.9968294 0.079568364 -0
vn -0.93160605 0.36346936 -0
vn -0.7143437 0.6826171 -0.15410022
vn -0.7143437 0.6826171 -0.15410022
vn 0.71335244 0.6826171 -0.15862575
vn 0.9314756 0.3638036 -0
vn 0.71335244 0.6826171 -0.15862575
vn 0.9314756 0.3638036 -0
vn 0.9968232 0.07964683 -0
vn 0.9968232 0.07964683 -0
vn 0.99889046 -0.04709417 -0
vn 0.99889046 -0.04709417 -0
vn 0.9900083 -0.14100869 -0
vn 0.9900083 -0.14100869 -0
vn 0.9548537 -0.29707655 -0
vn 0.9548537 -0.29707655 -0
vn 0.87124467 -0.4908491 -0
vn 0.87124467 -0.4908491 -0
vn 0.70710677 -0.70710677 -0
vn 0.70710677 -0.70710677 -0
vn -0.7143437 0.6826171 -0.15410022
vn -0.39707786 0.9047032 -0.15440616
vn -0.7143437 0.6826171 -0.15410022
vn -0.39707786 0.9047032 -0.15440616
vn 0.01536761 0.9998819 -0
vn 0.01536761 0.9998819 -0
vn 0.39608663 0.9047032 -0.15693153
vn 0.39608663 0.9047032 -0.15693153
vn 0.71335244 0.6826171 -0.15862575
vn 0.71335244 0.6826171 -0.15862575
vn 0.015367627 -0.015367627 -0.99976385
vn 0.015367627 -0.015367627 -0.99976385
vn 0.015367627 -0.015367627 -0.99976385
vn 0.015367627 -0.015367627 -0.99976385
vn 0.015367627 -0.015367627 -0.99976385
vn 0.015367627 -0.015367627 -0.99976385
vn 0.015367627 -0.015367627 -0.99976385
vn 0.015367627 -0.015367627 -0.99976385
vn 0.015367627 -0.015367627 -0.99976385
vn 0.015367627 -0.015367627 -0.99976385
vn 0.015367627 -0.015367627 -0.99976385
vn 0.015367627 -0.015367627 -0.99976385
vn 0.015367627 -0.015367627 -0.99976385
vn 0.015367627 -0.015367627 -0.99976385
vn 0.015367627 -0.015367627 -0.99976385
vn 0.015367627 -0.015367627 -0.99976385
vn 0.015367627 -0.015367627 -0.99976385
vn 0.015367627 -0.015367627 -0.99976385
vn 0.015367627 -0.015367627 -0.99976385
vn 0.015367627 -0.015367627 -0.99976385
vn 0.015367627 -0.015367627 -0.99976385
vn 0.015367627 -0.015367627 -0.99976385
vn 0.015367627 -0.015367627 -0.99976385
vn 0.015367627 -0.015367627 -0.99976385
vn 0.015367627 -0.015367627 -0.99976385
vn 0.015367627 -0.015367627 -0.99976385
vn 0.015367627 -0.015367627 -0.99976385
vn 0.015367627 -0.015367627 -0.99976385
vn 0.015367627 -0.015367627 -0.99976385
vn 0.015367627 -0.015367627 -0.99976385
vn 0.015367627 -0.015367627 -0.99976385
vn 0.015367627 -0.015367627 -0.99976385
vn 0.015367627 -0.015367627 -0.99976385
vn 0.015367627 -0.015367627 -0.99976385
vn 0.015367627 -0.015367627 -0.99976385
vn 0.015367627 -0.015367627 -0.99976385
vn 0.015367627 -0.015367627 -0.99976385
vn 0.015367627 -0.015367627 -0.99976385
vn -0.7377847 0.6750362 -0
vn -0.36346936 0.93160605 -0
vn -0.36346936 0.93160605 -0
vn -0.7377847 0.6750362 -0
vn -0.61916393 -0.7768056 -0.11493087
vn -0.8095234 -0.5547195 -0.19224489
vn -0.8095234 -0.5547195 -0.19224489
vn -0.61916393 -0.7768056 -0.11493087
vn -0.46053106 -0.8719853 -0.16599031
vn -0.46053106 -0.8719853 -0.16599031
vn -0.33362478 -0.9354385 -0.116830155
vn -0.33362478 -0.9354385 -0.116830155
vn -0.17255805 -0.98499936 -0
vn -0.17255805 -0.98499936 -0
vn -0.048083182 -0.9988433 -0
vn -0.048083182 -0.9988433 -0
vn 0.10999845 -0.9939317 -0
vn 0.10999845 -0.9939317 -0
vn 0.29707655 -0.9548537 -0
vn 0.29707655 -0.9548537 -0
vn 0.4908491 -0.87124467 -0
vn 0.4908491 -0.87124467 -0
vn 0.70710677 -0.70710677 -0
vn 0.70710677 -0.70710677 -0
vn -0.9851938 -0.17144433 -0
vn -0.8095234 -0.5547195 -0.19224489
vn -0.8095234 -0.5547195 -0.19224489
vn -0.9851938 -0.17144433 -0
vn -0.96319926 0.26878825 -0
vn -0.96319926 0.26878825 -0
vn -0.7377847 0.6750362 -0
vn -0.7377847 0.6750362 -0
g Text_J_0
f 3/3/3 2/2/2 1/1/1
f 1/1/1 4/4/4 3/3/3
f 5/5/5 3/3/3 4/4/4
f 4/4/4 6/6/6 5/5/5
f 7/7/7 5/5/5 6/6/6
f 6/6/6 8/8/8 7/7/7
f 9/9/9 7/7/7 8/8/8
f 8/8/8 10/10/10 9/9/9
f 11/11/11 9/9/9 10/10/10
f 10/10/10 12/12/12 11/11/11
f 10/10/10 13/13/13 12/12/12
f 14/14/14 12/12/12 13/13/13
f 14/14/14 13/13/13 15/15/15
f 16/16/16 15/15/15 13/13/13
f 16/16/16 17/17/17 15/15/15
f 18/18/18 15/15/15 17/17/17
f 18/18/18 17/17/17 19/19/19
f 20/20/20 19/19/19 17/17/17
f 19/19/19 20/20/20 21/21/21
f 22/22/22 21/21/21 20/20/20
f 22/22/22 23/23/23 21/21/21
f 23/23/23 22/22/22 24/24/24
f 25/25/25 24/24/24 22/22/22
f 24/24/24 25/25/25 26/26/26
f 27/27/27 26/26/26 25/25/25
f 26/26/26 27/27/27 28/28/28
f 29/29/29 28/28/28 27/27/27
f 28/28/28 29/29/29 30/30/30
f 31/31/31 30/30/30 29/29/29
f 30/30/30 31/31/31 32/32/32
f 33/33/33 32/32/32 31/31/31
f 33/33/33 34/34/34 32/32/32
f 35/35/35 32/32/32 34/34/34
f 35/35/35 34/34/34 36/36/36
f 37/37/37 36/36/36 34/34/34
f 38/38/38 36/36/36 37/37/37
f 41/41/41 40/40/40 39/39/39
f 42/42/42 39/39/39 40/40/40
f 39/39/39 42/42/42 43/43/43
f 44/44/44 43/43/43 42/42/42
f 43/43/43 44/44/44 45/45/45
f 46/46/46 45/45/45 44/44/44
f 45/45/45 46/46/46 47/47/47
f 48/48/48 47/47/47 46/46/46
f 47/47/47 48/48/48 49/49/49
f 50/50/50 49/49/49 48/48/48
f 49/49/49 50/50/50 51/51/51
f 52/52/52 51/51/51 50/50/50
f 51/51/51 52/52/52 53/53/53
f 54/54/54 53/53/53 52/52/52
f 53/53/53 54/54/54 55/55/55
f 56/56/56 55/55/55 54/54/54
f 55/55/55 56/56/56 57/57/57
f 58/58/58 57/57/57 56/56/56
f 57/57/57 58/58/58 59/59/59
f 60/60/60 59/59/59 58/58/58
f 59/59/59 60/60/60 61/61/61
f 62/62/62 61/61/61 60/60/60
f 61/61/61 62/62/62 63/63/63
f 64/64/64 63/63/63 62/62/62
f 67/67/67 66/66/66 65/65/65
f 68/68/68 65/65/65 66/66/66
f 66/66/66 69/69/69 68/68/68
f 70/70/70 68/68/68 69/69/69
f 73/73/73 72/72/72 71/71/71
f 74/74/74 71/71/71 72/72/72
f 72/72/72 75/75/75 74/74/74
f 76/76/76 74/74/74 75/75/75
f 75/75/75 77/77/77 76/76/76
f 78/78/78 76/76/76 77/77/77
f 78/78/78 77/77/77 79/79/79
f 80/80/80 79/79/79 77/77/77
f 79/79/79 80/80/80 81/81/81
f 82/82/82 81/81/81 80/80/80
f 81/81/81 82/82/82 83/83/83
f 84/84/84 83/83/83 82/82/82
f 83/83/83 84/84/84 85/85/85
f 86/86/86 85/85/85 84/84/84
f 89/89/89 88/88/88 87/87/87
f 90/90/90 87/87/87 88/88/88
f 88/88/88 91/91/91 90/90/90
f 92/92/92 90/90/90 91/91/91
f 91/91/91 93/93/93 92/92/92
f 94/94/94 92/92/92 93/93/93
f 93/93/93 95/95/95 94/94/94
f 96/96/96 94/94/94 95/95/95
f 99/99/99 98/98/98 97/97/97
f 97/97/97 98/98/98 100/100/100
f 101/101/101 100/100/100 98/98/98
f 100/100/100 101/101/101 102/102/102
f 103/103/103 102/102/102 101/101/101
f 102/102/102 103/103/103 104/104/104
f 105/105/105 104/104/104 103/103/103
f 104/104/104 105/105/105 106/106/106
f 107/107/107 106/106/106 105/105/105
f 108/108/108 106/106/106 107/107/107
f 106/106/106 108/108/108 109/109/109
f 110/110/110 109/109/109 108/108/108
f 110/110/110 111/111/111 109/109/109
f 112/112/112 109/109/109 111/111/111
f 112/112/112 111/111/111 113/113/113
f 114/114/114 113/113/113 111/111/111
f 114/114/114 115/115/115 113/113/113
f 116/116/116 113/113/113 115/115/115
f 115/115/115 117/117/117 116/116/116
f 118/118/118 116/116/116 117/117/117
f 119/119/119 118/118/118 117/117/117
f 119/119/119 120/120/120 118/118/118
f 121/121/121 118/118/118 120/120/120
f 120/120/120 122/122/122 121/121/121
f 123/123/123 121/121/121 122/122/122
f 122/122/122 124/124/124 123/123/123
f 125/125/125 123/123/123 124/124/124
f 124/124/124 126/126/126 125/125/125
f 127/127/127 125/125/125 126/126/126
f 126/126/126 128/128/128 127/127/127
f 129/129/129 127/127/127 128/128/128
f 129/129/129 128/128/128 130/130/130
f 131/131/131 130/130/130 128/128/128
f 131/131/131 132/132/132 130/130/130
f 133/133/133 130/130/130 132/132/132
f 132/132/132 134/134/134 133/133/133
f 137/137/137 136/136/136 135/135/135
f 138/138/138 135/135/135 136/136/136
f 141/141/141 140/140/140 139/139/139
f 142/142/142 139/139/139 140/140/140
f 139/139/139 142/142/142 143/143/143
f 144/144/144 143/143/143 142/142/142
f 143/143/143 144/144/144 145/145/145
f 146/146/146 145/145/145 144/144/144
f 145/145/145 146/146/146 147/147/147
f 148/148/148 147/147/147 146/146/146
f 147/147/147 148/148/148 149/149/149
f 150/150/150 149/149/149 148/148/148
f 149/149/149 150/150/150 151/151/151
f 152/152/152 151/151/151 150/150/150
f 151/151/151 152/152/152 153/153/153
f 154/154/154 153/153/153 152/152/152
f 153/153/153 154/154/154 155/155/155
f 156/156/156 155/155/155 154/154/154
f 155/155/155 156/156/156 157/157/157
f 158/158/158 157/157/157 156/156/156
f 161/161/161 160/160/160 159/159/159
f 162/162/162 159/159/159 160/160/160
f 159/159/159 162/162/162 163/163/163
f 164/164/164 163/163/163 162/162/162
f 163/163/163 164/164/164 165/165/165
f 166/166/166 165/165/165 164/164/164
