g Text_L
v -0.1492706 0.4613405 0.08523309
v -0.23585641 0.439694 0.08523309
v -0.19346547 0.4613405 0.08523309
v -0.10687959 0.439694 0.08523309
v -0.26111066 0.4099301 0.08523309
v -0.08162534 0.4099301 0.08523309
v -0.2719339 0.35942167 0.08523309
v -0.07080215 0.35942167 0.08523309
v -0.27463973 -0.26111037 0.08523309
v -0.069900215 -0.26111037 0.08523309
v -0.27283585 -0.31252074 0.08523309
v -0.26742423 -0.3639311 0.08523309
v -0.25660098 -0.39820465 0.08523309
v -0.23675835 -0.4288705 0.08523309
v -0.20879835 -0.4487131 0.08523309
v -0.17091703 -0.46043825 0.08523309
v -0.069900215 -0.4613402 0.08523309
v 0.030214727 -0.4541247 0.08523309
v 0.012176007 -0.2493852 0.08523309
v 0.09335023 -0.24036583 0.08523309
v 0.11229092 -0.4442034 0.08523309
v 0.18173999 -0.4243608 0.08523309
v 0.15377995 -0.23405229 0.08523309
v 0.2268368 -0.40361628 0.08523309
v 0.19526902 -0.23405229 0.08523309
v 0.24126777 -0.25299293 0.08523309
v 0.26291424 -0.37024462 0.08523309
v 0.27463943 -0.336873 0.08523309
v 0.26291424 -0.27283555 0.08523309
v -0.069900215 -0.26111037 0.08523309
v -0.07080215 0.35942167 -0.085232824
v -0.069900215 -0.26111037 -0.085232824
v -0.07080215 0.35942167 0.08523309
v -0.08162534 0.4099301 -0.085232824
v -0.08162534 0.4099301 0.08523309
v -0.10687959 0.439694 -0.085232824
v -0.10687959 0.439694 0.08523309
v -0.23585641 0.439694 0.08523309
v -0.26111066 0.4099301 -0.085232824
v -0.23585641 0.439694 -0.085232824
v -0.26111066 0.4099301 0.08523309
v -0.2719339 0.35942167 -0.085232824
v -0.2719339 0.35942167 0.08523309
v -0.27463973 -0.26111037 -0.085232824
v -0.27463973 -0.26111037 0.08523309
v -0.27283585 -0.31252074 0.08523309
v -0.27283585 -0.31252074 -0.085232824
v -0.26742423 -0.3639311 0.08523309
v -0.26742423 -0.3639311 -0.085232824
v -0.25660098 -0.39820465 0.08523309
v -0.25660098 -0.39820465 -0.085232824
v -0.23675835 -0.4288705 0.08523309
v -0.23675835 -0.4288705 -0.085232824
v -0.23585641 0.439694 -0.085232824
v -0.19346547 0.4613405 0.08523309
v -0.23585641 0.439694 0.08523309
v -0.19346547 0.4613405 -0.085232824
v -0.1492706 0.4613405 0.08523309
v -0.1492706 0.4613405 -0.085232824
v -0.10687959 0.439694 0.08523309
v -0.10687959 0.439694 -0.085232824
v -0.23585641 0.439694 -0.085232824
v -0.1492706 0.4613405 -0.085232824
v -0.19346547 0.4613405 -0.085232824
v -0.10687959 0.439694 -0.085232824
v -0.26111066 0.4099301 -0.085232824
v -0.08162534 0.4099301 -0.085232824
v -0.2719339 0.35942167 -0.085232824
v -0.07080215 0.35942167 -0.085232824
v -0.27463973 -0.26111037 -0.085232824
v -0.069900215 -0.26111037 -0.085232824
v -0.27283585 -0.31252074 -0.085232824
v -0.26742423 -0.3639311 -0.085232824
v -0.25660098 -0.39820465 -0.085232824
v -0.23675835 -0.4288705 -0.085232824
v -0.20879835 -0.4487131 -0.085232824
v -0.17091703 -0.46043825 -0.085232824
v -0.069900215 -0.4613402 -0.085232824
v 0.030214727 -0.4541247 -0.085232824
v 0.012176007 -0.2493852 -0.085232824
v 0.09335023 -0.24036583 -0.085232824
v 0.11229092 -0.4442034 -0.085232824
v 0.18173999 -0.4243608 -0.085232824
v 0.15377995 -0.23405229 -0.085232824
v 0.2268368 -0.40361628 -0.085232824
v 0.19526902 -0.23405229 -0.085232824
v 0.24126777 -0.25299293 -0.085232824
v 0.26291424 -0.37024462 -0.085232824
v 0.27463943 -0.336873 -0.085232824
v 0.26291424 -0.27283555 -0.085232824
v -0.069900215 -0.26111037 -0.085232824
v 0.012176007 -0.2493852 0.08523309
v -0.069900215 -0.26111037 0.08523309
v 0.012176007 -0.2493852 -0.085232824
v 0.09335023 -0.24036583 -0.085232824
v 0.09335023 -0.24036583 0.08523309
v 0.15377995 -0.23405229 -0.085232824
v 0.15377995 -0.23405229 0.08523309
v 0.19526902 -0.23405229 -0.085232824
v 0.19526902 -0.23405229 0.08523309
v 0.24126777 -0.25299293 0.08523309
v 0.24126777 -0.25299293 -0.085232824
v 0.26291424 -0.27283555 -0.085232824
v 0.26291424 -0.27283555 0.08523309
v 0.27463943 -0.336873 0.08523309
v 0.26291424 -0.37024462 -0.085232824
v 0.26291424 -0.37024462 0.08523309
v 0.27463943 -0.336873 -0.085232824
v 0.26291424 -0.27283555 0.08523309
v 0.26291424 -0.27283555 -0.085232824
v 0.2268368 -0.40361628 -0.085232824
v 0.26291424 -0.37024462 0.08523309
v 0.26291424 -0.37024462 -0.085232824
v 0.2268368 -0.40361628 0.08523309
v 0.18173999 -0.4243608 -0.085232824
v 0.18173999 -0.4243608 0.08523309
v 0.11229092 -0.4442034 -0.085232824
v 0.11229092 -0.4442034 0.08523309
v 0.030214727 -0.4541247 -0.085232824
v 0.030214727 -0.4541247 0.08523309
v -0.069900215 -0.4613402 -0.085232824
v -0.069900215 -0.4613402 0.08523309
v -0.17091703 -0.46043825 -0.085232824
v -0.17091703 -0.46043825 0.08523309
v -0.20879835 -0.4487131 -0.085232824
v -0.20879835 -0.4487131 0.08523309
v -0.23675835 -0.4288705 -0.085232824
v -0.23675835 -0.4288705 0.08523309
vt 0.90156287 0.9957852
vt 0.8911463 0.99436474
vt 0.89635456 0.9962586
vt 0.9062976 0.9929443
vt 0.8883054 0.99105036
vt 0.90866506 0.9896299
vt 0.88641155 0.9853686
vt 0.909612 0.98347473
vt 0.8807298 0.91434675
vt 0.90440375 0.9124529
vt 0.8807298 0.90866506
vt 0.8807298 0.9025098
vt 0.88167673 0.898722
vt 0.8835707 0.8949341
vt 0.886885 0.89209324
vt 0.8911463 0.8906728
vt 0.9025098 0.88972586
vt 0.9138733 0.88972586
vt 0.9138733 0.9133998
vt 0.9228694 0.9133998
vt 0.9233429 0.89019936
vt 0.931392 0.8916198
vt 0.9299716 0.9138733
vt 0.93707377 0.8935137
vt 0.9347064 0.9133998
vt 0.93991464 0.91103244
vt 0.9413351 0.89730155
vt 0.943229 0.9010894
vt 0.942282 0.90819156
vt 0.9820543 0.8958811
vt 0.9972056 0.95080465
vt 0.9972056 0.8958811
vt 0.9820543 0.95080465
vt 0.9972056 0.95506597
vt 0.9820543 0.95506597
vt 0.9972056 0.95790684
vt 0.9820543 0.95790684
vt 0.9962586 0.954119
vt 0.9811073 0.9517516
vt 0.9811073 0.954119
vt 0.9962586 0.9517516
vt 0.9811073 0.94701684
vt 0.9962586 0.94701684
vt 0.9811073 0.89209324
vt 0.9962586 0.89209324
vt 0.9962586 0.8878319
vt 0.9811073 0.8878319
vt 0.9962586 0.8830972
vt 0.9811073 0.8830972
vt 0.9962586 0.8802563
vt 0.9811073 0.8802563
vt 0.9962586 0.8774154
vt 0.9811073 0.8774154
vt 0.9957852 0.8906728
vt 0.98063385 0.886885
vt 0.98063385 0.8906728
vt 0.9957852 0.886885
vt 0.98063385 0.8826237
vt 0.9957852 0.8826237
vt 0.98063385 0.87883586
vt 0.9957852 0.87883586
vt 0.8911463 0.99436474
vt 0.90156287 0.9957852
vt 0.89635456 0.9962586
vt 0.9062976 0.9929443
vt 0.8883054 0.99105036
vt 0.90866506 0.9896299
vt 0.88641155 0.9853686
vt 0.909612 0.98347473
vt 0.8807298 0.91434675
vt 0.90440375 0.9124529
vt 0.8807298 0.90866506
vt 0.88120323 0.9025098
vt 0.88215023 0.898722
vt 0.8840441 0.8949341
vt 0.886885 0.89209324
vt 0.8911463 0.8906728
vt 0.9029833 0.88972586
vt 0.91434675 0.88972586
vt 0.9138733 0.9133998
vt 0.9233429 0.9138733
vt 0.9238164 0.89019936
vt 0.9318655 0.8916198
vt 0.9299716 0.9138733
vt 0.93707377 0.8939872
vt 0.9351798 0.9133998
vt 0.93991464 0.91103244
vt 0.9418086 0.89730155
vt 0.943229 0.9010894
vt 0.942282 0.90866506
vt 0.99815255 0.9976791
vt 0.9811073 0.9896299
vt 0.9811073 0.9976791
vt 0.99815255 0.9896299
vt 0.99815255 0.9815808
vt 0.9811073 0.9815808
vt 0.99815255 0.9754256
vt 0.9811073 0.9754256
vt 0.99815255 0.9711642
vt 0.9811073 0.9711642
vt 0.9811073 0.966903
vt 0.99815255 0.966903
vt 0.99815255 0.96453553
vt 0.9811073 0.96453553
vt 0.98252773 0.8944607
vt 0.9976791 0.8911463
vt 0.98252773 0.8911463
vt 0.9976791 0.8944607
vt 0.98252773 0.89966893
vt 0.9976791 0.89966893
vt 0.9811073 0.91434675
vt 0.9962586 0.91103244
vt 0.9811073 0.91103244
vt 0.9962586 0.91434675
vt 0.9811073 0.9181346
vt 0.9962586 0.9181346
vt 0.9811073 0.9242898
vt 0.9962586 0.9242898
vt 0.9811073 0.931392
vt 0.9962586 0.931392
vt 0.9811073 0.94038814
vt 0.9962586 0.94038814
vt 0.9811073 0.9493842
vt 0.9962586 0.9493842
vt 0.9811073 0.9526986
vt 0.9962586 0.9526986
vt 0.9811073 0.95506597
vt 0.9962586 0.95506597
vn 0.015712023 -0.015712023 0.99975306
vn 0.015712023 -0.015712023 0.99975306
vn 0.015712023 -0.015712023 0.99975306
vn 0.015712023 -0.015712023 0.99975306
vn 0.015712023 -0.015712023 0.99975306
vn 0.015712023 -0.015712023 0.99975306
vn 0.015712023 -0.015712023 0.99975306
vn 0.015712023 -0.015712023 0.99975306
vn 0.015712023 -0.015712023 0.99975306
vn 0.015712023 -0.015712023 0.99975306
vn 0.015712023 -0.015712023 0.99975306
vn 0.015712023 -0.015712023 0.99975306
vn 0.015712023 -0.015712023 0.99975306
vn 0.015712023 -0.015712023 0.99975306
vn 0.015712023 -0.015712023 0.99975306
vn 0.015712023 -0.015712023 0.99975306
vn 0.015712023 -0.015712023 0.99975306
vn 0.015712023 -0.015712023 0.99975306
vn 0.015712023 -0.015712023 0.99975306
vn 0.015712023 -0.015712023 0.99975306
vn 0.015712023 -0.015712023 0.99975306
vn 0.015712023 -0.015712023 0.99975306
vn 0.015712023 -0.015712023 0.99975306
vn 0.015712023 -0.015712023 0.99975306
vn 0.015712023 -0.015712023 0.99975306
vn 0.015712023 -0.015712023 0.99975306
vn 0.015712023 -0.015712023 0.99975306
vn 0.015712023 -0.015712023 0.99975306
vn 0.015712023 -0.015712023 0.99975306
vn 0.6504236 0.7459419 -0.14324751
vn 0.99386483 0.110601485 -0
vn 0.6504236 0.7459419 -0.14324751
vn 0.99386483 0.110601485 -0
vn 0.90364903 0.42827374 -0
vn 0.90364903 0.42827374 -0
vn 0.618688 0.7776774 -0.11154822
vn 0.618688 0.7776774 -0.11154822
vn -0.6189996 0.7776774 -0.10980603
vn -0.90370613 0.4281533 -0
vn -0.6189996 0.7776774 -0.10980603
vn -0.90370613 0.4281533 -0
vn -0.9938686 0.11056745 -0
vn -0.9938686 0.11056745 -0
vn -0.99982643 -0.015712023 -0.010010504
vn -0.99982643 -0.015712023 -0.010010504
vn -0.99687856 -0.0789497 -0
vn -0.99687856 -0.0789497 -0
vn -0.9680909 -0.2061255 -0.14252132
vn -0.9680909 -0.2061255 -0.14252132
vn -0.9038266 -0.42789903 -0
vn -0.9038266 -0.42789903 -0
vn -0.71420634 -0.6821592 -0.15674227
vn -0.71420634 -0.6821592 -0.15674227
vn -0.6189996 0.7776774 -0.10980603
vn -0.23817265 0.9680909 -0.077934794
vn -0.6189996 0.7776774 -0.10980603
vn -0.23817265 0.9680909 -0.077934794
vn 0.23786104 0.9680909 -0.07888085
vn 0.23786104 0.9680909 -0.07888085
vn 0.618688 0.7776774 -0.11154822
vn 0.618688 0.7776774 -0.11154822
vn 0.015712023 -0.015712023 -0.99975306
vn 0.015712023 -0.015712023 -0.99975306
vn 0.015712023 -0.015712023 -0.99975306
vn 0.015712023 -0.015712023 -0.99975306
vn 0.015712023 -0.015712023 -0.99975306
vn 0.015712023 -0.015712023 -0.99975306
vn 0.015712023 -0.015712023 -0.99975306
vn 0.015712023 -0.015712023 -0.99975306
vn 0.015712023 -0.015712023 -0.99975306
vn 0.015712023 -0.015712023 -0.99975306
vn 0.015712023 -0.015712023 -0.99975306
vn 0.015712023 -0.015712023 -0.99975306
vn 0.015712023 -0.015712023 -0.99975306
vn 0.015712023 -0.015712023 -0.99975306
vn 0.015712023 -0.015712023 -0.99975306
vn 0.015712023 -0.015712023 -0.99975306
vn 0.015712023 -0.015712023 -0.99975306
vn 0.015712023 -0.015712023 -0.99975306
vn 0.015712023 -0.015712023 -0.99975306
vn 0.015712023 -0.015712023 -0.99975306
vn 0.015712023 -0.015712023 -0.99975306
vn 0.015712023 -0.015712023 -0.99975306
vn 0.015712023 -0.015712023 -0.99975306
vn 0.015712023 -0.015712023 -0.99975306
vn 0.015712023 -0.015712023 -0.99975306
vn 0.015712023 -0.015712023 -0.99975306
vn 0.015712023 -0.015712023 -0.99975306
vn 0.015712023 -0.015712023 -0.99975306
vn 0.015712023 -0.015712023 -0.99975306
vn 0.6504236 0.7459419 -0.14324751
vn -0.14155096 0.98993105 -0
vn 0.6504236 0.7459419 -0.14324751
vn -0.14155096 0.98993105 -0
vn -0.11056745 0.9938686 -0
vn -0.11056745 0.9938686 -0
vn -0.047713064 0.99886113 -0
vn -0.047713064 0.99886113 -0
vn 0.2061255 0.9680909 -0.14252126
vn 0.2061255 0.9680909 -0.14252126
vn 0.5508829 0.8345826 -0
vn 0.5508829 0.8345826 -0
vn 0.8710482 0.49119756 -0
vn 0.8710482 0.49119756 -0
vn 0.9968766 -0.07897415 -0
vn 0.83448875 -0.551025 -0
vn 0.83448875 -0.551025 -0
vn 0.9968766 -0.07897415 -0
vn 0.8710482 0.49119756 -0
vn 0.8710482 0.49119756 -0
vn 0.551025 -0.83448875 -0
vn 0.83448875 -0.551025 -0
vn 0.83448875 -0.551025 -0
vn 0.551025 -0.83448875 -0
vn 0.33306777 -0.9360438 -0.11352487
vn 0.33306777 -0.9360438 -0.11352487
vn 0.2061255 -0.96777934 -0.14462154
vn 0.2061255 -0.96777934 -0.14462154
vn 0.11029552 -0.9938988 -0
vn 0.11029552 -0.9938988 -0
vn 0.015712023 -0.99951494 -0.02688874
vn 0.015712023 -0.99951494 -0.02688874
vn -0.14159417 -0.9899247 -0
vn -0.14159417 -0.9899247 -0
vn -0.45364124 -0.8911844 -0
vn -0.45364124 -0.8911844 -0
vn -0.71420634 -0.6821592 -0.15674227
vn -0.71420634 -0.6821592 -0.15674227
g Text_L_0
f 3/3/3 2/2/2 1/1/1
f 4/4/4 1/1/1 2/2/2
f 2/2/2 5/5/5 4/4/4
f 6/6/6 4/4/4 5/5/5
f 5/5/5 7/7/7 6/6/6
f 8/8/8 6/6/6 7/7/7
f 7/7/7 9/9/9 8/8/8
f 10/10/10 8/8/8 9/9/9
f 11/11/11 10/10/10 9/9/9
f 12/12/12 10/10/10 11/11/11
f 13/13/13 10/10/10 12/12/12
f 14/14/14 10/10/10 13/13/13
f 15/15/15 10/10/10 14/14/14
f 16/16/16 10/10/10 15/15/15
f 17/17/17 10/10/10 16/16/16
f 17/17/17 18/18/18 10/10/10
f 19/19/19 10/10/10 18/18/18
f 19/19/19 18/18/18 20/20/20
f 21/21/21 20/20/20 18/18/18
f 21/21/21 22/22/22 20/20/20
f 23/23/23 20/20/20 22/22/22
f 22/22/22 24/24/24 23/23/23
f 25/25/25 23/23/23 24/24/24
f 25/25/25 24/24/24 26/26/26
f 27/27/27 26/26/26 24/24/24
f 27/27/27 28/28/28 26/26/26
f 29/29/29 26/26/26 28/28/28
f 32/32/32 31/31/31 30/30/30
f 33/33/33 30/30/30 31/31/31
f 31/31/31 34/34/34 33/33/33
f 35/35/35 33/33/33 34/34/34
f 34/34/34 36/36/36 35/35/35
f 37/37/37 35/35/35 36/36/36
f 40/40/40 39/39/39 38/38/38
f 41/41/41 38/38/38 39/39/39
f 39/39/39 42/42/42 41/41/41
f 43/43/43 41/41/41 42/42/42
f 42/42/42 44/44/44 43/43/43
f 45/45/45 43/43/43 44/44/44
f 45/45/45 44/44/44 46/46/46
f 47/47/47 46/46/46 44/44/44
f 46/46/46 47/47/47 48/48/48
f 49/49/49 48/48/48 47/47/47
f 48/48/48 49/49/49 50/50/50
f 51/51/51 50/50/50 49/49/49
f 50/50/50 51/51/51 52/52/52
f 53/53/53 52/52/52 51/51/51
f 56/56/56 55/55/55 54/54/54
f 57/57/57 54/54/54 55/55/55
f 55/55/55 58/58/58 57/57/57
f 59/59/59 57/57/57 58/58/58
f 58/58/58 60/60/60 59/59/59
f 61/61/61 59/59/59 60/60/60
f 64/64/64 63/63/63 62/62/62
f 65/65/65 62/62/62 63/63/63
f 62/62/62 65/65/65 66/66/66
f 67/67/67 66/66/66 65/65/65
f 66/66/66 67/67/67 68/68/68
f 69/69/69 68/68/68 67/67/67
f 68/68/68 69/69/69 70/70/70
f 71/71/71 70/70/70 69/69/69
f 71/71/71 72/72/72 70/70/70
f 71/71/71 73/73/73 72/72/72
f 71/71/71 74/74/74 73/73/73
f 71/71/71 75/75/75 74/74/74
f 71/71/71 76/76/76 75/75/75
f 71/71/71 77/77/77 76/76/76
f 71/71/71 78/78/78 77/77/77
f 78/78/78 71/71/71 79/79/79
f 80/80/80 79/79/79 71/71/71
f 80/80/80 81/81/81 79/79/79
f 82/82/82 79/79/79 81/81/81
f 82/82/82 81/81/81 83/83/83
f 84/84/84 83/83/83 81/81/81
f 83/83/83 84/84/84 85/85/85
f 86/86/86 85/85/85 84/84/84
f 86/86/86 87/87/87 85/85/85
f 88/88/88 85/85/85 87/87/87
f 88/88/88 87/87/87 89/89/89
f 90/90/90 89/89/89 87/87/87
f 93/93/93 92/92/92 91/91/91
f 94/94/94 91/91/91 92/92/92
f 94/94/94 92/92/92 95/95/95
f 96/96/96 95/95/95 92/92/92
f 95/95/95 96/96/96 97/97/97
f 98/98/98 97/97/97 96/96/96
f 97/97/97 98/98/98 99/99/99
f 100/100/100 99/99/99 98/98/98
f 100/100/100 101/101/101 99/99/99
f 102/102/102 99/99/99 101/101/101
f 102/102/102 101/101/101 103/103/103
f 104/104/104 103/103/103 101/101/101
f 107/107/107 106/106/106 105/105/105
f 108/108/108 105/105/105 106/106/106
f 105/105/105 108/108/108 109/109/109
f 110/110/110 109/109/109 108/108/108
f 113/113/113 112/112/112 111/111/111
f 114/114/114 111/111/111 112/112/112
f 111/111/111 114/114/114 115/115/115
f 116/116/116 115/115/115 114/114/114
f 115/115/115 116/116/116 117/117/117
f 118/118/118 117/117/117 116/116/116
f 117/117/117 118/118/118 119/119/119
f 120/120/120 119/119/119 118/118/118
f 119/119/119 120/120/120 121/121/121
f 122/122/122 121/121/121 120/120/120
f 121/121/121 122/122/122 123/123/123
f 124/124/124 123/123/123 122/122/122
f 123/123/123 124/124/124 125/125/125
f 126/126/126 125/125/125 124/124/124
f 125/125/125 126/126/126 127/127/127
f 128/128/128 127/127/127 126/126/126
