g Text_Z
v 0.3183853 -0.35713756 0.08587086
v 0.30341285 -0.2769909 0.08587086
v 0.3183853 -0.3236697 0.08587086
v 0.30341285 -0.40293562 0.08587086
v 0.28491747 -0.25144964 0.08587086
v 0.28491747 -0.42935762 0.08587086
v 0.25673404 -0.24000013 0.08587086
v 0.25673404 -0.44080713 0.08587086
v 0.20036715 -0.23559646 0.08587086
v 0.20036715 -0.44433007 0.08587086
v -0.02069667 -0.23559646 0.08587086
v -0.02069667 -0.45049518 0.08587086
v -0.27082473 -0.23559646 0.08587086
v -0.21886146 -0.45049518 0.08587086
v -0.29636592 -0.27611017 0.08587086
v -0.256733 -0.4425686 0.08587086
v -0.30957693 -0.3078165 0.08587086
v -0.27963203 -0.43023834 0.08587086
v -0.31574208 -0.33688068 0.08587086
v -0.29636592 -0.41790807 0.08587086
v -0.31838423 -0.3562568 0.08587086
v -0.30957693 -0.39324757 0.08587086
v 0.013651878 0.23735684 0.08587086
v 0.27434868 0.23735684 0.08587086
v 0.2285506 0.44520974 0.08587086
v 0.013651878 0.4504941 0.08587086
v 0.26994503 0.43552166 0.08587086
v -0.23207247 0.44609046 0.08587086
v 0.29196334 0.2628981 0.08587086
v -0.23207247 0.23735684 0.08587086
v 0.29196334 0.4196685 0.08587086
v -0.26025593 0.4416868 0.08587086
v 0.30341285 0.28403568 0.08587086
v -0.26025593 0.24176055 0.08587086
v 0.30341285 0.40205383 0.08587086
v 0.31310093 0.32278794 0.08587086
v 0.31310093 0.36330163 0.08587086
v -0.28227425 0.42935658 0.08587086
v -0.28227425 0.25585222 0.08587086
v -0.29988885 0.40998042 0.08587086
v -0.29988885 0.28051275 0.08587086
v -0.31309986 0.37210894 0.08587086
v -0.31309986 0.31838423 0.08587086
v -0.29636592 -0.41790807 0.08587086
v -0.27963203 -0.43023834 -0.085871935
v -0.29636592 -0.41790807 -0.085871935
v -0.27963203 -0.43023834 0.08587086
v -0.256733 -0.4425686 -0.085871935
v -0.256733 -0.4425686 0.08587086
v -0.21886146 -0.45049518 -0.085871935
v -0.21886146 -0.45049518 0.08587086
v -0.02069667 -0.45049518 -0.085871935
v -0.02069667 -0.45049518 0.08587086
v 0.20036715 -0.44433007 0.08587086
v 0.20036715 -0.44433007 -0.085871935
v 0.25673404 -0.44080713 0.08587086
v 0.25673404 -0.44080713 -0.085871935
v 0.28491747 -0.42935762 0.08587086
v 0.28491747 -0.42935762 -0.085871935
v -0.29636592 -0.41790807 -0.085871935
v -0.30957693 -0.39324757 0.08587086
v -0.29636592 -0.41790807 0.08587086
v -0.30957693 -0.39324757 -0.085871935
v -0.31838423 -0.3562568 0.08587086
v -0.31838423 -0.3562568 -0.085871935
v -0.31574208 -0.33688068 0.08587086
v -0.31574208 -0.33688068 -0.085871935
v -0.30957693 -0.3078165 -0.085871935
v -0.30957693 -0.3078165 0.08587086
v -0.29636592 -0.27611017 0.08587086
v -0.29636592 -0.27611017 -0.085871935
v -0.27082473 -0.23559646 0.08587086
v -0.27082473 -0.23559646 -0.085871935
v 0.013651878 0.23735684 0.08587086
v 0.013651878 0.23735684 -0.085871935
v -0.02069667 -0.23559646 0.08587086
v 0.27434868 0.23735684 -0.085871935
v -0.02069667 -0.23559646 -0.085871935
v 0.27434868 0.23735684 0.08587086
v 0.27434868 0.23735684 0.08587086
v 0.29196334 0.2628981 -0.085871935
v 0.27434868 0.23735684 -0.085871935
v 0.29196334 0.2628981 0.08587086
v 0.30341285 0.28403568 -0.085871935
v 0.30341285 0.28403568 0.08587086
v 0.31310093 0.32278794 -0.085871935
v 0.31310093 0.32278794 0.08587086
v 0.31310093 0.36330163 -0.085871935
v 0.31310093 0.36330163 0.08587086
v 0.30341285 0.40205383 -0.085871935
v 0.30341285 0.40205383 0.08587086
v 0.29196334 0.4196685 -0.085871935
v 0.29196334 0.4196685 0.08587086
v 0.29196334 0.4196685 0.08587086
v 0.26994503 0.43552166 -0.085871935
v 0.29196334 0.4196685 -0.085871935
v 0.26994503 0.43552166 0.08587086
v 0.2285506 0.44520974 -0.085871935
v 0.2285506 0.44520974 0.08587086
v 0.013651878 0.4504941 -0.085871935
v 0.013651878 0.4504941 0.08587086
v -0.23207247 0.44609046 -0.085871935
v -0.23207247 0.44609046 0.08587086
v -0.26025593 0.4416868 -0.085871935
v -0.26025593 0.4416868 0.08587086
v -0.28227425 0.42935658 -0.085871935
v -0.28227425 0.42935658 0.08587086
v 0.013651878 0.23735684 -0.085871935
v -0.23207247 0.23735684 0.08587086
v 0.013651878 0.23735684 0.08587086
v -0.23207247 0.23735684 -0.085871935
v -0.26025593 0.24176055 0.08587086
v -0.26025593 0.24176055 -0.085871935
v -0.28227425 0.25585222 0.08587086
v -0.28227425 0.25585222 -0.085871935
v -0.28227425 0.25585222 -0.085871935
v -0.29988885 0.28051275 0.08587086
v -0.28227425 0.25585222 0.08587086
v -0.29988885 0.28051275 -0.085871935
v -0.31309986 0.31838423 0.08587086
v -0.31309986 0.31838423 -0.085871935
v -0.31309986 0.37210894 0.08587086
v -0.31309986 0.37210894 -0.085871935
v -0.29988885 0.40998042 0.08587086
v -0.29988885 0.40998042 -0.085871935
v -0.28227425 0.42935658 0.08587086
v -0.28227425 0.42935658 -0.085871935
v 0.30341285 -0.2769909 -0.085871935
v 0.3183853 -0.35713756 -0.085871935
v 0.3183853 -0.3236697 -0.085871935
v 0.30341285 -0.40293562 -0.085871935
v 0.28491747 -0.25144964 -0.085871935
v 0.28491747 -0.42935762 -0.085871935
v 0.25673404 -0.24000013 -0.085871935
v 0.25673404 -0.44080713 -0.085871935
v 0.20036715 -0.23559646 -0.085871935
v 0.20036715 -0.44433007 -0.085871935
v -0.02069667 -0.23559646 -0.085871935
v -0.02069667 -0.45049518 -0.085871935
v -0.27082473 -0.23559646 -0.085871935
v -0.21886146 -0.45049518 -0.085871935
v -0.29636592 -0.27611017 -0.085871935
v -0.256733 -0.4425686 -0.085871935
v -0.30957693 -0.3078165 -0.085871935
v -0.27963203 -0.43023834 -0.085871935
v -0.31574208 -0.33688068 -0.085871935
v -0.29636592 -0.41790807 -0.085871935
v -0.31838423 -0.3562568 -0.085871935
v -0.30957693 -0.39324757 -0.085871935
v 0.013651878 0.23735684 -0.085871935
v 0.27434868 0.23735684 -0.085871935
v 0.2285506 0.44520974 -0.085871935
v 0.013651878 0.4504941 -0.085871935
v 0.26994503 0.43552166 -0.085871935
v -0.23207247 0.44609046 -0.085871935
v 0.29196334 0.2628981 -0.085871935
v -0.23207247 0.23735684 -0.085871935
v 0.29196334 0.4196685 -0.085871935
v -0.26025593 0.4416868 -0.085871935
v 0.30341285 0.28403568 -0.085871935
v -0.26025593 0.24176055 -0.085871935
v 0.30341285 0.40205383 -0.085871935
v 0.31310093 0.32278794 -0.085871935
v 0.31310093 0.36330163 -0.085871935
v -0.28227425 0.42935658 -0.085871935
v -0.28227425 0.25585222 -0.085871935
v -0.29988885 0.40998042 -0.085871935
v -0.29988885 0.28051275 -0.085871935
v -0.31309986 0.37210894 -0.085871935
v -0.31309986 0.31838423 -0.085871935
v -0.02069667 -0.23559646 -0.085871935
v 0.20036715 -0.23559646 0.08587086
v -0.02069667 -0.23559646 0.08587086
v 0.20036715 -0.23559646 -0.085871935
v 0.25673404 -0.24000013 -0.085871935
v 0.25673404 -0.24000013 0.08587086
v 0.28491747 -0.25144964 -0.085871935
v 0.28491747 -0.25144964 0.08587086
v 0.30341285 -0.40293562 0.08587086
v 0.28491747 -0.42935762 -0.085871935
v 0.28491747 -0.42935762 0.08587086
v 0.30341285 -0.40293562 -0.085871935
v 0.3183853 -0.35713756 0.08587086
v 0.3183853 -0.35713756 -0.085871935
v 0.3183853 -0.3236697 0.08587086
v 0.3183853 -0.3236697 -0.085871935
v 0.30341285 -0.2769909 0.08587086
v 0.30341285 -0.2769909 -0.085871935
v 0.28491747 -0.25144964 0.08587086
v 0.28491747 -0.25144964 -0.085871935
vt 0.8200338 0.10388425
vt 0.81662357 0.09706378
vt 0.8200338 0.100474015
vt 0.81662357 0.107294485
vt 0.81662357 0.093653545
vt 0.81662357 0.11070472
vt 0.81321335 0.09024331
vt 0.81321335 0.114114955
vt 0.8063929 0.09024331
vt 0.8063929 0.114114955
vt 0.78593147 0.09024331
vt 0.78593147 0.114114955
vt 0.7586496 0.09024331
vt 0.76547 0.114114955
vt 0.75523937 0.09706378
vt 0.7586496 0.114114955
vt 0.75523937 0.100474015
vt 0.7586496 0.11070472
vt 0.75523937 0.100474015
vt 0.75523937 0.11070472
vt 0.75523937 0.10388425
vt 0.75523937 0.107294485
vt 0.7893417 0.0425
vt 0.81321335 0.0425
vt 0.8098031 0.022038585
vt 0.7893417 0.022038585
vt 0.81321335 0.022038585
vt 0.7620598 0.022038585
vt 0.81662357 0.039089765
vt 0.7620598 0.0425
vt 0.81662357 0.025448821
vt 0.7586496 0.022038585
vt 0.81662357 0.039089765
vt 0.7586496 0.0425
vt 0.81662357 0.025448821
vt 0.8200338 0.03567953
vt 0.8200338 0.028859057
vt 0.7586496 0.022038585
vt 0.7586496 0.0425
vt 0.75523937 0.025448821
vt 0.75523937 0.039089765
vt 0.75523937 0.028859057
vt 0.75523937 0.03567953
vt 0.8711873 0.06978189
vt 0.8541362 0.06637166
vt 0.8541362 0.06978189
vt 0.8711873 0.06637166
vt 0.8541362 0.06637166
vt 0.8711873 0.06637166
vt 0.8541362 0.059551183
vt 0.8711873 0.059551183
vt 0.8541362 0.039089765
vt 0.8711873 0.039089765
vt 0.8711873 0.015218113
vt 0.8541362 0.015218113
vt 0.8711873 0.008397641
vt 0.8541362 0.008397641
vt 0.8711873 0.008397641
vt 0.8541362 0.008397641
vt 0.8507259 0.0015771687
vt 0.8711873 0.0049874047
vt 0.8711873 0.0015771687
vt 0.8507259 0.0049874047
vt 0.8711873 0.008397641
vt 0.8507259 0.008397641
vt 0.8711873 0.011807877
vt 0.8507259 0.011807877
vt 0.8507259 0.011807877
vt 0.8711873 0.011807877
vt 0.8711873 0.015218113
vt 0.8507259 0.015218113
vt 0.8711873 0.022038585
vt 0.8507259 0.022038585
vt 0.8711873 0.06978189
vt 0.8507259 0.06978189
vt 0.8541362 0.12434567
vt 0.8711873 0.07660236
vt 0.8711873 0.12434567
vt 0.8541362 0.07660236
vt 0.8541362 0.049320474
vt 0.8711873 0.05273071
vt 0.8711873 0.049320474
vt 0.8541362 0.05273071
vt 0.8711873 0.056140944
vt 0.8541362 0.056140944
vt 0.8711873 0.059551183
vt 0.8541362 0.059551183
vt 0.8711873 0.062961414
vt 0.8541362 0.062961414
vt 0.8711873 0.06637166
vt 0.8541362 0.06637166
vt 0.8711873 0.06978189
vt 0.8541362 0.06978189
vt 0.8541362 0.008397641
vt 0.8711873 0.011807877
vt 0.8711873 0.008397641
vt 0.8541362 0.011807877
vt 0.8711873 0.015218113
vt 0.8541362 0.015218113
vt 0.8711873 0.039089765
vt 0.8541362 0.039089765
vt 0.8711873 0.062961414
vt 0.8541362 0.062961414
vt 0.8711873 0.06637166
vt 0.8541362 0.06637166
vt 0.8711873 0.06978189
vt 0.8541362 0.06978189
vt 0.8711873 0.12434567
vt 0.8541362 0.100474015
vt 0.8541362 0.12434567
vt 0.8711873 0.100474015
vt 0.8541362 0.09706378
vt 0.8711873 0.09706378
vt 0.8541362 0.093653545
vt 0.8711873 0.093653545
vt 0.8507259 0.049320474
vt 0.8711873 0.05273071
vt 0.8711873 0.049320474
vt 0.8507259 0.05273071
vt 0.8711873 0.056140944
vt 0.8507259 0.056140944
vt 0.8711873 0.062961414
vt 0.8507259 0.062961414
vt 0.8711873 0.06637166
vt 0.8507259 0.06637166
vt 0.8711873 0.06637166
vt 0.8507259 0.06637166
vt 0.81662357 0.09706378
vt 0.8200338 0.10388425
vt 0.8200338 0.100474015
vt 0.81662357 0.107294485
vt 0.81662357 0.093653545
vt 0.81662357 0.11070472
vt 0.81321335 0.09024331
vt 0.81321335 0.114114955
vt 0.8063929 0.09024331
vt 0.8063929 0.114114955
vt 0.78593147 0.09024331
vt 0.78593147 0.114114955
vt 0.7586496 0.09024331
vt 0.76547 0.114114955
vt 0.75523937 0.09706378
vt 0.7586496 0.114114955
vt 0.75523937 0.100474015
vt 0.7586496 0.11070472
vt 0.75523937 0.100474015
vt 0.75523937 0.11070472
vt 0.75523937 0.10388425
vt 0.75523937 0.107294485
vt 0.7893417 0.0425
vt 0.81321335 0.0425
vt 0.8098031 0.022038585
vt 0.7893417 0.022038585
vt 0.81321335 0.022038585
vt 0.7620598 0.022038585
vt 0.81662357 0.039089765
vt 0.7620598 0.0425
vt 0.81662357 0.025448821
vt 0.7586496 0.022038585
vt 0.81662357 0.039089765
vt 0.7586496 0.0425
vt 0.81662357 0.025448821
vt 0.8200338 0.03567953
vt 0.8200338 0.028859057
vt 0.7586496 0.022038585
vt 0.7586496 0.0425
vt 0.75523937 0.025448821
vt 0.75523937 0.039089765
vt 0.75523937 0.028859057
vt 0.75523937 0.03567953
vt 0.8711873 0.0425
vt 0.8541362 0.01862835
vt 0.8541362 0.0425
vt 0.8711873 0.01862835
vt 0.8711873 0.011807877
vt 0.8541362 0.011807877
vt 0.8711873 0.008397641
vt 0.8541362 0.008397641
vt 0.8541362 0.011807877
vt 0.8711873 0.008397641
vt 0.8541362 0.008397641
vt 0.8711873 0.011807877
vt 0.8541362 0.015218113
vt 0.8711873 0.015218113
vt 0.8541362 0.01862835
vt 0.8711873 0.01862835
vt 0.8541362 0.025448821
vt 0.8711873 0.025448821
vt 0.8541362 0.028859057
vt 0.8711873 0.028859057
vn 0.015870988 -0.015870988 0.99974805
vn 0.015870988 -0.015870988 0.99974805
vn 0.015870988 -0.015870988 0.99974805
vn 0.015870988 -0.015870988 0.99974805
vn 0.015870988 -0.015870988 0.99974805
vn 0.015870988 -0.015870988 0.99974805
vn 0.015870988 -0.015870988 0.99974805
vn 0.015870988 -0.015870988 0.99974805
vn 0.015870988 -0.015870988 0.99974805
vn 0.015870988 -0.015870988 0.99974805
vn 0.015870988 -0.015870988 0.99974805
vn 0.015870988 -0.015870988 0.99974805
vn 0.015870988 -0.015870988 0.99974805
vn 0.015870988 -0.015870988 0.99974805
vn 0.015870988 -0.015870988 0.99974805
vn 0.015870988 -0.015870988 0.99974805
vn 0.015870988 -0.015870988 0.99974805
vn 0.015870988 -0.015870988 0.99974805
vn 0.015870988 -0.015870988 0.99974805
vn 0.015870988 -0.015870988 0.99974805
vn 0.015870988 -0.015870988 0.99974805
vn 0.015870988 -0.015870988 0.99974805
vn 0.015870988 -0.015870988 0.99974805
vn 0.015870988 -0.015870988 0.99974805
vn 0.015870988 -0.015870988 0.99974805
vn 0.015870988 -0.015870988 0.99974805
vn 0.015870988 -0.015870988 0.99974805
vn 0.015870988 -0.015870988 0.99974805
vn 0.015870988 -0.015870988 0.99974805
vn 0.015870988 -0.015870988 0.99974805
vn 0.015870988 -0.015870988 0.99974805
vn 0.015870988 -0.015870988 0.99974805
vn 0.015870988 -0.015870988 0.99974805
vn 0.015870988 -0.015870988 0.99974805
vn 0.015870988 -0.015870988 0.99974805
vn 0.015870988 -0.015870988 0.99974805
vn 0.015870988 -0.015870988 0.99974805
vn 0.015870988 -0.015870988 0.99974805
vn 0.015870988 -0.015870988 0.99974805
vn 0.015870988 -0.015870988 0.99974805
vn 0.015870988 -0.015870988 0.99974805
vn 0.015870988 -0.015870988 0.99974805
vn 0.015870988 -0.015870988 0.99974805
vn -0.7459382 -0.650712 -0.14195102
vn -0.52374387 -0.84116435 -0.13466607
vn -0.7459382 -0.650712 -0.14195102
vn -0.52374387 -0.84116435 -0.13466607
vn -0.33329153 -0.9363905 -0.109952495
vn -0.33329153 -0.9363905 -0.109952495
vn -0.11043157 -0.9938838 -0
vn -0.11043157 -0.9938838 -0
vn 0.01587098 -0.9998741 -0
vn 0.01587098 -0.9998741 -0
vn 0.0475651 -0.99886817 -0
vn 0.0475651 -0.99886817 -0
vn 0.23806536 -0.96813256 -0.077744514
vn 0.23806536 -0.96813256 -0.077744514
vn 0.61897 -0.7776802 -0.10995276
vn 0.61897 -0.7776802 -0.10995276
vn -0.7459382 -0.650712 -0.14195102
vn -0.93170804 -0.36320817 -0
vn -0.7459382 -0.650712 -0.14195102
vn -0.93170804 -0.36320817 -0
vn -0.99886817 -0.0475651 -0
vn -0.99886817 -0.0475651 -0
vn -0.9899495 0.14142144 -0
vn -0.9899495 0.14142144 -0
vn -0.9547581 0.29738373 -0
vn -0.9547581 0.29738373 -0
vn -0.891278 0.45345724 -0
vn -0.891278 0.45345724 -0
vn -0.84116435 0.52374387 -0.13466597
vn -0.84116435 0.52374387 -0.13466597
vn -0.8711522 -0.49101302 -0
vn -0.8711522 -0.49101302 -0
vn 0.8711523 0.49101308 -0
vn 0.83446467 -0.5510615 -0
vn 0.8711523 0.49101308 -0
vn 0.83446467 -0.5510615 -0
vn 0.83446467 -0.5510615 -0
vn 0.84116435 -0.5237438 -0.13466619
vn 0.83446467 -0.5510615 -0
vn 0.84116435 -0.5237438 -0.13466619
vn 0.93170804 -0.36320817 -0
vn 0.93170804 -0.36320817 -0
vn 0.9899495 -0.14142133 -0
vn 0.9899495 -0.14142133 -0
vn 0.9899495 0.14142144 -0
vn 0.9899495 0.14142144 -0
vn 0.9046484 0.39677572 -0.15550004
vn 0.9046484 0.39677572 -0.15550004
vn 0.7141961 0.6824541 -0.15550034
vn 0.7141961 0.6824541 -0.15550034
vn 0.7141961 0.6824541 -0.15550034
vn 0.42808628 0.90373784 -0
vn 0.7141961 0.6824541 -0.15550034
vn 0.42808628 0.90373784 -0
vn 0.11043151 0.9938838 -0
vn 0.11043151 0.9938838 -0
vn 0.01587098 0.9998741 -0
vn 0.01587098 0.9998741 -0
vn -0.0791163 0.9968654 -0
vn -0.0791163 0.9968654 -0
vn -0.33329153 0.9363905 -0.109952495
vn -0.33329153 0.9363905 -0.109952495
vn -0.61897004 0.7776803 -0.10995222
vn -0.61897004 0.7776803 -0.10995222
vn -0.8711522 -0.49101302 -0
vn -0.0791163 -0.9968654 -0
vn -0.8711522 -0.49101302 -0
vn -0.0791163 -0.9968654 -0
vn -0.36320823 -0.93170804 -0
vn -0.36320823 -0.93170804 -0
vn -0.6824541 -0.7141961 -0.15550034
vn -0.6824541 -0.7141961 -0.15550034
vn -0.6824541 -0.7141961 -0.15550034
vn -0.87290645 -0.46025974 -0.16184959
vn -0.6824541 -0.7141961 -0.15550034
vn -0.87290645 -0.46025974 -0.16184959
vn -0.98509675 -0.17200097 -0
vn -0.98509675 -0.17200097 -0
vn -0.98509675 0.17200103 -0
vn -0.98509675 0.17200103 -0
vn -0.84116435 0.52374387 -0.13466597
vn -0.84116435 0.52374387 -0.13466597
vn -0.61897004 0.7776803 -0.10995222
vn -0.61897004 0.7776803 -0.10995222
vn 0.015870988 -0.015870988 -0.99974805
vn 0.015870988 -0.015870988 -0.99974805
vn 0.015870988 -0.015870988 -0.99974805
vn 0.015870988 -0.015870988 -0.99974805
vn 0.015870988 -0.015870988 -0.99974805
vn 0.015870988 -0.015870988 -0.99974805
vn 0.015870988 -0.015870988 -0.99974805
vn 0.015870988 -0.015870988 -0.99974805
vn 0.015870988 -0.015870988 -0.99974805
vn 0.015870988 -0.015870988 -0.99974805
vn 0.015870988 -0.015870988 -0.99974805
vn 0.015870988 -0.015870988 -0.99974805
vn 0.015870988 -0.015870988 -0.99974805
vn 0.015870988 -0.015870988 -0.99974805
vn 0.015870988 -0.015870988 -0.99974805
vn 0.015870988 -0.015870988 -0.99974805
vn 0.015870988 -0.015870988 -0.99974805
vn 0.015870988 -0.015870988 -0.99974805
vn 0.015870988 -0.015870988 -0.99974805
vn 0.015870988 -0.015870988 -0.99974805
vn 0.015870988 -0.015870988 -0.99974805
vn 0.015870988 -0.015870988 -0.99974805
vn 0.015870988 -0.015870988 -0.99974805
vn 0.015870988 -0.015870988 -0.99974805
vn 0.015870988 -0.015870988 -0.99974805
vn 0.015870988 -0.015870988 -0.99974805
vn 0.015870988 -0.015870988 -0.99974805
vn 0.015870988 -0.015870988 -0.99974805
vn 0.015870988 -0.015870988 -0.99974805
vn 0.015870988 -0.015870988 -0.99974805
vn 0.015870988 -0.015870988 -0.99974805
vn 0.015870988 -0.015870988 -0.99974805
vn 0.015870988 -0.015870988 -0.99974805
vn 0.015870988 -0.015870988 -0.99974805
vn 0.015870988 -0.015870988 -0.99974805
vn 0.015870988 -0.015870988 -0.99974805
vn 0.015870988 -0.015870988 -0.99974805
vn 0.015870988 -0.015870988 -0.99974805
vn 0.015870988 -0.015870988 -0.99974805
vn 0.015870988 -0.015870988 -0.99974805
vn 0.015870988 -0.015870988 -0.99974805
vn 0.015870988 -0.015870988 -0.99974805
vn 0.015870988 -0.015870988 -0.99974805
vn 0.8711523 0.49101308 -0
vn 0.0475651 0.99886817 -0
vn 0.8711523 0.49101308 -0
vn 0.0475651 0.99886817 -0
vn 0.23806536 0.9681326 -0.07774375
vn 0.23806536 0.9681326 -0.07774375
vn 0.61897 0.7776803 -0.10995222
vn 0.61897 0.7776803 -0.10995222
vn 0.891278 -0.45345724 -0
vn 0.61897 -0.7776802 -0.10995276
vn 0.61897 -0.7776802 -0.10995276
vn 0.891278 -0.45345724 -0
vn 0.9899495 -0.14142133 -0
vn 0.9899495 -0.14142133 -0
vn 0.9899495 0.14142144 -0
vn 0.9899495 0.14142144 -0
vn 0.891278 0.4534573 -0
vn 0.891278 0.4534573 -0
vn 0.61897 0.7776803 -0.10995222
vn 0.61897 0.7776803 -0.10995222
g Text_Z_0
f 3/3/3 2/2/2 1/1/1
f 4/4/4 1/1/1 2/2/2
f 2/2/2 5/5/5 4/4/4
f 6/6/6 4/4/4 5/5/5
f 5/5/5 7/7/7 6/6/6
f 8/8/8 6/6/6 7/7/7
f 7/7/7 9/9/9 8/8/8
f 10/10/10 8/8/8 9/9/9
f 9/9/9 11/11/11 10/10/10
f 12/12/12 10/10/10 11/11/11
f 11/11/11 13/13/13 12/12/12
f 14/14/14 12/12/12 13/13/13
f 13/13/13 15/15/15 14/14/14
f 16/16/16 14/14/14 15/15/15
f 15/15/15 17/17/17 16/16/16
f 18/18/18 16/16/16 17/17/17
f 17/17/17 19/19/19 18/18/18
f 20/20/20 18/18/18 19/19/19
f 19/19/19 21/21/21 20/20/20
f 22/22/22 20/20/20 21/21/21
f 13/13/13 11/11/11 23/23/23
f 24/24/24 23/23/23 11/11/11
f 24/24/24 25/25/25 23/23/23
f 26/26/26 23/23/23 25/25/25
f 27/27/27 25/25/25 24/24/24
f 26/26/26 28/28/28 23/23/23
f 24/24/24 29/29/29 27/27/27
f 30/30/30 23/23/23 28/28/28
f 31/31/31 27/27/27 29/29/29
f 28/28/28 32/32/32 30/30/30
f 29/29/29 33/33/33 31/31/31
f 34/34/34 30/30/30 32/32/32
f 35/35/35 31/31/31 33/33/33
f 33/33/33 36/36/36 35/35/35
f 37/37/37 35/35/35 36/36/36
f 32/32/32 38/38/38 34/34/34
f 39/39/39 34/34/34 38/38/38
f 38/38/38 40/40/40 39/39/39
f 41/41/41 39/39/39 40/40/40
f 40/40/40 42/42/42 41/41/41
f 43/43/43 41/41/41 42/42/42
f 46/46/46 45/45/45 44/44/44
f 47/47/47 44/44/44 45/45/45
f 45/45/45 48/48/48 47/47/47
f 49/49/49 47/47/47 48/48/48
f 48/48/48 50/50/50 49/49/49
f 51/51/51 49/49/49 50/50/50
f 50/50/50 52/52/52 51/51/51
f 53/53/53 51/51/51 52/52/52
f 53/53/53 52/52/52 54/54/54
f 55/55/55 54/54/54 52/52/52
f 54/54/54 55/55/55 56/56/56
f 57/57/57 56/56/56 55/55/55
f 56/56/56 57/57/57 58/58/58
f 59/59/59 58/58/58 57/57/57
f 62/62/62 61/61/61 60/60/60
f 63/63/63 60/60/60 61/61/61
f 61/61/61 64/64/64 63/63/63
f 65/65/65 63/63/63 64/64/64
f 64/64/64 66/66/66 65/65/65
f 67/67/67 65/65/65 66/66/66
f 67/67/67 66/66/66 68/68/68
f 69/69/69 68/68/68 66/66/66
f 69/69/69 70/70/70 68/68/68
f 71/71/71 68/68/68 70/70/70
f 70/70/70 72/72/72 71/71/71
f 73/73/73 71/71/71 72/72/72
f 72/72/72 74/74/74 73/73/73
f 75/75/75 73/73/73 74/74/74
f 78/78/78 77/77/77 76/76/76
f 79/79/79 76/76/76 77/77/77
f 82/82/82 81/81/81 80/80/80
f 83/83/83 80/80/80 81/81/81
f 81/81/81 84/84/84 83/83/83
f 85/85/85 83/83/83 84/84/84
f 84/84/84 86/86/86 85/85/85
f 87/87/87 85/85/85 86/86/86
f 86/86/86 88/88/88 87/87/87
f 89/89/89 87/87/87 88/88/88
f 88/88/88 90/90/90 89/89/89
f 91/91/91 89/89/89 90/90/90
f 90/90/90 92/92/92 91/91/91
f 93/93/93 91/91/91 92/92/92
f 96/96/96 95/95/95 94/94/94
f 97/97/97 94/94/94 95/95/95
f 95/95/95 98/98/98 97/97/97
f 99/99/99 97/97/97 98/98/98
f 98/98/98 100/100/100 99/99/99
f 101/101/101 99/99/99 100/100/100
f 100/100/100 102/102/102 101/101/101
f 103/103/103 101/101/101 102/102/102
f 102/102/102 104/104/104 103/103/103
f 105/105/105 103/103/103 104/104/104
f 104/104/104 106/106/106 105/105/105
f 107/107/107 105/105/105 106/106/106
f 110/110/110 109/109/109 108/108/108
f 111/111/111 108/108/108 109/109/109
f 109/109/109 112/112/112 111/111/111
f 113/113/113 111/111/111 112/112/112
f 112/112/112 114/114/114 113/113/113
f 115/115/115 113/113/113 114/114/114
f 118/118/118 117/117/117 116/116/116
f 119/119/119 116/116/116 117/117/117
f 117/117/117 120/120/120 119/119/119
f 121/121/121 119/119/119 120/120/120
f 120/120/120 122/122/122 121/121/121
f 123/123/123 121/121/121 122/122/122
f 122/122/122 124/124/124 123/123/123
f 125/125/125 123/123/123 124/124/124
f 124/124/124 126/126/126 125/125/125
f 127/127/127 125/125/125 126/126/126
f 130/130/130 129/129/129 128/128/128
f 131/131/131 128/128/128 129/129/129
f 128/128/128 131/131/131 132/132/132
f 133/133/133 132/132/132 131/131/131
f 132/132/132 133/133/133 134/134/134
f 135/135/135 134/134/134 133/133/133
f 134/134/134 135/135/135 136/136/136
f 137/137/137 136/136/136 135/135/135
f 136/136/136 137/137/137 138/138/138
f 139/139/139 138/138/138 137/137/137
f 138/138/138 139/139/139 140/140/140
f 141/141/141 140/140/140 139/139/139
f 140/140/140 141/141/141 142/142/142
f 143/143/143 142/142/142 141/141/141
f 142/142/142 143/143/143 144/144/144
f 145/145/145 144/144/144 143/143/143
f 144/144/144 145/145/145 146/146/146
f 147/147/147 146/146/146 145/145/145
f 146/146/146 147/147/147 148/148/148
f 149/149/149 148/148/148 147/147/147
f 140/140/140 150/150/150 138/138/138
f 151/151/151 138/138/138 150/150/150
f 151/151/151 150/150/150 152/152/152
f 153/153/153 152/152/152 150/150/150
f 152/152/152 154/154/154 151/151/151
f 153/153/153 150/150/150 155/155/155
f 151/151/151 154/154/154 156/156/156
f 157/157/157 155/155/155 150/150/150
f 158/158/158 156/156/156 154/154/154
f 155/155/155 157/157/157 159/159/159
f 156/156/156 158/158/158 160/160/160
f 161/161/161 159/159/159 157/157/157
f 162/162/162 160/160/160 158/158/158
f 160/160/160 162/162/162 163/163/163
f 164/164/164 163/163/163 162/162/162
f 159/159/159 161/161/161 165/165/165
f 166/166/166 165/165/165 161/161/161
f 165/165/165 166/166/166 167/167/167
f 168/168/168 167/167/167 166/166/166
f 167/167/167 168/168/168 169/169/169
f 170/170/170 169/169/169 168/168/168
f 173/173/173 172/172/172 171/171/171
f 174/174/174 171/171/171 172/172/172
f 174/174/174 172/172/172 175/175/175
f 176/176/176 175/175/175 172/172/172
f 175/175/175 176/176/176 177/177/177
f 178/178/178 177/177/177 176/176/176
f 181/181/181 180/180/180 179/179/179
f 182/182/182 179/179/179 180/180/180
f 179/179/179 182/182/182 183/183/183
f 184/184/184 183/183/183 182/182/182
f 183/183/183 184/184/184 185/185/185
f 186/186/186 185/185/185 184/184/184
f 185/185/185 186/186/186 187/187/187
f 188/188/188 187/187/187 186/186/186
f 187/187/187 188/188/188 189/189/189
f 190/190/190 189/189/189 188/188/188
