g Text_H
v -0.29391864 0.4469919 0.08559409
v -0.24047884 0.46329555 0.08559409
v -0.18703905 0.4469919 0.08559409
v -0.1598663 0.41981915 0.08559409
v -0.32109138 0.41981915 0.08559409
v -0.1444684 0.38540027 0.08559409
v -0.3383008 0.38540027 0.08559409
v -0.14175114 0.35098144 0.08559409
v -0.3428296 0.35098144 0.08559409
v -0.34554687 0.11729565 0.08559409
v -0.13812807 0.11729565 0.08559409
v -0.34554687 -0.08197132 0.08559409
v -0.13812807 -0.08197132 0.08559409
v 0.1381284 0.11729565 0.08559409
v -0.14175114 -0.35098174 0.08559409
v -0.3428296 -0.35098174 0.08559409
v -0.3383008 -0.3854006 0.08559409
v -0.1444684 -0.3854006 0.08559409
v -0.32109138 -0.4198194 0.08559409
v -0.1598663 -0.4198194 0.08559409
v -0.29391864 -0.4469922 0.08559409
v -0.18703905 -0.4469922 0.08559409
v -0.24047884 -0.46329585 0.08559409
v 0.1381284 -0.08197132 0.08559409
v 0.3455472 -0.08197132 0.08559409
v 0.14175141 -0.35098174 0.08559409
v 0.3455472 0.11729565 0.08559409
v 0.3428299 -0.35098174 0.08559409
v 0.33830112 -0.3854006 0.08559409
v 0.1444687 -0.3854006 0.08559409
v 0.3210917 -0.4198194 0.08559409
v 0.1598666 -0.4198194 0.08559409
v 0.2939189 -0.4469922 0.08559409
v 0.18703938 -0.4469922 0.08559409
v 0.24047914 -0.46329585 0.08559409
v 0.14175141 0.35098144 0.08559409
v 0.3428299 0.35098144 0.08559409
v 0.33830112 0.38540027 0.08559409
v 0.1444687 0.38540027 0.08559409
v 0.3210917 0.41981915 0.08559409
v 0.1598666 0.41981915 0.08559409
v 0.2939189 0.4469919 0.08559409
v 0.18703938 0.4469919 0.08559409
v 0.24047914 0.46329555 0.08559409
v -0.29391864 0.4469919 0.08559409
v -0.32109138 0.41981915 -0.085594356
v -0.29391864 0.4469919 -0.085594356
v -0.32109138 0.41981915 0.08559409
v -0.3383008 0.38540027 -0.085594356
v -0.3383008 0.38540027 0.08559409
v -0.3428296 0.35098144 -0.085594356
v -0.3428296 0.35098144 0.08559409
v -0.34554687 0.11729565 -0.085594356
v -0.34554687 0.11729565 0.08559409
v -0.34554687 -0.08197132 -0.085594356
v -0.34554687 -0.08197132 0.08559409
v -0.3428296 -0.35098174 0.08559409
v -0.3428296 -0.35098174 -0.085594356
v -0.3383008 -0.3854006 0.08559409
v -0.3383008 -0.3854006 -0.085594356
v -0.32109138 -0.4198194 0.08559409
v -0.32109138 -0.4198194 -0.085594356
v -0.29391864 -0.4469922 0.08559409
v -0.29391864 -0.4469922 -0.085594356
v -0.18703905 0.4469919 -0.085594356
v -0.1598663 0.41981915 0.08559409
v -0.18703905 0.4469919 0.08559409
v -0.1598663 0.41981915 -0.085594356
v -0.1444684 0.38540027 0.08559409
v -0.1444684 0.38540027 -0.085594356
v -0.14175114 0.35098144 0.08559409
v -0.14175114 0.35098144 -0.085594356
v -0.13812807 0.11729565 0.08559409
v -0.13812807 0.11729565 -0.085594356
v -0.29391864 0.4469919 -0.085594356
v -0.24047884 0.46329555 0.08559409
v -0.29391864 0.4469919 0.08559409
v -0.24047884 0.46329555 -0.085594356
v -0.18703905 0.4469919 0.08559409
v -0.18703905 0.4469919 -0.085594356
v 0.2939189 0.4469919 -0.085594356
v 0.3210917 0.41981915 0.08559409
v 0.2939189 0.4469919 0.08559409
v 0.3210917 0.41981915 -0.085594356
v 0.33830112 0.38540027 0.08559409
v 0.33830112 0.38540027 -0.085594356
v 0.3428299 0.35098144 0.08559409
v 0.3428299 0.35098144 -0.085594356
v 0.3455472 0.11729565 -0.085594356
v 0.3455472 0.11729565 0.08559409
v 0.3455472 -0.08197132 -0.085594356
v 0.3455472 -0.08197132 0.08559409
v 0.3428299 -0.35098174 0.08559409
v 0.3428299 -0.35098174 -0.085594356
v 0.33830112 -0.3854006 -0.085594356
v 0.33830112 -0.3854006 0.08559409
v 0.3210917 -0.4198194 -0.085594356
v 0.3210917 -0.4198194 0.08559409
v 0.2939189 -0.4469922 -0.085594356
v 0.2939189 -0.4469922 0.08559409
v 0.18703938 0.4469919 0.08559409
v 0.1598666 0.41981915 -0.085594356
v 0.18703938 0.4469919 -0.085594356
v 0.1598666 0.41981915 0.08559409
v 0.1444687 0.38540027 -0.085594356
v 0.1444687 0.38540027 0.08559409
v 0.14175141 0.35098144 -0.085594356
v 0.14175141 0.35098144 0.08559409
v 0.1381284 0.11729565 -0.085594356
v 0.1381284 0.11729565 0.08559409
v 0.18703938 0.4469919 -0.085594356
v 0.24047914 0.46329555 0.08559409
v 0.18703938 0.4469919 0.08559409
v 0.24047914 0.46329555 -0.085594356
v 0.2939189 0.4469919 0.08559409
v 0.2939189 0.4469919 -0.085594356
v 0.1381284 0.11729565 0.08559409
v -0.13812807 0.11729565 -0.085594356
v 0.1381284 0.11729565 -0.085594356
v -0.13812807 0.11729565 0.08559409
v -0.29391864 0.4469919 -0.085594356
v -0.18703905 0.4469919 -0.085594356
v -0.24047884 0.46329555 -0.085594356
v -0.1598663 0.41981915 -0.085594356
v -0.32109138 0.41981915 -0.085594356
v -0.1444684 0.38540027 -0.085594356
v -0.3383008 0.38540027 -0.085594356
v -0.14175114 0.35098144 -0.085594356
v -0.3428296 0.35098144 -0.085594356
v -0.34554687 0.11729565 -0.085594356
v -0.13812807 0.11729565 -0.085594356
v -0.34554687 -0.08197132 -0.085594356
v -0.13812807 -0.08197132 -0.085594356
v 0.1381284 0.11729565 -0.085594356
v -0.14175114 -0.35098174 -0.085594356
v -0.3428296 -0.35098174 -0.085594356
v -0.3383008 -0.3854006 -0.085594356
v -0.1444684 -0.3854006 -0.085594356
v -0.32109138 -0.4198194 -0.085594356
v -0.1598663 -0.4198194 -0.085594356
v -0.29391864 -0.4469922 -0.085594356
v -0.18703905 -0.4469922 -0.085594356
v -0.24047884 -0.46329585 -0.085594356
v 0.1381284 -0.08197132 -0.085594356
v 0.3455472 -0.08197132 -0.085594356
v 0.14175141 -0.35098174 -0.085594356
v 0.3455472 0.11729565 -0.085594356
v 0.3428299 -0.35098174 -0.085594356
v 0.33830112 -0.3854006 -0.085594356
v 0.1444687 -0.3854006 -0.085594356
v 0.3210917 -0.4198194 -0.085594356
v 0.1598666 -0.4198194 -0.085594356
v 0.2939189 -0.4469922 -0.085594356
v 0.18703938 -0.4469922 -0.085594356
v 0.24047914 -0.46329585 -0.085594356
v 0.14175141 0.35098144 -0.085594356
v 0.3428299 0.35098144 -0.085594356
v 0.33830112 0.38540027 -0.085594356
v 0.1444687 0.38540027 -0.085594356
v 0.3210917 0.41981915 -0.085594356
v 0.1598666 0.41981915 -0.085594356
v 0.2939189 0.4469919 -0.085594356
v 0.18703938 0.4469919 -0.085594356
v 0.24047914 0.46329555 -0.085594356
v -0.1598663 -0.4198194 0.08559409
v -0.18703905 -0.4469922 -0.085594356
v -0.18703905 -0.4469922 0.08559409
v -0.1598663 -0.4198194 -0.085594356
v -0.1444684 -0.3854006 0.08559409
v -0.1444684 -0.3854006 -0.085594356
v -0.14175114 -0.35098174 0.08559409
v -0.14175114 -0.35098174 -0.085594356
v -0.13812807 -0.08197132 0.08559409
v -0.13812807 -0.08197132 -0.085594356
v -0.24047884 -0.46329585 -0.085594356
v -0.18703905 -0.4469922 0.08559409
v -0.18703905 -0.4469922 -0.085594356
v -0.24047884 -0.46329585 0.08559409
v -0.29391864 -0.4469922 -0.085594356
v -0.29391864 -0.4469922 0.08559409
v 0.1381284 -0.08197132 0.08559409
v -0.13812807 -0.08197132 -0.085594356
v -0.13812807 -0.08197132 0.08559409
v 0.1381284 -0.08197132 -0.085594356
v 0.1598666 -0.4198194 -0.085594356
v 0.18703938 -0.4469922 0.08559409
v 0.18703938 -0.4469922 -0.085594356
v 0.1598666 -0.4198194 0.08559409
v 0.1444687 -0.3854006 -0.085594356
v 0.1444687 -0.3854006 0.08559409
v 0.14175141 -0.35098174 -0.085594356
v 0.14175141 -0.35098174 0.08559409
v 0.1381284 -0.08197132 -0.085594356
v 0.1381284 -0.08197132 0.08559409
v 0.24047914 -0.46329585 -0.085594356
v 0.2939189 -0.4469922 0.08559409
v 0.2939189 -0.4469922 -0.085594356
v 0.24047914 -0.46329585 0.08559409
v 0.18703938 -0.4469922 -0.085594356
v 0.18703938 -0.4469922 0.08559409
vt 0.38620976 0.8572156
vt 0.3920008 0.85914594
vt 0.39779186 0.8572156
vt 0.39972222 0.8533549
vt 0.38234904 0.8533549
vt 0.40165254 0.8494942
vt 0.3804187 0.8494942
vt 0.40165254 0.8456335
vt 0.3804187 0.8456335
vt 0.3804187 0.82246923
vt 0.40165254 0.82246923
vt 0.3804187 0.8012354
vt 0.40165254 0.8012354
vt 0.43060783 0.82246923
vt 0.40165254 0.7722801
vt 0.3804187 0.7722801
vt 0.3804187 0.7684194
vt 0.40165254 0.7684194
vt 0.38234904 0.766489
vt 0.39972222 0.766489
vt 0.38620976 0.7626283
vt 0.39779186 0.7626283
vt 0.3920008 0.76069796
vt 0.43060783 0.8012354
vt 0.4518417 0.8012354
vt 0.43060783 0.7722801
vt 0.4518417 0.82246923
vt 0.4518417 0.7722801
vt 0.4518417 0.7684194
vt 0.43253818 0.7684194
vt 0.44991136 0.766489
vt 0.43253818 0.766489
vt 0.447981 0.7626283
vt 0.4363989 0.7626283
vt 0.44218993 0.76069796
vt 0.43060783 0.8456335
vt 0.4518417 0.8456335
vt 0.4518417 0.8494942
vt 0.43253818 0.8494942
vt 0.44991136 0.8533549
vt 0.43253818 0.8533549
vt 0.447981 0.8572156
vt 0.4363989 0.8572156
vt 0.44218993 0.85914594
vt 0.4923791 0.8456335
vt 0.47500592 0.84370315
vt 0.47500592 0.8456335
vt 0.4923791 0.84370315
vt 0.47500592 0.83984244
vt 0.4923791 0.83984244
vt 0.47500592 0.8359817
vt 0.4923791 0.8359817
vt 0.47500592 0.8108871
vt 0.4923791 0.8108871
vt 0.47500592 0.7896533
vt 0.4923791 0.7896533
vt 0.4923791 0.7626283
vt 0.47500592 0.7626283
vt 0.4923791 0.7587676
vt 0.47500592 0.7587676
vt 0.4923791 0.75490695
vt 0.47500592 0.75490695
vt 0.4923791 0.7529766
vt 0.47500592 0.7529766
vt 0.49430946 0.84756386
vt 0.47693628 0.8456335
vt 0.47693628 0.84756386
vt 0.49430946 0.8456335
vt 0.47693628 0.8417728
vt 0.49430946 0.8417728
vt 0.47693628 0.8379121
vt 0.49430946 0.8379121
vt 0.47693628 0.8147478
vt 0.49430946 0.8147478
vt 0.49430946 0.84756386
vt 0.47693628 0.8417728
vt 0.47693628 0.84756386
vt 0.49430946 0.8417728
vt 0.47693628 0.8359817
vt 0.49430946 0.8359817
vt 0.49430946 0.84756386
vt 0.47693628 0.8456335
vt 0.47693628 0.84756386
vt 0.49430946 0.8456335
vt 0.47693628 0.8417728
vt 0.49430946 0.8417728
vt 0.47693628 0.8379121
vt 0.49430946 0.8379121
vt 0.49430946 0.8147478
vt 0.47693628 0.8147478
vt 0.49430946 0.793514
vt 0.47693628 0.793514
vt 0.47693628 0.7645587
vt 0.49430946 0.7645587
vt 0.49430946 0.76069796
vt 0.47693628 0.76069796
vt 0.49430946 0.7587676
vt 0.47693628 0.7587676
vt 0.49430946 0.75490695
vt 0.47693628 0.75490695
vt 0.4923791 0.8456335
vt 0.47500592 0.84370315
vt 0.47500592 0.8456335
vt 0.4923791 0.84370315
vt 0.47500592 0.83984244
vt 0.4923791 0.83984244
vt 0.47500592 0.8359817
vt 0.4923791 0.8359817
vt 0.47500592 0.8108871
vt 0.4923791 0.8108871
vt 0.49430946 0.7857926
vt 0.47500592 0.7800015
vt 0.47500592 0.7857926
vt 0.49430946 0.7800015
vt 0.47500592 0.77421045
vt 0.49430946 0.77421045
vt 0.4286775 0.8572156
vt 0.40551326 0.8726584
vt 0.4286775 0.8726584
vt 0.40551326 0.8572156
vt 0.38620976 0.8572156
vt 0.39779186 0.8572156
vt 0.3920008 0.85914594
vt 0.39972222 0.8533549
vt 0.38234904 0.8533549
vt 0.40165254 0.8494942
vt 0.3804187 0.8494942
vt 0.40165254 0.8456335
vt 0.3804187 0.8456335
vt 0.3804187 0.82246923
vt 0.40165254 0.82246923
vt 0.3804187 0.8012354
vt 0.40165254 0.8012354
vt 0.43060783 0.82246923
vt 0.40165254 0.7722801
vt 0.3804187 0.7722801
vt 0.3804187 0.7684194
vt 0.40165254 0.7684194
vt 0.38234904 0.766489
vt 0.39972222 0.766489
vt 0.38620976 0.7626283
vt 0.39779186 0.7626283
vt 0.3920008 0.76069796
vt 0.43060783 0.8012354
vt 0.4518417 0.8012354
vt 0.43060783 0.7722801
vt 0.4518417 0.82246923
vt 0.4518417 0.7722801
vt 0.4518417 0.7684194
vt 0.43253818 0.7684194
vt 0.44991136 0.766489
vt 0.43253818 0.766489
vt 0.447981 0.7626283
vt 0.4363989 0.7626283
vt 0.44218993 0.76069796
vt 0.43060783 0.8456335
vt 0.4518417 0.8456335
vt 0.4518417 0.8494942
vt 0.43253818 0.8494942
vt 0.44991136 0.8533549
vt 0.43253818 0.8533549
vt 0.447981 0.8572156
vt 0.4363989 0.8572156
vt 0.44218993 0.85914594
vt 0.47693628 0.7587676
vt 0.49430946 0.75490695
vt 0.47693628 0.75490695
vt 0.49430946 0.7587676
vt 0.47693628 0.76069796
vt 0.49430946 0.76069796
vt 0.47693628 0.7645587
vt 0.49430946 0.7645587
vt 0.47693628 0.793514
vt 0.49430946 0.793514
vt 0.47500592 0.766489
vt 0.49430946 0.7626283
vt 0.47500592 0.7626283
vt 0.49430946 0.766489
vt 0.47500592 0.7722801
vt 0.49430946 0.7722801
vt 0.49430946 0.86879766
vt 0.46921486 0.8533549
vt 0.46921486 0.86879766
vt 0.49430946 0.8533549
vt 0.47500592 0.75490695
vt 0.4923791 0.7529766
vt 0.47500592 0.7529766
vt 0.4923791 0.75490695
vt 0.47500592 0.7587676
vt 0.4923791 0.7587676
vt 0.47500592 0.7626283
vt 0.4923791 0.7626283
vt 0.47500592 0.7896533
vt 0.4923791 0.7896533
vt 0.47693628 0.7626283
vt 0.49430946 0.75683725
vt 0.47693628 0.75683725
vt 0.49430946 0.7626283
vt 0.47693628 0.7684194
vt 0.49430946 0.7684194
vn -0.015871048 0.015871048 0.99974805
vn -0.015871048 0.015871048 0.99974805
vn -0.015871048 0.015871048 0.99974805
vn -0.015871048 0.015871048 0.99974805
vn -0.015871048 0.015871048 0.99974805
vn -0.015871048 0.015871048 0.99974805
vn -0.015871048 0.015871048 0.99974805
vn -0.015871048 0.015871048 0.99974805
vn -0.015871048 0.015871048 0.99974805
vn -0.015871048 0.015871048 0.99974805
vn -0.015871048 0.015871048 0.99974805
vn -0.015871048 0.015871048 0.99974805
vn -0.015871048 0.015871048 0.99974805
vn -0.015871048 0.015871048 0.99974805
vn -0.015871048 0.015871048 0.99974805
vn -0.015871048 0.015871048 0.99974805
vn -0.015871048 0.015871048 0.99974805
vn -0.015871048 0.015871048 0.99974805
vn -0.015871048 0.015871048 0.99974805
vn -0.015871048 0.015871048 0.99974805
vn -0.015871048 0.015871048 0.99974805
vn -0.015871048 0.015871048 0.99974805
vn -0.015871048 0.015871048 0.99974805
vn -0.015871048 0.015871048 0.99974805
vn -0.015871048 0.015871048 0.99974805
vn -0.015871048 0.015871048 0.99974805
vn -0.015871048 0.015871048 0.99974805
vn -0.015871048 0.015871048 0.99974805
vn -0.015871048 0.015871048 0.99974805
vn -0.015871048 0.015871048 0.99974805
vn -0.015871048 0.015871048 0.99974805
vn -0.015871048 0.015871048 0.99974805
vn -0.015871048 0.015871048 0.99974805
vn -0.015871048 0.015871048 0.99974805
vn -0.015871048 0.015871048 0.99974805
vn -0.015871048 0.015871048 0.99974805
vn -0.015871048 0.015871048 0.99974805
vn -0.015871048 0.015871048 0.99974805
vn -0.015871048 0.015871048 0.99974805
vn -0.015871048 0.015871048 0.99974805
vn -0.015871048 0.015871048 0.99974805
vn -0.015871048 0.015871048 0.99974805
vn -0.015871048 0.015871048 0.99974805
vn -0.015871048 0.015871048 0.99974805
vn -0.5144958 0.857493 -0
vn -0.8094218 0.5872276 -0.00042286396
vn -0.5144958 0.857493 -0
vn -0.8094218 0.5872276 -0.00042286396
vn -0.95475805 0.29738364 -0
vn -0.95475805 0.29738364 -0
vn -0.9968654 0.079116344 -0
vn -0.9968654 0.079116344 -0
vn -0.999874 0.015871048 -0.00034391563
vn -0.999874 0.015871048 -0.00034391563
vn -0.999874 -0.015870988 -0.00034665503
vn -0.999874 -0.015870988 -0.00034665503
vn -0.9968654 -0.079116285 -0
vn -0.9968654 -0.079116285 -0
vn -0.95475805 -0.29738364 -0
vn -0.95475805 -0.29738364 -0
vn -0.8094218 -0.5872276 -0.00042286396
vn -0.8094218 -0.5872276 -0.00042286396
vn -0.5144958 -0.857493 -0
vn -0.5144958 -0.857493 -0
vn 0.5237435 0.8411639 -0.13467027
vn 0.8344646 0.55106163 -0
vn 0.5237435 0.8411639 -0.13467027
vn 0.8344646 0.55106163 -0
vn 0.96813196 0.23806524 -0.07775266
vn 0.96813196 0.23806524 -0.07775266
vn 0.99886817 0.04756513 -0
vn 0.99886817 0.04756513 -0
vn 0.70710677 0.70710677 -0
vn 0.70710677 0.70710677 -0
vn -0.5144958 0.857493 -0
vn -0.015871048 0.999874 -0.00034526698
vn -0.5144958 0.857493 -0
vn -0.015871048 0.999874 -0.00034526698
vn 0.5237435 0.8411639 -0.13467027
vn 0.5237435 0.8411639 -0.13467027
vn 0.5144958 0.857493 -0
vn 0.8094218 0.5872276 -0.00042286396
vn 0.5144958 0.857493 -0
vn 0.8094218 0.5872276 -0.00042286396
vn 0.954758 0.29738364 -0
vn 0.954758 0.29738364 -0
vn 0.9968654 0.079116344 -0
vn 0.9968654 0.079116344 -0
vn 0.999874 0.015871048 -0.00034391563
vn 0.999874 0.015871048 -0.00034391563
vn 0.999874 -0.015870988 -0.00034665503
vn 0.999874 -0.015870988 -0.00034665503
vn 0.9968654 -0.079116285 -0
vn 0.9968654 -0.079116285 -0
vn 0.954758 -0.29738364 -0
vn 0.954758 -0.29738364 -0
vn 0.8094218 -0.5872276 -0.00042286396
vn 0.8094218 -0.5872276 -0.00042286396
vn 0.5144958 -0.857493 -0
vn 0.5144958 -0.857493 -0
vn -0.5237435 0.8411639 -0.13467027
vn -0.8344646 0.5510616 -0
vn -0.5237435 0.8411639 -0.13467027
vn -0.8344646 0.5510616 -0
vn -0.968132 0.23806524 -0.07775189
vn -0.968132 0.23806524 -0.07775189
vn -0.99886817 0.04756513 -0
vn -0.99886817 0.04756513 -0
vn -0.70710677 0.70710677 -0
vn -0.70710677 0.70710677 -0
vn -0.5237435 0.8411639 -0.13467027
vn -0.015871048 0.999874 -0.00034526698
vn -0.5237435 0.8411639 -0.13467027
vn -0.015871048 0.999874 -0.00034526698
vn 0.5144958 0.857493 -0
vn 0.5144958 0.857493 -0
vn -0.70710677 0.70710677 -0
vn 0.70710677 0.70710677 -0
vn -0.70710677 0.70710677 -0
vn 0.70710677 0.70710677 -0
vn -0.015871048 0.015871048 -0.99974805
vn -0.015871048 0.015871048 -0.99974805
vn -0.015871048 0.015871048 -0.99974805
vn -0.015871048 0.015871048 -0.99974805
vn -0.015871048 0.015871048 -0.99974805
vn -0.015871048 0.015871048 -0.99974805
vn -0.015871048 0.015871048 -0.99974805
vn -0.015871048 0.015871048 -0.99974805
vn -0.015871048 0.015871048 -0.99974805
vn -0.015871048 0.015871048 -0.99974805
vn -0.015871048 0.015871048 -0.99974805
vn -0.015871048 0.015871048 -0.99974805
vn -0.015871048 0.015871048 -0.99974805
vn -0.015871048 0.015871048 -0.99974805
vn -0.015871048 0.015871048 -0.99974805
vn -0.015871048 0.015871048 -0.99974805
vn -0.015871048 0.015871048 -0.99974805
vn -0.015871048 0.015871048 -0.99974805
vn -0.015871048 0.015871048 -0.99974805
vn -0.015871048 0.015871048 -0.99974805
vn -0.015871048 0.015871048 -0.99974805
vn -0.015871048 0.015871048 -0.99974805
vn -0.015871048 0.015871048 -0.99974805
vn -0.015871048 0.015871048 -0.99974805
vn -0.015871048 0.015871048 -0.99974805
vn -0.015871048 0.015871048 -0.99974805
vn -0.015871048 0.015871048 -0.99974805
vn -0.015871048 0.015871048 -0.99974805
vn -0.015871048 0.015871048 -0.99974805
vn -0.015871048 0.015871048 -0.99974805
vn -0.015871048 0.015871048 -0.99974805
vn -0.015871048 0.015871048 -0.99974805
vn -0.015871048 0.015871048 -0.99974805
vn -0.015871048 0.015871048 -0.99974805
vn -0.015871048 0.015871048 -0.99974805
vn -0.015871048 0.015871048 -0.99974805
vn -0.015871048 0.015871048 -0.99974805
vn -0.015871048 0.015871048 -0.99974805
vn -0.015871048 0.015871048 -0.99974805
vn -0.015871048 0.015871048 -0.99974805
vn -0.015871048 0.015871048 -0.99974805
vn -0.015871048 0.015871048 -0.99974805
vn -0.015871048 0.015871048 -0.99974805
vn -0.015871048 0.015871048 -0.99974805
vn 0.8344646 -0.5510616 -0
vn 0.5237435 -0.8411638 -0.13467072
vn 0.5237435 -0.8411638 -0.13467072
vn 0.8344646 -0.5510616 -0
vn 0.96813196 -0.23806524 -0.07775266
vn 0.96813196 -0.23806524 -0.07775266
vn 0.99886817 -0.04756513 -0
vn 0.99886817 -0.04756513 -0
vn 0.70710677 -0.70710677 -0
vn 0.70710677 -0.70710677 -0
vn -0.015871048 -0.999874 -0.00034526698
vn 0.5237435 -0.8411638 -0.13467072
vn 0.5237435 -0.8411638 -0.13467072
vn -0.015871048 -0.999874 -0.00034526698
vn -0.5144958 -0.857493 -0
vn -0.5144958 -0.857493 -0
vn -0.70710677 -0.70710677 -0
vn 0.70710677 -0.70710677 -0
vn 0.70710677 -0.70710677 -0
vn -0.70710677 -0.70710677 -0
vn -0.8344646 -0.5510615 -0
vn -0.5237435 -0.8411638 -0.13467072
vn -0.5237435 -0.8411638 -0.13467072
vn -0.8344646 -0.5510615 -0
vn -0.968132 -0.23806524 -0.07775189
vn -0.968132 -0.23806524 -0.07775189
vn -0.99886817 -0.04756513 -0
vn -0.99886817 -0.04756513 -0
vn -0.70710677 -0.70710677 -0
vn -0.70710677 -0.70710677 -0
vn -0.015871048 -0.999874 -0.00034526698
vn 0.5144958 -0.857493 -0
vn 0.5144958 -0.857493 -0
vn -0.015871048 -0.999874 -0.00034526698
vn -0.5237435 -0.8411638 -0.13467072
vn -0.5237435 -0.8411638 -0.13467072
g Text_H_0
f 3/3/3 2/2/2 1/1/1
f 3/3/3 1/1/1 4/4/4
f 5/5/5 4/4/4 1/1/1
f 4/4/4 5/5/5 6/6/6
f 7/7/7 6/6/6 5/5/5
f 6/6/6 7/7/7 8/8/8
f 9/9/9 8/8/8 7/7/7
f 9/9/9 10/10/10 8/8/8
f 11/11/11 8/8/8 10/10/10
f 10/10/10 12/12/12 11/11/11
f 13/13/13 11/11/11 12/12/12
f 11/11/11 13/13/13 14/14/14
f 13/13/13 12/12/12 15/15/15
f 16/16/16 15/15/15 12/12/12
f 16/16/16 17/17/17 15/15/15
f 18/18/18 15/15/15 17/17/17
f 17/17/17 19/19/19 18/18/18
f 20/20/20 18/18/18 19/19/19
f 19/19/19 21/21/21 20/20/20
f 22/22/22 20/20/20 21/21/21
f 23/23/23 22/22/22 21/21/21
f 24/24/24 14/14/14 13/13/13
f 24/24/24 25/25/25 14/14/14
f 24/24/24 26/26/26 25/25/25
f 27/27/27 14/14/14 25/25/25
f 28/28/28 25/25/25 26/26/26
f 28/28/28 26/26/26 29/29/29
f 30/30/30 29/29/29 26/26/26
f 29/29/29 30/30/30 31/31/31
f 32/32/32 31/31/31 30/30/30
f 31/31/31 32/32/32 33/33/33
f 34/34/34 33/33/33 32/32/32
f 34/34/34 35/35/35 33/33/33
f 14/14/14 27/27/27 36/36/36
f 37/37/37 36/36/36 27/27/27
f 37/37/37 38/38/38 36/36/36
f 39/39/39 36/36/36 38/38/38
f 38/38/38 40/40/40 39/39/39
f 41/41/41 39/39/39 40/40/40
f 40/40/40 42/42/42 41/41/41
f 43/43/43 41/41/41 42/42/42
f 44/44/44 43/43/43 42/42/42
f 47/47/47 46/46/46 45/45/45
f 48/48/48 45/45/45 46/46/46
f 46/46/46 49/49/49 48/48/48
f 50/50/50 48/48/48 49/49/49
f 49/49/49 51/51/51 50/50/50
f 52/52/52 50/50/50 51/51/51
f 51/51/51 53/53/53 52/52/52
f 54/54/54 52/52/52 53/53/53
f 53/53/53 55/55/55 54/54/54
f 56/56/56 54/54/54 55/55/55
f 56/56/56 55/55/55 57/57/57
f 58/58/58 57/57/57 55/55/55
f 57/57/57 58/58/58 59/59/59
f 60/60/60 59/59/59 58/58/58
f 59/59/59 60/60/60 61/61/61
f 62/62/62 61/61/61 60/60/60
f 61/61/61 62/62/62 63/63/63
f 64/64/64 63/63/63 62/62/62
f 67/67/67 66/66/66 65/65/65
f 68/68/68 65/65/65 66/66/66
f 66/66/66 69/69/69 68/68/68
f 70/70/70 68/68/68 69/69/69
f 69/69/69 71/71/71 70/70/70
f 72/72/72 70/70/70 71/71/71
f 71/71/71 73/73/73 72/72/72
f 74/74/74 72/72/72 73/73/73
f 77/77/77 76/76/76 75/75/75
f 78/78/78 75/75/75 76/76/76
f 76/76/76 79/79/79 78/78/78
f 80/80/80 78/78/78 79/79/79
f 83/83/83 82/82/82 81/81/81
f 84/84/84 81/81/81 82/82/82
f 82/82/82 85/85/85 84/84/84
f 86/86/86 84/84/84 85/85/85
f 85/85/85 87/87/87 86/86/86
f 88/88/88 86/86/86 87/87/87
f 88/88/88 87/87/87 89/89/89
f 90/90/90 89/89/89 87/87/87
f 89/89/89 90/90/90 91/91/91
f 92/92/92 91/91/91 90/90/90
f 92/92/92 93/93/93 91/91/91
f 94/94/94 91/91/91 93/93/93
f 94/94/94 93/93/93 95/95/95
f 96/96/96 95/95/95 93/93/93
f 95/95/95 96/96/96 97/97/97
f 98/98/98 97/97/97 96/96/96
f 97/97/97 98/98/98 99/99/99
f 100/100/100 99/99/99 98/98/98
f 103/103/103 102/102/102 101/101/101
f 104/104/104 101/101/101 102/102/102
f 102/102/102 105/105/105 104/104/104
f 106/106/106 104/104/104 105/105/105
f 105/105/105 107/107/107 106/106/106
f 108/108/108 106/106/106 107/107/107
f 107/107/107 109/109/109 108/108/108
f 110/110/110 108/108/108 109/109/109
f 113/113/113 112/112/112 111/111/111
f 114/114/114 111/111/111 112/112/112
f 112/112/112 115/115/115 114/114/114
f 116/116/116 114/114/114 115/115/115
f 119/119/119 118/118/118 117/117/117
f 120/120/120 117/117/117 118/118/118
f 123/123/123 122/122/122 121/121/121
f 122/122/122 124/124/124 121/121/121
f 125/125/125 121/121/121 124/124/124
f 124/124/124 126/126/126 125/125/125
f 127/127/127 125/125/125 126/126/126
f 126/126/126 128/128/128 127/127/127
f 129/129/129 127/127/127 128/128/128
f 129/129/129 128/128/128 130/130/130
f 131/131/131 130/130/130 128/128/128
f 130/130/130 131/131/131 132/132/132
f 133/133/133 132/132/132 131/131/131
f 131/131/131 134/134/134 133/133/133
f 133/133/133 135/135/135 132/132/132
f 136/136/136 132/132/132 135/135/135
f 136/136/136 135/135/135 137/137/137
f 138/138/138 137/137/137 135/135/135
f 137/137/137 138/138/138 139/139/139
f 140/140/140 139/139/139 138/138/138
f 139/139/139 140/140/140 141/141/141
f 142/142/142 141/141/141 140/140/140
f 142/142/142 143/143/143 141/141/141
f 144/144/144 133/133/133 134/134/134
f 144/144/144 134/134/134 145/145/145
f 144/144/144 145/145/145 146/146/146
f 147/147/147 145/145/145 134/134/134
f 148/148/148 146/146/146 145/145/145
f 148/148/148 149/149/149 146/146/146
f 150/150/150 146/146/146 149/149/149
f 149/149/149 151/151/151 150/150/150
f 152/152/152 150/150/150 151/151/151
f 151/151/151 153/153/153 152/152/152
f 154/154/154 152/152/152 153/153/153
f 155/155/155 154/154/154 153/153/153
f 134/134/134 156/156/156 147/147/147
f 157/157/157 147/147/147 156/156/156
f 157/157/157 156/156/156 158/158/158
f 159/159/159 158/158/158 156/156/156
f 158/158/158 159/159/159 160/160/160
f 161/161/161 160/160/160 159/159/159
f 160/160/160 161/161/161 162/162/162
f 163/163/163 162/162/162 161/161/161
f 163/163/163 164/164/164 162/162/162
f 167/167/167 166/166/166 165/165/165
f 168/168/168 165/165/165 166/166/166
f 165/165/165 168/168/168 169/169/169
f 170/170/170 169/169/169 168/168/168
f 169/169/169 170/170/170 171/171/171
f 172/172/172 171/171/171 170/170/170
f 171/171/171 172/172/172 173/173/173
f 174/174/174 173/173/173 172/172/172
f 177/177/177 176/176/176 175/175/175
f 178/178/178 175/175/175 176/176/176
f 175/175/175 178/178/178 179/179/179
f 180/180/180 179/179/179 178/178/178
f 183/183/183 182/182/182 181/181/181
f 184/184/184 181/181/181 182/182/182
f 187/187/187 186/186/186 185/185/185
f 188/188/188 185/185/185 186/186/186
f 185/185/185 188/188/188 189/189/189
f 190/190/190 189/189/189 188/188/188
f 189/189/189 190/190/190 191/191/191
f 192/192/192 191/191/191 190/190/190
f 191/191/191 192/192/192 193/193/193
f 194/194/194 193/193/193 192/192/192
f 197/197/197 196/196/196 195/195/195
f 198/198/198 195/195/195 196/196/196
f 195/195/195 198/198/198 199/199/199
f 200/200/200 199/199/199 198/198/198
