g Treat_01
v 0.4407243 -0.21645585 -0.058364958
v 0.46737918 -0.15211654 -0.058364958
v 0.4407243 -0.071232826 -0.058364958
v 0.376385 -0.01332742 -0.058364958
v 0.36167887 -0.25597858 -0.065718025
v 0.376385 0.01332745 -0.058364958
v 0.36167887 0.25597858 -0.065718025
v 0.4407243 0.21645588 -0.058364958
v 0.4407243 0.071232796 -0.058364958
v 0.46737918 0.15211654 -0.058364958
v 0.28906736 0.24402982 -0.06479889
v 0.28906736 -0.24402983 -0.06479889
v 0.21553671 0.19991148 -0.05652669
v 0.21553671 -0.19991145 -0.05652669
v 0.16038871 0.14384437 -0.04825449
v 0.16038871 -0.14384434 -0.04825449
v 0.0004595518 0.14384437 -0.04825449
v -0.0004595816 -0.14384434 -0.04825449
v -0.16038871 0.14384437 -0.04825449
v -0.16038871 -0.14384434 -0.04825449
v -0.21553671 0.19991148 -0.05652669
v -0.21553671 -0.19991145 -0.05652669
v -0.2890674 0.24402982 -0.06479889
v -0.2890674 -0.24402983 -0.06479889
v -0.3616789 0.25597858 -0.065718025
v -0.3616789 -0.25597858 -0.065718025
v -0.37638503 0.01332745 -0.058364958
v -0.4407243 0.21645588 -0.058364958
v -0.4407243 0.071232796 -0.058364958
v -0.4673792 0.15211654 -0.058364958
v -0.37638503 -0.01332742 -0.058364958
v -0.4407243 -0.21645585 -0.058364958
v -0.4407243 -0.071232826 -0.058364958
v -0.4673792 -0.15211654 -0.058364958
v 0.4434817 0.21645588 0.07950503
v 0.47013658 0.15211654 0.07950503
v 0.4434817 0.071232796 0.07950503
v 0.3791424 0.01332745 0.07950503
v 0.36443627 0.25597858 0.071232796
v 0.3791424 -0.01332742 0.07950503
v 0.36443627 -0.25597858 0.071232796
v 0.29182476 0.24402982 0.07307106
v 0.4434817 -0.21645585 0.07950503
v 0.4434817 -0.071232826 0.07950503
v 0.47013658 -0.15211654 0.07950503
v 0.29182476 -0.24402983 0.07307106
v 0.21829411 0.19991148 0.08134329
v 0.21829411 -0.19991145 0.08134329
v 0.16314611 0.14384437 0.089615464
v 0.16314611 -0.14384434 0.089615464
v 0.0004595518 0.14384437 0.089615464
v 0.0004595518 -0.14384434 0.089615464
v -0.16314614 0.14384437 0.089615464
v -0.16314614 -0.14384434 0.089615464
v -0.21829414 0.19991148 0.08134329
v -0.21829414 -0.19991145 0.08134329
v -0.29182476 0.24402982 0.07307106
v -0.29182476 -0.24402983 0.07307106
v -0.36443627 0.25597858 0.071232796
v -0.36443627 -0.25597858 0.071232796
v -0.3791424 0.01332745 0.07950503
v -0.44348174 0.21645588 0.07950503
v -0.44348174 0.071232796 0.07950503
v -0.47013658 0.15211654 0.07950503
v -0.3791424 -0.01332742 0.07950503
v -0.44348174 -0.21645585 0.07950503
v -0.44348174 -0.071232826 0.07950503
v -0.47013658 -0.15211654 0.07950503
v 0.16038871 -0.14384434 -0.04825449
v -0.0004595816 -0.14384434 -0.04825449
v 0.0004595518 -0.14384434 0.089615464
v -0.16038871 -0.14384434 -0.04825449
v 0.16314611 -0.14384434 0.089615464
v -0.16314614 -0.14384434 0.089615464
v 0.21553671 -0.19991145 -0.05652669
v -0.21553671 -0.19991145 -0.05652669
v 0.21829411 -0.19991145 0.08134329
v -0.21829414 -0.19991145 0.08134329
v 0.28906736 -0.24402983 -0.06479889
v -0.2890674 -0.24402983 -0.06479889
v 0.29182476 -0.24402983 0.07307106
v -0.29182476 -0.24402983 0.07307106
v 0.36167887 -0.25597858 -0.065718025
v -0.3616789 -0.25597858 -0.065718025
v 0.36443627 -0.25597858 0.071232796
v -0.36443627 -0.25597858 0.071232796
v 0.4407243 -0.21645585 -0.058364958
v -0.4407243 -0.21645585 -0.058364958
v 0.4434817 -0.21645585 0.07950503
v -0.44348174 -0.21645585 0.07950503
v 0.46737918 -0.15211654 -0.058364958
v -0.4673792 -0.15211654 -0.058364958
v 0.47013658 -0.15211654 0.07950503
v -0.47013658 -0.15211654 0.07950503
v 0.4407243 -0.071232826 -0.058364958
v -0.4407243 -0.071232826 -0.058364958
v 0.4434817 -0.071232826 0.07950503
v -0.44348174 -0.071232826 0.07950503
v 0.376385 -0.01332742 -0.058364958
v -0.37638503 -0.01332742 -0.058364958
v 0.3791424 -0.01332742 0.07950503
v -0.3791424 -0.01332742 0.07950503
v 0.376385 0.01332745 -0.058364958
v -0.37638503 0.01332745 -0.058364958
v 0.3791424 0.01332745 0.07950503
v -0.3791424 0.01332745 0.07950503
v 0.4407243 0.071232796 -0.058364958
v -0.4407243 0.071232796 -0.058364958
v 0.4434817 0.071232796 0.07950503
v -0.44348174 0.071232796 0.07950503
v 0.46737918 0.15211654 -0.058364958
v -0.4673792 0.15211654 -0.058364958
v 0.47013658 0.15211654 0.07950503
v -0.47013658 0.15211654 0.07950503
v 0.4407243 0.21645588 -0.058364958
v -0.4407243 0.21645588 -0.058364958
v 0.4434817 0.21645588 0.07950503
v -0.44348174 0.21645588 0.07950503
v 0.36167887 0.25597858 -0.065718025
v -0.3616789 0.25597858 -0.065718025
v 0.36443627 0.25597858 0.071232796
v -0.36443627 0.25597858 0.071232796
v 0.28906736 0.24402982 -0.06479889
v -0.2890674 0.24402982 -0.06479889
v 0.29182476 0.24402982 0.07307106
v -0.29182476 0.24402982 0.07307106
v 0.21553671 0.19991148 -0.05652669
v -0.21553671 0.19991148 -0.05652669
v 0.21829411 0.19991148 0.08134329
v -0.21829414 0.19991148 0.08134329
v 0.16038871 0.14384437 -0.04825449
v -0.16038871 0.14384437 -0.04825449
v 0.16314611 0.14384437 0.089615464
v -0.16314614 0.14384437 0.089615464
v 0.0004595518 0.14384437 -0.04825449
v 0.0004595518 0.14384437 0.089615464
vt 0.34375 0.03125
vt 0.34375 0.03125
vt 0.34375 0.03125
vt 0.34375 0.03125
vt 0.34375 0.03125
vt 0.34375 0.03125
vt 0.34375 0.03125
vt 0.34375 0.03125
vt 0.34375 0.03125
vt 0.34375 0.03125
vt 0.34375 0.03125
vt 0.34375 0.03125
vt 0.34375 0.03125
vt 0.34375 0.03125
vt 0.34375 0.03125
vt 0.34375 0.03125
vt 0.34375 0.03125
vt 0.34375 0.03125
vt 0.34375 0.03125
vt 0.34375 0.03125
vt 0.34375 0.03125
vt 0.34375 0.03125
vt 0.34375 0.03125
vt 0.34375 0.03125
vt 0.34375 0.03125
vt 0.34375 0.03125
vt 0.34375 0.03125
vt 0.34375 0.03125
vt 0.34375 0.03125
vt 0.34375 0.03125
vt 0.34375 0.03125
vt 0.34375 0.03125
vt 0.34375 0.03125
vt 0.34375 0.03125
vt 0.34375 0.03125
vt 0.34375 0.03125
vt 0.34375 0.03125
vt 0.34375 0.03125
vt 0.34375 0.03125
vt 0.34375 0.03125
vt 0.34375 0.03125
vt 0.34375 0.03125
vt 0.34375 0.03125
vt 0.34375 0.03125
vt 0.34375 0.03125
vt 0.34375 0.03125
vt 0.34375 0.03125
vt 0.34375 0.03125
vt 0.34375 0.03125
vt 0.34375 0.03125
vt 0.34375 0.03125
vt 0.34375 0.03125
vt 0.34375 0.03125
vt 0.34375 0.03125
vt 0.34375 0.03125
vt 0.34375 0.03125
vt 0.34375 0.03125
vt 0.34375 0.03125
vt 0.34375 0.03125
vt 0.34375 0.03125
vt 0.34375 0.03125
vt 0.34375 0.03125
vt 0.34375 0.03125
vt 0.34375 0.03125
vt 0.34375 0.03125
vt 0.34375 0.03125
vt 0.34375 0.03125
vt 0.34375 0.03125
vt 0.34375 0.03125
vt 0.34375 0.03125
vt 0.34375 0.03125
vt 0.34375 0.03125
vt 0.34375 0.03125
vt 0.34375 0.03125
vt 0.34375 0.03125
vt 0.34375 0.03125
vt 0.34375 0.03125
vt 0.34375 0.03125
vt 0.34375 0.03125
vt 0.34375 0.03125
vt 0.34375 0.03125
vt 0.34375 0.03125
vt 0.34375 0.03125
vt 0.34375 0.03125
vt 0.34375 0.03125
vt 0.34375 0.03125
vt 0.34375 0.03125
vt 0.34375 0.03125
vt 0.34375 0.03125
vt 0.34375 0.03125
vt 0.34375 0.03125
vt 0.34375 0.03125
vt 0.34375 0.03125
vt 0.34375 0.03125
vt 0.34375 0.03125
vt 0.34375 0.03125
vt 0.34375 0.03125
vt 0.34375 0.03125
vt 0.34375 0.03125
vt 0.34375 0.03125
vt 0.34375 0.03125
vt 0.34375 0.03125
vt 0.34375 0.03125
vt 0.34375 0.03125
vt 0.34375 0.03125
vt 0.34375 0.03125
vt 0.34375 0.03125
vt 0.34375 0.03125
vt 0.34375 0.03125
vt 0.34375 0.03125
vt 0.34375 0.03125
vt 0.34375 0.03125
vt 0.34375 0.03125
vt 0.34375 0.03125
vt 0.34375 0.03125
vt 0.34375 0.03125
vt 0.34375 0.03125
vt 0.34375 0.03125
vt 0.34375 0.03125
vt 0.34375 0.03125
vt 0.34375 0.03125
vt 0.34375 0.03125
vt 0.34375 0.03125
vt 0.34375 0.03125
vt 0.34375 0.03125
vt 0.34375 0.03125
vt 0.34375 0.03125
vt 0.34375 0.03125
vt 0.34375 0.03125
vt 0.34375 0.03125
vt 0.34375 0.03125
vt 0.34375 0.03125
vt 0.34375 0.03125
vt 0.34375 0.03125
vt 0.34375 0.03125
vt 0.34375 0.03125
vn -0.015871048 0.015871048 -0.99974805
vn -0.015871048 0.015871048 -0.99974805
vn -0.015871048 0.015871048 -0.99974805
vn -0.015871048 0.015871048 -0.99974805
vn -0.015871048 0.015871048 -0.99974805
vn -0.015871048 0.015871048 -0.99974805
vn -0.015871048 0.015871048 -0.99974805
vn -0.015871048 0.015871048 -0.99974805
vn -0.015871048 0.015871048 -0.99974805
vn -0.015871048 0.015871048 -0.99974805
vn -0.015871048 0.015871048 -0.99974805
vn -0.015871048 0.015871048 -0.99974805
vn -0.015871048 0.015871048 -0.99974805
vn -0.015871048 0.015871048 -0.99974805
vn -0.015871048 0.015871048 -0.99974805
vn -0.015871048 0.015871048 -0.99974805
vn -0.015871048 0.015871048 -0.99974805
vn -0.015871048 0.015871048 -0.99974805
vn 0.015870988 0.015871048 -0.99974805
vn 0.015870988 0.015871048 -0.99974805
vn 0.015870988 0.015871048 -0.99974805
vn 0.015870988 0.015871048 -0.99974805
vn 0.015870988 0.015871048 -0.99974805
vn 0.015870988 0.015871048 -0.99974805
vn 0.015870988 0.015871048 -0.99974805
vn 0.015870988 0.015871048 -0.99974805
vn 0.015870988 0.015871048 -0.99974805
vn 0.015870988 0.015871048 -0.99974805
vn 0.015870988 0.015871048 -0.99974805
vn 0.015870988 0.015871048 -0.99974805
vn 0.015870988 0.015871048 -0.99974805
vn 0.015870988 0.015871048 -0.99974805
vn 0.015870988 0.015871048 -0.99974805
vn 0.015870988 0.015871048 -0.99974805
vn 0.015870988 0.015871048 0.99974805
vn 0.015870988 0.015871048 0.99974805
vn 0.015870988 0.015871048 0.99974805
vn 0.015870988 0.015871048 0.99974805
vn 0.015870988 0.015871048 0.99974805
vn 0.015870988 0.015871048 0.99974805
vn 0.015870988 0.015871048 0.99974805
vn 0.015870988 0.015871048 0.99974805
vn 0.015870988 0.015871048 0.99974805
vn 0.015870988 0.015871048 0.99974805
vn 0.015870988 0.015871048 0.99974805
vn 0.015870988 0.015871048 0.99974805
vn 0.015870988 0.015871048 0.99974805
vn 0.015870988 0.015871048 0.99974805
vn 0.015870988 0.015871048 0.99974805
vn 0.015870988 0.015871048 0.99974805
vn 0.015870988 0.015871048 0.99974805
vn 0.015870988 0.015871048 0.99974805
vn -0.015871048 0.015871048 0.99974805
vn -0.015871048 0.015871048 0.99974805
vn -0.015871048 0.015871048 0.99974805
vn -0.015871048 0.015871048 0.99974805
vn -0.015871048 0.015871048 0.99974805
vn -0.015871048 0.015871048 0.99974805
vn -0.015871048 0.015871048 0.99974805
vn -0.015871048 0.015871048 0.99974805
vn -0.015871048 0.015871048 0.99974805
vn -0.015871048 0.015871048 0.99974805
vn -0.015871048 0.015871048 0.99974805
vn -0.015871048 0.015871048 0.99974805
vn -0.015871048 0.015871048 0.99974805
vn -0.015871048 0.015871048 0.99974805
vn -0.015871048 0.015871048 0.99974805
vn -0.015871048 0.015871048 0.99974805
vn -0.39677536 -0.9046479 0.15550397
vn -0.015871048 -0.999874 -0.00034526698
vn -0.015871048 -0.999874 -0.00034526698
vn 0.39677536 -0.9046479 0.15550397
vn -0.36320823 -0.931708 -0
vn 0.36320817 -0.931708 -0
vn -0.6189697 -0.7776798 0.10995764
vn 0.6189696 -0.7776798 0.10995791
vn -0.6189697 -0.7776798 0.10995764
vn 0.6189696 -0.7776798 0.10995791
vn -0.3332913 -0.9363899 0.10995819
vn 0.33329135 -0.9363899 0.10995791
vn -0.3332913 -0.9363899 0.10995819
vn 0.33329135 -0.9363899 0.10995791
vn 0.14142135 -0.98994946 -0
vn -0.14142141 -0.98994946 -0
vn 0.172001 -0.9850967 -0
vn -0.172001 -0.9850967 -0
vn 0.7141957 -0.68245363 -0.15550417
vn -0.7141957 -0.68245363 -0.15550417
vn 0.7378055 -0.6750135 -0
vn -0.7378055 -0.6750134 -0
vn 0.99886817 -0.04756513 -0
vn -0.99886817 -0.04756513 -0
vn 0.99886817 -0.04756513 -0
vn -0.99886817 -0.04756513 -0
vn 0.8344646 0.55106163 -0
vn -0.8344646 0.5510616 -0
vn 0.8344646 0.55106163 -0
vn -0.8344646 0.5510616 -0
vn 0.9046479 0.39677536 -0.15550402
vn -0.90464795 0.39677536 -0.15550363
vn 0.9046479 0.39677536 -0.15550402
vn -0.90464795 0.39677536 -0.15550363
vn 0.9046479 -0.39677536 -0.15550402
vn -0.90464795 -0.39677536 -0.15550363
vn 0.9046479 -0.39677536 -0.15550402
vn -0.90464795 -0.39677536 -0.15550363
vn 0.8344646 -0.5510616 -0
vn -0.8344646 -0.5510615 -0
vn 0.8344646 -0.5510616 -0
vn -0.8344646 -0.5510615 -0
vn 0.99886817 0.04756513 -0
vn -0.99886817 0.04756513 -0
vn 0.99886817 0.04756513 -0
vn -0.99886817 0.04756513 -0
vn 0.7141957 0.68245375 -0.15550359
vn -0.7141957 0.68245375 -0.15550359
vn 0.73780537 0.67501354 -0
vn -0.7378054 0.6750134 -0
vn 0.14142135 0.98994946 -0
vn -0.14142141 0.98994946 -0
vn 0.172001 0.9850967 -0
vn -0.172001 0.9850967 -0
vn -0.3332913 0.9363899 0.10995819
vn 0.33329135 0.9363899 0.10995791
vn -0.3332913 0.9363899 0.10995819
vn 0.33329135 0.9363899 0.10995791
vn -0.6189697 0.7776798 0.10995764
vn 0.6189696 0.7776798 0.10995791
vn -0.6189697 0.7776798 0.10995764
vn 0.6189696 0.7776798 0.10995791
vn -0.39677536 0.90464795 0.15550359
vn 0.39677536 0.90464795 0.15550359
vn -0.36320823 0.931708 -0
vn 0.36320817 0.931708 -0
vn 0.015870988 0.999874 -0.00034526698
vn 0.015870988 0.999874 -0.00034526698
g Treat_01_0
f 3/3/3 2/2/2 1/1/1
f 1/1/1 4/4/4 3/3/3
f 1/1/1 5/5/5 4/4/4
f 5/5/5 6/6/6 4/4/4
f 5/5/5 7/7/7 6/6/6
f 6/6/6 7/7/7 8/8/8
f 9/9/9 6/6/6 8/8/8
f 8/8/8 10/10/10 9/9/9
f 5/5/5 11/11/11 7/7/7
f 5/5/5 12/12/12 11/11/11
f 12/12/12 13/13/13 11/11/11
f 12/12/12 14/14/14 13/13/13
f 14/14/14 15/15/15 13/13/13
f 14/14/14 16/16/16 15/15/15
f 16/16/16 17/17/17 15/15/15
f 16/16/16 18/18/18 17/17/17
f 19/19/19 17/17/17 18/18/18
f 18/18/18 20/20/20 19/19/19
f 20/20/20 21/21/21 19/19/19
f 20/20/20 22/22/22 21/21/21
f 22/22/22 23/23/23 21/21/21
f 22/22/22 24/24/24 23/23/23
f 24/24/24 25/25/25 23/23/23
f 24/24/24 26/26/26 25/25/25
f 26/26/26 27/27/27 25/25/25
f 27/27/27 28/28/28 25/25/25
f 27/27/27 29/29/29 28/28/28
f 29/29/29 30/30/30 28/28/28
f 26/26/26 31/31/31 27/27/27
f 31/31/31 26/26/26 32/32/32
f 32/32/32 33/33/33 31/31/31
f 32/32/32 34/34/34 33/33/33
f 37/37/37 36/36/36 35/35/35
f 35/35/35 38/38/38 37/37/37
f 35/35/35 39/39/39 38/38/38
f 39/39/39 40/40/40 38/38/38
f 40/40/40 39/39/39 41/41/41
f 39/39/39 42/42/42 41/41/41
f 40/40/40 41/41/41 43/43/43
f 44/44/44 40/40/40 43/43/43
f 43/43/43 45/45/45 44/44/44
f 42/42/42 46/46/46 41/41/41
f 42/42/42 47/47/47 46/46/46
f 47/47/47 48/48/48 46/46/46
f 47/47/47 49/49/49 48/48/48
f 49/49/49 50/50/50 48/48/48
f 49/49/49 51/51/51 50/50/50
f 51/51/51 52/52/52 50/50/50
f 52/52/52 51/51/51 53/53/53
f 53/53/53 54/54/54 52/52/52
f 53/53/53 55/55/55 54/54/54
f 55/55/55 56/56/56 54/54/54
f 55/55/55 57/57/57 56/56/56
f 57/57/57 58/58/58 56/56/56
f 57/57/57 59/59/59 58/58/58
f 59/59/59 60/60/60 58/58/58
f 59/59/59 61/61/61 60/60/60
f 59/59/59 62/62/62 61/61/61
f 62/62/62 63/63/63 61/61/61
f 62/62/62 64/64/64 63/63/63
f 60/60/60 61/61/61 65/65/65
f 65/65/65 66/66/66 60/60/60
f 65/65/65 67/67/67 66/66/66
f 67/67/67 68/68/68 66/66/66
f 71/71/71 70/70/70 69/69/69
f 70/70/70 71/71/71 72/72/72
f 73/73/73 71/71/71 69/69/69
f 71/71/71 74/74/74 72/72/72
f 73/73/73 69/69/69 75/75/75
f 72/72/72 74/74/74 76/76/76
f 77/77/77 73/73/73 75/75/75
f 74/74/74 78/78/78 76/76/76
f 77/77/77 75/75/75 79/79/79
f 76/76/76 78/78/78 80/80/80
f 81/81/81 77/77/77 79/79/79
f 78/78/78 82/82/82 80/80/80
f 81/81/81 79/79/79 83/83/83
f 80/80/80 82/82/82 84/84/84
f 85/85/85 81/81/81 83/83/83
f 82/82/82 86/86/86 84/84/84
f 85/85/85 83/83/83 87/87/87
f 84/84/84 86/86/86 88/88/88
f 89/89/89 85/85/85 87/87/87
f 86/86/86 90/90/90 88/88/88
f 89/89/89 87/87/87 91/91/91
f 88/88/88 90/90/90 92/92/92
f 93/93/93 89/89/89 91/91/91
f 90/90/90 94/94/94 92/92/92
f 93/93/93 91/91/91 95/95/95
f 92/92/92 94/94/94 96/96/96
f 97/97/97 93/93/93 95/95/95
f 94/94/94 98/98/98 96/96/96
f 97/97/97 95/95/95 99/99/99
f 96/96/96 98/98/98 100/100/100
f 101/101/101 97/97/97 99/99/99
f 98/98/98 102/102/102 100/100/100
f 101/101/101 99/99/99 103/103/103
f 100/100/100 102/102/102 104/104/104
f 105/105/105 101/101/101 103/103/103
f 102/102/102 106/106/106 104/104/104
f 105/105/105 103/103/103 107/107/107
f 104/104/104 106/106/106 108/108/108
f 109/109/109 105/105/105 107/107/107
f 106/106/106 110/110/110 108/108/108
f 109/109/109 107/107/107 111/111/111
f 108/108/108 110/110/110 112/112/112
f 113/113/113 109/109/109 111/111/111
f 110/110/110 114/114/114 112/112/112
f 113/113/113 111/111/111 115/115/115
f 112/112/112 114/114/114 116/116/116
f 117/117/117 113/113/113 115/115/115
f 114/114/114 118/118/118 116/116/116
f 117/117/117 115/115/115 119/119/119
f 116/116/116 118/118/118 120/120/120
f 121/121/121 117/117/117 119/119/119
f 118/118/118 122/122/122 120/120/120
f 121/121/121 119/119/119 123/123/123
f 120/120/120 122/122/122 124/124/124
f 125/125/125 121/121/121 123/123/123
f 122/122/122 126/126/126 124/124/124
f 125/125/125 123/123/123 127/127/127
f 124/124/124 126/126/126 128/128/128
f 129/129/129 125/125/125 127/127/127
f 126/126/126 130/130/130 128/128/128
f 129/129/129 127/127/127 131/131/131
f 128/128/128 130/130/130 132/132/132
f 133/133/133 129/129/129 131/131/131
f 130/130/130 134/134/134 132/132/132
f 133/133/133 131/131/131 135/135/135
f 132/132/132 134/134/134 135/135/135
f 136/136/136 133/133/133 135/135/135
f 134/134/134 136/136/136 135/135/135
