g watermelon
v 0.3674608 -0.41203612 -0.09200817
v 0.5846226 -0.28631085 0.092007875
v 0.5846226 -0.28631085 -0.09200817
v 0.3674608 -0.41203612 0.092007875
v 0.12515393 -0.4760417 -0.09200817
v 0.12515393 -0.4760417 0.092007875
v -0.12515366 -0.4760417 -0.09200817
v -0.12515366 -0.4760417 0.092007875
v -0.36746055 -0.41089314 -0.09200817
v -0.36746055 -0.41089314 0.092007875
v -0.5846224 -0.2851679 -0.09200817
v -0.5846224 -0.2851679 0.092007875
v -0.12515366 -0.4760417 -0.09200817
v -0.5846224 -0.2851679 -0.09200817
v -0.36746055 -0.41089314 -0.09200817
v 0.0017145872 0.47604144 -0.09200817
v 0.3674608 -0.41203612 -0.09200817
v 0.12515393 -0.4760417 -0.09200817
v 0.5846226 -0.28631085 -0.09200817
v 0.0017145872 0.47604144 0.092007875
v -0.5846224 -0.2851679 0.092007875
v -0.36746055 -0.41089314 0.092007875
v 0.12515393 -0.4760417 0.092007875
v -0.12515366 -0.4760417 0.092007875
v 0.5846226 -0.28631085 0.092007875
v 0.3674608 -0.41203612 0.092007875
v 0.0017145872 0.47604144 -0.09200817
v 0.5846226 -0.28631085 -0.09200817
vt 0.454733 0.21419063
vt 0.4685573 0.22525004
vt 0.4685573 0.21419063
vt 0.454733 0.22525004
vt 0.4422912 0.21557304
vt 0.4422912 0.22525004
vt 0.42846692 0.21557304
vt 0.42846692 0.22525004
vt 0.41464263 0.21557304
vt 0.41464263 0.22525004
vt 0.40081835 0.21557304
vt 0.40081835 0.22525004
vt 0.40358323 0.15336381
vt 0.42846692 0.14506924
vt 0.41464263 0.14783409
vt 0.4326142 0.1976015
vt 0.38561165 0.17410022
vt 0.3925238 0.1630408
vt 0.38146436 0.1879245
vt 0.4436736 0.19621906
vt 0.4381439 0.14368682
vt 0.4519682 0.14368682
vt 0.47685188 0.15612866
vt 0.46579248 0.14783409
vt 0.493441 0.17824751
vt 0.48652887 0.16580565
vt 0.4464385 0.20589606
vt 0.49620587 0.1879245
vn 0.28752834 -0.6756958 -0.67879504
vn 0.8050849 -0.15813917 0.5716908
vn 0.8050849 -0.15813917 -0.5716908
vn 0.28752834 -0.6756958 0.67879504
vn 0.10638356 -0.7274514 -0.67786205
vn 0.10638356 -0.7274514 0.67786205
vn -0.100639105 -0.7274514 -0.6787387
vn -0.100639105 -0.7274514 0.6787387
vn -0.28178388 -0.6756958 -0.6811997
vn -0.28178388 -0.6756958 0.6811997
vn -0.7993404 -0.15813917 -0.5796955
vn -0.7993404 -0.15813917 0.5796955
vn -0.100639105 -0.7274514 -0.6787387
vn -0.7993404 -0.15813917 -0.5796955
vn -0.28178388 -0.6756958 -0.6811997
vn 0.0028722286 0.82521826 -0.5648067
vn 0.28752834 -0.6756958 -0.67879504
vn 0.10638356 -0.7274514 -0.67786205
vn 0.8050849 -0.15813917 -0.5716908
vn 0.0028722286 0.82521826 0.5648067
vn -0.7993404 -0.15813917 0.5796955
vn -0.28178388 -0.6756958 0.6811997
vn 0.10638356 -0.7274514 0.67786205
vn -0.100639105 -0.7274514 0.6787387
vn 0.8050849 -0.15813917 0.5716908
vn 0.28752834 -0.6756958 0.67879504
vn 0.0028722286 0.82521826 -0.5648067
vn 0.8050849 -0.15813917 -0.5716908
g watermelon_0
f 3/3/3 2/2/2 1/1/1
f 4/4/4 1/1/1 2/2/2
f 1/1/1 4/4/4 5/5/5
f 6/6/6 5/5/5 4/4/4
f 5/5/5 6/6/6 7/7/7
f 8/8/8 7/7/7 6/6/6
f 7/7/7 8/8/8 9/9/9
f 10/10/10 9/9/9 8/8/8
f 9/9/9 10/10/10 11/11/11
f 12/12/12 11/11/11 10/10/10
f 15/15/15 14/14/14 13/13/13
f 14/14/14 16/16/16 13/13/13
f 16/16/16 17/17/17 13/13/13
f 17/17/17 18/18/18 13/13/13
f 19/19/19 17/17/17 16/16/16
f 16/16/16 14/14/14 20/20/20
f 21/21/21 20/20/20 14/14/14
f 21/21/21 22/22/22 20/20/20
f 20/20/20 22/22/22 23/23/23
f 22/22/22 24/24/24 23/23/23
f 25/25/25 20/20/20 23/23/23
f 26/26/26 25/25/25 23/23/23
f 20/20/20 25/25/25 27/27/27
f 28/28/28 27/27/27 25/25/25
