g Whistle_01
v 0.00074863434 0.1630685 0.23902836
v 0.1618202 0.1630685 0.23902836
v 0.1618202 0.1630685 0.1932694
v 0.03735581 0.1630685 0.1932694
v 0.10965496 0.18686315 -0.1270434
v 0.22862831 0.18686315 -0.17646307
v 0.34760165 0.18686315 -0.1270434
v 0.06023529 0.18686315 -0.008070052
v 0.39702132 0.18686315 -0.008070052
v 0.10965496 0.18686315 0.11090329
v 0.34760165 0.18686315 0.11090329
v 0.22862831 0.18686315 0.16032293
v 0.34760165 -0.18653005 -0.1270434
v 0.22862831 -0.18653005 -0.17646307
v 0.10965496 -0.18653005 -0.1270434
v 0.06023529 -0.18653005 -0.008070052
v 0.39702132 -0.18653005 -0.008070052
v 0.10965496 -0.18653005 0.11090329
v 0.34760165 -0.18653005 0.11090329
v 0.22862831 -0.18653005 0.16032293
v -0.46050182 -0.18195415 0.07063535
v -0.46050182 0.18228725 0.07063535
v -0.4238946 0.18228725 0.07063535
v -0.4238946 -0.18195415 0.07063535
v -0.4211491 -0.20757917 0.23902836
v -0.18228725 -0.20757917 0.04318002
v -0.4211491 -0.20757917 0.045010358
v -0.18228725 -0.20757917 0.23902836
v -0.07246575 -0.20757917 0.023961216
v -0.054162174 -0.20757917 0.23902836
v -0.017554969 -0.20757917 -0.008070052
v 0.054744214 -0.20757917 0.16672924
v 0.22862831 -0.20757917 0.23902836
v 0.06023529 -0.20757917 -0.008070052
v 0.10965496 -0.20757917 0.11090329
v 0.10965496 -0.20757917 -0.1270434
v 0.22862831 -0.20757917 0.16032293
v 0.054744214 -0.20757917 -0.18286934
v 0.40342757 -0.20757917 0.16672924
v 0.22862831 -0.20757917 -0.17646307
v 0.34760165 -0.20757917 0.11090329
v 0.22862831 -0.20757917 -0.2551685
v 0.47572675 -0.20757917 -0.008070052
v 0.34760165 -0.20757917 -0.1270434
v 0.39702132 -0.20757917 -0.008070052
v 0.40342757 -0.20757917 -0.18286934
v -0.4211491 0.20699713 0.23902836
v -0.4211491 0.20699713 0.045010358
v -0.18228725 0.20699713 0.04318002
v -0.18228725 0.20699713 0.23902836
v -0.07246575 0.20699713 0.023961216
v -0.054162174 0.20699713 0.23902836
v 0.054744214 0.20699713 0.16672924
v -0.017554969 0.20699713 -0.008070052
v 0.22862831 0.20699713 0.23902836
v 0.10965496 0.20699713 0.11090329
v 0.22862831 0.20699713 0.16032293
v 0.06023529 0.20699713 -0.008070052
v 0.34760165 0.20699713 0.11090329
v 0.054744214 0.20699713 -0.18286934
v 0.40342757 0.20699713 0.16672924
v 0.10965496 0.20699713 -0.1270434
v 0.39702132 0.20699713 -0.008070052
v 0.22862831 0.20699713 -0.2551685
v 0.47572675 0.20699713 -0.008070052
v 0.22862831 0.20699713 -0.17646307
v 0.34760165 0.20699713 -0.1270434
v 0.40342757 0.20699713 -0.18286934
v -0.18228725 0.20699713 0.04318002
v -0.4211491 0.20699713 0.045010358
v -0.4211491 -0.20757917 0.045010358
v -0.18228725 -0.20757917 0.04318002
v -0.07246575 0.20699713 0.023961216
v -0.07246575 -0.20757917 0.023961216
v -0.017554969 0.20699713 -0.008070052
v -0.017554969 -0.20757917 -0.008070052
v 0.054744214 0.20699713 -0.18286934
v 0.054744214 -0.20757917 -0.18286934
v 0.22862831 0.20699713 -0.2551685
v 0.22862831 -0.20757917 -0.2551685
v 0.40342757 0.20699713 -0.18286934
v 0.40342757 -0.20757917 -0.18286934
v 0.47572675 0.20699713 -0.008070052
v 0.47572675 -0.20757917 -0.008070052
v 0.40342757 0.20699713 0.16672924
v 0.40342757 -0.20757917 0.16672924
v 0.22862831 0.20699713 0.23902836
v 0.22862831 -0.20757917 0.23902836
v 0.1618202 -0.16273537 0.23902836
v 0.1618202 0.1630685 0.23902836
v 0.00074863434 -0.16273537 0.23902836
v -0.054162174 0.20699713 0.23902836
v -0.054162174 -0.20757917 0.23902836
v 0.00074863434 0.1630685 0.23902836
v -0.18228725 -0.20757917 0.23902836
v -0.18228725 0.20699713 0.23902836
v -0.4211491 -0.20757917 0.23902836
v -0.4211491 0.20699713 0.23902836
v -0.4211491 0.23079178 0.26922932
v -0.4211491 -0.23045866 0.26922932
v -0.46050182 -0.23045866 0.26922932
v -0.46050182 0.23079178 0.26922932
v -0.4211491 0.23079178 0.018470138
v -0.46050182 0.23079178 0.018470138
v -0.46050182 -0.23045866 0.018470138
v -0.4211491 -0.23045866 0.018470138
v -0.46050182 0.23079178 0.26922932
v -0.46050182 0.23079178 0.018470138
v -0.4211491 0.23079178 0.018470138
v -0.4211491 0.23079178 0.26922932
v -0.46050182 -0.23045866 0.26922932
v -0.4211491 -0.23045866 0.26922932
v -0.4211491 -0.23045866 0.018470138
v -0.46050182 -0.23045866 0.018470138
v -0.4238946 -0.18195415 0.21797928
v -0.4238946 -0.18195415 0.07063535
v -0.4238946 0.18228725 0.07063535
v -0.4238946 0.18228725 0.21797928
v -0.46050182 0.18228725 0.07063535
v -0.46050182 0.18228725 0.21797928
v -0.4238946 0.18228725 0.21797928
v -0.4238946 0.18228725 0.07063535
v -0.46050182 0.18228725 0.21797928
v -0.46050182 -0.18195415 0.21797928
v -0.4238946 -0.18195415 0.21797928
v -0.4238946 0.18228725 0.21797928
v -0.46050182 -0.18195415 0.21797928
v -0.46050182 -0.18195415 0.07063535
v -0.4238946 -0.18195415 0.07063535
v -0.4238946 -0.18195415 0.21797928
v 0.1618202 0.1630685 0.1932694
v 0.1618202 -0.16273537 0.1932694
v 0.03735581 -0.16273537 0.1932694
v 0.03735581 0.1630685 0.1932694
v 0.1618202 0.1630685 0.23902836
v 0.1618202 -0.16273537 0.23902836
v 0.1618202 -0.16273537 0.1932694
v 0.1618202 0.1630685 0.1932694
v 0.00074863434 -0.16273537 0.23902836
v 0.00074863434 0.1630685 0.23902836
v 0.03735581 0.1630685 0.1932694
v 0.03735581 -0.16273537 0.1932694
v 0.1618202 -0.16273537 0.23902836
v 0.00074863434 -0.16273537 0.23902836
v 0.03735581 -0.16273537 0.1932694
v 0.1618202 -0.16273537 0.1932694
v -0.4211491 0.20699713 0.23902836
v -0.4211491 -0.20757917 0.23902836
v -0.4211491 -0.23045866 0.26922932
v -0.4211491 -0.20757917 0.045010358
v -0.4211491 0.23079178 0.26922932
v -0.4211491 -0.23045866 0.018470138
v -0.4211491 0.20699713 0.045010358
v -0.4211491 0.23079178 0.018470138
v -0.46050182 -0.18195415 0.21797928
v -0.46050182 -0.23045866 0.26922932
v -0.46050182 -0.23045866 0.018470138
v -0.46050182 0.23079178 0.26922932
v -0.46050182 -0.18195415 0.07063535
v -0.46050182 0.18228725 0.21797928
v -0.46050182 0.23079178 0.018470138
v -0.46050182 0.18228725 0.07063535
v 0.34760165 -0.20757917 -0.1270434
v 0.34760165 -0.18653005 -0.1270434
v 0.39702132 -0.18653005 -0.008070052
v 0.39702132 -0.20757917 -0.008070052
v 0.22862831 -0.20757917 -0.17646307
v 0.34760165 -0.18653005 0.11090329
v 0.22862831 -0.18653005 -0.17646307
v 0.34760165 -0.20757917 0.11090329
v 0.10965496 -0.20757917 -0.1270434
v 0.22862831 -0.18653005 0.16032293
v 0.10965496 -0.18653005 -0.1270434
v 0.22862831 -0.20757917 0.16032293
v 0.06023529 -0.20757917 -0.008070052
v 0.10965496 -0.18653005 0.11090329
v 0.06023529 -0.18653005 -0.008070052
v 0.10965496 -0.20757917 0.11090329
v 0.39702132 0.20699713 -0.008070052
v 0.39702132 0.18686315 -0.008070052
v 0.34760165 0.18686315 -0.1270434
v 0.34760165 0.20699713 -0.1270434
v 0.34760165 0.20699713 0.11090329
v 0.22862831 0.18686315 -0.17646307
v 0.34760165 0.18686315 0.11090329
v 0.22862831 0.20699713 -0.17646307
v 0.22862831 0.20699713 0.16032293
v 0.10965496 0.18686315 -0.1270434
v 0.22862831 0.18686315 0.16032293
v 0.10965496 0.20699713 -0.1270434
v 0.10965496 0.20699713 0.11090329
v 0.06023529 0.18686315 -0.008070052
v 0.10965496 0.18686315 0.11090329
v 0.06023529 0.20699713 -0.008070052
vt 0.90625 0.65134805
vt 0.90625 0.65134805
vt 0.90625 0.65134805
vt 0.90625 0.65134805
vt 0.90625 0.65134805
vt 0.90625 0.65134805
vt 0.90625 0.65134805
vt 0.90625 0.65134805
vt 0.90625 0.65134805
vt 0.90625 0.65134805
vt 0.90625 0.65134805
vt 0.90625 0.65134805
vt 0.90625 0.65134805
vt 0.90625 0.65134805
vt 0.90625 0.65134805
vt 0.90625 0.65134805
vt 0.90625 0.65134805
vt 0.90625 0.65134805
vt 0.90625 0.65134805
vt 0.90625 0.65134805
vt 0.90625 0.65134805
vt 0.90625 0.65134805
vt 0.90625 0.65134805
vt 0.90625 0.65134805
vt 0.90625 0.65134805
vt 0.90625 0.65134805
vt 0.90625 0.65134805
vt 0.90625 0.65134805
vt 0.90625 0.65134805
vt 0.90625 0.65134805
vt 0.90625 0.65134805
vt 0.90625 0.65134805
vt 0.90625 0.65134805
vt 0.90625 0.65134805
vt 0.90625 0.65134805
vt 0.90625 0.65134805
vt 0.90625 0.65134805
vt 0.90625 0.65134805
vt 0.90625 0.65134805
vt 0.90625 0.65134805
vt 0.90625 0.65134805
vt 0.90625 0.65134805
vt 0.90625 0.65134805
vt 0.90625 0.65134805
vt 0.90625 0.65134805
vt 0.90625 0.65134805
vt 0.90625 0.65134805
vt 0.90625 0.65134805
vt 0.90625 0.65134805
vt 0.90625 0.65134805
vt 0.90625 0.65134805
vt 0.90625 0.65134805
vt 0.90625 0.65134805
vt 0.90625 0.65134805
vt 0.90625 0.65134805
vt 0.90625 0.65134805
vt 0.90625 0.65134805
vt 0.90625 0.65134805
vt 0.90625 0.65134805
vt 0.90625 0.65134805
vt 0.90625 0.65134805
vt 0.90625 0.65134805
vt 0.90625 0.65134805
vt 0.90625 0.65134805
vt 0.90625 0.65134805
vt 0.90625 0.65134805
vt 0.90625 0.65134805
vt 0.90625 0.65134805
vt 0.90625 0.65134805
vt 0.90625 0.65134805
vt 0.90625 0.65134805
vt 0.90625 0.65134805
vt 0.90625 0.65134805
vt 0.90625 0.65134805
vt 0.90625 0.65134805
vt 0.90625 0.65134805
vt 0.90625 0.65134805
vt 0.90625 0.65134805
vt 0.90625 0.65134805
vt 0.90625 0.65134805
vt 0.90625 0.65134805
vt 0.90625 0.65134805
vt 0.90625 0.65134805
vt 0.90625 0.65134805
vt 0.90625 0.65134805
vt 0.90625 0.65134805
vt 0.90625 0.65134805
vt 0.90625 0.65134805
vt 0.90625 0.65134805
vt 0.90625 0.65134805
vt 0.90625 0.65134805
vt 0.90625 0.65134805
vt 0.90625 0.65134805
vt 0.90625 0.65134805
vt 0.90625 0.65134805
vt 0.90625 0.65134805
vt 0.90625 0.65134805
vt 0.90625 0.65134805
vt 0.90625 0.65134805
vt 0.90625 0.65134805
vt 0.90625 0.65134805
vt 0.90625 0.65134805
vt 0.90625 0.65134805
vt 0.90625 0.65134805
vt 0.90625 0.65134805
vt 0.90625 0.65134805
vt 0.90625 0.65134805
vt 0.90625 0.65134805
vt 0.90625 0.65134805
vt 0.90625 0.65134805
vt 0.90625 0.65134805
vt 0.90625 0.65134805
vt 0.90625 0.65134805
vt 0.90625 0.65134805
vt 0.09375 0.09375
vt 0.09375 0.09375
vt 0.09375 0.09375
vt 0.09375 0.09375
vt 0.90625 0.65134805
vt 0.90625 0.65134805
vt 0.90625 0.65134805
vt 0.90625 0.65134805
vt 0.90625 0.65134805
vt 0.90625 0.65134805
vt 0.90625 0.65134805
vt 0.90625 0.65134805
vt 0.90625 0.65134805
vt 0.90625 0.65134805
vt 0.90625 0.65134805
vt 0.90625 0.65134805
vt 0.09375 0.09375
vt 0.09375 0.09375
vt 0.09375 0.09375
vt 0.09375 0.09375
vt 0.90625 0.65134805
vt 0.90625 0.65134805
vt 0.90625 0.65134805
vt 0.90625 0.65134805
vt 0.90625 0.65134805
vt 0.90625 0.65134805
vt 0.90625 0.65134805
vt 0.90625 0.65134805
vt 0.90625 0.65134805
vt 0.90625 0.65134805
vt 0.90625 0.65134805
vt 0.90625 0.65134805
vt 0.90625 0.65134805
vt 0.90625 0.65134805
vt 0.90625 0.65134805
vt 0.90625 0.65134805
vt 0.90625 0.65134805
vt 0.90625 0.65134805
vt 0.90625 0.65134805
vt 0.90625 0.65134805
vt 0.90625 0.65134805
vt 0.90625 0.65134805
vt 0.90625 0.65134805
vt 0.90625 0.65134805
vt 0.90625 0.65134805
vt 0.90625 0.65134805
vt 0.90625 0.65134805
vt 0.90625 0.65134805
vt 0.90625 0.65134805
vt 0.90625 0.65134805
vt 0.90625 0.65134805
vt 0.90625 0.65134805
vt 0.90625 0.65134805
vt 0.90625 0.65134805
vt 0.90625 0.65134805
vt 0.90625 0.65134805
vt 0.90625 0.65134805
vt 0.90625 0.65134805
vt 0.90625 0.65134805
vt 0.90625 0.65134805
vt 0.90625 0.65134805
vt 0.90625 0.65134805
vt 0.90625 0.65134805
vt 0.90625 0.65134805
vt 0.90625 0.65134805
vt 0.90625 0.65134805
vt 0.90625 0.65134805
vt 0.90625 0.65134805
vt 0.90625 0.65134805
vt 0.90625 0.65134805
vt 0.90625 0.65134805
vt 0.90625 0.65134805
vt 0.90625 0.65134805
vt 0.90625 0.65134805
vt 0.90625 0.65134805
vt 0.90625 0.65134805
vt 0.90625 0.65134805
vt 0.90625 0.65134805
vt 0.90625 0.65134805
vt 0.90625 0.65134805
vn 0.015870988 -0.999874 -0.00034526698
vn 0.015870988 -0.999874 -0.00034526698
vn 0.015870988 -0.999874 -0.00034526698
vn 0.015870988 -0.999874 -0.00034526698
vn -0.015871048 0.999874 -0.00034526698
vn -0.015871048 0.999874 -0.00034526698
vn -0.015871048 0.999874 -0.00034526698
vn -0.015871048 0.999874 -0.00034526698
vn -0.015871048 0.999874 -0.00034526698
vn -0.015871048 0.999874 -0.00034526698
vn -0.015871048 0.999874 -0.00034526698
vn -0.015871048 0.999874 -0.00034526698
vn 0.015870988 -0.999874 -0.00034526698
vn 0.015870988 -0.999874 -0.00034526698
vn 0.015870988 -0.999874 -0.00034526698
vn 0.015870988 -0.999874 -0.00034526698
vn 0.015870988 -0.999874 -0.00034526698
vn 0.015870988 -0.999874 -0.00034526698
vn 0.015870988 -0.999874 -0.00034526698
vn 0.015870988 -0.999874 -0.00034526698
vn -0.015871048 0.015871048 0.99974805
vn -0.015871048 0.015871048 0.99974805
vn -0.015871048 0.015871048 0.99974805
vn -0.015871048 0.015871048 0.99974805
vn 0.015870988 -0.999874 -0.00034526698
vn 0.015870988 -0.999874 -0.00034526698
vn 0.015870988 -0.999874 -0.00034526698
vn 0.015870988 -0.999874 -0.00034526698
vn 0.015870988 -0.999874 -0.00034526698
vn 0.015870988 -0.999874 -0.00034526698
vn 0.015870988 -0.999874 -0.00034526698
vn 0.015870988 -0.999874 -0.00034526698
vn 0.015870988 -0.999874 -0.00034526698
vn 0.015870988 -0.999874 -0.00034526698
vn 0.015870988 -0.999874 -0.00034526698
vn 0.015870988 -0.999874 -0.00034526698
vn 0.015870988 -0.999874 -0.00034526698
vn 0.015870988 -0.999874 -0.00034526698
vn 0.015870988 -0.999874 -0.00034526698
vn 0.015870988 -0.999874 -0.00034526698
vn 0.015870988 -0.999874 -0.00034526698
vn 0.015870988 -0.999874 -0.00034526698
vn 0.015870988 -0.999874 -0.00034526698
vn 0.015870988 -0.999874 -0.00034526698
vn 0.015870988 -0.999874 -0.00034526698
vn 0.015870988 -0.999874 -0.00034526698
vn -0.015871048 0.999874 -0.00034526698
vn -0.015871048 0.999874 -0.00034526698
vn -0.015871048 0.999874 -0.00034526698
vn -0.015871048 0.999874 -0.00034526698
vn -0.015871048 0.999874 -0.00034526698
vn -0.015871048 0.999874 -0.00034526698
vn -0.015871048 0.999874 -0.00034526698
vn 0.015870988 0.999874 -0.00034526698
vn -0.015871048 0.999874 -0.00034526698
vn -0.015871048 0.999874 -0.00034526698
vn -0.015871048 0.999874 -0.00034526698
vn 0.015870988 0.999874 -0.00034526698
vn -0.015871048 0.999874 -0.00034526698
vn -0.015871048 0.999874 -0.00034526698
vn -0.015871048 0.999874 -0.00034526698
vn -0.015871048 0.999874 -0.00034526698
vn 0.015870988 0.999874 -0.00034526698
vn -0.015871048 0.999874 -0.00034526698
vn 0.015870988 0.999874 -0.00034526698
vn -0.015871048 0.999874 -0.00034526698
vn -0.015871048 0.999874 -0.00034526698
vn -0.015871048 0.999874 -0.00034526698
vn -0.07935512 0.015871048 -0.9967201
vn -0.015871048 0.015871048 -0.99974805
vn -0.015871048 0.015871048 -0.99974805
vn -0.07935512 0.015871048 -0.9967201
vn -0.3332913 0.015871048 -0.9426903
vn -0.3332913 0.015871048 -0.9426903
vn -0.7459378 -0.015870988 -0.66582644
vn -0.7459378 -0.015870988 -0.66582644
vn -0.7141957 -0.015870988 -0.6997661
vn -0.7141957 -0.015870988 -0.6997661
vn -0.015871048 0.015871048 -0.99974805
vn -0.015871048 0.015871048 -0.99974805
vn 0.7141957 0.015871048 -0.6997661
vn 0.7141957 0.015871048 -0.6997661
vn 0.999874 0.015871048 -0.00034391563
vn 0.999874 0.015871048 -0.00034391563
vn 0.7141957 0.015871048 0.6997661
vn 0.7141957 0.015871048 0.6997661
vn 0.2063232 0.015871048 0.97835517
vn 0.2063232 0.015871048 0.97835517
vn -0.015871048 0.015871048 0.99974805
vn -0.015871048 0.015871048 0.99974805
vn -0.015871048 0.015871048 0.99974805
vn -0.015871048 0.015871048 0.99974805
vn -0.015871048 0.015871048 0.99974805
vn -0.015871048 0.015871048 0.99974805
vn -0.015871048 0.015871048 0.99974805
vn -0.015871048 0.015871048 0.99974805
vn 0.015870988 0.015871048 0.99974805
vn 0.015870988 0.015871048 0.99974805
vn -0.015871048 0.015871048 0.99974805
vn -0.015871048 0.015871048 0.99974805
vn -0.015871048 0.015871048 0.99974805
vn -0.015871048 0.015871048 0.99974805
vn -0.015871048 0.015871048 -0.99974805
vn -0.015871048 0.015871048 -0.99974805
vn -0.015871048 0.015871048 -0.99974805
vn -0.015871048 0.015871048 -0.99974805
vn -0.015871048 0.999874 -0.00034526698
vn -0.015871048 0.999874 -0.00034526698
vn -0.015871048 0.999874 -0.00034526698
vn -0.015871048 0.999874 -0.00034526698
vn 0.015870988 -0.999874 -0.00034526698
vn 0.015870988 -0.999874 -0.00034526698
vn 0.015870988 -0.999874 -0.00034526698
vn 0.015870988 -0.999874 -0.00034526698
vn -0.999874 -0.015870988 -0.00034665503
vn -0.999874 -0.015870988 -0.00034665503
vn -0.999874 -0.015870988 -0.00034665503
vn -0.999874 -0.015870988 -0.00034665503
vn -0.015871048 -0.999874 -0.00034526698
vn -0.015871048 -0.999874 -0.00034526698
vn -0.015871048 -0.999874 -0.00034526698
vn -0.015871048 -0.999874 -0.00034526698
vn 0.015870988 0.015871048 -0.99974805
vn 0.015870988 0.015871048 -0.99974805
vn 0.015870988 0.015871048 -0.99974805
vn 0.015870988 0.015871048 -0.99974805
vn -0.015871048 0.999874 -0.00034526698
vn -0.015871048 0.999874 -0.00034526698
vn -0.015871048 0.999874 -0.00034526698
vn -0.015871048 0.999874 -0.00034526698
vn 0.015870988 0.015871048 0.99974805
vn 0.015870988 0.015871048 0.99974805
vn 0.4285174 0.015871048 0.90339416
vn 0.4285174 0.015871048 0.90339416
vn -0.999874 -0.015870988 -0.00034665503
vn -0.999874 -0.015870988 -0.00034665503
vn -0.999874 -0.015870988 -0.00034665503
vn -0.999874 -0.015870988 -0.00034665503
vn 0.7776798 0.015871048 0.6284602
vn 0.7776798 0.015871048 0.6284602
vn 0.4285174 0.015871048 0.90339416
vn 0.4285174 0.015871048 0.90339416
vn -0.015871048 0.999874 -0.00034526698
vn -0.015871048 0.999874 -0.00034526698
vn -0.015871048 0.999874 -0.00034526698
vn -0.015871048 0.999874 -0.00034526698
vn 0.999874 0.015871048 -0.00034391563
vn 0.999874 0.015871048 -0.00034391563
vn 0.999874 0.015871048 -0.00034391563
vn 0.999874 0.015871048 -0.00034391563
vn 0.999874 0.015871048 -0.00034391563
vn 0.999874 0.015871048 -0.00034391563
vn 0.999874 0.015871048 -0.00034391563
vn 0.999874 0.015871048 -0.00034391563
vn -0.999874 -0.015870988 -0.00034665503
vn -0.999874 -0.015870988 -0.00034665503
vn -0.999874 -0.015870988 -0.00034665503
vn -0.999874 -0.015870988 -0.00034665503
vn -0.999874 -0.015870988 -0.00034665503
vn -0.999874 -0.015870988 -0.00034665503
vn -0.999874 -0.015870988 -0.00034665503
vn -0.999874 -0.015870988 -0.00034665503
vn -0.7141957 0.015871048 0.6997661
vn -0.7141957 0.015871048 0.6997661
vn -0.999874 0.015871048 -0.00034391563
vn -0.999874 0.015871048 -0.00034391563
vn -0.015871048 0.015871048 0.99974805
vn -0.7141957 0.015871048 -0.6997661
vn -0.015871048 0.015871048 0.99974805
vn -0.7141957 0.015871048 -0.6997661
vn 0.7141957 0.015871048 0.6997661
vn -0.015871048 0.015871048 -0.99974805
vn 0.7141957 0.015871048 0.6997661
vn -0.015871048 0.015871048 -0.99974805
vn 0.999874 0.015871048 -0.00034391563
vn 0.7141957 0.015871048 -0.6997661
vn 0.999874 0.015871048 -0.00034391563
vn 0.7141957 0.015871048 -0.6997661
vn -0.999874 0.015871048 -0.00034391563
vn -0.999874 0.015871048 -0.00034391563
vn -0.7141957 0.015871048 0.6997661
vn -0.7141957 0.015871048 0.6997661
vn -0.7141957 0.015871048 -0.6997661
vn -0.015871048 0.015871048 0.99974805
vn -0.7141957 0.015871048 -0.6997661
vn -0.015871048 0.015871048 0.99974805
vn -0.015871048 0.015871048 -0.99974805
vn 0.7141957 0.015871048 0.6997661
vn 0.015870988 0.015871048 -0.99974805
vn 0.7141957 0.015871048 0.6997661
vn 0.7141957 0.015871048 -0.6997661
vn 0.999874 0.015871048 -0.00034391563
vn 0.7141957 0.015871048 -0.6997661
vn 0.999874 0.015871048 -0.00034391563
g Whistle_01_0
f 3/3/3 2/2/2 1/1/1
f 4/4/4 3/3/3 1/1/1
f 7/7/7 6/6/6 5/5/5
f 5/5/5 8/8/8 7/7/7
f 8/8/8 9/9/9 7/7/7
f 8/8/8 10/10/10 9/9/9
f 10/10/10 11/11/11 9/9/9
f 10/10/10 12/12/12 11/11/11
f 15/15/15 14/14/14 13/13/13
f 13/13/13 16/16/16 15/15/15
f 13/13/13 17/17/17 16/16/16
f 17/17/17 18/18/18 16/16/16
f 17/17/17 19/19/19 18/18/18
f 19/19/19 20/20/20 18/18/18
f 23/23/23 22/22/22 21/21/21
f 24/24/24 23/23/23 21/21/21
f 27/27/27 26/26/26 25/25/25
f 26/26/26 28/28/28 25/25/25
f 26/26/26 29/29/29 28/28/28
f 29/29/29 30/30/30 28/28/28
f 29/29/29 31/31/31 30/30/30
f 31/31/31 32/32/32 30/30/30
f 33/33/33 30/30/30 32/32/32
f 32/32/32 31/31/31 34/34/34
f 35/35/35 32/32/32 34/34/34
f 33/33/33 32/32/32 35/35/35
f 34/34/34 31/31/31 36/36/36
f 37/37/37 33/33/33 35/35/35
f 31/31/31 38/38/38 36/36/36
f 39/39/39 33/33/33 37/37/37
f 36/36/36 38/38/38 40/40/40
f 41/41/41 39/39/39 37/37/37
f 38/38/38 42/42/42 40/40/40
f 43/43/43 39/39/39 41/41/41
f 40/40/40 42/42/42 44/44/44
f 45/45/45 43/43/43 41/41/41
f 42/42/42 46/46/46 44/44/44
f 46/46/46 43/43/43 45/45/45
f 44/44/44 46/46/46 45/45/45
f 49/49/49 48/48/48 47/47/47
f 50/50/50 49/49/49 47/47/47
f 51/51/51 49/49/49 50/50/50
f 52/52/52 51/51/51 50/50/50
f 51/51/51 52/52/52 53/53/53
f 54/54/54 51/51/51 53/53/53
f 53/53/53 52/52/52 55/55/55
f 54/54/54 53/53/53 56/56/56
f 56/56/56 53/53/53 57/57/57
f 53/53/53 55/55/55 57/57/57
f 58/58/58 54/54/54 56/56/56
f 57/57/57 55/55/55 59/59/59
f 60/60/60 54/54/54 58/58/58
f 55/55/55 61/61/61 59/59/59
f 62/62/62 60/60/60 58/58/58
f 59/59/59 61/61/61 63/63/63
f 64/64/64 60/60/60 62/62/62
f 61/61/61 65/65/65 63/63/63
f 66/66/66 64/64/64 62/62/62
f 63/63/63 65/65/65 67/67/67
f 68/68/68 64/64/64 66/66/66
f 67/67/67 68/68/68 66/66/66
f 65/65/65 68/68/68 67/67/67
f 71/71/71 70/70/70 69/69/69
f 72/72/72 71/71/71 69/69/69
f 72/72/72 69/69/69 73/73/73
f 74/74/74 72/72/72 73/73/73
f 74/74/74 73/73/73 75/75/75
f 76/76/76 74/74/74 75/75/75
f 75/75/75 77/77/77 76/76/76
f 77/77/77 78/78/78 76/76/76
f 77/77/77 79/79/79 78/78/78
f 79/79/79 80/80/80 78/78/78
f 79/79/79 81/81/81 80/80/80
f 81/81/81 82/82/82 80/80/80
f 81/81/81 83/83/83 82/82/82
f 83/83/83 84/84/84 82/82/82
f 83/83/83 85/85/85 84/84/84
f 85/85/85 86/86/86 84/84/84
f 85/85/85 87/87/87 86/86/86
f 87/87/87 88/88/88 86/86/86
f 88/88/88 87/87/87 89/89/89
f 87/87/87 90/90/90 89/89/89
f 88/88/88 89/89/89 91/91/91
f 87/87/87 92/92/92 90/90/90
f 93/93/93 88/88/88 91/91/91
f 93/93/93 91/91/91 94/94/94
f 92/92/92 94/94/94 90/90/90
f 92/92/92 93/93/93 94/94/94
f 95/95/95 93/93/93 92/92/92
f 96/96/96 95/95/95 92/92/92
f 97/97/97 95/95/95 96/96/96
f 98/98/98 97/97/97 96/96/96
f 101/101/101 100/100/100 99/99/99
f 102/102/102 101/101/101 99/99/99
f 105/105/105 104/104/104 103/103/103
f 106/106/106 105/105/105 103/103/103
f 109/109/109 108/108/108 107/107/107
f 110/110/110 109/109/109 107/107/107
f 113/113/113 112/112/112 111/111/111
f 114/114/114 113/113/113 111/111/111
f 117/117/117 116/116/116 115/115/115
f 118/118/118 117/117/117 115/115/115
f 121/121/121 120/120/120 119/119/119
f 122/122/122 121/121/121 119/119/119
f 125/125/125 124/124/124 123/123/123
f 126/126/126 125/125/125 123/123/123
f 129/129/129 128/128/128 127/127/127
f 130/130/130 129/129/129 127/127/127
f 133/133/133 132/132/132 131/131/131
f 134/134/134 133/133/133 131/131/131
f 137/137/137 136/136/136 135/135/135
f 138/138/138 137/137/137 135/135/135
f 141/141/141 140/140/140 139/139/139
f 142/142/142 141/141/141 139/139/139
f 145/145/145 144/144/144 143/143/143
f 146/146/146 145/145/145 143/143/143
f 149/149/149 148/148/148 147/147/147
f 148/148/148 149/149/149 150/150/150
f 151/151/151 149/149/149 147/147/147
f 149/149/149 152/152/152 150/150/150
f 151/151/151 147/147/147 153/153/153
f 150/150/150 152/152/152 153/153/153
f 154/154/154 151/151/151 153/153/153
f 152/152/152 154/154/154 153/153/153
f 157/157/157 156/156/156 155/155/155
f 156/156/156 158/158/158 155/155/155
f 159/159/159 157/157/157 155/155/155
f 158/158/158 160/160/160 155/155/155
f 161/161/161 157/157/157 159/159/159
f 158/158/158 161/161/161 160/160/160
f 162/162/162 161/161/161 159/159/159
f 161/161/161 162/162/162 160/160/160
f 165/165/165 164/164/164 163/163/163
f 166/166/166 165/165/165 163/163/163
f 163/163/163 164/164/164 167/167/167
f 168/168/168 165/165/165 166/166/166
f 164/164/164 169/169/169 167/167/167
f 170/170/170 168/168/168 166/166/166
f 167/167/167 169/169/169 171/171/171
f 172/172/172 168/168/168 170/170/170
f 169/169/169 173/173/173 171/171/171
f 174/174/174 172/172/172 170/170/170
f 171/171/171 173/173/173 175/175/175
f 176/176/176 172/172/172 174/174/174
f 173/173/173 177/177/177 175/175/175
f 178/178/178 176/176/176 174/174/174
f 175/175/175 177/177/177 178/178/178
f 177/177/177 176/176/176 178/178/178
f 181/181/181 180/180/180 179/179/179
f 182/182/182 181/181/181 179/179/179
f 179/179/179 180/180/180 183/183/183
f 184/184/184 181/181/181 182/182/182
f 180/180/180 185/185/185 183/183/183
f 186/186/186 184/184/184 182/182/182
f 183/183/183 185/185/185 187/187/187
f 188/188/188 184/184/184 186/186/186
f 185/185/185 189/189/189 187/187/187
f 190/190/190 188/188/188 186/186/186
f 187/187/187 189/189/189 191/191/191
f 192/192/192 188/188/188 190/190/190
f 189/189/189 193/193/193 191/191/191
f 194/194/194 192/192/192 190/190/190
f 191/191/191 193/193/193 194/194/194
f 193/193/193 192/192/192 194/194/194
